<?xml version="1.0" standalone="no"?>
<svg
  width="600"
  height="600"
  viewBox="0 0 600 600"
  xmlns="http://www.w3.org/2000/svg"
>
  <g transform="translate(300,300)">
    <path d="M125.3,-168.3C164,-144.3,198,-109.9,204.1,-71.1C210.2,-32.2,188.3,10.9,169.2,50.5C150.1,90,133.8,125.9,106.1,163.2C78.4,200.5,39.2,239.3,-1.9,241.8C-42.9,244.4,-85.8,210.8,-121,175.9C-156.2,141,-183.7,104.8,-192.8,65.3C-201.9,25.9,-192.7,-16.9,-182.9,-63.2C-173.1,-109.6,-162.7,-159.6,-132.1,-186.1C-101.5,-212.7,-50.7,-215.8,-3.7,-210.7C43.3,-205.6,86.6,-192.2,125.3,-168.3Z" fill="#FFB4BC" />
  </g>
</svg>
  