<?xml version="1.0" encoding="UTF-8"?>
<svg width="720px" height="720px" viewBox="0 0 720 720" version="1.1" xmlns="http://www.w3.org/2000/svg" xmlns:xlink="http://www.w3.org/1999/xlink">
    <!-- Generator: Sketch 64 (93537) - https://sketch.com -->
    <title>img_f</title>
    <desc>Created with Sketch.</desc>
    <g id="img_f" stroke="none" stroke-width="1" fill="none" fill-rule="evenodd">
        <g id="fox" transform="translate(10.000000, 43.000000)">
            <path d="M331.763229,618.839802 C327.176562,616.156766 321.801106,614.29928 318.645946,610.024115 C315.958218,606.397595 293.726031,570.043942 300.708281,561.78845 C315.3155,544.510882 326.709131,529.120285 334.041955,515.380786 C314.351424,514.142463 297.611551,511.518395 286.802209,509.484006 C279.17724,508.068779 271.961274,506.211293 265.066667,504 C274.50293,518.830403 280.170531,536.520745 274.210786,561.316707 C272.370276,569.012006 291.885521,603.272301 296.0924,611.8816 C303.688154,627.478585 322.940469,636.20582 339.53427,631.547364 C340.732062,626.328713 336.320682,621.522837 331.763229,618.839802" id="Fill-284" fill="#DE4A42"></path>
            <path d="M331.574386,618.78842 C326.879044,616.095509 321.376221,614.231187 318.146304,609.940286 C315.394893,606.300418 292.635938,569.812963 299.783626,561.527085 C302.983636,557.828033 306.004207,554.217757 308.905152,550.666667 C294.609777,552.442212 283.065813,552.17588 274.572326,550.725852 C274.18354,554.01061 273.525594,557.443331 272.658301,561.053606 C270.774183,568.777228 290.75182,603.163621 295.058376,611.804608 C302.834103,627.458999 322.54258,636.218356 339.529553,631.542753 C340.755725,626.304895 336.239822,621.48133 331.574386,618.78842" id="Fill-285" fill="#17111C"></path>
            <path d="M456.001784,615.818945 C452.616268,597.435468 450.189483,581.493317 449.200792,550.991451 C448.571626,531.343191 448.901189,515.48928 450.339284,498.4 C446.204761,500.04716 442.070237,501.576665 437.965673,503.017929 C425.38234,507.40055 412.379563,510.341907 399.466667,512.312615 C402.492659,535.755226 408.844246,563.933419 415.075992,582.581618 C424.603372,610.995121 438.025594,622.848787 450.189483,632.496436 C453.515078,635.143656 469.603768,636.790816 472.030553,628.702086 C474.457339,620.583942 457.409919,623.495885 456.001784,615.818945" id="Fill-286" fill="#DE4A42"></path>
            <path d="M454.3864,615.855886 C451.053188,597.50844 448.663895,581.597535 447.690479,551.155453 C447.601987,548.425353 447.542992,545.78332 447.483997,543.2 C433.23673,543.933898 419.048457,545.78332 405.066667,548.748268 C407.809929,561.253887 410.966156,573.201744 414.092886,582.683704 C423.473074,611.041516 436.687931,622.87195 448.663895,632.500689 C451.938112,635.142721 467.778241,636.786653 470.167535,628.713776 C472.556828,620.611544 455.77278,623.51778 454.3864,615.855886" id="Fill-287" fill="#17111C"></path>
            <path d="M528.760504,314.819052 C489.140994,315.558479 457.321299,309.169834 432.503708,300.533333 C407.892932,356.522704 336.985531,344.129916 329.008449,341.556712 C263.596372,320.261231 224.981384,330.583624 199.838801,364.478932 C157.323906,421.769693 198.184295,492.16309 286.729911,508.578357 C314.383797,513.695188 379.884508,522.982384 437.024055,502.662946 C492.952267,482.787163 555.350779,444.455296 556.266667,312.748658 C547.58051,313.872586 538.480727,314.64159 528.760504,314.819052" id="Fill-288" fill="#E3746D"></path>
            <path d="M547.039675,589.144368 C544.386238,586.235309 494.619565,528.944648 489.666484,519.059783 C480.408939,500.596161 487.514252,459.39438 488.339765,437.012433 C489.135796,414.630486 414.662682,427.839991 418.259562,453.576261 C421.885926,479.312532 429.403995,516.328829 439.546019,532.002129 C451.162174,549.990803 506.23572,569.582427 532.386809,599.326076 C538.548678,606.331566 541.054701,612.74337 545.447613,612.238738 C559.599273,610.665471 554.498779,597.426282 547.039675,589.144368" id="Fill-289" fill="#E3746D"></path>
            <path d="M455.466667,544.408543 C477.058122,558.830703 512.847506,575.321616 532.406478,597.516375 C538.562842,604.491026 541.066626,610.874605 545.455612,610.372194 C559.594628,608.805853 554.498691,595.624944 547.046251,587.409041 C544.483554,584.601449 498.443384,531.730045 490.519644,518.933333 C477.617792,526.262628 463.626057,537.492999 455.466667,544.408543" id="Fill-290" fill="#434544"></path>
            <path d="M528.236747,315.449927 C503.879456,315.893043 482.511334,313.647922 463.806829,309.866667 C451.850151,328.979732 449.837641,370.307672 453.181959,390.100182 C456.881426,411.753778 459.337872,430.866843 473.30706,447.852951 L476.858548,440.379063 C482.7481,460.053408 489.111183,463.125678 503.43552,477.866667 C549.368103,434.854885 575.619521,364.044968 562.005482,312.525362 C551.498996,314.15012 540.311807,315.243139 528.236747,315.449927" id="Fill-291" fill="#DDE3DD"></path>
            <path d="M198.804965,364.411596 C206.901362,353.504963 216.416107,345.081141 227.733333,339.34703 C210.151741,313.24796 187.871874,270.685489 175.815925,210.329542 C168.901483,175.717977 173.954345,138.653159 161.750651,105.549015 C127.178444,11.6455648 62.998244,2.83749803 0,0 C30.4058129,45.6364267 23.8459582,105.430786 17.7588859,159.934394 C11.6422646,214.408445 9.16015743,275.651111 44.8256736,317.267749 C63.9733576,339.583488 117.043173,372.451174 191.831426,375.2 C193.840751,371.564456 196.145565,367.958469 198.804965,364.411596" id="Fill-292" fill="#E3746D"></path>
            <path d="M102.13554,108.057462 C109.361133,119.877168 118.185834,130.783131 128.283897,140.303742 C132.370503,130.576802 134.532258,120.054021 134.621097,109.531241 C141.698625,114.659991 148.006213,120.820386 153.306956,127.776622 L157.156657,123.237384 C158.548472,114.306284 158.844603,105.316233 158.578085,96.2672315 C123.220059,11.053341 61.0621872,2.74122858 0,0 C24.7565415,36.991848 25.0526723,83.3274536 21.0252924,128.542987 C23.6904703,123.090006 26.3556482,117.6665 29.1096654,112.242994 C32.4263312,126.744977 38.3489488,140.627974 46.4925479,153.066667 C50.6087672,141.158534 54.7249864,129.250401 58.8115925,117.342268 L61.002961,114.129431 L66.7775131,117.106464 C74.2992374,127.216586 81.8209618,137.326709 89.3426861,147.436832 C93.6069707,134.290725 97.8712554,121.174093 102.13554,108.057462" id="Fill-293" fill="#DDE3DD"></path>
            <path d="M271.480689,391.892456 C241.235468,357.96883 210.69546,367.306692 194.246305,389.764841 C170.81068,421.797254 197.105746,472.209889 207.364359,500.046174 C213.112719,515.648677 214.144476,534.235751 198.668121,561.15598 C194.246305,568.868581 202.52984,603.205909 203.885863,611.834566 C206.36208,627.46662 222.899672,636.213478 241.176511,631.544547 C244.124388,626.314162 241.294426,621.49748 237.550622,618.808413 C233.836296,616.119345 229.031256,614.257682 227.26253,609.972904 C225.759113,606.33823 215.441542,569.902838 225.257974,561.628783 C253.587074,537.693124 274.693875,517.303488 286.043203,500.046174 C294.945792,486.571284 315.492497,441.211733 271.480689,391.892456" id="Fill-294" fill="#E3746D"></path>
            <path d="M223.739999,561.606647 C229.518838,556.699789 235.004335,551.911169 240.167156,547.299904 C228.14013,545.260306 216.465115,542.452165 206.872828,539.466667 C204.878102,546.05841 201.79801,553.241341 197.280541,561.133697 C192.88041,568.848697 201.123323,603.196705 202.472697,611.828046 C204.93677,627.464961 221.393262,636.21454 239.580472,631.544157 C242.513893,626.312145 239.697809,621.493965 235.972364,618.804061 C232.276254,616.114157 227.494777,614.251915 225.734725,609.965804 C224.23868,606.33 213.971707,569.883276 223.739999,561.606647" id="Fill-295" fill="#434544"></path>
            <path d="M520.699306,106.464939 C443.633871,108.650688 404.671861,172.953073 387.026452,202.519764 C373.99964,224.318184 364.880871,231.584324 354.666667,241.863253 C354.666667,241.863253 369.795532,258.551746 385.250068,260.678421 C379.980131,262.805096 370.861362,265.374828 368.374426,265.374828 C383.799355,278.991456 434.515102,317.123922 528.752244,315.410767 C617.12732,313.815761 662.395492,269.214658 684.896349,253.412281 C680.692241,250.842548 680.396177,253.057835 673.64592,250.399491 C677.553964,245.762158 690.551169,237.993886 694.4,233.297479 C683.830519,219.621776 671.632686,207.688766 664.142269,193.953989 C645.164572,159.218296 597.764741,104.249652 520.699306,106.464939" id="Fill-296" fill="#EEF0ED"></path>
            <path d="M388.051768,201.969815 C397.667419,185.915352 413.62468,159.529681 438.666667,138.573764 C419.759819,123.957452 379.969902,112.452242 347.2,114.007794 C353.040181,150.167023 368.643491,181.865049 387.137397,203.466667 L388.051768,201.969815" id="Fill-297" fill="#D36251"></path>
            <path d="M416.266667,159.086132 C398.708333,148.123919 375.870833,136.368193 365.866667,130.666667 C370.095833,157.117048 380.8875,177.013613 392.729167,192.266667 C398.708333,182.509415 406.408333,170.75369 416.266667,159.086132" id="Fill-298" fill="#C03F42"></path>
            <path d="M663.470966,193.975491 L667.008252,199.733333 C691.709801,175.468143 703.33231,138.894096 699.170798,106.403417 C668.643132,106.168403 638.204641,118.065985 616,138.717836 C638.531617,156.079492 654.315639,177.348254 663.470966,193.975491" id="Fill-299" fill="#D36251"></path>
            <path d="M660.536202,186.666667 C674.291019,168.605659 688.542294,147.904504 684.307796,126.933333 C670.494573,130.353524 658.90081,145.50437 638.4,156.815001 C647.540674,166.895563 654.89994,177.246141 660.536202,186.666667" id="Fill-300" fill="#C03F42"></path>
            <path d="M521.138787,106.464943 C443.988531,108.650842 404.983638,172.957614 387.318808,202.526323 L386.4,204.032821 C410.348293,192.867015 436.400953,190.356185 467.699713,214.282913 C503.859264,241.961115 511.417203,280.450653 514.707129,315.306873 L514.825685,315.306873 C519.538283,315.454569 524.280519,315.513648 529.200589,315.42503 C532.401598,315.365952 535.424774,315.129638 538.507227,314.981942 L539.129646,314.834247 C537.55878,278.441989 552.91177,243.999318 573.807249,216.970977 C590.227242,195.791392 628.639355,177.683881 668.266667,199.749641 L664.739628,193.959964 C645.741045,159.2219 598.289043,104.249505 521.138787,106.464943" id="Fill-301" fill="#E1806B"></path>
            <path d="M544.096,253.866667 L543.080533,254.673067 C540.6016,260.526933 539.018667,266.769067 537.495467,272.802133 L537.047467,274.564267 L537.376,275.848533 L538.421333,276.266667 L538.869333,276.206933 L539.7952,275.191467 L540.273067,273.339733 C541.7664,267.515733 543.2896,261.512533 545.6192,255.927467 L545.469867,254.493867 L544.096,253.866667" id="Fill-302" fill="#C24849"></path>
            <path d="M557.8048,226.404267 L556.5504,227.0016 C552.2496,232.765867 548.695467,239.127467 546.007467,245.877333 L546.754133,247.6096 L547.351467,247.729067 L548.695467,246.862933 C551.293867,240.292267 554.638933,234.318933 558.909867,228.584533 L559.0592,227.300267 L557.8048,226.404267" id="Fill-303" fill="#C24849"></path>
            <path d="M595.362133,188.622933 L593.928533,188.6528 C587.925333,192.356267 582.101333,196.418133 576.635733,200.7488 L576.098133,202.0928 L577.024,203.287467 L577.442133,203.377067 L578.2784,203.048533 C583.953067,198.568533 589.7472,194.536533 595.4816,191.042133 L596.168533,189.9072 L595.362133,188.622933" id="Fill-304" fill="#C24849"></path>
            <path d="M542.453333,190.743467 L542.871467,190.683733 L543.707733,189.698133 C545.1712,182.619733 546.993067,175.810133 549.173333,169.418667 L548.964267,168.1344 L547.530667,167.656533 L546.455467,168.5824 C544.215467,175.272533 542.363733,182.112 540.96,188.981333 L541.408,190.3552 L542.453333,190.743467" id="Fill-305" fill="#C24849"></path>
            <path d="M548.501333,136.714667 L549.009067,136.625067 L549.7856,135.6096 C550.890667,128.5312 552.413867,121.632 554.325333,115.0912 L554.056533,113.8368 L552.593067,113.418667 L551.547733,114.404267 C549.636267,121.0944 548.113067,128.023467 547.008,135.042133 L547.515733,136.386133 L548.501333,136.714667" id="Fill-306" fill="#C24849"></path>
            <path d="M620.6144,182.0672 C614.909867,182.724267 609.1456,183.5904 603.5008,184.695467 L603.470933,184.695467 L602.395733,185.681067 L602.634667,187.144533 L603.530667,187.5328 L603.829333,187.5328 C609.623467,186.427733 615.178667,185.5616 620.913067,184.904533 L622.1376,183.351467 L620.6144,182.0672" id="Fill-307" fill="#C24849"></path>
            <path d="M635.264,173.077333 L641.476267,173.166933 L645.418667,173.226667 L645.448533,173.226667 L646.7328,171.9424 L645.269333,170.389333 L643.328,170.359467 C640.610133,170.3296 637.8624,170.269867 635.114667,170.24 L635.0848,170.24 L633.800533,171.524267 L635.264,173.077333" id="Fill-308" fill="#C24849"></path>
            <path d="M506.299733,249.879467 L504.955733,250.506667 L504.925867,251.761067 C508.032,258.122667 510.242133,264.782933 511.466667,271.562667 L512.392533,272.6976 L512.96,272.7872 L513.885867,272.488533 L514.274133,271.264 C512.96,264.0064 510.690133,257.077333 507.554133,250.715733 L506.299733,249.879467" id="Fill-309" fill="#C24849"></path>
            <path d="M439.682133,190.106166 C433.3504,188.911499 426.1824,187.597366 419.313067,187.985632 L417.969067,189.598432 L419.342933,190.822966 C425.6448,190.464566 432.215467,191.569632 438.935467,192.853899 L439.234133,192.883766 L440.6976,191.629366 L439.682133,190.106166" id="Fill-310" fill="#C24849"></path>
            <path d="M652.392533,184.341771 C646.389333,183.326304 638.922667,182.071904 632.023467,182.609504 L630.8288,183.415904 L630.9184,184.939104 L632.0832,185.446837 C638.414933,184.939104 644.9856,185.954571 651.7056,187.119371 L651.9744,187.119371 L653.437867,185.835104 L652.392533,184.341771" id="Fill-311" fill="#C24849"></path>
            <polyline id="Fill-312" fill="#C24849" points="405.888 188.608 402.871467 188.996267 400.123733 189.354667 399.018667 190.161067 399.197867 191.6544 400.302933 192.192 400.482133 192.192 403.498667 191.773867 406.276267 191.415467 407.381333 190.638933 407.202133 189.1456 405.888 188.608"></polyline>
            <path d="M517.5744,249.326933 L516.439467,250.939733 C517.335467,255.957333 518.052267,260.437333 518.619733,264.708267 L519.426133,265.7536 L519.9936,265.873067 L520.949333,265.544533 L521.4272,264.260267 C520.829867,259.9296 520.113067,255.419733 519.217067,250.461867 L517.5744,249.326933" id="Fill-313" fill="#C24849"></path>
            <path d="M503.163733,220.2816 L501.9392,221.1776 L502.1184,222.461867 C505.284267,226.673067 507.195733,231.869867 509.077333,236.917333 L510.8992,241.725867 L512.004267,242.621867 L512.213333,242.651733 L513.408,242.084267 L513.527467,240.770133 L511.8848,236.349867 C509.883733,230.944 507.8528,225.3888 504.448,220.849067 L503.163733,220.2816" id="Fill-314" fill="#C24849"></path>
            <path d="M534.004266,236.484267 L533.496532,235.2 L531.973332,235.0208 L531.196799,236.096 L530.748799,239.8592 C530.241066,244.0704 529.703466,248.430933 530.181332,252.8512 L530.927999,253.9264 L531.525332,254.045867 L532.421332,253.777067 L532.988799,252.4928 C532.540799,248.341333 533.048532,244.398933 533.556266,240.247467 L534.004266,236.484267" id="Fill-315" fill="#C24849"></path>
            <path d="M544.5888,218.3104 C541.930667,224.0448 540.1088,230.107733 539.182933,236.290133 L539.630933,237.514667 L540.5568,237.8432 L541.124267,237.7536 L541.9904,236.648533 C542.946133,230.615467 544.708267,224.821333 547.217067,219.415467 L546.56,217.623467 L544.5888,218.3104" id="Fill-316" fill="#C24849"></path>
            <path d="M475.4176,140.925867 C472.311467,135.4304 468.458667,130.4128 463.9488,126.052267 L462.6944,125.664 L461.649067,126.7392 L462.037333,128.142933 C466.368,132.413867 470.0416,137.2224 472.9984,142.449067 L474.103467,143.136 L474.820267,142.926933 L475.4176,140.925867" id="Fill-317" fill="#C24849"></path>
            <path d="M452.151467,193.431467 L450.837333,193.521067 L450.24,194.894933 L451.0464,196.059733 C456.6016,198.568533 461.7088,201.824 466.2784,205.706667 L467.144533,206.0352 L468.16,205.527467 L468.040533,203.4368 C463.202133,199.345067 457.856,195.970133 452.151467,193.431467" id="Fill-318" fill="#C24849"></path>
            <path d="M536.663146,286.242133 L534.901013,287.377067 C533.706346,293.589333 533.437546,299.8912 534.034879,306.133333 L534.751679,307.208533 L535.349013,307.357867 L536.245013,307.089067 L536.842346,305.774933 C536.304746,299.712 536.603413,293.649067 537.738346,287.7952 L536.663146,286.242133" id="Fill-319" fill="#C24849"></path>
            <path d="M497.504,152.4544 L498.728533,153.3504 L499.236267,153.2608 L500.162133,151.3792 C498.071467,145.405867 495.1744,139.790933 491.530667,134.7136 L490.395733,134.116267 L489.1712,134.9824 L489.290667,136.416 C492.785067,141.403733 495.562667,146.8096 497.504,152.4544" id="Fill-320" fill="#C24849"></path>
            <path d="M500.878933,204.6016 L501.476267,202.570667 C498.429867,197.045333 494.606933,192.027733 490.1568,187.607467 L488.9024,187.2192 L487.857067,188.2944 L488.215467,189.668267 C492.516267,193.998933 496.16,198.837333 499.057067,204.093867 L500.162133,204.7808 L500.878933,204.6016" id="Fill-321" fill="#C24849"></path>
            <path d="M465.173333,169.448533 L466.158933,169.9264 L467.054933,169.597867 L467.264,167.5072 C463.202133,162.6688 458.4832,158.487467 453.256533,155.022933 L451.972267,154.8736 L451.136,156.128 L451.7632,157.412267 C456.810667,160.817067 461.320533,164.878933 465.173333,169.448533" id="Fill-322" fill="#C24849"></path>
            <path d="M527.3856,202.376533 L526.609067,201.152 L525.085867,201.211733 L524.578133,202.376533 L524.9664,209.186133 L525.354667,215.5776 L526.1312,216.802133 L526.877867,216.981333 L527.6544,216.7424 L528.221867,215.607467 L528.042667,213.038933 C527.8336,209.4848 527.594667,205.930667 527.3856,202.376533" id="Fill-323" fill="#C24849"></path>
            <path d="M478.4192,133.056 L481.9136,138.820267 L483.168,139.566933 L483.9744,139.328 L484.482133,137.506133 C482.152533,133.742933 479.8528,129.979733 477.582933,126.216533 L476.328533,125.499733 L476.298667,125.499733 L474.984533,126.2464 L475.074133,127.5008 L478.4192,133.056" id="Fill-324" fill="#C24849"></path>
            <path d="M569.856,208.110933 L568.661333,208.5888 L564.718933,213.367467 L560.209067,218.743467 L560.388267,220.864 L561.284267,221.2224 L562.269867,220.744533 C565.077333,217.309867 567.8848,213.934933 570.722133,210.530133 L570.990933,209.096533 L569.856,208.110933" id="Fill-325" fill="#C24849"></path>
            <path d="M518.784,290.766933 L517.290667,290.8864 L516.8128,292.081067 L517.469867,298.263467 L518.186667,305.2224 L519.709867,306.5664 L519.8592,306.5664 L521.053867,305.1328 C520.576,300.7424 520.098133,296.352 519.620267,291.9616 L518.784,290.766933" id="Fill-326" fill="#C24849"></path>
            <path d="M518.276267,164.580267 L517.2608,166.491733 C519.4112,173.570133 520.8448,181.1264 521.531733,188.891733 L522.218667,189.966933 L522.816,190.0864 L523.712,189.8176 L524.3392,188.503467 C523.682133,180.6784 522.218667,173.122133 519.918933,165.386667 L518.276267,164.580267" id="Fill-327" fill="#C24849"></path>
            <path d="M517.2608,149.303467 L518.216533,150.378667 L518.6944,150.4384 L519.709867,150.050133 L520.068267,148.795733 L518.6048,142.2848 L516.842667,134.3104 L515.9168,133.294933 L514.423467,133.5936 L514.065067,134.848 L514.3936,136.311467 C515.349333,140.642133 516.2752,144.9728 517.2608,149.303467" id="Fill-328" fill="#C24849"></path>
            <path d="M517.006933,217.0112 C515.214933,210.112 512.138667,202.734933 508.315733,196.164267 L507.210667,195.5072 L505.9264,196.283733 L505.956267,197.7472 C509.659733,204.1984 512.616533,211.3664 514.289067,217.9072 L515.1552,218.833067 L515.5136,218.8928 L516.618667,218.414933 L517.006933,217.0112" id="Fill-329" fill="#C24849"></path>
            <path d="M459.0208,139.447467 L457.796267,139.089067 L456.750933,140.194133 L457.169067,141.568 C462.4256,146.8544 467.144533,153.006933 470.459733,158.920533 L471.534933,159.5776 L472.8192,158.801067 L472.849067,157.307733 C469.3248,151.1552 464.426667,144.7936 459.0208,139.447467" id="Fill-330" fill="#C24849"></path>
            <path d="M503.611733,137.506133 L504.776533,138.432 L505.224533,138.372267 L506.120533,137.685333 L506.269867,136.4608 C504.1792,129.681067 500.744533,122.423467 496.622933,116.061867 L495.5776,115.434667 L495.488,115.434667 L494.263467,116.270933 L494.353067,117.7344 C498.3552,124.0064 501.640533,131.025067 503.611733,137.506133" id="Fill-331" fill="#C24849"></path>
            <path d="M478.792533,210.888533 L477.538133,210.619733 L476.612267,211.8144 L477.12,213.1584 C482.794667,217.966933 487.991467,223.701333 491.784533,229.316267 L492.829867,229.9136 L493.6064,229.6448 L494.0544,227.554133 C490.0224,221.6704 484.616533,215.7568 478.792533,210.888533" id="Fill-332" fill="#C24849"></path>
            <path d="M569.0944,141.508267 L569.2736,141.4784 L570.4384,140.612267 C573.4848,133.802667 577.546667,127.202133 581.847467,122.005333 L582.0864,120.750933 L580.891733,119.825067 L579.517867,120.3328 C575.037867,125.828267 570.856533,132.667733 567.780267,139.656533 L567.899733,140.910933 L569.0944,141.508267" id="Fill-333" fill="#C24849"></path>
            <path d="M491.829333,165.3568 L491.829333,165.3568 L493.1136,164.520533 L493.053867,163.086933 C489.947733,158.0992 486.752,153.201067 483.586133,148.571733 L481.6448,148.2432 L481.2864,150.244267 C484.7808,155.381333 487.886933,160.130133 490.754133,164.699733 L491.829333,165.3568" id="Fill-334" fill="#C24849"></path>
            <path d="M491.1424,212.366933 L491.172267,212.366933 L492.4864,211.560533 L492.3968,210.2464 C488.573867,204.093867 483.377067,197.732267 476.507733,190.833067 L474.506667,190.833067 L474.446933,192.834133 C481.166933,199.524267 486.244267,205.706667 489.947733,211.68 L491.1424,212.366933" id="Fill-335" fill="#C24849"></path>
            <path d="M524.283087,137.147733 C525.627087,146.555733 526.015353,154.530133 525.41802,161.518933 L525.985487,162.8032 L526.881487,163.072 L527.508687,162.952533 L528.225487,161.8176 C528.852687,154.619733 528.46442,146.4064 527.090553,136.759467 L525.50762,135.594667 L524.283087,137.147733" id="Fill-336" fill="#C24849"></path>
            <path d="M430.363733,158.711467 C437.2032,162.594133 443.296,166.9248 449.000533,171.9424 L449.956267,172.3008 L450.404267,172.241067 L451.419733,171.106133 L450.971733,169.911467 C445.058133,164.6848 438.606933,160.085333 431.797333,156.232533 L430.423467,156.232533 L429.646933,157.546667 L430.363733,158.711467" id="Fill-337" fill="#C24849"></path>
            <path d="M570.916267,179.886933 L570.8864,178.094933 L568.676267,178.1248 L566.645333,180.305067 C562.941867,184.247467 559.118933,188.3392 556.5504,192.968533 L556.5504,194.461867 L557.834667,195.2384 L558.88,194.551467 C561.418667,190.0416 565.211733,185.979733 568.885333,182.0672 L570.916267,179.886933" id="Fill-338" fill="#C24849"></path>
            <polyline id="Fill-339" fill="#C24849" points="587.029333 164.266667 587.566933 163.042133 586.6112 161.847467 585.2672 162.056533 578.487467 167.342933 577.770667 167.880533 577.233067 169.105067 578.1888 170.3296 578.696533 170.4192 579.5328 170.120533 582.877867 167.492267 587.029333 164.266667"></polyline>
            <polyline id="Fill-340" fill="#C24849" points="551.114667 143.374933 549.2032 148.183467 549.352533 149.527467 550.5472 150.094933 550.756267 150.094933 551.831467 149.2288 554.0416 143.733333 555.863467 139.1936 555.0272 137.371733 553.2352 138.1184 551.114667 143.374933"></polyline>
            <path d="M566.018133,159.965867 L562.1952,166.4768 C559.8656,170.4192 557.536,174.3616 555.2064,178.333867 L555.714133,180.245333 L556.4608,180.4544 L557.6256,179.767467 C561.239467,173.6448 564.853333,167.522133 568.437333,161.399467 L568.526933,160.055467 L567.2128,159.278933 L567.182933,159.278933 L566.018133,159.965867" id="Fill-341" fill="#C24849"></path>
            <path d="M537.376,174.3616 L537.376,174.3616 L538.8096,173.0176 C538.958933,165.9392 539.0784,158.801067 539.227733,151.722667 L538.600533,150.498133 L537.1072,150.4384 L536.3904,151.633067 L535.972267,172.957867 L537.376,174.3616" id="Fill-342" fill="#C24849"></path>
            <path d="M527.773867,262.4384 L527.057067,263.6032 L526.877867,272.951467 C526.818133,276.9536 526.728533,280.955733 526.638933,284.928 L528.042667,286.3616 L528.072533,286.3616 L529.476267,285.0176 C529.6256,277.909333 529.745067,270.801067 529.8944,263.6928 L529.297067,262.468267 L527.773867,262.4384" id="Fill-343" fill="#C24849"></path>
            <path d="M566.4512,197.2992 L566.749867,197.329067 L567.645867,196.9408 C571.677867,192.968533 575.978667,189.205333 580.458667,185.681067 L580.6976,183.7696 L578.666667,183.470933 C574.216533,186.935467 569.885867,190.7584 565.794133,194.7904 L565.435733,196.194133 L566.4512,197.2992" id="Fill-344" fill="#C24849"></path>
            <path d="M624.049067,168.507733 C618.523733,169.344 612.878933,170.568533 607.323733,172.1216 L606.308267,173.166933 L606.696533,174.6304 L607.502933,174.958933 L607.8912,174.8992 C613.416533,173.376 618.852267,172.181333 624.5568,171.285333 L625.691733,169.732267 L624.049067,168.507733" id="Fill-345" fill="#C24849"></path>
            <polyline id="Fill-346" fill="#C24849" points="608.0256 161.399467 606.024533 160.802133 601.873067 163.131733 598.3488 165.102933 597.841067 166.9248 599.125333 167.7312 599.872 167.522133 607.517867 163.221333 608.0256 161.399467"></polyline>
            <path d="M572.5888,155.037867 L573.425067,155.306667 L574.500267,154.709333 C578.890667,148.288 583.4304,142.941867 588.418133,138.402133 L588.896,137.028267 L587.880533,135.893333 L586.656,136.221867 C581.4592,140.910933 576.740267,146.4064 572.170667,153.0368 L572.5888,155.037867" id="Fill-347" fill="#C24849"></path>
            <path d="M553.354667,163.101867 L553.563733,164.535467 L554.7584,165.102933 L554.967467,165.073067 L555.953067,164.266667 C558.043733,159.278933 560.3136,154.709333 562.912,150.2592 L562.464,148.497067 L560.373333,148.974933 C557.774933,153.425067 555.4752,158.0544 553.354667,163.101867" id="Fill-348" fill="#C24849"></path>
            <polyline id="Fill-349" fill="#C24849" points="558.088533 204.392533 556.177067 206.811733 552.443733 211.620267 552.2048 212.994133 553.3696 213.949867 553.578667 213.979733 554.653867 213.442133 560.328533 206.154667 560 204.1536 558.088533 204.392533"></polyline>
            <path d="M527.594667,295.8592 L526.0416,294.545067 L524.757333,295.978667 L524.906667,299.264 L525.175467,305.147733 L525.892267,306.3424 L526.609067,306.5216 L527.415467,306.312533 L528.042667,305.088 C527.863467,302.0416 527.714133,298.935467 527.594667,295.889067 L527.594667,295.8592" id="Fill-350" fill="#C24849"></path>
            <path d="M523.876267,124.2304 L525.28,125.3952 L525.578667,125.365333 L526.683733,123.7824 L526.116267,120.288 L525.220267,114.7328 L523.5776,113.538133 L522.382933,115.121067 C522.890667,117.988267 523.368533,120.974933 523.876267,124.2304" id="Fill-351" fill="#C24849"></path>
            <polyline id="Fill-352" fill="#C24849" points="448.388267 147.765333 448.418133 147.7952 449.344 148.183467 450.4192 147.7056 450.4192 145.764267 447.790933 143.136 443.908267 139.2832 441.9072 139.2832 441.847467 141.284267 448.388267 147.765333"></polyline>
            <path d="M625.6768,154.186667 C622.749867,155.022933 619.733333,155.829333 616.776533,156.576 L616.746667,156.605867 L615.8208,158.397867 L617.0752,159.413333 L617.493333,159.3536 L620.718933,158.487467 L626.363733,156.964267 L627.3792,155.232 L625.6768,154.186667" id="Fill-353" fill="#C24849"></path>
            <path d="M415.1616,168.149333 L418.3872,169.015467 L424.032,170.538667 L424.450133,170.5984 L425.794133,169.553067 L424.8384,167.790933 C422.090667,167.104 419.163733,166.327467 415.938133,165.4016 L415.908267,165.4016 L414.205867,166.4768 L415.1616,168.149333" id="Fill-354" fill="#C24849"></path>
            <path d="M550.7264,194.596267 L549.8304,192.744533 L548.068267,193.521067 C546.097067,199.0464 544.484267,203.944533 543.140267,208.514133 L543.4688,209.947733 L544.603733,210.455467 L544.9024,210.4256 L545.7984,209.5296 C547.1424,204.900267 548.7552,200.002133 550.7264,194.596267" id="Fill-355" fill="#C24849"></path>
            <path d="M513.781333,128.322133 L514.199467,128.2624 L515.185067,126.589867 C513.5424,120.765867 512.049067,115.9872 510.466133,111.537067 L508.554667,110.6112 L507.748267,112.253867 C509.301333,116.674133 510.824533,121.572267 512.407467,127.2768 L513.781333,128.322133" id="Fill-356" fill="#C24849"></path>
            <path d="M533.896533,198.030933 L533.896533,198.030933 L535.210667,196.746667 L535.240533,194.775467 C535.2704,191.281067 535.330133,187.7568 535.389867,184.2624 L533.866667,182.769067 L533.8368,182.769067 L532.522667,184.053333 L532.522667,184.9792 C532.462933,188.802133 532.433067,192.6848 532.343467,196.507733 L533.896533,198.030933" id="Fill-357" fill="#C24849"></path>
            <path d="M538.7648,141.194667 L538.8544,141.194667 L540.317867,139.850667 C540.586667,136.654933 540.8256,133.4592 541.064533,130.2336 L541.4528,125.1264 L540.9152,123.931733 L539.421867,123.872 L538.645333,125.0368 C538.257067,129.9648 537.8688,134.862933 537.480533,139.761067 L538.7648,141.194667" id="Fill-358" fill="#C24849"></path>
            <path d="M512.317867,182.082133 L511.511467,183.694933 L513.870933,190.833067 L516.1408,197.672533 L517.245867,198.658133 L517.5744,198.717867 L518.6496,198.24 L518.888533,197.015467 C517.365333,192.356267 515.812267,187.6672 514.2592,183.008 L512.317867,182.082133" id="Fill-359" fill="#C24849"></path>
            <path d="M508.017067,175.242667 L509.122133,176.078933 L509.271467,176.078933 L510.525867,175.451733 L510.645333,174.107733 C508.644267,169.597867 506.2848,165.088 503.387733,160.3392 L501.655467,159.921067 L501.088,162.0416 C503.776,166.372267 506.1056,170.8224 508.017067,175.242667" id="Fill-360" fill="#C24849"></path>
            <path d="M486.065067,126.2464 L487.080533,127.291733 L487.498667,127.351467 L488.544,126.933333 L488.842667,125.7088 C487.857067,121.975467 486.274133,118.660267 484.034133,115.584 L482.152533,115.3152 L481.824,117.346133 C483.825067,120.1536 485.2288,123.050667 486.065067,126.2464" id="Fill-361" fill="#C24849"></path>
            <path d="M463.306667,191.221333 L463.2768,191.221333 L461.454933,191.729067 L461.9328,193.700267 C464.8896,195.492267 467.3088,197.6128 469.339733,200.241067 L470.474667,200.778667 L470.683733,200.778667 L471.8784,199.882667 L471.6992,198.628267 C469.309867,195.581867 466.562133,193.162667 463.306667,191.221333" id="Fill-362" fill="#C24849"></path>
            <path d="M476.388267,164.4608 L476.149333,166.5216 C479.2256,170.2848 481.973333,174.1376 484.541867,178.318933 L484.571733,178.3488 L485.796267,179.005867 L486.632533,178.766933 L487.050667,176.945067 C484.3328,172.554667 481.4656,168.552533 478.269867,164.64 L476.388267,164.4608" id="Fill-363" fill="#C24849"></path>
            <path d="M518.948267,224.7168 L517.902933,226.538667 C519.217067,231.197867 520.1728,235.8272 520.859733,240.695467 L520.859733,240.725333 L522.353067,241.949867 L522.592,241.949867 L523.697067,240.426667 C522.980267,235.349333 521.9648,230.510933 520.6208,225.642667 L518.948267,224.7168" id="Fill-364" fill="#C24849"></path>
            <polyline id="Fill-365" fill="#C24849" points="505.2544 212.113067 503.611733 209.0368 502.417067 208.290133 502.357333 208.290133 501.073067 208.977067 501.0432 210.2912 502.327467 212.7104 504.418133 216.5632 505.582933 217.309867 505.642667 217.309867 506.926933 216.622933 506.9568 215.338667 505.2544 212.113067"></polyline>
            <polyline id="Fill-366" fill="#C24849" points="594.2272 172.3904 591.031467 174.122667 587.9552 175.7952 587.2384 177.019733 587.9552 178.363733 588.5824 178.542933 589.239467 178.333867 591.0912 177.3184 595.4816 174.929067 596.228267 173.7344 595.511467 172.3904 594.2272 172.3904"></polyline>
            <path d="M453.6448,187.771733 L454.062933,187.712 L455.018667,186.517333 L454.510933,185.2032 C450.568533,182.0672 445.998933,179.767467 441.5488,177.557333 L435.456,174.3616 L434.2016,174.3616 L433.514667,175.675733 L434.2912,176.96 L440.324267,180.096 C444.5952,182.2464 449.015467,184.4864 452.808533,187.473067 L453.6448,187.771733" id="Fill-367" fill="#C24849"></path>
            <polyline id="Fill-368" fill="#C24849" points="461.723733 172.9728 459.7824 173.211733 459.991467 175.272533 467.5776 181.365333 468.443733 181.693867 468.891733 181.604267 469.8176 180.4096 469.309867 179.125333 464.411733 175.153067 461.723733 172.9728"></polyline>
            <path d="M427.959467,182.589867 L428.228267,182.619733 L429.213867,182.171733 L429.482667,180.648533 L428.4672,179.7824 L421.896533,178.468267 C417.386667,177.572267 412.8768,176.676267 408.366933,175.780267 L406.784,176.885333 L407.8592,178.587733 L415.3856,180.081067 C419.566933,180.917333 423.748267,181.7536 427.959467,182.589867" id="Fill-369" fill="#C24849"></path>
            <path d="M501.984,183.889067 C500.8192,181.201067 499.296,178.8416 497.3248,176.721067 L495.950933,176.273067 L494.816,177.258667 L495.144533,178.513067 L499.3856,185.024 L500.64,185.860267 L501.237333,185.7408 L501.984,183.889067" id="Fill-370" fill="#C24849"></path>
            <path d="M517.925081,276.669867 L517.088814,278.312533 L517.805614,285.629867 L518.253614,286.794667 L519.119747,287.063467 L519.717081,286.973867 L520.642947,285.7792 C520.971481,282.941867 520.702681,280.343467 519.806681,277.595733 L517.925081,276.669867" id="Fill-371" fill="#C24849"></path>
            <polyline id="Fill-372" fill="#C24849" points="595.5264 140.014933 596.273067 140.253867 597.348267 139.656533 602.664533 134.5792 603.3216 133.533867 602.545067 132.279467 601.021867 132.279467 595.0784 137.984 595.5264 140.014933"></polyline>
            <polyline id="Fill-373" fill="#C24849" points="440.279467 154.306133 441.2352 154.754133 441.563733 154.6944 442.638933 153.649067 442.280533 152.305067 436.605867 147.645867 434.6944 148.093867 435.1424 150.065067 440.279467 154.306133"></polyline>
            <polyline id="Fill-374" fill="#C24849" points="505.0752 241.248 501.431467 234.8864 501.431467 234.856533 499.490133 234.6176 499.191467 236.618667 502.506667 242.382933 503.552 243.2192 503.7312 243.249067 504.925867 242.651733 505.0752 241.248"></polyline>
            <path d="M509.6448,155.739733 L509.6448,155.739733 L511.048533,156.874667 L511.377067,156.8448 L512.4224,155.232 C511.854933,151.946667 510.839467,148.989867 509.376,146.152533 L507.4048,145.525333 L506.7776,147.3472 C508.181333,150.094933 509.1072,152.842667 509.6448,155.739733" id="Fill-375" fill="#C24849"></path>
            <polyline id="Fill-376" fill="#C24849" points="534.001067 216.503467 532.448 217.757867 532.418133 222.8352 533.0752 223.880533 533.672533 224.029867 534.568533 223.761067 535.2256 222.446933 535.3152 217.9968 534.001067 216.503467"></polyline>
            <polyline id="Fill-377" fill="#C24849" points="562.762667 124.8128 563.0912 124.782933 564.196267 123.8272 565.988267 119.735467 565.3312 117.853867 563.419733 118.421333 561.4784 123.1104 561.4784 123.140267 561.687467 124.3648 562.762667 124.8128"></polyline>
            <path d="M590.8672,156.352 L591.195733,156.411733 L592.091733,156.053333 C596.6912,151.662933 601.888,148.0192 607.921067,144.823467 L608.548267,142.852267 L606.7264,142.254933 C600.334933,145.629867 594.929067,149.4528 590.269867,153.873067 L589.851733,155.246933 L590.8672,156.352" id="Fill-378" fill="#C24849"></path>
            <path d="M541.126612,312.708369 C539.573186,305.600103 512.100554,306.018236 511.496443,313.753703 C510.9211,321.459303 518.774533,327.104103 527.145775,327.014503 C535.517017,326.954769 542.651271,319.786769 541.126612,312.708369" id="Fill-379" fill="#17111C"></path>
            <path d="M617.469647,277.026452 C610.886244,271.471252 596.45566,269.589652 590.136769,275.801918 C583.817878,282.014185 585.493119,288.674452 591.576889,292.079252 C597.631268,295.484052 602.833332,295.782718 605.302108,295.424318 L610.739293,293.781652 C614.560018,292.288318 624.05305,282.581652 617.469647,277.026452" id="Fill-380" fill="#E0A4A1"></path>
            <path d="M458.802981,284.474901 C452.219578,278.949568 437.788994,277.038101 431.470103,283.250368 C425.151211,289.492501 426.826452,296.122901 432.910222,299.527701 C438.964601,302.932501 444.166665,303.261035 446.635441,302.902635 L452.072627,301.259968 C455.893352,299.766635 465.386384,290.030101 458.802981,284.474901" id="Fill-381" fill="#E0A4A1"></path>
            <path d="M612.553235,243.912583 C607.416168,237.341917 601.383102,239.432583 598.635368,249.646983 C595.887635,259.89125 603.324435,265.26725 609.178302,263.534983 C615.032168,261.802717 617.690302,250.513117 612.553235,243.912583" id="Fill-382" fill="#17111C"></path>
            <path d="M449.590174,252.823086 C447.977374,245.983619 441.436574,243.564419 437.314974,248.552152 C432.267507,254.674819 435.851507,265.217752 441.167774,265.546286 C446.48404,265.904686 451.202974,259.662552 449.590174,252.823086" id="Fill-383" fill="#17111C"></path>
        </g>
    </g>
</svg>