<?xml version="1.0" encoding="UTF-8"?>
<svg width="720px" height="720px" viewBox="0 0 720 720" version="1.1" xmlns="http://www.w3.org/2000/svg" xmlns:xlink="http://www.w3.org/1999/xlink">
    <!-- Generator: Sketch 64 (93537) - https://sketch.com -->
    <title>img_q</title>
    <desc>Created with Sketch.</desc>
    <g id="img_q" stroke="none" stroke-width="1" fill="none" fill-rule="evenodd">
        <g id="quail" transform="translate(52.000000, 10.000000)">
            <path d="M550.779015,501.493708 C535.818319,488.719145 521.828629,476.742991 504.02684,469.121802 C483.743588,498.989603 451.268808,524.466148 416.744126,539.236737 C440.587735,562.426925 470.221421,593.020554 491.799348,613.343723 C499.459512,620.529415 510.680034,631.416828 518.80772,627.823982 C526.899442,624.194844 508.558204,589.645456 486.620645,563.370501 C513.017643,589.282542 570.378965,633.376562 580.62848,626.481201 C590.877995,619.622131 547.614252,574.657118 526.036325,554.769445 C556.353312,572.697384 607.600889,619.58584 614.505825,609.170215 C617.886367,604.125714 597.782932,575.020032 547.614252,534.482567 C616.771508,582.89526 597.782932,541.631968 550.779015,501.493708" id="Fill-805" fill="#6F585A"></path>
            <path d="M574.50768,540.18371 C580.036048,545.464368 585.708949,550.780948 591.417983,556.061605 L592.754908,553.870312 C587.190407,548.733346 581.662039,543.524534 576.24207,538.387568 C563.595475,526.353417 550.47915,513.924115 536.712429,502.644343 C524.896897,492.981099 512.322569,484.072235 499.350776,475.953673 L497.797052,477.92943 C510.768844,486.012068 523.307039,494.920933 535.122572,504.584176 C548.817027,515.792102 561.897218,528.185482 574.50768,540.18371 Z M568.184382,552.433398 C561.861085,546.865358 554.959658,541.081781 547.299435,534.938976 C553.4782,539.213794 558.934302,542.770155 563.776141,545.679905 C556.549516,539.788559 549.286757,533.681676 542.168531,527.682562 C524.896897,513.026044 507.083265,498.010297 490.136829,487.089754 L488.438572,488.957741 C505.348875,499.806439 523.19864,514.894031 540.542541,529.586473 C549.611955,537.238037 558.970435,545.105139 568.184382,552.433398 Z M547.443968,576.178395 C539.566946,568.059834 531.726058,560.55196 525.619559,555.019843 L532.954584,559.546121 L485.439522,516.151331 C481.284213,512.379433 476.839838,508.320152 471.925733,504.835636 L469.938411,506.52401 C474.960916,510.008525 479.51369,514.139652 483.741266,517.983395 L547.443968,576.178395 Z M435.069944,530.340852 L432.685158,531.562229 C459.098473,555.953837 492.304817,592.164059 519.585327,626.254833 L520.271857,623.057701 C493.280411,589.433923 461.266461,554.552846 435.069944,530.340852 Z M567.93145,566.12 C563.523209,562.276256 560.488026,559.653889 559.656964,558.863587 C551.63541,551.607173 507.155532,513.385272 481.862343,495.711235 L480.055687,497.471454 C504.915278,514.858108 550.226218,553.690698 557.958708,560.731574 C558.789769,561.485954 561.824952,564.144244 566.269327,568.023911 C577.217664,577.543463 597.054751,594.822349 613.603722,609.730327 L614.507051,608.868179 L614.868382,607.503111 C598.355543,592.631056 578.771388,575.567707 567.93145,566.12 Z M491.437621,544.063377 C481.356479,533.969059 471.708934,524.341738 460.146334,514.24742 L458.086746,515.756179 C469.757746,525.958266 479.51369,535.693355 489.847764,545.967287 C492.088018,548.230426 501.301965,556.205297 514.056959,567.269531 C533.388181,584.045497 559.584698,606.784654 580.578045,625.931528 L581.91497,623.776158 C560.957757,604.629284 534.941906,582.069741 515.719083,565.401543 C503.000222,554.373232 493.786275,546.398361 491.437621,544.063377 Z M491.18469,569.855976 L486.017652,563.533556 C491.401488,568.742368 498.086117,574.705559 505.385008,580.812442 C488.113374,563.066559 465.783102,540.650707 447.644272,522.868902 L445.440151,524.23397 C459.568204,538.064263 476.261708,554.73246 491.18469,569.855976 L491.18469,569.855976 Z" id="Fill-806" fill="#B6A39F"></path>
            <path d="M464.382376,291.581802 C393.191748,226.745322 301.923561,180.279179 301.923561,180.279179 C268.509023,76.7929533 167.292171,54.9286517 116.539562,80.1428381 C94.4434325,91.0929991 75.7716628,123.042975 80.4215823,147.248594 C86.4772914,178.622246 144.943721,185.285996 147.863438,240.397003 C149.665732,274.039932 111.961734,353.752781 144.403033,465.307546 C153.054046,495.204367 188.739474,526.902202 216.675037,540.661944 C264.868389,564.255218 320.523239,559.284421 373.618831,551.395983 C426.678378,543.543565 484.604119,504.497596 510.376928,457.491149 C530.526579,420.750477 516.684959,339.272634 464.382376,291.581802" id="Fill-807" fill="#6E7B95"></path>
            <path d="M144.577522,465.335795 C153.234051,495.223499 188.942236,526.911666 216.895613,540.667212 C265.119696,564.253291 320.810037,559.28401 373.939487,551.397978 C387.140695,549.453476 400.666522,545.564474 413.903799,540.091063 C422.271777,516.793058 429.846241,485.717049 415.635105,453.128649 C410.513325,441.425633 391.432891,395.045678 339.998677,356.119645 C307.789173,331.705353 260.430743,319.31816 221.115671,328.896629 C195.723184,335.090225 173.180138,352.230643 160.411757,375.024518 C155.434252,383.882801 150.023921,394.253474 145.659588,405.092268 C142.593734,417.659507 140.357463,430.51482 138.914709,443.08206 C140.501739,450.355934 142.37732,457.773846 144.577522,465.335795" id="Fill-808" fill="#EAB353"></path>
            <path d="M370.922368,531.841443 C367.540143,542.794349 352.751902,548.722654 345.843527,537.589008 L342.497283,540.010937 C351.456582,554.506367 370.6705,546.662207 375.024216,532.528259 L370.922368,531.841443 Z M367.000426,463.12371 L362.862597,462.364598 C359.516353,473.317503 344.728113,479.318105 337.819738,468.184458 L334.437512,470.606388 C343.432792,485.101817 362.610729,477.185361 367.000426,463.12371 Z M259.884631,531.082331 L255.818764,530.323219 C252.436539,541.312273 237.648299,547.276726 230.739923,536.14308 L227.357698,538.565009 C236.352978,553.060438 255.566896,545.216278 259.884631,531.082331 Z M344.440264,513.550453 L340.302435,513.911935 C340.050567,519.84024 331.235192,523.310468 326.233817,523.888839 C320.260951,524.575655 316.662839,522.442911 313.17267,517.599052 L309.826426,520.057129 C314.79182,527.033732 321.484309,529.961737 329.975853,527.359066 C336.632361,525.262471 344.152415,521.430761 344.440264,513.550453 Z M385.854533,487.523747 C382.580251,494.536498 377.578875,501.440805 368.943407,499.452654 C365.057446,498.548949 361.423352,496.741539 357.573373,495.584796 L356.85375,499.705691 C362.466805,501.440805 368.439671,505.055625 374.556461,503.826586 C382.292402,502.163769 386.430231,496.090871 389.59657,489.258861 L385.854533,487.523747 Z M292.231658,503.826586 L288.093829,504.15192 C290.072791,515.249418 276.651833,520.165574 268.592062,514.201121 L265.96544,517.382162 C276.651833,525.407063 294.930242,518.683498 292.231658,503.826586 Z M320.009083,454.737327 L315.907235,454.014363 C315.475462,460.521039 309.106803,467.642235 302.162447,467.678384 C295.613883,467.714532 289.533074,464.93112 283.488246,462.870673 L281.68919,466.702382 C289.820923,469.377349 299.859656,474.618839 308.279238,470.17261 C314.503972,466.95542 319.469366,462.075412 320.009083,454.737327 Z M354.838807,429.54203 L350.772941,428.782918 C350.125281,433.55448 344.872037,439.446637 339.762718,439.518934 C335.01321,439.59123 330.263702,437.78382 326.34176,435.145001 L323.679157,438.362191 C328.392684,441.579381 336.164606,445.302646 342.029529,443.350643 C348.146319,441.326344 354.011242,436.229447 354.838807,429.54203 Z M403.557244,453.761326 C402.909584,458.569037 398.447925,463.304451 394.058229,465.075713 C388.697042,467.244605 384.919024,465.039565 380.997082,461.460893 L378.37046,464.714231 C383.083987,468.943571 389.236758,472.233057 395.497473,469.015867 C401.146509,466.051715 406.759564,461.207855 407.695073,454.48429 L403.557244,453.761326 Z M171.982754,428.819066 C177.667771,425.891061 183.244845,421.011054 184.216335,414.323636 L180.114487,413.600672 C179.466827,418.372235 175.005168,423.10765 170.507528,424.878912 C165.218303,427.047804 161.476267,424.878912 157.518344,421.264091 L154.855741,424.51743 C159.533286,428.782918 165.722039,432.036256 171.982754,428.819066 Z M305.904484,538.058934 C301.406844,548.61421 291.080262,552.62666 281.149473,546.264576 L278.522851,549.481766 C290.576527,557.25363 304.069447,553.096587 309.682501,539.794048 L305.904484,538.058934 Z M304.932994,429.288992 L301.154976,427.553879 C296.657336,438.073006 286.330754,442.121604 276.435946,435.759521 L273.773343,439.012859 C285.827019,446.748574 299.319939,442.555383 304.932994,429.288992 Z M179.142997,476.137063 C186.267259,472.702984 187.166787,467.027716 184.180354,460.195706 L180.22243,461.677782 C182.597184,467.027716 182.12943,470.208758 176.552356,472.77528 C171.371075,475.233358 165.650077,475.450247 161.944021,470.461795 L158.525815,472.919873 C163.779058,479.932624 171.874811,479.679587 179.142997,476.137063 Z M408.954412,506.067775 C411.293185,511.417709 410.78945,514.598751 405.284338,517.165273 C400.103057,519.587203 394.346078,519.84024 390.604041,514.887936 L387.221816,517.309866 C392.51104,524.286469 400.606792,524.06958 407.874979,520.527056 C414.927278,517.092977 415.862787,511.453857 412.840373,504.585699 L408.954412,506.067775 Z M221.780624,508.851187 C226.314246,519.984833 206.812478,526.852991 200.371858,518.466608 L196.989633,520.888538 C206.23678,532.962038 232.107206,523.165875 225.666585,507.36911 L221.780624,508.851187 Z M329.975853,483.005222 L325.838024,483.366704 C327.745024,496.343908 312.596972,501.440805 302.990013,495.259462 L300.363391,498.476652 C312.740897,506.429257 332.458551,499.92258 329.975853,483.005222 Z M240.166977,430.120401 L237.504374,433.337591 C249.917861,441.290196 269.635514,434.747371 267.116836,417.86616 L262.979007,418.227642 C264.886007,431.204847 249.737955,436.301744 240.166977,430.120401 Z M344.728113,399.936652 L342.06551,403.153842 C354.443015,411.070298 374.19665,404.527473 371.713953,387.682411 L367.540143,388.007745 C369.483123,400.948801 354.335072,406.081846 344.728113,399.936652 Z M215.088136,480.655588 C215.555891,486.547745 214.188608,490.524048 209.11527,493.885831 C204.977441,496.70539 196.018142,499.741839 192.060219,495.404055 L188.677994,497.825985 C193.967218,503.645845 202.134933,501.693842 208.539572,498.946579 C216.671305,495.404055 219.909606,488.825082 219.225965,480.257958 L215.088136,480.655588 Z M250.961313,470.497943 C256.430443,467.569939 258.661273,460.882522 261.827611,455.930218 L258.625292,453.255251 C256.466424,456.653182 254.847274,460.340298 252.436539,463.557489 C247.147314,470.678684 238.871657,468.690533 231.891319,465.437195 L230.128244,469.268905 C236.964657,472.37765 244.052938,474.293505 250.961313,470.497943 Z M294.966223,403.298435 C302.522258,416.384084 320.764686,409.588222 323.715138,396.538721 L319.649272,395.815757 C317.418442,405.61192 303.961503,410.600372 298.312467,400.876505 L294.966223,403.298435 Z M253.084199,391.947899 L250.421596,395.165089 C255.602878,400.37043 262.475272,400.876505 269.347666,399.285984 C278.594813,397.15324 282.840586,386.670261 287.302245,379.332176 L283.560208,377.597062 C280.213964,383.091589 277.407436,389.164487 272.406061,393.393827 C267.080855,397.876204 257.61782,396.538721 253.084199,391.947899 Z M221.852587,411.106446 C217.930645,414.359785 210.08676,413.347635 206.560611,410.058149 L203.898008,413.311487 C208.863402,417.86616 216.635324,417.938457 222.60819,415.552675 C228.329188,413.166894 231.819357,405.250438 233.330564,399.755911 L229.264697,398.996798 C227.969377,403.623768 225.522661,408.033849 221.852587,411.106446 Z M199.580273,454.014363 L196.91767,457.231553 C201.919046,461.750078 209.367138,461.786227 215.555891,460.340298 C222.428285,458.749778 225.018925,452.206953 225.81051,445.881017 L221.780624,445.194202 C221.025021,450.507987 219.585776,454.592734 214.116646,456.436293 C209.619006,457.918369 203.142404,457.231553 199.580273,454.014363 Z M302.198428,361.366519 C309.070822,359.73985 311.625482,353.197026 312.453048,346.907238 L308.387181,346.148126 C307.631578,351.49806 306.192333,355.618955 300.759184,357.462514 C296.225562,358.94459 289.748961,358.221626 286.18683,355.040584 L283.560208,358.221626 C288.561584,362.776299 296.009676,362.812448 302.198428,361.366519 Z M391.107777,422.131648 C387.653589,433.373739 377.147102,437.060856 366.964445,431.891663 L365.165389,435.723372 C378.04663,442.157753 390.963852,436.590929 395.173643,422.854612 L391.107777,422.131648 Z M258.085575,348.172425 L254.055689,347.449461 C250.565521,358.727701 240.059034,362.378669 229.876377,357.245624 L228.07732,361.077334 C240.958562,367.511714 253.911765,361.944891 258.085575,348.172425 Z M318.138065,368.957642 C320.260951,376.151134 324.578685,379.874399 332.206683,377.886248 C340.050567,375.825801 346.347263,370.728904 345.879508,362.017187 L341.74168,362.342521 C342.06551,368.560012 337.531889,372.102536 332.026777,373.656908 C326.125873,375.247429 323.679157,373.150834 322.024026,367.547862 L318.138065,368.957642 Z M268.84393,485.897078 L264.706101,486.25856 C265.029931,492.476051 260.49631,496.018575 254.991199,497.536799 C249.090295,499.163468 246.67956,497.030724 245.024428,491.427753 L241.102486,492.873681 C243.225372,500.067173 247.543107,503.75429 255.207085,501.766139 C263.014988,499.741839 269.347666,494.681091 268.84393,485.897078 Z M213.61291,365.487415 L209.475081,365.848897 C209.978817,376.44032 190.692936,383.88685 186.986881,372.427869 L183.10092,373.837649 C188.282201,390.068192 214.368514,380.705808 213.61291,365.487415 L213.61291,365.487415 Z" id="Fill-809" fill="#CE7239"></path>
            <path d="M257.098584,622.495671 C257.169905,621.883864 253.568171,586.291118 251.927778,553.86537 C246.043757,552.497802 240.195397,550.842326 234.45402,548.826963 C232.813626,569.52042 232.385697,601.37035 234.917609,621.955841 C214.020421,630.701076 201.28954,641.713594 186.026747,658.196383 C181.105566,663.378744 188.915266,671.404207 193.836447,666.149868 C205.247881,653.913737 218.264048,649.811034 232.777965,641.029811 C224.825622,658.484292 224.112408,678.709897 223.363532,692.025687 C222.971264,699.223411 232.884948,702.174478 234.097412,695.012743 C237.021592,677.702216 240.017094,665.682016 247.363204,649.235216 C252.783635,661.795245 264.658659,679.249726 269.6155,683.820281 C274.893288,688.714734 282.667328,684.504065 279.279558,678.134079 C270.221733,661.14745 259.202567,641.281731 257.098584,622.495671" id="Fill-810" fill="#C38F6A"></path>
            <path d="M222.752177,687.329328 C226.533057,688.565106 230.386646,689.473766 234.349299,690.018962 L235.003682,686.675093 C230.89561,686.129897 226.896603,685.18489 222.970305,683.840073 L222.752177,687.329328 Z M224.279071,669.992092 C228.60527,671.991145 233.076887,673.590387 237.693923,674.680779 L238.602789,671.373256 C233.80398,670.246517 229.186944,668.574583 224.788035,666.430145 L224.279071,669.992092 Z M229.841327,641.859975 C225.042518,638.443413 220.970801,634.372615 217.880659,629.502197 L214.97229,631.319517 C218.026077,636.117243 222.025085,640.18804 226.642121,643.677295 L229.841327,641.859975 Z M268.595345,657.125465 C264.487274,660.396641 259.833883,663.049929 254.92601,663.740511 L256.852805,666.829955 C261.615259,665.848602 266.123231,663.377047 270.158593,660.251256 L268.595345,657.125465 Z M276.229814,671.954798 C272.521643,674.426354 268.413572,676.134635 264.014664,677.152334 L266.305004,680.096393 C270.44943,679.006001 274.303019,677.29772 277.829417,674.97155 L276.229814,671.954798 Z M262.378706,642.877674 C258.852309,646.803086 252.63567,649.819837 247.473314,649.89253 L247.43696,649.89253 L249.036563,653.200053 C254.198918,652.691203 260.015656,650.037916 263.796536,646.403275 L262.378706,642.877674 Z M228.60527,649.856184 L227.550986,653.200053 L235.985256,656.943733 L242.783569,658.870092 L244.092335,655.598916 L238.92998,654.254099 C235.330873,653.272746 231.768121,651.855236 228.60527,649.856184 Z M252.272123,563.351739 L252.053996,559.935177 C245.910066,560.153255 239.148108,559.426327 233.113242,557.936124 L232.931469,561.461726 C239.148108,562.915582 246.091839,563.606164 252.272123,563.351739 Z M206.065409,642.659596 L203.593295,639.570151 L201.012118,641.714589 L203.011622,644.404223 L208.537523,649.383681 L212.100275,651.382733 L215.735736,649.383681 L212.13663,647.6754 L206.065409,642.659596 Z M189.015095,653.091014 C191.778046,655.926034 194.72277,658.506628 198.031039,660.687413 L200.830345,658.470282 C197.376656,656.253151 194.286514,653.599864 191.4145,650.655805 L189.015095,653.091014 Z M232.640632,599.080255 L232.78605,602.496817 C240.202392,603.187399 247.400605,603.187399 254.744237,601.987968 L254.417046,598.571406 C247.109768,599.770837 239.984264,599.770837 232.640632,599.080255 Z M259.397628,633.827419 L258.525117,630.519896 C248.018634,632.30087 236.966831,631.355863 229.296007,623.541386 L226.024092,625.031589 C234.494717,634.62704 247.364251,635.935511 259.397628,633.827419 Z M233.549497,614.273053 L233.913043,617.871347 C241.074902,619.76136 249.109272,619.906746 256.525613,618.452889 L256.125712,615.036327 C248.745726,616.52653 240.456874,616.308452 233.549497,614.273053 Z M253.290053,586.177281 L253.03557,582.833412 C246.309967,584.105536 239.366235,583.305915 232.531568,582.14283 L232.495213,585.559393 C239.438945,586.649785 246.455385,587.376713 253.290053,586.177281 L253.290053,586.177281 Z" id="Fill-811" fill="#BE6A37"></path>
            <path d="M359.15445,619.523905 C358.405988,613.399612 355.340859,584.43531 354.414192,553.381544 C348.355216,554.138074 342.296239,554.822554 336.237263,555.398958 C334.027518,574.708492 333.029569,595.278911 334.847262,620.064283 C318.666231,635.735267 305.051355,653.855969 298.778532,670.571685 C296.248018,677.380458 304.980073,682.712195 308.365971,676.335725 C315.921871,661.8896 322.836233,655.369029 333.207775,643.552747 C328.859568,660.700766 330.178286,671.580392 332.423672,689.19674 C333.38598,696.32974 342.973419,696.40179 343.579317,689.19674 C344.577266,676.876104 348.782908,660.952943 353.202397,645.209908 C358.79804,658.971554 372.662404,675.795347 379.968816,679.361846 C386.419844,682.532068 392.407539,676.912129 387.774204,671.400266 C375.264199,656.593888 359.15445,619.523905 359.15445,619.523905" id="Fill-812" fill="#C38F6A"></path>
            <path d="M330.65926,682.409889 C334.886577,683.090961 339.078069,683.306036 343.341211,683.126807 L343.878582,679.793139 C339.293018,680.008214 334.779103,679.721447 330.301013,678.932838 L330.65926,682.409889 Z M365.050991,633.767021 L363.582178,630.755966 C351.724195,635.236702 336.928586,634.770706 326.467768,627.529837 L324.174986,630.003203 C335.81802,638.176065 351.867494,638.857137 365.050991,633.767021 Z M329.44122,663.196494 C335.173175,664.702021 340.976779,665.418939 346.923683,665.383093 L347.747651,661.977734 C341.5858,662.049425 335.531422,661.260816 329.584518,659.647751 L329.44122,663.196494 Z M330.301013,643.230335 L329.906941,643.086951 C326.503593,640.255126 323.565966,636.993151 321.201534,633.301024 L318.908752,636.025312 C321.667255,640.183435 325.178078,643.732177 329.154622,646.814924 L331.769826,643.911407 L330.301013,643.230335 Z M374.222119,651.403197 C369.958978,654.95194 365.086816,657.927148 359.892231,658.60822 L362.00589,661.619275 C367.021351,660.543898 371.750214,657.783765 375.941706,654.378406 L374.222119,651.403197 Z M350.971876,646.67154 C345.060797,647.711071 337.430132,646.420619 332.092249,644.090636 L331.124981,648.356297 L331.411579,648.571372 L333.489413,648.212913 C338.898946,650.076899 345.454869,650.937201 350.936052,650.112745 L352.36904,644.986783 L350.971876,646.67154 Z M367.200474,638.104373 C363.761301,641.939883 357.671099,644.879246 352.619813,644.950937 L352.36904,644.986783 L354.375225,649.28829 L355.378317,648.06953 C360.214654,647.28092 365.409238,644.735862 368.848411,641.366349 L367.200474,638.104373 Z M354.518524,574.191157 C347.604353,574.191157 340.582707,572.68563 333.811835,571.538562 L333.596887,574.908075 C340.618532,576.090989 347.711827,577.488979 354.697647,577.453133 L354.518524,574.191157 Z M314.144064,649.861824 L311.134788,646.06216 L309.128603,648.929831 L311.134788,651.582426 L316.580145,656.493313 L319.266999,658.070532 L321.416482,655.489628 L320.126792,654.808556 L314.144064,649.861824 Z M300.60232,663.447415 C303.647421,666.064165 307.014945,668.250764 310.561592,670.186442 L312.388653,667.318771 C308.734531,665.347247 305.331183,663.017264 302.250257,660.292977 L300.60232,663.447415 Z M382.855877,665.418939 C379.094281,668.322455 374.83114,670.293979 370.209751,671.512739 L373.004079,674.308719 C377.303045,672.946575 381.279589,670.903359 384.862061,668.179072 L382.855877,665.418939 Z M333.131166,604.767699 L333.274465,608.280595 C340.869305,610.144582 349.467238,610.037044 357.133728,608.101366 L356.811306,604.696007 C349.288114,606.667531 340.546883,606.739222 333.131166,604.767699 Z M333.740186,617.206221 L333.91931,619.966355 L333.095341,620.79081 C341.120078,625.05647 350.936052,625.164008 360.10718,623.335868 L358.674191,620.18143 C350.076258,621.794495 341.012604,621.579419 333.740186,617.206221 Z M353.766204,559.422652 C347.425229,558.992501 340.90513,557.666204 335.603071,555.69468 L335.316474,555.658834 L334.958226,559.064193 C340.439409,561.071563 347.317755,562.397861 353.909503,562.828011 L353.766204,559.422652 Z M355.772389,592.508405 L355.485791,589.103046 C347.998424,590.321806 340.654357,590.214269 333.023692,589.389813 L332.987867,592.795173 C340.726006,593.583782 348.177548,593.69132 355.772389,592.508405 L355.772389,592.508405 Z" id="Fill-813" fill="#BE6A37"></path>
            <path d="M116.766215,80.1755707 C94.5341215,91.1783362 75.7474588,123.2818 80.4259906,147.603703 C86.08375,176.847895 137.112388,184.774229 146.795861,229.97967 L147.59375,234.359061 L147.775088,235.879179 L148.282836,241.199596 C187.343137,244.058867 238.190436,214.887061 205.80339,172.975211 C210.880867,157.013962 219.077364,141.848967 231.771055,130.990974 C241.41826,122.811287 253.894345,117.490871 266.442965,116.911778 C221.217158,68.7384855 154.847288,61.2826642 116.766215,80.1755707" id="Fill-814" fill="#242A2F"></path>
            <path d="M125.640736,76.094404 C131.159962,73.9762884 137.151227,72.369442 143.469289,71.3103842 C139.838219,41.6202465 111.043835,-2.34891186 61.2618656,0.097876854 C47.1733142,0.79174231 34.1740838,8.16862769 23.3898061,17.2619171 C7.70358395,30.48188 -4.82360735,51.5899976 1.82125064,71.0547496 C3.74571771,76.6421925 8.28455514,82.2296354 14.1668884,81.9740007 C33.193695,81.1340583 48.3715673,33.1112649 78.1463408,33.1112649 C105.016258,33.1112649 120.520927,51.9551899 125.640736,76.094404" id="Fill-815" fill="#242A2F"></path>
            <path d="M163.199367,136.637418 L163.235074,137.032478 L159.307298,144.933675 C222.008884,181.027779 196.264098,226.20826 148.02387,227.357525 C148.809425,230.948978 149.345031,234.791833 149.559273,238.922004 C197.978037,242.513457 264.857347,195.644994 163.199367,136.637418" id="Fill-816" fill="#FFFFFE"></path>
            <path d="M135.422001,121.219307 C125.00112,127.304227 129.628574,145.486113 141.871287,148.801848 C154.150436,152.117582 161.765695,143.518534 161.838568,137.470051 C162.020752,123.296196 145.842881,115.134388 135.422001,121.219307" id="Fill-817" fill="#6E7B95"></path>
            <path d="M152.258346,142.640925 C158.816942,138.77864 155.90201,127.337534 148.177442,125.260645 C140.452873,123.183756 135.643236,128.57638 135.606799,132.365791 C135.497489,141.329206 145.69975,146.466772 152.258346,142.640925" id="Fill-818" fill="#17111C"></path>
            <path d="M141.407918,88.8143218 C148.453946,91.909451 155.319307,96.0842764 160.305726,101.482757 C153.368099,102.886363 146.10527,105.153725 138.914709,108.644742 C169.59203,106.089461 207.748981,128.727092 232.283611,154.855741 C224.803981,128.331203 195.174531,91.1176738 141.407918,88.8143218" id="Fill-819" fill="#FFFFFE"></path>
            <path d="M515.906608,306.299765 C480.68903,260.553493 431.103544,227.382026 377.989098,204.870235 C358.615829,196.667705 332.112621,191.319799 316.844468,194.499635 C314.82792,231.212283 323.254211,269.514848 332.724787,301.530011 C342.159353,333.581309 361.172524,364.151092 390.268438,380.411616 C391.708829,375.135979 391.56479,369.498998 390.052379,364.223361 C400.711278,387.746918 419.832478,407.367949 443.202834,418.244433 C444.247118,413.546948 443.742981,408.560388 441.762443,404.188114 C452.6374,422.652841 470.930375,436.600756 491.599997,442.165469 C491.708026,437.540253 491.852066,432.915038 491.996105,428.289822 C504.779581,445.778918 521.992263,459.943641 541.581591,469.121802 C543.166022,465.472218 543.742178,461.38902 543.202031,457.45036 C549.827833,461.136079 556.417626,464.821798 563.007418,468.507516 C571.001592,411.23434 551.160196,352.082171 515.906608,306.299765" id="Fill-820" fill="#6F585A"></path>
            <path d="M377.829789,264.894408 C370.287403,251.339976 358.554804,240.846222 346.348528,231.554878 C352.214827,244.161957 367.846148,259.501785 377.829789,264.894408" id="Fill-821" fill="#917E79"></path>
            <path d="M457.644259,368.829938 C451.377156,356.186422 441.174896,346.129908 430.498959,337.130057 C435.235723,348.82622 448.790155,363.510187 457.644259,368.829938" id="Fill-822" fill="#FFFFFE"></path>
            <path d="M350.648052,273.894259 L373.530265,299.982897 C368.975684,290.618679 361.979848,278.23022 350.648052,273.894259" id="Fill-823" fill="#C79B76"></path>
            <path d="M472.546847,387.904521 L502.133403,422.810827 C497.578822,413.446609 483.878644,392.240482 472.546847,387.904521" id="Fill-824" fill="#FFFFFE"></path>
            <path d="M398.926606,336.929655 C404.938653,347.131916 412.262418,356.350387 420.897903,364.475758 C419.586184,357.07912 410.331276,344.727097 398.926606,336.929655" id="Fill-825" fill="#B6A39F"></path>
            <path d="M489.653852,299.727841 C494.536362,308.727692 500.621282,316.962374 507.799301,324.249703 C506.924822,317.800416 499.273126,306.832986 489.653852,299.727841" id="Fill-826" fill="#FFFFFE"></path>
            <path d="M441.010931,318.383403 C433.541419,308.472635 424.978807,299.618531 415.250223,291.930399 C419.549747,302.460589 429.642698,311.24182 441.010931,318.383403" id="Fill-827" fill="#B6A39F"></path>
            <path d="M443.014946,272.291047 C437.33083,262.526026 427.966612,252.214456 417.800788,246.931142 C421.735946,256.113177 436.67497,267.663593 443.014946,272.291047" id="Fill-828" fill="#C79B76"></path>
            <path d="M426.090125,398.853733 C422.264277,390.181811 415.377751,380.74472 407.398126,375.42497 C409.839381,383.441032 421.244051,394.408462 426.090125,398.853733" id="Fill-829" fill="#FFFFFE"></path>
            <path d="M380.057827,227.000297 C380.89587,226.162255 368.543848,214.138162 353.20402,210.239441 C352.693907,211.405413 365.592479,222.227097 380.057827,227.000297" id="Fill-830" fill="#C79B76"></path>
            <path d="M351.558968,316.160767 C356.477915,328.002677 364.0203,339.298037 372.619349,348.808001 C369.813727,334.05116 357.461704,321.371208 351.558968,316.160767" id="Fill-831" fill="#917E79"></path>
            <path d="M508.163667,362.089158 C511.260782,372.425048 523.904298,392.110719 530.280711,400.803093 C529.187612,388.202803 519.932704,376.5521 515.450996,371.658074 L508.163667,362.089158" id="Fill-832" fill="#FFFFFE"></path>
            <path d="M500.657719,387.139352 C494.864292,375.338847 477.994126,353.850275 469.467951,343.870836 C471.399093,353.267534 486.921104,378.070445 500.657719,387.139352" id="Fill-833" fill="#B6A39F"></path>
            <path d="M489.417014,329.624108 C484.02439,318.365184 476.117638,307.543501 467.044914,298.908016 C469.886972,311.150729 479.797739,321.243679 489.417014,329.624108" id="Fill-834" fill="#FFFFFE"></path>
            <path d="M534.944601,373.275208 C530.827261,362.125595 524.924524,350.903108 517.163519,341.793947 C519.313281,353.963786 527.256469,366.315809 534.944601,373.275208" id="Fill-835" fill="#FFFFFE"></path>
            <path d="M531.194386,441.120241 C527.113481,430.480741 522.230971,420.38779 516.401108,410.586333 C515.599502,423.484905 526.494058,437.476576 531.194386,441.120241" id="Fill-836" fill="#FFFFFE"></path>
            <path d="M388.086704,284.952781 C394.317371,294.499182 401.240333,303.31685 408.964902,311.697278 C407.03376,298.908016 393.442891,287.503346 388.086704,284.952781" id="Fill-837" fill="#C79B76"></path>
            <path d="M555.43305,437.148647 C554.267077,426.108343 551.497892,415.796773 547.526298,405.448766 C545.412973,415.61459 547.672045,427.165006 555.43305,437.148647" id="Fill-838" fill="#FFFFFE"></path>
            <path d="M451.431811,263.801309 C456.314322,270.979328 462.034875,277.100684 468.593471,282.748364 C466.297963,274.950922 460.468099,267.80934 451.431811,263.801309" id="Fill-839" fill="#B6A39F"></path>
            <path d="M465.277736,411.715869 C464.038891,406.614738 450.812388,387.121133 441.083804,385.335738 C441.083804,385.335738 459.083507,405.922442 465.277736,411.715869" id="Fill-840" fill="#FFFFFE"></path>
            <path d="M391.038073,244.67207 C397.159429,250.501933 403.681588,255.894557 410.568114,260.886377 C408.673409,256.003867 400.912403,245.182183 391.038073,244.67207" id="Fill-841" fill="#917E79"></path>
            <path d="M114.155676,81.9824509 C99.1973098,90.6991169 86.386252,108.34505 81.9824509,125.95555 L82.1644262,125.884683 C82.1644262,125.884683 98.2510385,134.495048 103.491926,141.191999 C120.306439,115.786107 142.179864,105.545796 161.687612,101.683533 C148.803764,88.0770304 123.400018,82.2304861 114.155676,81.9824509" id="Fill-842" fill="#EAB353"></path>
            <path d="M82.1454539,125.250967 C59.6879245,132.169457 42.5671924,153.975377 40.9912255,177.628644 C53.5989612,171.217268 83.649786,166.97924 103.958269,174.549735 C103.958269,174.549735 106.214768,156.692062 103.134469,140.899069 C97.9767585,134.053024 82.1454539,125.250967 82.1454539,125.250967" id="Fill-843" fill="#17111C"></path>
        </g>
    </g>
</svg>