<?xml version="1.0" encoding="UTF-8"?>
<svg width="720px" height="720px" viewBox="0 0 720 720" version="1.1" xmlns="http://www.w3.org/2000/svg" xmlns:xlink="http://www.w3.org/1999/xlink">
    <!-- Generator: Sketch 64 (93537) - https://sketch.com -->
    <title>img_w</title>
    <desc>Created with Sketch.</desc>
    <g id="img_w" stroke="none" stroke-width="1" fill="none" fill-rule="evenodd">
        <g id="wolf" transform="translate(145.000000, 10.000000)">
            <path d="M236.609127,503.462533 C258.403695,484.930331 302.64281,455.438006 293.299379,396.739095 C288.932341,369.430631 254.117904,350.980069 213.392732,358.062309 C171.692593,365.307828 148.983993,389.595625 143.763859,416.965319 C138.564036,444.335013 154.955664,485.19566 172.850366,503.033924 C181.015712,511.19789 206.669524,521.811045 231.774917,526.995163 C255.255365,531.832312 291.816617,536.771511 293.319691,518.708738 C294.822765,500.666374 260.394252,504.340159 236.609127,503.462533" id="Fill-1337" fill="#8D8F8A"></path>
            <path d="M330.225039,194.442319 C311.482584,177.818019 271.67018,168.618561 239.881507,157.154933 C228.734034,194.217942 193.882868,221.979502 167.484182,249.618674 C138.900918,279.522015 117.361387,303.571155 94.7193582,338.737158 C80.5502257,360.746506 54.5802885,405.377141 58.234863,458.105747 C61.8894375,510.834353 121.68971,506.632383 144.474655,504.878162 C206.255338,500.084652 361.278714,332.373009 357.542473,167.782246 C353.949148,170.719546 332.491283,191.851784 330.225039,194.442319" id="Fill-1338" fill="#A3A4A0"></path>
            <path d="M241.445137,204.894426 C239.489865,209.689987 236.752485,214.423801 233.459397,218.416671 L231.936343,217.058272 C235.085359,213.188893 237.71983,208.578569 239.613356,203.947663 L241.445137,204.894426" id="Fill-1339" fill="#80817E"></path>
            <path d="M224.321076,211.604094 C222.221732,215.247074 219.443189,218.457835 217.385008,222.121396 L215.614973,221.071724 C217.693735,217.408163 220.451697,214.197402 222.551041,210.533841 L224.321076,211.604094" id="Fill-1340" fill="#80817E"></path>
            <path d="M229.826709,201.467556 C232.666997,198.421449 234.663432,194.901961 236.57754,191.2384 L238.409321,192.164581 C236.412886,195.992796 234.334124,199.656357 231.349762,202.825955 L229.826709,201.467556" id="Fill-1341" fill="#80817E"></path>
            <path d="M252.230002,185.794513 C250.439385,189.499237 248.44295,192.95698 246.137788,196.332396 L244.306007,195.406215 C246.611169,192.010217 248.628186,188.552474 250.398221,184.868332 L252.230002,185.794513" id="Fill-1342" fill="#80817E"></path>
            <path d="M248.864877,173.177867 C247.753459,176.676774 246.230406,179.784626 244.048735,182.748406 L242.525681,181.390007 C244.542698,178.611463 245.81877,175.997574 246.868442,172.725068 L248.864877,173.177867" id="Fill-1343" fill="#80817E"></path>
            <path d="M253.001819,174.793539 C255.204072,170.512524 257.426907,166.231509 259.62916,161.929912 L261.543268,162.691438 C259.341015,166.972453 257.11818,171.253469 254.915927,175.534484 L253.001819,174.793539" id="Fill-1344" fill="#80817E"></path>
            <path d="M228.190455,227.771101 C226.749729,229.891027 225.309003,232.010952 223.868276,234.130878 L222.036496,233.184115 C223.477222,231.064189 224.917948,228.944264 226.358675,226.824338 L228.190455,227.771101" id="Fill-1345" fill="#80817E"></path>
            <path d="M214.163956,228.954555 C212.682066,231.259717 211.097267,233.420806 209.30665,235.52015 L207.763015,234.161751 C209.471305,232.165316 210.912031,230.230626 212.332176,228.007792 L214.163956,228.954555" id="Fill-1346" fill="#80817E"></path>
            <path d="M224.454858,199.357921 C222.972968,201.683665 221.367587,203.844754 219.57697,205.944098 L218.053917,204.565118 C219.762207,202.568683 221.202933,200.654575 222.623077,198.411158 L224.454858,199.357921" id="Fill-1347" fill="#80817E"></path>
            <path d="M179.987871,246.81956 C175.912674,250.771266 172.043295,254.867045 168.317989,259.14806 L169.902788,260.444714 C173.628094,256.163699 177.497473,252.06792 181.57267,248.116214 L179.987871,246.81956" id="Fill-1348" fill="#80817E"></path>
            <path d="M209.553632,217.881544 C207.310216,222.05965 204.634581,225.435066 201.053347,228.584082 L199.509712,227.225683 C202.926291,224.22074 205.560762,220.948233 207.742433,216.934781 L209.553632,217.881544" id="Fill-1349" fill="#80817E"></path>
            <path d="M164.33541,285.369278 C166.784645,282.65248 169.254461,279.935682 171.703696,277.218884 L170.118897,275.92223 C167.64908,278.639028 165.199846,281.355826 162.750611,284.072624 L164.33541,285.369278" id="Fill-1350" fill="#80817E"></path>
            <path d="M155.927743,277.157138 C158.418141,273.534741 161.217267,270.509216 164.67501,267.792418 L163.481265,266.125292 C159.879449,268.965581 156.956833,272.052851 154.342944,275.860485 L155.927743,277.157138" id="Fill-1351" fill="#80817E"></path>
            <path d="M154.003345,283.897679 C151.801092,286.429241 149.660584,289.063712 147.972876,291.986328 L149.84582,292.830182 C151.430619,290.07222 153.509381,287.602404 155.608725,285.194333 L154.003345,283.897679" id="Fill-1352" fill="#80817E"></path>
            <path d="M180.378926,260.887223 C177.888527,263.171803 175.459875,265.518129 173.46344,268.234927 L175.048239,269.53158 C176.941765,266.958855 179.246927,264.694856 181.57267,262.554349 L180.378926,260.887223" id="Fill-1353" fill="#80817E"></path>
            <path d="M137.095393,306.300972 C138.844846,304.201628 140.5943,302.122866 142.343753,300.023522 L140.758954,298.726868 C139.009501,300.805631 137.260047,302.904975 135.510594,305.004319 L137.095393,306.300972" id="Fill-1354" fill="#80817E"></path>
            <path d="M125.260856,306.84639 C129.747689,301.82443 134.255104,296.781888 138.741937,291.759928 L137.136557,290.463274 C132.649723,295.485234 128.16289,300.507194 123.676057,305.549736 L125.260856,306.84639" id="Fill-1355" fill="#80817E"></path>
            <path d="M146.748259,308.616425 C150.473565,303.964937 154.548762,299.642759 158.418141,295.135344 L156.812761,293.83869 C152.963963,298.346105 148.868185,302.668284 145.16346,307.319771 L146.748259,308.616425" id="Fill-1356" fill="#80817E"></path>
            <path d="M169.635224,294.75458 C171.796314,291.605564 174.080894,288.827021 176.797692,286.130805 L175.480456,284.546006 C172.660749,287.345131 170.190933,290.288329 167.947516,293.560836 L169.635224,294.75458" id="Fill-1357" fill="#80817E"></path>
            <path d="M138.77281,323.85725 C140.975063,321.037543 143.280225,318.423654 145.811787,315.933256 L144.226988,314.616021 C141.695426,317.127001 139.369682,319.74089 137.188011,322.560597 L138.77281,323.85725" id="Fill-1358" fill="#80817E"></path>
            <path d="M122.235331,328.683683 C125.322601,324.526159 128.409872,320.389217 131.497142,316.231692 L129.912344,314.935039 C126.825073,319.071981 123.717221,323.229505 120.62995,327.366448 L122.235331,328.683683" id="Fill-1359" fill="#80817E"></path>
            <path d="M110.678648,326.028631 C112.880901,322.776706 115.103736,319.545363 117.305989,316.31402 L115.72119,315.017366 C113.518937,318.248709 111.296102,321.480052 109.093849,324.711395 L110.678648,326.028631" id="Fill-1360" fill="#80817E"></path>
            <path d="M104.133635,334.775897 C101.622655,338.542367 99.3586563,342.432328 97.300476,346.466362 L99.1322565,347.433706 C101.169855,343.379091 103.433853,339.509712 105.944833,335.743242 L104.133635,334.775897" id="Fill-1361" fill="#80817E"></path>
            <path d="M116.338644,332.666262 C114.403955,335.300733 112.695665,337.976368 111.131448,340.85782 L112.942647,341.825165 C114.445118,339.067203 115.968172,336.617969 117.841116,334.065825 L116.338644,332.666262" id="Fill-1362" fill="#80817E"></path>
            <path d="M93.2767334,353.258357 C92.062407,355.110719 91.0744804,356.860172 90.1482992,358.856607 L91.959498,359.823952 C92.8856791,357.827517 93.8736057,356.078064 95.0879321,354.225702 L93.2767334,353.258357" id="Fill-1363" fill="#80817E"></path>
            <path d="M119.508242,349.059669 C116.17399,353.546502 113.189628,358.156826 110.534576,363.055295 L112.345774,364.02264 C114.939082,359.288825 117.77937,354.801992 121.010714,350.459231 L119.508242,349.059669" id="Fill-1364" fill="#80817E"></path>
            <path d="M101.560909,356.304464 C99.0705111,360.338497 96.7859309,364.434276 94.7277505,368.694709 L96.5389492,369.641472 C98.6177114,365.401621 100.88171,361.28526 103.372108,357.271808 L101.560909,356.304464" id="Fill-1365" fill="#80817E"></path>
            <path d="M80.7732878,381.012919 C82.008196,377.658085 83.5106676,374.900123 85.6923388,372.059834 L84.1898671,370.660272 C81.9258688,373.582888 80.2587427,376.546667 78.9620891,380.045574 L80.7732878,381.012919" id="Fill-1366" fill="#80817E"></path>
            <path d="M88.3473914,381.527464 C86.0628113,385.02637 84.0252127,388.587022 82.214014,392.332911 L84.0457945,393.300255 C85.8569932,389.554367 87.87401,385.973133 90.1585901,382.494809 L88.3473914,381.527464" id="Fill-1367" fill="#80817E"></path>
            <path d="M72.262712,400.709705 C73.2300568,397.107889 74.567874,393.794219 76.3790727,390.521712 L74.5472922,389.554367 C72.6537663,393.01211 71.2747855,396.449271 70.2662771,400.256905 L72.262712,400.709705" id="Fill-1368" fill="#80817E"></path>
            <path d="M99.492438,384.491244 C101.859345,379.633938 104.637889,375.291177 108.136795,371.154235 L106.634324,369.754672 C103.05309,374.015106 100.109892,378.522521 97.6812393,383.523899 L99.492438,384.491244" id="Fill-1369" fill="#80817E"></path>
            <path d="M145.358987,286.449823 C146.593895,284.59746 148.055203,282.971498 149.516511,281.28379 L147.931713,279.987136 L143.774188,285.153169 L145.358987,286.449823" id="Fill-1370" fill="#80817E"></path>
            <path d="M130.694452,341.547311 C132.423324,339.118658 134.152195,336.690005 135.881067,334.24077 L134.296268,332.944117 C132.567396,335.37277 130.838525,337.822004 129.109653,340.250657 L130.694452,341.547311" id="Fill-1371" fill="#80817E"></path>
            <path d="M237.987394,178.6835 C236.135031,181.976588 234.097433,185.043277 231.771689,188.027638 L230.248636,186.669239 C232.450889,183.828951 234.40616,180.865171 236.155613,177.736737 L237.987394,178.6835" id="Fill-1372" fill="#80817E"></path>
            <path d="M189.434919,252.40752 C192.625099,249.731885 195.012588,246.438797 197.338332,243.022217 L199.046621,244.174798 C196.617969,247.756032 194.12757,251.15203 190.8139,253.951155 L189.434919,252.40752" id="Fill-1373" fill="#80817E"></path>
            <path d="M210.32545,244.19538 C208.102615,247.653123 205.694544,250.843303 203.01891,253.930573 L201.31062,252.777992 C204.006836,249.690722 206.414907,246.500542 208.61716,243.042799 L210.32545,244.19538" id="Fill-1374" fill="#80817E"></path>
            <path d="M194.055534,265.291729 C191.462227,268.481908 188.724847,271.383943 185.699322,274.162486 L184.135105,272.824669 C187.16063,270.046125 189.89801,267.144091 192.491317,263.974493 L194.055534,265.291729" id="Fill-1375" fill="#80817E"></path>
            <path d="M250.16153,156.455152 C249.029531,159.954058 247.506478,163.061911 245.324807,166.025691 L243.801753,164.667291 C245.839352,161.888748 247.094842,159.274859 248.144514,156.002352 L250.16153,156.455152" id="Fill-1376" fill="#80817E"></path>
            <path d="M194.745025,234.552805 C192.481026,237.57833 190.052373,240.356874 187.356157,243.011926 L186.01834,241.468291 C188.570483,238.936729 190.896227,236.261095 193.057317,233.379642 L194.745025,234.552805" id="Fill-1377" fill="#80817E"></path>
            <path d="M152.172698,519.874057 C173.984504,501.382711 218.258607,471.93504 208.887458,413.385899 C204.537294,386.137639 169.695323,367.727753 128.937942,374.774014 C87.2048231,382.00356 64.4782634,406.258178 59.2540006,433.567533 C54.0500656,460.876889 64.0513781,494.132801 83.2205604,510.546925 C102.389743,526.961049 126.335975,537.408252 149.875649,547.631441 C165.040241,554.20931 180.428439,560.868638 196.894014,563.597537 C213.339262,566.326436 229.987788,566.428261 231.512379,548.405308 C233.016641,530.40272 182.603521,530.056516 152.172698,519.874057" id="Fill-1378" fill="#8D8F8A"></path>
            <path d="M353.743863,491.0604 C349.210034,486.547879 346.546663,477.134884 345.977393,463.699415 C344.188259,420.759003 356.52922,282.341004 351.466783,226.61852 C343.476671,270.130654 326.378239,312.438088 304.867964,350.478025 C306.697761,388.946753 320.583883,489.243141 323.755531,496.614272 C328.208036,507.007362 334.937621,515.215658 345.9164,517.665895 C356.91551,520.136552 367.284357,522.87265 371.106599,512.112024 C374.949172,501.351398 360.859738,498.104833 353.743863,491.0604" id="Fill-1379" fill="#ACADA8"></path>
            <path d="M294.7661,514.825438 C287.301646,501.584022 297.719071,410.628348 302.169034,366.150248 C298.29326,361.396396 294.868634,356.275293 292.05921,350.827746 C290.193097,355.418376 288.326983,360.009005 286.46087,364.599635 C278.873376,344.380462 265.277406,336.974246 258.059033,302.51392 C250.676606,354.133 265.420953,449.230442 264.969805,493.055652 C264.867271,502.134897 264.518657,525.985768 277.068782,535.207833 C289.618908,544.409495 312.688992,544.572717 313.837369,531.678149 C314.698653,522.129639 299.482651,523.190585 294.7661,514.825438" id="Fill-1380" fill="#ACADA8"></path>
            <path d="M330.015152,194.686233 C314.69695,181.124818 285.369445,172.518927 257.78032,163.586747 C246.225201,192.687709 239.762515,236.614459 244.916302,266.531145 C245.673009,270.915663 248.618031,264.532621 249.476995,261.90191 C251.460795,272.649077 250.356412,295.163066 253.117369,305.726694 C253.79227,308.25544 257.228128,307.623253 258.352963,301.525715 C265.49055,337.009719 279.295338,344.290058 286.944213,364.744343 C288.805303,360.155894 290.666393,355.567445 292.527483,350.978996 C297.599464,360.869653 304.59389,369.801833 312.979021,377.122958 C320.198414,367.578984 334.800812,351.386858 345.721933,320.409731 C347.603475,323.264765 351.857395,327.588104 354.802416,327.424959 C356.520345,322.122751 361.428714,302.606549 360.283428,286.455209 C361.162845,287.943906 365.457667,291.267982 367.318757,291.267982 C364.148769,268.7336 371.920353,236.573673 367.891401,218.056732 L373.045188,219.586215 C370.897777,204.882786 367.564176,185.631694 361.019684,170.336865 C347.705732,179.452583 336.068807,187.711791 330.015152,194.686233" id="Fill-1381" fill="#BDBEB9"></path>
            <path d="M154.387093,588.958269 C155.653416,588.205446 160.024272,588.103713 160.514462,586.211482 C134.942908,573.596607 95.074161,554.592909 75.5074294,533.900445 C62.8646247,520.512401 47.3623812,498.538103 62.1701896,476.746925 C59.862214,471.578896 58.3303717,465.55631 57.8401822,458.49605 C57.4725401,453.144901 57.4725401,447.895486 57.6767857,442.727456 C6.71750039,474.793654 -4.61813221,540.472388 1.50923676,574.451163 C1.8768789,576.54686 4.18485455,573.108289 5.16523358,570.687047 C9.94458138,608.613058 34.1476888,640.760641 62.0067931,667.048412 C63.4569371,663.324989 63.4773616,658.258693 63.742881,655.30844 C70.7689307,665.685192 94.5022732,688.351273 139.007397,696.225396 C189.619464,705.177888 234.063314,698.117627 280.427072,675.980557 C250.709333,630.9129 180.346713,599.965764 154.387093,588.958269" id="Fill-1382" fill="#A3A4A0"></path>
            <path d="M178.654475,654.442995 C170.39603,650.465513 155.938652,644.203528 157.223299,637.390815 C158.528338,630.578102 175.820095,630.700486 182.834676,631.781546 C179.714819,629.578632 170.192118,625.376779 170.946593,620.603801 C171.680677,615.830822 181.040249,616.748703 184.486365,615.85122 C173.617843,611.46579 153.981095,601.573078 154.8987,597.758775 C155.612393,594.760365 158.711859,593.087783 162.076411,591.945532 C192.092292,605.101819 253.265963,634.596379 280.427072,675.962194 C238.645455,695.992386 198.413571,703.661788 153.817965,698.378875 L154.388919,697.766955 C157.06017,695.033711 160.078071,692.667619 163.340666,690.709474 C158.263252,689.995567 144.193307,686.344442 144.315655,681.510272 C144.438002,676.676101 158.222469,675.574644 164.258272,675.513452 C160.2412,672.617029 140.23741,664.498886 141.56284,657.563789 C142.888269,650.649089 161.016067,651.56697 178.654475,654.442995" id="Fill-1383" fill="#80817E"></path>
            <path d="M213.352251,617.672786 C238.711045,632.711959 265.024857,652.410007 280.427072,675.970016 C248.261231,691.479164 216.98945,699.550459 183.949869,700 C184.112425,698.201838 184.965846,691.315695 209.958887,689.394931 C208.556839,688.659319 202.013945,686.738555 203.903663,681.384936 C205.79338,676.031317 224.446724,678.401622 232.188471,681.057998 C229.364054,679.831978 222.109976,676.317389 223.308829,672.434993 C224.528002,668.532164 242.449841,673.415809 244.949145,674.008385 C237.329316,671.025071 224.040333,660.828675 225.93005,657.109749 C227.840088,653.411256 232.899655,655.005082 235.195763,654.698577 C227.616573,651.429191 215.790597,643.460064 217.43648,640.231546 C219.062044,636.982594 227.372738,639.128128 231.619523,640.885423 C223.430746,636.798691 207.642459,623.925486 213.352251,617.672786" id="Fill-1384" fill="#343A3F"></path>
            <path d="M282.999798,43.2036377 C262.572591,26.4979568 248.940849,0.400423516 243.635081,2.967394 C238.594601,5.39175501 223.065027,33.6895487 241.92091,63.2504548 C252.940582,54.5105315 268.041614,47.3800579 282.999798,43.2036377" id="Fill-1385" fill="#343A3F"></path>
            <path d="M271.422533,47.505972 C266.165727,44.9721682 261.674675,40.9904767 257.701026,36.7473609 C252.733965,31.3982197 248.305002,25.5463397 242.717058,20.8004851 C240.088654,29.3470453 238.639928,45.5754548 245.676598,60.6777294 C253.168583,55.5095742 262.088597,51.0050342 271.422533,47.505972" id="Fill-1386" fill="#CDCDC7"></path>
            <path d="M383.774612,59.3913667 C393.153927,42.9908806 391.139714,4.25005391 380.417591,0.337453407 C373.581475,-2.15606919 353.581765,35.368405 340.88612,41.8556183 C356.104617,45.362768 370.875512,51.464803 383.774612,59.3913667" id="Fill-1387" fill="#343A3F"></path>
            <path d="M378.247224,56.8186412 C380.484802,53.5902903 382.399846,50.2198107 383.367447,46.2808165 C387.076585,31.3370035 381.49272,14.8906874 380.363852,15.6825471 C379.335775,16.3728863 371.453856,38.7276936 358.895198,47.7630154 C365.607932,50.3213312 372.098924,53.3669453 378.247224,56.8186412" id="Fill-1388" fill="#CDCDC7"></path>
            <path d="M416.675739,106.341602 L424.334642,100.025711 C407.382936,93.8925953 400.275474,72.1829891 383.813939,59.7542903 C360.34706,45.3759917 330.875601,36.8871092 303.426092,39.1819507 C282.920656,40.9081588 257.94242,50.3718412 241.909783,63.2067066 C229.921047,73.8888889 223.875619,105.691736 198.080434,124.598792 C200.163655,125.309584 202.430691,126.020375 206.229507,125.878217 C201.511622,127.401342 195.997212,132.742433 194.24077,134.448333 C197.957891,134.752958 203.57442,136.397933 211.396713,134.590491 C208.516966,136.093308 206.004845,137.088416 203.227217,139.139557 C229.798504,161.86458 302.261939,170.251921 329.691024,194.459452 C348.317476,173.054471 419.637181,139.566032 430.93151,106.158827 C427.827102,105.915127 424.191676,105.062178 416.675739,106.341602" id="Fill-1389" fill="#BDBEB9"></path>
            <path d="M405.204256,124.396555 C403.173158,124.273715 399.254576,123.987089 397.408124,124.826495 C400.957416,121.755497 404.116901,117.947459 404.937546,115.511134 C402.516642,115.449714 399.275092,114.487468 396.649027,114.344154 C399.336641,113.238595 404.096385,107.403698 404.875998,104.803587 C401.511351,104.107494 395.971994,104.27128 392.01238,103.534241 C394.228123,102.387735 395.62322,99.4805231 396.320769,97.6379242 C392.114961,96.9418312 386.308894,95.1811256 381.959473,95.7543786 L384.421409,90.5951016 C380.11302,91.065988 373.670953,91.2707212 367.639209,92.9495335 L367.987983,88.9777092 C362.387078,89.6533288 357.504237,91.1888279 353.072752,93.870833 C340.557908,117.783672 336.926552,148.493655 337.029132,188.027638 C350.05688,176.992518 371.660372,163.848646 390.863476,149.517321 C394.823091,146.794369 396.505414,143.006805 398.33135,140.693319 C396.25922,139.812966 394.802575,139.915333 392.689412,139.0964 C396.977285,135.697829 402.373029,130.108612 405.204256,124.396555" id="Fill-1390" fill="#EEF0EA"></path>
            <path d="M321.590679,189.314001 C319.537805,154.862691 309.335019,125.338838 290.612804,101.662507 C281.046409,98.4116117 271.089968,98.1662611 265.957782,97.9822482 L268.996036,103.604866 C262.960585,102.09187 258.115801,101.887412 253.312075,101.682953 L256.268214,106.753531 C251.608189,106.998882 249.103682,107.489583 245.285336,108.654998 C247.440854,111.190288 248.364647,113.623348 250.787039,115.054559 C247.543498,114.829655 238.818781,118.734818 237.977103,119.348194 C238.551908,120.718068 242.575542,124.214314 247.625613,125.543297 C244.813175,125.216162 239.804161,127.178967 238.716138,128.05814 C242.206024,131.063685 244.936347,135.479995 248.15936,136.256938 C245.531681,137.504137 242.000737,138.362864 240.625311,139.77363 C245.346922,143.106309 248.118303,145.743828 255.796053,147.502173 C252.08035,148.299563 249.96589,150.425934 249.062625,151.775363 C255.529179,154.494665 258.875365,158.379382 265.362448,158.808746 C263.473804,159.340339 261.605688,160.567092 259.717043,161.078239 C260.887182,163.163719 265.218747,165.821683 266.881575,167.457354 C287.102389,173.938698 307.343731,180.542718 321.590679,189.314001" id="Fill-1391" fill="#EEF0EA"></path>
            <path d="M378.870757,56.4438722 C356.39616,44.0963925 329.377519,37.0697017 304.057777,39.1817706 C283.793796,40.8876724 259.210926,50.1076655 243.122554,62.6582288 C292.759072,88.2061393 318.181158,131.52386 321.558488,188.06232 C324.833475,190.072847 327.8219,192.184916 330.380483,194.459452 C332.304538,192.26615 334.781247,189.950997 337.687798,187.513995 C337.524048,125.939063 346.448388,85.9112952 384.622453,59.7541341 C383.414801,59.2058085 381.347466,57.9873072 378.870757,56.4438722" id="Fill-1392" fill="#A3A4A0"></path>
            <path d="M274.656326,120.869153 C273.277345,117.102683 269.675529,112.945159 264.674151,116.546975 C259.693355,120.14879 265.147532,129.84282 269.160984,129.678165 C273.195018,129.492929 276.055888,124.656205 274.656326,120.869153" id="Fill-1393" fill="#17111C"></path>
            <path d="M371.388893,114.706587 C368.301623,111.536989 360.151228,113.512842 360.068901,119.605056 C360.007156,125.69727 365.214352,127.63196 369.289549,125.861924 C373.364746,124.091889 374.476164,117.896767 371.388893,114.706587" id="Fill-1394" fill="#17111C"></path>
            <path d="M341.856213,180.975475 C338.558183,177.970532 318.950991,178.876131 316.195929,181.819329 C311.510313,186.820708 323.857816,197.296846 330.192447,196.926373 C336.506969,196.576482 347.607656,186.223835 341.856213,180.975475" id="Fill-1395" fill="#17111C"></path>
            <path d="M322.702097,168.865979 C323.154896,171.438705 323.401878,173.970267 323.42246,176.563574 L325.624713,176.316592 C325.583549,173.723285 325.336568,171.171141 324.90435,168.618998 L322.702097,168.865979" id="Fill-1396" fill="#343A3F"></path>
            <path d="M355.540364,80.0349156 C356.548873,77.6268446 357.722035,75.3628462 359.080434,73.1605932 L357.104581,72.1932484 C355.7256,74.3955014 354.573019,76.6594998 353.564511,79.0675708 L355.540364,80.0349156" id="Fill-1397" fill="#343A3F"></path>
            <path d="M334.211827,172.889722 C333.923682,170.111178 334.006009,167.435544 334.499972,164.698164 L332.318301,164.348274 C331.803756,167.291471 331.700847,170.152342 332.009574,173.116122 L334.211827,172.889722" id="Fill-1398" fill="#343A3F"></path>
            <path d="M294.937244,58.5783854 C296.089825,61.1305291 296.810188,63.6826727 297.221824,66.4406344 L299.362332,65.8849257 C298.930114,62.9417278 298.08626,60.2043479 296.851352,57.4875498 L294.937244,58.5783854" id="Fill-1399" fill="#343A3F"></path>
            <path d="M328.166906,163.946928 C327.672942,162.073984 327.281888,160.056967 327.590615,158.122278 L325.470689,157.545987 C325.079635,159.871731 325.429526,162.218057 326.026398,164.482055 L328.166906,163.946928" id="Fill-1400" fill="#343A3F"></path>
            <path d="M322.362497,137.982983 C323.08286,141.48189 323.556242,144.960215 323.741478,148.541448 L325.964313,148.56203 C325.758495,144.816142 325.264531,141.131999 324.503005,137.447856 L322.362497,137.982983" id="Fill-1401" fill="#343A3F"></path>
            <path d="M330.490064,138.97091 C330.304828,135.698403 330.284246,132.446478 330.407737,129.173971 L328.205484,129.029899 C328.081993,132.302405 328.102575,135.55433 328.287811,138.826837 L330.490064,138.97091" id="Fill-1402" fill="#343A3F"></path>
            <path d="M363.258541,62.7564915 C365.069739,60.0396935 367.004429,57.4258044 369.083191,54.8942426 L367.395483,53.4535164 C365.337303,55.9850782 363.402613,58.5989672 361.570833,61.3157653 L363.258541,62.7564915" id="Fill-1403" fill="#343A3F"></path>
            <path d="M308.191925,58.1152949 C308.665307,61.346638 309.447415,67.7475789 309.632652,71.0200856 L311.834905,70.9583402 C311.67025,67.6858335 310.888142,61.2848926 310.394178,58.0535494 L308.191925,58.1152949" id="Fill-1404" fill="#343A3F"></path>
            <path d="M310.095742,125.664774 C311.20716,128.114008 312.153922,130.624989 312.956613,133.197714 L315.076539,132.559678 C314.212103,129.801716 313.162431,127.146664 311.968686,124.512193 L310.095742,125.664774" id="Fill-1405" fill="#343A3F"></path>
            <path d="M331.006854,121.877722 C331.0686,118.09067 331.480236,114.365364 332.385835,110.681221 L330.245328,110.10493 C329.298565,113.974309 328.866347,117.86427 328.804602,121.85714 L331.006854,121.877722" id="Fill-1406" fill="#343A3F"></path>
            <path d="M326.710491,86.9401106 C326.319436,83.1530588 326.278273,79.4277524 326.710491,75.6612823 L324.528819,75.3319735 C324.055438,79.3042615 324.096602,83.2148042 324.528819,87.1870923 L326.710491,86.9401106" id="Fill-1407" fill="#343A3F"></path>
            <path d="M312.225959,112.317474 C313.707849,115.857545 314.98392,119.438778 316.054174,123.122921 L318.091773,122.237904 C317.000937,118.553761 315.724865,114.972527 314.242976,111.432457 L312.225959,112.317474" id="Fill-1408" fill="#343A3F"></path>
            <path d="M309.303343,80.0863701 C310.250106,83.6264403 310.846978,87.1870923 311.09396,90.8506533 L313.296213,90.7065807 C313.028649,86.8577834 312.411195,83.1118952 311.402687,79.3865887 L309.303343,80.0863701" id="Fill-1409" fill="#343A3F"></path>
            <path d="M347.38997,97.0663579 C348.583715,93.5880332 350.086186,90.3155264 351.938549,87.1459287 L350.024441,86.0345113 C348.089751,89.3687634 346.525534,92.8265064 345.270044,96.4694856 L347.38997,97.0663579" id="Fill-1410" fill="#343A3F"></path>
            <path d="M317.999036,78.3574986 C317.072855,74.9820828 316.867037,71.7301579 317.299255,68.2724149 L315.117583,67.943106 C314.644202,71.7713215 314.911765,75.4143007 315.940855,79.1396071 L317.999036,78.3574986" id="Fill-1411" fill="#343A3F"></path>
            <path d="M273.367514,50.5720639 C276.022566,53.2888619 278.368892,56.1703144 280.365327,59.4016576 L282.34118,58.413731 C280.241836,55.0177334 277.813183,51.9510447 275.014058,49.090174 L273.367514,50.5720639" id="Fill-1412" fill="#343A3F"></path>
            <path d="M337.901759,106.492824 C338.519213,102.746936 339.465976,99.1451201 340.906702,95.6256317 L338.951431,94.6171233 C337.448959,98.3012661 336.399287,102.088318 335.720087,106.019442 L337.901759,106.492824" id="Fill-1413" fill="#343A3F"></path>
            <path d="M283.339398,48.7505743 C285.315251,51.8378448 286.941213,55.0486061 288.299612,58.4446037 L290.378374,57.7036588 C288.95823,54.122425 287.229358,50.7264274 285.150596,47.4745025 L283.339398,48.7505743" id="Fill-1414" fill="#343A3F"></path>
            <path d="M251.890402,61.5421651 C255.224654,63.0652186 258.332506,64.8764173 261.316868,67.0169249 L262.654685,65.2674716 C259.526251,63.024055 256.233162,61.1099473 252.713674,59.4839848 L251.890402,61.5421651" id="Fill-1415" fill="#343A3F"></path>
            <path d="M291.942591,95.7491225 C294.494735,98.2601025 296.388261,101.018064 297.828987,104.290571 L299.784259,103.261481 C298.261205,99.8037378 296.223607,96.8605399 293.547972,94.2466509 L291.942591,95.7491225" id="Fill-1416" fill="#343A3F"></path>
            <path d="M301.348476,70.6084496 C302.356984,72.8107025 303.118511,75.0541191 303.633056,77.4004447 L305.814727,77.0299723 C305.238437,74.4572468 304.435746,72.0697576 303.344911,69.6822684 L301.348476,70.6084496" id="Fill-1417" fill="#343A3F"></path>
            <path d="M268.973299,71.2567764 C271.113806,72.3681938 273.089659,73.6648474 274.962604,75.2084826 L276.444493,73.5619384 C274.406895,71.8948123 272.307551,70.5158314 269.981807,69.301505 L268.973299,71.2567764" id="Fill-1418" fill="#343A3F"></path>
            <path d="M318.724911,60.7291839 C318.169202,55.6248966 318.354438,50.6441002 319.260038,45.6015583 L317.11953,45.1281769 C316.152185,50.3353731 315.946367,55.5219876 316.522658,60.7909293 L318.724911,60.7291839" id="Fill-1419" fill="#343A3F"></path>
            <path d="M286.622195,67.0272158 C290.224011,70.6496132 293.167209,74.6836467 295.57528,79.1910616 L297.386478,77.894408 C294.854917,73.2223386 291.747064,69.0853961 288.001176,65.3189261 L286.622195,67.0272158" id="Fill-1420" fill="#343A3F"></path>
            <path d="M364.843339,70.7113586 C367.868865,66.5744161 371.388353,63.0343459 375.442968,59.9470754 L373.899333,58.3622765 C369.680063,61.5936196 366.078248,65.3189261 362.929232,69.5999412 L364.843339,70.7113586" id="Fill-1421" fill="#343A3F"></path>
            <path d="M303.519856,60.1734752 C302.758329,55.1515152 301.790984,50.1501369 300.638403,45.2105041 L298.497896,45.745631 C299.650477,50.7058456 300.59724,55.686642 301.379348,60.7086021 L303.519856,60.1734752" id="Fill-1422" fill="#343A3F"></path>
            <path d="M329.834119,104.681625 C329.834119,101.903082 330.225174,99.2686109 330.966119,96.5929765 L328.805029,96.2019222 C327.981757,99.0833747 327.631866,101.923664 327.652448,104.908025 L329.834119,104.681625" id="Fill-1423" fill="#343A3F"></path>
            <path d="M335.822996,91.4578165 C335.86416,88.2882188 336.502196,85.3861845 337.860595,82.504732 L335.967069,81.352151 C334.444016,84.5834941 333.661907,87.8148373 333.620744,91.3960711 L335.822996,91.4578165" id="Fill-1424" fill="#343A3F"></path>
            <path d="M309.128397,97.580903 C310.095742,99.8037378 310.795523,102.047154 311.289487,104.414062 L313.471158,104.084753 C312.936031,101.512027 312.195086,99.1039565 311.145414,96.6958855 L309.128397,97.580903" id="Fill-1425" fill="#343A3F"></path>
            <path d="M344.714336,86.2094566 C345.619935,81.1874966 347.245897,76.4742636 349.551059,71.9051032 L347.472297,71.1641583 C345.084808,75.9185549 343.458846,80.8376059 342.512083,86.065384 L344.714336,86.2094566" id="Fill-1426" fill="#343A3F"></path>
            <path d="M337.860595,128.741753 C338.169322,123.637466 339.239576,118.738997 340.989029,113.943437 L338.82794,113.449474 C337.016741,118.450852 335.987651,123.534557 335.63776,128.824081 L337.860595,128.741753" id="Fill-1427" fill="#343A3F"></path>
            <path d="M331.716927,73.3767021 C331.819836,68.2724149 332.684271,63.3533638 334.248489,58.4754764 L332.066817,58.0844221 C330.461437,63.1475458 329.638165,68.2518331 329.514674,73.5619384 L331.716927,73.3767021" id="Fill-1428" fill="#343A3F"></path>
            <path d="M317.422864,142.634471 C319.357554,147.347704 320.530717,152.205009 321.045262,157.288715 L323.185769,156.794752 C322.671224,151.505228 321.37457,146.483268 319.357554,141.584799 L317.422864,142.634471" id="Fill-1429" fill="#343A3F"></path>
            <path d="M308.963743,52.4655898 C308.675598,49.3577375 308.408034,46.2498851 308.119889,43.121451 L305.917636,43.1626146 C306.185199,46.2704669 306.473345,49.3783193 306.76149,52.5067534 L308.963743,52.4655898" id="Fill-1430" fill="#343A3F"></path>
            <path d="M325.82024,61.8508922 C326.026058,59.4428212 326.520021,57.1788228 327.281548,54.8942426 L325.14104,54.3385339 C324.317768,56.8083503 323.844387,59.2575849 323.617987,61.871474 L325.82024,61.8508922" id="Fill-1431" fill="#343A3F"></path>
            <path d="M340.515648,59.9985299 C341.627065,55.4293695 343.355937,51.2512634 346.010989,47.3613025 L344.343863,45.9205763 C341.462411,50.139846 339.548303,54.647261 338.333977,59.5868938 L340.515648,59.9985299" id="Fill-1432" fill="#343A3F"></path>
            <path d="M334.04267,50.242755 C335.339324,46.8879211 335.112924,46.9702483 336.841796,43.8212323 L334.865943,42.812724 C333.137071,45.9617399 333.363471,45.8794127 332.066817,49.2548285 L334.04267,50.242755" id="Fill-1433" fill="#343A3F"></path>
            <path d="M321.086425,118.471434 C321.786207,122.011504 322.239006,125.551574 322.465406,129.15339 L324.667659,128.947572 C324.441259,125.345756 323.988459,121.805686 323.288678,118.265616 L321.086425,118.471434" id="Fill-1434" fill="#343A3F"></path>
            <path d="M333.764816,158.801477 C333.867725,155.17908 334.176452,151.63901 334.752743,148.078358 L332.55049,147.790213 C331.994781,151.350865 331.665472,154.911517 331.583145,158.513332 L333.764816,158.801477" id="Fill-1435" fill="#343A3F"></path>
            <path d="M303.663929,108.952349 C304.795928,111.401584 305.722109,113.891982 306.545381,116.464708 L308.644725,115.826672 C307.780289,113.06871 306.751199,110.413657 305.557454,107.799768 L303.663929,108.952349" id="Fill-1436" fill="#343A3F"></path>
            <path d="M300.432585,85.437639 C302.07913,88.895382 303.519856,92.4354522 304.754764,96.0578496 L306.730617,95.069923 C305.495709,91.4475256 304.054983,87.9280372 302.408439,84.4702942 L300.432585,85.437639" id="Fill-1437" fill="#343A3F"></path>
            <path d="M318.5137,99.1862837 C319.213481,102.726354 319.666281,106.266424 319.892681,109.847658 L322.094934,109.64184 C321.868534,106.060606 321.415734,102.520536 320.715953,98.9804657 L318.5137,99.1862837" id="Fill-1438" fill="#343A3F"></path>
            <path d="M354.449529,65.8849257 C356.116655,62.6947461 357.969017,59.6486392 360.047779,56.7054413 L358.215999,55.4705331 C356.137237,58.4343128 354.264292,61.4804197 352.597166,64.6705993 L354.449529,65.8849257" id="Fill-1439" fill="#343A3F"></path>
            <path d="M339.17783,75.3628462 C339.671794,71.7404488 340.680302,68.4061966 342.223937,65.113108 L340.330411,64.0016906 C338.622122,67.6240881 337.531286,71.3493945 336.975577,75.3216826 L339.17783,75.3628462" id="Fill-1440" fill="#343A3F"></path>
            <path d="M320.23228,90.3978536 C320.149953,88.5454913 320.088208,86.693129 320.005881,84.8201849 L317.803628,85.0054211 C317.885955,86.8577834 317.9477,88.7101457 318.030027,90.562508 L320.23228,90.3978536" id="Fill-1441" fill="#343A3F"></path>
            <path d="M273.532168,62.3242737 C276.989911,65.7614348 280.138927,69.4249959 283.061543,73.3149567 L284.749251,71.8742305 C281.826635,67.9842696 278.677619,64.3412904 275.219876,60.9041292 L273.532168,62.3242737" id="Fill-1442" fill="#343A3F"></path>
            <path d="M348.861569,62.0875829 C350.960913,58.094713 353.183748,54.1635886 355.530073,50.3147913 L353.760038,48.9769741 C351.310804,53.0110076 349.005642,57.1067865 346.82397,61.2643108 L348.861569,62.0875829" id="Fill-1443" fill="#343A3F"></path>
            <polyline id="Fill-1444" fill="#343A3F" points="285.901832 86.6622563 281.641399 82.0107687 280.097764 83.5749858 284.337615 88.2264733 285.901832 86.6622563"></polyline>
            <polyline id="Fill-1445" fill="#343A3F" points="270.084716 57.9712222 266.524064 54.019516 265.042174 55.6660602 268.602826 59.6177665 270.084716 57.9712222"></polyline>
            <polyline id="Fill-1446" fill="#343A3F" points="336.553651 140.319018 337.068196 135.399967 334.845361 135.461712 334.413143 139.783891 336.553651 140.319018"></polyline>
            <polyline id="Fill-1447" fill="#343A3F" points="325.686458 47.7832295 327.209512 43.0905783 325.027841 42.699524 323.690023 46.8364665 325.686458 47.7832295"></polyline>
            <polyline id="Fill-1448" fill="#343A3F" points="342.409174 108.242277 343.932227 103.549626 341.750556 103.158572 340.412739 107.295514 342.409174 108.242277"></polyline>
            <path d="M290.491574,83.6881857 L294.031645,88.257346 L296.089825,87.4546557 C294.998989,85.3141482 293.661172,83.5646949 291.891137,81.979896 L290.491574,83.6881857" id="Fill-1449" fill="#343A3F"></path>
            <path d="M289.904993,45.7250492 C290.934083,47.4333388 291.572119,49.1622103 291.901428,51.1380635 L294.103681,50.973409 C293.712627,48.6270834 292.971682,46.5483213 291.757355,44.4901409 L289.904993,45.7250492" id="Fill-1450" fill="#343A3F"></path>
        </g>
    </g>
</svg>