<?xml version="1.0" encoding="UTF-8"?>
<svg width="720px" height="720px" viewBox="0 0 720 720" version="1.1" xmlns="http://www.w3.org/2000/svg" xmlns:xlink="http://www.w3.org/1999/xlink">
    <title>img_p</title>
    <g id="img_p" stroke="none" stroke-width="1" fill="none" fill-rule="evenodd">
        <g id="panda" transform="translate(96.000000, 24.000000)">
            <path d="M316.315584,486.685122 C311.602548,553.507979 314.948222,621.468868 373.832085,642.186872 C403.623131,652.691775 447.960586,641.574086 452.469972,621.819032 C456.979359,602.063977 425.413652,592.930547 420.991543,586.13154 C414.794773,576.589587 415.376629,532.20637 416.627621,517.324423 C419.769645,480.38218 318.701195,452.777628 316.315584,486.685122" id="Fill-1537" fill="#434544"></path>
            <path d="M488.966518,187.791781 C467.071221,187.938968 458.023098,219.61128 446.973948,251.547039 C440.332858,270.749476 427.717687,283.336439 412.405479,291.122793 L412.405479,291.239881 C429.283708,314.71603 441.347872,339.567964 448.59797,364.536986 C484.152453,343.636773 515.849883,309.622701 527.044034,256.37692 C533.569123,225.494953 515.733881,187.587704 488.966518,187.791781" id="Fill-1538" fill="#434544"></path>
            <path d="M450.043773,401.673447 C447.072597,373.921093 432.711912,340.082442 415.729601,311.281731 C289.27984,279.015616 220.855401,312.883388 191.172768,345.848408 C134.77868,408.45865 88.3467701,385.540389 66.0920782,370.135358 C65.8881739,371.212836 66.3542408,368.650185 65.3347195,373.979335 C63.1791604,385.045332 61.6935723,394.975607 61.1692471,402.60532 C52.1683311,535.863211 191.988385,609.219118 311.884082,581.495885 C414.244013,557.820477 458.549493,482.164009 450.043773,401.673447" id="Fill-1539" fill="#FFFFFA"></path>
            <path d="M386.01821,257.928273 L385.580262,257.753425 L380.324879,261.308678 C408.207604,289.138736 445.871181,353.628701 450.863794,400.575532 C459.389193,481.122421 414.981209,556.831834 312.384459,580.523809 C192.211373,608.266443 52.0678334,534.859202 61.0895738,401.508057 C63.2209234,370.122746 81.6147631,299.629647 95.4247411,272.120145 C92.4758874,270.284236 89.6146235,268.331761 86.8409492,266.26272 L86.8409492,266.291861 C62.3450263,345.8188 27.8346796,436.652611 82.6950362,511.45864 C129.701515,575.511485 214.63434,600.63139 290.83739,590.752448 C475.476503,566.7982 508.089073,380.963355 386.01821,257.928273" id="Fill-1540" fill="#434544"></path>
            <path d="M95.6268549,271.876552 C85.5723822,292.05454 73.1281508,335.22605 66.2794521,369.393719 C88.545009,384.90848 134.999587,407.989987 191.421208,344.933774 C221.118331,311.733945 289.576176,277.595604 416.087671,310.120879 C404.517742,290.324161 391.72379,272.903049 380.445294,261.435616 L374.995479,264.104507 C355.090537,275.95321 331.076376,284.341152 303.739868,288.857737 C244.491337,298.624118 152.485627,307.569302 95.2188473,271.583267 L95.6268549,271.876552" id="Fill-1541" fill="#434544"></path>
            <path d="M185.7246,601.794428 C179.432303,590.567644 181.908438,571.73939 182.520189,543.058463 C184.093264,466.663701 86.7665731,449.355741 80.5034069,486.369047 C64.5104847,580.627261 88.4561714,637.696751 128.045208,661.612141 C164.255049,683.510219 223.39099,667.810262 224.585362,642.11145 C225.750602,616.441874 190.618609,610.506881 185.7246,601.794428" id="Fill-1542" fill="#434544"></path>
            <path d="M99.4191781,44.7317807 C74.3071632,25.2322171 42.2356985,10.6956448 9.87425672,42.7642042 C-9.75719138,62.234401 -0.477924923,108.340297 40.9597994,130.717808 C48.6151942,96.7110391 69.66753,67.0211915 99.4191781,44.7317807" id="Fill-1543" fill="#434544"></path>
            <path d="M452.098543,52.485477 C448.623389,39.5206966 441.673081,26.758944 430.089235,19.9720119 C415.956943,11.6768728 397.567588,13.9681874 383.05882,21.654243 C377.701292,24.4966333 371.996248,28.3541631 366.378082,32.4727287 C392.760292,50.803246 414.480003,77.0518508 428.786053,112.320694 L429.191487,114.147945 C441.673081,103.416471 452.938372,89.5815715 454.357393,78.0089822 C455.370979,69.4818112 454.357393,60.7806162 452.098543,52.485477" id="Fill-1544" fill="#434544"></path>
            <path d="M422.824346,114.892638 C376.386386,0.0384482902 233.666087,-18.8604989 130.017725,32.6369415 C27.4174935,83.6378099 10.5600775,248.558144 139.188858,283.727127 C155.376636,288.167066 173.282182,291.234128 191.94471,292.928315 C202.280431,293.395677 212.237661,294.710132 221.437909,294.564082 C233.81166,294.359611 250.465273,294.24277 272.738025,291.088077 C367.855777,278.031154 452.899839,224.956367 422.824346,114.892638" id="Fill-1545" fill="#FFFFFA"></path>
            <path d="M137.98438,283.050777 C9.18128417,248.013347 26.061545,83.7099153 128.800818,32.8998211 C232.589642,-18.4049876 375.503353,0.42326607 422.004244,114.847831 C466.755886,277.667119 257.254064,315.498231 137.98438,283.050777 Z M427.601844,113.305486 C382.791894,3.1005448 266.291855,-20.1219381 157.488516,15.4102068 C60.4926125,47.0719379 4.16676799,137.168187 57.2565004,234.219541 C100.404663,313.08286 227.95413,301.820829 302.822022,289.569369 C398.301909,273.942209 454.977604,213.005017 427.601844,113.305486 L427.601844,113.305486 Z" id="Fill-1546" fill="#434544"></path>
            <path d="M310.425953,179.507817 C305.509452,174.162512 297.266217,173.122345 289.906185,173.064558 C277.982934,172.977877 253.135467,176.531782 250.574176,185.951076 C247.983445,195.370369 273.301954,207.418975 281.574629,208.025739 C289.847305,208.661397 322.231444,192.423228 310.425953,179.507817" id="Fill-1547" fill="#434544"></path>
            <path d="M301.569946,235.110661 C296.846118,238.688291 290.897595,240.594405 284.890752,240.916979 C287.835855,230.946534 287.485942,218.424828 285.648898,208.043836 L281.274983,208.659657 L280.021128,208.483708 C281.887331,218.454153 282.237244,231.122483 279.146345,240.535756 L279.117185,240.74103 C273.78101,240.066558 268.67811,238.131119 264.537471,234.700113 C261.767325,232.383451 257.743324,236.371629 260.542629,238.717616 C272.614633,248.74671 291.801537,249.509156 304.42757,240.007909 C307.285194,237.837871 304.485889,232.911298 301.569946,235.110661" id="Fill-1548" fill="#434544"></path>
            <path d="M213.038092,120.234741 C205.497379,110.076832 189.042258,111.628328 176.678995,114.292218 C164.315733,116.985381 129.213422,124.830682 101.125727,150.854834 C77.3637129,172.868514 83.6476405,204.893736 93.4096488,216.983696 C105.334497,231.737546 129.914884,240.900155 146.07773,226.819596 C161.071473,213.734337 171.681081,200.180701 184.68735,186.012321 C200.850196,168.448214 232.299061,146.171072 213.038092,120.234741" id="Fill-1549" fill="#434544"></path>
            <path d="M413.946416,154.882859 C400.482795,131.002709 373.027569,115.523203 347.18563,106.446983 C336.88992,102.834119 311.399972,98.6631707 302.658885,114.465779 C293.419145,131.20832 311.6053,143.251199 318.967759,148.479572 C340.351156,163.694723 344.83903,187.163652 364.315814,202.613786 C380.448693,215.420361 401.157443,214.862276 411.394488,200.087718 C418.756947,189.425364 424.594116,173.76962 413.946416,154.882859" id="Fill-1550" fill="#434544"></path>
            <path d="M174.452727,142.774585 C172.272869,139.976119 168.178272,137.089281 164.319335,137.943549 C160.460398,138.76836 157.396814,143.098618 157.868135,148.076941 C158.368913,153.055264 162.34568,162.1871 171.536431,160.183987 C180.727181,158.210333 176.603127,145.543593 174.452727,142.774585" id="Fill-1551" fill="#FFFFFA"></path>
            <path d="M350.756797,124.337856 C346.662199,123.306842 343.097838,124.985921 340.387745,128.668113 C337.677651,132.320847 337.854397,140.392212 341.624961,142.719357 C345.395525,145.017045 351.66998,146.725582 355.85295,140.068179 C360.006462,133.440234 354.851394,125.368869 350.756797,124.337856" id="Fill-1552" fill="#FFFFFA"></path>
            <path d="M203.479168,403.482903 C186.297297,394.065177 176.181691,380.213877 170.933304,364.536986 C138.915211,389.921378 111.002002,389.457736 90.2136986,382.329243 C104.346227,422.231421 132.728565,460.945516 185.065832,481.519624 C214.474392,493.081693 254.936817,481.838377 259.305586,455.439769 C262.853378,433.880422 233.122292,419.68139 203.479168,403.482903" id="Fill-1553" fill="#434544"></path>
        </g>
    </g>
</svg>