<?xml version="1.0" encoding="UTF-8"?>
<svg width="720px" height="720px" viewBox="0 0 720 720" version="1.1" xmlns="http://www.w3.org/2000/svg" xmlns:xlink="http://www.w3.org/1999/xlink">
    <!-- Generator: Sketch 64 (93537) - https://sketch.com -->
    <title>img_k</title>
    <desc>Created with Sketch.</desc>
    <g id="img_k" stroke="none" stroke-width="1" fill="none" fill-rule="evenodd">
        <g id="koala" transform="translate(96.000000, 10.000000)">
            <path d="M415.064511,674.44524 C414.73281,666.339762 407.866588,654.531781 376.189091,646.893284 C457.455967,599.894852 460.441281,521.708673 432.711033,501.09474 C388.163517,468.005709 356.51919,505.731207 340.099964,540.321253 C322.718804,576.879296 323.548058,637.386859 336.816119,656.833336 C358.011847,687.854303 415.661574,688.454709 415.064511,674.44524" id="Fill-745" fill="#91928E"></path>
            <path d="M354.427267,336.806975 C338.199354,339.893089 323.097458,339.859905 313.460064,340.523585 C271.399961,343.37741 229.108031,341.419553 187.412227,334.683199 C177.84107,333.156734 168.998513,331.464349 160.81832,329.041916 C138.364186,363.088714 117.897143,397.069145 108.888995,444.389548 C90.7402264,539.494932 137.503113,605.431568 158.599401,625.640632 C192.876729,658.393254 241.75918,674.122476 291.20464,666.788809 C403.375955,650.163618 423.578051,534.815986 408.476156,456.037137 C399.997899,411.902399 374.563128,368.796365 354.427267,336.806975" id="Fill-746" fill="#ACADA9"></path>
            <path d="M177.88347,480.772636 C181.963161,452.175438 183.687909,422.582978 194.135898,395.677725 C217.320484,336.061524 271.849038,346.146847 282.960392,346.909882 C313.806837,348.966757 367.572522,371.592382 382.829903,435.222807 C387.904641,456.355539 392.714033,496.730006 387.705631,525.42673 C381.967529,558.403081 370.889344,590.583223 345.847337,612.810744 C340.142404,617.886581 310.689024,626.545361 302.56281,626.611712 C264.419357,626.943466 219.111568,626.180432 183.621572,564.441005 C169.49191,539.824855 173.903284,508.872203 177.88347,480.772636" id="Fill-747" fill="#E3ADAE"></path>
            <path d="M255.715284,509.482635 C250.422145,509.482635 247.940987,502.675449 246.154553,497.511377 L245.757568,498.450299 C244.169626,502.373653 242.184699,507.235928 237.619368,507.470659 C232.888625,507.705389 230.738288,502.809581 229.381921,498.316168 C227.893226,502.373653 226.206039,505.458683 221.8392,506.196407 L213.767164,502.239521 L210.88902,497.377246 C209.102586,501.032335 206.522181,505.156886 202.58541,505.223952 C198.946377,505.123353 196.663711,502.306587 195.307345,499.188024 C194.149471,502.742515 192.230708,506.028743 188.360101,506.062275 L183.166209,503.413174 C180.51964,500.194012 179.957244,494.962874 180.35423,492.447904 L182.173746,491.173653 L183.430866,492.984431 L185.548121,501.367665 L188.426265,502.91018 L188.459347,502.91018 C191.767559,502.91018 193.223172,495.935329 193.553993,491.777246 L195.108852,490.335329 L196.663711,491.810778 C196.79604,494.526946 198.51631,501.971257 202.651574,502.071856 L208.871011,494.325749 L211.319088,490.80479 L212.708536,490.871856 L213.469425,492.749701 L216.115994,500.160479 L221.342968,503.077844 C224.518851,502.541317 225.44515,500.194012 227.231584,494.996407 L228.058637,492.615569 L229.51425,491.576048 L229.547332,491.576048 L231.002945,492.682635 L231.763834,495.264671 C233.1202,500.194012 234.509649,504.318563 237.288547,504.318563 L237.453957,504.318563 C240.067444,504.184431 241.556139,500.495808 242.879424,497.243114 L245.162089,492.649102 L246.617702,492.045509 L247.841741,493.017964 L248.966533,496.102994 C250.455228,500.428743 252.506319,506.330539 255.715284,506.330539 L255.847612,506.330539 C259.817466,506.162874 263.059513,497.88024 264.614372,490.80479 L266.136149,489.564072 L266.169231,489.564072 L267.657927,490.871856 C268.253405,494.091018 272.487915,503.849102 276.126948,503.882635 L276.16003,503.882635 C278.707352,503.882635 279.732898,500.931737 281.089265,496.102994 L282.379467,491.978443 L283.901244,490.938922 L285.356857,492.079042 C286.713224,497.008383 289.425957,502.608383 292.60184,502.608383 L292.899579,502.57485 C297.2995,502.071856 299.449837,494.325749 299.979151,490.301796 L301.534011,488.926946 L303.055788,490.301796 C303.783594,495.164072 309.67221,502.34012 312.980422,502.34012 L313.046586,502.34012 L316.023976,499.82515 C318.306642,496.304192 319.36527,491.106587 318.339724,488.457485 L319.166777,486.445509 L321.184786,487.149701 C326.874909,498.651497 330.745517,501.166467 333.028182,501.233533 L333.127429,501.233533 C336.998036,501.233533 339.776933,492.749701 341.431039,487.652695 L342.324256,484.97006 L343.879116,483.930539 L345.301646,485.104192 C346.227946,488.62515 352.08348,499.48982 355.987169,499.355689 C360.618665,499.120958 365.217079,492.649102 365.911803,487.417964 L367.598991,486.043114 L369.021522,487.71976 L377.622871,499.288623 C378.483006,499.456287 380.434851,498.617964 382.61827,491.106587 L384.570115,490.033533 L385.628743,491.978443 C384.702443,495.097006 382.287449,503.346108 377.093557,502.407186 C373.917674,501.870659 369.78241,497.142515 367.532827,492.850299 C365.250161,497.846707 360.883322,502.273054 356.15258,502.507784 C350.958688,502.742515 346.393356,495.197605 343.94528,490.033533 C341.794942,496.572455 338.718306,504.486228 332.928936,504.385629 C328.462851,504.251497 324.559161,499.48982 321.482525,494.325749 L318.604381,501.568862 L313.11275,505.492216 L312.980422,505.492216 C309.142897,505.492216 304.478319,500.931737 301.897914,496.102994 C300.343054,500.931737 297.564157,505.223952 293.263482,505.726946 C288.797397,506.263473 285.72076,501.702994 283.934326,497.511377 C282.644124,502.105389 281.056182,507.034731 276.193112,507.034731 L276.126948,507.034731 C271.727026,507.001198 268.253405,501.267066 266.30156,496.605988 C264.482044,502.306587 261.206914,509.281437 255.946858,509.482635 L255.715284,509.482635" id="Fill-748" fill="#D499A0"></path>
            <path d="M240.366237,545.329341 C234.851588,545.329341 231.595951,537.918563 230.067795,532.419162 C226.845379,538.723353 222.659561,541.707784 217.377456,541.238323 C211.995689,540.768862 209.105481,536.308982 207.577325,532.016766 C206.580702,535.705389 204.886442,539.394012 200.999611,539.628743 L195.551402,537.08024 L192.196103,531.513772 C190.900493,534.095808 189.07335,536.577246 186.017038,536.308982 L180.701713,532.586826 L178.143713,524.136527 L180.103739,523.097006 L181.133583,525.075449 L183.392596,530.943713 L186.216363,533.156886 C187.777739,533.358084 189.471999,530.809581 191.033376,525.913772 L192.89374,524.74012 L194.122909,526.383234 L197.810416,534.900599 L200.800286,536.476647 C203.690494,536.308982 204.653897,531.245509 205.351533,527.523353 L206.04917,524.40479 L207.676988,523.264671 L209.072261,524.639521 C209.338027,526.785629 210.899404,537.516168 217.643222,538.11976 C222.393794,538.488623 226.247405,534.8 229.104392,526.651497 L230.765431,525.611976 L232.127483,527.020359 C232.725457,532.251497 236.147198,542.177246 240.399458,542.177246 L240.632004,542.177246 L244.684939,539.293413 C247.342602,535.705389 248.870758,530.138922 248.903978,527.858683 L248.804316,527.020359 L250.166368,525.377246 L251.92707,526.617964 L252.026732,527.556886 C252.691148,532.888623 257.175953,540.265868 263.089252,540.265868 C266.909642,540.265868 271.527331,533.42515 271.759876,528.797605 L273.18837,527.322156 L274.849409,528.495808 C275.547046,531.312575 280.463721,537.817964 284.25089,538.354491 L287.772293,537.247904 L290.961488,531.010778 L292.29032,529.568862 L293.951359,530.541317 C295.811723,535.168862 298.635489,538.924551 300.263307,538.924551 L303.219957,537.549701 L305.013879,530.407186 L306.375931,528.663473 L308.103412,530.038323 C308.834269,535.504192 313.053309,541.942515 315.910296,541.942515 L315.943517,541.942515 C318.235751,541.942515 319.763906,535.37006 320.694088,531.446707 L321.325283,528.730539 L322.521231,527.556886 L324.082608,528.160479 L326.075855,531.681437 C327.604011,534.766467 329.464375,538.555689 332.122037,538.589222 C336.008869,538.589222 341.58996,529.971257 341.888947,524.874251 L343.28422,523.398802 L344.945259,524.505389 C345.676116,527.020359 350.227364,534.22994 354.811832,534.22994 L354.845052,534.22994 C358.466118,534.196407 360.060715,529.736527 362.053962,522.929341 L362.784819,520.447904 L364.213313,519.341317 L365.741469,520.313772 L366.106897,521.185629 C367.601833,524.941317 369.927287,530.608383 373.182924,531.916168 L376.571444,531.413174 L380.391834,522.929341 L381.853548,521.219162 L383.514587,522.694611 C383.747133,526.148503 381.753886,531.48024 378.398587,533.961677 L372.020197,534.867066 C368.532015,533.458683 366.239781,529.434731 364.545521,525.578443 C362.718378,531.614371 360.525806,537.348503 354.878273,537.415569 L354.811832,537.415569 C350.260584,537.415569 346.307311,533.257485 343.981857,529.602395 C341.888947,535.37006 336.939051,541.741317 332.122037,541.741317 C327.670453,541.741317 325.212115,537.013174 323.451413,533.42515 C322.089361,539.125749 320.395101,545.094611 315.943517,545.094611 C312.422114,545.094611 309.166477,541.372455 307.140009,537.147305 L305.578633,539.662275 L300.296528,542.076647 L300.263307,542.076647 C297.173775,542.076647 294.582554,538.589222 292.921515,535.60479 L289.699099,539.729341 L283.81902,541.473054 C280.098293,540.936527 276.17824,537.046707 273.852786,533.458683 C271.959201,538.388024 267.740162,543.451497 263.089252,543.451497 C257.508161,543.451497 253.123018,539.02515 250.764342,534.062275 L247.176498,541.171257 L240.89777,545.329341 L240.366237,545.329341" id="Fill-749" fill="#D499A0"></path>
            <path d="M206.208223,579.264671 L206.041714,579.264671 C204.276727,579.197605 201.545991,578.258683 200.213925,573.631138 L194.319533,577.051497 L194.252929,577.051497 L190.256731,575.106587 C188.491744,573.396407 186.593549,570.177246 186.526946,566.320958 L188.092124,564.711377 L189.657301,566.253892 L192.45464,572.826347 L194.252929,573.899401 L199.481289,568.299401 L201.11307,566.924551 L202.611644,568.433533 L206.141619,576.112575 L206.208223,576.112575 C208.206322,576.112575 209.271975,569.137725 209.804801,565.784431 L210.171119,563.504192 L211.702995,562.196407 L213.268173,563.437126 C214.167318,567.59521 215.133065,571.183234 217.697293,573.463473 L220.028408,574.234731 C222.093111,573.564072 224.424226,568.936527 225.722991,563.001198 L227.454677,561.794012 L228.820045,563.437126 L232.816243,571.71976 L235.946598,573.597605 C238.244412,573.597605 239.310065,568.4 240.0094,564.946108 L240.608829,562.196407 L242.207309,561.022754 L243.705883,562.364072 C244.405218,566.891018 245.803887,575.94491 251.032247,575.978443 L251.065548,575.978443 C255.994193,575.978443 258.058895,569.77485 258.824833,566.086228 L260.356709,564.845509 L260.390011,564.845509 L261.888585,566.11976 C262.554618,569.506587 264.752527,575.777246 268.615519,575.777246 L268.848631,575.777246 C271.24635,575.643114 272.245399,572.491018 273.27775,568.433533 L274.310102,564.946108 L275.941883,563.973653 L277.30725,565.281437 C277.640267,567.360479 280.204494,572.423952 283.434754,572.423952 C286.531808,572.423952 289.528957,567.226347 290.694515,563.973653 L292.159787,562.934132 L292.193089,562.934132 L293.658362,564.007186 C295.689762,570.244311 297.920973,572.759281 301.750663,572.759281 C305.547052,572.725749 307.744961,568.534132 309.876266,564.476647 L310.409093,563.470659 L312.37389,562.766467 L313.306337,564.644311 L314.804911,569.104192 L319.766857,572.423952 C323.363436,572.423952 325.394836,567.897006 326.893411,564.543713 L327.059919,564.17485 L328.824906,563.269461 L330.057068,564.811976 C330.057068,567.02515 331.622245,571.384431 335.185522,571.417964 L337.350129,570.177246 L341.479534,561.458683 L342.445282,559.580838 L344.443381,560.486228 L344.909605,561.626347 C346.141766,564.577246 348.539485,570.043114 351.969555,569.54012 C354.933402,569.137725 357.764042,565.415569 360.32827,558.507784 L361.893447,557.468263 L363.325418,558.675449 C364.391071,563.101796 366.9886,565.147305 369.086604,565.214371 L372.316864,563.168862 L374.115154,558.474251 L375.44722,556.663473 L377.245509,558.00479 L374.64798,565.247904 L368.986699,568.366467 C366.655584,568.299401 363.691736,566.891018 361.760241,563.336527 C359.961951,567.159281 356.931501,572.05509 352.369175,572.658683 C347.940055,573.228743 345.142716,569.439521 343.41103,566.019162 L340.713596,571.049102 L335.185522,574.57006 L335.15222,574.57006 C331.72215,574.536527 329.324431,572.189222 328.025667,569.439521 C326.293981,572.591617 323.796357,575.609581 319.766857,575.609581 L312.273985,571.015569 L311.008523,568.97006 C308.910518,572.524551 306.179783,575.877844 301.750663,575.911377 L301.68406,575.911377 C296.588907,575.911377 293.82487,572.491018 292.059882,568.601198 C290.161688,572.021557 287.164539,575.576048 283.468056,575.609581 L283.434754,575.609581 C280.137891,575.609581 277.573664,573.027545 276.008486,570.34491 C275.009436,574.167665 273.444259,578.661078 269.048441,578.929341 L268.615519,578.962874 C264.719226,578.962874 261.98849,575.71018 260.323408,571.820359 C258.292007,576.582036 255.095048,579.130539 251.065548,579.130539 L251.032247,579.130539 C246.003697,579.130539 243.43947,574.536527 242.074102,569.942515 C241.041751,573.530539 239.376668,576.783234 235.946598,576.783234 L230.518429,573.865868 L227.254867,569.037126 C225.989404,572.524551 223.958003,576.246707 220.994156,577.252695 L215.63259,575.844311 L212.135917,570.780838 C211.20347,575.240719 209.704896,579.264671 206.208223,579.264671" id="Fill-750" fill="#D499A0"></path>
            <path d="M249.145588,609.679042 L249.112576,609.679042 C245.481225,609.679042 242.411082,606.258683 240.430345,602.637126 L239.010817,604.716168 L233.761864,607.633533 L233.662827,607.633533 C230.856783,607.633533 228.248813,605.017964 226.796272,601.765269 C224.815535,604.950898 222.405639,605.722156 220.457914,605.722156 C216.232342,605.722156 212.237856,599.786826 211.676647,598.244311 L212.634003,596.198802 L214.61474,597.171257 L220.457914,602.57006 C222.702749,602.57006 224.419388,600.591617 225.60783,596.668263 L227.258444,595.561677 L228.64496,596.97006 C229.041108,600.893413 231.68209,604.51497 233.69584,604.481437 L236.666945,602.637126 L238.515633,598.043114 L239.737087,596.332934 L241.519751,597.372455 C242.708193,601.061078 245.910384,606.526946 249.145588,606.526946 C251.951632,606.526946 254.163455,603.542515 255.68202,597.607186 L257.002512,596.433533 L258.554089,597.271856 L259.709519,599.71976 C261.360133,603.37485 262.581588,605.520958 265.486668,605.487425 C269.745253,605.386826 272.188162,598.546108 272.980457,596.299401 L274.499022,595.25988 L275.951562,596.4 C277.305066,601.42994 280.40822,603.106587 282.917154,603.039521 C284.996928,602.938922 286.977665,600.05509 288.298156,595.058683 L289.882746,593.918563 L291.335286,595.25988 L297.60762,603.307784 C299.753418,602.368862 301.503069,599.350898 302.592475,594.320958 L304.144052,593.08024 L305.662617,594.354491 C306.388887,598.244311 308.699747,604.850299 312.694233,605.152096 L312.760258,605.152096 C314.37786,605.152096 319.329702,599.887425 320.683206,592.879042 L322.267796,591.60479 L323.753348,593.08024 L331.049063,605.185629 C335.472709,604.783234 338.773937,598.847904 340.25949,593.88503 L341.745043,592.778443 L343.230596,593.918563 L343.692767,595.796407 C344.419038,599.451497 345.310369,602.502994 347.588217,602.301796 C348.743647,602.234731 351.780777,600.926946 355.44514,590.129341 L357.425877,589.123353 L358.383234,591.135329 C355.181042,600.558084 351.714752,605.252695 347.753278,605.453892 C344.02289,605.621557 342.273239,602.603593 341.381908,599.585629 C339.137072,604.079042 335.736807,607.935329 331.247137,608.304192 L328.210007,607.063473 C326.196257,605.286228 323.819373,601.564072 322.267796,598.244311 C319.923924,603.978443 315.566302,608.438323 312.49616,608.304192 C308.105526,607.968862 305.497556,603.777246 304.078028,600.088623 C302.724524,603.274251 300.908848,605.31976 298.531964,606.258683 L295.659895,605.856287 L290.047807,599.652695 C288.298156,603.844311 285.921272,606.091018 283.016191,606.191617 L282.686068,606.191617 C279.351827,606.191617 276.380722,604.246707 274.466009,600.960479 C272.848408,604.414371 270.108388,608.538922 265.585705,608.673054 C260.963986,608.605988 258.950236,605.453892 257.464684,602.268263 C255.483947,607.197605 252.710915,609.679042 249.145588,609.679042" id="Fill-751" fill="#D499A0"></path>
            <path d="M245.753981,381.252695 L239.384762,379.307784 C236.367764,377.19521 234.859264,374.009581 234.054731,370.488623 C232.579754,374.445509 230.333766,378.469461 226.74689,378.737725 C220.377671,379.207186 218.768605,370.958084 217.964072,366.531737 L219.237916,364.687425 L221.081637,365.961677 C222.020259,371.092216 223.327625,375.786826 226.512235,375.585629 C229.395144,375.384431 231.574088,368.17485 232.546232,365.08982 L233.28372,362.809581 L234.993353,361.803593 L236.334241,363.279042 C236.669463,368.376048 237.339908,374.043114 241.194961,376.725749 C244.949449,379.341317 250.44709,377.865868 253.6317,374.91497 C257.520276,371.326946 259.196386,365.760479 260.101486,361.870659 L261.509419,360.663473 L263.084963,361.635928 L264.023584,366.766467 C264.492895,371.662275 265.029251,374.91497 268.21386,375.149701 C271.499036,375.317365 273.342758,371.796407 275.287046,367.403593 L277.968822,362.843114 L279.678455,362.608383 L280.583555,364.083832 C280.482988,367.068263 282.527843,372.366467 285.745974,375.417964 L291.042483,377.698204 C296.942392,377.262275 299.758257,368.040719 300.965056,364.117365 L302.2389,362.876647 L303.847966,363.279042 L305.42351,366.397605 C307.535409,371.293413 309.747875,375.585629 313.669973,374.546108 C316.955149,373.640719 318.63126,369.31497 319.737492,365.626347 L321.715303,364.553293 L322.754491,366.531737 C321.413603,370.991617 319.268181,376.28982 314.508028,377.564072 C308.105287,379.341317 304.719544,372.701796 302.875822,368.476647 C300.965056,373.674251 297.612836,380.380838 291.277139,380.850299 L283.567031,377.698204 C281.019343,375.283832 279.175622,371.796407 278.203478,368.644311 L278.169956,368.711377 C276.359756,372.735329 273.644458,378.771257 267.945683,378.301796 C262.850307,377.899401 261.609985,373.372455 261.107152,369.247904 L255.777121,377.262275 C253.229434,379.576048 249.474946,381.252695 245.753981,381.252695" id="Fill-752" fill="#D499A0"></path>
            <path d="M204.105185,414.148503 L200.003816,412.505389 C196.001673,408.984431 195.108633,400.869461 194.91018,397.549701 L196.365504,395.873054 L198.019282,397.348503 C198.383113,403.350898 199.937665,408.246707 202.021425,410.124551 L204.336714,410.962874 C207.710421,410.728144 211.216431,402.613174 212.539453,397.180838 L214.12708,395.973653 L215.582405,397.382036 C216.111614,401.841916 219.319943,408.146108 223.818219,408.146108 L224.082823,408.112575 C227.787286,407.911377 229.341838,402.143713 230.565633,397.516168 L231.425598,394.565269 L232.947074,393.458683 L234.402398,394.632335 C235.328514,397.918563 239.496034,406.268263 243.895084,406.033533 C247.301867,405.966467 250.840951,399.159281 252.660107,392.85509 L254.346961,391.748503 L255.703059,393.257485 C255.835361,397.851497 260.399788,404.591617 265.096518,405.396407 C267.90794,405.932934 271.71163,400.936527 275.118412,392.083832 L276.342208,391.077844 L277.797533,391.681437 L279.68284,395.873054 C281.46892,400.634731 284.478796,408.649102 289.837037,408.984431 L290.134717,409.017964 C295.195277,409.017964 302.670354,400.835928 303.59647,392.050299 L305.217172,390.641916 L306.705572,392.150898 C306.904026,397.616766 309.781599,405.865868 317.025147,406.301796 L317.289751,406.301796 C322.284161,406.301796 327.642402,398.253892 329.329255,392.318563 L331.181487,391.211976 L332.339131,393.056287 C331.942224,395.202395 333.397549,400.902994 336.572803,404.85988 L342.063346,408.213174 L342.162572,408.213174 L347.487738,404.725749 C350.332236,400.802395 351.456805,395.37006 350.960671,393.928144 L351.952938,391.916168 L353.937472,392.922156 C354.896663,395.873054 353.044432,402.411976 350.00148,406.603593 C347.686191,409.789222 344.940919,411.398802 341.997195,411.398802 L334.158287,406.838323 L330.023842,398.823952 C327.080117,404.423952 322.052632,409.856287 316.826694,409.453892 C310.44311,409.08503 306.705572,404.256287 304.886416,399.092216 C301.744238,406.502994 295.261428,412.438323 289.638583,412.136527 C282.262733,411.667066 278.822875,402.479042 276.77219,396.979641 L276.639888,396.610778 C272.803123,405.262275 268.701754,409.286228 264.567309,408.51497 C260.069033,407.743713 255.934588,403.317365 253.916979,398.68982 C251.998596,403.384431 248.657965,409.118563 243.928159,409.185629 L243.795857,409.185629 C238.966825,409.185629 235.262363,403.988024 233.178602,399.82994 C231.756353,404.926946 229.639518,410.962874 224.281277,411.264671 C219.253792,411.633533 215.813934,407.475449 213.961702,403.082635 C212.208697,407.676647 209.066519,413.779641 204.568243,414.11497 L204.105185,414.148503" id="Fill-753" fill="#D499A0"></path>
            <path d="M339.870331,444.462275 L339.70476,444.462275 C333.545543,444.328144 330.995759,437.88982 329.472512,432.28982 C327.187641,438.191617 323.147724,443.590419 317.286534,444.05988 L310.233236,441.377246 L305.762837,434.737725 L301.88849,440.907784 L295.596816,444.294611 L295.530588,444.294611 C290.364793,444.227545 287.119614,437.621557 285.563253,432.28982 L285.29834,432.960479 C283.477066,437.923353 281.55645,443.623952 275.927058,443.322156 C270.794377,443.053892 266.986258,437.08503 265.065642,431.384431 C263.211254,436.347305 259.866733,442.11497 255.429447,442.215569 L255.296991,442.215569 C250.859705,442.215569 247.64764,437.353293 245.428997,432.893413 L243.144126,437.487425 C240.759913,440.807186 237.382278,442.852695 233.9053,443.087425 C229.434901,443.389222 226.25595,440.538922 224.368448,434.603593 C223.143227,438.426347 220.759014,442.316168 215.560104,442.617964 C209.500229,442.986826 206.25505,438.191617 204.400662,434.167665 C203.24167,438.426347 200.956799,442.517365 195.161836,442.68503 L194.963152,442.68503 L188.870162,438.929341 C186.618405,435.14012 186.154808,428.768862 186.783976,427.628743 L188.903276,426.991617 L189.631786,428.835928 L192.214684,438.22515 L195.095608,439.532934 C200.162061,439.398802 201.287939,435.005988 202.281361,428.835928 L202.380704,428.366467 L203.705267,427.058683 L205.327856,427.964072 L205.890795,429.405988 C207.811412,434.80479 210.228739,439.767665 215.394534,439.465868 C220.394759,439.164072 221.686208,433.664671 222.51406,428.534132 L222.911428,426.421557 L224.534018,425.281437 L225.957923,426.68982 C227.017573,435.743713 229.600471,440.17006 233.706616,439.935329 L240.627457,435.609581 L242.779872,426.823952 L243.74018,424.946108 L245.69391,425.750898 L246.323077,427.25988 C247.846325,430.780838 251.323302,439.063473 255.296991,439.063473 L255.363219,439.063473 C259.502478,438.962874 263.641737,427.226347 263.641737,424.778443 L265.164984,423.202395 L265.231212,423.202395 L266.75446,424.677844 C267.151829,430.613174 271.324202,439.935329 276.092628,440.136527 L276.258198,440.17006 C279.106009,440.17006 280.529914,436.850299 282.384302,431.853892 L284.702287,426.421557 L286.35799,425.650299 L287.616325,427.02515 C288.14615,431.954491 291.5569,441.075449 295.563702,441.142515 L295.596816,441.142515 L299.603619,438.761677 L304.173361,428.299401 L304.140247,427.662275 L305.597266,426.052695 L307.25297,427.461078 L307.286084,428.198802 C307.584111,432.088623 309.637183,436.548503 312.319423,439.02994 L317.021621,440.907784 C322.651013,440.438323 326.591588,433.128144 328.015493,426.11976 L329.472512,424.845509 L329.53874,424.845509 L331.061988,425.985629 L331.724269,428.601198 C332.982604,433.597605 334.836992,441.176048 339.770989,441.276647 L339.870331,441.31018 C345.301039,441.31018 350.003237,429.372455 350.897317,424.811976 L352.55302,423.537725 L354.01004,425.013174 C354.308066,430.177246 360.069915,436.347305 364.242288,436.313772 L369.739224,432.960479 L371.924753,425.449102 L373.149973,423.60479 L374.971247,424.845509 C375.600415,428.131737 374.540764,431.920958 372.189665,434.938922 L364.374744,439.465868 C359.70566,439.734132 354.871005,435.341317 352.420564,430.479042 C350.301263,436.28024 346.029548,444.462275 339.870331,444.462275" id="Fill-754" fill="#D499A0"></path>
            <path d="M292.939892,474.792814 C288.445315,474.792814 283.68635,468.522156 281.27382,463.324551 C278.629951,468.555689 273.143923,473.250299 268.054475,473.015569 C262.998075,472.646707 259.759335,467.348503 258.470449,461.983234 C255.727435,467.046707 251.761631,472.34491 247.167909,472.34491 L247.035715,472.34491 L241.186155,468.991617 C239.302398,466.711377 237.815222,463.492216 236.989013,460.474251 C234.840869,465.537725 231.569081,471.338922 226.413537,471.338922 L226.14915,471.338922 C220.365686,471.137725 218.87851,466.040719 218.250591,461.580838 C215.63977,465.638323 212.20274,469.092216 207.509873,468.68982 C203.676263,468.388024 200.272281,464.531737 198.520718,460.742515 L193.001641,467.650299 L190.093385,467.88503 L187.78,464.531737 C186.590259,460.943713 186.028436,454.438323 187.085984,452.258683 L189.201079,451.554491 L189.895095,453.667066 L191.481416,465.068263 C192.638109,464.833533 196.141236,459.334132 197.26488,456.014371 L197.925847,453.834731 L199.743507,453.298204 L200.734958,454.941317 L200.404475,456.383234 L201.891651,460.507784 L207.741211,465.537725 C212.367982,465.873054 215.474528,460.608383 217.820962,455.947305 L219.47338,455.075449 L220.762266,456.416766 L221.026653,458.797605 C221.654572,464.364072 222.348588,468.052695 226.281343,468.186826 C230.511534,468.45509 233.783322,460.239521 235.468788,455.88024 L236.394142,453.566467 L238.244851,452.728144 L239.368495,454.471856 C238.938866,457.322156 240.723478,463.525749 243.565637,466.979641 L247.101812,469.159281 L247.167909,469.159281 C250.935422,469.159281 255.330855,461.983234 257.974724,455.813174 L259.726287,454.907784 L260.949076,456.483832 C260.783835,461.580838 263.625994,469.528144 268.285813,469.863473 L268.616297,469.863473 C273.375261,469.863473 279.224821,463.022754 279.753595,458.05988 L281.306868,456.651497 L282.860141,458.126946 C283.157577,462.050299 289.370669,471.640719 292.939892,471.640719 L293.039037,471.640719 C296.178632,471.473054 298.657259,464.297006 299.384323,459.501796 L300.871499,458.126946 L300.904548,458.126946 L302.457821,459.434731 C303.614514,465.94012 305.993996,468.924551 310.15809,469.058683 L311.645266,468.253892 C313.694265,466.141317 315.148393,460.876647 314.917054,456.517365 L316.371182,454.874251 L318.0236,456.282635 C318.321035,459.065868 321.725017,467.750898 326.153498,467.750898 L326.252643,467.750898 C330.515882,467.583234 333.424138,461.983234 334.415588,456.483832 L336.068007,455.176048 L337.489086,456.718563 C337.588231,459.837126 340.066859,467.717365 345.354597,467.750898 C348.593336,467.750898 349.882223,463.291018 351.005867,458.361677 L352.030366,454.673054 L353.253156,453.700599 L354.674235,454.304192 L356.59104,459.568862 C357.417249,462.85509 358.573942,467.348503 360.655989,467.348503 L360.689037,467.348503 C364.489599,467.247904 368.124919,459.300599 367.959677,453.667066 L369.149418,452.091018 L370.900982,452.962874 L371.396707,454.371257 C372.057674,456.68503 374.139721,463.726946 377.378461,463.794012 L379.096976,463.056287 L380.253669,455.075449 L381.575603,453.264671 L383.360215,454.605988 C383.360215,454.673054 384.384714,461.71497 381.44341,465.135329 L377.444558,466.946108 L377.312364,466.946108 C373.776189,466.879042 371.528901,463.492216 370.107821,460.172455 C368.5215,465.437126 365.150566,470.366467 360.788182,470.534132 L360.622941,470.534132 C356.293605,470.534132 354.740332,464.967665 353.649736,460.708982 C352.55914,465.269461 350.675383,470.902994 345.354597,470.902994 C340.529536,470.902994 337.389941,466.912575 335.737523,462.821557 C333.919863,467.113772 330.813317,470.735329 326.384836,470.902994 C322.220742,471.003593 319.213341,467.382036 317.263488,463.559281 L313.892555,470.467066 L310.058945,472.210778 C305.10169,472.043114 302.457821,468.958084 301.036741,465.805988 C299.714807,469.863473 297.302276,474.558084 293.204279,474.792814 L292.939892,474.792814" id="Fill-755" fill="#D499A0"></path>
            <path d="M501.956756,70.9829436 L510.969168,73.8102419 C509.734134,64.6963627 496.015241,47.3334251 483.064072,40.9470572 C487.93745,41.4459922 492.844207,41.9781895 497.750964,42.4771245 C485.634278,26.5444672 456.86132,18.727819 437.668221,21.2890186 C441.606979,16.9981777 447.214702,14.2706664 453.0227,13.8715184 C444.577737,9.11500485 434.196774,8.94869319 424.783811,11.3103188 C415.404227,13.6719444 406.792367,18.3619333 398.314025,23.0186599 C399.582438,17.6634243 402.119265,12.6075498 405.624092,8.38323353 C387.432372,15.5346351 372.611962,30.8020457 365.969481,49.1628534 L363.299137,41.2464182 C350.848658,60.7381451 347.744383,94.1667894 345.808383,102.715209 C379.454719,122.473035 401.218024,153.307217 415.037055,182.278709 C419.610019,191.891523 423.815811,203.633126 426.486155,216.472387 C445.746012,220.097981 462.168629,221.062588 475.98766,218.967062 C498.685585,215.541041 509.099927,206.693261 519.814683,185.372106 C537.205299,150.712755 525.489164,105.409458 501.956756,70.9829436" id="Fill-756" fill="#ACADA9"></path>
            <path d="M490.064221,124.927467 C488.528147,112.421891 480.847781,102.878162 472.466164,93.3673419 C439.106659,55.6860661 404.611796,94.3217148 390.787137,116.173564 C388.416241,119.958146 384.70963,125.059105 381.437126,130.752433 C393.458569,143.554194 403.04233,157.73815 410.622518,171.856287 C420.005922,171.757559 430.658256,171.296827 437.169871,170.737367 C455.569358,169.124806 494.538869,161.621461 490.064221,124.927467" id="Fill-757" fill="#D499A0"></path>
            <path d="M166.328685,17.8721802 C164.365476,21.5927828 163.533608,26.243536 163.234135,31.1932662 C150.922485,8.33813613 125.600415,2.49147494 117.181908,0 C116.782611,2.45825527 119.244941,8.43779513 122.106568,12.324496 C99.1470041,4.91651055 73.9913078,5.21548754 61.613108,9.86624076 C63.709416,12.6899124 70.4309116,14.9820693 74.3240551,15.2478266 C58.6183822,21.6592221 42.5799621,25.9777787 29.0371468,38.4351534 C35.4591698,38.5680321 39.8514342,38.8670091 46.2734572,38.9998877 C31.0003559,45.6106012 15.4943315,63.1173651 12.2999573,74.6445892 C15.4943315,74.6113695 18.6887056,73.2161436 21.0512115,71.7876979 C15.2946831,79.8268571 10.7693197,87.9324555 7.90769289,95.6061983 C-2.14127573,122.647006 -2.30764939,149.521716 5.67828594,166.131549 C19.6869475,195.331635 68.4677025,203.636552 107.365862,200.613562 C115.71782,160.517425 139.243054,118.660646 188.622754,96.7024473 C187.458139,82.716968 185.727853,39.6975007 166.328685,17.8721802" id="Fill-758" fill="#ACADA9"></path>
            <path d="M152.994012,119.101086 C151.394539,114.820879 149.728422,111.109137 148.195594,108.534325 C118.438742,58.9441132 87.948797,68.4408227 73.2203211,82.6524478 C58.4585228,96.8306338 47.2955377,117.763522 48.2618857,133.413029 C49.1949113,149.062536 59.7247719,163.909504 89.4149801,170.664206 C96.8125405,172.336162 105.209771,174.509705 113.607002,176.047904 C121.571042,155.282212 134.166888,135.285619 152.994012,119.101086" id="Fill-759" fill="#D499A0"></path>
            <path d="M419.403487,290.873036 C394.569642,341.489112 337.673943,338.763887 313.967401,340.359141 C271.859279,343.18407 229.519065,341.256471 187.775659,334.509877 C155.083842,329.258833 130.515244,322.512238 112.876251,289.045141 C90.4627943,246.571506 94.8393866,104.793315 233.431473,84.2211871 C337.640787,68.7339305 389.861489,128.589186 415.225831,182.129895 C428.024047,209.116273 437.970848,252.952521 419.403487,290.873036" id="Fill-760" fill="#BEB9B6"></path>
            <path d="M323.780685,255.253889 C321.39415,238.216498 313.10757,178.552484 270.017353,180.276111 C229.181087,181.900298 214.397828,215.610466 212.177024,247.729594 C210.68544,269.440666 210.95061,297.482753 236.241253,312.498197 C261.531895,327.480494 309.792938,323.53604 322.289101,286.312324 C325.603733,276.401468 325.239123,265.595652 323.780685,255.253889" id="Fill-761" fill="#D2CFCB"></path>
            <path d="M225.822058,218.831331 C229.511514,204.788026 235.280481,174.728666 268.586203,173.959628 C301.858384,173.224026 317.756584,226.555149 310.578916,251.431861 C306.319271,266.277641 296.458363,271.82809 280.828487,275.272043 C271.504227,277.345102 261.207292,276.876992 251.715329,275.171734 C219.449362,270.089395 223.407142,227.992916 225.822058,218.831331" id="Fill-762" fill="#6F6F6C"></path>
            <path d="M149.457342,169.838042 C153.850156,165.679959 158.5783,162.024869 163.708839,158.83924 C167.129198,156.726665 163.977102,151.260797 160.52321,153.406905 C154.956743,156.89433 149.759138,160.884749 144.997461,165.411695 L149.457342,169.838042" id="Fill-763" fill="#91928E"></path>
            <path d="M382.625032,158.690017 C378.366349,154.196604 373.57114,150.474448 368.20587,147.490017 C364.651379,145.511574 361.499283,150.943909 365.020241,152.922352 C369.949583,155.672053 374.275331,159.025346 378.165152,163.116364 L382.625032,158.690017" id="Fill-764" fill="#91928E"></path>
            <path d="M289.707488,293.086001 C283.698267,297.881211 275.352128,299.92672 267.005988,299.725522 L267.306449,298.820133 C268.007525,292.147079 268.741985,284.803366 268.7086,277.52672 L263.467225,277.593786 C263.500609,284.836899 262.766149,292.180612 262.065073,298.820133 L262.098458,299.35666 C253.718934,298.250073 245.70664,294.930312 240.565418,289.397378 L236.826347,293.119534 C250.380478,307.572229 277.922739,309.148277 293.413174,296.808157 L289.707488,293.086001" id="Fill-765" fill="#17111C"></path>
            <path d="M354.28852,244.990697 L362.156157,240.81152 C365.616611,239.561057 369.207649,238.639664 372.798686,239.00164 C378.022014,239.52815 382.723008,242.72012 387.260774,245.846276 C391.374144,248.67627 396.042493,252.559285 396.107784,258.285086 L394.410203,264.603212 C380.894844,285.926887 353.015334,273.652611 349.783401,267.663554 C345.865905,260.456942 348.412277,249.893825 354.28852,244.990697" id="Fill-766" fill="#EFC1BC"></path>
            <path d="M141.247549,247.520245 C143.629434,241.308676 150.220406,239.389919 155.963035,239.032185 C160.433149,238.772014 164.935892,238.967142 169.34075,239.682611 C175.703321,240.690771 182.196407,242.837177 186.960179,247.877979 C191.756579,252.918781 194.366865,261.439362 191.821836,268.431442 C189.570465,274.512926 183.95835,278.708174 178.346236,278.740695 C155.506235,278.870781 149.469949,272.008786 144.151492,263.715854 C141.182292,259.097829 139.224577,252.788696 141.247549,247.520245" id="Fill-767" fill="#EFC1BC"></path>
            <path d="M347.831774,205.932999 C349.106026,202.680304 351.620996,199.427609 355.108421,199.259945 C374.892852,198.321023 372.076086,227.025214 360.540756,228.2324 C346.389858,229.674316 346.289259,209.923418 347.831774,205.932999" id="Fill-768" fill="#17111C"></path>
            <path d="M180.57619,199.367488 C196.470801,200.507607 196.638465,228.574673 178.430082,228.205811 C164.178585,227.937548 164.681579,198.227368 180.57619,199.367488" id="Fill-769" fill="#17111C"></path>
            <path d="M365.241846,352.095808 C458.045998,386.496022 435.813061,528.206341 326.183984,536.325852 C303.951046,537.982895 303.116477,529.034863 312.797485,522.870663 C291.966625,529.001722 298.142441,516.143068 307.890216,507.990416 C291.833094,507.460163 286.558614,498.710975 305.486655,493.242733 C327.619443,486.813406 402.39689,440.913315 365.241846,352.095808" id="Fill-770" fill="#A3A3A0"></path>
            <path d="M263.277326,687.595184 C267.196889,677.961793 255.870017,669.420848 245.606078,665.713151 C232.518724,660.946112 218.534522,658.165339 204.35102,657.470146 C204.683186,641.580015 212.256579,626.484392 216.508308,610.95841 C219.929621,598.444932 221.191853,585.501097 220.22857,572.755888 C218.667389,552.231137 210.96113,531.805698 195.913996,516.842492 C180.833644,501.879286 162.996313,493.735594 140.774386,497.708127 C111.444099,502.971733 56.1384061,551.73457 134.496442,659.026054 C141.737668,668.924281 150.174693,678.226628 160.770798,685.145456 C183.756708,700.141766 214.482093,702.161137 242.882314,698.287918 C250.987172,697.195471 260.387479,694.64643 263.277326,687.595184" id="Fill-771" fill="#91928E"></path>
            <path d="M160.534723,360.620212 C148.57818,358.372764 120.404338,383.127749 121.593387,422.887759 C124.797212,529.641566 248.094928,542.7627 265.864596,530.798341 C270.422615,527.724625 264.312228,520.255163 261.96716,519.098388 C278.382634,516.983143 276.037566,507.100979 260.877199,501.647611 C263.717703,503.92811 289.777681,493.318831 261.504752,486.510384 C232.835473,479.602785 186.363497,462.779971 182.697264,406.164097 C180.97975,379.293866 177.082313,363.693929 160.534723,360.620212" id="Fill-772" fill="#A3A3A0"></path>
        </g>
    </g>
</svg>