<?xml version="1.0" encoding="UTF-8"?>
<svg width="720px" height="720px" viewBox="0 0 720 720" version="1.1" xmlns="http://www.w3.org/2000/svg" xmlns:xlink="http://www.w3.org/1999/xlink">
    <title>img_z</title>
    <g id="img_z" stroke="none" stroke-width="1" fill="none" fill-rule="evenodd">
        <g id="zebra" transform="translate(24.000000, 24.000000)">
            <path d="M123.0646,76.5148515 C129.568328,34.6107041 115.627961,7.24040016 109.177543,0 C97.6360915,22.8085866 80.1506598,47.3941212 78.1782178,72.854869 C92.9715328,73.0935635 108.271286,74.4196441 123.0646,76.5148515" id="Fill-1207" fill="#DCD3C5"></path>
            <path d="M210.947553,105.329429 C271.773839,168.510258 231.609013,220.524487 279.117211,272.459708 C291.250884,285.706877 307.122044,293.291736 323.914415,297.742574 C345.576048,270.905865 321.019179,277.542618 314.702299,281.019012 C335.363759,265.348902 328.599434,249.757801 307.753732,251.33798 C336.179689,229.531508 322.256234,220.340133 301.199969,218.470255 C334.100383,199.718796 314.965502,189.763667 296.620232,189.763667 C325.309393,174.067221 314.78126,163.05864 291.250884,161.820833 C317.860739,144.307181 325.677877,131.586739 278.301281,133.640972 C287.276514,124.607614 295.093652,120.209449 292.698502,112.387562 C290.303352,104.592012 274.379552,106.303873 258.37679,111.334109 C266.983539,107.357325 279.459376,89.4749648 274.826997,82.9435577 C270.194619,76.438487 248.111861,85.7088712 240.294723,88.4215121 C247.638095,81.5740692 258.482072,65.8776231 254.139217,58.766817 C249.822683,51.6560109 233.030311,64.7978341 225.186853,71.8296312 C229.503387,63.1123096 235.688665,44.3608506 228.687457,41.8589003 C221.686249,39.3306137 210.894913,54.6583513 203.946345,62.1115295 C202.472407,50.1548408 212.526773,33.5629599 202.893532,28.7960862 C193.286611,24.0555488 178.88939,37.5660804 170.098399,49.0487154 C172.230346,13.2839944 157.569922,14.3637835 141.698762,45.4406397 C144.69928,40.3577302 147.331313,19.525702 136.224133,16.8657337 C125.143274,14.1794292 127.775307,35.5118475 123.537733,44.808568 C123.458772,38.5141878 123.353491,29.1384583 116.08908,28.0059966 C108.798348,26.8735349 105.034541,40.015358 101.744499,47.3895273 C100.375842,50.3918676 98.9019035,62.9542917 98.1386139,73.5151556 C147.568196,77.2812492 197.629466,91.5028614 210.947553,105.329429" id="Fill-1208" fill="#0F0F0D"></path>
            <path d="M324.60708,229.075096 C306.308297,238.957383 283.881772,241.414743 264.136965,248.733976 L265.320076,251.032796 C284.61793,243.898526 306.282006,241.414743 324.396749,232.166614 L324.60708,229.075096 Z M314.668948,220.249739 L310.04167,220.144046 C293.425534,222.839215 274.679798,228.335246 258.458033,234.254049 L259.246774,236.737832 C277.782178,229.973486 298.631222,224.424609 318.297155,221.703017 L314.668948,220.249739 Z M318.00795,205.135654 L317.745036,204.792153 C297.500694,205.479156 274.364302,209.865412 254.041085,214.859401 L254.461747,217.396031 C274.048806,212.613427 296.238709,208.385711 316.06239,207.487322 L318.00795,205.135654 Z M312.3816,137.333659 C292.242423,140.768678 262.454319,149.329803 243.787457,156.305534 L244.523615,158.762894 C263.216768,151.734317 292.610502,143.331731 313.406963,139.764596 L312.3816,137.333659 Z M292.18984,160.982445 L296.738245,157.890928 C280.122109,160.718213 262.585776,164.364618 246.889837,167.799637 L247.441956,170.309844 C261.849618,167.16548 277.913635,163.783307 293.294077,161.088138 L292.18984,160.982445 Z M301.260357,189.176027 C284.61793,190.972806 266.319148,194.460672 251.858903,199.058313 L252.174399,201.647789 C269.263779,196.125335 292.163549,192.241121 310.593788,190.867113 C307.780613,189.968723 304.573068,189.413836 301.260357,189.176027 Z M308.674519,250.768564 L308.858559,250.636448 C297.264072,254.917011 286.142829,260.439465 275.573704,266.675346 L277.177477,268.630664 C289.350374,261.46997 302.233138,255.313359 315.694311,250.953527 C313.591003,250.662871 311.251072,250.583602 308.674519,250.768564 Z M143.249319,78.4098668 L145.746998,78.9119081 C148.90196,64.5905201 153.976192,41.2059659 157.656981,23.4231354 L154.475727,26.3296901 C151.005269,42.8970523 146.16766,65.0925614 143.249319,78.4098668 Z M188.417866,30.7952152 C184.027209,47.5739631 177.138875,70.2715135 172.879675,85.6762537 L175.324771,86.416104 C179.794301,70.218667 187.024424,46.4113412 191.520245,28.9191662 L188.417866,30.7952152 Z M320.505629,276.319823 C313.801333,279.913382 307.254786,283.797596 300.971153,288.104581 L303.626579,289.425743 C309.831339,285.250873 316.220138,281.419505 322.766685,277.93164 C319.927219,278.645067 317.192918,279.701996 315.615437,280.573962 L320.505629,276.319823 Z M326.578931,256.845906 C313.065175,263.451712 299.604002,270.189635 287.220774,278.75076 L289.297791,280.494692 C301.418106,272.1978 314.484909,265.591994 327.683168,259.144727 L326.578931,256.845906 Z M314.695239,173.005013 C295.844338,175.19814 264.846832,179.29374 249.729303,183.125108 L250.123674,185.688161 C265.030871,181.83037 292.76825,178.183965 313.775042,175.726605 L314.695239,173.005013 Z M141.803295,18.2970297 C138.227671,36.8989802 132.601321,61.8160815 129.656689,76.0053533 L132.206951,76.4017017 C134.993834,62.8730105 140.278396,39.4356098 143.801438,21.5999328 L141.803295,18.2970297 Z M206.95327,58.7509873 L204.981419,60.944115 L204.902545,56.8749384 L204.245261,58.7245641 C201.51096,66.0966439 196.252689,80.7086874 191.283623,92.0970974 L193.623554,93.1276032 C198.645202,81.6070771 203.956056,66.9157639 206.716648,59.4379912 L206.95327,58.7509873 Z M158.656053,81.8184629 L161.153731,82.3997738 C163.966906,71.1963264 168.147232,53.9419604 171.354777,40.7303478 C171.328485,37.4802911 171.118155,34.6265828 170.776367,32.1956461 C167.989483,43.5312097 162.152803,67.8141536 158.656053,81.8184629 Z M128.49987,24.8499895 C127.185302,31.0594474 126.817223,38.8542988 124.661332,43.5840561 C124.635041,41.2323891 124.608749,38.4579505 124.188088,35.8420512 C121.532661,49.1065102 118.141076,65.2246775 116.432138,74.1293044 L118.982399,74.4463831 C121.453787,61.9481976 127.790003,32.8298035 128.89424,26.1183043 L128.552452,26.9902708 L128.49987,24.8499895 Z M103.128713,72.7288734 L105.678974,72.9666825 C107.624534,62.7673176 111.62082,42.395011 114.118499,27.254503 L111.279033,29.4212075 C108.833937,43.7161723 104.969108,63.2693588 103.128713,72.7288734 Z M255.145322,57.6147887 L255.119031,57.5883654 L253.120888,55.897279 C238.502895,68.2105019 221.650137,87.3144937 209.188035,101.820844 L211.081013,103.511931 C223.569406,89.0320033 240.632495,69.6637793 255.145322,57.6147887 Z M232.166679,43.5576329 C221.886759,59.2530286 208.320421,80.3651855 199.328778,95.796349 L201.616125,96.9589709 C210.160815,82.3469274 223.06987,62.2916995 232.745089,47.3890006 L232.166679,43.5576329 Z M275.521122,91.1722846 L275.521122,91.1722846 C259.089025,98.7821734 240.474747,109.48358 224.936556,119.682944 L226.461455,121.743956 C241.053157,112.205172 258.563198,102.03223 273.864766,94.7658432 L275.521122,91.1722846 Z M283.040449,106.101407 C267.186763,113.34137 246.521758,123.487889 231.667143,129.697347 L233.008002,131.916898 C248.940563,125.205399 270.841261,114.371876 287.851767,106.761987 L283.040449,106.101407 Z M284.276143,127.900567 L288.87713,123.540735 C281.936212,126.077365 273.628144,129.195305 269.027157,130.701429 C259.772601,133.7401 248.467318,139.791019 238.897265,143.437424 L239.94892,145.94763 C250.649501,141.9313 263.111603,135.272647 273.575562,131.943321 C275.599996,131.28274 280.069526,129.538807 284.276143,127.900567 Z M253.988503,82.8225454 C241.789314,91.0665917 226.619203,101.715151 216.339284,109.087231 L218.048222,111.016127 C230.221119,102.296462 247.941491,89.930393 262.112531,80.5501481 C259.457104,81.131459 256.670221,81.950579 253.988503,82.8225454 L253.988503,82.8225454 Z" id="Fill-1209" fill="#FFFFFE"></path>
            <path d="M486.481243,499.009901 C472.007352,506.825083 456.101692,513.372937 439.128713,518.363036 C440.820804,586.825083 459.173489,665.980198 459.173489,668.673267 C462.141157,668.30363 467.816172,665.372937 472.189578,661.914191 C476.120436,663.524752 483.982154,665.79538 487.366337,666.666667 C486.949822,662.60066 477.213788,564.435644 486.481243,499.009901" id="Fill-1210" fill="#D4CBBD"></path>
            <path d="M20.9866962,78.6444264 C78.2488046,59.5643824 191.189737,82.4973814 212.273804,104.374776 C273.25663,167.684632 232.988438,219.805084 280.618901,271.846366 C317.37748,311.985712 388.493324,300.954649 415.831363,304.807604 C447.312329,309.241142 532.994387,306.866032 565.108666,352.125058 C604.031067,442.062527 476.629473,544.350564 331.020112,527.012267 C266.474896,519.332747 201.850517,486.793751 173.298627,401.342599 C142.873184,310.375916 152.320112,222.892726 156.119994,193.731663 C112.790786,201.516743 92.2608689,203.443221 44.6304055,200.276409 C-11.5761802,196.529014 -8.99014946,88.6462753 20.9866962,78.6444264" id="Fill-1211" fill="#DCD3C5"></path>
            <path d="M93.7883761,72.762297 C96.9021979,72.8687525 105.791228,75.7962772 107.175148,76.5414653 L110.049445,81.2521188 L103.954871,83.5941386 C98.605485,83.0618614 87.9067127,79.4689901 89.769683,74.6518812 L93.7883761,72.762297" id="Fill-1212" fill="#AFA89B"></path>
            <path d="M141.339751,87.7219886 C146.955276,87.9615134 156.669335,93.1512163 155.524939,97.1699094 C154.407157,101.215216 145.438286,95.3601668 141.153454,94.1625431 L137.134761,91.2616322 L141.339751,87.7219886" id="Fill-1213" fill="#AFA89B"></path>
            <path d="M197.956135,96.4752475 C200.987969,90.5024192 204.099589,82.3793726 205.402745,71.3097307 C208.115439,48.294432 204.072994,26.1286023 197.477424,13.3069307 C179.738535,26.0489646 164.552769,42.2685118 153.010523,60.7975527 C149.340408,66.7438352 145.989433,73.141398 144.712871,79.9106035 L145.138392,80.043333 C166.414421,84.3968613 185.217112,90.2369601 197.956135,96.4752475" id="Fill-1214" fill="#DCD3C5"></path>
            <path d="M153.029703,115.888774 C148.704686,123.304052 136.804172,136.366553 126.757237,132.302664 C117.005801,128.34433 119.665283,112.115163 121.706906,104.488774 C122.378493,102.060996 126.139378,103.16933 125.494655,105.570718 C124.017164,111.00683 120.927866,126.734608 128.852587,128.924886 C136.669855,131.088775 146.340701,119.583219 149.67177,113.85683 L153.029703,115.888774" id="Fill-1215" fill="#17111C"></path>
            <path d="M109.782178,100.546261 C103.833814,107.993006 96.5923281,122.0765 84.9800876,119.437478 C72.9023229,116.720069 76.6006534,97.8549807 78.928274,89.4937225 C79.5748353,87.1159897 83.2214409,88.1872759 82.5490172,90.5650087 C80.7903705,96.8882102 76.574791,116.772327 88.1094442,115.805557 C96.7992277,115.100076 101.738956,104.596245 106.549372,98.5343329 L109.782178,100.546261" id="Fill-1216" fill="#17111C"></path>
            <path d="M50.4448382,73.1881188 C39.7510042,74.319003 29.8020144,76.2125765 21.1565018,79.0529368 C-9.06288973,89.0204973 -11.6698443,196.533393 44.9915149,200.267941 C51.6685107,200.715034 57.7868735,201.03063 63.5328141,201.267327 C70.2630131,158.425226 65.5811355,113.899949 50.4448382,73.1881188" id="Fill-1217" fill="#484846"></path>
            <path d="M27.3326296,106.992858 C30.4198375,105.183436 37.1265306,102.536819 39.3620949,108.343174 C41.5710454,114.149528 39.2556395,124.060841 36.7539365,128.219811 C34.2522335,132.351776 30.4198375,134.323236 27.9181345,132.216744 C24.6446296,129.462101 23.6333028,124.844024 23.1542533,120.550022 C22.5953622,115.553856 23.021184,109.477438 27.3326296,106.992858" id="Fill-1218" fill="#0F0F0D"></path>
            <path d="M70.9579852,181.001297 C83.1543069,186.217614 95.2971358,184.248188 101.475536,171.686445 L104.792079,173.735713 C97.9450215,187.70799 83.5555016,190.608901 69.8613861,184.727237 L70.9579852,181.001297" id="Fill-1219" fill="#17111C"></path>
            <path d="M117.113564,147.24467 C120.082179,144.947975 129.11823,139.91589 137.60743,141.799696 C146.09663,143.709308 149.247529,149.231698 150.549554,152.638032 C153.153603,159.528117 149.117327,166.263369 144.273796,167.166563 C135.315867,168.86973 125.759007,168.095564 117.842697,163.605396 C114.509514,161.747395 111.176332,158.676533 111.462777,154.908921 C111.723182,151.657421 114.535555,149.257503 117.113564,147.24467" id="Fill-1220" fill="#EFABAA"></path>
            <path d="M196.230215,38.268953 C198.382932,38.8285746 200.194364,71.2599788 190.559646,94.1778158 C189.063246,97.7487346 159.319009,85.1172756 159.686546,84.104627 C169.137495,57.5892225 194.077499,37.7093314 196.230215,38.268953" id="Fill-1221" fill="#AFA89B"></path>
            <path d="M466.337887,309.386139 C456.216671,327.961662 443.311471,380.751078 448.723329,477.386139 C459.208804,421.183272 467.664833,360.243911 492.356436,313.646337 C483.614203,311.794077 474.819934,310.418112 466.337887,309.386139" id="Fill-1222" fill="#0F0F0D"></path>
            <path d="M414.697536,305.293991 C411.212143,304.792195 407.02967,304.554502 402.310983,304.39604 C384.294179,349.584118 382.202943,471.441391 390.755563,485.70297 C399.57629,430.162042 409.389014,357.005421 429.148515,306.746559 C423.625506,306.297584 418.719145,305.848608 414.697536,305.293991" id="Fill-1223" fill="#0F0F0D"></path>
            <path d="M342.665814,301.069307 C327.43029,348.802271 325.158326,410.267722 329.889357,460.752475 C337.373474,411.564238 349.615351,346.262157 367.60396,303.318366 C359.531806,302.947932 351.112174,302.286445 342.665814,301.069307" id="Fill-1224" fill="#0F0F0D"></path>
            <path d="M288.033064,279.445545 C263.459865,336.746728 270.016272,428.069664 270.949094,439.128713 C282.276219,388.84831 292.110829,341.893541 312.712871,293.434318 C303.837735,290.029503 295.468989,285.48975 288.033064,279.445545" id="Fill-1225" fill="#0F0F0D"></path>
            <path d="M262.894168,244.514851 C250.119162,259.590203 223.140888,299.432204 216.237624,354.29703 C242.528216,296.963418 263.238009,280.33851 276.118812,266.20865 C270.299969,258.986139 266.068082,251.763627 262.894168,244.514851" id="Fill-1226" fill="#0F0F0D"></path>
            <path d="M246.178218,164.743489 C245.04888,160.345882 243.709432,155.869276 242.028557,151.366337 C224.773319,156.711931 211.825326,176.461663 206.257426,191.287129 C220.150912,182.62358 232.494841,173.591369 246.178218,164.743489" id="Fill-1227" fill="#0F0F0D"></path>
            <path d="M664.104345,516.608969 C656.824509,506.093885 646.61662,499.466511 639.095017,495.683168 C641.593264,499.544787 632.459889,506.067793 628.967717,502.54537 C628.913991,507.97251 628.833403,513.399651 628.779677,518.826791 C628.672225,528.037274 628.672225,537.66523 633.02401,545.832033 C639.766589,558.460571 654.863519,564.174723 668.697895,568.871287 C667.05926,563.078858 669.718684,557.103786 671.008102,551.233081 C673.6138,539.465579 671.008102,526.628305 664.104345,516.608969" id="Fill-1228" fill="#0F0F0D"></path>
            <path d="M638.198308,494.162886 C613.674312,463.852369 623.772428,415.943892 607.222009,381.77233 C595.261643,357.056389 572.022862,342.216317 545.584158,334.336634 C552.639725,339.222038 558.908426,344.921676 563.813225,351.855797 C565.623017,356.03203 566.96069,360.260793 568.062302,364.489557 C608.848199,394.931402 595.156728,460.359043 628.073963,501.044477 C631.326343,505.27324 641.109713,498.102728 638.198308,494.162886" id="Fill-1229" fill="#DCD3C5"></path>
            <path d="M291.089109,518.562838 C272.995427,513.120572 255.53476,505.168522 239.524752,494.019802 C240.553402,575.283935 254.163227,662.228104 254.664364,666.745713 C257.987693,666.005988 266.507022,662.413035 269.724849,660.431628 C273.681193,662.043172 280.45973,665.636125 286.341496,667.009901 C285.866734,663.733974 282.859912,587.172381 291.089109,518.562838" id="Fill-1230" fill="#DCD3C5"></path>
            <path d="M217.90099,477.349769 C198.969949,458.626738 183.211417,433.88276 172.5237,401.480561 C171.379516,397.941934 170.365354,394.429716 169.325186,390.891089 C158.14339,552.9549 181.963217,663.629404 181.651167,668.673267 C185.551793,667.722592 193.847126,663.022028 198.709907,660.803785 C201.518358,662.282614 212.3621,666.61347 216.860823,668.250745 C217.250886,664.448042 211.946033,573.447244 217.90099,477.349769" id="Fill-1231" fill="#DCD3C5"></path>
            <path d="M565.544554,414.178218 C556.977048,439.596082 537.641208,463.511023 510.916876,482.838092 L510.812075,482.996295 C508.611247,540.951135 530.016913,667.223078 531.484131,668.673267 C532.820348,668.040457 540.025438,665.561952 545.84191,662.529738 C551.52738,665.878357 555.405029,667.064875 560.304489,668.462331 C560.933297,592.81518 552.234789,524.577179 565.544554,414.178218" id="Fill-1232" fill="#DCD3C5"></path>
            <path d="M527.867254,324.356436 C516.761524,344.198216 511.79661,414.460224 514.880083,435.80198 C526.795877,412.091842 531.734661,361.01373 545.584158,334.066803 C540.122753,330.330022 534.190987,327.093233 527.867254,324.356436" id="Fill-1233" fill="#0F0F0D"></path>
            <path d="M251.168317,646.98297 C252.74635,658.586614 253.842949,665.905426 253.97668,667.129663 C257.346717,666.384475 265.985778,662.76499 269.248829,660.76895 C273.260777,662.392396 280.134581,666.011881 286.09901,667.395802 C285.965278,666.411089 285.59083,658.746297 285.350113,646.663604 C275.133019,647.595089 262.909951,647.861228 251.168317,646.98297" id="Fill-1234" fill="#AFA89B"></path>
            <path d="M179.643564,646.903129 C181.559376,659.890693 182.905622,667.44903 182.827954,668.699881 C186.711355,667.741782 194.970056,663.004515 199.811364,660.76895 C202.607413,662.259327 213.40327,666.624 217.882127,668.274059 C217.985684,667.182891 217.649122,658.879366 217.209004,645.359525 C203.668876,646.849901 191.915114,647.515248 179.643564,646.903129" id="Fill-1235" fill="#AFA89B"></path>
            <path d="M527.287129,648.353584 C529.411071,660.808871 530.95093,668.686574 531.32262,669.032554 C532.676633,668.393822 539.977686,665.892119 545.871626,662.831525 C551.632821,666.211485 555.562115,667.409109 560.52683,668.819644 C560.579929,661.953267 560.55338,655.166733 560.473732,648.380198 C550.146061,649.178614 538.35818,649.817347 527.287129,648.353584" id="Fill-1236" fill="#AFA89B"></path>
            <path d="M455.762376,649.005624 C457.973882,660.689109 459.516793,668.034535 459.516793,668.83295 C462.448324,668.460356 468.054234,665.506218 472.374385,662.019802 C476.257377,663.643248 484.023363,665.93204 487.366337,666.810297 C487.263476,665.79897 486.620596,659.092277 485.823426,648.553188 C475.87165,649.165307 465.457,649.431446 455.762376,649.005624" id="Fill-1237" fill="#9C9588"></path>
            <path d="M252.831683,212.23269 C251.914017,205.876215 251.153665,199.439951 250.340875,192.950495 C220.63471,213.323131 201.494815,256.435459 196.277228,272.792079 C214.158609,251.701348 233.062532,231.488288 252.831683,212.23269" id="Fill-1238" fill="#0F0F0D"></path>
        </g>
    </g>
</svg>