<?xml version="1.0" encoding="UTF-8"?>
<svg width="720px" height="720px" viewBox="0 0 720 720" version="1.1" xmlns="http://www.w3.org/2000/svg" xmlns:xlink="http://www.w3.org/1999/xlink">
    <!-- Generator: Sketch 64 (93537) - https://sketch.com -->
    <title>img_y</title>
    <desc>Created with Sketch.</desc>
    <g id="img_y" stroke="none" stroke-width="1" fill="none" fill-rule="evenodd">
        <g id="yak" transform="translate(10.000000, 85.000000)">
            <path d="M246.530674,457.231505 C238.868231,458.965301 236.250029,444.999925 233.103383,438.230992 C232.550919,445.759945 229.836636,459.559067 223.279122,459.796574 C216.745629,460.01033 214.103407,445.878698 213.190639,436.188437 C213.334761,442.031094 212.06169,447.897503 209.923892,452.528878 C209.68369,484.520991 207.858155,520.313207 207.858155,520.313207 C207.858155,520.313207 206.489004,532.188527 206.945388,544.111349 C212.710235,542.472555 218.931467,540.382498 224.408072,538.007434 C227.674819,541.047516 231.878353,543.090071 236.34611,543.77884 C237.427019,542.971318 238.72411,526.440872 238.628029,523.804551 C241.030049,509.649169 244.82524,485.399765 247.32334,456.922746 L246.530674,457.231505" id="Fill-1249" fill="#B5876B"></path>
            <path d="M238.329764,523.2879 C233.662469,523.09642 217.184058,522.210825 207.849467,520.12848 C207.849467,520.12848 206.492142,532.095979 206.944583,544.111349 C212.659639,542.459834 218.827137,540.353554 224.25644,537.960054 C227.494971,541.023734 231.662199,543.082144 236.091368,543.776259 L238.329764,523.2879" id="Fill-1250" fill="#5A4038"></path>
            <path d="M324.584201,468.693055 L323.704901,468.905847 C316.527908,469.378717 310.562925,455.689122 310.515395,446.680942 C307.402196,456.185635 304.88312,468.551194 297.896247,467.960106 C290.885608,467.369018 291.503495,456.35114 290.861844,450.865844 C290.457841,452.804613 290.053838,455.287182 289.293362,457.509672 C291.384671,494.4172 297.872482,531.27744 297.824952,531.27744 L300.724267,548.608137 C303.694876,547.780614 311.133282,544.706957 313.866242,543.430207 L325.962564,547.378674 C327.364691,541.656944 326.556686,534.469315 326.319037,529.05495 C326.271507,529.05495 324.203963,502.432351 324.584201,468.693055" id="Fill-1251" fill="#B5876B"></path>
            <path d="M326.326181,528.198715 C318.304946,529.733619 306.4251,530.884797 298.286938,530.453105 L301.139972,548.032548 C304.063162,547.193148 311.382831,544.075375 314.072167,542.7803 L325.975398,546.785439 C327.355144,540.981585 326.560036,533.690792 326.326181,528.198715" id="Fill-1252" fill="#5A4038"></path>
            <path d="M532.116974,476.659529 C531.459905,481.275085 528.291898,495.263044 521.298816,495.969507 C514.892402,496.605323 512.287596,487.115175 510.644925,479.720867 C508.04012,486.573554 505.059846,489.799733 502.126506,490.364903 C501.492905,503.928985 500.765437,515.938849 500.202235,524.345754 C499.193166,529.33809 499.075833,544.173804 499.1697,544.338646 L514.775068,539.110822 L528.761233,545.610278 C529.1367,545.58673 530.732437,532.893952 530.967104,525.735131 C532.116974,514.643668 533.032176,501.786049 533.618844,488.551649 C532.703642,484.030289 532.422041,479.226343 532.116974,476.659529" id="Fill-1253" fill="#B5876B"></path>
            <path d="M530.620985,525.668522 C517.901039,527.467238 500.213815,524.253533 500.213815,524.253533 C499.192506,529.24197 499.076448,544.519058 499.169294,544.686938 L514.604995,539.362741 L528.439096,545.982013 C528.810482,545.95803 530.412081,532.959315 530.620985,525.668522" id="Fill-1254" fill="#5A4038"></path>
            <path d="M613.062099,482.39272 L608.468951,484.077168 C600.436831,484.931254 595.608137,468.110498 595.089936,457.173448 C594.783726,470.198264 588.91863,490.672612 581.687366,489.676178 L580.085653,488.988164 C580.88651,510.506396 582.723769,528.774354 582.700214,528.774354 C582.700214,528.774354 582.93576,543.38872 585.456103,548.608137 C588.965739,547.540529 595.4197,544.693575 599.423983,542.344837 C603.993576,544.693575 609.38758,546.117052 611.507495,546.710167 C612.944325,540.209621 612.143469,527.4695 612.025696,527.255978 C612.002141,527.255978 611.531049,508.133934 613.062099,482.39272" id="Fill-1255" fill="#B5876B"></path>
            <path d="M612.730053,527.32334 C605.610121,527.922912 592.227505,529.697645 583.083512,528.858244 C583.083512,528.858244 583.321637,543.631692 585.869572,548.907923 C589.417632,547.828694 595.942253,544.950749 599.990375,542.576445 C604.609996,544.950749 610.063055,546.389722 612.206178,546.989293 C613.65874,540.417987 612.849115,527.539186 612.730053,527.32334" id="Fill-1256" fill="#5A4038"></path>
            <path d="M614.84253,158.305561 C564.920858,116.657742 519.060368,119.793802 458.190127,111.739831 C347.564461,97.0811295 344.049519,13.3340898 208.415517,32.9344608 C116.385792,46.238955 119.900734,155.050712 122.228196,260.58386 C124.745654,373.9334 133.889252,356.85138 139.660407,344.44969 C139.114166,371.842694 141.536626,403.322077 146.452794,407.123361 C151.653958,411.162226 157.282615,406.814507 157.710107,396.55104 C156.403879,427.246409 167.20995,431.831708 171.318632,413.989431 C171.081136,445.017412 174.833574,446.490409 179.132252,447.868375 C183.430931,449.24634 187.682111,442.380271 188.537096,435.062799 C190.793309,445.682637 192.503281,461.410449 200.198153,462.075674 C207.893026,462.740899 213.925426,449.650227 213.64043,436.987199 C214.542915,446.680474 217.155372,460.816499 223.615265,460.602677 C230.098908,460.365096 232.782613,446.561684 233.328854,439.03039 C236.440052,445.801427 239.02876,459.771146 246.604884,458.03681 C254.893497,456.159926 259.025928,433.043367 260.189659,416.864152 C260.284657,445.112444 267.813282,448.676148 275.341908,433.233431 C275.721901,442.118933 275.983147,462.384529 282.775534,463.073511 C289.567922,463.738736 290.446657,455.613491 291.420391,450.81437 C292.061631,456.326232 291.444141,467.397472 298.450275,467.991423 C305.432659,468.585373 307.950117,456.159926 311.061316,446.6092 C311.108815,455.661007 317.069966,469.416904 324.242347,468.941744 C331.438478,468.466583 339.347097,447.654553 340.107084,431.285273 C340.012086,445.15996 344.097018,457.229037 353.121868,457.751714 C362.146719,458.250632 366.32665,450.93316 369.152853,423.706463 C369.485347,450.149145 382.048889,438.05631 382.048889,425.013155 C384.067606,444.874864 387.820043,450.220419 390.4325,450.386726 C396.251154,450.81437 400.953576,438.864083 402.853544,427.008829 C403.827278,434.801461 408.695947,447.844617 414.324604,447.868375 C419.97701,447.892133 424.513185,434.730187 424.513185,422.566078 C424.014443,433.708592 429.809347,452.097303 435.580502,451.788449 C441.375406,451.455837 444.059111,443.829511 446.172826,434.825219 C448.547787,443.829511 449.759017,454.259284 457.477639,455.138331 C465.172511,456.017378 467.903716,437.81873 468.829951,433.090883 C468.758702,457.656681 477.831051,485.334781 487.449642,458.250632 C489.587107,485.334781 502.64939,502.393043 511.484244,479.228969 C513.146716,486.688989 515.782922,496.263473 522.266565,495.622006 C529.343948,494.909265 532.550144,480.796998 533.215133,476.140425 C533.880122,481.913625 534.450113,498.686791 542.358732,499.138194 C550.243601,499.565838 554.376033,473.883413 556.204752,461.695546 C560.028439,485.287265 570.620763,480.559418 568.340801,447.393214 C568.103305,461.362933 575.489433,489.730016 582.780562,490.727853 C590.071691,491.72569 595.985343,471.222514 596.294088,458.179358 C596.816579,469.131808 601.685248,485.976248 609.783864,485.120959 C621.088677,483.933058 623.677384,465.97199 626.598586,453.831639 C627.168576,456.159926 631.063512,463.596188 636.715918,463.738736 C641.537088,463.881284 643.864549,448.082197 643.152061,435.466686 C643.674552,437.486118 648.590721,449.555195 652.105663,424.609268 C658.9218,376.166654 670.654105,204.847533 614.84253,158.305561" id="Fill-1257" fill="#79574F"></path>
            <path d="M333.154376,227.71789 C334.223079,239.676241 334.555564,251.610817 334.104334,263.616716 L336.954208,263.616716 C337.381689,251.610817 337.072953,239.676241 335.980501,227.71789 L333.154376,227.71789 Z M325.578461,429.488309 C326.005943,433.268384 326.433424,437.048459 326.860905,440.852308 L329.68703,440.852308 C329.283298,437.048459 328.855816,433.268384 328.428335,429.488309 L325.578461,429.488309 Z M221.344324,417.36354 C222.34178,425.304075 222.650516,433.24461 222.246784,441.232693 L225.096658,441.232693 C225.476641,433.24461 225.191654,425.304075 224.194198,417.36354 L221.344324,417.36354 Z M326.932152,295.711692 C329.259549,309.643289 330.067013,323.598661 329.544536,337.72045 L332.39441,337.72045 C332.940636,323.36092 332.038176,309.12026 329.68703,294.950922 L326.932152,295.711692 Z M327.407131,155.75382 C328.499582,170.588832 329.592034,185.447617 330.708234,200.282629 L333.534359,200.282629 C332.441908,185.447617 331.349456,170.588832 330.257004,155.75382 L327.407131,155.75382 Z M312.421544,416.531448 C312.445293,403.289299 311.661577,390.118471 310.070398,376.971418 L307.244273,376.971418 C308.811703,390.118471 309.595419,403.289299 309.57167,416.531448 L312.421544,416.531448 Z M296.129765,368.365209 C297.174718,381.32207 298.457162,394.231383 300.024592,407.140696 L302.874466,407.140696 C301.307035,394.231383 300.024592,381.32207 298.979638,368.365209 L296.129765,368.365209 Z M313.656489,290.624044 C314.701443,310.689348 316.601359,330.635781 316.506363,350.748633 L319.356237,350.748633 C319.427484,330.635781 317.551317,310.689348 316.506363,290.624044 L313.656489,290.624044 Z M330.80323,131.337864 L333.558108,130.577094 C329.140804,118.4761 324.129776,106.684167 318.453777,95.1299759 L315.983886,96.5564193 C321.564889,107.896644 326.480922,119.47461 330.80323,131.337864 Z M317.123836,233.899145 C319.166245,243.408767 319.712471,252.942164 318.810011,262.618205 L321.636136,262.618205 C322.586094,252.68065 321.968621,242.885738 319.854965,233.138375 L317.123836,233.899145 Z M353.792213,81.7927301 L356.167108,80.2236424 C353.744715,75.3737348 350.657352,71.0468565 346.928767,67.1241372 L345.028851,69.2638023 C348.591193,72.9963292 351.488565,77.1805631 353.792213,81.7927301 Z M323.34606,75.4212829 L325.792202,73.9710655 C323.013575,68.5030324 319.73622,63.724447 315.413911,59.3500206 L313.395251,61.3470414 C317.551317,65.5788235 320.662429,70.1434424 323.34606,75.4212829 Z M296.580995,72.925007 L298.979638,71.3796933 C295.77353,64.984472 291.831205,59.088506 287.176411,53.620473 L285.252746,55.736364 C289.741297,60.9904305 293.493631,66.7675263 296.580995,72.925007 Z M310.521628,72.5921702 L312.991518,71.1419527 C310.735368,66.2920452 308.051737,62.3217777 303.990667,58.8032173 L301.972006,60.8240121 C305.866834,64.1999282 308.384222,67.9562291 310.521628,72.5921702 Z M559.196874,145.126817 L561.666764,143.700374 C558.674397,138.042148 554.043352,133.525077 549.079821,129.602358 L547.061161,131.599379 C551.858448,135.379454 556.323251,139.682558 559.196874,145.126817 Z M252.3842,80.1760943 L255.044083,79.2013579 C249.581824,66.8388485 242.148403,54.904272 234.976221,43.4689507 L232.648824,45.1093607 C239.678513,56.3069414 247.016938,68.0513254 252.3842,80.1760943 Z M232.553828,65.5312754 C228.967737,58.3039621 224.906666,51.3857116 220.29937,44.7527498 L217.971973,46.3693857 C222.413027,52.788381 226.40285,59.492665 229.870197,66.5060117 L232.553828,65.5312754 Z M339.542844,80.4138348 L341.941487,78.8922952 C338.901622,72.5683961 334.864301,66.9101706 329.877021,61.9889409 L327.929607,64.0572838 C332.750644,68.8358692 336.597974,74.3039023 339.542844,80.4138348 Z M278.793032,67.6709405 L281.191676,66.1494008 C278.199308,59.8017277 274.185736,54.1435022 269.245954,49.1747244 L267.29854,51.2430673 C272.072079,56.0454267 275.89566,61.5372338 278.793032,67.6709405 Z M267.274791,71.8314004 L269.602188,70.2147645 C264.567411,60.75269 258.060199,52.4079961 250.151799,45.1806828 L248.299381,47.344122 C256.041539,54.4050168 262.358759,62.5832923 267.274791,71.8314004 Z M585.795697,194.671951 L588.526826,193.911181 C584.062023,181.168287 577.554811,168.686907 571.308838,156.728557 L568.838947,158.155 C574.989925,169.899384 581.402141,182.166797 585.795697,194.671951 Z M567.176521,178.529367 C564.160404,171.040539 560.64556,163.813226 556.584489,156.847427 L554.114599,158.297645 C558.056924,165.049477 561.500522,172.039049 564.421642,179.290137 L567.176521,178.529367 Z M560.811802,326.094937 C557.961928,310.451607 556.774481,294.713182 556.845728,278.832112 L553.995854,278.832112 C553.924607,294.950922 555.183301,310.974637 558.056924,326.855706 L560.811802,326.094937 Z M614.674419,415.105005 C612.869499,399.580546 612.347022,384.079861 613.130737,368.48408 L610.280863,368.48408 C609.497148,384.079861 610.019625,399.580546 611.848294,415.105005 L614.674419,415.105005 Z M614.86441,182.499634 L617.310552,181.073191 C614.508176,174.630421 610.660846,168.853326 605.863559,163.718129 L603.868647,165.738924 C608.499692,170.683928 612.15703,176.294605 614.86441,182.499634 Z M568.696453,278.427953 C571.902561,302.273332 573.754979,326.190033 574.372452,350.249378 L577.222326,350.249378 C576.604853,326.190033 574.752435,302.273332 571.546327,278.427953 L568.696453,278.427953 Z M579.217238,261.595921 C578.148535,246.594491 575.037423,232.068542 569.717658,217.970527 L566.96278,218.731297 C572.211298,232.591572 575.32241,246.808458 576.367364,261.595921 L579.217238,261.595921 Z M552.665913,218.469782 C556.631987,232.567798 559.434363,246.832232 561.073041,261.381954 L563.922915,261.381954 C562.260488,246.594491 559.434363,232.044768 555.420791,217.709012 L552.665913,218.469782 Z M286.012712,408.590913 C285.680227,398.296747 285.371491,388.026354 285.062754,377.755962 L282.21288,377.755962 C282.521617,388.026354 282.854102,398.296747 283.162838,408.590913 L286.012712,408.590913 Z M241.10345,229.691137 C241.76842,244.811437 242.45714,259.955511 243.12211,275.099585 L245.971984,275.099585 C245.307014,259.955511 244.618294,244.811437 243.953323,229.691137 L241.10345,229.691137 Z M254.925338,369.268624 C254.87784,382.106614 255.661555,394.897057 257.300233,407.639951 L260.150107,407.639951 C258.511429,394.897057 257.727714,382.106614 257.775212,369.268624 L254.925338,369.268624 Z M257.537722,232.567798 C260.055111,248.448867 260.720081,264.329937 259.580132,280.4012 L262.430006,280.4012 C263.593704,264.092197 262.833738,247.949612 260.268851,231.807028 L257.537722,232.567798 Z M268.604733,337.934417 C269.720933,327.069673 269.507193,316.276251 267.963511,305.459055 L265.208633,306.219825 C266.728566,316.775506 266.84731,327.354962 265.754859,337.934417 L268.604733,337.934417 Z M225.619135,358.736716 C227.186565,376.543485 228.041528,394.374027 228.20777,412.228344 L231.033895,412.228344 C230.891401,394.374027 230.036439,376.543485 228.469009,358.736716 L225.619135,358.736716 Z M281.642906,131.43296 C276.251894,116.859464 270.860883,102.309741 265.469871,87.7600184 L262.738742,88.4970141 C268.129754,103.070511 273.520765,117.620234 278.911776,132.19373 L281.642906,131.43296 Z M240.485977,420.882101 C240.533475,425.993523 240.604722,431.081171 240.652219,436.192593 L243.502093,436.192593 C243.454595,431.081171 243.383349,425.993523 243.335851,420.882101 L240.485977,420.882101 Z M240.177241,373.571728 C240.628471,382.368129 241.079701,391.140756 241.507182,399.913383 L244.357056,399.913383 C243.929574,391.140756 243.478344,382.368129 243.027114,373.571728 L240.177241,373.571728 Z M231.247636,307.194562 C232.363836,318.843849 233.028807,330.493137 233.266296,342.189973 L236.11617,342.189973 C235.878681,330.493137 235.21371,318.843849 234.09751,307.194562 L231.247636,307.194562 Z M581.520886,218.51733 C585.201973,230.11907 587.695613,241.911002 588.978056,254.011997 L591.804181,254.011997 C590.521738,241.649487 588.028098,229.596041 584.252015,217.75656 L581.520886,218.51733 Z M282.711608,189.79827 C283.875307,180.193551 283.305332,170.707702 281.049182,161.31695 L278.318053,162.07772 C280.502956,171.254505 281.001684,180.431291 279.861734,189.79827 L282.711608,189.79827 Z M296.604744,134.357169 C291.142485,122.969396 287.271407,111.129916 284.825265,98.7674066 L282.070387,99.5044024 C284.564026,112.128426 288.601348,124.205647 294.134853,135.783613 L296.604744,134.357169 Z M287.603892,347.539136 C286.606436,332.109773 286.107708,316.68041 284.469031,301.298596 L281.642906,301.298596 C283.257834,316.68041 283.780311,332.109773 284.777767,347.539136 L287.603892,347.539136 Z M283.11534,419.550753 C285.134001,426.849389 285.822721,436.026175 284.967758,443.562551 L287.793883,443.562551 C288.696344,435.76466 287.960126,426.373908 285.870219,418.789984 L283.11534,419.550753 Z M313.252757,163.385293 C314.131468,172.728497 315.033928,182.071701 315.912639,191.414906 L318.762513,191.414906 C317.883802,182.071701 316.981342,172.728497 316.078882,163.385293 L313.252757,163.385293 Z M312.872774,133.881688 L315.603903,133.120919 C310.569126,121.019924 306.033076,108.681188 299.454617,97.3171891 L297.008476,98.7436325 C303.46819,109.917439 307.909243,121.99466 312.872774,133.881688 Z M311.614079,429.369439 C312.231552,433.197062 312.469042,437.000911 312.326548,440.852308 L315.176422,440.852308 C315.318915,436.739396 315.033928,432.674033 314.345209,428.608669 L311.614079,429.369439 Z M297.245965,301.298596 C298.243421,309.072712 299.217128,316.823055 300.214584,324.597171 L303.064458,324.597171 C302.067002,316.823055 301.093295,309.072712 300.095839,301.298596 L297.245965,301.298596 Z M308.930448,269.774196 C310.212891,256.294306 309.642917,242.980834 307.291771,229.643589 L304.536893,230.404358 C306.86429,243.503864 307.339269,256.555821 306.080574,269.774196 L308.930448,269.774196 Z M294.039857,158.27387 C296.699739,172.39566 296.794735,186.39858 297.720944,200.663014 L300.570818,200.663014 C299.644609,186.160839 299.478366,171.872631 296.794735,157.536875 L294.039857,158.27387 Z M329.045808,419.099046 C329.283298,403.384395 328.380837,387.76484 326.314679,372.192833 L323.464805,372.192833 C325.530964,387.76484 326.457173,403.384395 326.195934,419.099046 L329.045808,419.099046 Z M584.5845,429.274343 C583.492049,410.825675 582.399597,392.377007 581.307145,373.928339 L578.457271,373.928339 C579.549723,392.377007 580.642175,410.825675 581.734626,429.274343 L584.5845,429.274343 Z M585.510709,281.233292 C588.455579,300.918211 589.78552,320.650678 589.738022,340.549563 L592.587896,340.549563 C592.635394,320.389163 591.234206,300.395181 588.265587,280.472522 L585.510709,281.233292 Z M542.287622,225.102744 C545.849964,236.062584 547.726131,247.236391 547.916123,258.743034 L550.765997,258.743034 C550.552256,246.974876 548.676089,235.539555 545.0425,224.341974 L542.287622,225.102744 Z M598.643878,436.382786 C599.617585,444.347095 599.926321,452.28763 599.522589,460.299487 L602.372463,460.299487 C602.776195,452.28763 602.467459,444.347095 601.493752,436.382786 L598.643878,436.382786 Z M531.386854,332.68035 C531.434352,321.078611 530.318152,309.643289 528.109499,298.255516 L525.354621,299.016286 C527.539525,310.142545 528.584478,321.340125 528.53698,332.68035 L531.386854,332.68035 Z M512.05521,369.221075 C514.097619,388.073902 514.430105,407.259566 518.443677,425.827104 L521.198555,425.066335 C517.232481,406.760311 516.899995,387.812388 514.905084,369.221075 L512.05521,369.221075 Z M540.74394,142.963378 L543.213831,141.513161 C541.076426,136.544383 538.226552,132.051086 534.735456,127.9144 L532.716795,129.935195 C536.065397,133.857914 538.72528,138.208567 540.74394,142.963378 Z M549.958532,185.304973 C547.29865,177.102923 544.045044,169.162388 540.055221,161.507142 L537.609079,162.95736 C541.480158,170.374865 544.638768,178.101434 547.203654,186.065743 L549.958532,185.304973 Z M611.94329,333.655087 C610.542102,315.301515 608.024713,297.16191 604.224881,279.164949 L601.470003,279.925719 C605.222337,297.661165 607.715977,315.56303 609.093416,333.655087 L611.94329,333.655087 Z M625.290199,329.375756 C624.625228,315.111322 623.485279,300.894437 621.894099,286.725099 L619.044225,286.725099 C620.635405,300.894437 621.775355,315.111322 622.440325,329.375756 L625.290199,329.375756 Z M632.224892,288.888538 C634.742281,302.653717 636.428456,316.513992 637.307167,330.493137 L640.157041,330.493137 C639.254581,316.252477 637.520908,302.154462 634.956021,288.127768 L632.224892,288.888538 Z M647.922948,281.423484 L645.073074,281.423484 C648.041692,304.056386 647.352973,327.188543 647.709207,349.96409 L650.535332,349.96409 C650.202847,327.188543 650.891566,304.056386 647.922948,281.423484 Z M633.839821,260.407218 C632.913612,246.87978 630.989947,233.542534 628.045077,220.300384 L625.290199,221.061154 C628.187571,234.041789 630.087487,247.141294 630.989947,260.407218 L633.839821,260.407218 Z M647.376722,265.423544 C645.904287,248.044709 643.12566,230.927388 639.088338,213.976485 L636.33346,214.737255 C640.323284,231.426643 643.078162,248.306223 644.550597,265.423544 L647.376722,265.423544 Z M611.777047,431.461556 C612.299524,438.04697 612.062034,444.561061 610.993332,451.098927 L613.74821,451.859696 C614.840661,445.08409 615.149398,438.308484 614.626921,431.461556 L611.777047,431.461556 Z M621.490367,250.683629 C620.51666,241.625713 618.94923,232.710442 616.740577,223.890267 L613.985699,224.651037 C616.146854,233.233471 617.690535,241.887228 618.640493,250.683629 L621.490367,250.683629 Z M624.981463,419.455657 C625.05271,427.467514 624.838969,435.455597 623.91276,443.396132 L626.762634,443.396132 C627.688843,435.455597 627.902583,427.467514 627.831337,419.455657 L624.981463,419.455657 Z M625.71768,365.298356 C626.121412,376.614807 626.548893,387.931258 626.952625,399.247709 L629.802499,399.247709 C629.375018,387.931258 628.971286,376.614807 628.567554,365.298356 L625.71768,365.298356 Z M512.791427,441.660626 C513.480147,451.146475 514.168866,460.656097 514.857586,470.141946 L517.70746,470.141946 C517.01874,460.656097 516.330021,451.146475 515.641301,441.660626 L512.791427,441.660626 Z M499.444518,301.940495 C500.133237,311.426344 500.821957,320.935966 501.510676,330.421815 L504.36055,330.421815 C503.671831,320.935966 502.983111,311.426344 502.294392,301.940495 L499.444518,301.940495 Z M521.364798,139.325947 L523.834688,137.87573 C521.056061,132.407697 517.778706,127.652885 513.456398,123.254685 L511.437737,125.27548 C515.593803,129.483488 518.704915,134.048107 521.364798,139.325947 Z M478.212957,192.31832 L481.062831,192.31832 C479.804137,182.166797 477.02551,172.538304 472.655703,163.290196 L470.185812,164.71664 C474.341879,173.489267 477.02551,182.689827 478.212957,192.31832 Z M519.441133,258.220005 C519.298639,243.099705 518.134941,228.050727 515.950037,213.073071 L513.218908,213.833841 C515.356314,228.573756 516.448765,243.337445 516.591259,258.220005 L519.441133,258.220005 Z M486.121357,140.823713 L488.591248,139.397269 C485.646378,132.83563 481.965291,126.797019 477.571736,121.138794 L475.553075,123.135815 C479.804137,128.603848 483.295232,134.523588 486.121357,140.823713 Z M516.923744,325.809648 C517.374974,317.108343 516.947493,308.502135 515.641301,299.895926 L512.910172,300.656696 C514.145117,309.00139 514.5251,317.369858 514.07387,325.809648 L516.923744,325.809648 Z M513.028917,183.926078 C512.05521,177.43576 510.654022,171.040539 508.801604,164.740414 L506.070475,165.501184 C507.899144,171.801309 509.324081,178.19653 510.274039,184.686847 L513.028917,183.926078 Z M598.097652,216.425213 C600.686288,229.905103 602.847442,243.432542 604.557366,257.055076 L607.40724,257.055076 C605.673567,243.171027 603.488664,229.382074 600.85253,215.664443 L598.097652,216.425213 Z M535.162937,262.570657 C535.756661,246.261654 533.97549,230.333036 529.795675,214.570837 L527.040797,215.331607 C531.173114,230.832291 532.906787,246.546943 532.313063,262.570657 L535.162937,262.570657 Z M535.09169,193.174186 C531.26811,181.120739 526.922052,169.281259 522.077266,157.608197 L519.346137,158.368967 C524.190923,170.018254 528.513231,181.881509 532.336812,193.934956 L535.09169,193.174186 Z M487.855031,157.513101 C492.486076,166.998949 495.430945,176.984053 496.665891,187.468412 L499.515765,187.468412 C498.233321,176.461024 495.169707,166.024213 490.301172,156.062883 L487.855031,157.513101 Z M491.749858,333.773957 C491.417373,322.505054 489.849942,311.426344 487.047566,300.490278 L484.316437,301.251047 C487.047566,311.925599 488.567499,322.742795 488.899984,333.773957 L491.749858,333.773957 Z M487.403801,367.865954 C487.213809,388.050128 487.855031,408.139206 491.084888,428.08564 L493.839766,427.32487 C490.633658,407.616177 490.063683,387.788614 490.253674,367.865954 L487.403801,367.865954 Z M496.167163,449.957772 C496.024669,455.663546 496.404652,461.297997 497.283363,466.932448 L500.014493,466.171679 C499.207028,460.798742 498.874543,455.402031 499.017037,449.957772 L496.167163,449.957772 Z M500.893204,137.542893 L503.363094,136.092676 C501.106944,131.266542 498.423313,127.272501 494.362243,123.75394 L492.343582,125.774735 C496.23841,129.150651 498.755798,132.906952 500.893204,137.542893 Z M496.879631,272.912372 C494.267247,253.869352 492.129841,234.802559 490.491164,215.688217 L487.64129,215.688217 C489.303717,235.064074 491.48862,254.392382 494.148502,273.649368 L496.879631,272.912372 Z M601.30376,187.539734 L603.749902,186.089517 C599.475091,176.270831 593.609101,167.426882 586.294425,159.628992 L584.275764,161.626012 C591.447947,169.281259 597.100196,177.935015 601.30376,187.539734 Z M502.223145,224.508392 C503.434341,236.110132 504.218057,247.711872 504.526793,259.384934 L507.376667,259.384934 C507.06793,247.711872 506.284215,236.110132 505.073019,224.508392 L502.223145,224.508392 Z M474.698113,217.661464 C477.642982,234.826333 478.426698,251.991202 478.236706,269.370037 L481.08658,269.370037 C481.252823,251.729687 480.42161,234.303304 477.452991,216.900694 L474.698113,217.661464 Z M470.375804,138.089696 C467.620926,132.550341 464.866048,127.03476 462.11117,121.495405 L459.665028,122.921848 C462.419906,128.461203 465.151035,134.000559 467.905913,139.539914 L470.375804,138.089696 Z M470.162064,369.054657 C470.732038,380.038271 471.82449,390.950563 473.439419,401.839081 L476.170548,401.078311 C474.603117,390.451308 473.558163,379.776757 473.011937,369.054657 L470.162064,369.054657 Z M396.445326,289.506663 C398.226497,303.889968 399.033961,318.297046 398.962714,332.775447 L401.812588,332.775447 C401.883835,318.297046 401.076371,303.889968 399.295199,289.506663 L396.445326,289.506663 Z M345.456332,292.074262 C347.356248,309.857256 347.736231,327.64025 346.691277,345.470793 L349.517402,345.470793 C350.562356,327.64025 350.206122,309.857256 348.306206,292.074262 L345.456332,292.074262 Z M341.585253,373.809468 C342.012734,386.2433 342.416466,398.677132 342.843947,411.110963 L345.670072,411.110963 C345.26634,398.677132 344.862608,386.2433 344.435127,373.809468 L341.585253,373.809468 Z M357.117066,129.697454 C352.866004,119.213095 348.638691,108.704962 344.387629,98.2206033 L341.632751,98.9575991 C345.883813,109.465732 350.134875,119.973865 354.385937,130.458224 L357.117066,129.697454 Z M346.145051,189.108822 C346.002558,179.123718 344.720114,169.328807 342.178977,159.67654 L339.447848,160.43731 C341.917738,169.851836 343.176433,179.385233 343.295177,189.108822 L346.145051,189.108822 Z M346.453788,231.925898 C347.878725,240.175496 348.401202,248.448867 348.092465,256.817335 L350.942339,256.817335 C351.274824,248.187353 350.681101,239.676241 349.208666,231.165128 L346.453788,231.925898 Z M352.72351,156.847427 C353.982205,173.9172 355.264648,191.010747 356.523342,208.104293 L359.373216,208.104293 C358.090773,191.010747 356.832078,173.9172 355.549635,156.847427 L352.72351,156.847427 Z M388.679419,228.668852 C389.154398,238.368667 389.629377,248.092257 390.104356,257.815846 L392.95423,257.815846 C392.479251,248.092257 392.004272,238.368667 391.529293,228.668852 L388.679419,228.668852 Z M355.145903,373.167569 C355.43089,381.726229 355.715878,390.28489 355.977116,398.84355 L358.82699,398.84355 C358.542003,390.28489 358.280764,381.726229 357.995777,373.167569 L355.145903,373.167569 Z M380.652274,337.530258 C382.55219,369.910523 381.697228,402.12437 378.681112,434.361991 C380.011053,431.72307 380.913513,428.32338 380.913513,424.828594 C381.174751,427.32487 381.459739,429.583405 381.744726,431.651748 C384.570851,400.317542 385.354566,369.007109 383.502148,337.530258 L380.652274,337.530258 Z M365.880428,256.817335 C364.835474,248.734156 363.766772,240.674751 362.721818,232.591572 L359.871944,232.591572 C360.916898,240.674751 361.9856,248.734156 363.054303,256.817335 L365.880428,256.817335 Z M382.409697,315.182645 C382.480943,303.937516 381.839722,292.763709 380.462283,281.589903 L377.612409,281.589903 C378.989848,292.763709 379.63107,303.937516 379.583572,315.182645 L382.409697,315.182645 Z M379.322333,267.896046 C380.509781,251.587043 379.749814,235.444458 377.184928,219.301874 L374.43005,220.062644 C376.971187,235.943714 377.636158,251.824784 376.496208,267.896046 L379.322333,267.896046 Z M390.151854,208.936385 C389.700624,191.55755 388.133193,174.273811 385.354566,157.108942 L382.623437,157.869712 C385.354566,174.79684 386.85075,191.79529 387.30198,208.936385 L390.151854,208.936385 Z M396.302832,131.765797 L399.05771,131.005027 C397.300288,124.063003 394.735401,117.430041 391.386799,111.106142 L388.940658,112.532585 C392.170515,118.666292 394.616656,125.061513 396.302832,131.765797 Z M410.884687,372.88228 C412.119632,381.226974 412.570862,389.52412 412.38087,397.96391 L415.230744,397.96391 C415.420736,389.262605 414.898259,380.727719 413.639565,372.12151 L410.884687,372.88228 Z M372.482636,108.134385 C376.306217,116.407757 379.346082,124.918869 381.64973,133.739044 L384.452106,133.216015 C382.10096,124.181873 378.989848,115.409246 375.071271,106.898134 L372.482636,108.134385 Z M370.535222,126.749471 C366.782888,118.143263 363.006805,109.537054 359.254471,100.907072 L356.784581,102.357289 C360.560663,110.963498 364.312997,119.569706 368.08908,128.199689 L370.535222,126.749471 Z M375.831238,210.053766 C374.406301,191.082069 371.93641,172.27679 368.207825,153.614155 L365.452947,154.374925 C369.134034,172.776045 371.580176,191.343583 372.981364,210.053766 L375.831238,210.053766 Z M362.294337,283.563149 C370.226486,331.848258 369.181532,384.650438 366.782888,433.529899 C367.234118,430.534368 367.63785,427.229774 368.017833,423.521021 C368.08908,428.893958 368.682804,432.626485 369.561515,435.122761 C372.031406,385.530078 373.100109,331.895806 365.025466,282.802379 L362.294337,283.563149 Z M444.631943,299.895926 C446.816847,311.022185 447.8618,322.195991 447.814302,333.55999 L450.664176,333.55999 C450.711674,321.958251 449.595474,310.499155 447.386821,299.135156 L444.631943,299.895926 Z M542.192626,287.153032 C544.116291,346.80214 545.256241,407.425985 554.280841,466.575838 L555.064557,461.535738 C555.800774,466.219227 556.845728,469.714013 557.985677,472.162741 C548.082366,411.301156 547.013663,348.68029 545.0425,287.153032 L542.192626,287.153032 Z M537.917815,445.369379 C537.870317,452.097437 538.392794,458.730399 539.485246,465.339587 L542.240124,464.578817 C541.19517,458.20737 540.720191,451.835922 540.767689,445.369379 L537.917815,445.369379 Z M529.035708,367.319151 C529.320696,385.007049 531.03062,402.504755 534.165481,419.907364 L536.920359,419.146594 C533.809247,401.981726 532.146821,384.745534 531.885582,367.319151 L529.035708,367.319151 Z M526.257081,443.20594 C527.515776,451.574408 527.87201,459.942876 527.444529,468.358892 L530.270654,468.358892 C530.745633,459.681361 530.294403,451.075153 529.011959,442.44517 L526.257081,443.20594 Z M558.128171,358.808039 C558.745644,394.112513 562.687969,429.369439 567.081525,464.436172 C567.41401,461.321771 567.580253,457.660566 567.485257,453.309914 C567.983985,458.635303 569.147683,464.840331 570.715114,470.641201 C566.012822,433.553673 561.619266,396.20463 560.978045,358.808039 L558.128171,358.808039 Z M581.354643,447.033563 C582.280852,451.455538 582.494593,455.829964 582.090861,460.323261 L584.940735,460.323261 C585.368216,455.592223 585.083228,450.932508 584.109521,446.296567 L581.354643,447.033563 Z M642.199451,365.868933 C644.24186,378.397861 644.811835,390.926789 644.004371,403.598361 L646.854245,403.598361 C647.685458,390.665275 647.020487,377.898606 644.954329,365.108164 L642.199451,365.868933 Z M637.164674,418.457147 C637.425912,422.950444 637.02218,427.32487 635.929728,431.699296 L638.684606,432.460066 C639.824556,427.847899 640.275786,423.188184 640.014547,418.457147 L637.164674,418.457147 Z M596.292732,375.259686 L593.442858,375.259686 C595.414021,391.40227 596.245234,407.568629 595.936498,423.830084 L598.786372,423.830084 C599.095108,407.568629 598.263895,391.40227 596.292732,375.259686 Z M500.75071,385.601401 C501.415681,396.585015 502.579379,407.497307 504.265554,418.362051 L506.996684,417.601281 C505.358006,406.974277 504.241805,396.3235 503.600584,385.601401 L500.75071,385.601401 Z M446.389365,260.288348 C444.916931,248.282449 443.444496,236.300325 441.99581,224.3182 L439.145936,224.3182 C440.618371,236.300325 442.090806,248.282449 443.563241,260.288348 L446.389365,260.288348 Z M448.978001,196.336135 C448.170537,183.926078 445.795642,171.896405 441.829567,160.128247 L439.074689,160.889017 C442.969517,172.419434 445.320663,184.187592 446.151871,196.336135 L448.978001,196.336135 Z M396.017844,169.614096 C398.725225,181.47735 399.865174,193.411926 399.461442,205.584243 L402.311316,205.584243 C402.715048,193.150412 401.527601,180.954321 398.772723,168.853326 L396.017844,169.614096 Z M440.072145,371.859996 C441.710823,381.987744 443.3495,392.139266 445.011926,402.290788 L447.743056,401.530018 C446.104378,391.378496 444.465701,381.226974 442.803274,371.099226 L440.072145,371.859996 Z M472.703201,294.855826 C474.888104,309.667063 475.648071,324.478301 475.078096,339.432182 L477.92797,339.432182 C478.497945,324.216786 477.666731,309.167808 475.43433,294.095056 L472.703201,294.855826 Z M455.532711,367.152733 C456.577665,380.109593 457.860108,393.018906 459.427539,405.928219 L462.253663,405.928219 C460.709982,393.018906 459.40379,380.109593 458.382585,367.152733 L455.532711,367.152733 Z M443.444496,123.373555 C445.795642,127.985722 447.363072,132.811856 448.265532,137.899504 L450.996662,137.138734 C450.070453,131.813345 448.360528,126.749471 445.914387,121.947112 L443.444496,123.373555 Z M457.503874,227.456375 C460.235003,239.509822 461.778685,251.634591 462.182417,263.973327 L465.032291,263.973327 C464.628558,251.373076 463.037379,238.986793 460.235003,226.71938 L457.503874,227.456375 Z M455.010234,163.837 C460.401245,174.582873 463.631103,185.87555 464.723554,197.833901 L467.573428,197.833901 C466.433479,185.376295 463.084877,173.584363 457.480125,162.386782 L455.010234,163.837 Z M460.140007,298.564579 C460.662484,309.548193 461.184961,320.555581 461.707438,331.56297 L464.557312,331.56297 C464.034835,320.555581 463.512358,309.548193 462.989881,298.564579 L460.140007,298.564579 Z M299.027136,427.586385 C300.000843,433.054418 300.262082,438.498677 299.882099,444.038032 L302.731972,444.038032 C303.135705,438.237162 302.77947,432.531388 301.782014,426.825615 L299.027136,427.586385 Z M131.905782,308.930068 C132.119522,316.323799 132.333263,323.741305 132.547003,331.135037 L135.396877,331.135037 C135.183137,323.741305 134.969396,316.323799 134.755655,308.930068 L131.905782,308.930068 Z M148.862531,312.044469 L146.131402,312.805239 C148.268808,320.626904 148.933778,328.51989 148.268808,336.60307 L151.094932,336.60307 C151.783652,328.28215 151.071184,320.103874 148.862531,312.044469 Z M194.864246,251.468173 C196.027944,259.527578 197.215392,267.586983 198.37909,275.646388 L201.133968,274.885619 C199.946521,266.826213 198.782822,258.766808 197.619124,250.731177 L194.864246,251.468173 Z M160.689508,308.264394 C162.161943,317.821565 162.803164,327.378736 162.708169,337.031003 L165.558042,337.031003 C165.653038,327.140995 164.964319,317.298536 163.444386,307.503624 L160.689508,308.264394 Z M166.009272,368.246339 C167.149222,377.708414 167.909188,387.170488 168.241674,396.680111 L171.091548,396.680111 C170.735313,387.170488 169.999096,377.708414 168.859146,368.246339 L166.009272,368.246339 Z M182.586039,256.032792 C184.652198,265.542414 185.198423,275.052037 184.272214,284.751852 L187.122088,284.751852 C188.048297,274.814296 187.454574,265.019385 185.340917,255.272022 L182.586039,256.032792 Z M195.837953,419.217917 L193.011828,419.217917 C192.536849,424.92369 193.035577,430.534368 194.53176,436.049949 L197.286638,435.312953 C195.837953,430.011338 195.410471,424.662176 195.837953,419.217917 Z M193.41556,366.0829 C195.172982,380.157142 196.384178,394.231383 197.0254,408.376947 L199.875274,408.376947 C199.234052,394.231383 198.022856,380.157142 196.265434,366.0829 L193.41556,366.0829 Z M194.31802,337.910643 C196.194187,327.450058 194.484262,316.989473 194.365518,306.48134 L191.515644,306.48134 C191.634389,316.704184 193.391811,326.974577 191.563142,337.149873 L194.31802,337.910643 Z M208.686134,271.509702 L211.536008,271.509702 C211.820995,260.977795 211.179774,250.564759 209.659841,240.127948 L206.904963,240.888717 C208.401147,251.064014 208.971121,261.23931 208.686134,271.509702 Z M153.612321,358.52275 L150.762447,358.52275 C150.524958,365.96403 150.714949,373.405309 151.403669,380.846589 L154.253543,380.846589 C153.564823,373.405309 153.351083,365.96403 153.612321,358.52275 Z M249.558075,145.103043 C247.776899,140.918809 245.995733,136.758349 244.214562,132.574115 L241.744671,134.024333 C243.525842,138.184793 245.330762,142.369027 247.111934,146.529486 L249.558075,145.103043 Z M227.590297,281.328388 C227.139067,263.87823 226.711586,246.451847 226.260356,229.025463 L223.410482,229.025463 C223.861712,246.451847 224.289194,263.87823 224.740424,281.328388 L227.590297,281.328388 Z M397.062798,358.736716 C397.894011,372.335477 397.157794,385.886689 397.110296,399.509224 L399.96017,399.509224 C400.007668,385.886689 400.743885,372.335477 399.912672,358.736716 L397.062798,358.736716 Z M266.562323,140.51465 C262.477504,129.269521 258.392684,118.024393 254.284116,106.779264 L251.552987,107.540034 C255.637806,118.785162 259.722626,130.030291 263.807445,141.27542 L266.562323,140.51465 Z M179.261186,366.273092 C179.997404,377.80351 180.994859,389.286379 182.277303,400.769249 L185.103428,400.769249 C183.844733,389.286379 182.847277,377.80351 182.11106,366.273092 L179.261186,366.273092 Z M169.286627,264.187293 C170.070343,270.962899 170.854058,277.738505 171.637773,284.537886 L174.463898,284.537886 C173.680183,277.738505 172.896468,270.962899 172.112752,264.187293 L169.286627,264.187293 Z M205.670017,421.28626 C205.812511,426.32636 205.955005,431.36646 206.097499,436.40656 L208.947372,436.40656 C208.804879,431.36646 208.662385,426.32636 208.519891,421.28626 L205.670017,421.28626 Z M247.990645,172.253016 C248.418126,182.261894 248.821858,192.294546 249.22559,202.327198 L252.075464,202.327198 C251.671732,192.294546 251.268,182.261894 250.840519,172.253016 L247.990645,172.253016 Z M207.498687,300.609148 L204.767557,301.369918 C207.071205,315.325289 207.902419,329.28066 207.356193,343.40245 L210.206067,343.40245 C210.752293,329.019146 209.873581,314.80226 207.498687,300.609148 Z M234.857476,177.43576 C233.765024,185.304973 233.361292,193.150412 233.693777,201.090947 L236.543651,201.090947 C236.211166,193.411926 236.543651,185.804228 237.588605,178.19653 L234.857476,177.43576 Z M431.641268,190.345073 C432.187494,180.241099 431.118791,170.374865 428.482658,160.627502 L425.751529,161.388272 C428.316415,170.897895 429.313871,180.502613 428.791394,190.345073 L431.641268,190.345073 Z M425.656533,361.969988 C425.585286,374.831753 426.39275,387.598421 428.031428,400.341316 L430.881302,400.341316 C429.242624,387.598421 428.43516,374.831753 428.506407,361.969988 L425.656533,361.969988 Z M434.586138,130.886157 C432.045,125.869831 429.503863,120.829731 426.938976,115.789631 L424.492834,117.216075 C427.033972,122.256175 429.57511,127.296275 432.139996,132.336375 L434.586138,130.886157 Z M413.639565,289.60176 C415.824468,304.389223 416.584434,319.224234 416.01446,334.178116 L418.864333,334.178116 C419.434308,318.96272 418.603095,303.889968 416.370694,288.84099 L413.639565,289.60176 Z M402.643801,225.411807 C403.213776,237.061094 403.308772,248.710382 402.952538,260.383444 L405.802411,260.383444 C406.158646,248.710382 406.039901,237.061094 405.493675,225.411807 L402.643801,225.411807 Z M426.487746,219.801129 C427.152717,234.945203 427.841436,250.089277 428.506407,265.233352 L431.356281,265.233352 C430.69131,250.089277 430.002591,234.945203 429.33762,219.801129 L426.487746,219.801129 Z M182.372298,346.611948 C182.419796,332.490158 182.11106,318.344594 181.398591,304.222804 L178.548718,304.222804 C179.261186,318.344594 179.569922,332.490158 179.522425,346.611948 L182.372298,346.611948 Z M415.32574,224.460844 C417.58189,235.91994 418.698091,247.426583 418.698091,259.099645 L421.547965,259.099645 C421.547965,247.165068 420.384266,235.39691 418.056869,223.700074 L415.32574,224.460844 Z M414.114544,129.103103 C412.333367,125.251706 410.552201,121.400309 408.77103,117.525137 L406.301139,118.975355 C408.082311,122.826752 409.887231,126.701923 411.668402,130.55332 L414.114544,129.103103 Z M416.275698,206.249917 C415.729472,191.343583 414.138293,176.603668 411.335917,161.958849 L408.604787,162.719619 C411.335917,177.102923 412.879598,191.605098 413.449573,206.249917 L416.275698,206.249917 Z M431.59377,286.32094 C432.876213,303.462035 432.876213,320.555581 431.59377,337.696676 L434.443644,337.696676 C435.726087,320.555581 435.726087,303.462035 434.443644,286.32094 L431.59377,286.32094 Z M209.992326,369.720331 C210.989782,382.486999 211.464761,395.277442 211.48851,408.091658 L214.314635,408.091658 C214.314635,395.277442 213.815907,382.486999 212.8422,369.720331 L209.992326,369.720331 Z M177.266274,411.372478 C177.195028,418.148084 177.670006,424.899916 178.71496,431.6042 L181.469838,430.84343 C180.472382,424.376887 180.044901,417.910344 180.116148,411.372478 L177.266274,411.372478 Z M267.74977,205.346503 C268.43849,189.822044 267.417285,174.416455 264.709905,159.105962 L261.978776,159.866732 C264.638658,174.939484 265.588616,190.059784 264.923645,205.346503 L267.74977,205.346503 Z M247.919398,303.937516 C250.341791,316.727958 251.03051,329.494627 250.033054,342.451488 L252.882928,342.451488 C253.880384,329.233112 253.120418,316.204929 250.650527,303.176746 L247.919398,303.937516 Z M224.004206,327.877991 C223.69547,319.343105 223.362985,310.784444 223.030499,302.225784 L220.180625,302.225784 C220.513111,310.784444 220.845596,319.343105 221.178081,327.877991 L224.004206,327.877991 Z M275.349434,224.389522 C276.156898,241.364199 276.964363,258.315101 277.771827,275.289777 L280.597952,275.289777 C279.814237,258.315101 279.006772,241.364199 278.199308,224.389522 L275.349434,224.389522 Z M266.63357,378.920891 C268.770975,387.24181 269.815929,395.634052 269.768431,404.216487 L272.618305,404.216487 C272.665803,395.372538 271.5971,386.718781 269.388448,378.160121 L266.63357,378.920891 Z M288.838837,223.272141 C291.783707,240.43701 292.567422,257.601879 292.377431,274.980715 L295.227305,274.980715 C295.417296,257.340365 294.562334,239.913981 291.593715,222.511372 L288.838837,223.272141 L288.838837,223.272141 Z" id="Fill-1258" fill="#543630"></path>
            <path d="M696.822351,312.808365 C695.07714,296.679096 693.116766,280.478563 688.741784,264.943155 C679.059449,230.712997 658.021288,201.590045 633.994752,177.384264 C631.149819,174.53373 628.233164,171.730705 625.053533,169.379015 C668.707717,227.838709 658.093009,378.988254 651.70984,424.002931 C648.171603,448.9451 643.222854,436.877841 642.6969,434.858713 C643.222854,444.004175 642.123132,454.812449 639.636804,460.014672 L641.97969,462.200082 C647.167509,462.342608 648.888813,447.567342 649.295232,444.526773 C650.490583,447.923659 651.446863,463.79163 657.543148,463.150259 C663.639433,462.532644 665.241202,445.904531 664.523992,439.300795 C665.838877,443.006489 666.436552,456.213961 672.963164,454.836203 C679.465868,453.458445 680.995916,430.487895 680.039636,425.689497 C681.450149,432.887094 685.490432,434.454888 687.905039,433.480955 C695.364024,430.487895 689.219925,385.259428 687.355178,356.183985 C688.072388,364.212988 690.343554,375.448842 696.296397,375.092525 C703.181613,374.688699 698.711004,330.362901 696.822351,312.808365" id="Fill-1259" fill="#866058"></path>
            <path d="M671.698715,409.795289 C672.106424,416.414561 671.962527,423.00985 671.243041,429.605139 L674.120985,429.605139 C674.840471,423.00985 674.984368,416.414561 674.552677,409.795289 L671.698715,409.795289" id="Fill-1260" fill="#6D4845"></path>
            <path d="M659.189153,410.706638 C659.285084,419.028661 658.565598,427.256914 656.982729,435.438283 L659.740759,436.188437 C661.395577,427.749203 662.163028,419.286526 662.067097,410.706638 L659.189153,410.706638" id="Fill-1261" fill="#6D4845"></path>
            <path d="M665.416702,230.098186 C668.438544,239.146907 670.573019,248.362314 671.844111,257.815846 L674.626124,257.053848 C673.355032,247.624129 671.196574,238.384909 668.174732,229.336188 L665.416702,230.098186" id="Fill-1262" fill="#6D4845"></path>
            <path d="M653.629122,224.111129 C656.746895,236.176739 658.71349,248.386848 659.552891,260.813704 L662.430835,260.813704 C661.591435,248.121935 659.576874,235.646912 656.387152,223.340471 L653.629122,224.111129" id="Fill-1263" fill="#6D4845"></path>
            <path d="M659.44796,286.295503 C661.462521,304.829761 663.620979,323.055511 662.349887,341.755889 L665.227831,341.755889 C666.498923,323.055511 664.316482,304.829761 662.325904,286.295503 L659.44796,286.295503" id="Fill-1264" fill="#6D4845"></path>
            <path d="M670.045396,273.568639 C673.474946,290.150895 675.489507,306.852449 676.113062,323.768737 L678.991006,323.768737 C678.367452,306.589996 676.304925,289.649849 672.803426,272.805139 L670.045396,273.568639" id="Fill-1265" fill="#6D4845"></path>
            <path d="M683.799572,292.291221 C684.638972,300.800782 685.502355,309.2869 686.341756,317.773019 L689.2197,317.773019 C688.3803,309.2869 687.516916,300.800782 686.677516,292.291221 L683.799572,292.291221" id="Fill-1266" fill="#6D4845"></path>
            <path d="M663.078373,368.736617 C662.742612,377.23825 662.430835,385.716782 662.095075,394.218415 L664.973019,394.218415 C665.284797,385.716782 665.620557,377.23825 665.956317,368.736617 L663.078373,368.736617" id="Fill-1267" fill="#6D4845"></path>
            <path d="M674.355097,352.248394 C675.38636,366.753616 675.314412,381.212123 674.091285,395.717345 L676.96923,395.717345 C678.168373,381.212123 678.264305,366.753616 677.233041,352.248394 L674.355097,352.248394" id="Fill-1268" fill="#6D4845"></path>
            <path d="M223.74173,94.5441033 C204.062939,54.1676159 98.9110888,54.358071 78.8753664,84.545209 C58.8396439,114.756154 99.8391092,224.148819 111.855784,252.479019 C121.730872,275.833579 159.113438,271.429305 174.984966,251.741006 C192.403195,230.100541 206.680432,209.459967 215.437137,186.15302 C223.265822,165.202956 233.735796,115.041837 223.74173,94.5441033" id="Fill-1269" fill="#B5876B"></path>
            <path d="M78.7289423,85.3050059 L83.9400428,79.623582 C49.7599608,71.7879514 21.1225948,34.4089163 12.0031689,4.15533374 C10.1792837,-1.88117922 1.32041284,-1.14732862 0.657181866,5.10223773 C-2.56422572,35.2137847 6.24727151,71.8589692 22.9227932,91.6729353 C35.6899894,106.847072 54.1893962,116.813236 73.75471,119.914347 C72.570369,105.142645 73.75471,92.7855475 78.7289423,85.3050059" id="Fill-1270" fill="#A18677"></path>
            <path d="M309.952853,12.2707992 C309.575246,6.47092742 301.456697,5.7071583 299.94627,11.3399555 C283.425966,73.2291218 247.600509,83.9218895 217.344754,84.9243364 C220.082404,87.7646028 222.395246,90.8674149 224.023676,94.2805081 C227.799746,102.109142 228.625761,114.233976 227.776145,127.408994 C245.759675,126.096265 269.312907,119.031401 284.865593,99.2927429 C303.816741,75.2578835 312.076892,45.3038135 309.952853,12.2707992" id="Fill-1272" fill="#A18677"></path>
            <path d="M291.807973,35.0376379 C297.718501,35.6780194 303.819691,37.1248072 309.325062,39.4728725 L309.777884,34.9664844 C304.630005,32.9030331 299.076969,31.5985523 293.571598,30.934453 L291.807973,35.0376379 Z M286.469432,45.4497662 L284.324482,49.1260302 C288.185391,50.2170504 292.046301,51.2843529 295.740381,52.9446011 C299.267631,54.5336959 302.485056,56.6920186 305.487985,59.1112374 L306.56046,54.6285672 L302.699551,51.8772987 C297.647003,48.6279557 292.070134,47.0151431 286.469432,45.4497662 Z M310.278373,23.2498754 L310.159209,18.7672052 C306.155303,17.8184919 302.151397,17.9607989 298.123658,18.0556702 L296.836688,22.2537265 L303.080875,22.0165482 C305.559483,21.9216768 307.966594,22.4197513 310.278373,23.2498754 Z M267.665373,68.1714493 L264.233454,70.8278465 C273.337573,78.0143496 280.964061,86.6002047 287.065251,96.3245159 L289.758355,92.6245341 C283.728663,83.3508618 276.31667,75.1682097 267.665373,68.1714493 Z M239.828694,82.2124058 C245.453228,95.3283669 248.193997,108.942403 250.219783,122.912206 L254.271355,121.394264 C252.197903,107.54305 249.457134,93.9764505 243.951764,80.9553607 L239.828694,82.2124058 Z M276.435834,59.5618762 C284.920301,64.2105713 292.904281,69.2387517 299.053136,76.1643587 L300.959758,71.9900202 C294.882401,65.6336412 287.327412,60.7952035 279.248101,56.3125333 L276.435834,59.5618762 Z M253.389542,77.2316611 C261.349688,88.118146 267.045721,99.5738589 271.669279,112.025721 L275.148864,109.132145 C270.525306,97.0597687 264.900772,85.9361055 257.226619,75.3105167 L253.389542,77.2316611 L253.389542,77.2316611 Z" id="Fill-1273" fill="#79574F"></path>
            <path d="M250.236897,91.8110254 C244.267629,83.6390856 235.503228,77.6051534 225.767636,74.8970105 C234.69785,73.6854729 248.341891,70.8110406 249.597333,64.2307286 C250.852774,57.626661 208.996835,51.1413716 195.944984,54.6096949 C200.279809,52.6617325 200.137684,46.8178453 195.115919,36.6979431 C190.117841,26.5780409 155.01286,51.9490633 155.01286,51.9490633 C149.493656,42.0904732 124.361143,26.6493079 117.302247,30.6164996 C110.24335,34.5836913 114.886114,38.812195 120.073692,43.0169431 C116.402119,45.5825521 90.1799773,37.0542777 82.6947047,41.5440935 C75.1857446,46.0101536 90.7958542,48.7658077 94.8701164,52.3766648 C84.1396466,54.538428 65.3790901,54.0158039 62.7023945,58.9094655 C60.0020114,63.8031271 70.6377309,64.5395519 74.6172429,67.366473 C67.4872839,70.4784617 50.0532314,83.2352398 51.0007342,90.456954 C51.9719247,97.6786682 67.5346591,97.7736908 69.7139156,94.7092134 C68.8137879,101.835905 56.8989395,117.44336 61.8259544,119.415078 C66.7529692,121.386796 75.1857446,115.447886 77.6255645,117.82345 C74.7830559,121.386796 71.3246705,126.850593 79.8521962,130.29516 C88.3560343,133.715973 93.7804882,125.639055 98.4706273,121.125484 C101.384199,129.439957 103.326579,135.568912 109.745911,137.588142 C116.165243,139.607371 129.193407,130.271405 131.372664,125.971634 C135.162675,133.668461 143.595451,139.631127 150.985973,139.39357 C158.376495,139.179769 162.498133,132.955792 165.459079,126.75557 C170.788783,132.100589 177.823991,136.352848 185.380327,136.139048 C192.912974,135.949003 200.540372,130.010093 200.635123,122.432044 C204.283009,127.088149 208.475709,139.203525 216.150482,139.179769 C223.848943,139.179769 223.706817,128.085886 225.791323,124.189961 C231.310528,127.468239 234.224099,135.735202 243.604377,131.316653 C252.984655,126.898104 241.046119,114.28386 236.758669,106.919612 C240.35918,104.140202 245.807321,108.107394 250.000021,106.349476 C255.163912,104.187713 253.553157,96.3245968 250.236897,91.8110254" id="Fill-1274" fill="#543630"></path>
            <path d="M139.413696,224.906794 C120.686619,224.143406 108.090996,229.725683 107.924639,248.810393 C107.734516,267.895102 123.277039,279.67991 140.316779,278.749531 C158.568549,277.747584 168.621283,265.41409 169.310477,253.080597 C170.403682,233.351778 158.330896,225.670183 139.413696,224.906794" id="Fill-1275" fill="#A8988E"></path>
            <path d="M139.635557,212.91536 C115.454168,212.151971 99.1677785,217.734249 98.9314012,236.818958 C98.695024,255.903668 118.787087,267.688476 140.817443,266.758096 C164.431526,265.756149 177.408634,253.422655 178.28323,241.089162 C179.701493,221.360344 164.124235,213.678748 139.635557,212.91536" id="Fill-1276" fill="#D0C0B7"></path>
            <path d="M153.393072,242.645917 L152.63372,239.07247 C143.568955,247.658337 131.182024,247.058765 121.524015,239.168401 L119.17477,241.782534 L118.415418,242.142277 C129.497212,251.495596 143.711333,252.215082 154.389722,243.221506 L153.393072,242.645917" id="Fill-1277" fill="#897876"></path>
            <path d="M164.449835,227.381144 C159.005724,227.788853 150.587736,238.389281 154.329064,242.178574 C158.070392,245.99185 169.51022,239.372578 170.253689,234.312193 C170.733347,230.906626 169.869963,226.973435 164.449835,227.381144" id="Fill-1278" fill="#755F5C"></path>
            <path d="M107.399092,224.669896 C102.338706,226.900303 110.612796,247.86133 119.126715,242.297305 C128.432068,236.205656 112.459477,222.463472 107.399092,224.669896" id="Fill-1279" fill="#755F5C"></path>
            <path d="M203.305838,150.598503 C200.331962,148.176233 196.278857,149.495291 194.024467,153.188653 C192.201769,156.162529 191.506266,160.743257 192.777358,164.292721 C194.024467,167.842186 201.291277,171.847325 205.632176,163.309424 C207.646737,159.35225 206.279713,152.99679 203.305838,150.598503" id="Fill-1280" fill="#17111C"></path>
            <path d="M108.316956,153.507066 L105.870703,148.086937 C104.000039,146.096359 101.433872,145.784582 99.2514309,146.863811 C97.0689898,147.94304 95.2223088,150.293361 93.8792682,153.099357 L92.440296,157.799999 C92.0805529,160.893789 92.991902,164.131477 94.5268056,166.313918 C96.0377264,168.472376 101.793615,170.894646 106.302394,163.771734 C108.029161,161.061669 108.892544,157.104496 108.316956,153.507066" id="Fill-1281" fill="#17111C"></path>
            <path d="M115.732525,139.868094 C117.483274,145.360171 118.442589,151.931478 118.178777,157.687366 L121.056722,157.687366 C121.320533,151.739615 120.313253,144.7606 118.490555,139.100642 L115.732525,139.868094" id="Fill-1282" fill="#815948"></path>
            <path d="M128.610218,153.406424 C129.425636,161.056959 129.54555,168.683512 128.969961,176.35803 L131.847906,176.35803 C132.423494,168.683512 132.30358,161.056959 131.46418,153.406424 L128.610218,153.406424" id="Fill-1283" fill="#815948"></path>
            <path d="M140.702221,140.935332 C141.397725,146.067666 141.301793,151.439829 141.037981,156.620128 L143.915926,156.620128 C144.20372,151.176017 144.20372,145.588009 143.460251,140.16788 L140.702221,140.935332" id="Fill-1284" fill="#815948"></path>
            <path d="M150.932623,145.552034 C151.124486,153.274518 150.476949,160.877088 148.942045,168.455675 L151.724058,169.223126 C153.306927,161.404711 154.002431,153.53833 153.810568,145.552034 L150.932623,145.552034" id="Fill-1285" fill="#815948"></path>
            <path d="M163.726738,133.668522 C163.966567,139.520343 163.726738,145.324197 163.0792,151.128051 L165.933162,151.128051 C166.604682,145.324197 166.820528,139.520343 166.604682,133.668522 L163.726738,133.668522" id="Fill-1286" fill="#815948"></path>
            <path d="M172.92848,161.164882 C172.208994,168.551606 170.770021,175.674518 168.971306,182.821413 L171.729336,183.588865 C173.623983,176.178158 175.062955,168.791435 175.782441,161.164882 L172.92848,161.164882" id="Fill-1287" fill="#815948"></path>
            <path d="M160.809398,160.385439 C161.193124,168.401925 158.435094,177.22699 157.044087,185.151067 L159.802117,185.867238 C161.241089,177.689036 164.095051,168.702255 163.687342,160.385439 L160.809398,160.385439" id="Fill-1288" fill="#815948"></path>
            <path d="M147.950321,182.989293 C147.446681,188.649251 147.326767,194.429122 145.959743,199.969165 L148.717773,200.736617 C150.156745,194.932762 150.300642,188.913062 150.828266,182.989293 L147.950321,182.989293" id="Fill-1289" fill="#815948"></path>
            <path d="M139.964026,170.42227 C139.892077,175.746467 139.556317,181.022698 138.956745,186.322912 L141.810707,186.322912 C142.434261,181.022698 142.770021,175.746467 142.84197,170.42227 L139.964026,170.42227" id="Fill-1290" fill="#815948"></path>
            <path d="M119.206852,165.961456 C120.669807,173.324197 120.453961,181.070664 120.765739,188.553319 L123.6197,188.553319 C123.307923,180.782869 123.475803,172.84454 121.988865,165.194004 L119.206852,165.961456" id="Fill-1291" fill="#815948"></path>
            <path d="M130.207794,186.119058 C130.783383,191.946895 130.879315,197.750749 130.495589,203.60257 L133.373533,203.60257 C133.757259,197.750749 133.661328,191.946895 133.085739,186.119058 L130.207794,186.119058" id="Fill-1292" fill="#815948"></path>
            <path d="M138.225268,199.441542 C138.057388,202.391435 137.865525,205.317345 137.697645,208.267238 L140.575589,208.267238 C140.743469,205.317345 140.935332,202.391435 141.103212,199.441542 L138.225268,199.441542" id="Fill-1293" fill="#815948"></path>
            <path d="M122.720343,200.92848 C122.888223,203.878373 123.056103,206.828266 123.223983,209.778158 L126.101927,209.778158 C125.934047,206.828266 125.766167,203.878373 125.598287,200.92848 L122.720343,200.92848" id="Fill-1294" fill="#815948"></path>
            <path d="M127.085225,131.989722 C127.349036,134.939615 127.612848,137.865525 127.852677,140.815418 L130.730621,140.815418 C130.466809,137.865525 130.226981,134.939615 129.963169,131.989722 L127.085225,131.989722" id="Fill-1295" fill="#815948"></path>
            <path d="M165.637687,192.846253 C164.65439,197.810707 163.431263,202.775161 161.344754,207.403854 L163.814989,208.866809 C166.021413,203.998287 167.364454,198.84197 168.4197,193.613704 L165.637687,192.846253" id="Fill-1296" fill="#815948"></path>
            <path d="M156.356317,196.791435 C155.253105,201.276231 154.005996,205.737045 152.638972,210.149893 L155.397002,210.917345 C156.788009,206.504497 158.035118,202.043683 159.13833,197.534904 L156.356317,196.791435" id="Fill-1297" fill="#815948"></path>
            <path d="M176.346039,136.714347 C176.202141,141.295075 175.818415,145.899786 174.52334,150.312634 L177.28137,151.080086 C178.648394,146.451392 179.080086,141.534904 179.223983,136.714347 L176.346039,136.714347" id="Fill-1298" fill="#815948"></path>
        </g>
    </g>
</svg>