<?xml version="1.0" encoding="UTF-8"?>
<svg width="720px" height="720px" viewBox="0 0 720 720" version="1.1" xmlns="http://www.w3.org/2000/svg" xmlns:xlink="http://www.w3.org/1999/xlink">
    <title>img_j</title>
    <g id="img_j" stroke="none" stroke-width="1" fill="none" fill-rule="evenodd">
        <g id="jellyfish" transform="translate(214.000000, 46.000000)">
            <path d="M236.203997,404.067745 C236.946941,387.949646 246.558787,375.260465 251.82905,360.518301 C254.940131,351.869565 255.683076,342.784024 250.296727,331.143175 C238.711435,306.092417 241.543911,301.287563 244.469255,289.406471 C247.742855,276.127604 258.422684,262.914257 256.124199,248.78362 C254.290054,237.361173 248.416149,227.423862 247.115996,216.023256 C243.865613,215.368049 240.38306,213.773711 236.807639,211 C236.250431,220.653387 240.243758,227.20546 244.074566,236.269161 C254.452574,260.839434 241.845732,276.149444 237.248763,298.994338 C235.437835,307.970677 236.041478,312.360566 239.593682,320.463296 C249.762736,343.679474 246.814174,353.769666 237.248763,375.653589 C227.358313,398.301921 228.356644,418.766229 235.623571,442.200809 C240.104456,456.615369 249.368046,473.148433 249.80917,488.349242 C250.27351,504.532861 233.209001,518.270374 240.661664,535 C240.429494,518.445096 246.814174,513.225278 256.495671,491.101112 C268.313134,464.062892 234.369852,444.341153 236.203997,404.067745" id="Fill-653" fill="#BD70A1"></path>
            <path d="M54.4061964,408.140758 C56.658713,380.580254 38.6845499,373.26873 33.4440011,346.255496 C23.5145402,294.921594 61.7613526,250.373836 79,202.80515 C76.7015137,197.704596 75.9200283,191.684629 75.9659981,187 C74.5639214,190.196055 72.5642383,193.063749 70.2427671,195.60308 C62.4968682,229.11788 40.8910968,253.876363 29.7434381,283.319475 C24.2960256,297.679833 24.8706471,315.936752 25.1924352,332.464298 C25.6521325,357.376017 43.6033107,379.288698 45.9247818,403.675037 C49.1426627,437.430635 73.2537842,463.042859 63.2553687,506.84633 C62.3359742,510.918017 66.9099619,511.136924 67.4156289,506.977674 C73.8054209,452.994987 52.452483,431.892265 54.4061964,408.140758" id="Fill-654" fill="#BD70A1"></path>
            <path d="M170.113122,428.90865 C162.853281,410.072764 155.056538,390.493931 153.142368,370.281409 C151.18151,349.304088 156.363776,332.522232 155.66347,311.632317 C154.963164,290.917213 148.053476,280.275593 146.606176,264.083723 C144.621975,241.839023 147.843384,219.987647 154.659698,198.704407 L154.216171,197 C152.605466,201.239167 147.960102,210.067123 141.447254,213.934816 C136.848576,244.067863 144.108417,274.790897 150.644609,304.945796 C155.033195,325.202021 143.431455,341.721661 142.847866,361.890481 C142.357652,379.50269 147.703323,394.055706 154.286201,410.531643 C163.623618,433.847061 173.871432,450.738174 166.07469,476.391689 C161.98957,489.786582 151.90516,502.788151 151.251541,516.925991 C149.500775,554.138884 177.676429,586.457068 176.369191,623.822921 C176.22913,627.996534 179.800692,628.083939 179.940753,623.932178 C181.177961,588.5548 162.643189,557.875469 161.289264,523.066228 C159.958682,488.169581 183.652376,464.023811 170.113122,428.90865" id="Fill-655" fill="#BD70A1"></path>
            <path d="M52.0158087,170.972239 C53.7020278,177.958063 66.3018322,181.733011 75.9273333,166.871864 C77.1919977,171.210885 78.6206,175.636687 81.6651624,179.151294 C85.8807104,184.054387 98.9020695,187.221873 108.457311,170.755288 C109.792235,182.57912 123.18831,192.450393 136.93568,175.39804 C139.488428,187.330348 153.93839,196.463987 166.02296,177.48077 C166.561614,188.067982 183.517484,201.584032 192.440394,177.719417 C201.480402,199.0674 215.040415,190.497833 218.764149,177.610941 C226.726851,194.641598 239.607691,190.020541 242.371217,177.3506 C244.853707,193.426673 254.455788,190.996821 256.797759,187.959506 C256.70408,185.421179 257.195894,182.882852 258.530818,180.626561 C272.207929,157.651444 286.025558,132.593598 282.418923,101.374342 C279.069904,72.1510357 265.837767,46.4423362 233.823023,23.3804396 C193.072726,-5.99473256 140.706253,-2.91402765 99.2533652,6.91385492 C71.3839094,13.4874717 32.8350656,31.6245795 21.8043818,71.9123895 C15.9260345,93.4122386 19.204794,117.168379 32.4369305,135.652608 C36.6524784,141.531981 41.711136,146.847282 45.7159065,152.835131 C49.720677,158.82298 51.8518707,166.676608 52.0158087,170.972239" id="Fill-656" fill="#D2A4C1"></path>
            <path d="M127.967992,477.260766 C124.046364,475.688995 121.775947,471.791866 120.445804,467.980861 C119.344996,464.858852 118.748725,461.586124 118.542323,458.291866 L116.29484,457 L111.845741,458.485646 L108.130514,461.521531 C105.791296,462.533493 103.543813,461.88756 101.456865,460.638756 C100.791793,464.514354 99.507517,468.73445 96.9160313,472.287081 L93.1320035,476.464115 C90.7698528,478.208134 85.609815,479.349282 87.3527611,481.287081 C90.1277148,484.38756 94.7602821,481.351675 99.0029799,482.988038 L103.841949,484 L107.19024,480.921053 C109.850526,479.392344 111.685206,483.074163 115.629769,482.858852 C118.404722,482.686603 118.152454,479.715311 121.798881,480.145933 L125.193039,480.964115 L128.587197,480.619617 L129,477.777512 L127.967992,477.260766" id="Fill-657" fill="#A1C0DB"></path>
            <path d="M133.134056,452.184362 C123.225673,447.529717 119.614206,437.564843 118.71134,429.129665 L114.636864,427.075503 C111.071698,426.463625 111.025398,429.719691 107.90009,431.467914 L103.223703,432.036087 C102.783845,436.20997 102.436589,440.230884 100.144696,443.989564 C93.8014792,454.391494 84.6570601,454.063702 87.5508636,457.123093 C90.4678176,460.182484 96.4869288,456.795301 99.7511392,459.242813 C102.436589,461.275123 105.376693,462.848524 108.502001,461.493651 L112.25237,458.412407 L116.743553,456.904565 L119.359552,458.43426 L124.591548,457.166798 C125.911123,455.396722 129.337386,455.899336 131.745031,455.505986 C134.847188,455.003372 136.514019,453.779615 133.134056,452.184362" id="Fill-658" fill="#A8BCD7"></path>
            <path d="M131.164316,419.192785 C128.13736,416.420785 125.318363,413.428785 122.984603,410.106785 C120.258032,410.326785 118.525042,412.504785 115.567406,412.614785 C113.21054,412.680785 111.454443,410.260785 109.097577,410.480785 L105.562277,412.284785 C102.466002,413.582785 99.254194,411.294785 95.9268533,410.590785 C89.7805157,423.130785 78.1348232,424.120785 81.6470162,426.870785 C86.9153056,431.776785 91.097588,426.298785 96.4814101,428.960785 C100.340201,430.896785 104.684229,433.074785 108.127103,431.138785 C111.246484,429.378785 111.292698,426.100785 114.851104,426.716785 C116.907585,427.046785 118.917853,429.488785 121.020548,429.378785 C124.717593,429.224785 125.341469,426.364785 127.259312,425.946785 L135,425.198785 L131.164316,419.192785" id="Fill-659" fill="#AEB9D3"></path>
            <path d="M124.169535,387.992598 L121.241227,389.939325 C117.769765,390.955949 114.605303,386.327065 111.08661,387.084125 C108.559763,387.624883 107.378994,390.609864 105.135532,391.864422 C102.703147,393.248761 99.6331459,392.340288 97.1771455,391.02084 L91.6511443,388.100749 C86.3376817,400.235347 74.8133717,404.06391 75.0022948,405.642922 C75.0967564,406.508134 75.5690642,411.396582 81.7562962,412.780921 C87.3059127,414.013848 90.0925286,409.644528 94.2724526,409.558007 C98.3579149,409.471485 102.27807,412.953964 106.032916,411.439843 L109.646071,409.666158 C112.054841,409.449855 113.84961,411.829188 116.25838,411.764297 C120.296612,411.634515 122.091381,407.849213 127.121459,409.904091 C130.380383,411.22354 131.679229,412.218533 135.221538,411.829188 C135.741076,411.764297 139,411.591255 139,406.573025 C130.80546,400.235347 126.483844,393.616476 124.169535,387.992598" id="Fill-660" fill="#B5B5D0"></path>
            <path d="M135.845748,377.769759 C127.173918,370.340129 122.121226,358.824204 122.191728,347.308279 C120.852177,348.335316 119.277617,349.253094 116.786523,349.449761 C113.331891,349.711983 110.864297,345.691243 107.480168,346.01902 L102.403975,348.947168 C99.7953758,350.14902 97.1632756,349.187539 94.4606728,348.007539 C91.5465618,375.038277 67.6931538,381.812351 69.0562057,384.849758 C70.4897602,388.06198 73.4978747,390.334572 76.8820036,390.487535 C81.3706744,390.66235 85.5773346,387.384573 90.0425046,387.974573 C92.7921092,388.346054 95.1186978,390.116054 97.5627909,391.449017 C100.006884,392.78198 103.062,393.699757 105.482592,392.301239 C107.715177,391.033832 108.890222,388.018276 111.404818,387.47198 C114.906451,386.707165 118.055571,391.383461 121.510202,390.356424 L125.90487,387.428276 C130.558047,385.46161 135.728244,392.934943 140.052408,390.334572 C142.284993,389.00161 142.473001,385.636425 141.250954,383.34198 C140.028907,381.025684 137.819823,379.474203 135.845748,377.769759" id="Fill-661" fill="#BCB0CB"></path>
            <path d="M132.978134,326.629122 C129.101535,322.925941 127.606943,317.253437 126.556058,311.837802 C125.645291,307.214177 125.01476,302.504928 124.500994,297.79568 L123.893816,298.202388 C121.044749,299.465323 117.70527,297.924114 115.136439,296.254472 C112.544256,294.584829 109.718543,292.615507 106.58924,293.065026 C102.759348,293.600168 100.564165,297.45319 96.9678027,298.801747 C93.2079692,300.235927 89.1678996,298.58769 85.478125,296.725397 C84.7541819,303.468184 83.7500028,310.189565 81.3446434,316.461428 C78.378812,324.146064 72.9609152,331.188531 65.5346601,333.992674 C62.6155347,335.084363 58.6922301,336.561355 59.0191722,339.793612 C59.1359372,341.18498 65.1610121,352.61561 75.7165696,349.44757 C78.168635,348.698372 82.2787636,346.686238 85.9451851,346.065474 C91.6666709,345.123624 97.1312737,351.502515 102.385699,349.105079 L107.429948,346.236719 C110.792781,345.915634 113.244846,349.854278 116.677738,349.59741 C122.492635,349.147891 123.38005,344.909567 127.466825,344.096152 C132.32425,343.111491 134.239196,345.615955 136.878085,346.857484 C141.408568,349.019457 146.569582,350.53926 148.788117,344.588482 C150.913241,338.873168 136.434378,329.925596 132.978134,326.629122" id="Fill-662" fill="#C4ADC8"></path>
            <path d="M138.310754,281.623904 L132.28526,278.001012 C128.423361,274.880087 126.74832,269.947717 126.213237,265.189943 C125.864271,262.199966 125.073279,257.791387 124.375346,253.753827 L120.932206,255.870818 L118.65229,257.333069 L116.256051,256.612856 C113.883077,255.216078 111.766011,253.448282 109.276715,252.247926 C106.764154,251.04757 103.71651,250.480129 101.180685,251.615011 C98.1563057,252.968139 96.5743228,256.438259 93.410357,257.464017 C89.9439533,258.598899 86.3612274,256.372785 83.3833772,254.386742 L82.5225924,253.841125 C80.3124693,265.866507 74.2637112,284.439284 59.8397495,287.582033 L55.2333876,288.629617 L53,292.077911 L55.1635942,294.151253 C58.0251221,295.788102 61.0029723,297.315827 64.2832603,297.926917 C67.5635483,298.516183 71.1928032,298.057865 73.7518932,296.006348 L76.148132,294.173077 L82.6156502,295.329784 C86.7334586,297.555898 91.5492007,300.153031 95.9461825,298.450709 C99.5289085,297.075756 101.715767,293.147319 105.531138,292.601703 C108.648575,292.143385 111.463573,294.151253 114.045928,295.853575 C116.605018,297.555898 119.931835,299.127273 122.770098,297.839619 C124.956957,296.835685 126.259766,294.282201 128.656005,293.911182 C132.07588,293.38739 134.192945,297.446775 137.40344,298.647131 C141.614306,300.218505 146.267197,295.831751 145.988024,291.575944 C145.70885,287.320138 142.149389,283.871843 138.310754,281.623904" id="Fill-663" fill="#CBA9C4"></path>
            <path d="M147.027847,247.938102 C138.953254,243.763183 134.974811,234.946998 132.973819,226.486126 C132.055716,222.622105 131.467189,218.691463 131.161155,214.760822 C122.709906,212.229222 115.694662,200.881437 114.093868,190 C112.634321,198.216596 106.678426,212.384671 94.5076854,212.873225 C91.659214,219.646365 86.7155861,225.642259 81.4894652,231.082978 C72.873428,240.054612 59.9493722,243.407871 55.0763675,247.471755 C54.4878404,252.246263 57.2186063,256.154698 66.1406776,256.465596 C68.730197,256.554424 71.0843055,253.467649 73.3677908,252.26847 C76.6164606,250.580737 80.5713629,252.534954 83.6081629,254.555792 C86.6214218,256.576631 90.2467489,258.841746 93.7543706,257.686982 C96.9559582,256.643252 98.556752,253.112337 101.617093,251.735502 C104.183071,250.580737 107.266954,251.158119 109.809391,252.379505 C112.328287,253.600891 114.470526,255.399659 116.871716,256.820908 L119.296448,257.553739 L121.603475,256.065869 C124.593192,253.334407 129.065999,252.113021 133.138606,252.956887 C135.61042,253.445442 137.870364,254.622414 140.248014,255.399659 C142.649205,256.154698 145.403512,256.465596 147.592833,255.288624 C149.805695,254.111652 150.865043,251.00267 149.146544,249.248316 L147.027847,247.938102" id="Fill-664" fill="#D2A4C1"></path>
            <path d="M231.523182,464.071627 C231.271092,463.798871 220.683294,460.315986 216.787351,449.741443 L213.762266,448.125887 L210.233,448 L208.812126,450.433823 C208.01002,453.874746 204.824514,455.930907 200.401473,454.923808 C195.474251,466.337601 185.551055,467.659419 187.178184,471.037398 C189.011569,474.876964 190.982458,470.345017 199.82854,474.373414 C205.420364,476.933125 205.534951,470.869548 208.193359,470.156186 L212.203888,471.834685 C214.518537,473.156503 217.337366,471.037398 219.033247,469.065162 L220.591624,467.890212 L225.40426,469.589692 C230.01064,470.030298 233.264898,466.022882 231.523182,464.071627" id="Fill-665" fill="#A1C0DB"></path>
            <path d="M222.385992,439.927049 C217.746316,435.788335 216.145627,429.724124 215.380081,423.571383 L209.580486,424.368141 L205.335182,422 L203.548907,423.372194 C201.971417,425.253427 201.78583,429.325745 198.190081,430.29956 C197.354939,433.198873 196.427004,436.076053 195.452672,438.931102 C191.717732,449.731596 181.023279,448.713517 183.319918,452.144001 C185.616558,455.552354 192.483279,451.745622 197.354939,453.936706 C202.992145,456.481905 207.191052,454.18016 208.142186,449.97505 L209.580486,447.407719 L213.153036,447.540512 L216.470405,449.333217 C218.767044,449.77586 219.926963,447.82823 221.898826,446.367508 L228,445.017446 L222.385992,439.927049" id="Fill-666" fill="#A8BCD7"></path>
            <path d="M231.122788,411.864908 C221.950587,408.446615 215.368464,400.078455 213.918971,391 C210.901175,392.331803 209.998212,397.170686 206.528934,397.414849 C203.86757,397.592423 201.586401,394.618064 198.996323,395.283965 L195.36071,398.302718 L193.839931,399.23498 C188.041959,410.954843 172.382684,424.67241 175.376719,425.982016 C178.822234,427.491392 182.148939,424.006509 185.499406,425.027557 C188.826111,426.070803 191.891432,431.398013 196.66763,430.976276 C201.443828,430.576735 201.46759,425.871032 203.225991,423.806738 L205.055679,422.430542 L209.404157,424.80559 C212.540765,426.670114 216.342713,423.717951 218.671407,420.987756 L220.786241,419.367396 C222.996123,418.790282 224.611951,421.476084 226.845596,422.008805 L231.550507,419.87792 L233,414.905857 L232.738616,412.819367 L231.122788,411.864908" id="Fill-667" fill="#AEB9D3"></path>
            <path d="M233.962119,382.492522 C228.996248,378.062092 224.194345,373.37606 220.774452,367.880623 C218.900539,364.856002 217.518528,361.57578 216.792386,358.189057 L216.370756,358.359458 C213.677005,358.955862 210.749015,356.037742 208.359775,357.337051 L206.626405,359.041063 L199.552382,359.616166 L197.842435,358.487259 L194.141456,360.042169 L192.244119,362.768588 C187.863846,382.833324 166.266992,393.525997 169.288678,395.932913 C172.70857,398.701932 178.096071,394.165001 182.242105,396.252415 C186.364715,398.339829 191.869336,400.491144 195.382924,397.594324 L198.966784,394.697504 C201.519991,394.0585 203.768687,396.91272 206.392166,396.742318 C210.046297,396.508017 210.772439,391.11908 214.332875,390.330975 L216.604995,390.288375 C222.109616,390.629177 227.684509,390.075373 232.95489,388.626963 L236,386.70995 L233.962119,382.492522" id="Fill-668" fill="#B5B5D0"></path>
            <path d="M222.40766,345.349933 C217.72713,343.566081 214.448383,339.425784 212.78525,334.999189 L212.143756,332.862972 L206.86925,332.818926 L201.666022,330 L199.48019,331.629692 C197.365636,334.074229 196.011371,338.478801 191.140769,338.985327 L188.741106,338.743075 C181.565877,348.983705 170.446649,356.361363 172.181058,358.938037 C174.794552,362.792038 179.78395,358.695786 182.706311,360.149295 C185.628672,361.58078 188.052094,364.157455 192.138648,362.417649 L194.752142,359.11422 L198.50607,357.506551 L200.240479,358.673763 L207.415708,358.079146 L209.173877,356.317317 C211.597299,354.973923 214.567178,357.991054 217.299467,357.374414 L222.075033,354.577511 L226.35166,354.665603 C228.965154,354.445374 230.7946,351.428242 229.654166,349.225956 C228.394937,346.847487 225.068672,346.362985 222.40766,345.349933" id="Fill-669" fill="#BCB0CB"></path>
            <path d="M232.232275,319.461737 C221.911982,315.591977 214.300182,306.31335 212.198764,296.08927 L210.564329,296.001321 C208.159374,295.561576 206.011258,293.780607 203.559605,294.022467 C199.917149,294.374263 198.376109,298.74973 195.107238,300.332813 L190.22728,300.662622 C186.327984,321.880336 161.297771,329.773765 164.239755,333.335703 C167.275135,337.007577 174.700142,333.84141 178.622788,335.072697 C182.545433,336.303984 186.491428,341.470992 191.25464,340.965285 C196.041201,340.459578 197.372099,336.062124 199.450167,333.621537 L201.598282,331.99448 L206.711731,334.80885 C210.400885,337.007577 214.883909,333.511601 217.592402,330.279473 L220.067404,328.344593 C222.682501,327.684975 224.527079,331.246912 227.212223,331.488772 C233.37638,332.038454 236.6686,323.639318 234.146899,320.583087 L232.232275,319.461737" id="Fill-670" fill="#C4ADC8"></path>
            <path d="M239.238143,283.048145 L233.748779,280.08075 C219.353924,275.164619 209.788766,260.239066 211.390813,246 C206.631793,246.575763 203.96957,252.975592 198.951396,253.639934 C194.003901,254.282132 189.692512,248.94525 184.957052,249.343855 C184.745017,258.821803 183.896875,270.226342 179.891759,276.869763 C174.637991,285.528355 156.874127,292.371079 160.47873,295.892092 C164.083334,299.413105 170.020328,292.968987 177.418012,294.629842 C183.355006,295.980671 188.891489,301.95975 194.310174,299.346671 C197.608504,297.75225 199.163431,293.345448 202.838714,292.991132 C205.312461,292.74754 207.479935,294.541263 209.906564,294.984158 C214.029477,295.737079 217.681199,292.658961 220.767494,289.979448 L223.618194,288.362882 L228.02382,289.824434 C230.709604,291.219553 234.125731,291.728882 236.835074,290.378053 C239.544416,289.005079 240.981546,285.417632 239.238143,283.048145" id="Fill-671" fill="#CBA9C4"></path>
            <path d="M225.149721,232.933105 C218.887384,228.810866 215.7444,222.246648 214.019304,215.077537 C206.977129,214.763888 199.438694,208.714951 194.405193,200 C191.805732,207.393146 187.859279,215.772045 180.887998,218.886127 L178.595747,224.352575 C169.852107,243.171492 147.969376,245.747891 152.648405,250.609445 C157.351065,255.470998 167.134489,249.28764 172.451568,253.656317 L176.043549,255.919068 C179.824583,256.680786 182.187729,251.841636 185.874236,250.788672 C191.049526,249.332447 195.65766,255.73984 200.99837,255.022929 C206.33908,254.306018 209.009434,246.935275 214.397407,247.15931 C216.524238,247.271327 218.343861,248.593132 220.258009,249.489271 C223.495519,251.012707 227.536498,251.259145 230.703114,249.578885 C233.869729,247.898624 235.807509,244.090034 234.673199,240.841531 C233.302574,236.96573 228.69444,235.263066 225.149721,232.933105" id="Fill-672" fill="#D2A4C1"></path>
            <path d="M64.5041533,496.354715 C62.5913612,481.721555 61.0327899,466.368732 52.7912538,453.741907 C35.434437,427.070738 30.8295672,402.362288 15.9759104,374.49168 C0.15405019,344.832817 8.30112746,308.020934 18.5499145,276.355736 C26.9095242,250.51327 49.1545874,234.855135 55.5069462,205 C52.2245006,206.155823 48.9420549,206.701023 45.8957565,206.548367 C35.0802162,234.658863 21.596213,260.610369 7.89967728,288.611825 C-6.03300559,317.114865 1.50008904,342.717442 7.49822709,369.192339 C14.1103478,398.43685 30.4753465,422.643717 43.3453671,449.620197 C52.9093274,469.618122 57.6322707,490.074015 58.7421624,511.860194 C59.3797597,524.377979 59.4033745,534.824005 66.1335687,545.989695 C68.3297374,549.631629 71.44688,547.88699 69.2507113,544.245056 C60.6785692,529.982632 66.5114042,511.816578 64.5041533,496.354715" id="Fill-673" fill="#BD70A1"></path>
            <path d="M289.130903,284.763305 C278.598654,259.034481 271.296294,236.546393 262.09813,212 C259.921465,213.686059 257.18308,215.021768 254,215.525396 C265.796119,240.07179 280.939154,264.377317 281.945568,291.398057 C282.600908,308.871761 275.883674,324.352849 271.530344,340.884988 C268.019594,354.220183 267.106799,367.927624 267.832354,381.635066 C269.517514,414.348993 288.428753,441.960948 277.498619,478.616312 C264.087554,523.680074 274.362349,553 280.728509,553 C283.747753,553.021882 262.56623,528.847736 285.713773,468.587544 C297.346058,438.326067 272.279304,404.955235 272.466544,372.876317 C272.653784,342.286387 300.903617,313.535795 289.130903,284.763305" id="Fill-674" fill="#BD70A1"></path>
            <path d="M212.790039,215.906341 C221.041161,251.914512 229.784539,287.420751 219.892568,321.093846 C211.289834,350.336846 197.108217,368.733748 207.492443,404.087224 C220.877077,449.610282 223.174264,490.157664 216.681193,510.889642 C206.062561,544.93373 195.115759,573.020104 207.492443,602.786858 C209.10985,606.649553 211.336716,607.32607 210.914783,603.179675 C208.594155,580.439969 207.234595,558.725951 213.024446,536.248123 C217.337532,519.487956 224.674468,503.469776 227.745199,486.425909 C233.488168,454.54231 219.63472,426.739637 213.047886,396.121781 C204.656119,357.12384 228.167131,325.109303 232.128608,287.13705 C234.824287,261.451221 231.167539,236.136386 222.517925,212 C219.63472,214.946123 216.282701,216.146395 212.790039,215.906341" id="Fill-675" fill="#BD70A1"></path>
            <path d="M76.1928141,273.011934 C83.2320705,252.514199 95.5098431,232.51961 100,212 C98.0121701,212.787533 95.7904779,213.1813 93.3349234,213.050044 L90.7156652,212.634402 C84.9392655,237.791707 74.9065713,260.980179 68.9664679,286.859389 C62.9094334,313.241746 57.2733511,337.392758 74.4856191,362.593815 C82.5538697,374.384935 88.4004281,390.48561 90.9963,404.333066 C95.1356634,426.49337 90.7858239,446.925477 86.0150323,468.604511 C79.583818,497.699481 73.9009632,514.303302 92.3760878,551.317354 C94.2469865,555.080012 96.5154512,554.839377 95.0888909,550.879836 C81.688579,513.362638 89.7334434,473.570344 95.5566156,436.206277 C99.6492065,409.845797 100.795132,392.170055 88.0028621,368.762824 C70.3696419,336.47397 64.6634009,306.700846 76.1928141,273.011934" id="Fill-676" fill="#BD70A1"></path>
            <path d="M228.430968,96.425241 C220.518968,96.271241 221.277968,108.899241 224.796968,112.111241 C228.338968,115.323241 233.306968,112.991241 234.272968,107.667241 C234.778968,104.829241 236.342968,96.579241 228.430968,96.425241" id="Fill-677" fill="#17111C"></path>
            <path d="M91.6524399,99.1082537 C89.4674399,96.0062537 84.5224399,97.6562537 83.0734399,99.5702537 C80.1524399,103.442254 80.4744399,114.442254 87.1214399,114.618254 C93.7454399,114.794254 95.5394399,104.608254 91.6524399,99.1082537" id="Fill-678" fill="#17111C"></path>
            <path d="M236.735046,119.00162 C241.473884,118.934055 254.818076,120.938492 256.77491,132.829984 C258.731743,144.721476 247.580149,151.387919 236.90008,150.982527 C217.449624,150.216787 219.359305,119.294403 236.735046,119.00162" id="Fill-679" fill="#E781A7"></path>
            <path d="M65.6167656,119.579146 C75.9029036,116.765671 88.136306,124.513893 87.9988521,136.080404 C87.8384891,147.669243 71.8709208,155.864049 60.5767871,147.713902 C52.7190024,142.064621 55.3535366,122.392622 65.6167656,119.579146" id="Fill-680" fill="#E781A7"></path>
            <path d="M143.362988,132.182655 C151.851949,144.656655 168.233737,143.886655 176.627317,131.896655 C178.224958,129.608655 174.266622,127.474655 172.668981,129.762655 C166.135342,139.090655 153.902653,139.728655 147.321324,130.048655 C145.747528,127.760655 141.789192,129.872655 143.362988,132.182655" id="Fill-681" fill="#17111C"></path>
            <path d="M267,204.111396 C261.018654,200.769456 256.836384,194.041312 256.626103,187.512356 C254.289639,190.610843 244.710139,193.089633 242.233488,176.689782 C239.476461,189.614901 226.625913,194.329028 218.681937,176.955366 C214.96696,190.101806 201.438837,198.843967 192.420089,177.066027 C183.518163,201.411285 166.602168,187.623016 166.064782,176.822574 C154.00863,196.188121 139.592651,186.870526 137.045906,174.697897 C123.330866,192.093691 109.966296,182.045739 108.634511,169.961638 C99.1017408,186.759866 86.1110043,183.528586 81.9053702,178.526742 C78.8679678,174.94135 77.4660898,170.426411 76.1810349,166 C66.5781704,181.160457 54.0079974,177.309479 52.3257437,170.182958 L52.2556498,172.019919 C51.5547108,179.190704 47.3023474,186.361489 39.0546317,187.822205 C35.3162903,188.486166 34.311611,192.5142 35.4331134,196.807818 C42.0920341,213.738839 68.8679045,204.465509 77.1156203,185.985244 C76.9987971,195.74548 80.4801276,211.414973 93.6811457,212.233859 C106.905529,213.030613 113.260709,197.980817 114.77941,189.415712 C116.578487,201.699002 125.270131,214.579857 135.106642,214.624121 C144.943153,214.690517 152.186189,201.145701 154.289006,195.546291 C155.714249,201.278493 157.209585,207.143487 160.690916,212.012539 C164.195611,216.881591 170.176957,220.621908 176.34522,219.913682 C185.901356,218.829211 190.737835,208.736995 193.798602,200.083362 C203.144456,216.284025 221.36887,223.34415 228.354896,200.371079 C246.812956,225.424563 265.528028,212.6765 267,204.111396" id="Fill-682" fill="#BD70A1"></path>
            <path d="M196.057591,437.18619 C195.76408,427.438261 194.702924,418.193028 191.248522,408.969652 C188.132786,400.664241 182.601227,393.167516 180.366026,384.53426 C177.272868,372.556984 180.207981,360.863841 183.210828,349.323692 C187.974742,330.98622 196.531725,311.271799 189.058476,292.322349 C185.694385,283.820232 179.846737,280.213935 173.976511,273.810027 C157.991434,256.434234 169.68673,240.107546 175.895623,220.087136 L175.511801,220.174561 C171.176865,220.677257 166.977395,218.863181 163.681038,216 C156.546456,231.29944 150.585919,252.762369 159.436413,268.039952 C166.638729,280.498068 182.488338,281.590885 186.168518,297.174458 C190.029321,313.523002 179.688692,332.428739 174.247444,347.553328 C161.423259,383.135454 185.626651,400.008551 189.058476,413.996611 C193.348256,431.350547 185.649229,452.922757 186.732963,470.560826 C187.297408,479.609352 191.045322,489.247999 189.668076,498.252812 C188.471453,505.989958 186.416874,512.087878 186.484608,519.912448 C186.529763,524.08701 189.984165,523.999584 189.93901,519.825023 C189.826121,505.596544 200.97955,493.925257 195.470569,473.380294 C191.496877,458.627263 196.486569,451.152393 196.057591,437.18619" id="Fill-683" fill="#BD70A1"></path>
            <path d="M134.480546,216.592026 C131.861599,216.570244 129.311571,215.611848 126.991276,214 C129.885902,224.259196 132.091331,234.8669 128.645348,245.322131 C125.589909,254.579368 118.238478,261.549522 114.080324,270.240433 C108.268099,282.307513 109.853251,291.32515 113.68978,303.718956 C117.618201,316.417706 121.133104,327.134318 116.97495,340.726119 C113.850592,350.876407 107.509982,359.937607 103.604535,369.804732 C98.504479,382.7213 96.4598621,395.877466 99.2625953,409.599957 C103.030204,428.11443 116.676299,442.403246 122.143926,460.242485 C128.048044,479.497537 109.991091,495.790273 106.659973,514.522563 C103.972106,529.508395 108.451885,541.205185 115.826289,554.208879 C123.660158,568.105624 130.023741,577.341079 126.945329,594.505084 C125.38315,603.326686 121.523649,611.690871 119.938496,620.577818 C119.226326,624.651002 122.741229,625.348017 123.476373,621.253052 C126.072347,606.572164 135.468395,589.29925 132.849448,574.182728 C129.288598,553.664336 109.187028,547.957522 110.427582,526.023317 C111.507323,506.594012 132.344037,486.990453 130.712938,467.778965 C129.472384,453.032732 119.387139,440.203291 112.954636,427.221379 C98.4815058,397.946731 105.672125,374.531368 117.227656,347.129949 C122.695283,334.169818 127.749392,325.348216 123.820971,311.974233 C119.295246,296.618111 114.103298,280.12934 130.575099,250.549747 C136.961655,239.070774 136.915708,228.114563 134.480546,216.592026" id="Fill-684" fill="#BD70A1"></path>
            <path d="M251.197466,115 C233.142314,115 233.590157,77.10615 210.137316,57.3268745 C178.222595,30.4507161 145.647895,31.2830666 149.277782,17.6368997 C150.385605,13.3875316 155.877577,11 164.103749,11 C182.276755,11 213.861485,22.6310025 241.250633,51.2375737 C262.770677,73.7329402 272.128243,114.605729 251.456743,115 C251.362461,115 251.291749,115 251.197466,115" id="Fill-685" fill="#DDBBCE"></path>
        </g>
    </g>
</svg>