<?xml version="1.0" encoding="UTF-8"?>
<svg width="720px" height="720px" viewBox="0 0 720 720" version="1.1" xmlns="http://www.w3.org/2000/svg" xmlns:xlink="http://www.w3.org/1999/xlink">
    <title>img_t</title>
    <g id="img_t" stroke="none" stroke-width="1" fill="none" fill-rule="evenodd">
        <g id="tiger" transform="translate(97.000000, 24.000000)">
            <path d="M121.874055,316.749189 C110.289386,317.475824 96.9884701,315.188268 79.2092211,304.530944 C54.4845339,289.729106 49.9525685,278.856484 42.9266813,267.768561 C40.7545558,264.377595 29.7062141,242.847649 24.7720032,245.700367 C19.8377923,248.579997 24.2356759,263.893171 27.9095177,273.366347 C20.776365,267.176488 9.56712506,253.289673 4.20385236,255.954003 C-1.15942034,258.645247 8.73581779,276.595839 11.1492905,280.175193 C2.43397237,274.981093 -5.58412032,279.798419 5.16924145,295.353805 C26.8368632,326.706789 62.3417284,363.926683 110.343019,365.622166 C113.560983,349.609269 117.395723,333.24651 121.874055,316.749189" id="Fill-1752" fill="#E28248"></path>
            <path d="M32.7028715,299.796635 C29.507063,301.882035 19.4321411,305.104927 14.6925945,308.056987 L18.6196474,312.959033 C22.6008665,310.142388 30.2112242,302.450781 32.7028715,299.796635" id="Fill-1753" fill="#2A3B55"></path>
            <path d="M109.794982,366.40767 C108.874156,360.584798 108.197078,347.964063 107.628332,347.909896 C106.815839,347.85573 99.8013098,359.663972 96.7138338,364.999347 C100.965884,365.730592 105.326267,366.218088 109.794982,366.40767" id="Fill-1754" fill="#2A3B55"></path>
            <path d="M54.6943678,320.149602 C51.5256423,322.207919 38.3361612,330.630771 36.7111738,331.687013 C39.7986499,334.557824 42.9944584,337.347385 46.3256826,340.001531 C46.2985995,339.026539 53.0964635,326.297471 54.6943678,320.149602" id="Fill-1755" fill="#2A3B55"></path>
            <path d="M65.3661642,354.101329 C69.8077964,356.537664 74.4390105,358.703294 79.2327234,360.544081 C80.7493783,356.29403 85.6243405,337.26355 82.6451969,331.768262 C81.0743758,333.04057 70.7015395,347.604437 65.3661642,354.101329" id="Fill-1756" fill="#2A3B55"></path>
            <path d="M216.964764,263.339176 C180.841705,262.588042 158.36871,258.00076 143.1096,252.313604 C95.1064256,381.884193 81.3222737,526.853027 131.444024,554.698632 C175.585491,579.217787 277.169863,580.39814 327.827962,541.875704 C379.263766,502.763091 321.284513,318.493861 306.26676,248.826196 C282.935608,258.429979 253.114641,264.090309 216.964764,263.339176" id="Fill-1757" fill="#E28248"></path>
            <path d="M306.424575,359.657166 C292.829595,362.961307 278.299793,366.807111 269.138539,377.559111 C290.452476,379.563262 315.559119,377.667443 336.846348,374.579967 C335.350633,367.294607 333.801499,360.03633 332.225657,352.859302 C324.426572,354.782204 313.929859,357.842597 306.424575,359.657166" id="Fill-1758" fill="#2A3B55"></path>
            <path d="M312.921956,323.088341 C315.812518,322.980008 321.269467,323.440422 324.997481,323.657087 C323.295561,316.561308 321.620656,309.682195 319.972766,303.019746 C297.226474,306.703051 271.994839,314.340492 255.596977,329.859122 C274.831372,331.32161 293.633532,323.846668 312.921956,323.088341" id="Fill-1759" fill="#2A3B55"></path>
            <path d="M264.060453,276.890038 C278.929619,277.07962 296.533649,275.535882 311.455919,272.74632 C310.261076,267.681776 309.119336,262.942229 308.110357,258.473514 L307.924493,257.986018 C296.931931,261.940154 285.939369,265.921373 274.946807,269.902592 C270.831234,271.392164 266.397037,273.125484 264.060453,276.890038" id="Fill-1760" fill="#2A3B55"></path>
            <path d="M313.674925,426.839533 C319.704414,426.758284 325.707342,426.162455 331.71027,425.539543 C334.47268,425.268712 341.033402,425.106213 345.309824,424.862465 C344.619221,419.743755 343.875496,414.570878 343.025524,409.343835 C327.061985,412.377145 303.422137,418.443765 289.61009,424.997881 C287.591406,425.94579 305.281451,426.947866 313.674925,426.839533" id="Fill-1761" fill="#2A3B55"></path>
            <path d="M332.395853,537.01153 C336.336852,532.596981 339.49505,526.828276 341.924433,519.949163 C327.753031,518.459591 310.477418,515.615863 301.299748,515.859611 C307.022295,520.761656 320.329916,530.646996 332.395853,537.01153" id="Fill-1762" fill="#2A3B55"></path>
            <path d="M348.380679,462.011003 C324.022543,466.046388 295.02859,469.350529 270.831234,471.490096 C283.26487,476.90672 297.225914,477.150469 310.758212,477.962962 C322.093186,478.64004 336.750942,480.752524 348.568256,482.512927 C348.782629,475.985894 348.729036,469.133864 348.380679,462.011003" id="Fill-1763" fill="#2A3B55"></path>
            <path d="M144.48655,252.211587 L144.459888,252.238457 C118.518357,322.745989 102.681491,397.794592 101.561713,456.103031 L101.641697,459.757385 C103.694624,529.727511 230.309563,532.495147 237.614783,456.667306 C243.800226,392.15184 239.294451,326.749656 226.603629,263.228389 C223.724199,263.228389 220.844769,263.282129 217.885355,263.228389 C211.246669,263.094037 205.194534,262.771594 199.435674,262.395411 C174.107354,260.702585 156.830773,256.83327 144.48655,252.211587" id="Fill-1764" fill="#EBA877"></path>
            <path d="M337.573893,67.8975476 C298.924794,37.4956254 248.348616,31.6346915 200.506286,32.1966988 C179.78801,32.4643214 158.90892,34.0700567 139.048323,40.4394735 C62.3933838,65.0875108 59.3915121,194.215393 110.744961,231.093781 C124.843037,241.236676 139.584371,260.666074 217.793851,262.298571 C296.00333,263.931069 345.855843,236.472995 360.141536,201.227104 C377.187879,159.183601 376.222991,98.2727075 337.573893,67.8975476" id="Fill-1765" fill="#E28248"></path>
            <path d="M139.106617,40.0586328 L141.865029,39.2542425 L142.186398,39.1201775 C125.26099,17.8842758 99.4176068,6.81050383 71.3782052,0 C63.9867297,42.0964213 79.1446106,74.1915909 86.7771125,91.4055416 C96.739536,67.6492172 113.90597,48.1829739 139.106617,40.0586328" id="Fill-1766" fill="#E28248"></path>
            <path d="M338.045633,68.8540109 C348.318719,76.8098831 355.888362,86.8944167 361.24118,98.1763224 C379.624597,75.905202 385.788448,36.7910477 383.923072,12.6573485 L383.030936,10.3158209 L380.43563,10.1561713 C352.265747,16.5421556 325.934206,30.3518468 304.685139,49.616233 C316.472153,54.5387626 327.691444,60.8183139 338.045633,68.8540109" id="Fill-1767" fill="#E28248"></path>
            <path d="M82.0742065,104.947103 C79.7935321,112.553047 78.1836443,120.425865 77.1908802,128.405434 C90.0968138,127.925058 105.79322,126.217057 110.220411,124.108743 C101.983152,116.956487 92.3506567,109.991045 82.0742065,104.947103 Z M76.1712846,151.650264 C76.4664307,160.243645 77.4591948,168.703589 79.1764085,176.789908 C90.5261172,172.89353 106.088366,166.43515 115.747692,159.683207 C103.834523,154.986204 88.2722744,152.557639 76.1712846,151.650264 Z M98.7097134,220.050378 C104.585804,212.60456 114.674434,199.234112 119.36994,191.147793 C109.925265,193.709795 98.0389268,198.033174 87.2795102,201.555926 C90.4187914,208.414619 94.2556906,214.632811 98.7097134,220.050378 Z M349.959531,218.742689 C354.386723,213.325123 357.928476,207.613993 360.343307,201.662676 L360.960431,200.00805 C351.059621,196.725485 338.74398,192.668982 333.726496,191.067731 C337.134092,198.700362 344.24443,210.22937 349.959531,218.742689 Z M331.821462,162.405334 C340.246542,166.675337 353.957419,172.760092 367.614634,177.697283 C369.305016,169.77109 370.324611,161.578021 370.700252,153.331577 C357.874813,155.413204 344.888385,158.855894 331.821462,162.405334 Z M366.031577,111.912546 C352.615846,117.089925 338.9318,123.92193 329.326136,129.552997 C341.534452,130.27356 356.318588,132.648749 370.10996,132.568687 C369.358679,125.523181 368.017106,118.584426 366.031577,111.912546 L366.031577,111.912546 Z" id="Fill-1768" fill="#2A3B55"></path>
            <path d="M216.664145,147.668082 C229.516392,147.988619 240.967555,149.564589 251.340962,151.995322 C258.346379,120.155389 281.733696,64.8628878 302.992443,48.2217148 C270.740579,34.8393269 234.231577,31.7942326 199.177546,32.1949029 C179.427657,32.4353051 159.462218,33.6907387 140.493703,39.4871023 C156.821714,62.5390001 178.457676,123.280617 183.873403,152.342569 C194.004314,149.19063 204.970487,147.374258 216.664145,147.668082" id="Fill-1769" fill="#C06646"></path>
            <path d="M179.409245,84.6347607 C179.676946,64.1943319 176.62515,48.4237138 174.028447,34.7344972 L173.841056,33.8539043 C164.284116,34.7078125 154.834257,36.1754673 145.571788,38.6571382 C151.113207,45.7819352 172.315158,76.5760016 179.409245,84.6347607" id="Fill-1770" fill="#2A3B55"></path>
            <path d="M222.159333,96.4836272 C226.953605,75.6364342 232.822003,54.5236719 235.284635,33.251568 C225.119731,32.45486 214.928629,32.1361768 204.816121,32.1627337 C207.881311,47.7782108 217.443656,89.1539135 222.159333,96.4836272" id="Fill-1771" fill="#2A3B55"></path>
            <path d="M268.038737,37.2392947 C260.507093,51.7563404 253.866289,66.3809199 250.518892,84.6347607 C267.498834,73.5587925 281.13138,58.5309618 296.221662,45.0354859 C287.07031,41.7557089 277.649007,39.1480174 268.038737,37.2392947" id="Fill-1772" fill="#2A3B55"></path>
            <path d="M337.638191,68.2278862 C341.384907,71.1322862 344.666702,74.4167013 347.729711,77.8639798 C354.64883,69.5850825 364.275429,54.4387719 363.919901,35.5465995 C347.975846,39.0753099 330.965207,49.0914185 321.612091,57.3974598 C327.136446,60.627587 332.496712,64.1834412 337.638191,68.2278862" id="Fill-1773" fill="#C06646"></path>
            <path d="M121.874055,48.6552783 C115.075561,41.0433596 99.1681473,30.3813689 84.8275738,23.697733 C83.3669599,24.8116723 90.4575768,55.683705 97.5481937,71.093199 C104.107678,62.0755949 112.234003,54.4106315 121.874055,48.6552783" id="Fill-1774" fill="#C06646"></path>
            <path d="M324.18848,241.258479 C335.611328,214.276971 309.226159,151.248384 217.897009,148.988717 C148.153287,147.267065 102.435084,216.482837 130.026891,246.504136 L130.911759,247.015251 C145.632753,255.219997 169.7119,262.967429 217.789753,263.989659 C263.400699,264.958088 299.278093,255.919418 324.18848,241.258479" id="Fill-1775" fill="#EFC29E"></path>
            <path d="M248.081096,160.044195 C239.810757,155.464893 186.598703,151.34623 183.06187,165.409295 C182.104532,169.175704 184.072394,173.050498 185.854107,176.491749 C188.407009,181.477498 196.30505,191.801251 207.793109,194.619283 C212.393652,195.730238 217.020787,196.759904 221.7277,196.190878 C231.859531,194.998634 243.188034,184.75617 247.894947,179.987193 C251.059482,176.762713 254.224017,172.616954 253.878312,168.064748 C253.638977,164.542208 251.13926,161.724176 248.081096,160.044195" id="Fill-1776" fill="#17111C"></path>
            <path d="M245.209824,224.15418 C243.155562,228.172691 239.020359,232.46457 233.604577,232.46457 L232.750857,232.437233 C224.72056,231.753813 222.292795,222.26794 221.545791,216.718568 L221.759221,196.516666 L215.169574,196.352645 L214.956145,217.073946 C213.462136,224.208853 210.207331,228.664753 205.138372,230.250288 C200.042734,231.808486 194.120056,229.648878 191.478862,225.274989 L186.196474,225.466346 L186.303188,228.500732 C189.477957,233.722063 195.347278,236.947806 201.590101,236.947806 L206.819132,236.209712 C211.621303,234.760862 215.356325,231.589792 217.970841,226.751176 C220.692071,233.448695 225.147419,237.494542 231.043419,238.451331 L233.604577,238.670025 C240.300938,238.670025 246.943942,234.159452 250.518892,227.188565 L250.465534,224.15418 L245.209824,224.15418" id="Fill-1777" fill="#17111C"></path>
            <path d="M314.673555,142.979458 C310.99025,140.244063 305.952789,141.760718 303.136145,145.931519 C300.861162,149.289826 299.994502,154.462703 301.565323,158.443922 C303.136145,162.452224 312.181908,166.975106 317.571449,157.333514 C320.09018,152.864798 318.35686,145.714854 314.673555,142.979458" id="Fill-1778" fill="#17111C"></path>
            <path d="M148.616767,146.285671 L145.583457,140.164885 C143.254308,137.889903 140.0585,137.537822 137.350187,138.783646 C134.614792,140.002386 132.33981,142.656532 130.660656,145.798175 L128.87317,151.106467 C128.412757,154.60019 129.550248,158.256411 131.446067,160.720976 C133.341885,163.18554 140.49183,165.893852 146.125119,157.850165 C148.237603,154.816855 149.320928,150.321056 148.616767,146.285671" id="Fill-1779" fill="#17111C"></path>
            <path d="M275.529599,565.087774 C275.529599,574.915633 275.556497,584.770416 275.556497,594.598275 C275.556497,601.679718 275.556497,608.815012 274.426808,615.788752 C273.377812,622.116278 270.983949,628.901539 265.389302,632.024913 C262.269211,633.748154 258.503583,634.152038 255.544876,636.11761 C252.559271,638.056256 250.837841,642.849019 253.608267,645.056922 C258.315302,648.826511 262.995439,648.826511 268.374907,647.210973 C263.318207,651.519075 256.298001,656.473393 259.310503,662.262405 C262.349903,668.024492 275.099242,662.66629 280.209736,659.32751 C276.874466,663.016323 275.529599,669.370774 278.192436,671.12094 C286.288535,676.506068 309.958194,656.042583 315.875609,639.887199 C320.905411,626.208975 326.365571,569.395877 328.382872,541.662469 C313.992795,552.513501 295.595015,560.214234 275.529599,565.087774" id="Fill-1780" fill="#E28248"></path>
            <path d="M325.267104,574.348145 C325.804112,568.958604 326.26057,563.731561 326.690176,558.775349 C312.996462,563.37948 299.437,568.308609 286.065491,573.806483 C299.034244,575.648135 312.24465,575.810634 325.267104,574.348145" id="Fill-1781" fill="#2A3B55"></path>
            <path d="M274.458225,589.101357 L274.458225,593.651322 C274.458225,597.767956 274.431381,601.884591 274.216625,606.001226 C284.444381,605.0804 294.618449,603.049166 304.685139,599.826274 C295.987519,590.157599 285.142338,588.69511 274.458225,589.101357" id="Fill-1782" fill="#2A3B55"></path>
            <path d="M317.392341,633.189884 C318.234692,629.479496 319.104216,624.767033 319.919395,619.404574 C310.327456,619.512907 300.735516,619.621239 291.143577,619.729572 C299.132331,625.931607 308.072127,630.508655 317.392341,633.189884" id="Fill-1783" fill="#2A3B55"></path>
            <path d="M131.494542,555.144546 C124.998623,551.544514 119.620854,545.144458 115.228122,536.584383 C115.760574,551.544514 116.186536,569.811342 115.334612,577.091406 C113.550897,592.02487 109.504259,605.198319 101.27787,612.425049 C94.1962529,618.61177 70.794971,630.451874 74.9747221,635.99859 C79.1810959,641.571972 86.928278,641.198636 91.8534625,639.571955 C86.715297,644.158662 80.9381887,647.652026 84.478997,652.3454 C88.8184839,658.078784 96.4059303,654.58542 107.906902,649.652043 C103.913509,653.785413 103.51417,656.90544 105.324508,658.665456 C107.960147,661.278812 115.334612,659.972134 119.727344,658.345453 C137.138537,651.91873 151.993958,637.571937 156.78603,619.625113 C158.622991,612.665051 158.969085,605.411654 159.315179,598.211591 C159.821008,587.518164 160.300216,576.824736 160.806045,566.131309 C149.5713,563.304618 139.534573,559.624585 131.494542,555.144546" id="Fill-1784" fill="#E28248"></path>
            <path d="M159.979154,585.835043 C160.254784,580.093421 160.530415,574.324715 160.806045,568.583093 C151.269232,572.320564 141.677292,574.839295 132.030227,575.976786 C141.29141,580.310086 150.607719,583.587144 159.979154,585.835043" id="Fill-1785" fill="#2A3B55"></path>
            <path d="M140.493703,594.799557 C132.68162,588.110025 124.396078,583.289229 115.90011,580.472584 C114.979494,586.67462 113.664329,592.524574 111.717884,597.643285 C121.318591,597.480786 130.945602,596.55996 140.493703,594.799557" id="Fill-1786" fill="#2A3B55"></path>
            <path d="M128.644836,610.52131 C134.591243,618.375416 143.8109,624.360786 153.930702,628.531587 C155.485497,625.444111 156.849351,622.248302 157.749495,618.889995 L159.11335,611.875466 C148.938994,612.146297 138.764638,611.74005 128.644836,610.52131" id="Fill-1787" fill="#2A3B55"></path>
            <path d="M547.623466,175.878074 C544.68413,166.246068 535.198091,163.106946 525.204348,162.624004 C493.48624,161.148348 466.230578,172.738952 444.372606,195.89333 C425.747904,215.667116 395.045202,246.575393 409.875489,314.884833 C414.364657,335.597672 445.868995,396.367853 420.216608,450.457339 C401.110923,490.756152 368.537735,494.914818 348.523528,492.446449 C347.160745,508.973792 343.580099,522.952275 336.846348,532.879412 C354.134988,535.723403 372.091659,535.723403 388.658826,531.779378 C408.218772,527.137771 424.759218,513.85687 437.612133,498.375901 C462.516326,468.379847 475.583011,428.751786 473.418591,389.767648 C471.922201,362.642415 463.424848,336.456235 458.908959,309.679793 C454.419791,282.876521 452.01488,252.156054 468.341556,230.477332 C498.269341,190.66146 524.616481,203.80821 539.206277,196.966534 C546.84855,193.371301 550.08182,183.953935 547.623466,175.878074" id="Fill-1788" fill="#E28248"></path>
            <path d="M408.172959,305.589418 C412.022821,302.982233 415.872683,300.375048 419.722545,297.767864 L423.114732,293.037301 C417.568776,292.768519 412.022821,292.472859 406.449943,292.177199 C406.826853,296.450832 407.392217,300.939491 408.172959,305.589418 Z M406.746087,501.612099 L406.638398,502.875374 C407.580672,509.48741 408.819089,516.072568 410.192117,522.60397 C416.518814,518.787266 422.387835,514.164216 427.772257,509.003603 C421.499405,505.294412 413.126628,501.235804 408.57679,501.020779 L406.746087,501.612099 Z M503.34263,186.196474 C503.692617,191.491478 504.446437,196.732726 505.361788,201.947096 C510.423146,200.441917 515.215282,199.769962 519.657431,199.366789 C513.949943,195.33506 508.457832,190.980792 503.34263,186.196474 Z M422.737822,221.595057 C426.937672,222.374525 431.110599,223.127114 435.310449,223.879704 C434.852773,218.772847 433.829733,213.692868 432.26825,208.801036 C429.037597,212.644618 425.780021,216.891373 422.737822,221.595057 Z M433.15668,472.664282 C436.360412,478.738755 440.102585,484.490688 444.140902,490.054475 C447.533089,485.350791 450.682976,480.485837 453.53672,475.459615 C446.671581,475.029564 439.860286,474.115705 433.15668,472.664282 Z M452.352147,409.527401 L452.109848,410.064965 C452.029082,410.656285 466.486257,414.553623 472.920642,416.811392 C473.647539,410.844432 474.05137,404.850595 474.078293,398.856757 C470.98225,400.227545 455.098203,405.603184 452.352147,409.527401 Z M369.674336,491.801558 C372.958834,494.220595 382.893094,506.20827 385.77376,508.466039 L386.581424,508.842334 L387.631386,507.632815 C390.054376,499.838138 392.450444,491.479019 391.831236,483.523073 C384.454577,488.011732 376.889463,490.511404 369.674336,491.801558 Z M345.309824,534.188472 C351.744209,534.833549 358.205516,535.021696 364.612979,534.806671 C363.966848,526.393795 359.282401,510.643173 357.667074,509.971218 C356.024825,509.299263 347.382826,529.995474 345.309824,534.188472 Z M456.094321,281.748459 C455.771255,274.706372 455.932788,267.691163 456.84814,260.917857 C451.24834,262.638062 429.306818,274.571981 427.718413,277.55546 C430.518313,278.388684 450.359911,281.479677 456.094321,281.748459 Z M481.078042,216.165662 C476.258984,212.805887 470.874561,210.279337 465.167073,208.827914 C467.886206,214.230432 470.174586,219.821096 472.274511,225.465517 C475.262866,221.890717 478.197376,218.799725 481.078042,216.165662 Z M461.1826,319.458567 C459.701884,320.936868 440.721794,330.828044 439.321844,333.945915 C447.883076,336.472465 456.659685,338.219548 465.51706,339.37531 C464.036344,332.736396 462.528706,326.097482 461.1826,319.458567 Z M425.914632,367.301756 C426.991516,372.059196 427.93379,376.977906 428.660687,382.004129 C436.4681,377.488592 444.275513,372.973055 452.109848,368.43064 C443.387083,367.67805 434.637396,367.38239 425.914632,367.301756 Z M442.821719,438.797756 C438.110349,433.610264 433.425901,428.422772 428.714531,423.262159 C427.583803,430.008586 425.780021,436.781891 423.168576,443.50144 C431.191366,444.307786 440.479495,444.764715 446.91388,444.012126 L442.821719,438.797756 L442.821719,438.797756 Z" id="Fill-1789" fill="#2A3B55"></path>
            <path d="M308.498613,304.058401 C304.574375,292.171616 288.931181,289.119604 281.700907,297.847288 C277.749791,302.639483 275.787672,309.252176 276.513388,315.382973 C280.115085,346.465308 284.684403,356.852858 273.771797,397.412495 C260.977707,445.066721 225.041366,459.229129 233.051111,464.904801 C241.087735,470.580473 248.909332,464.690624 254.956958,456.766101 C250.871451,463.05753 243.668055,472.561603 248.855575,477.353798 C254.069973,482.145993 265.78893,471.624582 270.438883,466.859159 C268.449885,471.972619 257.268496,481.98536 263.154852,485.492497 C269.041209,488.972862 302.746648,463.405567 317.475978,400.678683 C329.651867,348.821247 311.347717,312.652225 308.498613,304.058401" id="Fill-1790" fill="#EAA65B"></path>
            <path d="M317.88576,336.846348 C312.973343,339.397038 308.245801,342.243072 303.8616,345.652943 C309.038126,346.055684 314.214652,346.458424 319.391179,346.834315 C318.995016,343.317047 318.466799,340.014574 317.88576,336.846348 Z M306.000879,378.382332 L318.625264,386.759337 C319.232713,382.75878 319.655287,378.89247 319.919395,375.106708 C315.37673,376.126985 306.02729,378.274935 306.000879,378.382332 Z M296.123222,451.949622 C298.394555,448.056463 300.639477,443.86796 302.805166,439.223018 C296.017579,438.632332 289.256402,437.477809 282.680101,435.625202 C288.015092,440.162746 291.263626,447.089885 296.123222,451.949622 Z M311.071762,417.958312 C312.392304,413.957755 313.607203,409.742403 314.742869,405.339106 C305.551895,405.15116 296.387331,404.667871 287.249177,403.647595 C294.459339,408.910073 309.064537,416.562145 311.071762,417.958312 L311.071762,417.958312 Z" id="Fill-1791" fill="#2A3B55"></path>
        </g>
    </g>
</svg>