<?xml version="1.0" encoding="UTF-8"?>
<svg width="720px" height="720px" viewBox="0 0 720 720" version="1.1" xmlns="http://www.w3.org/2000/svg" xmlns:xlink="http://www.w3.org/1999/xlink">
    <title>img_u</title>
    <g id="img_u" stroke="none" stroke-width="1" fill="none" fill-rule="evenodd">
        <g id="unicorn" transform="translate(24.000000, 41.000000)">
            <path d="M90.5370594,327.212356 C129.27553,286.786158 186.499469,320.156147 198.65127,346.028914 C165.460895,262.26093 83.663313,278.039398 52.7314543,333.362038 C15.9569112,399.146489 37.2164268,473.824703 0,484.580522 C59.6542989,487.300102 44.2129186,375.552289 90.5370594,327.212356" id="Fill-1146" fill="#F0C0D0"></path>
            <path d="M80.0791453,412.992654 C98.7610059,361.491368 127.409799,290.348303 198.65127,345.487866 C186.499469,319.528268 129.27553,286.046286 90.5370594,326.608158 C44.2129186,375.110324 59.6542989,487.233172 0,484.504464 C57.4694295,495.96012 68.0500891,446.155058 80.0791453,412.992654" id="Fill-1147" fill="#FDF6B1"></path>
            <path d="M105.41381,432.892378 C125.985951,367.93698 148.472922,318.936838 198.65127,346.359162 C127.409799,291.045966 98.7610059,362.413059 80.0791453,414.076521 C68.0500891,447.343351 57.4694295,497.305248 0,485.813518 C16.4969913,497.872436 78.2870614,518.46384 105.41381,432.892378" id="Fill-1148" fill="#9D99BF"></path>
            <path d="M198.65127,344.959349 C148.472922,317.558366 125.985951,366.520375 105.41381,431.425221 C78.2870614,516.930087 16.5215404,496.354708 0,484.305175 C8.862223,508.133189 88.2785427,554.162897 128.539057,441.675948 C146.90178,390.373029 153.309093,338.183027 198.65127,344.959349" id="Fill-1149" fill="#92C9DB"></path>
            <path d="M553.336408,90.4532396 C451.240594,92.9835106 474.638575,226.105247 432.143712,272.509926 C399.357044,308.277641 335.921971,298.451346 311.516303,301.890549 C279.196612,306.435211 182.851983,302.946876 168.965576,365.417548 C150.65518,447.688206 220.726236,500.676504 327.319772,501.683699 C388.370807,502.273277 486.018055,488.123411 524.777107,391.358968 C568.279656,282.680142 551.788012,204.364568 578.602295,209.42511 C627.118698,218.588131 648.648773,218.465302 661.03594,192.450185 C671.039068,171.446479 668.581297,146.119203 620.75307,120.128651 C596.888113,107.182507 583.27206,89.7162674 553.336408,90.4532396" id="Fill-1151" fill="#B1D9CD"></path>
            <path d="M588.193995,210.8971 C629.905963,218.095286 649.435987,216.240083 661.010252,191.949298 C670.998323,170.997878 668.594246,145.791859 621.75193,119.917968 C605.865197,148.265462 594.489206,179.061825 588.193995,210.8971" id="Fill-1152" fill="#F0AEAC"></path>
            <path d="M557.009553,110.28407 C551.993609,110.507553 543.302616,115.126195 544.320703,118.726749 C545.338791,122.352135 553.359336,117.112707 557.183373,116.044957 L560.759096,113.437659 L557.009553,110.28407" id="Fill-1153" fill="#9D99BF"></path>
            <path d="M546.290993,132.935285 C550.119996,139.376596 560.662185,150.726711 569.563374,147.182793 C578.215925,143.758602 575.878742,129.654767 574.038831,123.021894 L570.682238,123.955764 C572.000012,128.696951 574.735014,142.345824 567.723463,144.261455 C560.786504,146.153141 552.208543,136.143968 549.249768,131.163327 L546.290993,132.935285" id="Fill-1154" fill="#17111C"></path>
            <path d="M641.431551,158.90639 C634.478757,156.944709 631.623145,174.078381 640.587283,174.202538 C649.501759,174.351526 648.384346,160.84324 641.431551,158.90639" id="Fill-1155" fill="#17111C"></path>
            <path d="M573.509724,162.378029 C564.892316,148.638274 549.222043,158.924851 548.079678,166.074387 C547.011814,172.61597 549.669055,177.430964 553.791504,179.18187 C564.147295,183.583456 582.127132,176.117783 573.509724,162.378029" id="Fill-1156" fill="#E998B8"></path>
            <path d="M590.74412,102.846374 C593.310837,86.0915082 586.053859,67.5202962 582.268412,51.0063741 C577.319633,54.4537249 565.446256,68.1875254 561.827,92.8564707 C573.885033,93.1159487 582.397671,97.41587 590.74412,102.846374" id="Fill-1157" fill="#B1D9CD"></path>
            <path d="M367.815242,301.520148 C354.925042,303.160651 334.325273,294.709576 318.488741,287.824435 C302.652208,280.939294 284.925113,274.948974 268.499314,280.243324 C253.423918,285.090264 242.69436,298.487704 234.34642,312.059136 C247.506702,307.709318 261.968279,307.460757 275.275877,311.313453 C282.862681,313.525646 290.007535,317.005501 297.520681,319.416543 C334.644459,331.29776 357.969584,312.581114 367.815242,301.520148" id="Fill-1158" fill="#9D99BF"></path>
            <path d="M284.009238,290.407696 C321.308453,277.435889 341.311264,313.333478 397.604539,302.552033 C422.724921,297.757575 438.446687,278.579744 442.309469,245.626975 C402.107017,295.859262 323.645805,242.025047 284.009238,290.407696" id="Fill-1159" fill="#F0C0D0"></path>
            <path d="M462.484988,205.275935 C435.416076,270.907278 374.134035,232.563079 335.224018,268.357535 C402.636735,305.917198 437.616198,291.060047 450.891089,260.09539 C462.114181,233.9115 462.484988,205.275935 462.484988,205.275935" id="Fill-1160" fill="#92C9DB"></path>
            <path d="M434.96301,194.372456 C421.350076,217.276825 400.36755,237.262495 374.023095,239.612296 C431.731162,276.36812 482.363442,224.944595 473.990019,155.613118 C453.05646,158.507082 447.204857,173.768417 434.96301,194.372456" id="Fill-1161" fill="#FDF6B1"></path>
            <path d="M458.463909,132.269575 C421.113455,160.730107 428.027472,205.340565 370.919169,203.482828 C384.205891,214.876949 405.095572,223.373 425.813018,217.131003 C482.552246,200.039822 464.147674,150.648787 495.076212,121.469931 C484.91433,121.51947 468.896447,124.318461 458.463909,132.269575" id="Fill-1162" fill="#9D99BF"></path>
            <path d="M449.332159,109.237402 C422.525368,121.742033 417.512916,172.790351 383.334873,183.946443 C417.930621,198.804888 437.366158,190.125202 456.506845,167.298121 C470.192805,150.968543 495.083069,112.841678 516.803695,110.733054 C483.43649,102.053368 470.954501,99.1356211 449.332159,109.237402" id="Fill-1163" fill="#E998B8"></path>
            <path d="M556.534559,61.4283599 C545.135145,35.4475315 540.083141,20.2021376 529.501987,0 C528.286281,17.3622434 526.503169,45.6027723 524.672933,75.0114103 C523.588302,92.4394911 528.286281,104.399541 530.413766,112.32 C538.33274,103.324365 549.139014,93.8269815 561.6,86.1573963 C560.806414,77.3767964 561.827,73.4905593 556.534559,61.4283599 Z" id="Fill-1165" fill="#F8D9E1"></path>
            <path d="M661.136259,99.135838 C638.53148,107.372397 603.090329,69.36691 575.061386,67.2894397 C547.032442,65.2119693 535.987762,87.0376284 527.667436,100.211234 C565.072086,94.3943174 590.622113,119.763896 604.022991,126.509565 C617.399326,133.255233 652.374146,136.774712 661.136259,99.135838" id="Fill-1164" fill="#9D99BF"></path>
            <path d="M547.842956,106.514569 C547.090067,102.537032 545.167797,98.7867832 543.037281,95.3125266 C536.389431,84.4676511 527.627083,74.9540327 517.390995,67.4860046 C513.594512,75.0027372 511.25575,87.9906121 512.809585,101.465532 C513.738682,109.388136 516.237633,114.778104 518.256017,118.366005 C525.768889,114.291059 536.020995,109.988825 547.842956,106.514569" id="Fill-1165" fill="#B1D9CD"></path>
            <path d="M519.117934,83.8125866 C517.813924,84.1336745 516.724497,102.83705 522.534771,116.081929 C523.42612,118.136892 541.335627,110.848195 541.121043,110.270236 C535.426315,94.9543396 520.405438,83.4914986 519.117934,83.8125866" id="Fill-1166" fill="#7EBEB6"></path>
            <path d="M671.685683,457.317457 C637.194234,383.80085 583.321405,352.279683 540.608301,344.95261 C536.732025,358.574081 531.991611,372.90859 526.115473,387.833199 C561.396991,394.127598 605.147061,413.256668 642.033406,475.659728 C646.008441,481.511551 675.339752,464.619943 671.685683,457.317457" id="Fill-1167" fill="#A2D3C4"></path>
            <path d="M641.671734,475.668701 C645.694744,481.477117 675.38006,464.710808 671.681889,457.46249 C668.683372,451.190377 665.53493,445.284341 662.261549,439.622356 C658.713304,452.87433 641.521808,461.538143 633.200924,462.367917 C635.24991,465.467366 639.672722,472.349607 641.671734,475.668701" id="Fill-1168" fill="#9D99BF"></path>
            <path d="M240.175411,486.181247 C239.174365,517.698315 231.898466,592.085506 196.886254,616.32181 C190.416076,620.76431 209.118554,640.878962 216.247959,637.991337 C237.465261,630.735254 285.735235,577.326534 288.665127,498.595566 C270.939279,496.078149 254.678378,491.907136 240.175411,486.181247" id="Fill-1169" fill="#A2D3C4"></path>
            <path d="M216.801018,637.993132 C221.288206,636.521757 226.828253,633.088547 232.794457,627.938733 C222.692019,624.603615 213.391759,616.069637 205.720924,608.786328 C202.988503,611.680033 200.105673,614.353032 196.922026,616.486527 C190.278983,620.87613 209.481137,640.862315 216.801018,637.993132" id="Fill-1170" fill="#9D99BF"></path>
            <path d="M521.583196,399.271316 C513.919627,416.259355 504.370771,430.527329 493.524249,442.495612 C532.552139,453.969338 578.50907,476.644784 606.053847,525.581215 C611.195539,534.730523 641.507036,516.40718 637.49162,508.939367 C608.942988,455.848655 567.564611,412.871638 521.583196,399.271316" id="Fill-1171" fill="#B1D9CD"></path>
            <path d="M628.83999,493.941062 C620.589166,503.003055 610.356162,510.227822 599.057737,514.920196 C601.362021,518.321547 603.567196,521.871862 605.673262,525.571141 C610.876484,534.757271 641.550718,516.360184 637.48725,508.862316 C634.736975,503.772704 631.81326,498.832056 628.83999,493.941062" id="Fill-1172" fill="#9D99BF"></path>
            <path d="M175.805582,433.414503 C173.371178,485.335554 162.256525,530.963143 112.781566,580.253724 C107.076699,585.957172 126.379802,608.328458 133.264986,603.436276 C189.698898,563.364632 219.083877,514.860734 225.034642,479.582937 C202.731566,468.151456 185.813688,452.540724 175.805582,433.414503" id="Fill-1173" fill="#B1D9CD"></path>
            <path d="M133.16008,603.4364 C137.564696,600.290233 141.798022,597.094907 145.884527,593.850422 C133.992063,584.805191 127.091498,574.481829 123.910386,568.435289 C120.435633,572.367998 116.74065,576.300707 112.776495,580.257996 C107.099435,585.960424 126.308455,608.327707 133.16008,603.4364" id="Fill-1174" fill="#9D99BF"></path>
            <path d="M306.808056,385.303649 C306.808056,385.303649 306.956895,392.774387 306.634409,395.827214 L297.976905,398.90486 L307.57706,402.677459 L309.983301,411.687021 L313.505838,404.638218 L322.808314,405.730286 L317.053182,397.862432 L321.74163,389.026608 L311.794183,394.040194 L306.808056,385.303649" id="Fill-1175" fill="#F8D9E1"></path>
            <path d="M494.787095,272.62688 L483.887895,261.146605 L483.200558,275.006338 C483.200558,275.006338 471.8595,276.57629 468.692841,277.434858 L481.973171,288.326401 L480.082995,307.705497 L492.356868,294.115599 L510.055793,302.872988 L500.580363,282.782507 L510.595843,268.137798 L494.787095,272.62688" id="Fill-1176" fill="#F8D9E1"></path>
            <path d="M364.078115,394.702337 L365.096203,400.537718 C362.488905,401.45648 359.831945,402.300748 357.10049,402.971196 C359.881607,404.361755 364.078115,406.075122 364.078115,406.075122 L366.238448,413.152074 L369.193386,408.185792 L375.426069,410.296462 C375.426069,410.296462 373.514051,407.242199 370.906753,403.74097 C371.080573,403.442993 373.365062,399.643788 374.010679,397.384129 L368.026309,399.345811 L364.078115,394.702337" id="Fill-1177" fill="#F8D9E1"></path>
            <polyline id="Fill-1178" fill="#C7E4DB" points="337.905811 442.279316 337.806485 436.443935 332.989192 434.7554 338.625921 433.71248 339.668841 427.653617 341.605691 431.576979 346.770624 430.956194 343.592203 435.326522 346.17467 440.218309 340.662097 437.437192 337.905811 442.279316"></polyline>
            <path d="M507.702984,225.227972 C507.702984,225.227972 507.827141,219.218771 507.553995,216.73563 L500.551538,214.277321 L508.745903,212.762605 L510.28545,203.947455 L513.116231,209.633848 L520.640148,208.764748 L515.996674,215.096758 L519.771048,222.248203 L511.725672,218.200684 L507.702984,225.227972" id="Fill-1179" fill="#C7E4DB"></path>
            <polyline id="Fill-1180" fill="#F8D9E1" points="370.33563 333.828139 369.416868 329.135002 364.276767 327.396804 369.019566 325.559279 368.075972 318.829968 371.55237 323.349284 377.56157 321.288277 374.358319 326.204896 377.015279 331.270503 372.4463 330.277247 370.33563 333.828139"></polyline>
            <path d="M274.017427,368.030846 L290.21709,373.820682 C290.21709,373.820682 278.656534,380.159554 276.374193,380.58381 C276.969586,384.202457 278.433262,397.229588 279.003847,400.823279 L264.590364,388.819352 L244.545452,400.598674 L253.12904,378.986613 L237.450346,368.430145 L257.520067,368.929269 C257.520067,368.929269 266.550201,355.777357 270.296218,351.160462 C271.189308,356.47613 274.017427,368.030846 274.017427,368.030846" id="Fill-1181" fill="#C7E4DB"></path>
            <path d="M198.627021,379.91148 C196.008083,383.401076 193.946882,385.677976 190.163972,389.959538 C190.454965,387.336153 191.788684,381.173674 192.467667,376.644623 C189.218245,374.639961 185.241339,372.759044 181.579677,371.694841 C185.144342,369.467439 187.666282,368.502231 191.570439,366.94305 C191.618938,362.364501 193.801386,355.410056 194.140878,352.712425 C195.30485,353.603386 199.257506,359.864861 200.76097,363.923682 C206.483834,361.820025 209.781755,361.2508 215.722864,359.617372 C215.722864,359.617372 209.878753,368.551729 205.247113,373.254022 C207.405312,378.352298 209.757506,386.49469 208.73903,387.336153 C205.198614,385.232496 201.512702,382.732856 198.627021,379.91148" id="Fill-1182" fill="#F8D9E1"></path>
            <path d="M456.190226,296.866587 L451.49709,302.975113 C451.745404,300.342984 452.564841,297.661192 452.391021,296.171307 L446.133506,295.649848 C448.740804,294.532434 450.330014,293.886818 452.962143,292.893561 L453.533266,284.500545 C454.551353,287.033349 455.445284,288.274919 456.537866,290.782891 L463.316841,288.150762 L459.418309,293.539178 L461.231002,297.984 L456.190226,296.866587" id="Fill-1183" fill="#C7E4DB"></path>
            <path d="M291.818716,458.568721 C290.750965,460.50557 289.037598,463.410845 286.653783,465.298032 C286.95176,462.417589 287.820859,459.43782 287.647039,457.798947 C285.387381,457.50097 283.07806,457.302319 280.768739,457.227824 C283.624351,456.035917 285.387381,455.315806 288.267824,454.198393 L288.88861,444.98594 C290.006023,447.791889 290.999279,449.132785 292.191187,451.889072 L299.665441,448.983797 L295.369607,454.918503 L297.35612,459.810291 C295.146125,459.164674 294.078374,458.990855 291.818716,458.568721" id="Fill-1184" fill="#F8D9E1"></path>
            <path d="M242.068988,345.263002 C239.660342,344.120758 238.294614,343.624129 235.786642,342.75503 L232.161256,347.597155 L232.558559,341.563122 C230.174744,340.81818 227.766097,340.172564 225.332619,339.675935 C228.1634,338.930993 229.380139,338.484028 232.086762,337.416277 L233.551815,329.89236 L236.80473,335.553921 C239.064388,334.511002 241.249552,333.41842 243.360222,332.152018 L238.39394,338.335039 L242.068988,345.263002" id="Fill-1185" fill="#F8D9E1"></path>
            <path d="M201.755196,418.701894 L202.028342,413.735612 C199.421044,412.320222 196.838577,410.929663 194.206448,409.514273 C197.384868,408.76933 200.563289,407.974725 203.667215,407.031132 C204.387326,404.200351 205.132268,401.344739 205.852379,398.464296 C206.522827,400.897774 207.193275,403.30642 207.863723,405.690236 L212.780342,403.753386 L215.511797,403.281589 C213.401127,405.640573 211.290457,408.024388 209.154956,410.383372 C209.825404,412.792018 210.495852,415.151002 211.1663,417.534818 L210.868323,418.478411 L204.834291,415.250328 L201.755196,418.701894" id="Fill-1186" fill="#C7E4DB"></path>
            <path d="M485.888591,334.448924 L482.859159,338.198467 C484.10073,340.780933 485.367132,343.388231 486.608702,345.970697 C483.678596,344.77879 480.74849,343.586882 477.768721,342.543963 L471.163566,348.056536 C472.007834,345.772046 472.852102,343.487557 473.69637,341.227898 L468.730088,339.936665 L466.29661,338.769589 C469.30121,338.123972 472.330642,337.428693 475.335242,336.783076 C476.17951,334.523418 476.998947,332.288591 477.843215,330.028933 L478.588157,329.432979 L481.518263,335.417349 L485.888591,334.448924" id="Fill-1187" fill="#F8D9E1"></path>
            <path d="M296.696159,346.993838 C293.732864,349.306503 289.790175,351.121821 287.58026,351.917577 C287.906724,349.455707 290.543555,343.736212 290.819794,343.164263 L282.457275,338.489197 C285.018767,337.99185 290.769569,337.370166 292.502343,337.370166 C294.159779,332.918906 295.063836,330.979251 295.842328,326.329053 C297.575103,329.909954 298.931187,332.620498 300.663961,336.201399 C303.125003,335.505113 313.496536,333.64006 313.496536,333.64006 C311.763762,336.052195 307.168143,340.130444 303.627256,342.467976 C305.234467,345.825071 307.921523,352.215986 307.218368,352.663598 C306.38965,353.260415 300.161708,348.212339 296.696159,346.993838" id="Fill-1188" fill="#F8D9E1"></path>
            <path d="M349.824887,379.095797 C347.639723,376.619659 344.759279,373.918418 341.928499,369.716487 L334.056942,372.217637 C335.273681,369.991614 338.129293,365.714649 339.246707,363.438603 L336.391095,359.236673 L341.282882,359.311707 C343.021081,355.559983 344.635122,351.80826 346.298827,348.056536 C346.373321,351.858283 346.621635,355.610006 346.944443,359.386741 L358.118577,359.286695 L349.228933,366.189867 C349.849718,371.792441 349.973875,374.568717 349.824887,379.095797" id="Fill-1189" fill="#C7E4DB"></path>
            <path d="M427.323714,305.55758 L427.547196,309.654762 L421.09103,313.131159 C423.698328,313.776776 426.330457,314.422393 428.888092,315.192166 C429.484046,317.526319 430.104831,319.910134 430.700785,322.269118 L432.36449,316.30958 L436.412009,317.89879 L438.696499,318.296092 L433.43224,312.411048 L435.071113,306.526005 L434.84763,305.7314 L429.856517,308.413192 L427.323714,305.55758" id="Fill-1190" fill="#C7E4DB"></path>
            <path d="M438.597173,345.647889 L435.046282,341.873515 C435.244933,344.158005 435.319427,347.237099 435.319427,347.237099 L429.335058,348.950467 L435.642236,351.557764 L437.405266,357.343483 L439.193127,352.476527 L445.972102,355.928092 L441.303797,349.844397 L444.730531,344.033848 L438.597173,345.647889" id="Fill-1191" fill="#C7E4DB"></path>
            <path d="M245.495723,434.246356 L242.664942,439.634771 L247.805044,437.67309 L250.610993,442.515215 L251.231778,436.630171 C253.814245,435.612083 254.95649,435.065792 257.687945,434.593995 L251.802901,431.837709 L253.243122,424.313792 L248.078189,430.174005 L242.044157,428.137829 L245.495723,434.246356" id="Fill-1192" fill="#C7E4DB"></path>
            <path d="M471.598115,236.240702 L474.205413,241.380804 L471.697441,244.360573 L476.44024,243.714956 L477.756305,245.7263 L478.600573,243.565968 L484.411122,243.416979 L479.618661,241.082827 L481.704499,236.215871 L477.085857,238.823169 C474.776536,237.556767 473.584628,237.010476 471.598115,236.240702" id="Fill-1193" fill="#F8D9E1"></path>
        </g>
    </g>
</svg>