<svg viewBox="0 0 720 720" xmlns="http://www.w3.org/2000/svg">
  <g fill="none" fill-rule="evenodd">
    <path d="M592.748 505.434c-14.362-12.264-27.793-23.76-44.882-31.077-19.472 28.673-50.648 53.13-83.792 67.31 22.89 22.263 51.339 51.633 72.053 71.143 7.354 6.898 18.126 17.35 25.928 13.901 7.768-3.484-9.84-36.651-30.9-61.875 25.342 24.875 80.409 67.205 90.248 60.586 9.84-6.585-31.693-49.751-52.408-68.843 29.104 17.21 78.302 62.223 84.93 52.224 3.246-4.842-16.053-32.784-64.215-71.7 66.39 46.476 48.162 6.864 3.038-31.669" fill="#6F585A"/>
    <path d="M615.527 542.576a1392.311 1392.311 0 0016.234 15.243l1.284-2.103a1658.593 1658.593 0 01-15.853-14.864c-12.14-11.553-24.732-23.485-37.948-34.313-11.343-9.277-23.414-17.83-35.867-25.623l-1.492 1.896c12.453 7.76 24.49 16.312 35.833 25.589 13.146 10.76 25.703 22.657 37.81 34.175zm-6.07 11.76c-6.07-5.345-12.696-10.897-20.05-16.795 5.932 4.104 11.17 7.518 15.818 10.312-6.937-5.656-13.91-11.519-20.743-17.278-16.581-14.07-33.682-28.485-49.95-38.969L532.9 493.4c16.234 10.415 33.37 24.9 50.02 39.004 8.706 7.346 17.69 14.898 26.536 21.933zm-19.91 22.795c-7.563-7.794-15.09-15.001-20.952-20.312l7.041 4.345-45.614-41.659c-3.99-3.62-8.256-7.518-12.973-10.863l-1.908 1.621c4.821 3.345 9.192 7.311 13.25 11.001l61.155 55.867zm-107.88-44.004l-2.29 1.173c25.358 23.416 57.236 58.177 83.425 90.905l.659-3.07c-25.912-32.278-56.645-65.764-81.794-89.008zm127.547 34.348c-4.232-3.69-7.145-6.207-7.943-6.966-7.701-6.966-50.402-43.66-74.683-60.626l-1.735 1.69c23.866 16.69 67.364 53.97 74.787 60.73.798.724 3.712 3.275 7.979 7 10.51 9.139 29.554 25.726 45.44 40.038l.868-.828.347-1.31c-15.853-14.277-34.653-30.658-45.06-39.728zm-73.434-21.174c-9.678-9.69-18.94-18.933-30.04-28.623l-1.977 1.448c11.204 9.794 20.57 19.14 30.49 29.003 2.151 2.172 10.997 9.828 23.242 20.45 18.558 16.105 43.706 37.934 63.86 56.315l1.283-2.069c-20.119-18.38-45.094-40.038-63.548-56.04-12.21-10.587-21.055-18.243-23.31-20.484zm-.243 24.76l-4.96-6.069c5.168 5 11.586 10.725 18.593 16.588-16.581-17.036-38.018-38.555-55.431-55.626l-2.116 1.31c13.562 13.278 29.588 29.28 43.914 43.798z" fill="#B6A39F"/>
    <path d="M509.807 303.919c-68.343-62.243-155.96-106.851-155.96-106.851-32.078-99.347-129.247-120.336-177.969-96.13-21.212 10.511-39.137 41.183-34.673 64.42 5.813 30.12 61.941 36.517 64.744 89.423 1.73 32.297-34.466 108.822-3.322 215.914 8.305 28.701 42.563 59.131 69.381 72.34 46.266 22.65 99.694 17.878 150.666 10.305 50.937-7.538 106.546-45.022 131.288-90.148 19.344-35.272 6.056-113.49-44.155-159.273" fill="#6E7B95"/>
    <path d="M202.794 470.722c8.31 28.693 42.59 59.113 69.426 72.319 46.295 22.642 99.758 17.872 150.762 10.301 12.673-1.867 25.658-5.6 38.366-10.855 8.033-22.366 15.304-52.199 1.662-83.483-4.917-11.235-23.234-55.76-72.611-93.13-30.921-23.437-76.385-35.329-114.128-26.133-24.377 5.946-46.018 22.4-58.276 44.283-4.778 8.503-9.972 18.46-14.162 28.865-2.943 12.064-5.09 24.405-6.475 36.47a322.54 322.54 0 005.436 21.363" fill="#EAB353"/>
    <path d="M420.085 534.568c-3.246 10.515-17.443 16.206-24.075 5.517l-3.213 2.326c8.601 13.915 27.047 6.385 31.226-7.184l-3.938-.66zm-3.765-65.97l-3.972-.728c-3.212 10.515-17.409 16.275-24.041 5.587l-3.247 2.325c8.635 13.916 27.046 6.316 31.26-7.183zM313.49 533.84l-3.904-.729c-3.247 10.55-17.444 16.276-24.076 5.587l-3.247 2.325c8.636 13.916 27.081 6.386 31.226-7.183zm81.173-16.83l-3.973.346c-.241 5.692-8.704 9.023-13.506 9.578-5.733.66-9.188-1.388-12.538-6.038l-3.213 2.36c4.767 6.697 11.192 9.508 19.344 7.01 6.39-2.013 13.61-5.691 13.886-13.257zm39.757-24.986c-3.143 6.732-7.944 13.36-16.234 11.452-3.73-.868-7.22-2.603-10.916-3.714l-.69 3.956c5.388 1.666 11.122 5.136 16.994 3.957 7.427-1.597 11.399-7.427 14.439-13.985l-3.593-1.666zm-89.878 15.65l-3.972.313c1.9 10.653-10.984 15.373-18.722 9.647l-2.521 3.054c10.259 7.704 27.806 1.25 25.215-13.013zm26.667-47.125l-3.938-.694c-.415 6.246-6.528 13.083-13.195 13.117-6.287.035-12.124-2.637-17.927-4.615l-1.727 3.678c7.806 2.568 17.443 7.6 25.526 3.332 5.976-3.089 10.743-7.774 11.26-14.818zm33.436-24.188l-3.903-.728c-.622 4.58-5.665 10.237-10.57 10.306-4.56.07-9.119-1.666-12.884-4.199l-2.556 3.089c4.525 3.088 11.986 6.663 17.616 4.789 5.872-1.944 11.503-6.837 12.297-13.257zm46.77 23.25c-.622 4.616-4.905 9.162-9.12 10.863-5.146 2.082-8.773-.035-12.538-3.47l-2.521 3.123c4.525 4.06 10.431 7.218 16.442 4.13 5.423-2.846 10.811-7.496 11.71-13.951l-3.973-.694zm-222.312-23.944c5.458-2.81 10.812-7.495 11.745-13.915l-3.938-.694c-.622 4.58-4.905 9.126-9.223 10.827-5.077 2.082-8.67 0-12.47-3.47l-2.555 3.123c4.49 4.095 10.431 7.218 16.441 4.13zm128.565 104.87c-4.317 10.134-14.23 13.986-23.765 7.878l-2.521 3.088c11.571 7.461 24.525 3.47 29.913-9.3l-3.627-1.665zm-.932-104.419l-3.627-1.665c-4.318 10.098-14.231 13.985-23.73 7.877l-2.557 3.123c11.572 7.427 24.525 3.401 29.914-9.335zm-120.759 44.975c6.84-3.297 7.703-8.745 4.836-15.304l-3.8 1.423c2.28 5.136 1.831 8.19-3.523 10.653-4.974 2.36-10.466 2.568-14.024-2.22l-3.281 2.36c5.043 6.731 12.815 6.488 19.792 3.088zm220.62 28.733c2.244 5.136 1.76 8.19-3.524 10.654-4.974 2.325-10.5 2.568-14.093-2.187l-3.247 2.325c5.078 6.698 12.85 6.49 19.827 3.089 6.77-3.297 7.668-8.71 4.767-15.304l-3.73 1.423zm-179.688 2.672c4.353 10.688-14.369 17.282-20.552 9.23l-3.247 2.326c8.877 11.59 33.713 2.186 27.53-12.979l-3.73 1.423zm103.868-24.812l-3.972.347c1.83 12.458-12.712 17.351-21.935 11.417l-2.521 3.089c11.882 7.634 30.811 1.388 28.428-14.853zm-86.217-50.77l-2.556 3.09c11.917 7.634 30.846 1.352 28.428-14.853l-3.972.347c1.83 12.458-12.712 17.35-21.9 11.417zM394.94 407.94l-2.556 3.089c11.882 7.6 30.846 1.318 28.462-14.853l-4.006.312c1.865 12.424-12.677 17.352-21.9 11.452zm-124.454 77.49c.449 5.657-.864 9.474-5.734 12.701-3.973 2.707-12.574 5.622-16.373 1.458l-3.247 2.325c5.078 5.587 12.919 3.713 19.067 1.076 7.806-3.401 10.915-9.717 10.259-17.941l-3.972.381zm34.438-9.751c5.25-2.81 7.392-9.23 10.432-13.985l-3.075-2.568c-2.072 3.262-3.627 6.802-5.94 9.89-5.079 6.837-13.023 4.928-19.724 1.805l-1.693 3.678c6.563 2.985 13.368 4.824 20 1.18zm42.245-64.512c7.253 12.563 24.766 6.039 27.599-6.489l-3.904-.694c-2.141 9.404-15.06 14.193-20.483 4.858l-3.212 2.325zM306.96 400.27l-2.556 3.088c4.974 4.998 11.571 5.483 18.169 3.957 8.877-2.048 12.953-12.112 17.236-19.156l-3.592-1.666c-3.213 5.275-5.907 11.105-10.708 15.165-5.112 4.303-14.197 3.02-18.55-1.388zm-29.983 18.392c-3.765 3.123-11.295 2.152-14.68-1.006l-2.556 3.123c4.767 4.373 12.228 4.442 17.962 2.152 5.492-2.29 8.843-9.89 10.293-15.165l-3.903-.73c-1.243 4.443-3.592 8.676-7.116 11.626zm-21.38 41.192l-2.557 3.088c4.801 4.338 11.951 4.373 17.893 2.985 6.597-1.527 9.084-7.808 9.844-13.881l-3.869-.66c-.725 5.102-2.107 9.023-7.357 10.793-4.318 1.423-10.535.763-13.955-2.325zm98.512-88.942c6.598-1.562 9.05-7.843 9.845-13.881l-3.903-.729c-.726 5.136-2.107 9.092-7.323 10.862-4.352 1.423-10.57.729-13.99-2.325l-2.521 3.054c4.801 4.372 11.951 4.407 17.892 3.019zm85.353 58.334c-3.316 10.793-13.402 14.332-23.177 9.37l-1.727 3.678c12.366 6.177 24.766.833 28.808-12.354l-3.904-.694zm-127.7-71l-3.87-.695c-3.35 10.828-13.436 14.333-23.212 9.405l-1.727 3.678c12.366 6.177 24.801.833 28.808-12.388zm57.65 19.953c2.038 6.906 6.183 10.48 13.505 8.572 7.53-1.978 13.575-6.871 13.126-15.234l-3.972.312c.31 5.969-4.041 9.37-9.326 10.862-5.665 1.527-8.014-.486-9.603-5.865l-3.73 1.353zM322.09 490.461l-3.972.347c.31 5.969-4.042 9.37-9.326 10.827-5.665 1.562-7.98-.486-9.569-5.864l-3.765 1.388c2.038 6.905 6.183 10.445 13.54 8.536 7.496-1.943 13.576-6.801 13.092-15.234zm-53.022-115.593l-3.972.347c.484 10.168-18.03 17.316-21.589 6.316l-3.73 1.353c4.974 15.581 30.017 6.594 29.291-8.016z" fill="#CE7239"/>
    <path d="M310.815 621.596c.068-.587-3.39-34.757-4.964-65.885-5.649-1.313-11.263-2.902-16.775-4.837-1.575 19.866-1.986 50.442.445 70.204-20.061 8.395-32.283 18.967-46.935 34.79-4.725 4.976 2.773 12.68 7.497 7.636 10.955-11.747 23.45-15.685 37.384-24.115-7.634 16.756-8.32 36.173-9.038 48.956-.377 6.91 9.14 9.742 10.305 2.867 2.807-16.618 5.682-28.157 12.735-43.946 5.203 12.057 16.603 28.814 21.362 33.201 5.067 4.7 12.53.657 9.277-5.458-8.695-16.307-19.274-35.379-21.293-53.413" fill="#C38F6A"/>
    <path d="M277.842 683.836a63.666 63.666 0 0011.133 2.582l.629-3.21a59.793 59.793 0 01-11.553-2.722l-.209 3.35zm1.466-16.644c4.153 1.92 8.446 3.455 12.878 4.502l.873-3.176a63.229 63.229 0 01-13.262-4.745l-.49 3.42zm5.34-27.006c-4.607-3.28-8.516-7.188-11.483-11.864l-2.792 1.745c2.932 4.606 6.771 8.514 11.203 11.863l3.072-1.744zm37.204 14.654c-3.944 3.14-8.411 5.688-13.123 6.35l1.85 2.967c4.572-.942 8.9-3.315 12.773-6.316l-1.5-3zm7.329 14.237c-3.56 2.372-7.504 4.012-11.727 4.99l2.199 2.826c3.978-1.047 7.678-2.687 11.063-4.92l-1.535-2.896zm-13.297-27.914c-3.386 3.768-9.354 6.664-14.31 6.734h-.035l1.536 3.175c4.956-.488 10.54-3.036 14.17-6.525l-1.361-3.384zm-32.423 6.699l-1.012 3.21 8.097 3.594 6.526 1.85 1.257-3.141-4.956-1.291c-3.455-.942-6.876-2.303-9.912-4.222zm22.72-83.044l-.21-3.28c-5.897.21-12.389-.489-18.182-1.92l-.175 3.385c5.968 1.396 12.634 2.059 18.567 1.815zm-44.358 76.135l-2.373-2.966-2.478 2.059 1.92 2.582 5.304 4.78 3.42 1.92 3.49-1.92-3.455-1.64-5.828-4.815zm-16.369 10.014c2.653 2.722 5.48 5.2 8.656 7.293l2.687-2.129c-3.315-2.128-6.282-4.675-9.04-7.501l-2.303 2.337zm41.881-51.85l.14 3.28c7.12.663 14.03.663 21.08-.489l-.315-3.28c-7.015 1.152-13.855 1.152-20.905.489zm25.687 33.357l-.838-3.175c-10.086 1.71-20.696.803-28.06-6.7l-3.14 1.431c8.13 9.212 20.486 10.468 32.038 8.444zm-24.814-18.772l.349 3.454c6.875 1.815 14.588 1.954 21.708.559l-.384-3.28c-7.085 1.43-15.042 1.221-21.673-.733zm18.95-26.972l-.244-3.21c-6.456 1.221-13.122.454-19.684-.663l-.035 3.28c6.666 1.047 13.402 1.745 19.963.593z" fill="#BE6A37"/>
    <path d="M408.788 618.743c-.718-5.88-3.66-33.685-4.55-63.497a597.875 597.875 0 01-17.45 1.937c-2.122 18.537-3.08 38.285-1.335 62.079-15.533 15.044-28.604 32.44-34.626 48.487-2.429 6.536 5.954 11.655 9.204 5.533 7.254-13.868 13.892-20.128 23.848-31.471-4.174 16.462-2.908 26.906-.752 43.818.924 6.848 10.127 6.917 10.71 0 .957-11.828 4.995-27.114 9.237-42.227 5.372 13.21 18.682 29.362 25.696 32.785 6.193 3.044 11.941-2.351 7.493-7.643-12.01-14.214-27.475-49.801-27.475-49.801" fill="#C38F6A"/>
    <path d="M381.433 679.113c4.058.654 8.082.86 12.175.689l.515-3.2a58.913 58.913 0 01-13.034-.826l.344 3.337zm33.016-46.697l-1.41-2.89c-11.384 4.301-25.588 3.854-35.63-3.097l-2.201 2.374c11.177 7.846 26.585 8.5 39.241 3.613zm-34.185 28.253a64.114 64.114 0 0016.783 2.099l.79-3.27a63.485 63.485 0 01-17.436-2.236l-.137 3.407zm.825-19.168l-.378-.138c-3.268-2.718-6.088-5.85-8.358-9.394l-2.2 2.615c2.648 3.992 6.018 7.399 9.835 10.358l2.511-2.787-1.41-.654zm42.164 7.846c-4.092 3.407-8.77 6.263-13.756 6.917l2.029 2.89c4.814-1.032 9.354-3.682 13.378-6.95l-1.65-2.857zm-22.32-4.542c-5.675.998-13-.241-18.124-2.478l-.929 4.095.275.207 1.995-.345c5.193 1.79 11.487 2.616 16.749 1.824l1.375-4.92-1.341 1.617zm15.58-8.225c-3.302 3.682-9.149 6.504-13.998 6.573l-.24.034 1.925 4.13.963-1.17c4.643-.757 9.63-3.2 12.931-6.435l-1.582-3.132zm-12.175-61.356c-6.638 0-13.379-1.446-19.879-2.547l-.206 3.235c6.74 1.135 13.55 2.477 20.257 2.443l-.172-3.131zm-38.76 72.643l-2.889-3.647-1.926 2.753 1.926 2.546 5.228 4.715 2.58 1.514 2.063-2.478-1.238-.654-5.744-4.749zm-13 13.043c2.924 2.512 6.156 4.61 9.561 6.469l1.754-2.753c-3.508-1.893-6.775-4.13-9.733-6.745l-1.582 3.029zm78.964 1.892c-3.611 2.788-7.704 4.68-12.14 5.85l2.682 2.684a37.325 37.325 0 0011.384-5.884l-1.926-2.65zm-47.736-58.225l.137 3.372c7.292 1.79 15.546 1.687 22.905-.172l-.31-3.269c-7.221 1.893-15.613 1.962-22.732.069zm.585 11.941l.172 2.65-.791.791c7.703 4.095 17.127 4.198 25.93 2.443l-1.375-3.028c-8.254 1.549-16.955 1.342-23.936-2.856zm19.225-55.472c-6.088-.413-12.347-1.686-17.437-3.58l-.275-.034-.344 3.27c5.262 1.927 11.865 3.2 18.193 3.613l-.137-3.27zm1.925 31.762l-.275-3.27c-7.188 1.17-14.238 1.068-21.563.276l-.035 3.27c7.429.756 14.582.86 21.873-.276z" fill="#BE6A37"/>
    <path d="M176.096 100.969c-21.343 10.562-39.378 41.382-34.887 64.73 5.431 28.075 54.419 35.684 63.715 79.081l.766 4.205.174 1.459.488 5.108c37.497 2.745 86.31-25.26 55.22-65.496 4.874-15.323 12.742-29.881 24.928-40.305 9.262-7.852 21.239-12.96 33.285-13.516-43.417-46.246-107.132-53.404-143.69-35.266" fill="#242A2F"/>
    <path d="M184.615 97.05c5.299-2.033 11.05-3.575 17.116-4.592-3.486-28.503-31.129-70.713-78.92-68.364-13.525.666-26.004 7.748-36.357 16.477C71.395 53.263 59.37 73.526 65.748 92.213c1.848 5.364 6.205 10.727 11.852 10.482 18.266-.806 32.837-46.908 61.42-46.908 25.796 0 40.68 18.09 45.595 41.264" fill="#242A2F"/>
    <path d="M220.671 155.172l.035.38-3.771 7.584c60.194 34.65 35.479 78.024-10.832 79.127a68.397 68.397 0 011.474 11.102c46.482 3.448 110.686-41.546 13.094-98.193" fill="#FFFFFE"/>
    <path d="M194.005 140.37c-10.004 5.842-5.562 23.297 6.191 26.48 11.788 3.183 19.1-5.072 19.169-10.879.175-13.607-15.356-21.442-25.36-15.6" fill="#6E7B95"/>
    <path d="M210.168 160.935c6.296-3.708 3.498-14.691-3.918-16.685-7.415-1.994-12.032 3.183-12.067 6.821-.105 8.605 9.689 13.537 15.985 9.864" fill="#17111C"/>
    <path d="M199.752 109.262c6.764 2.971 13.355 6.979 18.141 12.161-6.66 1.348-13.632 3.525-20.535 6.876 29.45-2.453 66.081 19.279 89.634 44.363-7.18-25.464-35.624-61.189-87.24-63.4" fill="#FFFFFE"/>
    <path d="M559.27 318.048c-33.809-43.917-81.41-75.761-132.4-97.373-18.599-7.874-44.042-13.008-58.7-9.955-1.935 35.244 6.154 72.014 15.246 102.749 9.057 30.77 27.31 60.116 55.242 75.726 1.382-5.064 1.244-10.476-.208-15.54 10.233 22.582 28.59 41.418 51.025 51.86 1.002-4.51.518-9.297-1.383-13.494 10.44 17.726 28.001 31.116 47.844 36.458.104-4.44.242-8.88.38-13.32 12.272 16.789 28.797 30.387 47.602 39.198a21.108 21.108 0 001.556-11.205c6.36 3.539 12.687 7.077 19.013 10.615 7.675-54.982-11.373-111.768-45.217-155.72" fill="#6F585A"/>
    <path d="M426.717 278.299c-7.241-13.013-18.504-23.087-30.222-32.006 5.631 12.102 20.637 26.829 30.222 32.006" fill="#917E79"/>
    <path d="M503.338 378.077c-6.016-12.138-15.81-21.792-26.059-30.432 4.547 11.228 17.56 25.325 26.06 30.432" fill="#FFFFFE"/>
    <path d="M400.622 286.938l21.967 25.046c-4.372-8.99-11.088-20.883-21.967-25.046" fill="#C79B76"/>
    <path d="M517.645 396.388l28.403 33.51c-4.372-8.99-17.525-29.347-28.403-33.51" fill="#FFFFFE"/>
    <path d="M446.97 347.452c5.771 9.795 12.802 18.644 21.092 26.445-1.26-7.101-10.144-18.959-21.092-26.445" fill="#B6A39F"/>
    <path d="M534.068 311.739a104.494 104.494 0 0017.42 23.54c-.84-6.19-8.186-16.72-17.42-23.54" fill="#FFFFFE"/>
    <path d="M487.37 329.648c-7.17-9.514-15.39-18.014-24.73-25.395 4.128 10.11 13.817 18.54 24.73 25.395" fill="#B6A39F"/>
    <path d="M489.294 285.4c-5.456-9.375-14.446-19.274-24.205-24.346 3.778 8.815 18.119 19.903 24.205 24.345" fill="#C79B76"/>
    <path d="M473.047 406.9c-3.673-8.325-10.284-17.385-17.945-22.492 2.344 7.695 13.292 18.224 17.945 22.492" fill="#FFFFFE"/>
    <path d="M428.856 241.92c.804-.804-11.054-12.347-25.78-16.09-.49 1.12 11.893 11.508 25.78 16.09" fill="#C79B76"/>
    <path d="M401.497 327.514c4.722 11.369 11.962 22.212 20.218 31.342-2.694-14.167-14.552-26.34-20.218-31.342" fill="#917E79"/>
    <path d="M551.837 371.606c2.973 9.922 15.111 28.82 21.232 37.165-1.049-12.096-9.934-23.281-14.236-27.98l-6.996-9.185" fill="#FFFFFE"/>
    <path d="M544.631 395.654c-5.561-11.329-21.757-31.958-29.942-41.538 1.854 9.02 16.755 32.832 29.942 41.538" fill="#B6A39F"/>
    <path d="M533.84 340.44c-5.177-10.81-12.767-21.198-21.477-29.488 2.728 11.753 12.243 21.442 21.477 29.487M577.547 382.344c-3.953-10.703-9.62-21.477-17.07-30.222 2.064 11.683 9.69 23.541 17.07 30.222M573.947 447.475a190.294 190.294 0 00-14.202-29.312c-.77 12.383 9.69 25.815 14.202 29.312" fill="#FFFFFE"/>
    <path d="M436.563 297.555c5.982 9.164 12.628 17.63 20.043 25.674-1.854-12.277-14.9-23.226-20.043-25.674" fill="#C79B76"/>
    <path d="M597.216 443.663c-1.12-10.599-3.778-20.498-7.59-30.432-2.03 9.759.14 20.847 7.59 30.432" fill="#FFFFFE"/>
    <path d="M497.375 277.25c4.687 6.89 10.178 12.767 16.475 18.188-2.204-7.485-7.8-14.341-16.475-18.189" fill="#B6A39F"/>
    <path d="M510.667 419.247c-1.19-4.897-13.887-23.61-23.227-25.325 0 0 17.28 19.764 23.227 25.325" fill="#FFFFFE"/>
    <path d="M439.397 258.885c5.876 5.597 12.137 10.774 18.748 15.566-1.819-4.687-9.27-15.076-18.748-15.566" fill="#917E79"/>
    <path d="M173.59 102.703c-14.36 8.368-26.66 25.308-30.887 42.214l.175-.068s15.443 8.266 20.474 14.695c16.142-24.39 37.14-34.22 55.868-37.928-12.368-13.062-36.756-18.675-45.63-18.913" fill="#EAB353"/>
    <path d="M142.86 144.24c-21.56 6.643-37.995 27.576-39.508 50.283 12.103-6.154 40.952-10.223 60.448-2.955 0 0 2.166-17.144-.79-32.305-4.952-6.572-20.15-15.022-20.15-15.022" fill="#17111C"/>
  </g>
</svg>
