<?xml version="1.0" encoding="UTF-8"?>
<svg width="720px" height="720px" viewBox="0 0 720 720" version="1.1" xmlns="http://www.w3.org/2000/svg" xmlns:xlink="http://www.w3.org/1999/xlink">
    <title>img_h</title>
    <g id="img_h" stroke="none" stroke-width="1" fill="none" fill-rule="evenodd">
        <g id="hedgehog" transform="translate(50.000000, 24.000000)">
            <path d="M70.4698844,358.459868 C67.479721,360.601853 63.5045626,361.655289 59.8811881,362.076663 C66.5650828,346.731622 69.449711,334.862917 80.8475103,318.885815 C75.7466433,321.41406 70.5754196,322.81864 63.0472435,322.50261 C74.5153996,310.072073 81.0234023,297.641537 94.8836891,284.262908 C90.8733523,284.894969 86.8630155,285.772832 82.0787541,285.316344 C92.280488,271.059852 98.2608148,259.928553 112.578421,247.427787 C106.598094,249.920917 103.819001,250.342291 98.190458,251.852215 C105.36685,239.386564 113.598594,227.51786 122.780155,216.421675 C119.754813,216.77282 116.061082,216.597247 112.683956,215.368239 C121.830338,209.574345 131.996894,198.162129 145.927537,192.122433 C144.731472,191.876632 139.032572,192.894953 135.057414,191.876632 C141.108097,184.081211 158.838007,174.354491 168.899028,167.717849 C164.818334,169.017086 159.576754,169.859834 155.988558,170.14075 C163.798161,159.711741 181.000395,152.969755 192.327837,146.543799 C187.262149,147.772807 181.528071,147.210975 178.221302,145.911738 C191.800162,138.537691 200.172619,130.215552 218.254313,123.89494 C214.982723,123.57891 210.866851,122.068986 207.59526,121.752955 C220.224303,115.537687 227.96355,109.322418 247.452379,105.003334 C243.969718,104.687303 236.617434,104.336158 232.747811,102.861349 C247.065417,94.1529501 267.046744,89.2369186 283.686124,87.5163076 C277.670619,87.1651625 272.288325,84.2155437 266.272819,83.8643986 C280.027571,76.876611 315.52257,75.4018016 324.633773,76.2445499 C320.060582,73.7163051 317.03524,71.7147781 313.517401,68.4491286 C328.608932,68.5193576 345.564917,66.1666854 363.083757,70.1346251 C360.83234,68.062869 358.088425,64.3056164 357.138608,59.8811881 C370.717468,64.0247003 392.387358,68.5193576 402.589092,73.9972212 C400.830172,70.8018008 399.036074,67.6063804 397.277155,64.4460744 C405.860683,68.9407317 424.223804,75.2964581 430.907698,79.6155428 C429.676455,77.0872981 429.395027,74.3483663 429.1136,70.9071443 C437.591593,75.9987483 448.426538,86.8491319 456.904531,91.9056214 C456.69346,89.1315751 456.236141,87.4109641 456.306498,83.9697421 C464.890026,91.3086747 472.207132,100.052188 478.046745,109.673564 L479.489059,98.5071493 C481.740476,98.9285234 489.866685,121.331581 491.836675,125.580437 L496.55058,117.293412 C502.46055,132.919369 503.445545,157.569755 503.445545,157.569755 C498.977889,151.038457 488.565084,148.194181 481.459049,146.684257 L485.856348,153.812503 C468.5134,151.600289 456.728639,156.305633 447.898862,156.446091 L452.859016,160.098 C427.425037,166.699528 421.831673,170.597239 410.011733,179.586553 L418.38419,181.939226 C391.296828,191.806403 382.642943,200.865947 370.0139,211.224727 C373.531739,211.575872 377.084757,211.962132 380.602596,212.313277 C363.259649,221.021675 350.912033,235.839999 345.916701,242.371298 C349.258648,243.108702 353.339342,243.389618 355.590759,242.406412 C340.182623,251.746872 324.844844,262.421683 318.477555,272.464433 L327.061082,272.745349 C305.567084,284.649168 295.576421,300.134667 295.259815,301.925507 L304.79316,302.171308 C292.09376,312.77589 286.605931,322.888869 279.464717,332.826276 L287.168785,332.018642 C275.595094,345.432385 270.564583,361.760632 262.121769,377.632391 L271.619935,376.22781 C262.930872,386.621705 260.538741,393.188119 251.8145,403.582014 L260.749812,402.493464 C252.518068,412.922474 247.170952,430.163698 243.05508,440.06599 C246.361849,440.522479 249.809332,439.890417 252.729138,438.310264 C245.271319,450.986603 240.311165,462.117902 237.707964,476.585081 L243.442042,475.1805 C238.094927,484.731647 238.059748,498.250733 237.778321,509.171346 L245.130605,506.678216 C237.004397,524.551501 241.049912,533.96219 238.552246,548.464483 C242.386691,546.392727 243.864183,546.041582 245.69346,542.073642 C245.834173,553.872117 250.161115,563.844638 253.1161,575.256854 C254.593593,572.623266 256.669118,570.200365 256.458048,566.197311 C259.975887,577.995786 266.624603,582.033955 271.72547,589.934719 L272.323503,581.823268 C279.640609,593.095025 292.023403,605.806478 294.06375,605.841593 L293.18429,596.992736 C298.601763,604.015638 309.753313,614.444647 317.949879,617.885869 L317.105597,609.739303 C325.900195,616.340831 336.629605,616.656862 341.976721,618.623274 L339.760482,610.582051 C354.078088,617.429381 358.967885,615.533197 371.667285,618.763732 L367.516234,610.125563 C375.783157,613.988159 389.362016,616.059915 396.925371,617.710297 L391.930039,610.827853 C401.181956,612.899609 413.001896,611.495029 420.635608,612.337777 C418.665618,609.458387 415.640276,607.281287 411.629939,605.806478 C416.379022,604.647699 424.610766,601.592737 427.389859,600.539301 C428.058249,608.54541 412.966718,616.235488 406.775321,619.220221 C413.775821,619.782053 417.575087,622.626328 416.941876,622.731672 C408.921203,623.785107 396.890192,627.226329 383.135441,624.487397 L387.005064,630.983582 C387.005064,631.088925 364.807498,632.001903 350.138108,627.893505 L357.631106,633.968315 C350.841676,635.02175 332.689625,633.511827 324.70413,631.580528 C328.608932,633.406483 331.176954,637.163736 332.091593,638.954576 C324.000562,639.165263 309.964383,638.498087 296.737308,634.775949 L300.85318,643.168317 C293.852679,641.588164 270.529405,636.320987 261.699628,630.351521 L264.865684,639.024805 C251.990392,635.443125 235.421369,627.226329 223.390358,621.432435 L226.239808,630.211063 C224.586424,631.369841 197.991559,618.482816 187.719468,607.562204 C189.443209,611.986632 188.739641,615.182052 188.598928,618.553045 C180.89486,613.637014 168.793493,607.386631 160.596927,598.713347 L161.265317,610.020219 C153.279821,606.719455 141.002562,589.478231 136.88669,581.893497 C137.625436,586.037009 137.871685,590.566781 136.394193,593.095025 C127.494059,586.317925 116.764649,570.902655 111.734139,560.895019 C112.754313,565.249219 109.588257,570.375937 107.301662,573.079754 C105.190958,572.693495 98.1201012,543.548451 96.8185007,531.258373 L89.7124653,537.017153 C87.1444426,524.3057 83.6266033,503.026307 83.7673169,490.033938 C83.0989275,493.334702 79.3348394,498.250733 76.0280705,500.884322 C73.9173669,499.479741 74.374686,462.785078 75.5003946,446.913319 C72.580588,451.829351 68.7461431,456.218665 64.2433088,459.76523 C63.1879571,438.310264 66.9872235,416.890413 72.1584473,396.067509 C69.5552462,398.665982 66.1429421,400.562166 62.7658163,401.650716 C65.333839,387.323996 64.7358063,376.017123 70.4698844,358.459868" id="Fill-463" fill="#6B5255"></path>
            <path d="M474.081584,119.478495 C469.823366,115.397703 464.465109,112.558891 459.248792,109.897505 L461.129505,106.739327 C466.629703,109.507168 472.200871,112.558891 476.672,116.852594 L474.081584,119.478495" id="Fill-464" fill="#483241"></path>
            <path d="M469.344317,132.430574 C463.773149,130.656317 458.095525,129.307881 452.27596,128.385267 L453.269545,124.836752 C459.053624,125.759366 464.731248,127.107802 470.337901,128.882059 L469.344317,132.430574" id="Fill-465" fill="#483241"></path>
            <path d="M447.680634,143.135939 C455.23897,141.645562 462.832792,141.255226 470.497584,142.000414 L470.497584,145.690869 C463.152158,144.945681 455.913188,145.265048 448.638733,146.684453 L447.680634,143.135939" id="Fill-466" fill="#483241"></path>
            <path d="M429.760634,90.3274455 C424.047525,86.4240792 417.944079,83.3013861 411.166416,81.7755248 L412.16,78.2270099 C419.221545,79.7883564 425.644356,83.0529901 431.605861,87.1337822 L429.760634,90.3274455" id="Fill-467" fill="#483241"></path>
            <path d="M403.235485,95.1356832 C411.184158,95.5969901 418.84895,97.9390099 426.229861,100.919762 L425.236277,104.468277 C418.210218,101.629465 410.864792,99.2874455 403.235485,98.7906535 L403.235485,95.1356832" id="Fill-468" fill="#483241"></path>
            <path d="M420.747406,120.314347 C413.508436,118.859456 406.269465,117.936842 398.888554,118.788486 L398.888554,115.09803 C406.588832,114.210902 414.182653,115.275456 421.705505,116.765832 L420.747406,120.314347" id="Fill-469" fill="#483241"></path>
            <path d="M396.759446,131.517497 C402.862891,130.772309 408.895366,130.736824 414.963327,131.411042 L414.963327,135.066012 C408.895366,134.427279 402.862891,134.462764 396.759446,135.207952 L396.759446,131.517497" id="Fill-470" fill="#483241"></path>
            <path d="M395.34004,150.45703 C402.295129,148.860198 409.250218,147.902099 416.382733,147.618218 L416.382733,151.273188 C409.605069,151.592554 402.933861,152.479683 396.333624,154.005545 L395.34004,150.45703" id="Fill-471" fill="#483241"></path>
            <path d="M398.267564,168.767366 C404.193584,165.360792 410.403485,162.663921 416.932752,160.712238 L417.890851,164.260752 C411.68095,166.141465 405.790416,168.696396 400.148277,171.96103 L398.267564,168.767366" id="Fill-472" fill="#483241"></path>
            <path d="M362.250139,86.4884516 C354.372436,85.2819565 346.317307,84.6077387 338.581545,86.843303 L337.58796,83.259303 C345.997941,80.8817981 354.727287,81.6269862 363.243723,82.9399367 L362.250139,86.4884516" id="Fill-473" fill="#483241"></path>
            <path d="M361.646891,101.584471 C354.407921,100.661857 347.310891,100.697342 340.142891,102.294174 L339.184792,98.7456589 C346.636673,97.1133421 354.053069,96.9359163 361.646891,97.8940153 L361.646891,101.584471" id="Fill-474" fill="#483241"></path>
            <path d="M358.683881,116.521431 C351.977188,115.527847 344.205941,116.202064 337.747644,118.224718 L336.754059,114.676203 C343.886574,112.440639 352.33204,111.872876 359.64198,112.972916 L358.683881,116.521431" id="Fill-475" fill="#483241"></path>
            <path d="M334.908832,132.288634 C342.218772,131.011168 349.599683,130.33695 357.051564,130.301465 L357.051564,133.991921 C349.91905,133.991921 342.89299,134.595168 335.866931,135.837149 L334.908832,132.288634" id="Fill-476" fill="#483241"></path>
            <path d="M335.600792,153.881347 C343.691406,150.510257 352.065901,148.984396 360.795248,148.629545 L360.795248,152.32 C352.349782,152.639366 344.365624,154.165228 336.558891,157.429861 L335.600792,153.881347" id="Fill-477" fill="#483241"></path>
            <path d="M342.094574,176.449901 C348.517386,173.007842 355.862812,170.772277 363.172752,170.772277 L363.172752,174.462733 C356.501545,174.462733 349.794851,176.485386 343.939802,179.643564 L342.094574,176.449901" id="Fill-478" fill="#483241"></path>
            <path d="M351.107802,199.036198 C356.572515,193.961822 363.634059,190.235881 370.908515,188.71002 L371.902099,192.258535 C365.230891,193.677941 358.737109,196.978059 353.698218,201.626614 L351.107802,199.036198" id="Fill-479" fill="#483241"></path>
            <path d="M318.49695,235.23105 C323.819723,230.050218 330.029624,226.004911 337.020198,223.485465 L337.978297,227.03398 C331.626455,229.340515 325.948832,233.137426 321.122851,237.821465 L318.49695,235.23105" id="Fill-480" fill="#483241"></path>
            <path d="M328.539248,212.520554 C322.968079,213.79802 317.042059,217.559446 312.783842,221.285386 L310.193426,218.69497 C314.948436,214.507723 321.335762,210.391446 327.545663,208.97204 L328.539248,212.520554" id="Fill-481" fill="#483241"></path>
            <path d="M318.230812,194.565069 C311.772515,196.836119 305.704554,199.710416 300.204356,203.755723 L298.323644,200.597545 C304.107723,196.339327 310.530535,193.358574 317.237228,191.016554 L318.230812,194.565069" id="Fill-482" fill="#483241"></path>
            <path d="M310.228911,174.391762 C303.380277,176.591842 296.85101,179.537109 291.208871,184.008238 L288.58297,181.417822 C294.757386,176.520871 301.74796,173.256238 309.235327,170.843248 L310.228911,174.391762" id="Fill-483" fill="#483241"></path>
            <path d="M304.16095,153.597465 C296.78004,154.66202 290.002376,157.500832 283.224713,160.446099 L281.344,157.252436 C288.405545,154.200713 295.502574,151.14899 303.167366,150.04895 L304.16095,153.597465" id="Fill-484" fill="#483241"></path>
            <path d="M301.197941,131.490218 C294.526733,133.122535 287.642614,134.577426 281.752079,138.196911 L279.871366,135.003248 C286.081267,131.206337 293.249267,129.64499 300.239842,127.941703 L301.197941,131.490218" id="Fill-485" fill="#483241"></path>
            <path d="M273.430812,116.533228 C279.889109,113.978297 286.524832,111.955644 293.33798,110.571723 L294.331564,114.120238 C287.518416,115.504158 280.882693,117.526812 274.388911,120.081743 L273.430812,116.533228" id="Fill-486" fill="#483241"></path>
            <path d="M292.060515,97.0518812 C285.460277,98.6132277 278.86004,100.139089 272.224317,101.66495 L271.266218,98.1164356 C277.866455,96.5905743 284.466693,95.0647129 291.066931,93.5033663 L292.060515,97.0518812" id="Fill-487" fill="#483241"></path>
            <path d="M305.065822,270.059723 C299.210772,275.701861 293.355723,281.344 287.465188,287.021624 L284.874772,284.395723 C290.729822,278.753584 296.584871,273.111446 302.475406,267.433822 L305.065822,270.059723" id="Fill-488" fill="#483241"></path>
            <path d="M291.61695,257.515723 C285.47802,260.815842 279.693941,264.612752 274.335683,269.048396 L271.709782,266.45798 C277.351921,261.809426 283.348911,257.764119 289.771723,254.357545 L291.61695,257.515723" id="Fill-489" fill="#483241"></path>
            <path d="M282.000475,240.944158 C275.009901,245.486257 268.019327,250.028356 260.993267,254.570455 L259.14804,251.376792 C266.138614,246.870178 273.164673,242.328079 280.155248,237.78598 L282.000475,240.944158" id="Fill-490" fill="#483241"></path>
            <path d="M270.130693,220.89505 C263.530455,225.330693 257.072158,229.943762 250.684832,234.734257 L248.839604,231.540594 C255.191446,226.785584 261.685228,222.13703 268.285465,217.701386 L270.130693,220.89505" id="Fill-491" fill="#483241"></path>
            <path d="M258.793188,203.720238 C252.689743,208.262337 246.373386,212.485069 239.879604,216.423921 L237.998891,213.230257 C244.528158,209.291406 250.80903,205.068673 256.94796,200.526574 L258.793188,203.720238" id="Fill-492" fill="#483241"></path>
            <path d="M251.004198,184.469545 C243.481347,187.485782 236.490772,191.389149 229.92602,196.108673 L228.045307,192.950495 C234.893941,188.018059 242.203881,184.043723 250.010614,180.92103 L251.004198,184.469545" id="Fill-493" fill="#483241"></path>
            <path d="M220.025663,174.107881 C226.590416,170.417426 233.368079,167.188277 240.323168,164.278495 L241.281267,167.82701 C234.645545,170.594851 228.187248,173.75303 221.906376,177.266059 L220.025663,174.107881" id="Fill-494" fill="#483241"></path>
            <path d="M234.858455,151.557069 C227.974337,154.573307 221.374099,158.086337 215.022257,162.096158 L213.141545,158.902495 C219.493386,154.892673 226.093624,151.379644 232.977743,148.398891 L234.858455,151.557069" id="Fill-495" fill="#483241"></path>
            <path d="M229.766337,136.245228 C222.208,137.91303 213.159287,141.177663 207.552634,146.748832 L204.926733,144.158416 C210.994693,138.125941 220.646653,134.47097 228.808238,132.696713 L229.766337,136.245228" id="Fill-496" fill="#483241"></path>
            <path d="M273.62598,321.034139 C269.687129,326.463366 265.748277,331.857109 261.809426,337.286337 L258.651248,335.405624 C262.590099,330.011881 266.52895,324.582653 270.467802,319.188911 L273.62598,321.034139" id="Fill-497" fill="#483241"></path>
            <path d="M246.089505,324.990733 C249.425109,320.377663 253.044594,316.01299 256.983446,311.896713 L259.573861,314.487129 C255.847921,318.390495 252.441347,322.471287 249.283168,326.83596 L246.089505,324.990733" id="Fill-498" fill="#483241"></path>
            <path d="M247.083089,302.546376 C242.789386,306.98202 238.81505,311.666059 235.124594,316.598495 L231.966416,314.753267 C235.798812,309.53695 239.950574,304.604515 244.457188,299.95596 L247.083089,302.546376" id="Fill-499" fill="#483241"></path>
            <path d="M218.038495,303.557703 C222.332198,298.16396 226.909782,293.054099 231.771248,288.192634 L234.397149,290.818535 C229.500198,295.68 224.922614,300.789861 220.628911,306.183604 L218.038495,303.557703" id="Fill-500" fill="#483241"></path>
            <path d="M203.862178,291.084673 C208.652673,285.087683 213.79802,279.410059 219.333703,274.087287 L221.959604,276.677703 C216.423921,282.03596 211.243089,287.678099 206.452594,293.675089 L203.862178,291.084673" id="Fill-501" fill="#483241"></path>
            <path d="M211.278574,260.727129 C205.494495,266.369267 200.065267,272.330772 194.955406,278.576158 L192.36499,275.985743 C197.474851,269.704871 202.904079,263.778851 208.652673,258.136713 L211.278574,260.727129" id="Fill-502" fill="#483241"></path>
            <path d="M199.941069,246.568554 C194.511842,251.43002 189.26004,256.468911 184.114693,261.685228 L181.524277,259.059327 C186.634139,253.84301 191.921426,248.839604 197.350653,243.978139 L199.941069,246.568554" id="Fill-503" fill="#483241"></path>
            <path d="M190.360079,230.919604 C183.724356,235.816554 177.47897,241.174812 171.55295,246.887921 L168.92705,244.297505 C175.101465,238.336 181.630733,232.835802 188.514851,227.725941 L190.360079,230.919604" id="Fill-504" fill="#483241"></path>
            <path d="M153.278099,232.161584 C159.204119,225.419406 165.55596,219.10305 172.369109,213.212515 L174.959525,215.802931 C168.181861,221.693465 161.794535,228.009822 155.868515,234.787485 L153.278099,232.161584" id="Fill-505" fill="#483241"></path>
            <path d="M140.450218,213.709307 C146.127842,207.18004 152.408713,201.360475 159.328317,196.215129 L161.173545,199.373307 C154.537822,204.376713 148.505347,210.018851 143.076119,216.299723 L140.450218,213.709307" id="Fill-506" fill="#483241"></path>
            <path d="M242.097426,392.554455 C244.971723,387.196198 248.342812,382.192792 252.104238,377.402297 L254.694653,379.992713 C251.146139,384.534812 248.023446,389.360792 245.255604,394.399683 L242.097426,392.554455" id="Fill-507" fill="#483241"></path>
            <path d="M226.235564,386.362297 C229.038891,380.471762 232.587406,375.14899 236.916594,370.287525 L239.50701,372.877941 C235.390733,377.526495 232.090614,382.600871 229.429228,388.207525 L226.235564,386.362297" id="Fill-508" fill="#483241"></path>
            <path d="M227.016238,363.722772 C223.112871,370.25204 219.209505,376.781307 215.306139,383.310574 L212.112475,381.465347 C216.015842,374.936079 219.919208,368.406812 223.822574,361.877545 L227.016238,363.722772" id="Fill-509" fill="#483241"></path>
            <path d="M199.46202,370.713347 C202.549228,365.035723 206.204198,359.783921 210.462416,354.851485 L213.052832,357.477386 C209.007525,362.125941 205.60095,367.164832 202.655683,372.594059 L199.46202,370.713347" id="Fill-510" fill="#483241"></path>
            <path d="M185.480871,362.267881 C188.745505,354.88697 192.684356,347.860911 197.226455,341.154218 L200.420119,343.034931 C195.842535,349.706139 191.939168,356.732198 188.63905,364.113109 L185.480871,362.267881" id="Fill-511" fill="#483241"></path>
            <path d="M184.416317,337.215366 C179.803248,341.757465 176.219248,346.973782 173.593347,352.899802 L170.435168,351.054574 C173.167525,344.844673 176.964436,339.344475 181.825901,334.62495 L184.416317,337.215366" id="Fill-512" fill="#483241"></path>
            <path d="M171.393267,323.003564 C166.709228,328.290851 163.444594,334.394297 160.03802,340.497743 L156.844356,338.652515 C160.428356,332.265188 163.905901,325.913347 168.767366,320.413149 L171.393267,323.003564" id="Fill-513" fill="#483241"></path>
            <path d="M142.384158,325.913347 C146.429465,318.958257 151.255446,312.49996 156.613703,306.50297 L159.239604,309.093386 C154.058772,314.877465 149.445703,321.051881 145.542337,327.794059 L142.384158,325.913347" id="Fill-514" fill="#483241"></path>
            <path d="M145.790733,295.112238 C140.680871,301.464079 135.996832,307.851406 132.412832,315.161347 L129.219168,313.316119 C132.980594,305.722297 137.91303,299.086574 143.164832,292.521822 L145.790733,295.112238" id="Fill-515" fill="#483241"></path>
            <path d="M133.761267,284.910257 C129.50305,290.516911 125.315802,296.088079 122.228594,302.439921 L119.070416,300.594693 C122.122139,294.207366 126.344871,288.671683 130.603089,283.06503 L133.761267,284.910257" id="Fill-516" fill="#483241"></path>
            <path d="M120.68499,273.714693 C116.426772,279.427802 112.41695,285.353822 108.726495,291.457267 L105.532832,289.576554 C109.258772,283.473109 113.233109,277.582574 117.526812,271.869465 L120.68499,273.714693" id="Fill-517" fill="#483241"></path>
            <path d="M238.673109,440.867485 C236.827881,447.325782 235.514931,453.784079 235.195564,460.526257 L231.505109,460.526257 C231.824475,453.464713 233.208396,446.68705 235.124594,439.909386 L238.673109,440.867485" id="Fill-518" fill="#483241"></path>
            <path d="M223.804832,436.76895 C221.462812,442.907881 219.830495,449.259723 219.014337,455.78899 L215.323881,455.78899 C216.21101,448.904871 217.807842,442.269149 220.256317,435.775366 L223.804832,436.76895" id="Fill-519" fill="#483241"></path>
            <path d="M199.728158,452.169505 C200.615287,444.717624 202.283089,437.549624 204.802535,430.523564 L208.35105,431.481663 C205.938059,438.188356 204.270257,445.072475 203.418614,452.169505 L199.728158,452.169505" id="Fill-520" fill="#483241"></path>
            <path d="M190.57299,426.708911 C188.23097,433.699485 186.563168,440.796515 185.569584,448.07097 L182.021069,447.112871 C183.014653,439.802931 184.682455,432.705901 187.024475,425.750812 L190.57299,426.708911" id="Fill-521" fill="#483241"></path>
            <path d="M173.682059,419.558653 C170.878733,426.868594 168.643168,434.320475 166.975366,441.949782 L163.426851,440.991683 C165.094653,433.326891 167.330218,425.87501 170.133545,418.565069 L173.682059,419.558653" id="Fill-522" fill="#483241"></path>
            <path d="M160.03802,414.821386 C157.518574,422.344238 155.531406,430.00903 154.005545,437.815762 L150.45703,436.822178 C151.982891,429.015446 153.970059,421.386139 156.45402,413.827802 L160.03802,414.821386" id="Fill-523" fill="#483241"></path>
            <path d="M142.100277,408.629228 C138.800158,415.903683 136.954931,423.568475 136.564594,431.552634 L132.909624,431.552634 C133.29996,422.894257 135.322614,414.661703 138.906614,406.784 L142.100277,408.629228" id="Fill-524" fill="#483241"></path>
            <path d="M126.770693,402.09996 C124.073822,409.19699 122.086653,416.43596 120.738218,423.923327 L117.189703,422.965228 C118.502653,415.477861 120.525307,408.203406 123.222178,401.106376 L126.770693,402.09996" id="Fill-525" fill="#483241"></path>
            <path d="M109.116832,394.399683 C105.958653,400.822495 103.86503,407.600158 103.013386,414.732673 L99.3584158,414.732673 C100.28103,406.925941 102.445624,399.580515 105.958653,392.554455 L109.116832,394.399683" id="Fill-526" fill="#483241"></path>
            <path d="M93.7340198,384.712238 C90.5758416,391.738297 88.4467327,399.048238 87.2402376,406.677545 L83.6917228,405.68396 C84.9691881,397.735287 87.2757228,390.17695 90.5758416,382.86701 L93.7340198,384.712238" id="Fill-527" fill="#483241"></path>
            <path d="M78.8125149,376.461941 C77.5350495,381.571802 76.4350099,386.681663 75.5478812,391.862495 L71.9993663,390.868911 C72.886495,385.688079 73.9865347,380.578218 75.264,375.503842 L78.8125149,376.461941" id="Fill-528" fill="#483241"></path>
            <path d="M228.238169,496.242059 C227.42201,504.013307 227.492981,511.749069 228.45108,519.520317 L224.760624,519.520317 C223.802525,511.749069 223.731555,504.013307 224.547713,496.242059 L228.238169,496.242059" id="Fill-529" fill="#483241"></path>
            <path d="M211.936075,496.011406 C211.90059,503.960079 212.326412,511.873267 213.14257,519.75097 L209.452115,519.75097 C208.635956,511.873267 208.210135,503.960079 208.24562,496.011406 L211.936075,496.011406" id="Fill-530" fill="#483241"></path>
            <path d="M190.927842,515.279842 C190.927842,508.85703 191.034297,502.434218 191.282693,496.046891 L194.973149,496.046891 C194.724752,502.434218 194.618297,508.85703 194.618297,515.279842 L190.927842,515.279842" id="Fill-531" fill="#483241"></path>
            <path d="M175.728318,514.463683 C175.054101,507.082772 175.089586,499.772832 175.905744,492.427406 L179.5962,492.427406 C178.780041,499.772832 178.709071,507.082772 179.418774,514.463683 L175.728318,514.463683" id="Fill-532" fill="#483241"></path>
            <path d="M161.059177,488.328871 C160.73981,496.951762 161.272087,505.503683 162.088246,514.126574 L158.39779,514.126574 C157.617117,505.503683 157.049355,496.951762 157.368721,488.328871 L161.059177,488.328871" id="Fill-533" fill="#483241"></path>
            <path d="M145.738168,487.49497 C145.028465,494.875881 145.312346,502.221307 146.625296,509.531248 L143.076781,510.524832 C141.692861,502.86004 141.338009,495.230733 142.047712,487.49497 L145.738168,487.49497" id="Fill-534" fill="#483241"></path>
            <path d="M129.949834,485.028752 C129.594982,492.587089 129.985319,500.03897 131.120844,507.561822 L127.536844,508.555406 C126.401319,500.713188 125.904527,492.941941 126.259379,485.028752 L129.949834,485.028752" id="Fill-535" fill="#483241"></path>
            <path d="M112.110974,482.988356 C111.862578,490.440238 112.288399,497.821149 113.423924,505.202059 L109.875409,506.160158 C108.668914,498.495366 108.172122,490.795089 108.420518,482.988356 L112.110974,482.988356" id="Fill-536" fill="#483241"></path>
            <path d="M96.3776634,479.901149 C96.519604,486.465901 97.0518812,492.959683 98.0454653,499.41798 L94.4969505,500.376079 C93.4678812,493.598416 92.8291485,486.785267 92.6872079,479.901149 L96.3776634,479.901149" id="Fill-537" fill="#483241"></path>
            <path d="M230.440554,554.686099 C230.759921,560.399208 232.463208,565.686495 234.521347,570.973782 L230.972832,571.967366 C228.772752,566.360713 227.069465,560.718574 226.785584,554.686099 L230.440554,554.686099" id="Fill-538" fill="#483241"></path>
            <path d="M214.631921,552.645703 C215.696475,559.529822 217.328792,566.307485 219.17402,573.049663 L215.625505,574.007762 C213.780277,567.301069 212.14796,560.523406 211.083406,553.603802 L214.631921,552.645703" id="Fill-539" fill="#483241"></path>
            <path d="M199.142653,555.803881 C200.242693,562.049267 201.733069,568.223683 203.613782,574.291644 L200.065267,575.285228 C198.184554,569.181782 196.694178,563.042851 195.594139,556.797465 L199.142653,555.803881" id="Fill-540" fill="#483241"></path>
            <path d="M182.322693,575.072317 C179.980673,568.897901 178.525782,562.581545 177.851564,556.016792 L181.506535,556.016792 C182.180752,562.262178 183.671129,568.223683 185.871208,574.078733 L182.322693,575.072317" id="Fill-541" fill="#483241"></path>
            <path d="M163.976871,556.158733 C164.047842,562.191208 165.609188,568.401109 167.951208,573.936792 L164.402693,574.930376 C161.918733,569.075327 160.357386,562.546059 160.286416,556.158733 L163.976871,556.158733" id="Fill-542" fill="#483241"></path>
            <path d="M146.003644,556.229703 C146.571406,562.049267 148.061782,567.655921 150.439287,573.014178 L147.245624,574.859406 C144.619723,568.897901 142.987406,562.75897 142.313188,556.229703 L146.003644,556.229703" id="Fill-543" fill="#483241"></path>
            <path d="M130.549861,558.234614 C131.082139,564.196119 132.466059,569.944713 134.808079,575.444911 L131.649901,577.290139 C129.024,571.151208 127.427168,564.870337 126.894891,558.234614 L130.549861,558.234614" id="Fill-544" fill="#483241"></path>
            <path d="M262.856238,606.192792 C259.520634,602.04103 256.397941,597.747327 253.523644,593.276198 L256.717307,591.43097 C259.414178,595.618218 262.32396,599.663525 265.446653,603.566891 L262.856238,606.192792" id="Fill-545" fill="#483241"></path>
            <path d="M240.713505,594.979485 C243.587802,599.876436 246.887921,604.45402 250.40095,608.925149 L247.810535,611.515564 C244.084594,606.831525 240.536079,602.005545 237.519842,596.824713 L240.713505,594.979485" id="Fill-546" fill="#483241"></path>
            <path d="M223.733861,600.763564 C226.253307,604.666931 228.985663,608.392871 231.895446,612.012356 L229.269545,614.602772 C226.182337,610.770376 223.237069,606.760554 220.540198,602.644277 L223.733861,600.763564" id="Fill-547" fill="#483241"></path>
            <path d="M207.357465,603.939485 C210.160792,607.346059 213.248,610.433267 216.619089,613.236594 L214.028673,615.862495 C210.622099,613.023683 207.534891,609.936475 204.76705,606.529901 L207.357465,603.939485" id="Fill-548" fill="#483241"></path>
            <path d="M297.063921,624.449901 C291.776634,622.427248 287.128079,619.588436 283.011802,615.685069 L285.637703,613.094653 C289.292673,616.536713 293.373465,619.127129 298.057505,620.901386 L297.063921,624.449901" id="Fill-549" fill="#483241"></path>
            <path d="M279.498772,623.101465 C282.798891,625.47897 286.276436,627.288713 290.108832,628.601663 L289.150733,632.185663 C284.99897,630.766257 281.202059,628.850059 277.653545,626.295129 L279.498772,623.101465" id="Fill-550" fill="#483241"></path>
            <path d="M411.135247,586.612731 C417.754427,569.428947 449.770357,565.273852 455.762457,575.485527 C462.102935,586.366242 451.965138,629.396127 456.319862,636.579512 C460.674586,643.762897 469.244682,642.706517 470.080789,649.291286 C471.195599,657.918391 462.416475,658.693069 460.430721,658.693069 C452.383191,658.657857 444.231148,658.939558 436.462321,656.967648 C428.658656,654.995739 421.064017,650.347666 417.684751,642.988218 C416.221564,639.748652 407.61663,595.662388 411.135247,586.612731" id="Fill-551" fill="#B58865"></path>
            <path d="M467.916781,390.501974 C500.451257,395.432259 522.509132,421.541937 527.640528,459.178761 C529.992418,476.330597 511.034761,478.761019 506.045904,468.587967 C494.892244,445.880879 483.417873,443.172695 461.538171,439.214579 C439.694104,435.291183 446.072714,387.168824 467.916781,390.501974" id="Fill-552" fill="#B58865"></path>
            <path d="M505.195915,158.498867 C501.34002,151.014461 489.947603,147.992588 482.446135,146.376238 L486.827834,153.509263 C469.546414,151.295566 457.803461,156.004065 449.00501,156.144617 L453.947566,159.798975 C428.60382,166.40493 423.030299,170.305255 411.252293,179.300597 L419.595047,181.654847 C392.603782,191.528641 383.980599,200.59426 371.39636,210.959987 C374.901719,211.311367 378.442132,211.697886 381.947491,212.049266 C364.666071,220.763504 352.36226,235.591765 347.384651,242.127443 C350.714742,242.865342 354.780958,243.146447 357.024388,242.162581 C341.670915,251.509304 326.38755,262.191274 320.04285,272.240758 L328.595926,272.521863 C307.178182,284.433664 297.222963,299.929547 296.90748,301.721588 L306.407003,301.967554 C293.752657,312.579248 288.284297,322.699008 281.168418,332.643078 L288.845154,331.834903 C277.312523,345.257641 272.29986,361.596837 263.886998,377.479239 L273.351467,376.073717 C264.69323,386.474582 262.309586,393.045398 253.616296,403.446263 L262.519908,402.356984 C254.317368,412.792987 248.989222,430.045773 244.887952,439.954705 C248.182989,440.411499 251.618241,439.779014 254.527689,438.197802 C247.096328,450.88264 242.153772,462.021405 239.524752,476.498284 L245.273541,475.092762 C239.945396,484.650313 239.910342,498.178465 239.629913,509.106401 L246.956114,506.611599 C238.858734,524.49687 242.889897,533.913869 240.401092,548.425887 C244.221934,546.352742 245.694184,546.001361 247.516971,542.030761 C247.657185,553.837148 251.968777,563.816356 254.913279,575.236224 C256.38553,572.60087 258.453691,570.176344 258.24337,566.170606 C261.748729,577.976993 268.373857,582.01787 273.456628,589.923932 L274.052539,581.807041 C281.343686,593.086357 293.68255,605.806334 295.715658,605.841472 L294.839318,596.986682 C300.272625,604.014293 311.349559,614.450296 319.517046,617.893826 L318.67576,609.741797 C327.439158,616.347751 338.130503,616.663994 343.458648,618.631725 L341.250272,610.58511 C355.517084,617.437031 360.389533,615.539576 373.043879,618.772277 L368.907555,610.128315 C377.145149,613.993501 390.675835,616.066647 398.212357,617.718136 L393.234747,610.831076 C402.453841,612.904222 414.231848,611.498699 421.838477,612.342013 C419.875476,609.460692 416.860867,607.282133 412.864758,605.806334 C418.613547,604.400812 429.58532,600.149107 429.58532,600.149107 C491.349747,572.881975 497.133589,491.994167 494.399409,461.810576 C488.755781,399.616215 498.009929,336.859645 503.303021,329.796896 C530.574715,320.871829 594.827946,285.874324 609.90099,224.242172 C562.438429,238.894742 525.316676,212.365509 505.195915,158.498867" id="Fill-553" fill="#C09570"></path>
            <path d="M493.724906,461.413124 C488.606162,404.96011 495.79344,348.156675 501.122543,333.088521 L501.227723,332.738099 C501.227723,332.738099 479.069872,304.774409 425.14776,329.724468 C407.477575,337.889305 393.348439,352.116445 382.059154,367.955528 C356.570613,403.628506 340.898842,446.905645 341.56498,490.708418 C341.810399,506.407332 344.194472,522.386583 351.34669,536.368428 C357.166632,547.687065 365.931604,557.358717 376.098973,565.068005 C396.889488,580.837003 444.39564,585.462576 468.551905,566.154314 C493.128888,530.901842 495.68826,483.069215 493.724906,461.413124" id="Fill-554" fill="#D2AD7E"></path>
            <path d="M355.362851,380.189705 C374.882661,386.048831 407.625569,410.826579 411.998286,441.322268 C414.377045,458.123134 408.430149,468.994283 396.431413,464.864658 C392.513458,463.523413 387.860887,456.146562 386.181763,452.299305 C379.395306,436.804388 361.484655,430.557007 336.157876,427.06271 C316.498139,424.344922 326.78277,371.612793 355.362851,380.189705" id="Fill-555" fill="#B58865"></path>
            <path d="M614.973502,224.140766 C613.483126,217.185677 607.202254,215.766271 602.198848,217.221162 C593.859838,219.634152 591.553304,226.23439 591.375878,227.973162 C590.879086,233.650786 594.817937,238.370311 601.808512,240.002627 C608.799086,241.599459 616.463878,231.095855 614.973502,224.140766" id="Fill-556" fill="#17111C"></path>
            <path d="M515.553031,229.819964 C512.252912,224.319766 507.355961,222.97133 504.339724,223.503608 L499.371803,228.010221 L499.229862,235.000796 L503.275169,241.494578 L510.017347,242.346221 C518.640238,240.394538 516.5821,231.523251 515.553031,229.819964" id="Fill-557" fill="#17111C"></path>
            <path d="M573.688396,284.43648 C563.823525,285.820401 555.094178,280.000837 552.965069,270.206936 L557.329743,269.816599 C558.962059,277.303965 566.023604,281.065391 573.262574,280.036322 L573.688396,284.43648" id="Fill-558" fill="#17111C"></path>
            <path d="M530.043602,260.95048 C525.075681,253.072777 509.391246,254.847034 506.233067,255.911589 C499.77477,258.076183 495.623008,265.563549 497.184355,272.199272 C499.029582,279.935034 506.978256,285.932024 514.891444,286.18042 C531.9598,286.712698 535.047008,268.828183 530.043602,260.95048" id="Fill-559" fill="#C47A6A"></path>
            <path d="M387.059389,600.835008 C386.147065,613.917656 379.866067,636.38568 383.690809,647.370838 C386.533048,655.618594 395.165035,654.516523 396.673878,659.849124 C398.182721,665.181725 394.252711,671.474194 385.725993,671.829701 C376.35713,672.220758 355.478952,673.251727 346.320625,657.147273 C344.881961,654.552074 336.671047,611.713514 337.127209,597.919853 C338.109712,570.865792 389.059483,573.283237 387.059389,600.835008" id="Fill-560" fill="#B58865"></path>
            <path d="M372.065271,144.330284 C383.513278,146.115167 397.832038,157.145743 403.643564,167.319576 C403.643564,167.319576 387.014197,172.959806 375.006043,192.950495 C368.529342,191.3441 352.460122,179.385385 350.569626,164.285275 C348.749148,149.649235 363.523028,142.973773 372.065271,144.330284" id="Fill-561" fill="#CBA077"></path>
            <path d="M369.590259,155.091731 C378.355091,152.60777 388.858694,160.343533 395.03311,169.924523 C390.916833,172.585909 385.877942,176.631216 380.910021,182.486266 C375.090457,179.789394 369.87414,175.708602 366.041744,170.563256 L364.019091,167.121196 C362.244833,162.508127 364.870734,156.440167 369.590259,155.091731" id="Fill-562" fill="#B58865"></path>
            <path d="M398.517149,51.8166179 L393.714039,48.7920792 C390.42956,53.4178443 386.933178,57.54545 384.143137,60.2497434 C377.715446,66.5123176 369.486589,74.233787 361.50495,80.4607784 C366.272743,89.4632288 373.371457,97.2558638 381.988801,102.628868 C388.769661,106.863222 407.593613,114.940519 423.062452,100.173654 C432.456769,91.2423692 434.78769,82.204336 430.196482,74.9454431 C426.806052,69.5724391 421.014067,66.263238 415.681202,62.8472884 C409.959851,59.1822592 404.2385,55.4816471 398.517149,51.8166179" id="Fill-563" fill="#E6CCC2"></path>
            <path d="M352.591563,0.0731539991 C337.672459,0.711660129 324.21738,12.4176058 315.712096,24.8684754 C311.912605,30.4021952 308.252544,36.255168 306.78852,42.8175922 C304.522768,52.9627451 307.764536,63.7109316 313.376629,72.4017095 C318.953864,81.0924874 327.738009,90.3508263 338.160467,90.9183873 C348.582925,91.4859483 369.392983,72.2952918 382.499485,59.383279 C390.447045,51.5438426 404.564421,32.3531861 400.799788,21.3921642 C397.000296,10.4666149 379.571437,-1.02649545 352.591563,0.0731539991" id="Fill-564" fill="#A86647"></path>
            <path d="M142.747956,4.43564356 L141.75043,4.47042746 L140.993687,5.40959269 C138.826649,10.1402027 136.590816,14.9403805 135.73088,20.1231812 C134.320586,28.4017488 136.522021,36.8542358 138.826649,44.9588839 C140.236944,50.0373329 141.784828,55.2897014 145.086981,59.3942012 C150.624967,66.3161968 160.049862,68.8206374 168.855604,68.7510696 L174.187205,56.089731 C176.147859,49.2373032 177.695743,42.1761721 177.386166,35.0454732 C177.110987,27.9495581 174.840756,20.7145075 170.025116,15.5317068 C163.180028,8.19230447 152.58562,6.14005453 142.747956,4.43564356" id="Fill-565" fill="#4C645D"></path>
            <line x1="161.90099" y1="86.4950495" x2="161.90099" y2="86.4950495" id="Fill-566" fill="#161724"></line>
            <path d="M199.60396,87.7658452 L196.615981,85.1514057 C190.605279,84.0161885 184.698808,82.6745682 178.757594,80.6449375 C171.669829,72.5952157 166.006566,63.2726747 162.288964,53.2277228 L159.683168,55.222953 L159.926376,56.2893691 C163.157563,64.0638867 167.18786,71.4943991 171.878293,78.5121052 L164.234625,76.516875 L164.651552,78.8905109 L164.373601,79.9569271 L163.852442,81.8145552 L162.949099,84.4977958 L161.628829,85.8050155 C172.156244,87.42184 182.822635,89.0042639 193.35005,90.9306931 C196.928677,88.9698634 199.60396,87.7658452 199.60396,87.7658452" id="Fill-567" fill="#161724"></path>
            <polyline id="Fill-568" fill="#A17565" points="165.254337 77.2511683 162.805861 79.9835248 162.557465 86.8676436 163.941386 85.4837228 164.864 82.7158812 165.396277 80.7996832 165.680158 79.6996436 165.254337 77.2511683"></polyline>
            <path d="M206.441565,23.07157 C198.26196,24.3387817 189.763669,27.190008 184.593876,33.6316675 C179.282444,40.2493285 178.432615,49.507014 179.955225,57.849491 C182.221436,70.310406 189.515803,81.7857119 199.81998,89.2481808 C199.81998,89.2481808 182.079798,97.3090552 175.564442,105.616332 C170.642515,111.88199 169.367771,120.858073 172.412992,128.250141 C176.768366,138.704637 188.099421,144.44229 198.934742,147.856722 C214.691989,152.855168 231.75939,154.861586 247.870733,151.024751 C259.378835,148.279126 270.497433,140.922258 273.648882,129.552553 C274.675759,125.891719 271.595128,117.619643 263.592571,111.424385 C270.957757,109.136364 277.968847,105.651532 284.236336,101.145891 L291.991027,93.5426204 C297.479506,84.9185408 294.575923,73.5136355 289.795635,64.5023524 C274.250844,35.3916837 239.195395,17.9323226 206.441565,23.07157" id="Fill-569" fill="#CD4C55"></path>
            <path d="M104.002302,195.168317 C96.7460917,216.830304 74.3815415,233.514941 81.0768849,256.719205 C84.056488,267.129578 116.726959,273.263636 128.960859,263.308936 C132.746708,260.224381 135.375769,256.053222 137.654289,251.741856 C145.576528,236.704651 149.292268,219.494237 148.486023,202.494134 C135.796419,202.108565 119.18075,199.234321 104.002302,195.168317" id="Fill-570" fill="#E6CCC2"></path>
            <path d="M182.755137,157.152668 C178.429197,147.99821 170.762085,140.702703 162.180547,135.266147 C153.423158,129.689294 143.153448,125.796018 132.778228,126.497509 C124.829754,127.023628 112.871873,129.548995 102.953866,133.337047 C81.3945096,141.614641 60.2571963,163.290715 62.2267296,174.619795 C64.1610927,185.948875 117.303323,200.995858 147.303536,201.767498 C155.357521,201.977946 163.763208,201.732424 171.008277,198.15482 C176.072791,195.594377 180.32839,191.490655 182.966158,186.474994 C187.749311,177.530983 187.116246,166.342201 182.755137,157.152668" id="Fill-571" fill="#8F4E3C"></path>
            <path d="M0,478.754345 C0.0352934399,490.24009 2.51976423,503.622565 9.93818405,512.087594 C17.3566039,520.552624 35.7976758,521.957608 42.6562149,520.868745 C64.4215787,517.496783 81.6379115,500.777472 95.3899822,489.642972 C109.142053,478.543597 118.520055,448.125689 90.6309959,425.40007 C62.776929,402.674451 52.4891204,408.610509 32.2634286,423.433092 C12.0727294,438.2908 -0.0696841991,466.952477 0,478.754345" id="Fill-572" fill="#AB7F41"></path>
            <path d="M26.6138614,422.203754 C29.6001171,425.992257 35.3948752,430.302113 42.7183118,435.237594 C38.0611749,441.702379 32.9063288,452.233722 33.9017473,460.297325 C39.9098094,462.104684 53.6323654,461.826629 63.2665951,460.610137 C60.9913527,469.056066 61.9867712,483.410669 65.5062869,485.913167 C69.5235118,484.905216 82.3573013,479.795951 86.5522795,476.146476 C90.4984031,477.988592 88.4720153,495.471317 93.4135575,496.792079 C122.636203,476.076962 113.92629,444.691473 101.767963,428.42524 C110.940034,417.685355 111.153338,410.942515 111.188889,409.865051 L105.32303,403.643564 C102.016818,411.56814 97.3952318,417.059731 93.2713548,420.987262 C78.6600323,411.637653 47.873158,400.20263 26.6138614,422.203754" id="Fill-573" fill="#4C645D"></path>
            <path d="M32.7509415,426.815819 C51.6750829,418.91584 69.314466,416.598513 89.0025176,422.075832 C72.7520623,423.164273 56.3974374,426.780708 41.5011867,433.486913 L43.0637305,434.610465 L42.6817753,435.172241 C57.7863652,428.395815 74.5229453,424.884713 90.9122934,423.971827 C91.5373109,423.936716 52.0223148,443.669108 34.3829317,457.994404 L34.4523781,459.92551 L35.0773956,460.065954 C52.1264844,446.021546 72.8562319,436.787348 92.0581588,426.043377 C83.2037441,438.613121 70.9464562,448.54954 61.2586847,460.452175 L63.1337373,460.241509 L62.8559517,461.64595 C72.3006608,449.989091 84.2454399,440.228228 93.0651315,428.079816 C89.592812,440.368672 83.1690209,452.060641 77.1619081,463.120612 C73.238187,470.388593 69.314466,478.042795 64.696281,485.029888 L65.3212986,485.80233 L66.9185655,485.310776 C71.8839824,477.726796 76.1202122,469.405485 80.3217189,461.540616 C86.1204924,450.691312 92.3359444,439.139787 95.4957551,427.026485 C95.7388175,434.013578 92.8220691,443.177554 91.7109269,449.041094 C89.9400439,458.380625 88.0649914,468.527709 84.0371007,477.340575 L85.8774301,475.936134 L86.5371708,476.708577 C90.4261686,467.50949 92.266498,457.116628 94.0026577,447.53132 C94.9749072,442.264667 97.2666381,434.715798 97.4402541,428.360704 C107.371088,450.445535 100.148663,474.250805 91.3289717,495.808971 L92.5790067,496.792079 L93.342917,496.160081 C102.857073,472.776142 110.21839,447.039766 97.3013613,423.445161 L96.190219,422.35672 L93.7595954,421.303389 C71.4325809,413.930075 52.1612076,416.352735 31.049505,425.341156 L32.7509415,426.815819" id="Fill-574" fill="#354945"></path>
            <path d="M91.3643429,580.94781 C79.552489,571.784482 79.3100169,554.842979 88.8010667,543.939329 C111.385609,518.047599 145.851282,568.801072 112.667247,585.280857 L110.72747,583.895702 C104.769585,586.630494 97.9803667,586.026709 91.3643429,580.94781" id="Fill-575" fill="#BB414D"></path>
            <path d="M103.118632,530.400145 L99.2507505,534.906759 L93.5021564,529.26462 L93.0408495,537.745571 L87.2922554,535.935828 C85.4115426,536.929412 91.1956218,539.590798 94.1763743,542.997373 C95.8796614,544.949056 102.337958,544.594204 102.196018,540.797293 C101.841166,535.616462 105.212255,530.36466 103.118632,530.400145" id="Fill-576" fill="#293647"></path>
            <path d="M185.982491,211.932743 C194.536424,199.24475 211.749461,198.553306 221.775792,209.547262 C231.802122,220.610362 231.34638,242.978568 214.624143,246.712364 L213.747715,246.470359 C209.400635,248.613834 203.861613,249.063273 198.007077,247.334663 C182.406667,242.874851 177.498673,224.586164 185.982491,211.932743" id="Fill-577" fill="#C35264"></path>
            <path d="M207.468984,194.000512 L210.875558,199.42974 L216.730608,196.697384 L217.049974,203.510532 L223.401815,202.375007 C225.282528,203.723443 218.646806,205.675126 215.02732,208.86879 C212.827241,210.714017 205.978608,209.259126 206.759281,205.28479 C207.894806,199.820077 205.197934,193.610176 207.468984,194.000512" id="Fill-578" fill="#293647"></path>
            <path d="M114.956017,401.09834 C112.749836,397.694453 107.716988,390.435143 104.545603,385.051444 L103.994058,385.120912 C91.205107,380.015081 79.1400585,373.728311 70.970297,362.231509 L73.8659087,359.661227 C80.8981084,369.490819 90.722505,375.187119 101.443162,379.702479 C93.3768157,365.357528 86.5514454,350.213705 81.7598976,333.367938 L85.4828268,332.673267 C92.7907991,357.959284 115.990164,396.895581 118.851304,400.716271 C121.677972,404.606427 117.23114,404.502226 114.956017,401.09834" id="Fill-579" fill="#293647"></path>
            <path d="M62.3818635,370.107235 C50.7667218,372.055016 41.0227123,363.166052 39.9988852,351.833507 C37.7394047,324.812472 85.329712,332.001555 76.5389208,360.049602 L74.6324842,360.439158 C72.9731782,365.397146 68.9131742,369.009395 62.3818635,370.107235" id="Fill-580" fill="#BB414D"></path>
            <path d="M53.8666132,315.014858 C50.3536682,299.31199 61.7879596,285.714733 76.8729584,286.107305 C92.0268384,286.499877 108.3517,303.094954 99.5348972,318.548004 L98.7772032,319.047641 C97.3995777,323.936943 93.8866328,328.397985 88.5483341,331.717 C74.4276732,340.210825 57.3451174,330.64635 53.8666132,315.014858" id="Fill-581" fill="#C35264"></path>
            <path d="M116.434513,335.314261 C121.083067,324.981784 135.844889,318.364753 143.403226,329.829556 C150.3938,340.728196 139.57083,354.776118 133.822236,363.516262 C119.344295,385.278157 132.757681,398.229138 129.776929,399.184538 C126.902632,400.175324 101.069444,369.531745 116.434513,335.314261" id="Fill-582" fill="#293647"></path>
            <path d="M55.3079003,284.252863 L61.7661973,285.494843 L63.8243359,279.249457 L69.1471082,283.756071 L72.8375637,278.255873 C75.1086132,277.759081 71.9149498,284.075437 71.7375241,289.043358 C71.5600983,291.988625 65.6340785,296.104903 63.2210884,292.662843 C59.9564548,288.014289 53.4626726,285.672269 55.3079003,284.252863" id="Fill-583" fill="#293647"></path>
            <path d="M42.3515248,335.229675 L42.8128317,339.913715 L36.5319604,340.09114 L41.1095446,344.917121 L36.9577822,347.18817 C36.4964752,348.820487 41.1450297,346.939774 44.6580594,347.1172 L47.7452673,341.333121 L42.3515248,335.229675" id="Fill-584" fill="#293647"></path>
        </g>
    </g>
</svg>