<?xml version="1.0" encoding="UTF-8"?>
<svg width="720px" height="720px" viewBox="0 0 720 720" version="1.1" xmlns="http://www.w3.org/2000/svg" xmlns:xlink="http://www.w3.org/1999/xlink">
    <!-- Generator: Sketch 64 (93537) - https://sketch.com -->
    <title>img_n</title>
    <desc>Created with Sketch.</desc>
    <g id="img_n" stroke="none" stroke-width="1" fill="none" fill-rule="evenodd">
        <g id="nightengale" transform="translate(10.000000, 45.000000)">
            <path d="M599.641577,157.98942 C524.702465,234.276504 454.225437,243.277112 424.783648,238.24153 C391.676576,232.571544 357.573503,228.447917 326.896674,213.618723 C235.981706,169.725895 256.539166,111.677927 192.038144,58.3483383 C176.739569,45.7395583 156.460989,40.3867743 136.42145,40.1488728 C101.840296,39.7523703 64.5500204,60.8066539 54.829051,94.6679687 C48.9725654,115.048198 55.864892,136.697235 66.6217024,155.015652 C78.4541939,175.23728 97.1790119,194.348701 107.935822,220.91437 C118.652793,247.480038 117.457592,287.011339 120.963515,323.132718 C126.06304,376.105454 168.333321,464.961668 284.068632,477.292896 C420.042684,491.765238 468.20929,420.474086 487.531709,393.749816 C494.862276,383.639002 564.462823,290.500561 599.641577,157.98942" id="Fill-1061" fill="#C5B6A9"></path>
            <path d="M334.367434,440.206818 C325.180544,399.91224 277.147367,375.216851 237.746698,337.954341 C205.830177,307.753356 155.619073,230.036686 117.921147,274.201138 C119.148705,290.717925 119.821883,308.032625 121.405829,324.708994 C126.474458,378.009544 168.488638,467.415631 283.522752,479.82317 C300.787768,481.658368 316.587634,482.09722 331.120343,481.418994 C335.476196,470.846655 338.208504,457.04277 334.367434,440.206818" id="Fill-1062" fill="#D9CBBF"></path>
            <path d="M613.610046,70.9707053 C563.651702,120.925365 513.57422,171.119616 469.175627,226.145612 C478.706631,221.273935 485.457759,217.280757 486.966834,218.997823 C490.421823,222.991002 488.078785,230.897495 483.630983,233.333333 C489.508435,230.418313 497.530363,226.98418 501.938453,227.623088 C561.348376,170.520639 649.867573,75.8423828 652.329749,40.1433692 C637.397843,47.2911583 625.364951,59.2307613 613.610046,70.9707053" id="Fill-1063" fill="#AE6A47"></path>
            <path d="M502.654621,228.242206 C505.805963,231.55643 500.261197,240.980006 496.511499,244.733465 C500.979224,241.29945 510.792263,236.747383 513.5447,239.023416 L506.763332,255.913978 C509.595551,253.957389 514.063276,251.561564 518.092206,250.563304 C577.010328,183.120847 709.72569,17.5693791 699.433967,0 C663.253374,35.6977839 541.069077,174.136505 486.738351,230.677961 C493.160706,227.882833 500.181416,225.68666 502.654621,228.242206" id="Fill-1064" fill="#A25941"></path>
            <path d="M516.044707,239.161563 L509.318996,255.904931 C514.264372,252.500842 524.11556,247.632203 528.07186,251.630029 C529.931321,253.490403 530.247825,256.815327 529.417002,260.9319 C579.108134,203.656124 647.868633,107.78748 641.934182,85.3046595 C622.469185,99.4751693 554.104316,183.587832 510.505887,239.121981 L516.044707,239.161563" id="Fill-1065" fill="#B16E48"></path>
            <path d="M522.227329,250.309819 L527.953752,251.662355 C533.96049,257.629424 525.591102,276.763825 506.810036,296.057348 C517.502029,288.339938 527.072764,278.832409 535.882646,268.966855 C552.741556,250.110917 615.291717,178.148065 614.691044,153.046595 C593.987821,165.895683 547.615807,217.650062 522.227329,250.309819" id="Fill-1066" fill="#A25941"></path>
            <path d="M527.472494,251.834056 C523.49333,247.824266 513.58521,252.707476 508.611254,256.121753 L515.375834,239.328274 C512.63021,237.065323 502.841465,241.591225 498.384801,245.005502 C502.125215,241.273618 507.656254,231.904207 504.512714,228.609032 C501.369174,225.353559 490.943763,229.760358 483.741475,233.293738 C488.198139,230.871983 490.545846,223.011206 487.083973,219.041116 C483.661891,215.110728 452.664199,240.995712 424.292755,238.494555 C391.225897,232.817327 357.164247,228.688434 326.52468,213.840299 C235.720142,169.891407 256.252632,111.769296 191.829956,58.371591 C176.549964,45.7467062 156.296016,40.3870852 136.280818,40.1488798 C101.741669,39.7518709 64.4966875,60.8330466 54.7875258,94.7376116 C52.0419022,104.345228 52.1612771,114.230751 54.1508594,123.878069 C92.0722985,144.800441 103.930209,136.622057 143.443314,139.520222 C185.025585,142.616892 197.48037,149.802754 211.526821,176.680261 C216.620152,186.446681 229.910562,340.525858 394.68777,343.701929 C482.269184,345.369367 540.922071,265.29266 527.472494,251.834056" id="Fill-1067" fill="#BA7B4B"></path>
            <path d="M324.398115,566.946496 C330.101031,552.968109 343.328629,543.075096 353.348337,531.820292 C363.328441,520.525435 371.565987,511.513581 378.853047,502.381569 L369.981843,496.774194 C345.902862,524.370493 320.59617,550.965475 290.33903,571.19208 C280.834169,577.560457 243.369176,584.249255 243.369176,594.863216 C253.864126,590.978106 275.566892,586.812627 294.180578,580.844777 C288.754886,587.653733 260.477925,605.637388 262.497708,620.817355 C267.368949,614.569137 292.121191,596.545429 304.319096,584.970203 C297.388468,605.477178 291.249912,629.148314 297.388468,629.749104 C300.754773,622.940148 307.249761,594.582848 316.715019,581.004988 C321.58626,573.955715 352.83349,567.987865 353.467147,566.385758 C351.407761,556.532798 323.764457,568.50855 324.398115,566.946496" id="Fill-1068" fill="#A25941"></path>
            <path d="M255.018756,529.450675 C264.758138,518.451859 273.314599,511.052656 281.003584,503.853431 L269.608113,496.774194 C246.22571,523.491316 221.581526,549.128555 192.323949,568.766441 C182.821152,575.125756 145.519713,581.805036 145.519713,592.403895 C155.968848,588.564308 177.6163,584.404756 196.148727,578.405402 C190.746721,585.20467 162.593205,603.162736 164.60417,618.3611 C169.454146,612.121772 194.098331,594.12371 206.242985,582.564955 C199.342613,603.002754 193.230855,626.640208 199.342613,627.240143 C202.694222,620.440876 209.160856,592.123925 218.584793,578.565385 C223.434768,571.566139 254.545587,565.566785 255.176478,563.966957 C253.126082,554.128017 225.603457,566.086729 226.234348,564.566893 C231.912368,550.5684 245.08222,540.72946 255.018756,529.450675" id="Fill-1069" fill="#A25941"></path>
            <path d="M8.64913756,178.136201 C21.9057596,170.431756 75.2555801,154.340701 72.6689222,124.806995 C70.0822642,95.2331612 6.5878945,79.4229978 0,77.7777778 C11.5995443,84.2784033 48.7019195,102.255442 51.0460782,126.933743 C53.3498205,151.612043 17.742857,170.351501 8.64913756,178.136201" id="Fill-1070" fill="#C27C30"></path>
            <path d="M0,77.9211005 C6.50853947,79.563971 69.2380824,95.3515558 71.7935826,124.883155 C74.3490828,154.374684 21.641892,170.442758 8.54495366,178.136201 C28.9490252,172.686679 99.2652093,166.716247 97.8277405,123.841334 C96.3503419,80.9263514 6.66825823,76.8392102 0,77.9211005" id="Fill-1071" fill="#D4B750"></path>
            <path d="M0,77.8415244 C6.5409476,79.4856994 69.5828413,95.2858203 72.1510661,124.840869 C74.7192909,154.355816 21.749654,170.436649 8.58750175,178.136201 C29.0931718,172.682352 78.5314997,160.290886 77.7690579,124.680462 C77.0066162,89.3507495 6.70146165,76.758775 0,77.8415244" id="Fill-1072" fill="#FAD443"></path>
            <path d="M136.936425,124.569866 C148.649425,124.168432 158.332172,116.260188 158.058869,107.549077 C157.863652,101.206425 151.109155,92.0135932 134.906172,91.2107258 C124.676818,90.688862 115.853025,100.002124 115.423548,106.224346 C115.033115,112.085278 124.754905,125.011443 136.936425,124.569866" id="Fill-1073" fill="#D9CBBF"></path>
            <path d="M135.301296,96.0639495 C126.790902,96.3449531 119.765812,103.490473 119.966529,109.672552 C120.086959,114.168609 128.55721,119.507677 136.786601,119.708394 C144.253267,119.909111 150.676206,113.486172 150.997353,109.070401 C151.278357,104.935634 144.172981,95.7829459 135.301296,96.0639495" id="Fill-1074" fill="#17111C"></path>
            <path d="M355.855159,335.815303 C359.015876,341.832019 360.556726,348.674559 355.460069,351.54528 C347.439749,355.988999 325.275217,342.854468 313.620072,333.691756 C322.786152,341.084845 331.991742,354.101401 325.275217,358.348495 L323.971421,358.584445 C357.000919,373.881847 438.270867,402.78568 443.881141,395.156641 C447.634493,390.005074 399.117479,361.376516 355.855159,335.815303" id="Fill-1075" fill="#B2713F"></path>
            <path d="M495.946364,358.050743 C471.890181,343.9263 447.994105,329.524907 424.017976,315.202642 L421.536306,319.317326 C412.810436,325.172838 392.076488,315.598285 383.870968,313.620072 C393.317323,320.148176 409.608282,333.243948 401.883085,340.761159 C456.519841,371.977365 527.407529,411.304247 549.462366,408.851262 C541.096738,385.270959 517.721012,370.790437 495.946364,358.050743" id="Fill-1076" fill="#A25941"></path>
            <path d="M408.960573,293.548387 C414.346892,296.193421 430.027065,314.347968 421.329157,320.239179 L420.132198,320.720095 C456.001091,347.330734 513.215765,385.643643 559.498208,401.433692 C544.217022,377.347857 523.230328,356.949038 498.732553,342.44143 C491.949781,338.433804 465.297478,319.918569 436.889634,301.162877 C429.229091,302.244937 413.748412,296.273573 408.960573,293.548387" id="Fill-1077" fill="#B2713F"></path>
            <path d="M441.504719,297.691942 C438.032291,301.627794 424.931768,297.772266 416.487455,294.318355 C453.894972,323.475788 519.673802,372.392805 536.917563,371.308438 C504.600309,336.448035 467.429549,305.483322 428.167439,278.494624 C439.137154,288.535062 443.477689,295.483046 441.504719,297.691942" id="Fill-1078" fill="#A25941"></path>
            <path d="M388.48723,314.645835 L384.959898,313.620072 C394.471805,320.248078 411.038377,333.622448 402.47766,341.039503 C397.206479,345.615983 384.286138,342.893766 371.326165,337.962214 C428.318341,376.941204 492.840777,404.991873 521.653929,406.451613 C525.498324,403.295419 476.353471,365.184383 388.48723,314.645835" id="Fill-1079" fill="#B2713F"></path>
            <path d="M401.017125,340.840518 C390.961824,346.298401 364.227491,335.140061 348.74552,326.164875 C353.97268,331.865331 361.59396,345.36854 355.010132,350.502993 C360.237292,353.454293 365.544257,356.324736 370.891123,359.073892 C399.101829,373.426105 471.284526,403.828539 476.511687,398.249369 C479.743748,394.772495 441.397937,367.563934 401.017125,340.840518" id="Fill-1080" fill="#A25941"></path>
            <path d="M409.675169,292.050817 C415.3796,295.281131 436.521895,303.257215 441.109374,298.192402 C445.696853,293.127589 416.616224,263.576198 350.317178,228.162387 C303.285543,203.077603 266.825057,191.950966 219.075382,196.816378 C201.762635,198.571116 167.177031,234.503373 214.886814,288.142536 C251.586648,329.41877 316.569287,362.679039 323.350778,358.411834 C330.132269,354.104749 320.837638,340.90433 311.582897,333.446692 C323.350778,342.698949 345.729698,356.019009 353.827596,351.512521 C361.885603,346.966154 353.668032,332.728844 348.242839,326.866423 C364.558309,336.15856 393.519264,348.082805 402.135747,340.585287 C410.752229,333.087768 394.07774,319.568306 384.50387,312.868396 C392.681551,314.862417 413.345152,324.513478 422.041417,318.611176 C430.737682,312.748755 415.060471,294.682925 409.675169,292.050817" id="Fill-1081" fill="#C5864F"></path>
            <path d="M368.930425,454.17194 C367.550916,462.388536 364.082436,473.133315 368.418036,498.217634 L378.42933,504.301075 C396.402362,499.047194 419.893431,470.44712 433.84618,448.009493 C438.18178,441.017486 372.004759,435.803108 368.930425,454.17194" id="Fill-1082" fill="#C5B6A9"></path>
            <path d="M283.579144,479.472401 L273.533074,477.90681 C272.092204,482.121864 270.891478,489.508244 270.971527,498.139068 L282.898733,505.605735 C295.506351,504.040143 312.876846,492.55914 326.164875,481.158423 C312.996918,481.519713 298.908406,481.11828 283.579144,479.472401" id="Fill-1083" fill="#C5B6A9"></path>
            <path d="M230.254408,246.030267 C236.275914,248.599443 245.749749,251.369335 250.285949,244.745679 C254.741863,238.20231 245.468745,230.735643 240.892401,227.845321 L239.126093,230.856074 C242.498136,233.023815 249.683799,237.96145 247.235053,242.979371 C244.826451,247.917005 235.392759,244.424532 232.020716,242.979371 L230.254408,246.030267" id="Fill-1084" fill="#AE6A47"></path>
            <path d="M286.898698,231.922208 C293.12092,234.932961 303.638483,239.188158 308.857121,232.203212 C313.433465,226.061276 305.525221,218.474179 300.828447,215.624 L299.062139,218.674896 C302.394038,220.682065 308.13454,225.218265 306.127372,229.874896 C303.598339,235.896402 292.117336,230.557333 288.665006,228.871312 L286.898698,231.922208" id="Fill-1085" fill="#AE6A47"></path>
            <path d="M268.590749,258.848829 C273.167093,260.534851 287.377846,265.552772 288.341287,256.560657 C289.104011,249.696141 282.078921,243.273202 276.900427,240.021589 L275.134119,243.072485 C279.349172,245.721948 283.604369,249.776428 284.808671,254.834492 C286.454549,261.699008 271.721932,256.23951 269.514047,255.436643 L268.590749,258.848829" id="Fill-1086" fill="#AE6A47"></path>
            <path d="M237.236013,272.203458 C244.220959,275.334641 257.468271,280.954712 263.088343,272.524605 C268.146407,264.977651 258.913432,254.500232 253.815224,249.923888 L251.326335,252.412777 C255.742106,256.346827 261.964328,262.850053 260.599454,269.433565 C258.833146,277.903816 243.016658,270.959013 239.002321,269.152562 L237.236013,272.203458" id="Fill-1087" fill="#AE6A47"></path>
            <path d="M252.310606,220.908399 C257.00738,222.754994 266.842506,225.08331 269.130678,218.258937 C271.41885,211.354277 263.91204,206.135639 258.653259,203.686894 L256.846807,206.697646 C260.419567,208.383668 266.842506,211.755711 265.959352,216.693345 C265.036054,221.75141 255.923509,218.580084 253.233904,217.536356 L252.310606,220.908399" id="Fill-1088" fill="#AE6A47"></path>
            <path d="M283.699208,293.091393 C289.760857,295.459851 298.512112,296.864869 302.325732,290.120783 C306.340069,282.975263 298.150821,275.468453 293.052613,271.97598 L291.286305,275.026876 C295.300642,277.796769 300.920714,282.413256 299.435409,288.033328 C297.829674,293.974547 288.275552,291.124367 284.662649,289.679206 L283.699208,293.091393" id="Fill-1089" fill="#AE6A47"></path>
            <path d="M306.390076,265.036309 C312.572154,267.003334 322.969287,268.809786 325.498319,260.620539 C327.625918,253.515162 320.119108,247.41337 314.499036,245.125198 L313.575739,248.497241 C317.830936,250.263549 322.246706,253.916596 322.206563,258.894374 C322.16642,265.75889 310.72556,262.707994 307.313373,261.624123 L306.390076,265.036309" id="Fill-1090" fill="#AE6A47"></path>
            <path d="M316.050551,298.238966 C321.710766,301.410292 330.783168,304.340758 335.078508,297.476242 C339.574565,290.330722 330.381734,283.064773 325.002522,280.41531 L323.196071,283.426063 C327.330838,285.473375 333.472773,289.286995 332.388902,294.786636 C331.104315,301.330006 320.948042,296.954378 317.816859,295.18807 L316.050551,298.238966" id="Fill-1091" fill="#AE6A47"></path>
            <path d="M264.040423,316.848636 C268.817484,318.655088 280.378775,322.187705 282.546516,314.600608 C284.553685,307.695948 277.889886,301.473726 272.912108,297.94111 L271.1458,300.992006 C274.678416,303.480895 280.137914,308.057239 279.335047,313.035016 C278.451893,318.614945 267.69347,314.520321 264.963721,313.476593 L264.040423,316.848636" id="Fill-1092" fill="#AE6A47"></path>
            <path d="M318.45617,327.402233 C323.433948,330.051695 332.947926,334.146319 337.52427,328.566391 C342.582335,322.424455 332.265489,314.034491 328.331439,310.943451 L325.84255,313.43234 C328.291295,315.359222 338.005991,322.504742 334.674091,326.559222 C331.663338,330.212269 323.112801,325.916928 320.222478,324.39148 L318.45617,327.402233" id="Fill-1093" fill="#AE6A47"></path>
            <path d="M345.666595,266.093884 C351.6881,268.66306 361.161935,271.473096 365.698136,264.809296 C370.15405,258.265927 360.880931,250.839404 356.304587,247.908938 L354.538279,250.959834 C357.910322,253.087433 365.136129,258.06521 362.64724,263.042988 C360.238638,267.980622 350.804946,264.488149 347.432903,263.083131 L345.666595,266.093884" id="Fill-1094" fill="#AE6A47"></path>
            <path d="M204.102999,224.389551 C210.325221,227.440447 220.842784,231.6555 226.061422,224.670554 C230.637766,218.528619 222.729522,210.941522 218.032748,208.091343 L216.26644,211.142239 C219.598339,213.149407 225.338841,217.685608 223.331673,222.382382 C220.80264,228.363744 209.321637,223.024676 205.869307,221.378798 L204.102999,224.389551" id="Fill-1095" fill="#AE6A47"></path>
            <path d="M391.512569,288.92799 C396.129056,290.614012 410.299665,295.672076 411.30325,286.639818 C412.02583,279.815445 405.000741,273.392506 399.862389,270.140893 L398.096081,273.151646 C402.311135,275.841252 406.566332,279.895732 407.770633,284.913653 C409.416511,291.778169 394.643751,286.358815 392.476009,285.555947 L391.512569,288.92799" id="Fill-1096" fill="#AE6A47"></path>
            <path d="M352.648199,297.287486 C359.633146,300.458812 372.880457,306.03874 378.500529,297.608633 C383.558594,290.061679 374.325619,279.58426 369.227411,275.007916 L366.738522,277.496805 C371.154292,281.430855 377.376515,287.934081 376.01164,294.517593 C374.285475,302.987844 358.428844,296.043041 354.454651,294.276733 L352.648199,297.287486" id="Fill-1097" fill="#AE6A47"></path>
            <path d="M287.449424,338.829546 C292.146198,340.676141 301.981324,343.004456 304.229353,336.180084 C306.557668,329.275424 299.050858,324.056786 293.751933,321.608041 L291.985625,324.618793 C295.558385,326.304815 301.981324,329.676858 301.058026,334.614492 C300.174872,339.672557 291.062327,336.501231 288.372722,335.457503 L287.449424,338.829546" id="Fill-1098" fill="#AE6A47"></path>
            <path d="M233.262404,300.70959 C238.922619,303.92106 247.99502,306.851526 252.290361,299.987009 C256.746275,292.84149 247.593587,285.57554 242.174232,282.926078 L240.407924,285.93683 C244.542691,287.984142 250.684626,291.797762 249.600755,297.297404 C248.316167,303.840773 238.159895,299.465146 235.028712,297.698837 L233.262404,300.70959" id="Fill-1099" fill="#AE6A47"></path>
            <path d="M366.907807,329.40443 C371.684868,331.210881 383.206015,334.703354 385.4139,327.116258 C387.421068,320.251741 380.757269,314.029519 375.779491,310.496903 L374.013183,313.507655 C377.5458,316.036688 383.005298,320.613032 382.20243,325.59081 C381.319276,331.130595 370.560853,327.035971 367.831104,326.032387 L366.907807,329.40443" id="Fill-1100" fill="#AE6A47"></path>
            <path d="M328.492012,244.606534 C333.46979,247.255996 342.983768,251.35062 347.560113,245.770692 C352.618177,239.628756 342.301331,231.238792 338.367281,228.147753 L335.878392,230.636641 C338.327138,232.563523 348.041833,239.709043 344.66979,243.763523 C341.659037,247.41657 333.148643,243.081086 330.25832,241.595781 L328.492012,244.606534" id="Fill-1101" fill="#AE6A47"></path>
            <path d="M207.910117,264.006863 C213.008325,265.893601 226.295781,270.911522 228.423379,262.240555 C229.908684,255.938046 223.726605,248.672096 219.672125,244.657759 L217.183236,247.146648 C220.595422,250.518691 224.489329,255.175322 225.051336,260.153099 C225.81406,267.258476 211.563164,261.638404 208.873558,260.63482 L207.910117,264.006863" id="Fill-1102" fill="#AE6A47"></path>
            <path d="M122.597849,303.885305 C124.564875,310.910394 127.01362,317.694624 129.863799,324.398566 L133.316129,322.351254 C130.626523,316.008602 128.338351,309.505376 126.451613,302.841577 L122.597849,303.885305" id="Fill-1103" fill="#C5B6A9"></path>
            <path d="M133.135484,295.455197 C136.42724,302.03871 139.839427,308.461649 145.017921,313.760573 L147.8681,310.910394 C142.930466,305.85233 139.718996,299.710394 136.587814,293.407885 L133.135484,295.455197" id="Fill-1104" fill="#C5B6A9"></path>
            <path d="M148.570609,287.466667 C152.063082,292.203584 155.555556,296.900358 159.088172,301.637276 L162.540502,299.589964 C159.048029,294.89319 155.555556,290.156272 152.022939,285.459498 L148.570609,287.466667" id="Fill-1105" fill="#C5B6A9"></path>
            <path d="M162.701075,279.277419 C166.354122,285.017921 170.689606,290.156272 175.667384,294.77276 L178.517563,291.922581 C173.740502,287.546953 169.645878,282.689606 166.153405,277.270251 L162.701075,279.277419" id="Fill-1106" fill="#C5B6A9"></path>
            <path d="M131.208602,350.612186 C134.379928,356.874552 137.069534,363.377778 141.324731,368.997849 L144.777061,366.990681 C140.521864,361.330466 137.832258,354.82724 134.660932,348.564875 L131.208602,350.612186" id="Fill-1107" fill="#C5B6A9"></path>
            <path d="M143.111111,344.470251 C146.443011,350.210753 150.417204,355.389247 155.113978,360.086022 L157.964158,357.275986 C153.508244,352.820072 149.734767,347.882437 146.563441,342.422939 L143.111111,344.470251" id="Fill-1108" fill="#C5B6A9"></path>
            <path d="M157.582796,338.187814 C161.878136,342.884588 166.012903,347.862366 170.789964,352.077419 L173.6,349.22724 C168.863082,345.012186 164.728315,340.074552 160.432975,335.377778 L157.582796,338.187814" id="Fill-1109" fill="#C5B6A9"></path>
            <path d="M169.344803,329.938351 C173.881004,335.437993 178.778495,340.536201 184.077419,345.313262 L186.927599,342.503226 C181.628674,337.686022 176.731183,332.587814 172.194982,327.088172 L169.344803,329.938351" id="Fill-1110" fill="#C5B6A9"></path>
            <path d="M181.688889,320.063082 C186.305376,325.522581 191.363441,330.500358 196.822939,335.116846 L199.673118,332.266667 C194.173477,327.650179 189.155556,322.672401 184.539068,317.212903 L181.688889,320.063082" id="Fill-1111" fill="#C5B6A9"></path>
            <path d="M195.096774,310.549104 C199.592832,315.165591 203.687455,320.223656 208.504659,324.518996 L211.354839,321.668817 C206.537634,317.41362 202.402867,312.315412 197.946953,307.739068 L195.096774,310.549104" id="Fill-1112" fill="#C5B6A9"></path>
            <path d="M157.321864,401.212903 C161.255914,407.555556 165.792115,413.376344 171.010753,418.715412 L173.860932,415.905376 C168.883154,410.767025 164.54767,405.267384 160.774194,399.205735 L157.321864,401.212903" id="Fill-1113" fill="#C5B6A9"></path>
            <path d="M167.177061,396.034409 C171.713262,401.092473 176.650896,405.58853 182.070251,409.643011 L184.077419,406.150538 C178.939068,402.336918 174.322581,398.001434 170.02724,393.224373 L167.177061,396.034409" id="Fill-1114" fill="#C5B6A9"></path>
            <path d="M180.524731,387.022222 C184.298208,391.63871 188.713978,395.45233 193.772043,398.623656 L195.819355,395.171326 C191.002151,392.160573 186.94767,388.54767 183.334767,384.172043 L180.524731,387.022222" id="Fill-1115" fill="#C5B6A9"></path>
            <path d="M191.865233,375.922581 C196.802867,380.498925 201.780645,385.075269 206.71828,389.651613 L209.568459,386.801434 C204.630824,382.22509 199.653047,377.648746 194.715412,373.072401 L191.865233,375.922581" id="Fill-1116" fill="#C5B6A9"></path>
            <path d="M205.253047,367.091039 C209.58853,371.26595 214.245161,374.999283 219.222939,378.371326 L221.270251,374.918996 C216.573477,371.707527 212.197849,368.17491 208.063082,364.281004 L205.253047,367.091039" id="Fill-1117" fill="#C5B6A9"></path>
            <path d="M217.075269,355.830824 C221.772043,360.929032 226.910394,365.505376 232.490323,369.6 L234.537634,366.14767 C229.198566,362.253763 224.341219,357.837993 219.925448,352.980645 L217.075269,355.830824" id="Fill-1118" fill="#C5B6A9"></path>
            <path d="M228.235125,344.871685 C234.015771,350.050179 239.836559,355.268817 245.617204,360.447312 L248.467384,357.597133 C242.646595,352.418638 236.86595,347.240143 231.085305,342.061649 L228.235125,344.871685" id="Fill-1119" fill="#C5B6A9"></path>
            <path d="M203.526882,444.969176 C209.146953,449.625806 215.128315,453.318996 221.912545,456.088889 L222.996416,452.235125 C216.894624,449.746237 211.435125,446.33405 206.377061,442.118996 L203.526882,444.969176" id="Fill-1120" fill="#C5B6A9"></path>
            <path d="M213.964158,436.719713 C217.858065,439.449462 221.711828,442.139068 225.605735,444.868817 L227.612903,441.416487 C223.75914,438.686738 219.865233,435.956989 216.01147,433.267384 L213.964158,436.719713" id="Fill-1121" fill="#C5B6A9"></path>
            <path d="M222.374194,427.807885 C226.870251,431.982796 231.767742,435.394982 237.22724,438.124731 L239.274552,434.672401 C234.096057,432.103226 229.439427,428.9319 225.224373,424.957706 L222.374194,427.807885" id="Fill-1122" fill="#C5B6A9"></path>
            <path d="M232.911828,417.009319 C237.086738,421.505376 241.703226,425.439427 246.801434,428.851613 L248.808602,425.35914 C243.991398,422.14767 239.696057,418.414337 235.762007,414.15914 L232.911828,417.009319" id="Fill-1123" fill="#C5B6A9"></path>
            <path d="M245.677419,405.207168 C249.892473,408.659498 254.107527,412.111828 258.322581,415.564158 L261.132616,412.754122 C256.917563,409.301792 252.702509,405.849462 248.487455,402.356989 L245.677419,405.207168" id="Fill-1124" fill="#C5B6A9"></path>
            <path d="M254.709677,391.297491 C259.366308,396.235125 264.504659,400.570609 270.124731,404.384229 L272.172043,400.9319 C266.792832,397.318996 261.975627,393.184229 257.559857,388.447312 L254.709677,391.297491" id="Fill-1125" fill="#C5B6A9"></path>
            <path d="M266.371326,381.382079 C269.703226,385.878136 273.396416,389.85233 277.7319,393.384946 L280.582079,390.534767 C276.527599,387.243011 272.954839,383.589964 269.863799,379.37491 L266.371326,381.382079" id="Fill-1126" fill="#C5B6A9"></path>
            <path d="M255.091039,462.873118 C260.068817,465.522581 265.287455,467.569892 270.746953,468.894624 L271.790681,465.000717 C266.65233,463.756272 261.794982,461.909677 257.098208,459.420789 L255.091039,462.873118" id="Fill-1127" fill="#C5B6A9"></path>
            <path d="M265.668817,446.755556 C270.205018,449.485305 274.741219,452.215054 279.277419,454.944803 L281.284588,451.45233 C276.748387,448.722581 272.25233,445.992832 267.716129,443.263082 L265.668817,446.755556" id="Fill-1128" fill="#C5B6A9"></path>
            <path d="M276.045878,432.544803 C280.060215,436.398566 284.154839,440.49319 288.9319,443.423656 L290.979211,439.971326 C286.483154,437.201434 282.669534,433.34767 278.855914,429.694624 L276.045878,432.544803" id="Fill-1129" fill="#C5B6A9"></path>
            <path d="M285.901075,422.408602 C289.835125,426.342652 293.969892,429.995699 298.34552,433.448029 L301.195699,430.597849 C296.820072,427.14552 292.685305,423.492473 288.751254,419.598566 L285.901075,422.408602" id="Fill-1130" fill="#C5B6A9"></path>
            <path d="M295.776344,406.77276 C299.710394,411.18853 303.965591,415.243011 308.541935,418.976344 L311.392115,416.166308 C306.815771,412.432975 302.560573,408.378495 298.626523,403.962724 L295.776344,406.77276" id="Fill-1131" fill="#C5B6A9"></path>
            <path d="M305.149821,471.343369 C308.682437,472.989247 312.255197,474.354122 315.98853,475.478136 L317.072401,471.624373 L307.156989,467.891039 L305.149821,471.343369" id="Fill-1132" fill="#C5B6A9"></path>
            <path d="M311.773477,456.670968 C315.26595,460.002867 319.039427,462.572043 323.495341,464.458781 L325.502509,460.966308 C321.407885,459.240143 317.835125,456.951971 314.623656,453.820789 L311.773477,456.670968" id="Fill-1133" fill="#C5B6A9"></path>
            <path d="M320.324014,444.025806 C322.853047,448.401434 325.823656,452.455914 329.195699,456.229391 L332.005735,453.419355 C328.874552,449.846595 326.144803,446.073118 323.776344,441.978495 L320.324014,444.025806" id="Fill-1134" fill="#C5B6A9"></path>
        </g>
    </g>
</svg>