<?xml version="1.0" encoding="UTF-8"?>
<svg width="720px" height="720px" viewBox="0 0 720 720" version="1.1" xmlns="http://www.w3.org/2000/svg" xmlns:xlink="http://www.w3.org/1999/xlink">
    <title>img_c</title>
    <g id="img_c" stroke="none" stroke-width="1" fill="none" fill-rule="evenodd">
        <g id="cow" transform="translate(24.000000, 114.000000)">
            <path d="M256.500515,458.718011 L256.478697,458.718011 C256.107792,447.160326 255.496889,433.71298 254.885987,420.177744 C240.289784,418.859377 225.780853,416.728017 211.555556,413.432099 C213.73735,431.97713 219.279107,464.738555 219.279107,464.738555 C220.544547,470.868962 225.126315,489.853449 226.435391,490.864198 C229.904444,489.282157 238.173444,485.063382 240.660689,483.54726 C241.227956,483.54726 250.216947,487.985763 256.827784,489.897395 C257.656865,489.787531 256.827784,461.025154 256.500515,458.718011" id="Fill-99" fill="#EBC5AB"></path>
            <path d="M256.485885,459.061728 C250.825712,461.018135 218.469136,465.017898 218.469136,465.017898 C219.761616,471.082757 224.441286,489.864257 225.778335,490.864198 C229.321514,489.299073 237.767204,485.125406 240.307596,483.625495 C240.886984,483.625495 250.068051,488.01654 256.820147,489.907732 C257.666944,489.799043 256.820147,461.344202 256.485885,459.061728" id="Fill-100" fill="#A99C7A"></path>
            <path d="M178.863898,404.313897 C152.828738,393.906589 129.620629,377.294086 110.707882,356.740741 C100.911825,411.041634 142.835444,440.478206 151.930218,444.114232 C167.424206,450.319426 184.386507,453.803044 200.932421,451.364511 C217.456419,448.904206 233.43254,439.955663 241.913691,425.629284 C243.009446,423.778612 243.929881,421.84085 244.740741,419.83777 C222.146255,417.268601 199.880495,412.739898 178.863898,404.313897" id="Fill-101" fill="#ED9D93"></path>
            <path d="M144.428564,430.598942 C141.736512,437.047144 137.503043,457.827135 136.93858,462.221629 C136.135306,468.603581 145.296968,470.061052 148.07586,467.631935 C152.960632,463.347856 161.622961,445.306141 164.293303,440.293327 C166.985355,435.280513 147.098906,424.150741 144.428564,430.598942" id="Fill-102" fill="#F0ACA4"></path>
            <path d="M182.675617,445.537105 C182.255272,452.13756 184.666729,468.452306 185.308309,473.057275 C185.927766,477.662243 195.728457,481.675144 198.405395,474.50455 C199.445198,471.785426 201.790284,447.751876 201.768161,444.2214 C201.746037,440.712852 183.118087,438.93665 182.675617,445.537105" id="Fill-103" fill="#F0ACA4"></path>
            <path d="M214.518408,439.193146 C216.654064,444.367593 228.088723,463.333256 231.89286,465.240785 C235.696998,467.148314 241.681285,465.372338 241.970488,459.540123 C242.215199,454.804189 233.071921,432.571608 230.802786,428.296112 C228.555898,424.020616 212.360505,434.018699 214.518408,439.193146" id="Fill-104" fill="#F0ACA4"></path>
            <path d="M556.365368,244.889076 C515.656931,206.558444 455.733585,166.429693 453.213956,116.148148 C328.810023,129.020048 203.507787,134.809114 80.067885,117.792769 C67.2944625,161.758969 56.7120215,206.86544 62.4304834,251.993838 C70.8876723,318.611951 117.446031,379.046289 179.691817,404.13224 C211.921156,417.13571 247.0645,421.017015 281.769648,422.508138 C335.229599,424.810608 390.617613,421.324011 438.687748,397.816896 C493.703295,370.910897 540.984678,328.172681 556.781655,268.966327 C558.622079,262.102775 560.111947,255.326937 561.382716,248.66074 L556.365368,244.889076" id="Fill-105" fill="#F3D2B8"></path>
            <path d="M135.500928,302.611094 C136.161963,290.120901 74.1128231,286.784329 76.0959277,301.294026 C78.0790323,315.803724 90.7047983,459.890947 90.7047983,459.890947 C91.1675227,469.615298 92.9082479,485.683525 94.8032145,492.246914 C99.0779067,490.62253 110.07312,486.890838 113.400329,485.551819 C114.524088,486.16645 127.304096,491.061553 133.517823,490.863992 C134.53141,478.944528 134.421238,471.327486 134.443272,460.022653 C134.421238,460.022653 134.839893,315.101288 135.500928,302.611094" id="Fill-106" fill="#F3D2B8"></path>
            <path d="M528.030571,327.703704 C518.163806,340.683124 506.527217,352.438896 493.62963,362.971018 C495.487944,399.046815 496.837434,459.26783 496.815312,459.26783 C496.815312,459.26783 497.169276,480.987601 497.98782,490.864198 C503.651254,489.509443 511.128758,486.909189 516.305492,483.19454 C518.915981,484.986312 526.304994,489.290934 527.012923,488.613557 L527.366888,460.076313 C527.344765,460.076313 528.65001,375.644526 528.030571,327.703704" id="Fill-107" fill="#EBC5AB"></path>
            <path d="M654.204845,146.066038 C619.942675,99.9401569 571.527306,45.661488 540.891344,41.7938581 C510.255382,37.9042531 452.148148,70.8230572 452.148148,113.498837 C452.148148,165.448137 514.013452,206.541705 555.725831,245.789358 C570.186708,259.391988 609.5915,266.973421 648.666637,231.988951 C687.76375,197.026456 669.193171,166.239244 654.204845,146.066038" id="Fill-108" fill="#F9DCC3"></path>
            <path d="M541.287438,41.7869727 C528.995003,40.2364808 512.276415,44.6695774 496.675321,53.2300399 C496.675321,56.26551 494.79092,64.192673 500.794711,74.6311961 C513.656849,96.9932206 539.556418,110.008618 564.667168,116.16691 C585.132647,121.167792 607.416794,119.377083 626.37037,110.489052 C595.474946,70.2636132 569.641112,45.3683907 541.287438,41.7869727" id="Fill-109" fill="#B47146"></path>
            <path d="M562.75716,185.312193 C563.127744,172.684595 550.985683,162.595762 538.647432,160.807588 C526.287381,159.019414 513.970928,163.368429 502.243049,167.62914 C495.223761,170.189982 488.204473,172.728747 481.185185,175.289589 C497.643454,194.429673 518.87571,212.267259 538.364044,229.530864 L542.178875,224.166342 C546.887465,217.16818 551.596056,210.192094 555.99946,202.995246 C559.334712,197.564496 562.582768,191.692221 562.75716,185.312193" id="Fill-110" fill="#B47146"></path>
            <path d="M597.595861,2.77747379 C587.2677,2.00703485 582.803834,38.3717531 539.259259,64.3905769 C539.259259,64.3905769 565.867402,80.3496693 588.186732,72.4911921 C630.834157,57.5006515 614.532294,4.07621373 597.595861,2.77747379" id="Fill-111" fill="#B47146"></path>
            <path d="M398.90924,139.697542 C393.580144,150.718541 420.160368,176.41247 447.240874,166.434878 C470.688894,157.805022 481.999628,136.936857 472.01573,107.851852 C437.604999,135.719548 403.411782,130.393818 398.90924,139.697542" id="Fill-112" fill="#F9DCC3"></path>
            <path d="M663.862245,159.914317 C643.034472,148.096608 614.201093,159.958006 604.809901,165.746718 C589.084603,175.423696 574.392996,187.743822 565.815561,204.039592 C559.06358,216.840291 553.169342,233.157905 560.889034,248.383309 C578.219852,259.086965 613.541291,261.992243 648.664789,230.776887 C679.279635,203.602708 674.529055,178.962456 663.862245,159.914317" id="Fill-113" fill="#EFA79C"></path>
            <path d="M526.814815,459.875485 C525.0306,460.161399 509.170917,460.777214 496.395062,459.061728 C496.395062,459.061728 496.747499,480.923177 497.562511,490.864198 C503.201509,489.500606 510.646749,486.883391 515.801146,483.144511 C518.400372,484.947971 525.757503,489.280672 526.462377,488.598876 L526.814815,459.875485" id="Fill-114" fill="#A99C7A"></path>
            <path d="M134.123457,460.573898 C119.245153,461.523226 91.2592593,460.444444 91.2592593,460.444444 C91.7127344,470.002446 93.4186647,485.795802 95.2757533,492.246914 C99.4649998,490.650317 110.240433,486.982461 113.501135,485.666348 C114.602432,486.270466 127.126983,491.08183 133.216507,490.887649 C134.209833,479.172086 134.101863,471.685344 134.123457,460.573898" id="Fill-115" fill="#A99C7A"></path>
            <path d="M178.112948,127.47282 C166.259322,156.528056 170.31968,192.047316 189.639127,216.917371 C206.666436,238.829314 233.124254,251.625889 260.06233,258.111824 C270.606164,260.631698 281.346466,262.318917 292.152258,263.370691 C303.460138,264.466288 315.182785,264.794967 325.879428,260.916553 C341.706093,255.175624 353.60338,239.749616 355.175131,222.921244 C357.947526,193.296297 328.433524,157.952333 318.653736,127.209877 C271.741317,129.401071 224.850728,129.751662 178.112948,127.47282" id="Fill-116" fill="#B47146"></path>
            <path d="M62.4313942,252.477157 C64.0974935,265.549801 67.2981579,278.360556 71.7483967,290.734828 C83.5426258,292.764471 116.338475,295.710726 131.464902,256.056311 C144.815619,221.006785 144.092181,179.86833 129.974182,145.102517 C126.729673,137.136715 122.323279,129.498275 116.535776,123.191107 C104.368867,121.947132 92.2238799,120.572213 80.0788931,118.91358 C67.2981579,162.670928 56.7096586,207.56313 62.4313942,252.477157" id="Fill-117" fill="#B47146"></path>
            <path d="M482.387417,218.617353 C466.570499,194.316795 419.250282,175.203261 406.696826,187.99647 C394.143371,200.811473 422.535501,295.071488 476.687235,269.354304 C486.608163,264.646752 490.39378,255.362413 490.828909,245.751161 C491.264037,236.118114 487.630715,226.681216 482.387417,218.617353" id="Fill-118" fill="#B47146"></path>
            <path d="M454.91358,388.297475 C442.79093,367.212955 419.331965,352.64942 394.977452,347.476105 C373.702747,342.954888 347.731881,346.3458 336.35188,364.778453 C327.330881,379.341988 330.49806,397.992007 333.949193,414.75094 C334.42973,417.076759 334.910268,419.402577 335.390805,421.728395 C370.863208,419.619943 405.811388,412.903328 437.570546,397.470328 C443.468051,394.601095 449.234501,391.514495 454.91358,388.297475" id="Fill-119" fill="#B47146"></path>
            <path d="M212.680206,295.353723 C211.93885,290.533023 209.692978,285.995893 206.487704,282.309475 C200.077156,274.958452 189.741784,271.119343 180.125962,272.77714 C163.663502,275.656472 160.872515,295.789986 160.436423,303.839028 C160.022136,311.909884 162.7041,320.569694 169.201866,325.346768 C177.313171,331.301751 189.044037,329.556701 197.547825,324.234299 C207.294473,318.126624 214.402768,306.740174 212.680206,295.353723" id="Fill-120" fill="#B47146"></path>
            <path d="M514.539086,139.643678 C512.348864,138.736616 509.738296,138.382641 507.747185,139.643678 C505.556963,141.037455 504.760519,144.001999 505.313605,146.546196 C506.375531,151.700961 513.145309,157.099085 518.587679,152.674394 C524.007926,148.249702 518.388568,141.25869 514.539086,139.643678" id="Fill-121" fill="#17111C"></path>
            <path d="M570.448947,96.8730669 L564.608354,96.4084743 C556.179317,101.872968 567.838379,117.669116 574.940008,112.868326 C582.152255,107.979042 573.214379,97.846499 570.448947,96.8730669" id="Fill-122" fill="#17111C"></path>
            <path d="M593.430422,207.704629 C583.36425,207.19579 578.917435,227.859098 591.018966,229.208629 C600.2002,230.226308 604.182422,208.235592 593.430422,207.704629" id="Fill-123" fill="#CB857D"></path>
            <path d="M634.356003,179.979948 C631.413583,188.851454 649.687559,198.519404 654.244991,186.439997 C657.784744,177.081775 637.2763,171.263306 634.356003,179.979948" id="Fill-124" fill="#CB857D"></path>
            <path d="M515.975358,0 C510.666658,-0.15409138 507.120272,42.7768915 506.097695,49.4427819 C505.096874,56.1086723 536.231094,55.82173 536.492178,45.3152272 C536.644477,39.2894389 526.222889,0.287358316 515.975358,0" id="Fill-125" fill="#A99C7A"></path>
            <path d="M419.190286,79.9694095 C415.85071,90.2635072 450.265689,107.999658 459.482051,109.202864 C468.828526,110.406071 475.59442,76.961394 468.655041,76.9836756 C453.345038,77.0059572 421.293785,73.4854649 419.190286,79.9694095" id="Fill-126" fill="#A99C7A"></path>
            <path d="M28.6869018,318.024691 C-5.00059314,333.228226 -1.81511758,379.121992 2.89764077,399.509541 C4.70856181,407.372687 8.96313532,427.259259 8.96313532,427.259259 C32.2432889,417.566461 69.7489908,362.088805 28.6869018,318.024691" id="Fill-127" fill="#7F5741"></path>
            <path d="M70.0009818,155.842151 C72.9896255,142.991451 76.5056769,130.206427 80.1975309,117.530864 C44.3338067,130.140751 14.1397155,254.050398 20.1170028,322.638548 C21.1278676,334.307071 33.7856526,331.176492 33.8076279,324.608843 C37.301704,256.130154 39.2575076,204.486539 70.0009818,155.842151" id="Fill-128" fill="#B47146"></path>
            <path d="M441.366886,461.990198 C440.62744,449.951855 439.431277,430.943944 439.039805,410.078939 C438.626585,387.793802 439.909742,352.246825 440.453452,341.147953 C441.018911,329.590269 393.868341,323.407236 392.802668,336.210265 C391.736996,349.035143 398.674741,458.341554 398.652993,458.341554 C398.652993,458.341554 400.262376,478.616658 401.219306,488.098765 C406.678159,486.678634 421.619322,480.189727 423.598428,480.080486 C427.273911,481.609858 439.909742,485.979493 442.454307,485.476985 C442.584797,480.408208 441.823603,468.719436 441.366886,461.990198" id="Fill-129" fill="#F3D2B8"></path>
            <path d="M441.072223,457.679012 C430.639752,459.777688 401.340982,458.098748 398.222222,458.010382 C398.222222,458.010382 399.847491,478.511131 400.813868,488.098765 C406.326605,486.662829 421.415252,480.101706 423.413894,479.99125 C427.125657,481.537642 439.886216,485.955907 442.455898,485.447807 C442.60964,479.063414 441.379707,462.031003 441.072223,457.679012" id="Fill-130" fill="#A99C7A"></path>
            <path d="M410.666667,149.194309 C417.027103,162.678337 430.073595,163.707151 445.399424,159.767013 C460.725253,155.804985 468.14938,143.087095 470.363593,135.972957 C471.774612,131.419909 471.644364,126.538516 471.210204,121.679012 C462.136271,144.466144 429.465772,150.026116 410.666667,149.194309" id="Fill-131" fill="#EFA79C"></path>
            <path d="M602.363349,11.0617284 C601.688497,31.0335391 594.352192,57.9397025 560,63.5615594 C560,63.5615594 588.017282,73.1865284 601.492571,56.8022061 C612.050755,43.9616225 608.981262,22.042943 602.363349,11.0617284" id="Fill-132" fill="#EFA79C"></path>
            <path d="M496.354553,39.4907644 C494.551756,40.9859017 492.814914,46.1863794 493.364548,49.3933407 C492.617046,49.6750332 485.361886,40.2925047 482.261955,33.1851852 C479.6457,37.9739584 479.579744,44.0195137 482.086072,48.8732929 C475.644369,45.6013257 469.906197,41.029239 465.289278,35.5254001 C460.870226,43.1744361 461.881551,53.5103855 467.707664,60.2060006 C459.353238,58.5808513 451.90021,52.9903378 448.140718,45.4929824 C447.349246,51.7335556 449.9655,58.1041408 454.25264,62.7629021 C458.53978,67.3999947 468.631048,74.9406874 477.754961,74.6589948 C486.856889,74.3989709 501.631033,63.1312693 501.916842,57.5624244 C502.136695,52.9686691 498.311248,43.6728152 496.354553,39.4907644" id="Fill-133" fill="#B47146"></path>
        </g>
    </g>
</svg>