<?xml version="1.0" encoding="UTF-8"?>
<svg width="720px" height="720px" viewBox="0 0 720 720" version="1.1" xmlns="http://www.w3.org/2000/svg" xmlns:xlink="http://www.w3.org/1999/xlink">
    <title>img_o</title>
    <g id="img_o" stroke="none" stroke-width="1" fill="none" fill-rule="evenodd">
        <g id="opossum" transform="translate(98.000000, 24.000000)">
            <path d="M123.903768,390.73888 C153.744991,365.613555 159.724961,340.722772 171.274511,327.881591 C177.547617,320.874645 184.993266,313.72111 194.344297,312.92953 C204.926499,312.020679 214.746548,320.083065 218.879763,329.875199 C223.012977,339.667332 222.573274,350.749448 221.107595,361.274526 C218.674568,378.865185 203.87121,413.342877 179.218491,437.119585 L178.133889,438.76138 L172.241859,443.452222 C175.11459,443.012456 178.104575,443.393587 180.742797,444.566297 C175.378412,456.645217 162.070047,464.707602 148.849624,463.857387 C151.780981,465.616453 154.712339,467.346201 157.614384,469.105267 L150.520498,470.77638 C141.755738,470.688426 132.990978,470.219342 124.284845,469.310491 L130.000993,473.708156 C122.672598,475.056773 115.989102,469.515716 108.777962,467.639379 C105.787977,466.847799 102.534169,466.671892 99.8666338,465.118051 L104.703374,472.21295 C93.9159774,465.323275 22.3322186,463.241714 22.214876,431.813069 C22.1270236,405.896165 87.7601259,421.141403 123.903768,390.73888" id="Fill-700" fill="#545654"></path>
            <path d="M125.957988,648.879714 C125.024763,646.085878 133.161313,642.797301 138.702332,642.069739 C135.815169,642.215251 128.903477,641.778714 129.807538,638.606547 C130.828252,635.143354 146.372269,631.942084 154.013043,631.272727 C146.080636,636.51117 143.660086,642.157046 144.972432,647.599206 C146.430595,653.594312 155.237899,656.155329 166.61157,655.806099 C161.566327,658.54173 153.750573,661.335566 148.880309,663.227226 L134.38617,664.595041 L140.947903,657.173915 C138.089903,658.105193 129.690885,661.073644 128.407701,657.406734 C127.299498,654.321874 132.432231,652.168292 137.360822,650.13112 C132.519721,651.731755 126.745396,651.266116 125.957988,648.879714" id="Fill-701" fill="#C37D7C"></path>
            <path d="M143.853059,648.825787 C141.442672,638.872449 151.319381,628.331894 184.153561,620.463178 C99.9369757,572.105811 96.8505039,491.598282 125.598783,470.399728 C171.71949,436.341109 204.55367,475.185551 221.573357,510.770936 C239.563078,548.382221 238.504859,610.539201 224.953778,630.710125 C207.934091,656.048563 147.909565,665.532127 143.853059,648.825787" id="Fill-702" fill="#545654"></path>
            <path d="M478.858383,619.289926 C471.608319,602.220827 432.288417,598.954285 399.867769,591.382705 L405.129912,586.983258 C413.549341,578.78858 420.185488,570.726075 425.506099,562.77686 C481.811029,576.560534 504.935225,594.063913 510.343538,599.256393 C516.365769,605.071971 520.107737,611.831636 522.358765,618.666828 C535.543357,659.073765 460.060838,675.179894 452.489199,671.309136 C445.677647,667.834895 491.078248,648.065707 478.858383,619.289926" id="Fill-703" fill="#D59985"></path>
            <path d="M191.085833,303.671272 C235.092223,305.051937 278.981341,300.528054 292.379689,299.059261 C290.063564,296.239177 287.424939,294.035987 283.05655,291.568414 C313.781865,288.219566 319.322976,281.198733 335.770401,279.024919 L327.326803,274.912298 C358.697115,263.602589 365.469584,256.993019 375.701583,249.649052 C373.092276,248.03338 370.248426,246.770217 367.316621,245.918317 C372.300689,243.215737 376.962259,240.160647 381.506556,236.958678 C378.398843,334.545308 499.541019,455.779511 403.495092,600.720039 C381.242694,634.267279 327.67862,648.308943 275.433858,640.0837 C156.87167,621.371273 136.906079,495.583811 152.884416,407.074323 C159.451659,370.648248 175.04886,334.60406 191.085833,303.671272" id="Fill-704" fill="#9C9EA1"></path>
            <path d="M152.880051,407.470292 C156.893456,385.127367 164.334367,362.960601 173.181434,341.997593 C182.790169,328.110334 207.397905,322.267703 220.785685,322.120904 C291.503632,321.240105 317.195281,432.484974 321.941058,462.461488 C326.598951,491.909523 332.311462,523.676994 321.443045,553.506708 C296.981783,620.682285 248.264324,627.258915 212.729581,615.368133 C150.067738,570.007003 140.283234,477.200185 152.880051,407.470292" id="Fill-705" fill="#D59985"></path>
            <path d="M243.932877,366.219636 L249.570355,364.205488 C252.214739,361.984 253.464283,358.607339 254.045466,354.964099 C255.556543,359.110876 257.706921,363.316893 260.932488,363.583471 C266.686202,364.087008 267.848569,355.438017 268.429752,350.787702 L267.209267,348.892033 L265.611013,350.195306 C264.942652,355.586116 263.896523,360.503008 261.019665,360.295669 C258.4334,360.088331 256.224903,352.535273 255.265951,349.306711 L254.510413,346.907504 L252.912159,345.87081 L251.778851,347.411041 C251.662615,352.742612 251.226727,358.666579 247.855864,361.480463 C244.572179,364.235107 239.544943,362.665256 236.580909,359.584793 C232.977572,355.823074 231.263082,349.987967 230.304129,345.93005 L228.996467,344.656397 L227.601627,345.693091 L226.962325,351.054281 C226.700793,356.178512 226.323024,359.555174 223.475226,359.851372 C220.511191,360.029091 218.738582,356.326612 216.820677,351.735537 L214.263471,346.937124 L212.694276,346.700165 L211.938738,348.240397 C212.142152,351.380099 210.45672,356.889388 207.6961,360.088331 L202.988515,362.487537 C197.670688,362.04324 194.793831,352.416793 193.573346,348.299636 L192.38192,346.966744 L190.958021,347.411041 L189.650359,350.669223 C187.935868,355.793455 186.076082,360.26605 182.501805,359.170116 C179.508711,358.251901 177.852339,353.720066 176.719031,349.869488 L174.917363,348.743934 L174.016529,350.817322 C175.38231,355.497256 177.503629,361.006545 181.833444,362.369058 C187.674336,364.205488 190.493075,357.274446 192.03321,352.831471 C193.892997,358.281521 197.176682,365.301421 202.901338,365.775339 L209.730241,362.487537 C211.938738,359.940231 213.478873,356.326612 214.263471,353.03881 L214.263471,353.06843 C216.03608,357.274446 218.709523,363.642711 223.794876,363.139174 C228.386224,362.694876 229.345177,357.955702 229.664828,353.631207 C230.827194,356.62281 232.425448,359.644033 234.750181,362.01362 C237.103974,364.472066 240.562014,366.219636 243.932877,366.219636" id="Fill-706" fill="#9496A4"></path>
            <path d="M264.267454,599.461025 L269.933991,597.446876 C272.578375,595.225388 273.827919,591.878347 274.409102,588.205488 C275.920179,592.352264 278.041498,596.558281 281.296124,596.82486 C287.049839,597.358017 288.212205,588.679405 288.793388,584.058711 L287.572904,582.133421 L285.97465,583.466314 C285.306289,588.827504 284.260159,593.744397 281.383302,593.537058 C278.797036,593.329719 276.55948,585.776661 275.600528,582.548099 L274.874049,580.148893 L273.275795,579.141818 L272.142488,580.65243 C271.997192,585.984 271.590363,591.907967 268.2195,594.751471 C264.906756,597.476496 259.90858,595.936264 256.944545,592.855802 C253.312149,589.094083 251.626718,583.258975 250.667766,579.201058 L249.360103,577.927405 L247.965263,578.964099 L247.325962,584.295669 C247.064429,589.419901 246.657601,592.826182 243.809803,593.09276 C240.874827,593.270479 239.102218,589.568 237.184314,585.006545 L234.627107,580.208132 L233.057912,579.941554 L232.302374,581.481785 C232.476729,584.621488 230.820357,590.160397 228.059736,593.359339 L223.352152,595.758545 C218.034325,595.284628 215.157467,585.658182 213.936983,581.541025 L212.745557,580.237752 L211.321658,580.68205 L210.013995,583.910612 C208.270446,589.034843 206.410659,593.537058 202.836382,592.441124 C199.872347,591.493289 198.215975,586.961455 197.082668,583.110876 L195.280999,582.014942 L194.380165,584.058711 C195.745946,588.738645 197.867265,594.277554 202.19708,595.640066 C208.037972,597.476496 210.856711,590.545455 212.367788,586.102479 C214.256633,591.552529 217.540319,598.54281 223.264974,599.046347 L230.093878,595.758545 C232.302374,593.21124 233.84251,589.568 234.598048,586.280198 L234.627107,586.339438 C236.399716,590.545455 239.073159,596.884099 244.158513,596.380562 C248.749861,595.936264 249.708813,591.226711 250.028464,586.902215 C251.19083,589.864198 252.789084,592.885421 255.113818,595.284628 C257.46761,597.743074 260.896591,599.461025 264.267454,599.461025" id="Fill-707" fill="#9496A4"></path>
            <path d="M297.597516,434.374876 L301.306969,432.656926 C304.841171,428.984066 305.396129,420.512793 305.454545,417.017653 L304.052548,415.270083 L302.592133,416.810314 C302.4753,423.089719 301.219344,428.21395 299.350013,430.198479 L297.276225,431.057455 C294.150938,430.820496 290.675152,422.319603 289.273154,416.662215 L287.754323,415.388562 L286.469158,416.839934 C286.147867,421.519868 283.431496,428.095471 279.313128,428.095471 L279.050253,428.095471 C275.662092,427.858512 274.026428,421.845686 272.712055,417.017653 L271.835806,413.90757 L270.4046,412.752397 L269.119435,413.96681 C268.389228,417.402711 264.855025,426.170182 260.824281,425.903603 C257.669786,425.844364 254.194,418.705983 252.295461,412.13038 L250.718214,410.945587 L249.520674,412.545058 C249.549882,417.343471 245.606763,424.392992 241.342353,425.251967 C238.772024,425.785124 235.09178,420.572033 231.67441,411.301025 L230.506079,410.264331 L229.191706,410.856727 L227.614458,415.270083 C226.124835,420.275835 223.671339,428.628628 218.764347,429.013686 L218.472264,429.013686 C213.828146,429.013686 206.701324,420.453554 205.532992,411.271405 L203.984953,409.790413 L202.67058,411.389884 C202.699788,417.076893 200.333917,425.725884 193.732844,426.199802 L193.469969,426.199802 C188.884268,426.199802 183.685193,417.758149 181.932696,411.567603 L180.209407,410.38281 L179.187117,412.308099 C179.625241,414.588826 178.515326,420.542413 175.740539,424.65957 L170.804338,428.21395 L170.716713,428.21395 L165.692888,424.541091 C162.947309,420.423934 161.72056,414.736926 162.129476,413.226314 L161.165603,411.152926 L159.383897,412.18962 C158.595274,415.270083 160.523021,422.112264 163.473058,426.496 C165.692888,429.843041 168.263217,431.531372 170.979588,431.501752 C173.549917,431.442512 175.974205,429.783802 178.018785,426.762579 C179.566824,424.422612 180.822781,421.312529 181.52378,418.380165 C184.4154,424.215273 189.234768,429.902281 193.995719,429.487603 C199.837376,429.102545 203.108704,424.037554 204.598327,418.646744 C207.752822,426.40714 213.886563,432.597686 219.05643,432.301488 C225.774336,431.79795 228.60754,422.201124 230.301621,416.454876 L230.418454,416.040198 C234.244739,425.103868 238.15865,429.309884 241.926519,428.510149 C246.015679,427.680793 249.637507,423.060099 251.360796,418.232066 C253.288543,423.119339 256.530663,429.132165 260.882698,429.221025 L260.999531,429.221025 C265.439191,429.221025 268.652103,423.741355 270.4046,419.41686 C271.894223,424.74843 274.055636,431.057455 278.991837,431.383273 C283.606746,431.768331 286.6152,427.443835 288.192447,422.793521 C289.944945,427.651174 293.041023,434.019438 297.1886,434.374876 L297.597516,434.374876" id="Fill-708" fill="#9496A4"></path>
            <path d="M179.99311,569.530182 L176.283658,567.812231 C172.778663,564.109752 172.223706,555.638479 172.165289,552.172959 L173.567287,550.425388 L175.027701,551.96562 C175.144535,558.245025 176.371283,563.369256 178.240613,565.324165 L180.34361,566.21276 C183.439688,565.946182 186.944683,557.445289 188.346681,551.787901 L189.865512,550.514248 L191.150676,551.99524 C191.442759,556.675174 194.188338,563.250777 198.306707,563.250777 L198.569582,563.221157 C201.957743,563.013818 203.564199,556.971372 204.878572,552.143339 L205.784029,549.033256 L207.186027,547.907702 L208.500399,549.092496 C209.230607,552.528397 212.76481,561.295868 216.795553,561.058909 C219.950048,560.97005 223.396626,553.861289 225.295165,547.256066 L226.901621,546.071273 L228.099161,547.670744 C228.040744,552.498777 232.013071,559.518678 236.277481,560.377653 C238.847811,560.91081 242.528055,555.727339 245.945425,546.426711 L247.113756,545.390017 L248.428129,546.012033 L250.005377,550.395769 C251.494999,555.401521 253.948496,563.783934 258.855488,564.139372 L259.118362,564.139372 C263.791689,564.139372 270.918511,555.60886 272.086842,546.397091 L273.605673,544.916099 L274.920046,546.51557 C274.920046,552.232198 277.256709,560.88119 283.886991,561.325488 L284.149865,561.325488 C288.735566,561.325488 293.905433,552.913455 295.657931,546.693289 L297.410428,545.538116 L298.432718,547.433785 C297.994594,549.714512 299.104509,555.668099 301.879296,559.814876 L306.815497,563.339636 L306.903122,563.339636 L311.926947,559.666777 C314.672526,555.54962 315.870066,549.892231 315.490358,548.38162 L316.454232,546.278612 L318.235937,547.315306 C319.024561,550.425388 317.096814,557.23795 314.146777,561.621686 C311.926947,564.968727 309.356618,566.657058 306.640247,566.657058 C304.069918,566.568198 301.64563,564.939107 299.60105,561.888264 C298.023802,559.548298 296.767846,556.467835 296.066847,553.505851 C293.204435,559.340959 288.385067,565.027967 283.624116,564.613289 C277.75325,564.228231 274.481922,559.16324 273.021508,553.80205 C269.867012,561.532826 263.733272,567.723372 258.563405,567.427174 C251.81629,566.953256 248.983087,557.32681 247.289006,551.580562 L247.172173,551.195504 C243.375095,560.259174 239.431976,564.46519 235.693316,563.635835 C231.604155,562.806479 227.953119,558.185785 226.259039,553.357752 C224.331292,558.245025 221.059963,564.257851 216.737137,564.346711 L216.620304,564.346711 C212.151435,564.346711 208.967732,558.896661 207.186027,554.542545 C205.725612,559.874116 203.564199,566.21276 198.59879,566.538579 C194.013089,566.894017 191.004635,562.569521 189.427387,557.948826 C187.67489,562.77686 184.578812,569.174744 180.431235,569.500562 L179.99311,569.530182" id="Fill-709" fill="#9496A4"></path>
            <path d="M185.747336,499.464463 L185.894646,499.464463 C191.404053,499.316364 193.436935,492.8 194.615418,487.172231 C196.854535,493.125818 200.625679,498.575868 205.899389,499.049785 L212.086423,496.32476 L215.857568,489.630678 L219.510864,495.880463 L225.255967,499.286744 L225.314891,499.286744 C229.910973,499.227504 232.592021,492.533421 233.799966,487.172231 L234.065125,487.853488 C235.862311,492.85924 237.777345,498.605488 242.756434,498.279669 C247.352516,498.042711 250.53442,492.000264 252.066447,486.254017 C253.893095,491.259769 257.074998,497.094876 261.052377,497.183736 L261.140763,497.183736 C265.118142,497.183736 267.828653,492.296463 269.625839,487.764628 L271.835494,492.414942 C274.074611,495.761983 277.168128,497.835372 280.261644,498.072331 C284.268485,498.368529 287.008458,495.495405 288.481561,489.482579 C289.718968,493.362777 291.987547,497.302215 296.613091,497.598413 C302.063573,497.983471 304.803546,493.125818 306.306111,489.067901 C307.484594,493.362777 309.664787,497.509554 314.820648,497.657653 L314.997421,497.657653 L320.330055,493.866314 C322.215627,490.045355 322.421861,483.617851 321.803158,482.462678 L319.888124,481.840661 L319.298882,483.647471 C319.416731,484.654545 319.328344,490.460033 317.324924,493.155438 L314.791186,494.458711 C310.254028,494.340231 309.105007,489.897256 308.014911,483.677091 L307.926525,483.173554 L306.689118,481.870281 L305.274939,482.818116 L304.833008,484.269488 C303.271518,489.719537 301.29756,494.725289 296.672015,494.429091 C292.193781,494.132893 290.838526,488.564364 289.954664,483.380893 L289.512733,481.248264 L288.03963,480.093091 L286.802223,481.485223 C286.18352,490.667372 284.003327,495.110347 280.350031,494.873388 L274.015686,490.519273 C272.159576,487.735008 271.305176,484.328727 271.806031,481.633322 L270.863245,479.737653 L269.183908,480.567008 L268.65359,482.07762 C267.416184,485.66162 264.587825,493.984793 261.052377,493.984793 L261.022915,493.984793 C257.281233,493.895934 253.186006,482.048 253.097619,479.589554 L251.712902,477.990083 L251.653978,477.990083 L250.328185,479.471074 C250.180875,485.454281 246.763275,494.873388 242.520738,495.110347 L242.373427,495.110347 C239.83969,495.110347 238.454972,491.792926 236.628324,486.727934 L234.389207,481.248264 L232.85718,480.448529 L231.796545,481.840661 C231.501925,486.846413 228.761953,496.058182 225.167581,496.087802 L225.138119,496.087802 L221.484822,493.718215 C218.980547,490.696992 217.183361,485.868959 217.065512,483.143934 L217.065512,482.492298 L215.710257,480.863207 L214.266616,482.284959 L214.266616,483.025455 C214.148768,486.964893 212.46943,491.467107 210.141927,493.955174 L206.017238,495.880463 C200.979224,495.406545 197.20808,488.031207 195.705514,480.922446 L194.350259,479.648793 L194.320797,479.648793 L192.995004,480.774347 L192.464687,483.440132 C191.521901,488.505124 190.107722,496.147041 185.717874,496.265521 L185.65895,496.265521 C180.797709,496.265521 176.172164,484.210248 175.229378,479.619174 L173.726813,478.315901 L172.489406,479.796893 C172.371558,485.009983 167.421931,491.259769 163.70971,491.230149 L158.701159,487.853488 L156.491504,480.24119 L155.313021,478.37514 L153.751532,479.648793 C153.309601,482.966215 154.370235,486.787174 156.57989,489.838017 C158.612773,492.622281 161.205435,494.310612 163.70971,494.429091 C167.863862,494.695669 172.047475,490.223074 174.050896,485.365421 C176.172164,491.200529 180.23793,499.464463 185.747336,499.464463" id="Fill-710" fill="#9496A4"></path>
            <path d="M311.603528,444.638149 L310.055465,445.971041 C309.091577,450.739835 304.330552,463.209785 299.365066,463.209785 L299.277439,463.209785 C294.750085,463.091306 293.318856,455.18281 292.354968,449.910479 L291.800002,447.185455 L290.485608,446.000661 L290.427191,446.000661 L289.025171,447.333554 C287.477108,454.679273 283.592345,462.32119 278.422398,462.824727 L274.187131,460.840198 C271.821223,458.263273 270.068698,453.583339 269.951863,449.525421 L269.951863,448.755306 L268.491426,447.274314 L267.089407,448.962645 L267.089407,449.643901 C266.972572,452.457785 265.132421,457.433917 262.532843,460.57362 L258.794124,463.061686 L258.764915,463.061686 C255.084614,463.002446 252.251366,453.46486 251.959279,448.281388 L250.878555,446.830017 L249.301283,447.659372 L246.993793,453.34638 C245.124433,458.589091 243.693205,462.024992 241.093627,462.024992 L240.947583,462.024992 C236.595481,461.788033 233.090432,452.043107 232.944388,445.822942 L231.571577,444.282711 L231.51316,444.282711 L230.081931,445.941421 C229.994305,448.488727 225.788246,460.780959 221.99111,460.869818 L221.932693,460.869818 C218.2816,460.869818 215.360726,452.220826 214.10475,448.518347 L213.578993,446.948496 L211.826468,446.089521 L210.86258,448.07405 C211.388337,450.858314 210.512075,454.383074 208.584298,457.285818 C206.802565,459.981223 204.436657,461.610314 202.099957,461.788033 C198.361238,462.024992 196.112165,457.404298 195.469573,447.92595 L194.213597,446.474579 L192.665534,447.659372 L192.227403,449.88086 C191.321932,455.24205 189.949121,460.988298 185.33414,461.314116 C180.573115,461.639934 178.557712,456.426843 176.951231,450.799074 L176.5131,449.288463 L175.052663,448.311008 L173.796687,449.673521 L173.679852,450.177058 C172.56992,456.634182 171.40157,461.225256 166.728172,461.373355 L164.128594,459.981223 C162.083982,457.196959 161.996356,451.213752 162.11319,450.177058 L161.470598,448.251769 L159.513613,448.903405 C158.900229,450.117818 159.10469,456.782281 161.061676,460.751339 L166.494502,464.661157 L166.698963,464.661157 C171.985745,464.513058 174.234818,460.218182 175.432376,455.775207 C176.98044,459.981223 179.813688,465.016595 185.392557,464.601917 C190.153582,464.276099 192.490281,460.218182 193.746257,456.189884 C195.265112,462.41005 198.069151,465.401653 202.187583,465.105455 C205.371336,464.838876 208.52588,462.706248 210.833371,459.211107 L213.111653,454.412694 C214.951803,459.092628 217.755843,464.18724 221.815858,464.18724 L221.932693,464.18724 C226.021916,464.06876 229.264087,458.026314 231.133446,452.872463 C232.710718,458.79643 235.982097,465.075835 240.684704,465.312793 C245.825443,465.668231 247.782429,459.714645 249.622579,454.501554 L249.885458,453.790678 C251.141434,459.359207 253.887056,466.290248 258.618872,466.349488 L258.64808,466.349488 L264.577455,462.824727 L268.316174,456.337983 C269.221645,459.063008 270.594456,461.551074 272.200936,463.298645 L278.539233,466.112529 C283.972059,465.608992 287.856822,459.981223 290.135103,453.820298 C291.332662,459.655405 293.4649,466.379107 299.102187,466.527207 L299.248231,466.527207 C304.885518,466.527207 309.091577,457.967074 311.253023,451.924628 L312.859504,446.17838 L311.603528,444.638149" id="Fill-711" fill="#9496A4"></path>
            <path d="M166.045456,511.267967 L167.593448,512.60086 C168.557292,517.399273 173.318098,529.869223 178.283356,529.869223 L178.370978,529.869223 C182.868917,529.750744 184.329287,521.812628 185.293131,516.569917 L185.818864,513.844893 L187.162404,512.660099 L187.220819,512.660099 L188.593567,513.963372 C190.170766,521.338711 194.026143,528.980628 199.22506,529.484165 L203.430925,527.470017 C205.825931,524.922711 207.549168,520.242777 207.665997,516.15524 L207.695205,515.385124 L209.155575,513.904132 L210.55753,515.592463 L210.55753,516.273719 C210.645152,519.087603 212.514425,524.093355 215.084676,527.233058 L218.852431,529.691504 L218.881638,529.691504 C222.56177,529.632264 225.36568,520.094678 225.686962,514.940826 L226.767635,513.489455 L228.315627,514.28919 L230.623012,520.005818 C232.492285,525.218909 233.923448,528.65481 236.522906,528.65481 L236.698151,528.65481 C241.050053,528.417851 244.55494,518.672926 244.700977,512.48238 L246.073725,510.942149 L246.102933,510.942149 L247.563302,512.57124 C247.621717,515.148165 251.827582,527.410777 255.653752,527.529256 L255.712166,527.529256 C259.333884,527.529256 262.254623,518.880264 263.510541,515.148165 L264.065482,513.607934 L265.788718,512.748959 L266.78177,514.703868 C266.256037,517.488132 267.132259,521.012893 269.03074,523.915636 C270.812391,526.611041 273.17819,528.269752 275.543989,528.447471 C279.282536,528.68443 281.531506,524.063736 282.174068,514.555769 L283.429987,513.104397 L284.948771,514.31881 L285.386882,516.510678 C286.321519,521.901488 287.694267,527.647736 292.309035,527.943934 C297.069841,528.269752 299.085152,523.086281 300.662351,517.428893 L301.129669,515.918281 L302.560832,514.940826 L303.845957,516.332959 L303.93358,516.806876 C305.072668,523.264 306.240964,527.855074 310.914148,528.003174 L313.513606,526.640661 C315.558124,523.856397 315.645746,517.84357 315.528916,516.806876 L316.142272,514.911207 L318.099167,515.562843 C318.712523,516.747636 318.537278,523.441719 316.580383,527.381157 L311.118599,531.320595 L310.943355,531.320595 C305.627609,531.142876 303.378639,526.848 302.181136,522.405025 C300.633144,526.611041 297.829233,531.646413 292.250621,531.261355 C287.489815,530.935537 285.153223,526.87762 283.897305,522.849322 C282.37852,529.069488 279.57461,532.061091 275.456367,531.735273 C272.243553,531.498314 269.089154,529.365686 266.78177,525.870545 L264.5328,521.072132 C262.663527,525.752066 259.888824,530.817058 255.828996,530.817058 L255.712166,530.817058 C251.623131,530.728198 248.38111,524.685752 246.511836,519.502281 C244.934637,525.455868 241.663408,531.705653 236.93181,531.972231 C231.791308,532.29805 229.86362,526.344463 227.994346,521.160992 L227.760687,520.450116 C226.504769,526.018645 223.730066,532.949686 219.027675,533.008926 L218.96926,533.008926 L213.069366,529.454545 L209.330819,522.997421 C208.42539,525.692826 207.052642,528.180893 205.417028,529.928463 L199.079023,532.771967 C193.675654,532.26843 189.79107,526.611041 187.512893,520.450116 C186.286183,526.285223 184.18325,533.008926 178.517015,533.157025 L178.400185,533.157025 C172.73395,533.157025 168.557292,524.626512 166.395945,518.554446 L164.760331,512.808198 L166.045456,511.267967" id="Fill-712" fill="#9496A4"></path>
            <path d="M162.293254,380.762975 L163.763972,382.066248 C164.822888,387.545917 167.587837,393.144066 171.352874,393.321785 L171.441117,393.321785 C175.353226,393.321785 178.08876,384.643174 178.235832,381.858909 L179.647721,380.437157 L180.971367,382.095868 C180.912538,386.449983 182.383256,391.722314 184.265774,393.825322 L185.618834,394.625058 C189.266214,394.506579 191.26639,391.514975 192.089992,385.028231 L193.413637,383.724959 L193.443052,383.724959 L194.825526,385.087471 C195.590299,389.856264 198.03169,397.024264 200.796639,397.201983 L200.884882,397.201983 C204.032218,397.201983 209.238558,387.605157 209.356216,383.695339 L210.650447,382.243967 L212.09175,383.665719 C212.738866,388.582612 218.121692,395.454413 222.327944,395.454413 L222.622088,395.424793 C226.710683,395.128595 228.946173,387.16086 228.622615,382.066248 L229.652118,380.466777 L231.240493,381.384992 C233.770127,387.575537 237.91755,394.743537 241.241372,394.743537 L241.270786,394.743537 L244.329879,392.551669 C246.741856,389.115769 248.094916,382.925223 247.624286,380.052099 L248.536131,378.304529 L250.212749,379.163504 L251.124594,381.473851 C252.742383,385.827967 255.919133,394.003041 259.654756,393.736463 C263.096235,393.617983 263.596279,389.945124 263.949251,384.376595 L264.125737,382.007008 L265.214068,380.674116 L266.684786,381.503471 C268.920276,386.183405 271.832297,391.455736 275.920892,391.129917 C277.59751,390.952198 279.538857,388.997289 280.921332,386.094545 L282.097906,381.977388 L281.744933,380.526017 L282.568535,378.896926 L284.186325,379.400463 L284.83344,381.592331 C285.9806,384.909752 289.245593,390.419041 290.245681,390.656 L291.275183,379.281983 L291.834056,377.149355 L293.68716,377.830612 C294.716662,380.022479 294.451933,386.509223 293.510674,390.093223 L291.598741,393.469884 L289.010278,393.232926 C287.304246,392.166612 285.362899,389.234248 283.921595,386.331504 C282.480292,390.093223 279.597686,393.943802 276.24445,394.26962 C272.097026,394.654678 268.949691,391.218777 266.5083,387.16086 C266.096499,391.603835 264.949339,396.698446 259.860656,396.905785 L259.654756,396.905785 C255.066117,396.905785 252.007025,391.100298 249.918606,386.064926 C249.300904,389.086149 248.094916,392.285091 246.506541,394.565818 L241.447273,397.88324 L241.329615,397.88324 C237.270435,397.88324 233.593641,392.610909 231.005178,387.575537 C230.063919,392.936727 227.387213,398.238678 222.916231,398.594116 C218.44525,398.831074 213.415396,394.15114 210.915176,388.90843 C208.973829,394.091901 204.973477,400.371306 201.00254,400.371306 L200.767225,400.371306 C197.14926,400.134347 194.854941,395.424793 193.531295,391.366876 C192.384135,394.506579 190.178059,397.616661 185.79532,397.76476 L182.353841,396.01719 C181.030196,394.506579 179.883036,391.988893 179.147677,389.145388 C177.559302,392.936727 175.029668,396.579967 171.352874,396.461488 C167.411351,396.283769 164.587573,392.670149 162.793298,388.404893 L161.057851,382.303207 L162.293254,380.762975" id="Fill-713" fill="#9496A4"></path>
            <path d="M267.411994,659.138619 C263.321629,649.117535 275.063038,640.271945 285.715644,636.392816 C299.252106,631.455742 313.759661,628.575782 328.414352,627.841099 C328.090654,611.325412 320.233621,595.661958 315.819558,579.557695 C312.288307,566.568489 310.993515,553.138473 311.994036,539.914169 C313.612526,518.578958 321.587267,497.390684 337.183625,481.84478 C352.80941,466.298875 371.289622,457.864708 394.331034,462.008323 C424.699791,467.444982 481.994336,518.108761 400.804994,629.457403 C393.301086,639.742973 384.56124,649.411408 373.614363,656.58192 C349.77842,672.157212 317.938308,674.243713 288.511218,670.217647 C280.124497,669.071541 270.38413,666.456067 267.411994,659.138619" id="Fill-714" fill="#545654"></path>
            <path d="M258.83479,654.085885 C254.63455,654.204283 248.30461,652.161911 248.127135,649.201951 C247.801765,643.874023 262.739238,644.022021 265.312624,643.874023 C261.585651,643.666825 251.262526,641.180459 251.82453,637.332511 C252.356955,633.484563 277.38092,635.053341 285.367291,637.066114 C275.2808,641.298857 265.164729,649.734744 269.010019,659.177017 C271.997513,666.547317 281.788214,669.181682 290.218273,670.336066 L292.495868,670.602463 C280.220518,673.05923 255.433187,672.171242 254.25002,668.767287 C253.007696,665.333734 258.361523,663.912953 262.177234,662.728969 C258.47984,663.557758 248.955352,662.728969 248.127135,660.005805 C247.387657,657.608238 253.510542,655.062672 258.83479,654.085885" id="Fill-715" fill="#B46668"></path>
            <path d="M16.4961986,442.973534 C11.3447586,443.954653 -1.00093395,439.626186 0.0648812337,436.394264 C1.16030239,433.162342 11.6704243,433.104629 19.7824621,433.739471 C14.2757503,431.690663 4.09129415,428.978157 5.60119899,423.899422 C7.11110383,418.820688 22.0621224,423.235724 29.2267689,425.226819 C23.2167555,422.600882 12.9434814,417.233583 15.2823536,412.068279 C17.6508317,406.902975 54.9839691,420.75407 47.0199612,438.673923 C39.0559533,456.622633 2.8478431,454.77582 2.5813893,451.226477 C2.28532953,447.734847 9.47958201,444.820346 16.4961986,442.973534" id="Fill-716" fill="#B46668"></path>
            <path d="M125.561724,266.655005 C172.674959,223.16595 163.740197,129.555906 211.059166,87.9742652 C276.247659,30.6931345 400.452605,78.936054 405.331455,159.810437 L410.151524,157.903023 C410.8569,159.076816 405.889877,179.207377 404.008875,185.516518 C408.123568,182.611379 412.355823,180.997413 414.677686,182.171206 C410.151524,193.204867 399.80601,205.001493 395.279848,216.035154 C400.364433,213.364773 404.390954,213.746256 408.623209,214.567912 C395.926442,226.452572 383.053332,237.427543 367.740796,245.644099 C370.679862,246.495099 373.530756,247.756927 376.146525,249.370894 C365.889184,256.707104 359.09994,263.309693 327.65193,274.607457 L336.116441,278.715735 C319.628279,280.887253 314.073443,287.900671 283.272027,291.245982 C287.651236,293.710949 290.296396,295.911812 292.618258,298.728917 C273.396764,300.812401 191.661328,309.205025 136.43627,297.555123 C116.5094,292.507811 113.599724,278.950494 125.561724,266.655005" id="Fill-717" fill="#B7B2B5"></path>
            <path d="M216.405261,85.1570248 C206.87718,76.1459341 200.94405,62.732704 200.09646,52.3625636 C199.102734,40.3674723 202.200822,6.6866743 222.4553,0.718673249 C242.709779,-5.27887236 260.742987,27.9292127 263.987211,38.447076 C266.179254,45.5377703 268.049798,55.5829206 268.429752,64.0917537 C249.636635,66.2780512 231.603427,73.0437553 216.405261,85.1570248" id="Fill-718" fill="#B7B2B5"></path>
            <path d="M218.734507,83.3057851 C214.377338,79.4005438 211.84063,73.2764153 210.258918,67.4481385 C206.528465,53.809379 205.782374,38.7801169 211.542194,25.8218161 C212.735939,23.0703961 214.317651,20.3781464 216.675297,18.484696 C219.570129,16.2066386 226.076039,10.052925 234.372567,14.5794547 C242.669094,19.1059844 251.711713,35.5553343 256.54638,45.5551189 C253.890297,43.6320834 247.085951,40.3185453 243.20628,39.9339382 C247.026264,43.4841576 248.816881,53.0401648 257.322314,61.2648397 C254.606544,61.6494468 243.20628,50.880448 240.520353,51.4721512 C244.310494,56.2057771 245.6833,66.3534875 249.473441,68.5723746 C239.774263,71.7084018 227.23994,77.2999973 218.734507,83.3057851" id="Fill-719" fill="#433A41"></path>
            <path d="M379.504132,103.236399 C394.468186,88.4972537 412.267227,76.9545494 432.667442,74.3796384 C440.295602,73.4325447 449.092829,74.2612517 453.856776,80.3581673 C458.942216,86.8398397 462.390963,126.558581 432.959708,144.020621 C424.250161,149.170443 415.131441,152.485271 405.866587,155.504132 C403.29464,135.555971 393.591386,117.738771 379.504132,103.236399" id="Fill-720" fill="#B7B2B5"></path>
            <path d="M390.244526,105.787605 C400.722949,105.728604 406.986256,96.1113189 411.527895,96.553832 C410.963901,94.8722823 402.563352,96.6423347 399.654328,95.0787884 C411.468527,89.7686311 426.844796,83.956959 432.751896,85.373001 C442.755376,87.7920726 442.577273,97.2913539 442.399169,103.339033 C442.221066,109.386712 440.083824,115.227885 437.471639,120.715048 C435.601552,124.668165 433.46431,128.532779 430.555286,131.807376 C426.547957,136.291509 420.195599,143.637226 403.691341,149.950413 C401.613467,138.71058 394.964269,124.815669 388.760331,115.286887 C393.925332,114.165854 398.793495,108.9737 404.67091,109.062202 L390.244526,105.787605" id="Fill-721" fill="#433A41"></path>
            <path d="M114.179298,262.507142 C120.281039,256.835302 129.40403,256.07122 137.223737,258.98061 C145.073064,261.860611 162.311963,268.766738 162.904365,284.871238 C163.378287,297.713695 128.071126,307.264722 118.385352,302.239413 C108.699579,297.184715 105.737569,270.353678 114.179298,262.507142" id="Fill-722" fill="#C37D7C"></path>
            <path d="M241.398525,201.993163 C270.983971,181.675845 310.480396,156.109641 318.916525,164.572732 C327.352655,173.035824 293.726125,213.758924 286.322389,221.779694 C274.376121,234.724981 208.715897,268.429907 202.904997,262.08996 C197.123593,255.779502 214.290822,220.629657 241.398525,201.993163" id="Fill-723" fill="#888789"></path>
            <path d="M175.79267,173.518153 C184.320867,146.595302 218.084375,115.532732 227.136488,118.70358 C236.188601,121.903789 217.473139,160.629242 209.527072,180.388325 C199.223381,206.019349 177.015142,234.96802 170.116908,233.177078 C163.218674,231.356776 167.235367,200.441005 175.79267,173.518153" id="Fill-724" fill="#888789"></path>
            <path d="M249.920563,222.329923 C244.877411,215.792105 245.319793,207.436598 249.212752,202.452611 C253.135203,197.468624 262.454711,194.507549 268.146688,197.322036 C270.565042,198.524056 278.144515,203.009645 279.412675,213.68124 C281.536108,231.271782 255.877969,230.040444 249.920563,222.329923" id="Fill-725" fill="#17111C"></path>
            <path d="M178.842593,174.311119 C180.353205,171.082557 182.515453,168.031714 185.536676,166.165665 C188.587519,164.329235 192.675056,163.884937 195.696279,165.810227 C198.835982,167.794756 200.139255,171.734194 200.583552,175.436673 C201.087089,179.49459 196.466395,191.224045 188.617139,190.868607 C180.767883,190.513169 177.924379,185.892475 177.243122,182.960111 C176.591486,180.057367 177.539321,177.006524 178.842593,174.311119" id="Fill-726" fill="#17111C"></path>
            <path d="M240.402781,103.992996 L242.923821,107.405239 C248.083159,92.7561283 255.294506,78.8718308 264.294033,66.2230004 C265.144151,68.5174394 264.880321,70.5765513 263.649116,73.6652192 C277.690723,60.6633982 295.396632,51.7209693 314.15786,48.1322314 C310.962589,54.3389831 309.995213,56.398095 303.458097,61.487043 C323.157387,54.6331419 331.130909,62.3401037 347.371097,63.9285614 C345.905376,67.6643788 341.390956,70.2529766 338.518143,73.0769015 C361.148874,82.9606387 373.578188,98.7569688 377.652893,102.904608 C343.736109,104.522482 321.134692,114.435635 296.188121,129.967222 C271.036349,145.645889 253.975357,169.678666 218.446281,186.975207 C232.605146,167.178316 231.842971,128.202269 240.402781,103.992996" id="Fill-727" fill="#888789"></path>
            <path d="M288.174459,424.33038 C297.016135,399.938246 310.851447,308.358196 350.448054,313.032138 C390.04466,317.70608 383.464809,408.46819 371.245084,434.496204 C373.036919,432.217657 378.559294,434.116446 381.320482,433.152446 C382.113589,441.770026 369.188881,453.425669 362.550281,463.270159 C365.898955,462.569068 367.514544,462.539855 370.833844,461.809552 C370.5401,464.292584 355.265445,478.664955 348.274353,483.952352 L355.471065,483.280473 C351.035541,489.239749 330.561628,496.805692 327.536071,497.506783 C330.179761,498.587633 333.058446,499.2303 335.937131,499.405572 C323.335541,501.713331 238.94307,539.630685 228.662052,512.025216 C220.554735,490.232961 265.849963,485.909565 288.174459,424.33038" id="Fill-728" fill="#545654"></path>
            <path d="M218.475873,513.53726 C212.951568,515.005859 204.371265,514.228366 203.666034,510.888023 C202.960804,507.576477 215.00849,505.128812 220.50341,504.092154 C216.125105,504.293727 208.396955,503.97697 208.485109,500.060707 C208.573263,496.374812 230.582328,493.293634 237.311401,492.429752 C230.523559,498.79368 226.938638,504.149746 229.730175,511.579129 C232.991865,520.217945 243.776013,522.348853 257.322314,521.139419 C247.919242,525.228459 220.856025,529.547867 219.886334,526.668262 C218.887257,523.731064 224.264639,521.456176 228.055252,519.728412 C222.207717,522.147281 208.308801,524.306985 206.986494,521.600156 C205.664187,518.893327 211.658646,515.725761 218.475873,513.53726" id="Fill-729" fill="#B46668"></path>
        </g>
    </g>
</svg>