<?xml version="1.0" encoding="UTF-8"?>
<svg width="720px" height="720px" viewBox="0 0 720 720" version="1.1" xmlns="http://www.w3.org/2000/svg" xmlns:xlink="http://www.w3.org/1999/xlink">
    <title>img_x</title>
    <g id="img_x" stroke="none" stroke-width="1" fill="none" fill-rule="evenodd">
        <g id="x-ray-fish" transform="translate(24.000000, 172.000000)">
            <path d="M254.234307,72.8414393 C267.965048,74.7070673 281.117652,77.778178 293.69212,81.509434 C310.747145,60.9014203 330.635039,26.7173753 329.6233,2.7799332 C308.232252,-12.747832 243.307528,40.4943204 213.735849,70.37307 C230.328365,70.3156661 244.348174,71.4924468 254.234307,72.8414393" id="Fill-1305" fill="#E8DF24"></path>
            <path d="M295.086349,57.7055849 C314.296473,39.1726618 290.887729,19.1593823 283.698312,14.490566 C267.536501,24.2836928 250.195625,37.8346474 235.471698,50.7023605 C255.94716,56.9654067 285.164953,67.2424962 295.086349,57.7055849" id="Fill-1306" fill="#17111C"></path>
            <path d="M518.426131,186.413733 C495.818345,180.473606 443.679677,166.670702 412.224117,144.976325 C400.589869,136.970067 336.242422,84.5419898 253.452537,73.1495724 C225.070716,69.2468803 162.734127,66.520735 101.805138,92.0604114 C59.9218445,109.59383 25.5936306,130.542104 8.64497264,149.223373 L8.58751956,149.252069 C5.54250644,152.609532 3.0720241,155.909602 1.20479907,159.094888 C-0.777332111,163.628898 0.515362138,167.818553 8.73115225,171.60646 C1.17607253,173.270843 -1.40931597,176.427432 0.71644791,180.990139 C18.0672774,205.582838 99.507015,246.790676 214.958975,266.73458 C231.620367,269.604207 262.099225,269.604207 278.99043,269.862473 C364.107164,271.096413 472.262583,224.981514 516.903625,220.877948 C528.250608,212.87169 527.388811,191.837327 518.426131,186.413733" id="Fill-1307" fill="#CCBD9C"></path>
            <path d="M271.437107,207.1296 C261.065936,172.311256 215.513002,163.912719 208.608437,163.030161 C157.067727,156.36827 104.810776,167.670708 103.263695,201.862721 C102.833951,211.770148 109.996362,220.339504 117.473919,226.915986 C132.65823,240.268237 159.760794,256.894494 207.233254,260.567075 C224.652238,261.905147 242.758813,258.175627 257.312833,248.552896 C261.868126,245.535116 266.108273,241.891005 269.030537,237.307396 C274.645867,228.481815 274.41667,217.122437 271.437107,207.1296" id="Fill-1308" fill="#DECBA9"></path>
            <path d="M490.867925,205.49434 C473.971087,200.809985 455.008763,195.897126 433.608015,191.041393 C436.648872,185.671524 440.665098,177.331089 444.595262,171.704151 C438.140613,174.103454 429.333603,184.528999 425.288689,189.18479 C415.334186,187.013991 404.863311,184.871756 393.876064,182.758084 C396.429236,172.218287 401.535581,161.021538 404.834623,153.937881 C397.433292,160.964412 391.007331,167.819565 383.978935,180.930044 C373.594122,179.016313 362.750311,177.188273 351.418816,175.417358 C355.578479,162.878142 364.041241,146.882787 369.807394,138.085341 C362.176565,140.713149 349.984449,154.56627 341.005315,173.817823 C331.681933,172.446792 322.014303,171.132888 312.031113,169.847547 C317.625142,153.395181 325.05516,136.2573 333.804796,121.690102 C316.535023,131.458694 306.781331,152.338345 298.892316,168.248012 C287.646883,166.905544 275.971139,165.677329 263.893774,164.506241 C270.348423,140.656023 282.339727,117.377068 288.737001,106.180319 C274.909708,114.149434 255.459699,145.197562 247.111686,163.020958 C233.714703,161.878433 219.801348,160.85016 205.342934,159.936139 L209.244411,159.736197 C213.834384,141.427228 236.267875,103.381132 237.702242,100.496255 C224.821631,107.208592 202.416827,149.28209 197.138358,159.450566 C184.860181,158.765051 172.209069,158.165225 159.185021,157.651089 C165.610983,136.857126 182.966817,108.122612 190.626334,97.8113208 C170.573891,108.893817 152.099251,134.88627 144.439734,157.136952 C135.145039,156.851321 125.592158,156.622816 115.924528,156.451437 C116.268776,159.30775 116.584337,162.164064 116.641712,165.163193 C116.699086,167.791001 116.641712,170.190305 116.55565,172.589608 C124.760226,172.589608 132.964802,172.561045 141.169378,172.646734 C146.562596,187.27106 166.50029,229.116052 178.348157,234.400232 C174.905678,223.232046 156.775285,185.557271 157.463781,173.018055 C169.94277,173.275123 182.393071,173.675007 194.872059,174.217707 L194.183563,174.303396 C198.113727,196.125631 213.461449,228.516226 226.399434,235.714136 C218.28092,213.806212 211.596772,197.696604 209.818158,174.846096 C221.092278,175.417358 232.366399,176.131437 243.583144,176.931205 L245.189635,177.07402 C250.783664,227.316575 262.459407,241.826647 266.590383,245.197097 C263.090529,225.774165 260.250483,194.297591 261.197165,178.473614 C272.557347,179.473324 283.888842,180.587286 295.220338,181.844064 C296.224394,205.265835 300.183246,223.746183 320.723373,246.339623 C313.092544,224.403135 308.961568,206.265544 309.850876,183.500726 C318.485762,184.528999 327.120648,185.642961 335.755534,186.756923 C338.251332,202.952221 344.218296,231.229724 357.902152,237.11373 C353.541678,224.831582 350.845069,205.49434 349.754951,188.556401 C360.025015,189.927431 370.266391,191.355588 380.536455,192.783745 C384.810867,220.061538 390.806519,226.54537 397.46198,234.914369 C391.408953,215.348621 391.695827,207.236691 392.613821,194.411843 C399.843028,195.354427 411.002399,196.811147 423.682199,198.353556 C427.182053,213.177823 430.882719,218.147808 436.648872,226.63106 C436.189875,217.805051 433.780139,208.264964 432.173648,199.381829 C453.086712,201.895385 476.09395,204.466067 490.867925,205.49434" id="Fill-1309" fill="#FFFFFE"></path>
            <path d="M78.6863006,103.245283 C48.172764,117.952518 23.5427448,134.096007 9.61265198,148.860692 C1.27766891,157.736738 -5.67295712,165.607407 8.80511036,172.271623 C-5.12498245,175.31648 -2.32742758,183.359499 15.7845772,196.027255 C30.349167,206.224654 52.0085866,218.605159 80.2725431,230.037736 C89.6169532,225.728976 117.015686,217.973207 115.890896,165.894658 C115.227559,135.41736 99.7689049,111.862804 78.6863006,103.245283" id="Fill-1310" fill="#9AB59F"></path>
            <path d="M55.6649909,132.788182 C36.9270759,136.515481 37.5661986,168.226196 54.1543372,173.960503 C69.3480264,179.236065 84.7160218,172.154196 85.1227362,157.388357 C85.5003996,144.629525 74.4029058,129.060883 55.6649909,132.788182" id="Fill-1311" fill="#FFFFFE"></path>
            <path d="M66.2299046,161.825412 C73.0984329,160.463299 72.895565,148.667978 66.7805461,146.523374 C61.2161688,144.581639 55.564848,147.218922 55.4199424,152.696356 C55.3040178,157.449261 59.3613763,163.216507 66.2299046,161.825412" id="Fill-1312" fill="#17111C"></path>
            <path d="M287.972905,269.232432 C285.146253,269.290068 282.261915,269.405341 279.49295,269.376523 C262.619571,269.145977 232.362862,269.117159 215.54717,266.264151 C224.777052,286.091114 254.716484,361.479684 281.19471,360.442226 C297.173944,359.808224 310.499587,321.249392 307.499875,304.967075 C304.846284,290.327398 296.856667,278.54073 287.972905,269.232432" id="Fill-1313" fill="#E8DF24"></path>
            <path d="M246.671821,297.117531 C235.410064,310.974692 271.59024,344.793106 284.020939,321.938917 C295.368229,301.109782 259.074009,281.842833 246.671821,297.117531" id="Fill-1314" fill="#17111C"></path>
            <path d="M329.660377,266.842344 C357.992511,298.502991 364.390089,357.863118 393.150632,358.638129 C411.686473,359.154804 400.662075,300.282647 413.685716,288.714885 C429.736784,274.448936 457.954675,272.755393 465.780284,252.691211 C468.379301,246.060559 467.636724,238.941936 463.952405,233.660377 C425.424131,244.596648 376.671155,259.867242 329.660377,266.842344" id="Fill-1315" fill="#E8DF24"></path>
            <path d="M345.962264,289.739459 C352.490405,302.013369 357.857988,315.12087 363.341626,326.503701 C376.397908,332.022649 390.933902,331.275291 395.60515,316.385629 C403.8161,290.25686 362.790361,275.913344 345.962264,289.739459" id="Fill-1316" fill="#17111C"></path>
            <path d="M625.129214,218.481087 C625.873163,199.177928 643.67073,191.10622 657.519641,170.424265 C670.796283,150.604057 676.433133,127.394307 668.049392,122.252543 C653.771279,113.433987 573.024117,172.463735 516.226415,184.614384 L519.888937,185.591032 C528.816334,191.020046 529.674738,212.075425 518.372424,220.089683 L517.084819,220.290758 C568.617646,246.229377 638.234175,322.264289 655.545313,312.49781 C663.414012,308.045444 664.501324,284.548445 652.569514,263.320715 C639.207032,239.565191 624.499718,235.572425 625.129214,218.481087" id="Fill-1317" fill="#EC952D"></path>
            <path d="M609.797958,233.912565 C586.18583,218.556132 554.674579,223.996049 556.123698,237.227515 C556.578324,241.392451 559.959604,244.565736 563.11357,247.314028 C578.599262,260.715491 622.641137,295.678292 634.319338,288.963394 C638.837182,286.356767 633.410086,249.268998 609.797958,233.912565" id="Fill-1318" fill="#E5702A"></path>
            <path d="M653.131528,138.855244 C649.039228,130.345713 548.46088,169.386063 558.605172,189.538703 C561.083607,194.425933 591.314749,200.578095 617.943515,189.049979 C644.572282,177.493116 657.223828,147.393524 653.131528,138.855244" id="Fill-1319" fill="#E5702A"></path>
            <path d="M633.439363,145.938819 C580.180376,172.891272 528.90566,190.188679 528.90566,190.188679 C539.689742,188.759383 550.330037,186.484175 560.740271,183.333889 C584.724069,176.099897 607.126202,164.490507 629.384548,152.968625 C639.449691,147.747317 649.716137,142.380162 657.509434,134.037736 C648.853411,136.371282 641.46272,141.884283 633.439363,145.938819" id="Fill-1320" fill="#E0552A"></path>
            <path d="M587.857071,180.103245 C582.910323,181.349434 577.963575,182.595623 573.045756,183.870792 C560.143711,187.14566 547.241667,190.420528 534.339623,193.695396 C542.294919,193.637434 561.590129,191.347925 592.08061,183.494038 C620.256824,176.248755 635.154924,166.569057 637.584906,164.946113 C625.290357,169.496151 591.935969,179.059925 587.857071,180.103245" id="Fill-1321" fill="#E0552A"></path>
            <path d="M532.528302,202.848408 C538.385831,204.529314 555.237049,204.123578 567.154091,203.717842 C587.843,203.022295 619.900709,196.50154 628.528302,190.792257 C604.521088,195.371276 579.417391,199.718446 532.528302,202.848408" id="Fill-1322" fill="#E0552A"></path>
            <path d="M607.162929,209.752443 C593.928925,209.346707 567.117176,207.433952 559.698113,207.984594 C575.51017,211.520292 602.235983,212.708518 614.037736,212.24482 L607.162929,209.752443" id="Fill-1323" fill="#E0552A"></path>
            <path d="M548.830189,211.417358 C548.830189,211.417358 593.847627,230.255094 617.660377,234.167547 C595.973765,223.154717 572.699636,215.445736 548.830189,211.417358" id="Fill-1324" fill="#E0552A"></path>
            <path d="M536.150943,211.924528 C548.654946,222.260457 607.75701,253.586715 637.948908,268.699753 L643.018868,269.886792 C623.73593,252.023297 542.303255,212.532524 536.150943,211.924528" id="Fill-1325" fill="#E0552A"></path>
            <path d="M639.396226,293.433962 C635.995597,288.640329 631.067567,285.138393 626.341268,281.636457 C611.297806,270.441744 556.138446,228.734262 541.584906,222.792453 C567.666003,247.47823 616.312294,280.603099 639.396226,293.433962" id="Fill-1326" fill="#E0552A"></path>
        </g>
    </g>
</svg>