<?xml version="1.0" encoding="UTF-8"?>
<svg width="720px" height="720px" viewBox="0 0 720 720" version="1.1" xmlns="http://www.w3.org/2000/svg" xmlns:xlink="http://www.w3.org/1999/xlink">
    <!-- Generator: Sketch 64 (93537) - https://sketch.com -->
    <title>img_e</title>
    <desc>Created with Sketch.</desc>
    <g id="img_e" stroke="none" stroke-width="1" fill="none" fill-rule="evenodd">
        <g id="elephant" transform="translate(83.840708, 11.000000)">
            <path d="M339.843868,269.499923 C252.292882,295.790178 184.822623,263.711033 160.252102,212 C98.6777816,304.073095 6.88369316,475.886433 122.582235,599.901388 C128.231482,637.105874 142.169579,680.099251 146.042643,687.306762 C152.061928,698.587089 208.357039,703.849716 212.32878,690.578743 C215.585114,679.687393 230.880017,648.248915 231.866785,601.983558 C249.554601,602.418297 264.306782,602.097963 276.296012,601.892034 C281.723236,635.183871 294.181181,676.85015 300.225135,688.42793 C307.921925,703.140405 364.463728,701.561617 367.029325,689.457575 C372.900594,661.611412 378.377156,627.404335 382.792943,593.586235 C478.139396,495.312392 421.622262,355.646842 382.57092,284.578494 C367.892747,280.803131 353.559943,275.609146 339.843868,269.499923" id="Fill-234" fill="#B6B6B2"></path>
            <path d="M178.275467,674.996805 C169.640224,675.760689 167.636056,690.413374 168.601026,698.029066 C175.726957,698.954986 183.421973,699.25591 190.325218,698.769802 C190.25099,690.482818 187.628251,674.163477 178.275467,674.996805 Z M155.215163,674.001441 C148.361403,673.862553 146.654148,683.793046 146.159292,690.320782 C149.252144,693.58465 156.551275,696.061486 165.260746,697.51981 C164.914346,690.181894 163.207092,674.163477 155.215163,674.001441 Z M205.54205,675.320877 C194.185097,674.672733 192.923214,690.274486 192.923214,698.538322 C200.692458,697.75129 207.076104,695.922598 209.822557,692.843914 C210.663813,686.362474 210.168956,675.575505 205.54205,675.320877 L205.54205,675.320877 Z" id="Fill-235" fill="#C7C6C1"></path>
            <path d="M326.555477,675.334292 C320.197464,680.367 321.310735,690.933409 321.459171,698.425539 C329.103631,699.245346 337.490271,699.177029 344.887337,698.288904 C344.442029,689.703697 342.611317,680.549179 337.589228,676.085783 C334.991596,673.762995 329.252067,673.193684 326.555477,675.334292 Z M354.758338,678.454116 C349.414638,678.363026 346.940703,690.705684 346.198523,698.129497 C354.68412,696.990876 361.586399,694.78195 364.159292,691.707671 C362.996543,685.308618 360.02782,678.567978 354.758338,678.454116 Z M306.194991,677.315494 C299.663802,676.655094 298.9711,684.853169 299.193754,689.840332 C302.187216,694.258184 310.202766,696.968103 319.702677,698.197814 C318.663624,692.755203 316.263907,678.317481 306.194991,677.315494 L306.194991,677.315494 Z" id="Fill-236" fill="#C7C6C1"></path>
            <path d="M97.9808697,327.106747 C62.1498238,354.814819 12.1878785,370.59271 5.15929204,375.55603 L5.15929204,375.6471 C11.8192464,373.119905 16.7589173,380.701489 18.2580214,383.092079 C22.1655223,389.444217 26.1713251,395.978495 27.4738254,403.218567 C28.1127878,406.7703 28.0882123,410.435871 27.3755235,413.964836 C26.7611366,416.947381 25.2620324,420.225904 22.1900978,421 C74.8061946,419.133063 133.344981,388.442446 146.836918,369.044519 C160.353431,349.669359 130.346773,302.085242 97.9808697,327.106747" id="Fill-237" fill="#B6B6B2"></path>
            <path d="M9.36629752,376.323611 C13.6412975,377.588611 16.7412975,382.280611 17.8662975,384.074611 L19.1412975,386.190611 C23.3162975,385.040611 29.9662975,382.234611 27.3662975,376.254611 C24.3912975,369.469611 12.6912975,374.483611 9.36629752,376.323611" id="Fill-238" fill="#C7C6C1"></path>
            <path d="M22.288459,388.098826 L20.438459,388.995826 C23.363459,393.917826 25.913459,399.023826 26.913459,404.520826 C32.038459,403.646826 41.413459,401.139826 38.238459,393.089826 C34.163459,382.785826 23.638459,387.431826 22.288459,388.098826" id="Fill-239" fill="#C7C6C1"></path>
            <path d="M26.4304401,406.057531 C26.7054401,408.909531 26.6804401,411.761531 26.1304401,414.521531 L24.3804401,418.983531 C30.2304401,419.420531 38.0554401,417.097531 38.8804401,411.692531 C39.7304401,406.195531 30.9804401,405.689531 26.4304401,406.057531" id="Fill-240" fill="#C7C6C1"></path>
            <path d="M17.3525595,383.038355 C15.8080651,380.577457 10.5518022,372.533963 3.50193285,375.746803 C-3.52302526,378.959643 2.3809289,401.495097 4.47346961,406.758687 C6.54109913,412.045062 10.1283118,417.012432 15.3596636,419.815123 L21.2885289,421 C24.4522512,420.248059 25.9718343,416.944074 26.5946143,413.936309 C27.3170391,410.404463 27.3419503,406.735901 26.6942591,403.181269 C25.3739656,395.935289 21.3134401,389.395678 17.3525595,383.038355" id="Fill-241" fill="#ABACA8"></path>
            <path d="M154.583261,129.508628 C158.30694,118.519527 163.781489,108.924055 170.193123,100.402362 C137.099229,67.2065964 100.232335,50.7343688 65.0669902,57.4968922 C1.59181656,69.69685 -20.2323982,197.52225 48.3967426,244.768529 C109.085322,286.53168 107.211152,313.513235 139.417281,309.629353 C173.078358,305.5627 182.424547,271.750083 187.159292,248.081251 C153.054333,219.774608 139.072039,175.018583 154.583261,129.508628" id="Fill-242" fill="#BEBEB9"></path>
            <path d="M155.6286,129.177798 L156.810639,126.476986 C144.34998,114.163113 130.904289,102.192564 117.286218,93.6781392 C76.8752677,68.4552999 7.8245034,84.7975025 9.17892281,176.419123 C13.5623166,203.312804 26.3923623,228.627196 49.589873,244.648963 C110.193985,286.488664 108.322424,313.519674 140.483729,309.628674 C174.097956,305.554567 183.431137,271.679973 188.159292,247.967758 C154.1018,219.60923 140.138967,174.77117 155.6286,129.177798" id="Fill-243" fill="#EB94A1"></path>
            <path d="M148.068467,170.081572 C108.158829,149.66824 79.1291716,142.31944 48.159292,164.728743 C82.2237035,154.27258 115.600441,166.633987 141.633805,179.834609 C118.154658,180.174831 100.569857,183.577053 91.8265766,193.94249 C108.993861,189.474238 124.417401,192.626964 142.22324,191.94652 C133.848356,204.852282 130.901183,223.383052 137.286725,233 C139.570784,221.681941 146.521201,211.86086 154.159292,202.606816 C150.426206,192.309424 148.363185,181.37695 148.068467,170.081572" id="Fill-244" fill="#E46B8C"></path>
            <path d="M155.968932,129.790518 L157.159292,127.054024 C144.610916,114.577466 131.070574,102.448768 117.356637,93.8218545 C84.6961415,73.2981491 33.4114751,79.9306685 15.159292,131.390671 C25.6493374,115.922523 51.2420723,93.7059013 83.3073884,98.8774113 C115.347905,104.025731 143.519753,127.355502 153.513815,138 C154.232991,135.263506 155.026564,132.527012 155.968932,129.790518" id="Fill-245" fill="#E46B8C"></path>
            <path d="M449.240857,181.140331 C449.240857,163.517281 460.329795,123.344061 460.1573,86.1958634 C459.935522,44.4184645 446.727365,6.10150845 411.045629,0.784801622 C353.851354,-7.74026277 330.022459,55.7393834 317.159292,67.7019737 C317.159292,67.7019737 364.792439,215.148921 367.946625,224.888578 C380.760509,236.530332 401.755563,258.73675 422.011356,253.099207 C440.566844,247.920002 449.240857,231.786546 449.240857,181.140331" id="Fill-246" fill="#BEBEB9"></path>
            <path d="M457.658044,81.358039 C451.664955,57.5420029 438.514831,24.1492689 409.614274,23.0293209 C361.867681,21.1779784 333.511951,107.59682 331.159292,112.419453 L367.761711,224.917082 C380.614658,236.482259 401.739058,258.744082 422.145278,253.09863 C440.793195,247.933156 449.510415,231.842475 449.510415,181.330536 C449.510415,165.354136 458.623873,130.795742 460.159292,96.7858935 C459.267758,90.9118808 458.20287,84.8093072 457.658044,81.358039" id="Fill-247" fill="#EB94A1"></path>
            <path d="M409.467974,23.0293412 C361.810417,21.1767176 333.507564,107.655357 331.159292,112.481327 L339.118697,137 C349.401655,112.641431 361.76098,89.0376336 376.246109,66.5774316 C378.446069,63.169519 380.695466,59.7844784 383.290924,56.6281567 C388.877339,49.7894598 396.243496,43.9799981 404.993898,41.1667549 C413.7443,38.3535116 423.977821,38.8338215 431.714758,43.568304 C441.874123,49.7894598 446.15045,61.7514615 454.159292,70.0539598 C447.089758,48.188427 433.939437,23.9899608 409.467974,23.0293412" id="Fill-248" fill="#E46B8C"></path>
            <path d="M381.011481,173.627738 C400.647069,145.183798 411.849741,144.088044 420.282658,138.312509 C407.348888,136.143829 379.799713,150.525597 373.913982,158.515468 C390.285216,103.385359 414.001248,105.394241 436.159292,98.2718413 C413.877598,92.6561035 387.020861,95.4639724 367.731492,129.774761 C360.708183,142.193303 354.575153,155.205378 349.159292,166.824934 L357.023419,191 C364.442407,189.60748 393.277541,174.632179 426.811367,177.02914 C415.089366,171.116636 398.396643,168.925128 381.011481,173.627738" id="Fill-249" fill="#E46B8C"></path>
            <path d="M544.522696,138.359265 C537.380581,139.664703 531.548265,145.57353 530.782156,152.283941 C526.1855,149.53565 521.366426,146.695748 515.929521,146.14609 C510.492617,145.619334 501.02746,148.276016 502.831524,153.062623 C508.317855,167.628568 517.338174,223.235663 466.379551,234.572365 C416.162324,245.771652 394.414706,205.532086 385.814511,196.348212 C402.125225,105.059134 330.580504,45.7647482 257.701271,53.7118908 C219.420521,57.8801327 172.860848,81.9734869 156.475994,130.183098 C125.609205,220.830908 211.215737,308.455598 340.19394,269.750494 C370.171054,283.10261 403.039613,292.423898 436.254157,290.820728 C469.468701,289.217558 499.025691,282.232317 525.073406,249.52765 C556.039048,210.66223 557.324135,156.062842 544.522696,138.359265" id="Fill-250" fill="#C7C6C1"></path>
            <path d="M340.752779,141.546708 C336.652779,140.902708 329.377779,142.581708 327.277779,143.478708 L324.202779,147.618708 L327.402779,150.608708 C330.077779,151.666708 333.127779,151.781708 336.027779,151.390708 C338.927779,150.999708 345.727779,150.401708 346.877779,147.319708 C348.027779,144.237708 344.852779,142.190708 340.752779,141.546708" id="Fill-251" fill="#A3A3A0"></path>
            <path d="M266.718425,164.639745 L266.159292,165.329745 L266.767046,167.238745 C268.347205,168.710745 270.87546,168.664745 273.087683,168.388745 C277.171787,167.859745 281.231581,166.824745 284.805172,164.846745 C288.354453,162.868745 293.192172,158.061745 290.250644,155.301745 C287.333427,152.541745 274.23026,156.796745 266.718425,164.639745" id="Fill-252" fill="#A3A3A0"></path>
            <path d="M260.159292,199.772985 C265.251172,207.381514 274.235403,218.379296 285.373891,215.54339 C296.243097,212.776652 298.568715,199.519367 299.15624,190.642751 C299.278641,188.452416 295.680052,188.452416 295.533171,190.642751 C295.068047,197.7671 293.452355,209.986858 284.419163,212.269417 C275.14117,214.598088 267.356469,204.176709 263.268277,198.06683 L260.159292,199.772985" id="Fill-253" fill="#17111C"></path>
            <path d="M329.159292,182.996775 C334.428941,189.791076 344.33098,201.73189 355.164398,198.436316 C365.139966,195.366465 365.532126,182.409892 365.017416,174.599832 C364.870356,172.478024 361.242877,172.455451 361.389937,174.599832 C361.806607,180.649243 362.223277,192.612629 354.208508,195.208458 C345.409419,198.075157 336.340721,186.540646 332.296572,181.326415 L329.159292,182.996775" id="Fill-254" fill="#17111C"></path>
            <path d="M313.050231,240.344744 C309.990915,227.01737 293.649691,227.814734 288.476214,228.13368 C283.526589,228.429844 263.92707,233.35072 265.220439,245.652912 C266.140721,254.378356 273.279125,261.486289 290.341651,259.732088 C307.379304,257.977886 314.119748,244.969457 313.050231,240.344744" id="Fill-255" fill="#E4A7A4"></path>
            <path d="M369.271355,261.265819 C372.028779,263.334505 393.817353,232.327204 404.133074,217.846403 C399.996938,214.030827 396.525538,210.100324 393.595775,206.537588 C383.083095,222.374527 367.695684,260.070579 369.271355,261.265819 Z M417.304698,271.563277 L420.33294,272 L422.327149,269.425635 C423.459662,267.150081 431.214918,245.107085 436.483567,234.602758 C432.076613,233.775284 428.014336,232.557058 424.247498,230.971065 C415.852126,248.57788 416.96002,271.011628 417.304698,271.563277 Z M499.239585,208.882098 C497.934732,211.433478 496.383681,213.892915 494.561812,216.237426 C500.1259,218.122228 512.558928,222.167658 518.147636,222.167658 C515.488691,218.237155 503.646539,211.433478 499.239585,208.882098 Z M525.065816,193.504867 C524.499559,193.04516 510.343141,188.402109 505.29607,187 C505.049871,189.712277 504.631334,192.447539 504.040457,195.182802 C508.989049,194.998918 526.592247,194.746079 525.065816,193.504867 Z M465.879677,233.591401 L465.042602,233.798269 C461.472723,234.602758 458.075183,235.085452 454.800741,235.384262 C454.456063,248.761763 460.660268,269.747431 467.20915,271.908058 C467.406109,270.276095 465.584239,245.658734 465.879677,233.591401 Z M478.017267,229.385073 C485.403225,238.510276 496.777599,244.716333 502.366307,246.486209 C499.141105,240.280151 490.130237,228.787453 486.560358,224.144402 C484.024513,226.098161 481.193229,227.868037 478.017267,229.385073 L478.017267,229.385073 Z" id="Fill-256" fill="#B6B6B2"></path>
            <path d="M468.491871,405.686781 C467.949017,401.885144 468.886673,397.968999 469.849005,394.190263 C471.798343,386.28927 477.621683,370.372776 477.621683,370.372776 C479.052843,367.441393 483.099571,366.090209 486.159292,366.845956 C463.902289,359.5404 420.350615,328.371554 398.118288,314.607795 C367.545753,295.691214 328.509635,356.219693 370.556124,378.983714 C392.911827,391.075669 438.931018,413.381661 475.129491,414 C471.403541,413.19845 469.010049,409.488418 468.491871,405.686781" id="Fill-266" fill="#B6B6B2"></path>
            <path d="M479.140485,370.87533 L483.815485,367.42533 C479.265485,365.93033 469.590485,363.00933 467.815485,367.63233 C465.990485,372.43933 472.615485,378.14333 475.940485,379.86833 C477.665485,374.87733 479.140485,370.87533 479.140485,370.87533" id="Fill-267" fill="#C7C6C1"></path>
            <path d="M469.949125,393.196622 C470.824125,389.608622 472.524125,384.410622 474.099125,379.787622 C471.749125,378.867622 459.224125,373.531622 455.749125,382.064622 C452.524125,389.976622 464.899125,394.139622 469.324125,395.703622 L469.949125,393.196622" id="Fill-268" fill="#C7C6C1"></path>
            <path d="M469.347041,405.449189 C468.997041,403.034189 469.272041,400.550189 469.772041,398.112189 C465.372041,397.238189 458.422041,397.560189 457.372041,402.436189 C456.372041,407.036189 465.522041,410.141189 472.022041,411.268189 C470.597041,409.658189 469.647041,407.611189 469.347041,405.449189" id="Fill-269" fill="#C7C6C1"></path>
            <path d="M487.623197,366.317473 C484.477107,365.323905 480.057599,366.710279 478.559461,369.806514 C478.559461,369.806514 472.666784,385.865346 470.694235,393.836996 C469.720445,397.649524 468.771624,401.60069 469.320942,405.436325 C469.84529,409.271959 472.26728,413.015169 476.037595,413.823887 C479.008902,414.493968 482.254869,413.176913 484.701828,411.143564 C487.123818,409.08711 488.896615,406.360574 490.619474,403.703357 C493.640719,399.035898 502.879239,371.678119 487.623197,366.317473" id="Fill-270" fill="#ABACA8"></path>
            <path d="M256.282182,306.081026 C169.002147,303.424077 140.584817,366.824381 131.112373,391.217923 C120.97216,417.28351 115.481605,454.480798 119.463494,481.966479 C123.42065,509.429255 141.549374,532.72337 163.363199,551.711394 C198.507696,582.357929 270.973125,580.388121 299.959297,574.432891 C328.945469,568.454755 390.157734,541.404264 385.953256,435.103393 C383.554229,374.497467 343.537484,308.737976 256.282182,306.081026" id="Fill-271" fill="#BEBEB9"></path>
        </g>
    </g>
</svg>