<?xml version="1.0" encoding="UTF-8"?>
<svg width="720px" height="720px" viewBox="0 0 720 720" version="1.1" xmlns="http://www.w3.org/2000/svg" xmlns:xlink="http://www.w3.org/1999/xlink">
    <!-- Generator: Sketch 64 (93537) - https://sketch.com -->
    <title>img_p</title>
    <desc>Created with Sketch.</desc>
    <g id="img_p" stroke="none" stroke-width="1" fill="none" fill-rule="evenodd">
        <g id="panda" transform="translate(85.000000, 10.000000)">
            <path d="M329.4954,506.963669 C324.585987,576.570812 328.071064,647.363404 389.408422,668.944658 C420.440761,679.887266 466.62561,668.30634 471.322888,647.728158 C476.020166,627.149976 443.13922,617.635987 438.532858,610.553688 C432.077889,600.614153 432.683989,554.381635 433.987105,538.879608 C437.260047,500.398104 331.980412,471.643363 329.4954,506.963669" id="Fill-1537" fill="#434544"></path>
            <path d="M509.340123,195.616438 C486.532522,195.769758 477.107394,228.76175 465.597863,262.028166 C458.680061,282.030704 445.539257,295.142124 429.589041,303.252909 L429.589041,303.374876 C447.17053,327.829198 459.737367,353.716629 467.289552,379.726027 C504.325471,357.954972 537.343628,322.523647 549.004202,267.059292 C555.80117,234.890576 537.222793,195.403858 509.340123,195.616438" id="Fill-1538" fill="#434544"></path>
            <path d="M468.795597,418.409841 C465.700622,389.501139 450.741575,354.252544 433.051668,324.251803 C301.333166,290.641266 230.057709,325.920196 199.1383,360.258759 C140.394458,425.47776 92.0278855,401.604572 68.8459147,385.557664 C68.6335145,386.680038 69.1190008,384.010609 68.0569995,389.561808 C65.8116254,401.088887 64.2641378,411.432924 63.7179657,419.380542 C54.3420115,558.190845 199.987901,634.603247 324.879252,605.72488 C431.50418,581.062997 477.655722,502.254176 468.795597,418.409841" id="Fill-1539" fill="#FFFFFE"></path>
            <path d="M402.102303,268.675285 L401.646106,268.493151 L396.171749,272.19654 C425.216254,301.186183 464.449147,368.363231 469.649786,417.266179 C478.530409,501.169188 432.272092,580.03316 325.400478,604.712301 C200.220181,633.610878 54.2373264,557.145002 63.6349727,418.237559 C65.8551286,385.544527 85.0153782,312.114216 99.4007719,283.458485 C96.3290494,281.546079 93.3485661,279.512251 90.4593221,277.357 L90.4593221,277.387355 C64.9427357,360.227917 28.9944579,454.84647 86.1406627,532.769417 C135.105745,599.49113 223.577437,625.657698 302.955614,615.367134 C495.288024,590.414792 529.259451,396.836828 402.102303,268.675285" id="Fill-1540" fill="#434544"></path>
            <path d="M99.6113072,283.204742 C89.1378982,304.22348 76.1751571,349.193802 69.0410959,384.785124 C92.2343843,400.946334 140.62457,424.98957 199.397091,359.306015 C230.331595,324.722859 301.64185,289.162088 433.424658,323.042582 C421.372648,302.421001 408.045614,284.274009 396.297181,272.328767 L390.62029,275.108862 C369.885976,287.45126 344.871225,296.1887 316.395696,300.893476 C254.678476,311.06679 158.839194,320.384689 99.1862993,282.899237 L99.6113072,283.204742" id="Fill-1541" fill="#434544"></path>
            <path d="M193.463125,626.869196 C186.908649,615.174629 189.487956,595.561865 190.125197,565.685899 C191.763816,486.108022 90.381847,468.078897 83.8577155,506.634424 C67.1984215,604.820064 92.1418453,664.267448 133.380425,689.179314 C171.099009,711.989811 232.698948,695.635689 233.943085,668.866094 C235.156877,642.126952 198.561051,635.944668 193.463125,626.869196" id="Fill-1542" fill="#434544"></path>
            <path d="M103.561644,46.5956049 C77.403295,26.2835594 43.9955193,11.1412966 10.2856841,44.5460461 C-10.163741,64.8275011 -0.497838461,112.854476 42.6664577,136.164384 C50.6408273,100.740666 72.5703437,69.8137412 103.561644,46.5956049" id="Fill-1543" fill="#434544"></path>
            <path d="M470.935982,54.6723719 C467.31603,41.1673923 460.076127,27.8739 448.00962,20.8041791 C433.288483,12.1634091 414.132904,14.5501952 399.019605,22.5565031 C393.438846,25.5173264 387.496091,29.5355865 381.643836,33.825759 C409.125304,52.9200479 431.750003,80.2623445 446.652138,117.000723 L447.074466,118.90411 C460.076127,107.725491 471.810804,93.314137 473.288951,81.2593565 C474.34477,72.3768866 473.288951,63.3131419 470.935982,54.6723719" id="Fill-1544" fill="#434544"></path>
            <path d="M440.442027,119.679831 C392.069152,0.0400503023 243.402174,-19.646353 135.435131,33.996814 C28.5598891,87.1227186 11.0000807,258.914733 144.988394,295.549091 C161.850663,300.174027 180.502273,303.368883 199.942406,305.133661 C210.708782,305.620497 221.080897,306.989721 230.664489,306.837585 C243.553813,306.624595 260.901326,306.502886 284.102109,303.216747 C383.183101,289.615786 471.770666,234.329549 440.442027,119.679831" id="Fill-1545" fill="#FFFFFE"></path>
            <path d="M143.733729,294.84456 C9.56383767,258.347236 27.1474427,87.1978284 134.167519,34.270647 C242.280877,-19.1718621 391.149326,0.440902156 439.587754,119.633157 C486.204048,289.236582 267.972984,328.643991 143.733729,294.84456 Z M445.418587,118.026547 C398.741556,3.22973417 277.387349,-20.9603522 164.050537,16.0522987 C63.0131381,49.0332686 4.34038332,142.883528 59.6421879,243.978689 C104.58819,326.12798 237.452218,314.396697 315.439607,301.634759 C414.897822,285.356468 473.935004,221.880226 445.418587,118.026547 L445.418587,118.026547 Z" id="Fill-1546" fill="#434544"></path>
            <path d="M323.360368,186.987309 C318.239013,181.419284 309.652309,180.335776 301.985609,180.275581 C289.565556,180.185289 263.682778,183.887273 261.014767,193.699037 C258.316088,203.510801 284.689535,216.061432 293.306905,216.693478 C301.924276,217.355622 335.657754,200.440863 323.360368,186.987309" id="Fill-1547" fill="#434544"></path>
            <path d="M314.13536,244.906938 C309.214707,248.633636 303.018328,250.619172 296.7612,250.955186 C299.829015,240.569306 299.464523,227.525863 297.550935,216.712329 L292.994774,217.35381 L291.688675,217.170529 C293.632637,227.556409 293.99713,240.752586 290.777443,250.558079 L290.747068,250.771906 C285.188552,250.069332 279.873031,248.053249 275.559865,244.479284 C272.674297,242.066095 268.482629,246.220447 271.398572,248.664183 C283.973576,259.111157 303.959935,259.905371 317.112052,250.008238 C320.088744,247.747782 317.172801,242.615935 314.13536,244.906938" id="Fill-1548" fill="#434544"></path>
            <path d="M221.91468,125.244521 C214.05977,114.663367 196.919018,116.279509 184.04062,119.054393 C171.162222,121.859772 134.597315,130.03196 105.339299,157.140452 C80.587201,180.071369 87.1329588,213.430975 97.3017175,226.024684 C109.723435,241.393277 135.328004,250.937662 152.164302,236.270413 C167.782784,222.639934 178.834459,208.521563 192.382656,193.762834 C209.218954,175.46689 241.978188,152.261533 221.91468,125.244521" id="Fill-1549" fill="#434544"></path>
            <path d="M431.194183,161.336312 C417.169578,136.461156 388.570384,120.336669 361.651698,110.882274 C350.927001,107.118874 324.374971,102.774136 315.269672,119.235186 C305.644943,136.675333 324.588854,149.219999 332.258082,154.666221 C354.532454,170.515336 359.207323,194.962138 379.49564,211.056027 C396.300722,224.396209 417.872336,223.814871 428.535925,208.424707 C436.205153,197.318087 442.285537,181.010021 431.194183,161.336312" id="Fill-1550" fill="#434544"></path>
            <path d="M181.72159,148.723526 C179.450905,145.808457 175.1857,142.801334 171.165974,143.691197 C167.146248,144.550375 163.955015,149.06106 164.445974,154.246813 C164.967618,159.432567 169.110083,168.944896 178.683782,166.85832 C188.257481,164.80243 183.96159,151.607909 181.72159,148.723526" id="Fill-1551" fill="#FFFFFE"></path>
            <path d="M365.371663,129.5186 C361.106458,128.444627 357.393581,130.193668 354.570567,134.029284 C351.747554,137.834216 351.931663,146.241887 355.859334,148.665997 C359.787006,151.059421 366.322896,152.839148 370.680156,145.904353 C375.006732,139.000243 369.636869,130.592572 365.371663,129.5186" id="Fill-1552" fill="#FFFFFE"></path>
            <path d="M211.957466,420.29469 C194.059685,410.48456 183.522595,396.056122 178.055525,379.726027 C144.703345,406.168102 115.627086,405.685142 93.9726027,398.259628 C108.693986,439.824396 138.258922,480.151579 192.776909,501.582941 C223.410825,513.626763 265.559184,501.914976 270.109985,474.416426 C273.805602,451.958773 242.835721,437.168115 211.957466,420.29469" id="Fill-1553" fill="#434544"></path>
        </g>
    </g>
</svg>