<?xml version="1.0" encoding="UTF-8"?>
<svg width="720px" height="720px" viewBox="0 0 720 720" version="1.1" xmlns="http://www.w3.org/2000/svg" xmlns:xlink="http://www.w3.org/1999/xlink">
    <title>img_d</title>
    <g id="img_d" stroke="none" stroke-width="1" fill="none" fill-rule="evenodd">
        <g id="deer" transform="translate(192.000000, 22.000000)">
            <path d="M39.2865731,363.062124 C29.4835025,369.94178 16.778207,374.528216 0.762225392,373.728746 C-0.119191046,373.686668 -2.16149743,383.553819 8.39400187,390.601784 C12.0056595,393.000196 16.4557376,394.220441 20.8413218,394.220441 C22.8621302,394.199402 24.7539509,393.820706 26.6027756,393.273699 C27.8066615,385.426264 31.5043109,374.002249 39.2865731,363.062124" id="Fill-142" fill="#C79563"></path>
            <path d="M284.488978,429.442886 C274.296807,447.146515 260.516142,460.119187 243.847695,468.039795 C245.949831,490.731267 248.434172,515.970178 249.835596,540.010294 C252.765845,589.952939 253.763829,657.984541 253.678894,657.984541 C253.678894,657.984541 253.763829,669.844046 254.783046,673.290581 C255.504991,672.905254 258.60511,671.214097 260.919582,669.287463 L264.975217,673.290581 C266.716379,669.373091 267.268455,664.171178 267.905466,658.947858 C267.862999,658.947858 272.428242,605.879784 275.252323,564.435737 C275.8681,555.466183 277.842833,545.747383 278.394909,536.41391 C278.819583,529.028478 276.632513,521.578825 276.993485,514.107765 C278.416143,485.208248 282.110805,455.216973 284.488978,429.442886" id="Fill-143" fill="#CC9464"></path>
            <path d="M252.842966,657.413387 C252.842966,657.413387 252.929667,669.421531 253.970084,672.911263 C254.707046,672.521106 257.871647,670.808754 260.234261,668.857972 L264.374253,672.911263 C266.151631,668.944673 266.71519,663.677563 267.365451,658.388778 C263.290485,658.172024 256.917932,657.651816 252.842966,657.413387" id="Fill-144" fill="#918567"></path>
            <path d="M142.907104,572.131876 C146.893224,548.871817 156.656021,513.820648 157.146293,474.022966 C135.744877,471.295332 113.490816,466.291091 93.4749499,459.246493 C105.411994,486.844993 124.04231,529.563606 120.61041,555.87346 C117.498252,579.520113 135.638296,659.351728 135.61698,659.351728 C136.917265,666.074164 138.878351,672.431484 139.134145,673.290581 L144.569764,669.725327 L150.218544,671.056928 C150.048014,669.510553 149.088788,662.831072 148.321406,657.762398 C148.30009,657.783875 139.730997,590.623945 142.907104,572.131876" id="Fill-145" fill="#CC9464"></path>
            <path d="M151.023006,670.743727 C150.849603,669.183102 149.874212,662.442068 149.0939,657.326685 C147.706677,658.280401 139.946902,658.800609 136.175391,658.930661 C137.497587,665.715046 139.491719,672.13095 139.751824,672.997964 L145.279038,669.399856 L151.023006,670.743727" id="Fill-146" fill="#918567"></path>
            <path d="M230.849899,208.927087 C222.74469,205.172853 217.491314,198.62976 214.146308,191.014028 C228.040951,241.320763 217.72718,310.934986 195.169828,328.590612 C169.353238,348.820569 141.714048,332.216129 91.8391415,334.790461 C41.3424064,337.429151 26.7401658,382.158166 25.7967024,398.183382 C22.2801569,458.251125 181.811244,491.052403 236.210486,470.929709 C276.822298,455.912773 302.66033,413.908259 304.633026,348.434419 C306.455626,287.744547 293.697428,239.111128 288.122417,216.049405 C269.72488,213.432168 255.723025,220.51158 230.849899,208.927087" id="Fill-147" fill="#D59F69"></path>
            <path d="M263.538635,215.81903 C276.499955,295.994043 269.482817,358.426285 259.67599,391.315847 C248.281186,429.526096 217.852126,438.622752 201.02816,443.213989 C162.702136,453.683726 126.629321,443.685986 94.9127123,433.108977 C94.8054166,442.741993 94.2903972,451.538288 93.4749499,459.626589 C142.745135,476.875909 205.792089,482.175141 236.156772,470.933047 C276.800383,455.914981 302.658647,413.907308 304.632888,348.428544 C306.456915,287.734107 293.688727,239.097031 288.10935,216.033573 C279.482776,214.810674 271.821863,215.711758 263.538635,215.81903" id="Fill-148" fill="#E5BD7D"></path>
            <path d="M250.363647,130.132575 C285.048964,137.430279 292.120097,111.560448 315.647295,98.7630255 C305.440643,96.6477491 292.530958,91.6133912 278.561685,97.8323039 C261.586639,105.383841 244.762963,125.034759 250.363647,130.132575" id="Fill-149" fill="#D59F69"></path>
            <path d="M330.352205,195.376892 C326.925261,191.089162 315.717645,181.248821 308.60512,174.302699 C296.729358,162.68295 302.721122,146.882664 288.948686,134.08379 C280.542974,126.30156 265.175609,117.425958 246.445958,117.87617 C231.68208,118.240627 216.745776,126.751771 212.456708,137.278149 C207.844343,148.576318 202.046557,195.141067 230.582871,208.347276 C257.07164,220.631623 271.318244,211.927531 291.556612,216.043752 C310.738877,219.945586 320.502435,220.953203 327.119239,216.70835 C333.692937,212.463497 335.330973,201.61554 330.352205,195.376892" id="Fill-150" fill="#D59F69"></path>
            <path d="M303.426911,193.723447 C307.971326,188.823195 314.367966,185.563462 321.066132,185.307797 C316.974005,181.494122 312.472666,177.382172 308.940514,173.951995 C297.073345,162.404445 303.060773,146.702333 289.298304,133.982983 C280.898675,126.249107 265.54243,117.428653 246.826333,117.876068 C232.073138,118.23826 217.147643,126.696521 212.861679,137.157494 L212.689379,137.647519 C223.005846,137.029661 254.9029,134.941728 273.942059,153.30702 C279.240287,158.420327 286.283053,175.741652 290.80593,181.536733 C295.781095,187.907061 299.291709,191.188099 303.426911,193.723447" id="Fill-151" fill="#C08759"></path>
            <path d="M255.427901,153.531904 C241.429584,150.581027 228.75309,162.897728 228.948113,168.735331 C229.208144,175.449644 233.19528,187.702195 255.557917,185.392814 C263.987244,184.537487 271.61481,191.016585 276.360369,186.953785 C278.808991,184.858235 277.335484,180.153939 276.598731,177.11753 C272.524917,160.631113 261.495283,154.814893 255.427901,153.531904" id="Fill-152" fill="#EFC68D"></path>
            <path d="M244.70922,166.702882 C244.860947,166.269375 250.019681,162.606241 256.067104,164.470321 C258.754847,165.293984 260.987408,167.266441 262.61306,169.607379 C264.021958,171.644862 265.994414,178.776052 264.693893,179.773119 C263.393372,180.79186 261.507617,179.426313 258.169613,179.447988 C246.226495,179.556365 242.910166,172.360149 244.70922,166.702882" id="Fill-153" fill="#17111C"></path>
            <path d="M273.564601,147.69584 L277.661242,151.857507 L279.156842,150.968818 C277.877996,148.996361 276.382397,147.479086 274.40994,146.178565 L273.564601,147.69584" id="Fill-154" fill="#D5A971"></path>
            <path d="M286.840754,164.10408 C285.605259,161.91487 284.608192,159.703984 283.784529,157.363046 L282.137202,157.926605 C283.025892,160.419271 284.087984,162.760208 285.388505,165.057796 L286.840754,164.10408" id="Fill-155" fill="#D5A971"></path>
            <path d="M279.568673,132.230477 C282.863327,134.463038 285.681122,137.107431 288.152112,140.228681 L289.409283,139.014862 C286.829916,135.763559 283.882068,133.05414 280.457363,130.713202 L279.568673,132.230477" id="Fill-156" fill="#D5A971"></path>
            <path d="M304.647054,172.77422 L301.135647,167.485435 L299.553347,168.244072 C300.723816,170.194854 301.980986,172.058934 303.324858,173.901339 L304.647054,172.77422" id="Fill-157" fill="#D5A971"></path>
            <path d="M263.431375,126.464834 C266.53095,127.18012 269.32707,128.285563 272.07984,129.889539 L273.033555,128.437291 C270.172409,126.746613 267.202886,125.554469 263.973259,124.795832 L263.431375,126.464834" id="Fill-158" fill="#D5A971"></path>
            <path d="M280.392337,143.21988 C282.993379,146.276104 285.182589,149.527407 286.959968,153.125515 L288.585619,152.49693 C286.743214,148.747094 284.488978,145.365739 281.801234,142.201138 L280.392337,143.21988" id="Fill-159" fill="#D5A971"></path>
            <path d="M258.890389,121.72877 C255.227255,121.12186 251.585796,120.688353 247.879311,120.384898 L247.770934,122.118926 C251.455743,122.422381 255.118878,122.855888 258.760337,123.462798 L258.890389,121.72877" id="Fill-160" fill="#D5A971"></path>
            <path d="M239.458437,126.779126 C236.077082,126.584048 232.695727,126.367295 229.292697,126.172216 L229.271022,127.906244 C232.652377,128.122998 236.033731,128.318076 239.415086,128.513154 L239.458437,126.779126" id="Fill-161" fill="#D5A971"></path>
            <path d="M237.323415,132.361454 C232.641539,131.516115 228.024689,131.277686 223.277788,131.624492 L223.364489,133.35852 C227.937988,133.033389 232.424786,133.250143 236.954934,134.052131 L237.323415,132.361454" id="Fill-162" fill="#D5A971"></path>
            <path d="M268.167439,142.9381 C264.092473,140.532136 259.822429,138.689731 255.270605,137.367535 L254.750397,139.036537 C259.150493,140.315383 263.290485,142.092762 267.235399,144.412024 L268.167439,142.9381" id="Fill-163" fill="#D5A971"></path>
            <path d="M260.971222,129.206766 C256.83123,127.971271 252.734589,126.779126 248.399519,126.497347 L248.421194,128.231375 C252.604537,128.513154 256.549451,129.705299 260.537715,130.897443 L260.971222,129.206766" id="Fill-164" fill="#D5A971"></path>
            <path d="M237.81111,124.031776 C240.043671,123.966749 242.232882,124.053451 244.443768,124.29188 L244.465443,122.536176 C242.254557,122.319423 240.065347,122.232721 237.832786,122.276072 L237.81111,124.031776" id="Fill-165" fill="#D5A971"></path>
            <polyline id="Fill-166" fill="#D5A971" points="269.056128 135.752721 274.605018 139.39418 275.537058 137.898581 269.966493 134.257122 269.056128 135.752721"></polyline>
            <path d="M243.164922,134.484713 C245.397483,134.679792 247.565018,135.004922 249.732553,135.48178 L249.949307,133.769427 C247.781772,133.292569 245.614236,132.945764 243.381675,132.750685 L243.164922,134.484713" id="Fill-167" fill="#D5A971"></path>
            <path d="M302.078525,188.434661 L298.263663,184.01289 L296.703038,184.793202 C297.851832,186.852361 299.239054,188.456337 301.103134,189.88691 L302.078525,188.434661" id="Fill-168" fill="#D5A971"></path>
            <path d="M303.888417,181.715303 C302.219415,179.504417 300.615439,177.271856 299.076489,174.974269 L297.602565,175.927984 C299.141515,178.203896 300.745491,180.458132 302.414493,182.669018 L303.888417,181.715303" id="Fill-169" fill="#D5A971"></path>
            <polyline id="Fill-170" fill="#D5A971" points="312.634421 183.091687 309.123014 178.799968 307.822493 179.970437 311.3339 184.262156 312.634421 183.091687"></polyline>
            <path d="M292.454669,176.1339 C291.089122,174.031391 289.940329,171.885531 288.964938,169.609619 L287.360962,170.281555 C288.401379,172.709194 289.636874,174.985106 291.089122,177.195992 L292.454669,176.1339" id="Fill-171" fill="#D5A971"></path>
            <path d="M291.479279,146.514533 C293.169956,150.112641 294.232048,153.840802 294.773932,157.785715 L296.464609,157.373884 C295.90105,153.277242 294.752257,149.41903 293.018228,145.669194 L291.479279,146.514533" id="Fill-172" fill="#D5A971"></path>
            <path d="M294.719743,167.084441 C293.831054,164.830204 292.985715,162.554293 292.183727,160.256705 L290.514725,160.755238 C291.316713,163.052826 292.162052,165.328737 293.050741,167.582974 L294.719743,167.084441" id="Fill-173" fill="#D5A971"></path>
            <path d="M330.317615,195.284253 C328.572845,193.109597 324.799779,189.513878 320.590521,185.59519 C311.714002,185.918159 303.317295,191.451691 299.020799,199.159878 C296.03288,204.542691 294.942398,210.765223 295.44402,216.901629 C311.932098,220.066723 320.895856,220.626536 327.046171,216.707848 C333.698107,212.44466 335.355639,201.549847 330.317615,195.284253" id="Fill-174" fill="#E5BD7D"></path>
            <path d="M325.709378,192.711474 C317.971278,193.275033 314.850028,193.925294 314.676625,197.219947 C314.438196,202.226953 320.57232,206.453647 327.009899,205.521606 C333.469154,204.589566 336.178573,200.211146 335.484962,196.396284 C334.986428,193.66519 331.713451,192.277967 325.709378,192.711474" id="Fill-175" fill="#17111C"></path>
            <path d="M329.985539,214.573692 L327.384497,211.474117 L327.362822,211.409091 L327.5579,205.686798 L326.365756,205.946903 L325.607118,205.990253 L325.433715,210.216947 L324.263246,213.641652 L318.822733,213.966782 L317.262108,215.223953 C320.036553,217.998398 324.19822,217.369812 326.235703,214.183536 C327.016016,215.70081 328.294862,216.806253 330.288994,216.546149 L329.985539,214.573692" id="Fill-176" fill="#17111C"></path>
            <path d="M233.01002,120.569138 C237.281946,119.070195 241.811476,118.106589 246.362473,117.999521 L250.91347,118.149416 C250.183593,91.9607345 273.904592,77.4423979 288.652398,66.5643522 C304.301817,54.9796617 340.817127,47.0352622 331.865402,3.35177141 C330.770587,-2.00159756 327.786678,-0.095798204 327.743744,3.20187708 C327.657876,16.4782321 319.7795,33.7160802 311.536184,32.7953007 C297.711458,31.2749439 302.498591,-1.8731167 296.401973,0.203990458 C290.305354,2.25968414 298.82774,37.399198 281.031625,47.3992913 C269.890269,53.6734397 270.66308,28.127163 248.358901,24.7010068 C240.523458,23.5018522 243.442966,27.7631339 246.856214,29.2834907 C259.392922,34.8509944 266.477021,53.8875744 256.065542,70.8898743 C249.281981,81.9606413 233.031487,97.9350943 233.01002,120.569138" id="Fill-177" fill="#A99C8C"></path>
            <path d="M246.771153,117.57794 L252.081613,117.773018 C252.341718,114.82517 252.666848,111.985699 252.18999,110.641828 L233.267409,109.861515 C232.898928,111.140361 232.682175,116.32077 232.552122,120.439086 C237.060595,118.770084 241.915874,117.686317 246.771153,117.57794" id="Fill-178" fill="#C08759"></path>
            <path d="M224.881764,123.955783 C210.458757,107.766731 188.706378,105.646736 176.790789,101.492402 C157.953014,94.9611047 151.30943,75.7740798 157.417241,63.5252201 C159.088852,60.1846221 158.638803,55.0452404 153.366798,60.9555293 C138.343726,77.722762 154.845531,95.5392852 142.587047,99.2010946 C124.86368,104.468961 105.747303,62.3260311 100.432436,66.2233955 C95.0961376,70.12076 121.156131,95.1752456 109.819177,107.231378 C104.139984,113.270152 86.9952514,104.833 78.4871779,94.6398934 C76.3655172,92.1130307 72.850847,92.5413125 75.401126,97.3594828 C96.2748379,136.782823 129.471326,119.780035 148.909167,118.794987 C167.789804,117.831353 196.550093,113.741262 212.366109,136.825651 C214.573493,131.836168 219.116847,127.317795 224.881764,123.955783" id="Fill-179" fill="#A99C8C"></path>
            <path d="M212.312475,137.524827 C214.414984,132.322742 219.09686,127.619191 225.057581,124.12946 C222.846695,120.661404 220.289004,117.388426 219.09686,117.084971 C217.406182,116.673139 205.094583,127.814269 205.766519,130.220233 C206.330078,132.257716 210.383369,134.750382 212.2908,137.611528 L212.312475,137.524827" id="Fill-180" fill="#C08759"></path>
            <path d="M129.800302,138.390011 C127.042267,139.279257 123.642828,141.686726 124.904255,144.332775 C141.623509,154.396433 159.304868,164.763736 178.739396,165.262581 C192.315772,165.609604 210.168172,158.343816 216.475308,152.097407 C222.761063,145.82931 221.798957,139.561212 216.304267,137.80441 C188.937713,128.998709 157.701359,129.367421 129.800302,138.390011" id="Fill-181" fill="#D59F69"></path>
            <path d="M136.825651,145.089371 C148.089857,150.724962 159.888418,155.623591 172.306831,157.444321 C184.746618,159.26505 201.974227,156.1438 208.813973,151.418573 C215.653718,146.715022 211.357503,146.043086 211.357503,146.043086 C190.410782,136.570958 153.454783,139.995663 136.825651,145.089371" id="Fill-182" fill="#997A5E"></path>
            <path d="M62.8260387,562.900997 C72.1720442,525.98334 98.3022753,498.72999 94.4438326,410.827737 C92.128767,377.883183 23.7271532,366.500776 25.7849893,404.621103 C28.3358486,446.80044 49.9645632,479.59466 38.625029,556.823221 C36.0098623,574.691454 44.0697203,658.599126 43.9839771,658.599126 C44.712794,664.161473 45.7631479,671.549299 45.848891,671.935872 C47.0492954,671.742586 49.1714389,671.03387 51.6579908,669.723819 L57.5742695,671.141251 C57.5957053,670.625821 57.6385769,663.495709 57.6171411,658.40584 C57.5528337,658.40584 57.31704,584.720858 62.8260387,562.900997" id="Fill-183" fill="#D59F69"></path>
            <path d="M43.2285332,658.529667 C43.9654952,664.143583 45.0275874,671.599904 45.1142888,671.99006 C46.3281084,671.794982 48.4739681,671.079695 50.9883088,669.757499 L56.9707056,671.188072 C56.9923809,670.667864 57.0357316,663.471647 57.0140563,658.334589 C52.5055833,658.941499 47.7370062,659.0282 43.2285332,658.529667" id="Fill-184" fill="#918567"></path>
            <path d="M157.864116,358.032304 C161.965802,355.778068 167.03259,356.731783 171.529091,357.988954 C175.01662,358.98602 178.61382,360.221515 180.982708,362.909258 L181.531062,363.862974 L181.092379,365.358573 C178.61382,369.411864 159.443375,371.601074 155.736504,366.39899 L154.464323,363.516168 C154.201113,361.240256 155.868109,359.137747 157.864116,358.032304" id="Fill-185" fill="#E5BD7D"></path>
            <path d="M105.495634,372.63915 L104.953751,368.910989 L107.489767,366.916857 C110.350913,365.572985 113.342111,364.575919 116.420011,363.925659 L120.039795,364.402516 C122.662512,366.526701 124.244813,371.858837 120.06147,373.939671 C115.878127,376.04218 112.171642,376.258933 108.746937,374.850035 L105.495634,372.63915" id="Fill-186" fill="#E5BD7D"></path>
            <path d="M148.787984,345.504542 C150.67374,343.792189 153.599912,344.182345 156.114253,344.680878 L158.08671,345.547892 C158.888698,346.458257 161.598117,350.749976 156.482734,353.567772 C151.367351,356.385568 147.465788,353.654473 146.642125,351.61699 L146.815527,349.146 L148.787984,345.504542" id="Fill-187" fill="#E5BD7D"></path>
            <path d="M187.601698,362.085848 L189.639181,359.549832 C192.3486,358.314337 195.383149,357.794129 198.352672,358.075908 L199.826596,358.942922 C199.913297,359.354754 199.869946,363.884902 195.643253,365.142073 C191.394884,366.399243 187.775101,362.931187 187.601698,362.085848" id="Fill-188" fill="#E5BD7D"></path>
            <path d="M126.042205,361.468091 L129.770366,358.34684 C134.127111,357.349774 138.743961,357.523177 143.014005,358.845373 L144.899761,360.557726 C144.899761,361.186311 143.469187,367.840644 136.879881,368.382528 C130.290574,368.924411 126.02053,362.746937 126.042205,361.468091" id="Fill-189" fill="#E5BD7D"></path>
            <path d="M98.4060922,355.432401 L97.3873507,358.531976 C95.8267255,359.875848 93.7242164,360.352705 91.7084088,360.764537 L88.99899,360.721186 L88.5438076,358.445275 C88.5438076,358.445275 92.2069419,355.042244 95.241491,354.522036 L98.4060922,355.432401" id="Fill-190" fill="#E5BD7D"></path>
            <path d="M66.1063187,367.002839 L64.6974209,365.312162 L65.7595131,363.253003 C68.230503,360.977092 72.0020141,360.24013 75.1449399,361.388923 L76.0553046,362.060859 C76.2503828,362.516042 76.7055652,365.398863 73.3892365,366.937813 C70.0295571,368.455088 68.4255812,368.173308 66.1063187,367.002839" id="Fill-191" fill="#E5BD7D"></path>
            <path d="M92.0879839,365.628795 C95.2092344,366.820939 100.432994,371.762919 94.7757274,373.7137 C89.1184608,375.664482 86.3656913,373.67035 82.7675831,371.047632 L81.5320881,369.313604 L82.702557,367.666278 C85.4119759,365.693821 88.9884087,364.458326 92.0879839,365.628795" id="Fill-192" fill="#E5BD7D"></path>
            <path d="M209.432737,330.051876 C208.630749,332.392814 201.152753,337.334794 199.657153,333.151451 C198.18323,328.924758 204.685835,326.388741 206.810019,326.323715 C208.934203,326.258689 210.2564,327.689263 209.432737,330.051876" id="Fill-193" fill="#E5BD7D"></path>
            <path d="M82.5358995,344.543586 C85.4187212,343.806624 90.7508574,344.131755 90.1222723,348.358448 C89.5153624,352.563466 81.3004045,354.427546 75.9682683,354.796027 L72.3918354,352.866921 L73.7573825,350.916139 L79.5880518,346.29929 L82.5358995,344.543586" id="Fill-194" fill="#E5BD7D"></path>
            <path d="M147.522437,374.050166 L147.565788,377.496546 C146.937202,378.97047 136.749788,381.072979 132.653146,379.122198 L131.504353,377.7133 L132.26299,376.802935 C136.164553,374.223568 140.911455,372.988073 145.571655,373.37823 L147.522437,374.050166" id="Fill-195" fill="#E5BD7D"></path>
            <path d="M193.160322,348.899413 L192.791841,346.926956 C193.116971,343.610627 195.284506,340.554403 198.275705,339.12383 C201.266903,337.714932 204.995064,337.975036 207.769508,339.795765 C209.741965,341.096286 212.429709,343.849056 209.850342,347.317112 C207.270975,350.785168 199.5112,349.896479 195.674663,349.788102 L193.160322,348.899413" id="Fill-196" fill="#E5BD7D"></path>
            <path d="M175.28451,351.19687 L171.166193,349.072686 L172.119909,345.517928 L175.739692,344.239082 C179.966386,343.935628 187.401031,346.103163 186.38229,349.852998 C185.385223,353.602834 178.275708,351.652052 175.28451,351.19687" id="Fill-197" fill="#E5BD7D"></path>
            <path d="M93.3266108,344.849976 L92.4595967,344.091338 L93.0231559,342.899194 C94.9956128,341.035114 97.7700577,340.363178 100.41445,339.756268 L102.191829,340.1681 C102.300206,340.428204 103.579052,341.663699 101.108062,344.047988 C98.6153963,346.432276 95.8409515,345.868717 93.3266108,344.849976" id="Fill-198" fill="#E5BD7D"></path>
            <path d="M107.517128,355.837622 C105.151816,355.295739 102.915521,353.279931 102.958526,350.830616 C103.001532,348.012821 105.71089,346.10539 108.162213,344.783193 C110.140475,343.721101 112.118736,342.70236 114.140003,341.748644 L118.247045,340.318071 C120.891895,339.94959 123.536744,341.011682 125.794542,342.442256 L130.052104,346.733975 L129.665053,352.564644 C127.536272,355.165686 117.666469,354.645478 114.742082,355.317414 C112.37677,355.859298 109.882441,356.401181 107.517128,355.837622" id="Fill-199" fill="#E5BD7D"></path>
            <path d="M222.057942,336.62679 L217.614495,339.292858 C215.620362,338.881027 214.84005,336.453388 214.644972,334.394229 C214.449894,332.226694 214.471569,330.015808 214.731673,327.848273 C214.991777,325.637388 215.511986,323.383151 216.855857,321.605772 C218.199729,319.828394 220.497316,318.744626 222.686527,319.199808 C228.929028,320.500329 228.45217,330.42764 222.057942,336.62679" id="Fill-200" fill="#E5BD7D"></path>
            <path d="M231.334232,317.717486 L227.822825,313.96765 L230.27214,308.852267 C232.569727,306.164524 232.678104,301.417622 236.189511,303.086624 C239.700917,304.755626 238.920605,316.265237 231.334232,317.717486" id="Fill-201" fill="#E5BD7D"></path>
            <path d="M217.063662,297.915254 L219.491301,292.929923 L223.761345,293.948665 L225.408672,298.240384 C225.885529,303.290741 223.522916,312.264336 218.992768,311.180569 C214.484295,310.075126 216.608479,301.513362 217.063662,297.915254" id="Fill-202" fill="#E5BD7D"></path>
            <path d="M233.316784,293.235232 L229.566948,292.866751 L228.244752,289.918904 C227.637842,286.841004 227.377737,283.676403 227.486114,280.555152 L228.829986,277.152122 C231.539405,275.092964 237.088295,274.854535 238.107036,279.428034 C239.104102,283.979858 238.432166,287.642992 236.242956,290.612515 L233.316784,293.235232" id="Fill-203" fill="#E5BD7D"></path>
            <path d="M231.18675,268.718993 L229.387695,269.997838 L227.415239,268.784019 C225.334405,266.139626 224.879223,262.324764 226.266445,259.26854 L227.003407,258.423201 C227.480265,258.249798 230.406437,258.011369 231.663607,261.45775 C232.920778,264.904131 232.508946,266.486432 231.18675,268.718993" id="Fill-204" fill="#E5BD7D"></path>
            <path d="M225.290812,229.520289 L225.052383,224.036425 L225.399189,222.454124 L229.864311,221.782188 C231.338235,222.627527 234.394459,228.046365 231.880119,232.35976 L228.867245,233.400176 L225.290812,229.520289" id="Fill-205" fill="#E5BD7D"></path>
            <path d="M230.343042,244.898609 C231.75194,241.885735 237.084076,237.052132 238.579675,242.839451 C240.09695,248.626769 237.907739,251.227812 235.024918,254.609166 L233.204188,255.692934 L231.643563,254.414088 C229.88786,251.574617 228.912469,247.911483 230.343042,244.898609" id="Fill-206" fill="#E5BD7D"></path>
            <path d="M231.482571,539.206462 C231.245924,530.685709 231.073817,523.106948 231.224411,514.414923 C231.719218,485.170327 232.665806,455.583187 233.01002,429.442886 C221.780042,437.171509 209.81861,440.639755 201.320829,442.95192 C196.480322,444.257864 191.704354,445.242675 186.9499,445.94917 C193.726611,490.522559 204.053027,560.315666 204.719942,565.539444 C209.904663,606.58036 214.314904,658.068833 214.250363,658.068833 C214.250363,658.068833 215.347545,670.999826 216.186567,673.290581 C218.208823,672.048863 220.29562,670.31474 222.446957,668.837524 C224.4477,669.972197 226.706603,671.363778 229.008534,671.620685 L229.331234,667.12481 L229.331234,667.039174 C229.460314,664.405876 229.481828,661.644124 229.331234,657.512201 C229.159127,657.512201 227.803785,630.943721 227.588651,609.898744 C227.201411,573.931744 231.891325,554.192712 231.482571,539.206462" id="Fill-207" fill="#D59F69"></path>
            <path d="M213.166012,657.738517 C213.166012,657.738517 214.271454,670.830429 215.116793,673.149691 C217.154276,671.892521 219.256785,670.136818 221.42432,668.641218 C223.440128,669.790012 225.71604,671.19891 228.035302,671.459014 C228.425458,666.90719 228.598861,663.764265 228.360432,657.174958 C222.703166,657.370036 218.801603,657.565114 213.166012,657.738517" id="Fill-208" fill="#918567"></path>
        </g>
    </g>
</svg>