<?xml version="1.0" encoding="UTF-8"?>
<svg width="720px" height="720px" viewBox="0 0 720 720" version="1.1" xmlns="http://www.w3.org/2000/svg" xmlns:xlink="http://www.w3.org/1999/xlink">
    <title>img_b</title>
    <g id="img_b" stroke="none" stroke-width="1" fill="none" fill-rule="evenodd">
        <g id="bear" transform="translate(156.000000, 24.000000)">
            <path d="M84.6649686,212.982481 C129.21335,247.517149 187.385428,244.943546 173.606665,271.823395 C162.596945,293.336074 111.779448,300.265004 68.2279229,276.332699 C12.3596895,245.669434 0.596790221,182.473192 3.10000607,179.547643 C5.60322192,176.600099 10.9862436,183.902971 13.5780689,187.79637 C11.4292907,182.03326 8.15074248,173.784533 10.9419389,170.902978 C13.710983,168.065416 18.7395671,174.026496 20.93265,177.633939 C18.8946335,170.749002 13.1350218,163.138177 18.2079106,160.058653 C23.3029517,156.979128 26.9137852,164.41398 31.5657792,169.891135 C29.8157434,164.809919 24.2111982,157.41906 28.1543169,155.527352 C32.0974357,153.657641 36.262078,160.102646 38.9425127,163.820072 C37.2589339,158.870836 34.3569757,154.273546 38.6102274,152.051889 C42.8856315,149.830232 57.1738989,191.667772 84.6649686,212.982481" id="Fill-35" fill="#B98156"></path>
            <path d="M128.04249,283.232425 C122.733411,283.254732 117.491253,282.563213 112.360631,281.157869 L111.75834,282.719362 C117.022805,284.147014 122.354191,284.905454 127.841726,284.883147 L128.04249,283.232425" id="Fill-36" fill="#563C37"></path>
            <path d="M100.671734,282.284614 C94.8495934,281.526174 89.3620581,279.585461 84.365278,276.529394 L83.3614606,277.867817 C88.6036183,281.080033 94.3588382,283.132282 100.470971,283.935336 L100.671734,282.284614" id="Fill-37" fill="#563C37"></path>
            <path d="M76.513195,271.119934 C71.9848631,269.982274 67.7465228,268.04156 63.8874025,265.387021 L62.9058921,266.725444 C67.01039,269.55844 71.4941079,271.566075 76.3124315,272.770656 L76.513195,271.119934" id="Fill-38" fill="#563C37"></path>
            <path d="M51.1612282,257.44571 C47.7928631,254.902705 44.7814108,252.002788 42.1491784,248.701344 L40.8553693,249.749776 C43.5768299,253.162755 46.6775104,256.174207 50.1574108,258.784133 L51.1612282,257.44571" id="Fill-39" fill="#563C37"></path>
            <path d="M36.0928133,239.276614 C31.3637178,234.190606 27.3484481,228.636149 24.00239,222.546324 L22.4632033,223.215535 C25.8761826,229.416896 29.9583734,235.127502 34.7990041,240.325046 L36.0928133,239.276614" id="Fill-40" fill="#563C37"></path>
            <path d="M19.217527,215.263071 C18.0798672,212.809295 16.9422075,210.377826 15.8045477,207.92405 L14.2430539,208.593261 C15.4030207,211.02473 16.5406805,213.478506 17.7006473,215.909975 L19.217527,215.263071" id="Fill-41" fill="#563C37"></path>
            <path d="M106.081195,268.643747 C100.370589,268.666054 95.0615104,266.948411 89.7078174,265.074619 L89.105527,266.613805 C94.5707552,268.532212 100.035983,270.316776 105.880432,270.294469 L106.081195,268.643747" id="Fill-42" fill="#563C37"></path>
            <path d="M82.1791867,264.316282 C78.4092946,263.290158 75.0855436,261.282523 72.4756183,258.360299 L71.1818091,259.386423 C73.9701909,262.531718 77.5170124,264.762423 81.5768963,265.855469 L82.1791867,264.316282" id="Fill-43" fill="#563C37"></path>
            <path d="M65.1923651,251.34473 C60.7309544,248.355585 56.7602988,244.853378 53.2357842,240.860415 L51.919668,241.886539 C55.5557178,246.013344 59.6379087,249.627087 64.2108548,252.683154 L65.1923651,251.34473" id="Fill-44" fill="#563C37"></path>
            <path d="M44.0118174,232.606805 C42.0711037,230.554556 40.108083,228.48 38.1896763,226.427751 L36.8512531,227.476183 C38.8142739,229.528432 40.7772946,231.602988 42.7180083,233.655237 L44.0118174,232.606805" id="Fill-45" fill="#563C37"></path>
            <path d="M29.5122324,214.136564 C25.206971,209.318241 22.2401328,203.295336 19.4071369,197.495502 L17.8902573,198.164714 C20.7455602,204.053776 23.8016266,210.255137 28.2184232,215.184996 L29.5122324,214.136564" id="Fill-46" fill="#563C37"></path>
            <path d="M127.997876,274.272541 C125.432564,274.517918 122.956481,274.183312 120.54732,273.29103 L119.945029,274.830217 C122.621876,275.834034 125.38795,276.190947 128.220946,275.94557 L127.997876,274.272541" id="Fill-47" fill="#563C37"></path>
            <path d="M119.833494,264.662041 C117.156647,264.282822 114.457494,263.858988 111.802954,263.479768 L111.602191,265.13049 C114.279037,265.532017 116.955884,265.933544 119.610423,266.312763 L119.833494,264.662041" id="Fill-48" fill="#563C37"></path>
            <path d="M102.456299,260.210443 C98.2402656,260.411207 94.1580747,259.184319 90.7004813,256.75285 L89.6966639,258.091273 C93.5334772,260.812734 97.994888,262.084236 102.701676,261.861165 L102.456299,260.210443" id="Fill-49" fill="#563C37"></path>
            <path d="M65.0027552,259.341809 C62.5043651,258.561062 60.4967303,257.111104 58.9798506,254.969627 L57.6860415,255.995751 C59.3367635,258.337992 61.63439,260.033328 64.3781577,260.880996 L65.0027552,259.341809" id="Fill-50" fill="#563C37"></path>
            <path d="M77.5393195,249.058257 C75.1524647,248.65673 73.0556017,247.095237 71.2264232,245.600664 L70.2449129,246.939087 C72.2971618,248.634423 74.6394025,250.262838 77.316249,250.731286 L77.5393195,249.058257" id="Fill-51" fill="#563C37"></path>
            <path d="M48.8859087,225.658158 C51.4066058,230.387253 54.7303568,234.469444 58.8571618,237.882423 L59.8609793,236.521693 C55.9572448,233.28717 52.8119502,229.472664 50.4250954,224.988946 L48.8859087,225.658158" id="Fill-52" fill="#563C37"></path>
            <path d="M35.3566805,211.091651 C36.9181743,214.192332 39.0373444,216.824564 41.7364979,218.988349 L42.7180083,217.649925 C40.2419253,215.664598 38.3235187,213.255436 36.8958672,210.42244 L35.3566805,211.091651" id="Fill-53" fill="#563C37"></path>
            <polyline id="Fill-54" fill="#563C37" points="40.108083 239.376996 45.3279336 244.061477 46.331751 242.723054 41.4241992 238.328564 40.108083 239.376996"></polyline>
            <path d="M101.865162,277.555519 C104.497394,278.269344 107.085012,278.871635 109.851087,278.871635 L110.051851,277.220913 C107.441925,277.220913 104.988149,276.685544 102.489759,276.016332 L101.865162,277.555519" id="Fill-55" fill="#563C37"></path>
            <path d="M13.7411452,199.413909 L12.1127303,194.417129 C11.3542905,192.297959 10.7296929,190.134174 10.1943237,187.948083 L8.56590871,188.193461 L9.99356017,193.413311 C10.6850788,195.46556 11.8004315,197.517809 12.0904232,199.636979 L13.7411452,199.413909" id="Fill-56" fill="#563C37"></path>
            <path d="M348.262866,218.65409 C335.167042,152.856146 322.864905,59.3072885 303.199123,36.9032873 C265.013995,-6.62322395 194.397963,-3.28692791 159.409627,26.7618311 C123.693744,57.3850517 127.375567,158.35772 116.638755,240.792955 C105.946037,322.940959 67.3420188,420.157533 94.6139611,513.37497 C111.127045,568.766322 164.612681,585.315234 233.619293,582.465021 C313.472951,579.150819 357.698914,572.63289 370.971112,509.287455 C380.583535,463.418908 362.218516,288.915159 348.262866,218.65409" id="Fill-57" fill="#C08B5E"></path>
            <path d="M324.06378,69.0005408 C320.748171,58.0499832 301.849198,2.78838174 229.369979,2.78838174 C208.039559,2.78838174 186.532307,7.89864193 167.854375,19.0483005 C145.617688,32.3217036 138.035995,57.0766003 132.377355,80.9466035 C128.133375,98.7772083 118.650733,161.317059 133.54887,180.143169 C134.14568,180.895329 135.184571,173.395856 135.074051,169.502324 C137.173937,185.983467 142.058934,204.389252 150.082709,217.662655 C152.027866,220.870394 154.282481,215.229198 154.149856,211.999337 C156.669719,218.392692 165.047159,226.97616 170.219509,232.351888 C173.645639,235.891462 173.446702,225.471841 173.711951,225.051516 C179.193758,238.302797 195.506556,252.284115 200.70101,257.925311 C212.12881,249.231232 230.895159,243.34669 240.908299,229.852064 C241.549317,232.705845 240.731467,235.11718 242.300855,238.302797 C243.759723,236.201175 263.542858,222.905649 267.85315,209.123433 C268.184711,212.88423 269.378331,215.804379 271.456113,217.04323 C277.910499,210.760486 285.138527,198.261364 288.36572,188.94786 C288.432032,194.544812 290.067733,198.172875 290.509814,199.765683 C294.775898,196.292476 317.786226,178.307015 326.318394,134.040216 C331.800201,105.613011 327.887783,81.6766407 324.06378,69.0005408" id="Fill-58" fill="#D59E62"></path>
            <path d="M313.802745,46.0082988 C331.12158,35.2393058 343.833871,15.2934503 333.912083,5.03305463 C323.104421,-6.13397089 299.296559,2.68908491 285.809129,17.7258717 C298.920063,25.9961045 307.845243,36.5218553 313.802745,46.0082988" id="Fill-59" fill="#B0744B"></path>
            <path d="M305.197998,36.2489627 C310.06844,32.6507783 328.397828,19.9487539 322.179316,14.139637 C315.939062,8.33052 302.240944,19.8837265 294.174274,25.3460305 C298.392425,28.81416 302.045256,32.5207234 305.197998,36.2489627" id="Fill-60" fill="#473B35"></path>
            <path d="M164.514523,22.6170709 C150.844028,7.10487438 125.681425,-3.47364359 114.700572,11.1718256 C103.630805,25.9506375 123.614179,42.662918 143.464183,48.7966805 C148.309985,38.5515192 154.889605,29.4175467 164.514523,22.6170709" id="Fill-61" fill="#B0744B"></path>
            <path d="M148.051687,39.0373444 C151.085511,34.215388 154.677022,29.8235591 158.937759,25.9071344 L154.677022,23.3490073 C148.20784,19.7495187 141.62712,16.1273918 134.444097,14.4747964 C132.16873,13.9314774 129.73721,13.6145413 127.551072,14.4747964 C125.387242,15.3124133 123.758793,17.6215192 124.138021,19.9532634 C126.056468,31.6572609 140.623282,34.9171751 148.051687,39.0373444" id="Fill-62" fill="#473B35"></path>
            <path d="M251.593532,110.964585 C249.144777,103.514843 241.864697,99.0846714 234.628737,96.0430607 C225.561727,92.2079864 207.405647,81.4741866 201.625704,93.0675721 C195.867822,104.638917 190.154061,119.097588 182.057729,130.690973 C178.020593,136.443585 173.365753,141.953749 171.115546,148.587987 C169.438922,153.547134 167.58581,159.255665 169.527165,164.12665 C176.608698,182.067744 202.684625,195.071732 223.068851,176.094726 C237.8055,162.385438 247.13724,143.364351 251.372923,123.704085 C252.277418,119.51636 252.917183,115.064148 251.593532,110.964585" id="Fill-63" fill="#E6BF7D"></path>
            <path d="M198.704717,149.500476 C195.121861,143.745256 174.766761,147.002085 167.84737,150.571214 C165.764835,151.641953 163.032907,152.757305 163.122479,155.077239 C163.256836,160.319397 167.53387,163.933139 170.579298,165.271563 C173.73669,166.699214 184.709186,165.316177 186.5454,165.740011 C190.39697,163.39777 202.287573,155.255695 198.704717,149.500476" id="Fill-64" fill="#17111C"></path>
            <path d="M194.143912,75.42752 L189.370203,74.1560179 C186.715663,77.5243831 185.020327,89.5924993 190.887082,90.328632 C196.753837,91.0870719 195.013887,77.1674702 194.143912,75.42752" id="Fill-65" fill="#17111C"></path>
            <path d="M245.365102,74.1224855 C243.625152,71.8917801 240.658314,70.3972075 237.959161,71.1779543 C234.836173,72.0925436 233.163144,75.6839792 233.386214,78.9185021 C233.586978,82.1307178 234.10004,90.1612572 240.368322,90.7412406 C246.614297,91.321224 247.105053,76.3531909 245.365102,74.1224855" id="Fill-66" fill="#17111C"></path>
            <path d="M208.447597,171.191714 C206.89664,174.850071 203.838415,177.259233 200.365145,178.285357 L200.343301,178.240743 C196.214697,174.136245 192.435604,169.40715 189.224468,164.432677 L187.935644,165.280345 L186.821577,165.191117 C189.901646,170.031748 193.571517,174.693922 197.525365,178.79842 C194.576362,178.976876 191.539981,178.240743 188.918645,176.366951 L187.7172,178.486121 C195.428296,183.995963 206.765574,181.229889 210.522822,172.440909 L208.447597,171.191714" id="Fill-67" fill="#17111C"></path>
            <path d="M297.618236,576.846733 C308.998846,602.896178 318.112139,631.136697 307.083734,641.472373 C305.168621,643.265071 294.140216,640.985468 288.130726,651.144087 C284.652706,657.031217 284.410565,664.600385 292.11504,668.672685 C303.649739,674.781136 331.650002,672.944175 342.370228,659.266556 C361.807517,634.456507 369.357902,552.036684 370.854772,514.456432 C360.772916,554.604004 336.800993,570.052188 297.618236,576.846733" id="Fill-68" fill="#C08B5E"></path>
            <path d="M97.3140778,518.639004 C104.26279,552.146003 123.088695,602.052398 114.11975,619.602629 C105.750214,636.002026 87.1019126,624.183837 81.4408211,643.283269 C75.7575292,662.382701 113.342737,672.695952 135.409894,658.221991 C153.791791,646.160356 167.445012,610.130374 171.485477,577.884867 C135.876101,570.050337 109.368873,551.924689 97.3140778,518.639004" id="Fill-69" fill="#C08B5E"></path>
            <path d="M314.996889,446.753309 C315.771004,402.630527 311.878307,356.758773 291.043531,317.882905 C284.717898,306.105022 276.490152,294.991306 265.387118,287.552643 C256.075609,281.331619 245.149516,277.922232 234.245541,275.398399 C224.86768,273.22879 215.268642,271.612651 205.62537,271.900457 C181.937423,272.653179 159.665003,285.073089 143.253745,302.186441 C126.842488,319.299793 115.695219,340.774504 106.75971,362.758409 C102.092897,374.226348 96.7183207,405.442165 97.7136126,430.901873 C98.7752573,458.442637 99.9032547,529.796238 162.252762,556.18578 C186.692707,566.524635 236.28036,568.030079 266.316057,543.345231 C285.447779,527.626628 314.090067,497.119255 314.996889,446.753309" id="Fill-70" fill="#D09A59"></path>
            <path d="M353.627817,266.571078 C348.292689,250.484916 325.203318,249.425745 317.720857,263.967283 C307.426938,283.981205 310.238395,292.410442 283.828405,330.893661 C256.732154,370.436052 221.090844,383.896352 224.721387,392.634514 C226.824446,397.709709 229.038192,396.937397 236.98554,394.443932 C233.266447,397.025661 226.071772,402.895235 228.44048,406.271343 C230.809189,409.603319 241.390895,405.697625 246.194723,403.248292 C236.077904,411.39067 238.247375,422.04858 255.138257,412.648436 C248.873356,416.973385 245.995486,422.534034 249.980229,424.74064 C258.126814,429.264184 295.915459,401.460941 320.333077,376.61455 C348.691163,347.774202 367.530142,308.298009 353.627817,266.571078" id="Fill-71" fill="#B98156"></path>
            <path d="M273.975237,403.2 C278.726639,399.920863 283.723419,396.68634 288.073295,392.849527 L289.277876,393.987187 C284.838772,397.913228 279.730456,401.259286 274.867519,404.627651 L273.975237,403.2" id="Fill-72" fill="#563C37"></path>
            <path d="M297.163419,385.1759 C303.074788,381.919071 308.026954,377.033826 312.265295,371.836282 L313.492183,372.973942 C309.164614,378.260714 304.100913,383.279801 298.055701,386.603552 L297.163419,385.1759" id="Fill-73" fill="#563C37"></path>
            <path d="M323.931884,361.441195 C326.474888,359.366639 328.170224,356.511336 329.843253,353.745261 L331.337826,354.526008 C329.464033,357.559768 327.612548,360.593527 324.801859,362.868846 L323.931884,361.441195" id="Fill-74" fill="#563C37"></path>
            <path d="M338.743768,342.179054 C342.379817,338.431469 344.320531,333.702373 345.547419,328.705593 L347.198141,329.062506 C345.882025,334.326971 343.807469,339.368365 339.970656,343.294407 L338.743768,342.179054" id="Fill-75" fill="#563C37"></path>
            <path d="M349.516358,315.901344 C351.523992,312.644515 351.501685,308.874622 351.479378,305.193959 L353.152407,305.127037 C353.174714,309.097693 353.152407,313.202191 350.988623,316.682091 L349.516358,315.901344" id="Fill-76" fill="#563C37"></path>
            <path d="M336.803054,327.52332 C339.323751,322.013477 341.041394,316.23595 341.933676,310.235353 L343.562091,310.614573 C342.647502,316.749012 340.862938,322.660382 338.253012,328.304066 L336.803054,327.52332" id="Fill-77" fill="#563C37"></path>
            <path d="M322.37039,348.280033 C325.939519,344.755519 328.928664,340.874091 331.427054,336.546523 L332.89932,337.32727 C330.334008,341.744066 327.255635,345.781643 323.619585,349.395386 L322.37039,348.280033" id="Fill-78" fill="#563C37"></path>
            <path d="M304.323983,369.39366 C308.874622,364.909942 312.778357,359.957776 316.01288,354.447934 L317.485145,355.206373 C314.183701,360.850058 310.213046,365.936066 305.550871,370.53132 L304.323983,369.39366" id="Fill-79" fill="#563C37"></path>
            <path d="M285.49683,383.324415 C288.307519,381.31678 291.006672,379.086075 293.259685,376.476149 L294.486573,377.613809 C292.144332,380.33527 289.311336,382.67751 286.389112,384.752066 L285.49683,383.324415" id="Fill-80" fill="#563C37"></path>
            <path d="M324.121494,329.899021 C326.218357,326.463734 328.805975,323.073062 329.519801,319.013178 L331.148216,319.392398 C330.412083,323.608432 327.779851,327.110639 325.593759,330.679768 L324.121494,329.899021" id="Fill-81" fill="#563C37"></path>
            <path d="M310.815336,348.514257 C312.622207,346.573544 314.027552,344.342838 314.942141,341.866755 L316.570556,342.245975 C315.544432,345.01205 314.072166,347.488133 312.042224,349.651917 L310.815336,348.514257" id="Fill-82" fill="#563C37"></path>
            <path d="M291.229743,370.520166 C293.861975,368.624066 296.516515,366.638739 298.680299,364.20727 L299.907187,365.344929 C297.654174,367.887934 294.865793,369.96249 292.122025,371.92551 L291.229743,370.520166" id="Fill-83" fill="#563C37"></path>
            <path d="M264.137826,398.035917 C268.063867,395.225228 272.012216,392.436846 275.938257,389.648465 L276.808232,391.053809 C272.882191,393.842191 268.956149,396.65288 265.030108,399.463568 L264.137826,398.035917" id="Fill-84" fill="#563C37"></path>
            <path d="M260.022174,410.840166 C262.141344,409.970191 264.037444,408.810224 265.755087,407.360266 L266.981975,408.475618 C265.041261,410.170954 262.899784,411.464763 260.512929,412.423967 L260.022174,410.840166" id="Fill-85" fill="#563C37"></path>
            <path d="M351.793394,298.97029 C351.726473,293.192763 351.213411,286.969095 349.183469,281.503867 L350.789577,281.013112 C352.88644,286.589876 353.399502,293.014307 353.48873,298.903369 L351.793394,298.97029" id="Fill-86" fill="#563C37"></path>
            <path d="M343.83179,297.330722 C344.411774,294.31927 343.675641,291.263203 343.028736,288.296365 L344.612537,287.827917 C345.326363,291.084747 346.10711,294.386191 345.460205,297.732249 L343.83179,297.330722" id="Fill-87" fill="#563C37"></path>
            <path d="M333.450711,307.98234 C334.298379,304.167834 334.209151,300.64332 333.740702,296.761892 L335.413731,296.717278 C335.88218,300.732548 335.971408,304.413212 335.079126,308.36156 L333.450711,307.98234" id="Fill-88" fill="#563C37"></path>
        </g>
    </g>
</svg>