<?xml version="1.0" encoding="UTF-8"?>
<svg width="720px" height="720px" viewBox="0 0 720 720" version="1.1" xmlns="http://www.w3.org/2000/svg" xmlns:xlink="http://www.w3.org/1999/xlink">
    <!-- Generator: Sketch 64 (93537) - https://sketch.com -->
    <title>img_x</title>
    <desc>Created with Sketch.</desc>
    <g id="img_x" stroke="none" stroke-width="1" fill="none" fill-rule="evenodd">
        <g id="x-ray-fish" transform="translate(10.000000, 172.000000)">
            <path d="M264.827404,75.8764993 C279.130258,77.8198618 292.830888,81.0189354 305.929292,84.9056604 C323.694943,63.4389795 344.411499,27.8305993 343.357605,2.89576375 C321.075262,-13.2789917 253.445342,42.1815837 222.641509,73.3052813 C239.92538,73.2454855 254.529348,74.4712988 264.827404,75.8764993" id="Fill-1305" fill="#E8DF24"></path>
            <path d="M307.381614,60.1099843 C327.39216,40.804856 303.008051,19.9576899 295.519075,15.0943396 C278.683855,25.2955134 260.620443,39.411091 245.283019,52.8149589 C266.611625,59.3389653 297.046826,70.0442668 307.381614,60.1099843" id="Fill-1306" fill="#17111C"></path>
            <path d="M540.02722,194.180972 C516.477443,187.993339 462.16633,173.615315 429.400122,151.017005 C417.281113,142.677153 350.252523,88.0645727 264.013059,76.1974712 C234.448663,72.1321669 169.514716,69.2924323 106.047019,95.8962619 C62.418588,114.160239 26.6600318,135.981358 9.00517983,155.441013 L8.94533287,155.470905 C5.77344421,158.968262 3.2000251,162.405836 1.25499903,165.723842 C-0.809720949,170.446769 0.53683556,174.810992 9.09495026,178.756729 C1.22507555,180.490462 -1.46803746,183.778575 0.746299906,188.531394 C18.8200806,214.14879 103.653141,257.07362 223.915599,277.848521 C241.271216,280.837715 273.020026,280.837715 290.615031,281.106743 C379.278296,282.392096 491.940191,234.355743 538.441276,230.081196 C550.26105,221.741343 549.363345,199.830549 540.02722,194.180972" id="Fill-1307" fill="#CCBD9C"></path>
            <path d="M282.746987,215.76 C271.943683,179.490892 224.49271,170.742415 217.300456,169.823084 C163.612216,162.883614 109.177892,174.656988 107.566349,210.273668 C107.118699,220.593904 114.579543,229.520316 122.368665,236.370818 C138.185657,250.279413 166.417494,267.598432 215.867973,271.424037 C234.012748,272.817862 252.873764,268.932945 268.034201,258.909267 C272.779298,255.765746 277.196118,251.969797 280.240143,247.195205 C286.089445,238.00189 285.850698,226.169205 282.746987,215.76" id="Fill-1308" fill="#DECBA9"></path>
            <path d="M511.320755,214.056604 C493.719883,209.177068 473.967461,204.059507 451.675016,199.001451 C454.842575,193.407837 459.026144,184.719884 463.120065,178.858491 C456.396472,181.357765 447.222503,192.217707 443.009051,197.067489 C432.639777,194.806241 421.732615,192.574746 410.287566,190.373004 C412.947121,179.394049 418.26623,167.730769 421.702733,160.351959 C413.993013,167.671263 407.299303,174.812046 399.978057,188.468795 C389.160543,186.475327 377.864907,184.571118 366.061267,182.726415 C370.394249,169.664731 379.209626,153.002903 385.216036,143.838897 C377.267255,146.576197 364.567135,161.006531 355.21387,181.060232 C345.502014,179.632075 335.431566,178.263425 325.032409,176.924528 C330.859523,159.786647 338.599125,141.934688 347.713329,126.760522 C329.723983,136.936139 319.563887,158.685776 311.346162,175.258345 C299.632169,173.859942 287.469937,172.580552 274.889348,171.360668 C281.61294,146.516691 294.103882,122.267779 300.767709,110.604499 C286.364279,118.90566 266.103853,151.24746 257.408006,169.813498 C243.452816,168.623367 228.959738,167.55225 213.89889,166.600145 L217.962928,166.391872 C222.74415,147.320029 246.11237,107.688679 247.606502,104.683599 C234.189199,111.675617 210.850861,155.502177 205.352456,166.09434 C192.562689,165.380261 179.384447,164.755443 165.81773,164.219884 C172.511441,142.559507 190.590435,112.627721 198.569098,101.886792 C177.681136,113.43106 158.43672,140.506531 150.458056,163.684325 C140.776082,163.386792 130.825165,163.148766 120.754717,162.970247 C121.113309,165.945573 121.442018,168.9209 121.501783,172.044993 C121.561548,174.782293 121.501783,177.281567 121.412135,179.780842 C129.958569,179.780842 138.505002,179.751089 147.051436,179.840348 C152.669371,195.07402 173.437802,238.662554 185.77933,244.166909 C182.193414,232.533382 163.307589,193.288824 164.024772,180.227141 C177.023718,180.49492 189.992782,180.911466 202.991728,181.476778 L202.274545,181.566038 C206.368466,204.297533 222.355676,238.037736 235.832744,245.535559 C227.375958,222.714804 220.413304,205.933962 218.560581,182.13135 C230.304456,182.726415 242.048332,183.470247 253.732442,184.303338 L255.40587,184.452104 C261.232983,236.788099 273.395216,251.902758 277.698315,255.413643 C274.052634,235.181422 271.094253,202.393324 272.08038,185.910015 C283.913903,186.951379 295.717544,188.111756 307.521185,189.4209 C308.567077,213.818578 312.690881,233.06894 334.086847,256.603774 C326.138066,233.753266 321.834967,214.859942 322.761329,191.146589 C331.756002,192.217707 340.750675,193.378084 349.745348,194.538462 C352.345137,211.408563 358.560725,240.864296 372.814742,246.993469 C368.272582,234.199565 365.463614,214.056604 364.328074,196.412917 C375.026057,197.841074 385.694158,199.328737 396.392141,200.816401 C400.844654,229.230769 407.090124,235.984761 414.022896,244.702467 C407.71766,224.32148 408.016486,215.871553 408.97273,202.512337 C416.503154,203.494194 428.127499,205.011611 441.335624,206.618287 C444.981305,222.060232 448.836165,227.2373 454.842575,236.07402 C454.364453,226.880261 451.854311,216.942671 450.180884,207.689405 C471.965325,210.307692 495.931198,212.985486 511.320755,214.056604" id="Fill-1309" fill="#FFFFFE"></path>
            <path d="M81.9648965,107.54717 C50.1799625,122.867206 24.5236925,139.68334 10.0131791,155.063221 C1.33090511,164.309102 -5.90933033,172.507716 9.17198996,179.449607 C-5.33852339,182.621333 -2.42440373,190.999479 16.4422679,204.195057 C31.6137156,214.817348 54.1756111,227.713707 83.6172324,239.622642 C93.3509929,235.13435 121.89134,227.055424 120.719684,172.806935 C120.028707,141.05975 103.925943,116.523754 81.9648965,107.54717" id="Fill-1310" fill="#9AB59F"></path>
            <path d="M57.9843655,138.321023 C38.4657041,142.203626 39.1314568,175.235621 56.410768,181.208857 C72.2375275,186.704234 88.2458561,179.327288 88.6695169,163.946205 C89.0629163,150.655755 77.5030269,134.438419 57.9843655,138.321023" id="Fill-1311" fill="#FFFFFE"></path>
            <path d="M68.989484,168.568138 C76.144201,167.14927 75.9328802,154.862477 69.5630689,152.628515 C63.7668425,150.605874 57.88005,153.353043 57.7291066,159.058704 C57.6083519,164.009647 61.834767,170.017194 68.989484,168.568138" id="Fill-1312" fill="#17111C"></path>
            <path d="M299.971776,280.45045 C297.027347,280.510488 294.022828,280.630564 291.13849,280.600545 C273.562053,280.360393 242.044648,280.330374 224.528302,277.358491 C234.142763,298.011577 265.329671,376.541337 292.911156,375.460652 C309.556191,374.800234 323.43707,334.634783 320.31237,317.674036 C317.548212,302.424373 309.225694,290.146594 299.971776,280.45045" id="Fill-1313" fill="#E8DF24"></path>
            <path d="M256.949813,309.497429 C245.218816,323.931971 282.9065,359.159485 295.855145,335.353038 C307.675239,313.656023 269.868759,293.586284 256.949813,309.497429" id="Fill-1314" fill="#17111C"></path>
            <path d="M343.396226,277.960775 C372.908865,310.940616 379.57301,372.774081 409.531908,373.581385 C428.840076,374.119587 417.356328,312.794424 430.922621,300.744672 C447.642483,285.884309 477.03612,284.120201 485.187796,263.220011 C487.895105,256.313082 487.121588,248.89785 483.283755,243.396226 C443.150136,254.788175 392.365787,270.695043 343.396226,277.960775" id="Fill-1315" fill="#E8DF24"></path>
            <path d="M360.377358,301.811936 C367.177505,314.597259 372.768737,328.250907 378.480861,340.108022 C392.081154,345.856926 407.222815,345.078428 412.088698,329.568364 C420.641771,302.350896 377.906626,287.409734 360.377358,301.811936" id="Fill-1316" fill="#17111C"></path>
            <path d="M651.176264,227.584465 C651.951212,207.477008 670.490344,199.06898 684.916293,177.525276 C698.746128,156.879227 704.617847,132.702403 695.884783,127.346399 C681.011749,118.160403 596.900122,179.649724 537.735849,192.30665 L541.550976,193.323992 C550.850348,198.979214 551.744518,220.911901 539.971275,229.260087 L538.630019,229.469539 C592.310048,256.488934 664.827265,335.691967 682.859701,325.518552 C691.056263,320.880671 692.188879,296.40463 679.759911,274.292412 C665.840658,249.547074 650.520539,245.387943 651.176264,227.584465" id="Fill-1317" fill="#EC952D"></path>
            <path d="M635.206206,243.658922 C610.61024,227.662638 577.786019,233.329218 579.295519,247.111994 C579.769088,251.45047 583.291254,254.755975 586.576636,257.618779 C602.707564,271.578636 648.584518,307.998221 660.74931,301.003536 C665.455398,298.288299 659.802173,259.655206 635.206206,243.658922" id="Fill-1318" fill="#E5702A"></path>
            <path d="M680.345342,144.640879 C676.08253,135.776784 571.313416,176.443815 581.880387,197.436149 C584.46209,202.527014 615.952864,208.935515 643.691162,196.927062 C671.42946,184.888663 684.608154,153.534921 680.345342,144.640879" id="Fill-1319" fill="#E5702A"></path>
            <path d="M659.83267,152.019603 C604.354558,180.095075 550.943396,198.113208 550.943396,198.113208 C562.176815,196.624357 573.260455,194.254349 584.104449,190.972801 C609.087572,183.437393 632.423128,171.344278 655.608904,159.342318 C666.093428,153.903455 676.787643,148.312668 684.90566,139.622642 C675.88897,142.053418 668.190333,147.796128 659.83267,152.019603" id="Fill-1320" fill="#E0552A"></path>
            <path d="M612.351116,187.607547 C607.198253,188.90566 602.045391,190.203774 596.922662,191.532075 C583.483033,194.943396 570.043403,198.354717 556.603774,201.766038 C564.890541,201.70566 584.989718,199.320755 616.750636,191.139623 C646.100858,183.592453 661.619713,173.509434 664.150943,171.818868 C651.344122,176.558491 616.599967,186.520755 612.351116,187.607547" id="Fill-1321" fill="#E0552A"></path>
            <path d="M554.716981,211.300425 C560.818574,213.051368 578.371926,212.628727 590.785511,212.206085 C612.336458,211.481557 645.729906,204.689104 654.716981,198.741934 C629.709467,203.511746 603.559782,208.040048 554.716981,211.300425" id="Fill-1322" fill="#E0552A"></path>
            <path d="M632.461384,218.492128 C618.675963,218.069487 590.747058,216.077034 583.018868,216.650619 C599.48976,220.333638 627.329149,221.571373 639.622642,221.088355 L632.461384,218.492128" id="Fill-1323" fill="#E0552A"></path>
            <path d="M571.698113,220.226415 C571.698113,220.226415 618.591278,239.849057 643.396226,243.924528 C620.806005,232.45283 596.562121,224.422642 571.698113,220.226415" id="Fill-1324" fill="#E0552A"></path>
            <path d="M558.490566,220.754717 C571.515569,231.521309 633.080219,264.152828 664.530112,279.895576 L669.811321,281.132075 C649.724927,262.524268 564.899224,221.388046 558.490566,220.754717" id="Fill-1325" fill="#E0552A"></path>
            <path d="M666.037736,305.660377 C662.495414,300.667009 657.362048,297.019159 652.438821,293.371309 C636.768548,281.71015 579.310882,238.264856 564.150943,232.075472 C591.318753,257.789823 641.991973,292.294895 666.037736,305.660377" id="Fill-1326" fill="#E0552A"></path>
        </g>
    </g>
</svg>