<?xml version="1.0" encoding="UTF-8"?>
<svg width="720px" height="720px" viewBox="0 0 720 720" version="1.1" xmlns="http://www.w3.org/2000/svg" xmlns:xlink="http://www.w3.org/1999/xlink">
    <title>img_i</title>
    <g id="img_i" stroke="none" stroke-width="1" fill="none" fill-rule="evenodd">
        <g id="iguana" transform="translate(62.000000, 46.000000)">
            <path d="M592.162515,485.607006 C593.045548,466.855614 583.984863,442.044977 579.185771,431.217213 L597,437.276459 C594.658043,417.306047 584.599147,394.790035 576.07596,376.325471 L596.347324,375.787669 C595.003578,352.518733 581.067015,340.400242 569.395624,320.035442 L587.056282,319.6052 C586.173249,294.722856 564.673318,279.556816 546.974267,260.912984 C551.005504,263.028342 560.757259,260.446889 565.287601,259.658111 C562.945645,238.46868 543.250172,220.613626 523.746663,209.606595 C530.58057,208.889524 537.452869,208.1366 544.286776,207.41953 C531.041283,189.81545 507.045824,175.689163 484.778038,170.16772 C491.458373,168.303337 504.89583,170.526256 510.731526,166.976757 C496.295858,154.678999 468.845053,143.600261 449.687079,139.943202 C455.445989,139.082717 463.393285,132.413962 469.152195,131.589331 C471.417366,128.290807 421.506812,121.765466 405.650612,118.251821 C412.407734,118.789624 422.543415,111.941601 428.571075,109.001612 C403.846154,99.034333 389.026558,94.6243498 362.151644,93.4053301 L373.016788,81.3944002 C357.659695,78.3827044 338.348149,78.8488002 320.457135,79.4224565 L318,85.5175553 C330.554424,90.8955836 343.569561,96.3453189 354.703454,102.225296 C405.996147,129.330559 454.179028,158.192644 491.650337,200.714921 C541.868034,257.793728 568.589377,326.130541 570.931333,399.307579 C572.543828,449.574217 563.751892,507.33424 534.842163,550.071638 C529.543966,557.92356 520.32971,568.679616 510.07885,578.89787 C508.850282,586.176135 508.044035,589.367098 508.581533,596 C521.17435,587.681983 534.266272,570.794974 537.568047,562.763785 C540.677859,566.528405 546.16802,570.687414 549.968901,571.655459 C553.309068,566.27743 558.914408,536.4473 560.987615,530.997565 C563.521536,532.467559 569.741159,535.873644 574.501858,535.945351 C578.18756,519.524438 574.002752,485.463592 575.346498,480.874341 C578.763451,483.09726 588.054493,485.391885 592.162515,485.607006" id="Fill-593" fill="#4D9C6F"></path>
            <path d="M569.817386,399.774136 C567.482152,326.584077 540.837506,258.270966 490.763947,201.146143 C453.40019,158.6163 405.355605,129.74908 354.210135,102.638994 C343.184765,96.7938303 330.053854,91.3789852 317.573747,86 C302.566992,122.003341 270.333096,187.304221 227.494936,212.155133 C242.157148,216.028002 260.571049,229.367885 268.074426,239.874836 C301.227103,286.169969 345.328587,325.58 396.282644,354.339641 C408.647904,361.332322 421.893662,368.109843 429.894712,379.369852 C435.330832,386.972151 437.85748,396.008846 439.963019,404.937962 C446.853876,434.056201 449.916479,464.752277 441.226343,493.440198 C432.57449,522.128119 410.447183,548.485146 380.012566,557.199102 C360.067364,562.900827 338.054905,560.605793 318.837071,553.075214 C276.611432,536.472079 249.622243,505.381545 263.595369,464.537117 C273.855089,434.66582 286.718022,418.062685 319.296461,426.740782 C338.399447,431.832888 350.80299,442.232259 348.429472,461.453166 C345.098891,488.276372 317.114357,487.738474 316.693249,476.729484 C316.693249,476.729484 316.386988,464.106799 308.232808,461.811765 C300.11691,459.480871 292.88151,474.255151 295.14018,485.228281 C297.360567,496.20141 308.539068,503.839569 320.062112,506.744221 C360.411906,516.964293 401.603917,469.198905 382.462648,434.4148 C371.47556,414.404976 347.855234,403.539425 324.847429,397.084643 C301.150538,390.450562 274.927,387.187311 252.110608,396.224006 C224.662029,407.089556 207.434887,434.5941 204.525414,462.385523 C201.615941,490.176947 211.11001,518.00423 225.083136,542.675842 C240.434434,569.893507 262.293763,595.067158 291.886164,608.514621 C350.764707,635.266107 414.122306,634.046871 473.115697,607.474684 C492.601508,598.689008 522.308757,567.706053 533.831801,550.565021 C562.658552,507.820018 571.425253,450.085577 569.817386,399.774136" id="Fill-594" fill="#76C2B4"></path>
            <path d="M328.3984,60.9443051 C334.336469,39.8545134 350.184175,14.5754081 336.727121,5.19421042 C321.226445,-5.5834251 278.348954,-1.35830553 211.063682,34.8058535 C124.57608,26.5346449 87.1353926,61.4097844 64.925469,90.7349787 C39.6693927,124.106262 16.7654089,124.85819 2.65285332,134.239388 C-11.0355545,143.298331 29.2199321,175.23737 100.978036,175.989298 C63.8843788,195.897489 8.55236428,175.23737 13.796374,180.035387 C19.7344439,185.477914 93.3819336,248.568259 208.942942,219.278871 C278.888778,201.554852 326.509014,67.6400455 328.3984,60.9443051" id="Fill-595" fill="#93CDB6"></path>
            <path d="M305.699502,43.8315125 C301.140616,36.7430098 284.102744,44.5117224 275.178145,50.2398054 C266.253546,55.9678884 258.449351,63.3427953 248.597521,67.4956554 C243.613654,69.6078861 238.24344,70.8251037 232.834592,71.8275182 C227.773456,72.7583317 222.519146,73.5101426 217.380741,72.8657333 C212.242335,72.2213239 199.840619,64.1662072 194.856752,62.769987 C179.518804,58.4023237 162.094587,61.803373 147.954313,68.8918757 C123.382689,81.2072542 118.746534,99.5729203 107.156145,109.346462 C95.5271216,119.155804 81.5800207,119.728612 71.8440942,121.66184 C62.0695332,123.595068 58.3606088,132.867403 71.4191133,131.542784 C84.4389832,130.253965 100.35645,135.44504 112.951339,142.748346 C127.362056,151.089867 141.695503,159.932595 157.883412,164.694064 C174.071322,169.455533 192.693213,169.670336 207.103929,161.364616 C216.608048,155.887136 223.407743,147.330812 231.211938,139.955906 C240.291075,131.435382 250.954233,124.38268 262.583256,119.227405 C270.928336,115.504151 284.991341,107.771239 282.441455,102.866568 C279.930205,97.961897 266.987604,99.7161224 259.183409,100.825938 C254.238176,101.506148 247.902097,102.365361 245.390846,98.3557027 L247.322578,88.7611636 C261.656025,69.2140803 310.258388,50.9558158 305.699502,43.8315125" id="Fill-596" fill="#76C2B4"></path>
            <path d="M249.380562,315.658927 C273.94632,305.173509 286.325611,285.979863 294,269.878526 C288.870886,264.120432 284.165984,258.0069 279.383952,252 C269.897019,266.359691 259.060319,285.802144 240.4721,291.098168 C233.067664,293.195252 223.156518,274.819113 217.063285,278.480123 C208.077694,283.918323 225.200451,300.161835 226.588783,301.690218 C210.777227,300.232922 202.987144,306.062104 204.105522,308.976695 C206.92075,316.227628 236.577058,321.132671 249.380562,315.658927" id="Fill-597" fill="#76C2B4"></path>
            <path d="M341.595391,351.612411 C336.027829,353.101268 336.180365,363.026984 341.480989,374.051619 C341.061515,373.768027 317.799785,363.16878 313.338109,370.825761 C308.876433,378.447293 349.717929,402.588052 368.251045,392.626887 C377.746407,387.522233 386.364687,369.514148 393,352.356839 C385.220667,347.890267 377.784541,342.962858 370.31028,338 C364.208843,349.166431 358.717549,360.970943 355.895635,368.273434 C353.302524,364.444944 347.162952,350.123553 341.595391,351.612411" id="Fill-598" fill="#76C2B4"></path>
            <path d="M224.092743,99.0760529 C217.414341,87.2345228 208.217227,76.2983084 195.852642,69.7800349 C183.488058,63.2255488 167.650704,61.7046183 155.171632,68.0418286 C149.599937,70.8664138 144.944136,75.0670789 140.479147,79.3039567 C134.869289,84.663426 129.335756,90.2401711 125.710338,96.9395077 C120.176804,107.079044 119.489883,119.499977 123.802223,130.14649 C128.152725,140.829216 148.111607,155.676394 165.208317,158.247491 C189.326889,161.868754 216.116823,152.344832 226.382481,131.305294 C228.710382,126.561439 230.236873,121.346821 229.969737,116.132202 C229.702601,110.120905 227.107565,104.39931 224.092743,99.0760529" id="Fill-599" fill="#FFFFFE"></path>
            <path d="M185.043098,105.016316 L182.430098,100.192316 L173.421098,99.472316 L166.557098,105.556316 L162.462098,114.268316 C162.111098,117.436316 163.242098,124.600316 172.173098,126.148316 C190.893098,129.424316 186.603098,110.560316 185.043098,105.016316" id="Fill-600" fill="#17111C"></path>
            <path d="M245.626712,481.734656 C253.666651,481.374656 256.283424,483.966656 259.506985,483.318656 L260,478.242656 C258.331333,477.018656 253.590803,466.722656 244.678606,468.342656 C239.672606,469.278656 231.518894,470.970656 226.892136,468.990656 C221.65859,466.758656 221.506893,461.970656 217.828242,458.154656 C214.566757,454.770656 211.456969,452.754656 206.147575,452.970656 C205.38909,456.318656 204.820227,459.702656 204.478908,463.086656 C203.834196,469.386656 203.87212,475.650656 204.40306,481.914656 C215.249393,481.734656 215.704484,483.246656 226.399121,484.722656 C237.20753,486.234656 241.265424,481.950656 245.626712,481.734656" id="Fill-601" fill="#A9CF77"></path>
            <path d="M339.527932,180.21477 C347.312608,173.712176 341.713777,162.123752 354.713801,155.73014 C367.713826,149.372854 379.218272,134.732934 388,121.546108 C377.722694,115.552096 367.253648,109.739721 356.631209,104 C347.427652,118.058683 338.070702,131.972056 328.483663,145.776447 C321.312558,156.129741 312.33909,166.555689 300.642903,170.987625 C288.985064,175.383234 293.663539,191.621557 295.427554,195 C311.035253,181.195609 331.781605,186.753693 339.527932,180.21477" id="Fill-602" fill="#A9CF77"></path>
            <path d="M315.080783,572.738739 C309.036215,583.045045 317.732594,598.324324 321.28134,610.720721 L322.451256,619.405405 L322.25627,620.054054 C330.913651,622.576577 339.649026,624.594595 348.423399,626 C348.579388,620.882883 349.164346,615.72973 348.150418,610.720721 C347.253482,606.288288 345.030641,602.18018 343.704736,597.81982 C340.272982,586.648649 343.080781,574 350.997215,564.990991 L354,560.666667 C347.487466,560.378378 340.974931,559.513514 334.657383,558 C328.729807,563.477477 321.086354,562.432432 315.080783,572.738739" id="Fill-603" fill="#A9CF77"></path>
            <path d="M409.813611,354 C421.050279,351.538251 433.734383,347.592213 440.704926,332.170082 C450.341798,310.846995 460.550025,289.342896 478.03352,273.124317 C487.403758,264.39959 498.069071,256.905738 506.677501,247.529372 C510.791265,243.040301 514.409853,238.008197 517,232.577869 C509.496191,221.355191 501.192483,210.458333 492.126968,199.959699 L487.479939,195 C479.519045,197.244536 473.462671,204.014344 469.996445,211.290984 C466.225495,219.219262 464.77806,227.943989 461.95937,236.23429 C458.645505,246.081284 453.312849,255.312842 446.380396,263.277322 C434.953276,276.382514 413.432199,276.599727 408.213814,290.175546 C402.08126,306.14071 378.122397,299.84153 367,320.983607 C388.597257,317.037568 398.005587,313.92418 416.479431,302.592896 C421.164551,299.696721 427.220924,296.510929 431.982224,299.334699 C438.114779,303.027322 435.143728,312.005464 431.487049,317.978825 C423.183342,331.627049 418.117318,340.351776 409.813611,354" id="Fill-604" fill="#A9CF77"></path>
            <path d="M571.838516,399.854279 C571.761551,396.545278 571.530654,393.272639 571.338241,390 C555.598805,394.10898 540.28268,402.726929 524.543245,407.890426 C512.19029,411.92668 499.221611,409.781284 486.483828,412.690296 C472.591564,415.853847 458.968679,424.435434 446,430.14437 L446.538758,434.398801 C464.779571,437.598714 484.367278,426.980819 503.685607,427.017182 C508.572913,427.017182 513.46022,427.708072 518.270561,427.162633 C524.04297,426.544467 529.545999,424.144532 535.356891,424.144532 C543.977022,424.217258 551.635085,429.59893 560.17825,430.798898 C563.872592,431.307975 567.682381,431.089799 571.338241,431.744327 C571.953964,420.944619 572.184861,410.217636 571.838516,399.854279" id="Fill-605" fill="#A9CF77"></path>
            <path d="M528.896386,500.246159 L525.850602,495.204564 C523.383133,491.675448 518.563855,490.415049 514.168675,489.442741 C491.306024,484.365135 467.710843,479.287529 444.539759,481.556247 L444,484.365135 C452.713253,486.633853 461.00241,490.234992 467.980723,495.564678 C476.154217,501.794649 482.477108,510.293337 491.845783,514.902795 C499.363855,518.611969 508.963855,519.94439 513.628916,526.570486 L517.831325,533.304617 C522.457831,538.274189 531.248193,537.445927 536.684337,541.587237 L539.344578,544 C546.091566,532.764446 551.604819,520.736641 556,508.132654 C549.214458,506.548153 542.46747,504.92764 535.720482,503.343139 L528.896386,500.246159" id="Fill-606" fill="#A9CF77"></path>
            <path d="M279.355556,530.823881 C272.316667,532.901493 266.911111,538.059701 260.3,541.104478 C251.977778,544.973134 241.711111,545.546269 234.905556,551.420896 L233,553.641791 C238.677778,562.238806 245.133333,570.441791 252.288889,578 L254.777778,575.420896 L259.522222,571.229851 L265.744444,568.507463 C272.705556,565.60597 273.25,549.880597 278.655556,544.901493 L287.872222,536.268657 L289,535.158209 L282.816667,530 L279.355556,530.823881" id="Fill-607" fill="#A9CF77"></path>
            <path d="M367.505551,238.099521 C365.545687,244.008314 355.285226,245.773747 351.865073,261.050139 C349.251921,272.939783 327.193851,270.77803 320.622545,288 C344.60205,283.172084 355.554227,287.315445 371.271563,268.075838 C380.110162,257.231041 389.333049,262.419249 389.486763,249.088435 C389.640478,238.423784 390.639624,230.137062 393.099061,225.993701 C408.970111,199.332074 436.177626,188.054926 464,173.355001 C452.317677,163.15873 439.943638,153.791131 427.070026,145 C414.88813,150.908793 404.204953,159.483749 396.480786,170.112371 C385.75918,184.776266 379.918019,203.439405 364.277541,213.527589 C348.214347,223.867977 326.156277,222.174603 309.324509,231.470144 C298.641332,237.378937 291.147737,247.142857 284,256.654573 C299.678907,250.349458 310.400512,242.567145 325.349274,245.773747 C340.336465,248.944318 352.556789,236.730411 367.505551,238.099521" id="Fill-608" fill="#A9CF77"></path>
            <path d="M497.942791,323.60281 C477.498989,326.141762 478.459694,345.309068 473.617741,351.173691 C467.123375,358.933589 457.016758,359.756066 447.947703,364.762452 C441.722335,368.195402 437.917943,377.385696 432,381.068966 L433.152846,383 C452.366946,378.172414 471.696331,372.62963 487.29818,361.293742 C495.060676,355.715198 501.862467,348.706258 510.893094,345.058748 C523.497544,340.016603 537.946547,342.484036 551.626986,343.771392 C555.969373,344.200511 560.503901,344.37931 565,344.200511 C561.695175,328.787995 557.160647,313.697318 551.511702,299 C545.324762,300.752235 539.291534,303.362708 533.450448,306.0447 C525.880092,309.54917 518.348165,321.028097 497.942791,323.60281" id="Fill-609" fill="#A9CF77"></path>
            <path d="M445.295184,569.501336 L444.673744,560.593054 C443.780425,556.942119 440.712066,554.167409 437.799068,551.648264 L418.728638,535 L415,538.577916 C418.340238,547.267142 421.680476,555.956367 425.059555,564.609083 C426.380114,568.040962 427.700673,571.545859 427.972553,575.196794 L428.283273,583.739982 C429.603832,591.078362 436.711548,596.007124 442.576385,600.972395 C447.975142,605.499555 452.75246,610.939448 456.015018,617 C462.656655,614.663402 469.259451,612.071238 475.823408,609.11398 C480.134645,607.142476 484.989643,604.002671 490,600.242208 C478.464526,593.41496 466.929052,586.587711 455.432418,579.723954 C451.121181,577.204809 446.460383,574.174533 445.295184,569.501336" id="Fill-610" fill="#A9CF77"></path>
            <path d="M325.3,509.24 L327.601,504.884 C329.98,500.456 330.682,495.452 331.345,490.556 L330.409,484.76 L323.545,484.94 C315.823,488.936 309.037,494.444 303.655,500.924 C308.14,504.344 313.639,506.828 319.255,508.232 L325.3,509.24" id="Fill-611" fill="#A9CF77"></path>
            <path d="M367.87206,466.84 C360.389464,471.952 354.989652,465.076 348.471308,464.752 C347.777046,468.568 346.581373,471.844 345,474.508 C345.347131,474.724 349.47413,480.52 360.505174,480.484 C371.574788,480.448 368.026341,486.388 371.806209,491.248 C378.401693,484.372 383.415804,476.2 386,467.488 C379.790216,467.812 375.316087,461.764 367.87206,466.84" id="Fill-612" fill="#A9CF77"></path>
            <path d="M347.8535,435.124 L352.5725,426.376 C358.6565,422.524 363.9995,422.2 368.9915,419.716 C363.4145,415.18 357.1745,411.292 350.3495,408.052 C347.8535,412.732 343.5635,413.416 339.1565,420.004 C336.3485,424.216 336.8555,430.336 334.0085,434.512 L341.2235,439.948 L347.8535,435.124" id="Fill-613" fill="#A9CF77"></path>
            <path d="M254.808263,417.357143 C260.856609,425.642857 267.418868,433.642857 274.415974,441.321429 L275.088013,442 C278.052888,437.642857 281.452613,434.107143 285.326717,431.392857 L281.926993,428.785714 C278.724927,426.071429 276.273963,421.678571 278.408674,418.25 L281.531676,415 C285.366249,411.178571 286.512667,405.571429 285.801097,400.428571 L283.310601,392 C272.597517,392.107143 262.003028,393.642857 252.080577,397.428571 L242,402.214286 L246.032231,406.071429 C249.31336,409.607143 252.001514,413.5 254.808263,417.357143" id="Fill-614" fill="#A9CF77"></path>
            <path d="M209.855226,35.333436 C123.75787,26.9283948 86.4861203,62.3678325 64.3764112,92.1675239 C56.2771948,103.119547 48.408288,110.542181 41,116 C46.8728915,115.163134 52.5922433,113.016392 57.6206668,110.032785 C65.4895736,105.411831 72.1301634,99.1899176 79.0394475,93.3318586 C105.601806,70.8092591 138.382521,52.8712275 174.003719,51.2702673 C189.050604,50.615329 204.17426,52.8712275 219.144375,51.2338818 C223.366715,50.7608709 227.589056,49.9603907 231.312392,48.0319614 L240.409616,41.0459531 C264.82242,19.4693756 296.835436,6.07952642 330,2.69567867 C311.498473,-4.61779872 270.733696,1.89519856 209.855226,35.333436" id="Fill-615" fill="#76C2B4"></path>
            <path d="M429.701706,158.696555 C428.999706,158.012555 421.316706,152.576555 417.611706,155.384555 C409.499706,161.504555 421.082706,170.720555 428.609706,171.368555 C436.097706,172.052555 434.147706,164.996555 433.211706,162.944555 L429.701706,158.696555" id="Fill-616" fill="#C0D986"></path>
            <path d="M398.284716,134.060668 C397.660716,133.808668 389.080716,130.244668 386.623716,133.880668 C384.166716,137.480668 390.523716,141.800668 391.537716,142.592668 L396.724716,143.744668 L398.557716,143.312668 L400.273716,141.404668 L400.936716,137.300668 L398.284716,134.060668" id="Fill-617" fill="#93CDB6"></path>
            <path d="M357.855704,127.840072 C355.164704,126.724072 348.339704,123.268072 344.751704,127.444072 C341.124704,131.584072 349.626704,139.504072 349.626704,139.504072 L356.568704,142.564072 L363.549704,139.576072 L365.148704,136.156072 L364.329704,133.168072 L357.855704,127.840072" id="Fill-618" fill="#C0D986"></path>
            <path d="M333.617004,101.380672 L325.583004,99.2566723 L324.647004,99.4366723 C323.750004,99.9046723 319.772004,105.916672 328.508004,108.400672 C332.993004,109.660672 335.606004,107.140672 336.035004,105.772672 L333.617004,101.380672" id="Fill-619" fill="#93CDB6"></path>
            <path d="M371.997255,161.585455 C368.643255,164.933455 376.911255,171.773455 380.694255,171.197455 L381.786255,170.729455 L381.201255,168.353455 C379.056255,165.941455 375.351255,158.273455 371.997255,161.585455" id="Fill-620" fill="#93CDB6"></path>
            <polyline id="Fill-621" fill="#C0D986" points="402.9955 189.706 408.6895 196.294 412.0045 195.25 411.8485 192.946 402.9955 189.706"></polyline>
            <path d="M315.585236,136.812 L312.231236,132.78 L306.771236,133.14 C302.871236,135.732 308.448236,142.644 310.164236,143.22 L315.468236,142.824 L315.585236,136.812" id="Fill-622" fill="#93CDB6"></path>
            <path d="M463.301651,190.078007 C460.337651,188.962007 450.665651,186.874007 448.676651,193.210007 C446.687651,199.546007 457.490651,205.126007 459.401651,205.162007 C460.766651,205.198007 465.290651,204.946007 468.137651,199.150007 L468.566651,196.810007 L463.301651,190.078007" id="Fill-623" fill="#93CDB6"></path>
            <polyline id="Fill-624" fill="#C0D986" points="492.3555 218.942 487.0515 211.058 482.6445 211.346 485.0625 217.574 492.3555 218.942"></polyline>
            <path d="M496.396245,235.142915 C495.070245,234.602915 489.766245,232.946915 486.490245,237.914915 C483.214245,242.918915 486.100245,249.686915 491.911245,251.558915 L501.466245,251.234915 L503.884245,244.070915 C503.533245,243.278915 502.558245,237.662915 496.396245,235.142915" id="Fill-625" fill="#C0D986"></path>
            <polyline id="Fill-626" fill="#93CDB6" points="522.589 264.112 519.937 268.432 523.954 271.888 528.868 270.556 529.063 269.656 528.751 269.116 522.589 264.112"></polyline>
            <polyline id="Fill-627" fill="#93CDB6" points="511.0515 287.228 510.4275 286.796 509.2185 291.008 511.8705 293.204 513.7815 292.16 513.5475 290.936 511.0515 287.228"></polyline>
            <path d="M486.141361,273.145894 C481.071361,268.969894 479.823361,275.557894 480.954361,278.869894 C482.046361,282.217894 488.403361,282.325894 489.027361,282.145894 L490.431361,279.805894 L489.105361,277.213894 L486.141361,273.145894" id="Fill-628" fill="#93CDB6"></path>
            <path d="M454.356459,228.573939 C450.339459,228.177939 448.389459,233.829939 448.389459,233.829939 L451.470459,239.445939 L457.905459,237.321939 L458.607459,234.729939 C458.646459,232.317939 458.373459,229.005939 454.356459,228.573939" id="Fill-629" fill="#93CDB6"></path>
            <polyline id="Fill-630" fill="#93CDB6" points="423.904 218.706 418.912 221.406 421.954 225.294 424.918 224.862 426.088 223.674 423.904 218.706"></polyline>
            <path d="M447.781302,267.138 L445.831302,267.93 C445.831302,267.93 444.856302,271.026 448.405302,272.538 L449.770302,272.862 L451.291302,270.702 L449.692302,268.326 L447.781302,267.138" id="Fill-631" fill="#C0D986"></path>
            <path d="M544.728931,310.824 L541.140931,306.72 L537.864931,306.792 C527.607931,308.412 539.034931,321.912 540.711931,322.74 L543.987931,323.28 C550.461931,322.848 545.820931,313.344 544.728931,310.824" id="Fill-632" fill="#C0D986"></path>
            <polyline id="Fill-633" fill="#C0D986" points="509.422 322.616 506.614 326.144 510.709 329.384 511.801 329.348 512.386 328.808 511.684 324.452 509.422 322.616"></polyline>
            <path d="M539.351474,347.063252 C538.454474,346.559252 530.459474,345.911252 531.863474,352.355252 L533.189474,354.839252 L536.582474,355.235252 L540.092474,353.507252 L541.301474,351.779252 L541.145474,350.339252 L539.351474,347.063252" id="Fill-634" fill="#93CDB6"></path>
            <path d="M558.938737,378.598918 L557.417737,378.310918 C549.578737,377.842918 557.027737,386.734918 558.236737,387.310918 L559.718737,387.706918 L561.122737,386.374918 L558.938737,378.598918" id="Fill-635" fill="#93CDB6"></path>
            <path d="M538.004774,416.585374 L538.589774,416.261374 L540.851774,412.481374 L539.993774,409.673374 C535.625774,407.765374 535.001774,416.837374 538.004774,416.585374" id="Fill-636" fill="#C0D986"></path>
        </g>
    </g>
</svg>