<?xml version="1.0" encoding="UTF-8"?>
<svg width="720px" height="720px" viewBox="0 0 720 720" version="1.1" xmlns="http://www.w3.org/2000/svg" xmlns:xlink="http://www.w3.org/1999/xlink">
    <title>img_q</title>
    <g id="img_q" stroke="none" stroke-width="1" fill="none" fill-rule="evenodd">
        <g id="quail" transform="translate(64.000000, 24.000000)">
            <path d="M528.747854,481.43396 C514.385586,469.170379 500.955484,457.673271 483.865766,450.35693 C464.393845,479.030019 433.218056,503.487502 400.07436,517.667268 C422.964225,539.929848 451.412564,569.299732 472.127374,588.809974 C479.481131,595.708239 490.252832,606.160154 498.055411,602.711022 C505.823464,599.22705 488.215876,566.059638 467.15582,540.835681 C492.496937,565.711241 547.563806,608.041499 557.403341,601.421953 C567.242875,594.837246 525.709682,551.670834 504.994872,532.578668 C534.09918,549.789489 583.296853,594.802406 589.925592,584.803407 C593.170912,579.960686 573.871615,552.019231 525.709682,513.103265 C592.100647,559.57945 573.871615,519.966689 528.747854,481.43396" id="Fill-805" fill="#6F585A"></path>
            <path d="M551.527372,518.576362 C556.834606,523.645793 562.280591,528.74971 567.761263,533.819141 L569.044712,531.7155 C563.702791,526.784012 558.395557,521.783553 553.192387,516.852066 C541.051656,505.29928 528.459984,493.36715 515.243932,482.538569 C503.901021,473.261855 491.829666,464.709346 479.376745,456.915526 L477.88517,458.812252 C490.33809,466.571586 502.374758,475.124095 513.717669,484.400809 C526.864345,495.160418 539.42133,507.058063 551.527372,518.576362 Z M545.457007,530.336063 C539.386642,524.990744 532.761272,519.43851 525.407458,513.541417 C531.339072,517.645242 536.57693,521.059348 541.225095,523.852708 C534.287535,518.197017 527.315287,512.334409 520.48179,506.57526 C503.901029,492.505002 486.799935,478.089885 470.531356,467.606163 L468.901029,469.399432 C485.13492,479.814181 502.270694,494.29827 518.920839,508.403014 C527.627477,515.748516 536.611618,523.300934 545.457007,530.336063 Z M525.546209,553.13126 C517.984268,545.33744 510.457015,538.129882 504.594777,532.819049 L511.636401,537.164276 L466.021942,495.505277 C462.032844,491.884255 457.766245,487.987346 453.048704,484.642211 L451.140875,486.263049 C455.962479,489.608184 460.333142,493.574066 464.391615,497.26406 L525.546209,553.13126 Z M417.667146,509.127218 L415.377751,510.29974 C440.734534,533.715683 472.612624,568.477496 498.801914,601.20464 L499.460982,598.135393 C473.549194,565.856566 442.815802,532.370732 417.667146,509.127218 Z M545.214192,543.4752 C540.982281,539.785206 538.068505,537.267734 537.270686,536.509043 C529.569994,529.542886 486.86931,492.849861 462.587849,475.882786 L460.853459,477.572596 C484.718667,494.263784 528.21717,531.54307 535.640359,538.302311 C536.438179,539.026516 539.351954,541.578474 543.618554,545.302954 C554.128957,554.441725 573.17256,571.029455 589.059574,585.341114 L589.926769,584.513452 L590.273647,583.202987 C574.421321,568.925814 555.620533,552.544999 545.214192,543.4752 Z M471.780117,522.300842 C462.10222,512.610297 452.840577,503.368069 441.74048,493.677523 L439.763276,495.125932 C450.967436,504.919935 460.333142,514.265621 470.253853,524.128596 C472.404497,526.301209 481.249886,533.957085 493.49468,544.57875 C512.052654,560.683677 537.20131,582.513268 557.354923,600.894267 L558.638372,598.825111 C538.519447,580.444113 513.54423,558.786951 495.090319,542.785482 C482.880213,532.198303 474.034824,524.542427 471.780117,522.300842 Z M471.537302,547.061737 L466.576946,540.992214 C471.745429,545.992673 478.162672,551.717337 485.169608,557.579944 C468.588839,540.543897 447.151778,519.024679 429.738501,501.954146 L427.622545,503.264611 C441.185476,516.541692 457.21124,532.543162 471.537302,547.061737 L471.537302,547.061737 Z" id="Fill-806" fill="#B6A39F"></path>
            <path d="M445.807081,279.91853 C377.464078,217.675509 289.846619,173.068011 289.846619,173.068011 C257.768662,73.7212352 160.600484,52.7315056 111.877979,76.9371246 C90.6656952,87.4492791 72.7407963,118.121256 77.204719,141.358651 C83.0181997,171.477357 139.145972,177.874556 141.9489,230.781123 C143.679103,263.078335 107.483264,339.60267 138.626911,446.695245 C146.931884,475.396193 181.189895,505.826114 208.008036,519.035466 C254.273653,541.685009 307.702309,536.913044 358.674078,529.340144 C409.611242,521.801822 465.219954,484.317692 489.961851,439.191503 C509.305516,403.920458 496.01756,325.701729 445.807081,279.91853" id="Fill-807" fill="#6E7B95"></path>
            <path d="M138.794421,446.722364 C147.104689,475.414559 181.384546,505.8352 208.219788,519.040523 C254.514908,541.683159 307.977635,536.91265 358.981908,529.342058 C371.655067,527.475337 384.639861,523.741895 397.347647,518.487421 C405.380906,496.121336 412.652391,466.288367 399.0097,435.003503 C394.092792,423.768607 375.775575,379.243851 326.39873,341.87486 C295.477606,318.437139 250.013513,306.545434 212.271044,315.740764 C187.894257,321.686616 166.252933,338.141417 153.995287,360.023537 C149.216882,368.527489 144.022965,378.483335 139.833204,388.888577 C136.889984,400.953127 134.743165,413.294228 133.35812,425.358777 C134.881669,432.341697 136.682228,439.462893 138.794421,446.722364" id="Fill-808" fill="#EAB353"></path>
            <path d="M356.085473,510.567786 C352.838537,521.082575 338.641826,526.773748 332.009786,516.085447 L328.797392,518.4105 C337.398319,532.326112 355.84368,524.795718 360.023247,511.227129 L356.085473,510.567786 Z M352.320409,444.598762 L348.348093,443.870014 C345.135699,454.384803 330.938988,460.145381 324.306948,449.45708 L321.060012,451.782133 C329.695481,465.697745 348.1063,458.097947 352.320409,444.598762 Z M249.489246,509.839038 L245.586014,509.11029 C242.339077,519.659782 228.142367,525.385657 221.510326,514.697356 L218.26339,517.022409 C226.898859,530.938021 245.344221,523.407627 249.489246,509.839038 Z M330.662653,493.008435 L326.690337,493.355458 C326.448544,499.046631 317.985785,502.378049 313.184464,502.933285 C307.450513,503.592629 303.996325,501.545194 300.645763,496.89509 L297.433369,499.254844 C302.200148,505.952383 308.624937,508.763267 316.776819,506.264704 C323.167066,504.251972 330.386318,500.573531 330.662653,493.008435 Z M370.420352,468.022797 C367.277041,474.755038 362.47572,481.383173 354.18567,479.474548 C350.455148,478.606991 346.966418,476.871877 343.270438,475.761404 L342.5796,479.717464 C347.968133,481.383173 353.702084,484.8534 359.574203,483.673523 C367.000706,482.077218 370.973022,476.247236 374.012707,469.688506 L370.420352,468.022797 Z M280.542392,483.673523 L276.570076,483.985843 C278.469879,494.639442 265.58576,499.358951 257.84838,493.633076 L255.326823,496.686876 C265.58576,504.390781 283.133032,497.936158 280.542392,483.673523 Z M307.20872,436.547834 L303.270946,435.853788 C302.856443,442.100198 296.742531,448.936546 290.075949,448.971248 C283.789328,449.005951 277.951751,446.333875 272.148716,444.355846 L270.421622,448.034287 C278.228086,450.602255 287.865269,455.634085 295.948068,451.365705 C301.923813,448.277203 306.690591,443.592396 307.20872,436.547834 Z M340.645255,412.360349 L336.742023,411.631601 C336.120269,416.212301 331.077156,421.868772 326.172209,421.938176 C321.612682,422.007581 317.053154,420.272467 313.28809,417.739201 L310.731991,420.827704 C315.256977,423.916206 322.718022,427.49054 328.348347,425.616617 C334.220466,423.67329 339.850792,418.780269 340.645255,412.360349 Z M387.414955,435.610873 C386.793201,440.226275 382.510008,444.772273 378.295899,446.472685 C373.14916,448.554821 369.522263,446.437982 365.757199,443.002457 L363.235642,446.125662 C367.760627,450.185828 373.667288,453.343735 379.677574,450.255232 C385.100649,447.409646 390.489181,442.759541 391.38727,436.304918 L387.414955,435.610873 Z M165.103444,411.666303 C170.56106,408.855419 175.915051,404.170612 176.847681,397.750691 L172.909908,397.056645 C172.288154,401.637346 168.004961,406.183344 163.687227,407.883755 C158.609571,409.965892 155.017216,407.883755 151.21761,404.413528 L148.661511,407.536732 C153.151955,411.631601 159.093157,414.754806 165.103444,411.666303 Z M293.668304,516.536577 C289.35057,526.669641 279.437052,530.521594 269.903494,524.413993 L267.381937,527.502496 C278.953465,534.963485 291.906669,530.972723 297.295201,518.202286 L293.668304,516.536577 Z M292.735674,412.117433 L289.108777,410.451723 C284.791042,420.550085 274.877524,424.43674 265.378508,418.32914 L262.82241,421.452345 C274.393938,428.878631 287.347141,424.853167 292.735674,412.117433 Z M171.977277,457.091581 C178.816568,453.794864 179.680115,448.346607 176.81314,441.787877 L173.013533,443.210671 C175.293297,448.346607 174.844253,451.400408 169.490262,453.864269 C164.516232,456.224024 159.024074,456.432237 155.46626,451.643323 L152.184782,454.003078 C157.227896,460.735319 164.999818,460.492403 171.977277,457.091581 Z M392.596236,485.825064 C394.841458,490.961001 394.357872,494.014801 389.072965,496.478662 C384.098935,498.803715 378.572234,499.046631 374.979879,494.292419 L371.732943,496.617471 C376.810599,503.31501 384.582521,503.106797 391.55998,499.705974 C398.330187,496.409258 399.228276,490.995703 396.326758,484.402271 L392.596236,485.825064 Z M212.909399,488.497139 C217.261676,499.18544 198.539979,505.778872 192.356984,497.727944 L189.110047,500.052997 C197.987309,511.643556 222.822918,502.23924 216.639922,487.074346 L212.909399,488.497139 Z M316.776819,463.685013 L312.804503,464.032035 C314.635223,476.490152 300.093093,481.383173 290.870413,475.449084 L288.348856,478.537586 C300.231261,486.172087 319.160209,479.925677 316.776819,463.685013 Z M230.560298,412.915585 L228.004199,416.004087 C239.921146,423.638588 258.850094,417.357476 256.432163,401.151514 L252.459847,401.498537 C254.290566,413.956653 239.748437,418.849674 230.560298,412.915585 Z M330.938988,383.939186 L328.382889,387.027688 C340.265294,394.627486 359.228784,388.346375 356.845395,372.175115 L352.838537,372.487435 C354.703798,384.910849 340.161669,389.838572 330.938988,383.939186 Z M206.484611,461.429365 C206.933655,467.085836 205.621064,470.903086 200.750659,474.130397 C196.778344,476.837175 188.177417,479.752166 184.37781,475.587893 L181.130874,477.912945 C186.20853,483.500012 194.049535,481.626089 200.197989,478.988716 C208.004453,475.587893 211.113222,469.272079 210.456926,461.04764 L206.484611,461.429365 Z M240.922861,451.678026 C246.173226,448.867141 248.314822,442.447221 251.354507,437.693009 L248.28028,435.125041 C246.207767,438.387055 244.653383,441.926687 242.339077,445.015189 C237.261422,451.851537 229.31679,449.942912 222.615666,446.819707 L220.923115,450.498148 C227.486071,453.482544 234.29082,455.321765 240.922861,451.678026 Z M283.167574,387.166497 C290.421368,399.728721 307.934099,393.204693 310.766533,380.677172 L306.863301,379.983126 C304.721705,389.387443 291.803043,394.176357 286.379969,384.841445 L283.167574,387.166497 Z M242.960831,376.269983 L240.404732,379.358485 C245.378762,384.355613 251.976261,384.841445 258.573759,383.314545 C267.451021,381.267111 271.526962,371.203451 275.810155,364.158889 L272.2178,362.49318 C269.005405,367.767926 266.311139,373.597908 261.509818,377.658074 C256.397621,381.961156 247.313107,380.677172 242.960831,376.269983 Z M212.978483,394.662189 C209.213419,397.785393 201.68329,396.81373 198.298186,393.655823 L195.742087,396.779027 C200.508866,401.151514 207.969911,401.220918 213.703863,398.930568 C219.196021,396.640218 222.546583,389.04042 223.997342,383.765674 L220.09411,383.036927 C218.850602,387.478818 216.501755,391.712495 212.978483,394.662189 Z M191.597062,435.853788 L189.040963,438.942291 C193.842284,443.280075 200.992452,443.314778 206.933655,441.926687 C213.531153,440.399786 216.018168,434.118675 216.77809,428.045777 L212.909399,427.386433 C212.18402,432.487668 210.802345,436.409025 205.55198,438.178841 C201.234246,439.601634 195.016708,438.942291 191.597062,435.853788 Z M290.110491,346.911859 C296.707989,345.350256 299.160463,339.069145 299.954926,333.030949 L296.051694,332.302201 C295.326314,337.438138 293.944639,341.394197 288.728816,343.164013 C284.37654,344.586806 278.159002,343.892761 274.739357,340.838961 L272.2178,343.892761 C277.01912,348.265247 284.169289,348.29995 290.110491,346.911859 Z M375.463466,405.246382 C372.147446,416.03879 362.061218,419.578422 352.285867,414.615996 L350.558773,418.294438 C362.924765,424.471442 375.325298,419.127292 379.366698,405.940428 L375.463466,405.246382 Z M247.762152,334.245528 L243.893462,333.551483 C240.5429,344.378593 230.456672,347.883522 220.681321,342.955799 L218.954228,346.63424 C231.320219,352.811245 243.755294,347.467095 247.762152,334.245528 Z M305.412542,354.199336 C307.450513,361.105089 311.595538,364.679423 318.918415,362.770798 C326.448544,360.792769 332.493372,355.899748 332.044328,347.5365 L328.072012,347.84882 C328.382889,353.817611 324.030613,357.218434 318.745706,358.710632 C313.080838,360.237532 310.731991,358.2248 309.143065,352.845948 L305.412542,354.199336 Z M258.090173,466.461195 L254.117857,466.808217 C254.428734,472.777009 250.076458,476.177832 244.791551,477.635327 C239.126683,479.196929 236.812377,477.149495 235.223451,471.770643 L231.458387,473.158734 C233.496357,480.064486 237.641382,483.604118 244.998802,481.695493 C252.494389,479.752166 258.573759,474.893847 258.090173,466.461195 Z M205.068394,350.867918 L201.096078,351.214941 C201.579664,361.382707 183.065219,368.531376 179.507406,357.530755 L175.776883,358.884143 C180.750913,374.465465 205.793773,365.477576 205.068394,350.867918 L205.068394,350.867918 Z" id="Fill-809" fill="#CE7239"></path>
            <path d="M246.81464,597.595844 C246.883109,597.00851 243.425445,562.839473 241.850667,531.710755 C236.202007,530.39789 230.587582,528.808633 225.075859,526.873885 C223.501081,546.739604 223.090269,577.315536 225.520905,597.077608 C205.459604,605.473033 193.237958,616.045051 178.585677,631.868528 C173.861344,636.843595 181.358656,644.548039 186.082989,639.503874 C197.037966,627.757188 209.533486,623.818593 223.466847,615.388618 C215.832598,632.14492 215.147911,651.561501 214.428991,664.344659 C214.052414,671.254475 223.56955,674.087499 224.733516,667.212233 C227.540729,650.594127 230.41641,639.054736 237.468676,623.265808 C242.67229,635.323435 254.072312,652.079737 258.83088,656.46747 C263.897557,661.166144 271.360635,657.123903 268.108376,651.008716 C259.412863,634.701552 248.834464,615.630462 246.81464,597.595844" id="Fill-810" fill="#C38F6A"></path>
            <path d="M213.84209,659.836155 C217.471734,661.022501 221.17118,661.894815 224.975327,662.418203 L225.603535,659.208089 C221.659786,658.684701 217.820739,657.777494 214.051492,656.48647 L213.84209,659.836155 Z M215.307908,643.192409 C219.461059,645.111499 223.753812,646.646771 228.186166,647.693548 L229.058677,644.518326 C224.45182,643.436657 220.019466,641.831599 215.796514,639.772939 L215.307908,643.192409 Z M220.647674,616.185576 C216.040817,612.905676 212.131969,608.99771 209.165432,604.322109 L206.373398,606.066736 C209.305034,610.672553 213.144081,614.580518 217.576436,617.930203 L220.647674,616.185576 Z M257.851531,630.840446 C253.907783,633.980776 249.440528,636.527932 244.72897,637.19089 L246.578693,640.156757 C251.150649,639.214658 255.478302,636.841965 259.35225,633.841206 L257.851531,630.840446 Z M265.180621,645.076606 C261.620778,647.4493 257.677029,649.08925 253.454077,650.066241 L255.652804,652.892537 C259.631453,651.845761 263.330899,650.205811 266.71624,647.972688 L265.180621,645.076606 Z M251.883558,617.162567 C248.498216,620.930962 242.530243,623.827044 237.574382,623.896829 L237.539481,623.896829 L239.0751,627.072051 C244.030961,626.583555 249.61503,624.036399 253.244675,620.547144 L251.883558,617.162567 Z M219.461059,623.861936 L218.448947,627.072051 L226.545846,630.665984 L233.072226,632.515289 L234.328642,629.374959 L229.372781,628.083935 C225.917638,627.141836 222.497396,625.781027 219.461059,623.861936 Z M242.181238,540.817669 L241.971836,537.53777 C236.073663,537.747125 229.582183,537.049274 223.788712,535.618679 L223.61421,539.003257 C229.582183,540.398959 236.248165,541.061917 242.181238,540.817669 Z M197.822793,616.953212 L195.449564,613.987345 L192.971633,616.046005 L194.891157,618.628054 L200.196022,623.408333 L203.616264,625.327424 L207.106307,623.408333 L203.651164,621.768384 L197.822793,616.953212 Z M181.454491,626.967373 C184.106924,629.688992 186.933859,632.166363 190.109798,634.259916 L192.797131,632.131471 C189.48159,630.003025 186.515054,627.455869 183.75792,624.629573 L181.454491,626.967373 Z M223.335007,575.117045 L223.474608,578.396945 C230.594296,579.059903 237.504581,579.059903 244.554468,577.908449 L244.240364,574.628549 C237.225378,575.780004 230.384893,575.780004 223.335007,575.117045 Z M249.021723,608.474322 L248.184112,605.2991 C238.097888,607.008835 227.488158,606.101629 220.124167,598.599731 L216.983128,600.030325 C225.114929,609.241958 237.469681,610.49809 249.021723,608.474322 Z M224.207517,589.702131 L224.556522,593.156493 C231.431906,594.970906 239.144901,595.110476 246.264589,593.714774 L245.880684,590.434874 C238.795897,591.865469 230.838599,591.656114 224.207517,589.702131 Z M243.158451,562.73019 L242.914148,559.520076 C236.457568,560.741315 229.791586,559.973679 223.230305,558.857117 L223.195405,562.137017 C229.861387,563.183793 236.59717,563.881644 243.158451,562.73019 L243.158451,562.73019 Z" id="Fill-811" fill="#BE6A37"></path>
            <path d="M344.788272,594.742948 C344.069749,588.863627 341.127225,561.057898 340.237624,531.246282 C334.421007,531.972551 328.60439,532.629652 322.787772,533.182999 C320.666418,551.720153 319.708387,571.467754 321.453372,595.261712 C305.919582,610.305857 292.8493,627.70173 286.827391,643.748818 C284.398098,650.285239 292.78087,655.403707 296.031332,649.282296 C303.284996,635.414016 309.922783,629.154268 319.879464,617.810637 C315.705185,634.272736 316.971155,644.717176 319.126725,661.62887 C320.050541,668.47655 329.254482,668.545718 329.836144,661.62887 C330.794175,649.80106 334.831592,634.514825 339.074301,619.401512 C344.446118,632.612692 357.755907,648.763533 364.770064,652.187373 C370.96305,655.230786 376.711237,649.835644 372.263235,644.544255 C360.253631,630.330132 344.788272,594.742948 344.788272,594.742948" id="Fill-812" fill="#C38F6A"></path>
            <path d="M317.43289,655.113493 C321.491114,655.767322 325.514946,655.973795 329.607562,655.801734 L330.123438,652.601414 C325.721297,652.807886 321.387939,652.53259 317.088972,651.775524 L317.43289,655.113493 Z M350.448952,608.41634 L349.038891,605.525728 C337.655228,609.827234 323.451443,609.379877 313.409057,602.428643 L311.207986,604.803075 C322.385299,612.649022 337.792794,613.302851 350.448952,608.41634 Z M316.263571,636.668634 C321.766248,638.11394 327.337708,638.802181 333.046736,638.767769 L333.837745,635.498624 C327.922368,635.567448 322.110165,634.810383 316.401138,633.261841 L316.263571,636.668634 Z M317.088972,617.501121 L316.710663,617.363473 C313.443449,614.644921 310.623327,611.513425 308.353473,607.968983 L306.152402,610.584299 C308.800565,614.576097 312.170955,617.98289 315.988437,620.942327 L318.499033,618.15495 L317.088972,617.501121 Z M359.253235,625.347069 C355.160619,628.753862 350.483343,631.610062 345.496542,632.263891 L347.525654,635.154504 C352.340497,634.122142 356.880205,631.472414 360.904038,628.203269 L359.253235,625.347069 Z M336.933001,620.804678 C331.258366,621.802628 323.932927,620.563794 318.808559,618.327011 L317.879982,622.422045 L318.155116,622.628517 L320.149836,622.284397 C325.342988,624.073823 331.636675,624.899712 336.898609,624.108235 L338.274279,619.187312 L336.933001,620.804678 Z M352.512455,612.580198 C349.210849,616.262288 343.364255,619.084076 338.515021,619.1529 L338.274279,619.187312 L340.200216,623.316758 L341.163184,622.146748 C345.806068,621.389683 350.792869,618.946428 354.094475,615.711695 L352.512455,612.580198 Z M340.337783,551.223511 C333.700178,551.223511 326.959399,549.778205 320.459362,548.677019 L320.253012,551.911752 C326.993791,553.04735 333.803354,554.38942 340.509741,554.355008 L340.337783,551.223511 Z M301.578302,623.867351 L298.689396,620.219674 L296.763459,622.972638 L298.689396,625.519129 L303.916939,630.23358 L306.496319,631.747711 L308.559823,629.270043 L307.321721,628.616214 L301.578302,623.867351 Z M288.578227,636.909518 C291.501524,639.421598 294.734347,641.520733 298.139128,643.378984 L299.893107,640.62602 C296.38515,638.733357 293.117936,636.496574 290.160247,633.881258 L288.578227,636.909518 Z M367.541642,638.802181 C363.93051,641.589557 359.837894,643.48222 355.401361,644.65223 L358.083916,647.33637 C362.210924,646.028712 366.028406,644.067225 369.467579,641.451909 L367.541642,638.802181 Z M319.805919,580.576991 L319.943486,583.949372 C327.234533,585.738798 335.488548,585.635562 342.848379,583.777311 L342.538853,580.508167 C335.31659,582.400829 326.925007,582.469653 319.805919,580.576991 Z M320.390579,592.517972 L320.562537,595.1677 L319.771527,595.959178 C327.475275,600.054212 336.898609,600.157448 345.702893,598.402433 L344.327223,595.374173 C336.073208,596.922715 327.3721,596.716243 320.390579,592.517972 Z M339.615556,537.045746 C333.52822,536.632801 327.268925,535.359556 322.178949,533.466893 L321.903815,533.432481 L321.559897,536.701626 C326.821832,538.6287 333.425045,539.901946 339.753123,540.314891 L339.615556,537.045746 Z M341.541493,568.808069 L341.266359,565.538924 C334.078488,566.708934 327.028183,566.605698 319.702744,565.814221 L319.668352,569.083366 C327.096966,569.840431 334.250446,569.943667 341.541493,568.808069 L341.541493,568.808069 Z" id="Fill-813" fill="#BE6A37"></path>
            <path d="M112.095566,76.9685479 C90.7527566,87.5312027 72.7175604,118.350528 77.208951,141.699554 C82.6404,169.773979 131.627892,177.38326 140.924026,220.780483 L141.69,224.984698 L141.864085,226.444012 L142.351523,231.551612 C179.849411,234.296512 228.662819,206.291579 197.571255,166.056203 C202.445632,150.733404 210.31427,136.175008 222.500213,125.751335 C231.76153,117.898835 243.738571,112.791236 255.785247,112.235307 C212.368471,65.9889461 148.653396,58.8313576 112.095566,76.9685479" id="Fill-814" fill="#242A2F"></path>
            <path d="M120.615106,73.0506278 C125.913564,71.0172368 131.665178,69.4746644 137.730518,68.4579689 C134.24469,39.9554367 106.602081,-2.25495539 58.811391,0.0939617798 C45.2863817,0.760072618 32.8071205,7.84188258 22.4542139,16.5714404 C7.39544059,29.2626048 -4.63066306,49.5263977 1.74840062,68.2125596 C3.59588901,73.5765048 7.95317294,78.9404499 13.6002129,78.6950407 C31.8659472,77.888696 46.4367046,31.7868143 75.0204872,31.7868143 C100.815608,31.7868143 115.70009,49.8769823 120.615106,73.0506278" id="Fill-815" fill="#242A2F"></path>
            <path d="M156.671393,131.171921 L156.705671,131.551179 L152.935007,139.136328 C213.128528,173.786668 188.413534,217.15993 142.102915,218.263224 C142.857048,221.711019 143.371229,225.40016 143.576902,229.365124 C190.058915,232.812919 254.263053,187.819194 156.671393,131.171921" id="Fill-816" fill="#FFFFFE"></path>
            <path d="M130.005121,116.370535 C120.001076,122.212058 124.443431,139.666668 136.196436,142.849774 C147.984419,146.032879 155.295067,137.777793 155.365026,131.971249 C155.539922,118.364348 140.009166,110.529012 130.005121,116.370535" id="Fill-817" fill="#6E7B95"></path>
            <path d="M146.168012,136.935288 C152.464264,133.227495 149.66593,122.244033 142.250344,120.250219 C134.834758,118.256406 130.217506,123.433325 130.182527,127.071159 C130.07759,135.676037 139.87176,140.608102 146.168012,136.935288" id="Fill-818" fill="#17111C"></path>
            <path d="M135.751602,85.261749 C142.515788,88.233073 149.106534,92.2409053 153.893497,97.4234472 C147.233375,98.7709081 140.261059,100.947576 133.35812,104.298953 C162.808349,101.845883 199.439021,123.578008 222.992267,148.661511 C215.811822,123.197955 187.36755,87.4729668 135.751602,85.261749" id="Fill-819" fill="#FFFFFE"></path>
            <path d="M495.270343,294.047774 C461.461468,250.131354 413.859402,218.286745 362.869534,196.675426 C344.271196,188.800997 318.828116,183.667007 304.170689,186.71965 C302.234803,221.963791 310.324043,258.734254 319.415796,289.468811 C328.472979,320.238057 346.725623,349.585049 374.6577,365.195151 C376.040476,360.13054 375.902198,354.719038 374.450284,349.654427 C384.682827,372.237041 403.039179,391.073231 425.474721,401.514655 C426.477234,397.00507 425.993262,392.217972 424.091945,388.020589 C434.531904,405.746727 452.09316,419.136726 471.935997,424.47885 C472.039705,420.038643 472.177983,415.598436 472.316261,411.158229 C484.588398,427.947762 501.112572,441.545895 519.918327,450.35693 C521.439381,446.85333 521.992491,442.93346 521.47395,439.152346 C527.83472,442.690636 534.160921,446.228926 540.487121,449.767215 C548.161528,394.784967 529.113788,337.998884 495.270343,294.047774" id="Fill-820" fill="#6F585A"></path>
            <path d="M362.716597,254.298632 C355.475907,241.286377 344.212612,231.212374 332.494587,222.292683 C338.126234,234.395479 353.132302,249.121713 362.716597,254.298632" id="Fill-821" fill="#917E79"></path>
            <path d="M439.338489,354.07674 C433.32207,341.938965 423.5279,332.284711 413.279001,323.644854 C417.826294,334.873171 430.838548,348.96978 439.338489,354.07674" id="Fill-822" fill="#FFFFFE"></path>
            <path d="M336.62213,262.938489 L358.589054,287.983581 C354.216657,278.993932 347.500654,267.101011 336.62213,262.938489" id="Fill-823" fill="#C79B76"></path>
            <path d="M453.644973,372.38834 L482.048067,405.898394 C477.675669,396.908745 464.523498,376.550863 453.644973,372.38834" id="Fill-824" fill="#FFFFFE"></path>
            <path d="M382.969542,323.452469 C388.741106,333.246639 395.771921,342.096371 404.061987,349.896728 C402.802736,342.795955 393.918025,330.938013 382.969542,323.452469" id="Fill-825" fill="#B6A39F"></path>
            <path d="M470.067698,287.738727 C474.754908,296.378584 480.596431,304.283879 487.487329,311.279714 C486.647829,305.0884 479.302201,294.559667 470.067698,287.738727" id="Fill-826" fill="#FFFFFE"></path>
            <path d="M423.370494,305.648067 C416.199762,296.13373 407.979655,287.633789 398.640214,280.253183 C402.767757,290.362165 412.45699,298.792148 423.370494,305.648067" id="Fill-827" fill="#B6A39F"></path>
            <path d="M425.294349,261.399405 C419.837597,252.024985 410.847948,242.125877 401.088757,237.053896 C404.866508,245.86865 419.207971,256.957049 425.294349,261.399405" id="Fill-828" fill="#C79B76"></path>
            <path d="M409.04652,382.899584 C405.373706,374.574539 398.762641,365.514932 391.102201,360.407971 C393.445806,368.103391 404.394289,378.632124 409.04652,382.899584" id="Fill-829" fill="#FFFFFE"></path>
            <path d="M364.855514,217.920286 C365.660035,217.115764 353.802094,205.572635 339.075859,201.829863 C338.586151,202.949197 350.96878,213.338013 364.855514,217.920286" id="Fill-830" fill="#C79B76"></path>
            <path d="M337.496609,303.514337 C342.218798,314.88257 349.459488,325.726115 357.714575,334.855681 C355.021178,320.689114 343.163236,308.516359 337.496609,303.514337" id="Fill-831" fill="#917E79"></path>
            <path d="M487.837121,347.605592 C490.810351,357.528047 502.948126,376.426291 509.069482,384.77097 C508.020107,372.674691 499.135396,361.490016 494.832957,356.791751 L487.837121,347.605592" id="Fill-832" fill="#FFFFFE"></path>
            <path d="M480.63141,371.653778 C475.06972,360.325293 458.87436,339.696264 450.689233,330.116002 C452.543129,339.136832 467.444259,362.947628 480.63141,371.653778" id="Fill-833" fill="#B6A39F"></path>
            <path d="M469.840333,316.439143 C464.663415,305.630577 457.072933,295.241761 448.363117,286.951695 C451.091493,298.7047 460.60583,308.393932 469.840333,316.439143" id="Fill-834" fill="#FFFFFE"></path>
            <path d="M513.546817,358.3442 C509.59417,347.640571 503.927543,336.866984 496.476978,328.122189 C498.54075,339.805235 506.166211,351.663177 513.546817,358.3442" id="Fill-835" fill="#FFFFFE"></path>
            <path d="M509.94661,423.475431 C506.028942,413.261511 501.341732,403.572278 495.745063,394.162879 C494.975522,406.545509 505.434296,419.977513 509.94661,423.475431" id="Fill-836" fill="#FFFFFE"></path>
            <path d="M372.563236,273.55467 C378.544676,282.719215 385.19072,291.184176 392.606306,299.229387 C390.752409,286.951695 377.705175,276.003212 372.563236,273.55467" id="Fill-837" fill="#C79B76"></path>
            <path d="M533.215728,419.662701 C532.096394,409.06401 529.437977,399.164902 525.625246,389.230815 C523.596454,398.990006 525.765163,410.078406 533.215728,419.662701" id="Fill-838" fill="#FFFFFE"></path>
            <path d="M433.374539,253.249256 C438.061749,260.140155 443.55348,266.016657 449.849732,271.43843 C447.646044,263.952885 442.049375,257.096966 433.374539,253.249256" id="Fill-839" fill="#B6A39F"></path>
            <path d="M446.666627,395.247234 C445.477335,390.350149 432.779893,371.636288 423.440452,369.922308 C423.440452,369.922308 440.720167,389.685544 446.666627,395.247234" id="Fill-840" fill="#FFFFFE"></path>
            <path d="M375.39655,234.885187 C381.273052,240.481856 387.534325,245.658775 394.14539,250.450922 C392.326472,245.763712 384.875907,235.374896 375.39655,234.885187" id="Fill-841" fill="#917E79"></path>
            <path d="M109.589449,78.7031529 C95.2294174,87.0711522 82.930802,104.011248 78.7031529,120.917328 L78.8778491,120.849296 C78.8778491,120.849296 94.320997,129.115246 99.3522487,135.544319 C115.494182,111.154662 136.49267,101.323964 155.220107,97.616192 C142.851613,84.5539491 118.464018,78.9412667 109.589449,78.7031529" id="Fill-842" fill="#EAB353"></path>
            <path d="M78.8596357,120.240928 C57.3004076,126.882678 40.8645047,147.816362 39.3515764,170.523498 C51.4550028,164.368578 80.3037946,160.300071 99.7999387,167.567745 C99.7999387,167.567745 101.966177,150.424379 99.0090898,135.263107 C94.0576881,128.690903 78.8596357,120.240928 78.8596357,120.240928" id="Fill-843" fill="#17111C"></path>
        </g>
    </g>
</svg>