<svg viewBox="0 0 720 720" xmlns="http://www.w3.org/2000/svg">
  <g fill="none" fill-rule="evenodd">
    <path d="M218.874 340.75c-11.585.726-24.886-1.562-42.665-12.22-24.724-14.8-29.256-25.674-36.282-36.761-2.172-3.391-13.22-24.921-18.155-22.069-4.934 2.88-.536 18.193 3.138 27.666-7.134-6.19-18.343-20.076-23.706-17.412-5.363 2.691 4.532 20.642 6.945 24.221-8.715-5.194-16.733-.377-5.98 15.179 21.668 31.353 57.173 68.573 105.174 70.268a753.631 753.631 0 0111.531-48.873" fill="#E28248"/>
    <path d="M129.703 323.797c-3.196 2.085-13.27 5.308-18.01 8.26l3.927 4.902c3.98-2.817 11.591-10.508 14.083-13.162M206.795 390.408c-.92-5.823-1.598-18.444-2.167-18.498-.812-.054-7.827 11.754-10.914 17.09 4.252.73 8.612 1.218 13.081 1.408M151.694 344.15c-3.168 2.058-16.358 10.48-17.983 11.537 3.088 2.87 6.283 5.66 9.615 8.315-.027-.975 6.77-13.705 8.368-19.852M162.366 378.101a113.324 113.324 0 0013.867 6.443c1.516-4.25 6.391-23.28 3.412-28.776-1.57 1.273-11.943 15.836-17.279 22.333" fill="#2A3B55"/>
    <path d="M313.965 287.34c-36.123-.752-58.596-5.34-73.855-11.026-48.004 129.57-61.788 274.539-11.666 302.385 44.141 24.519 145.726 25.7 196.384-12.823 51.436-39.113-6.543-223.382-21.561-293.05-23.331 9.604-53.152 15.264-89.302 14.513" fill="#E28248"/>
    <path d="M403.425 383.657c-13.595 3.304-28.125 7.15-37.286 17.902 21.313 2.004 46.42.108 67.707-2.979a1628.9 1628.9 0 00-4.62-21.72c-7.8 1.922-18.296 4.983-25.801 6.797M409.922 347.088c2.89-.108 8.347.352 12.075.57a3006.07 3006.07 0 00-5.024-20.638c-22.747 3.683-47.978 11.32-64.376 26.84 19.234 1.462 38.037-6.013 57.325-6.772M361.06 300.89c14.87.19 32.474-1.354 47.396-4.144-1.195-5.064-2.337-9.804-3.346-14.272l-.186-.488c-10.992 3.954-21.985 7.935-32.977 11.917-4.116 1.49-8.55 3.222-10.887 6.987M410.675 450.84c6.03-.082 12.032-.678 18.035-1.3 2.763-.271 9.323-.434 13.6-.678a578.01 578.01 0 00-2.284-15.518c-15.964 3.033-39.604 9.1-53.416 15.654-2.019.948 15.671 1.95 24.065 1.842M429.396 561.012c3.94-4.415 7.099-10.184 9.528-17.063-14.171-1.49-31.447-4.333-40.624-4.09 5.722 4.903 19.03 14.788 31.096 21.153M445.38 486.011c-24.357 4.035-53.351 7.34-77.549 9.48 12.434 5.416 26.395 5.66 39.927 6.472 11.335.677 25.993 2.79 37.81 4.55.215-6.527.161-13.38-.187-20.502" fill="#2A3B55"/>
    <path d="M241.487 276.212l-.027.026c-25.942 70.508-41.779 145.557-42.898 203.865l.08 3.654c2.053 69.97 128.668 72.738 135.973-3.09 6.185-64.515 1.68-129.917-11.011-193.439-2.88 0-5.76.054-8.719 0-6.638-.134-12.69-.456-18.45-.833-25.328-1.692-42.604-5.562-54.948-10.183" fill="#EBA877"/>
    <path d="M434.574 91.898c-38.65-30.402-89.225-36.263-137.068-35.701-20.718.267-41.597 1.873-61.458 8.242-76.655 24.649-79.656 153.776-28.303 190.655 14.098 10.143 28.84 29.572 107.049 31.205 78.21 1.632 128.062-25.826 142.348-61.072 17.046-42.043 16.081-102.954-22.568-133.33" fill="#E28248"/>
    <path d="M236.107 64.059l2.758-.805.321-.134C222.261 41.884 196.418 30.81 168.378 24c-7.391 42.096 7.767 74.192 15.4 91.406 9.962-23.757 27.128-43.223 52.329-51.347M435.046 92.854c10.273 7.956 17.842 18.04 23.195 29.322 18.384-22.27 24.547-61.385 22.682-85.519l-.892-2.341-2.595-.16c-28.17 6.386-54.502 20.196-75.75 39.46 11.786 4.923 23.005 11.202 33.36 19.238" fill="#E28248"/>
    <path d="M179.074 128.947c-2.28 7.606-3.89 15.479-4.883 23.458 12.906-.48 28.602-2.188 33.03-4.296-8.238-7.153-17.87-14.118-28.147-19.162zm-5.903 46.703c.295 8.594 1.288 17.054 3.005 25.14 11.35-3.896 26.912-10.355 36.572-17.107-11.913-4.697-27.476-7.125-39.577-8.033zm22.539 68.4c5.876-7.445 15.964-20.816 20.66-28.902-9.445 2.562-21.331 6.885-32.09 10.408 3.139 6.859 6.976 13.077 11.43 18.494zm251.25-1.307c4.427-5.418 7.968-11.129 10.383-17.08l.617-1.655c-9.9-3.283-22.216-7.339-27.234-8.94 3.408 7.632 10.518 19.161 16.234 27.675zm-18.139-56.338c8.426 4.27 22.136 10.355 35.794 15.292 1.69-7.926 2.71-16.119 3.085-24.365-12.825 2.081-25.812 5.524-38.879 9.073zm34.21-50.492c-13.415 5.177-27.1 12.009-36.705 17.64 12.208.72 26.993 3.096 40.784 3.016-.751-7.046-2.093-13.985-4.078-20.656z" fill="#2A3B55"/>
    <path d="M313.664 171.668c12.852.32 24.304 1.897 34.677 4.327 7.005-31.84 30.393-87.132 51.651-103.773-32.251-13.383-68.76-16.428-103.814-16.027-19.75.24-39.716 1.496-58.684 7.292 16.328 23.052 37.964 83.794 43.38 112.856 10.13-3.152 21.096-4.969 32.79-4.675" fill="#C06646"/>
    <path d="M276.41 108.635c.267-20.44-2.785-36.211-5.382-49.9l-.187-.881c-9.557.854-19.007 2.321-28.27 4.803 5.542 7.125 26.744 37.919 33.838 45.978M319.16 120.484c4.794-20.848 10.662-41.96 13.125-63.232-10.165-.797-20.356-1.116-30.469-1.09 3.065 15.616 12.628 56.992 17.343 64.322M365.039 61.24c-7.532 14.516-14.173 29.14-17.52 47.395 16.98-11.076 30.612-26.104 45.703-39.6a197.682 197.682 0 00-28.183-7.796" fill="#2A3B55"/>
    <path d="M434.638 92.228c3.747 2.904 7.029 6.189 10.092 9.636 6.919-8.279 16.545-23.425 16.19-42.317-15.944 3.528-32.955 13.544-42.308 21.85 5.524 3.23 10.885 6.786 16.026 10.83M218.874 72.655c-6.798-7.612-22.706-18.274-37.046-24.957-1.461 1.114 5.63 31.986 12.72 47.395 6.56-9.017 14.686-16.682 24.326-22.438" fill="#C06646"/>
    <path d="M421.188 265.258c11.423-26.981-14.962-90.01-106.291-92.27-69.744-1.72-115.462 67.495-87.87 97.516l.885.511c14.72 8.205 38.8 15.952 86.878 16.975 45.61.968 81.488-8.07 106.398-22.732" fill="#EFC29E"/>
    <path d="M345.081 184.044c-8.27-4.58-61.482-8.698-65.02 5.365-.956 3.767 1.011 7.641 2.793 11.083 2.553 4.985 10.451 15.31 21.94 18.127 4.6 1.111 9.227 2.14 13.934 1.572 10.132-1.192 21.46-11.435 26.167-16.204 3.164-3.224 6.329-7.37 5.983-11.922-.239-3.523-2.739-6.34-5.797-8.02" fill="#17111C"/>
    <path d="M342.21 248.154c-2.054 4.019-6.19 8.31-11.605 8.31l-.854-.027c-8.03-.683-10.458-10.17-11.205-15.718l.213-20.202-6.59-.164-.213 20.72c-1.494 7.136-4.749 11.592-9.818 13.177-5.095 1.558-11.018-.601-13.66-4.975l-5.282.191.107 3.035c3.175 5.221 9.044 8.447 15.287 8.447l5.23-.738c4.801-1.45 8.536-4.62 11.15-9.459 2.722 6.698 7.177 10.744 13.073 11.7l2.562.219c6.696 0 13.339-4.51 16.914-11.481l-.053-3.035h-5.256M411.674 166.98c-3.684-2.736-8.721-1.22-11.538 2.952-2.275 3.358-3.141 8.53-1.57 12.512 1.57 4.008 10.616 8.531 16.005-1.11 2.52-4.47.786-11.62-2.897-14.355M245.617 170.286l-3.034-6.121c-2.329-2.275-5.524-2.627-8.233-1.381-2.735 1.218-5.01 3.873-6.69 7.014l-1.787 5.308c-.46 3.494.677 7.15 2.573 9.615s9.046 5.173 14.68-2.87c2.112-3.034 3.195-7.53 2.49-11.565" fill="#17111C"/>
    <path d="M372.53 589.088c0 9.828.026 19.682.026 29.51 0 7.082 0 14.217-1.13 21.19-1.048 6.328-3.442 13.114-9.037 16.237-3.12 1.723-6.885 2.127-9.844 4.093-2.986 1.938-4.707 6.731-1.937 8.939 4.707 3.77 9.387 3.77 14.767 2.154-5.057 4.308-12.077 9.262-9.064 15.051 3.039 5.762 15.788.404 20.899-2.934-3.336 3.688-4.68 10.043-2.018 11.793 8.097 5.385 31.766-15.078 37.684-31.234 5.03-13.678 10.49-70.491 12.507-98.225-14.39 10.852-32.788 18.552-52.853 23.426" fill="#E28248"/>
    <path d="M422.267 598.348c.537-5.39.994-10.616 1.423-15.573-13.694 4.604-27.253 9.534-40.625 15.031 12.97 1.842 26.18 2.005 39.202.542M371.458 613.101v4.55c0 4.117-.027 8.234-.241 12.35a141.211 141.211 0 0030.468-6.175c-8.697-9.668-19.543-11.13-30.227-10.725M414.392 657.19c.843-3.71 1.712-8.423 2.527-13.785l-28.775.325c7.988 6.202 16.928 10.779 26.248 13.46" fill="#2A3B55"/>
    <path d="M228.495 579.145c-6.496-3.6-11.874-10-16.267-18.56.533 14.96.959 33.226.107 40.506-1.784 14.934-5.83 28.107-14.057 35.334-7.082 6.187-30.483 18.027-26.303 23.574 4.206 5.573 11.953 5.2 16.878 3.573-5.138 4.587-10.915 8.08-7.374 12.773 4.34 5.734 11.927 2.24 23.428-2.693-3.993 4.133-4.393 7.253-2.582 9.013 2.635 2.614 10.01 1.307 14.402-.32 17.412-6.426 32.267-20.773 37.059-38.72 1.837-6.96 2.183-14.213 2.53-21.413.505-10.694.984-21.387 1.49-32.08-11.235-2.827-21.271-6.507-29.311-10.987" fill="#E28248"/>
    <path d="M256.98 609.835c.275-5.742.55-11.51.826-17.252-9.537 3.738-19.129 6.256-28.776 7.394 9.261 4.333 18.578 7.61 27.95 9.858M237.494 618.8c-7.812-6.69-16.098-11.51-24.594-14.327-.92 6.202-2.236 12.052-4.182 17.17 9.6-.162 19.228-1.083 28.776-2.843M225.645 634.521c5.946 7.854 15.166 13.84 25.286 18.01 1.554-3.087 2.918-6.283 3.818-9.641l1.364-7.015c-10.174.271-20.348-.135-30.468-1.354" fill="#2A3B55"/>
    <path d="M644.623 199.878c-2.939-9.632-12.425-12.771-22.419-13.254-31.718-1.476-58.973 10.115-80.831 33.27-18.625 19.773-49.328 50.681-34.498 118.99 4.49 20.714 35.994 81.484 10.342 135.573-19.106 40.3-51.68 44.458-71.693 41.99-1.363 16.527-4.944 30.505-11.678 40.432 17.289 2.844 35.246 2.844 51.813-1.1 19.56-4.641 36.1-17.922 48.953-33.403 24.904-29.996 37.971-69.624 35.807-108.608-1.497-27.126-9.994-53.312-14.51-80.088-4.49-26.803-6.894-57.524 9.433-79.203 29.927-39.816 56.274-26.669 70.864-33.51 7.643-3.596 10.876-13.013 8.417-21.089" fill="#E28248"/>
    <path d="M505.173 329.59l11.55-7.822 3.392-4.73c-5.546-.27-11.092-.565-16.665-.86.377 4.273.942 8.761 1.723 13.411zm-1.427 196.022l-.108 1.263c.943 6.612 2.181 13.198 3.554 19.729 6.327-3.817 12.196-8.44 17.58-13.6-6.273-3.71-14.645-7.768-19.195-7.983l-1.83.591zm96.597-315.416c.35 5.295 1.103 10.537 2.019 15.751 5.061-1.505 9.853-2.177 14.295-2.58-5.707-4.032-11.2-8.386-16.314-13.17zm-80.605 35.4c4.2.779 8.373 1.531 12.572 2.284a70.35 70.35 0 00-3.042-15.079c-3.23 3.844-6.488 8.09-9.53 12.794zm10.419 251.068c3.203 6.075 6.946 11.827 10.984 17.39a160.21 160.21 0 009.396-14.594c-6.865-.43-13.677-1.344-20.38-2.796zm19.195-63.137l-.242.538c-.08.591 14.376 4.489 20.81 6.746.728-5.967 1.131-11.96 1.158-17.954-3.096 1.37-18.98 6.746-21.726 10.67zm-82.678 82.275c3.285 2.419 13.22 14.406 16.1 16.664l.807.376 1.05-1.21c2.423-7.794 4.82-16.153 4.2-24.109-7.376 4.489-14.942 6.988-22.157 8.279zm-24.364 42.386c6.434.646 12.896.834 19.303.619-.646-8.413-5.33-24.164-6.946-24.836-1.642-.672-10.284 20.024-12.357 24.217zm110.784-252.44c-.323-7.042-.161-14.057.754-20.83-5.6 1.72-27.541 13.654-29.13 16.637 2.8.834 22.642 3.925 28.376 4.193zm24.984-65.582c-4.819-3.36-10.203-5.887-15.91-7.338 2.718 5.402 5.007 10.993 7.107 16.638 2.988-3.575 5.922-6.666 8.803-9.3zm-19.895 103.293c-1.481 1.478-20.461 11.369-21.861 14.487 8.561 2.526 17.338 4.274 26.195 5.43-1.48-6.64-2.988-13.279-4.334-19.917zm-35.268 47.843a189.606 189.606 0 012.746 14.702c7.807-4.515 15.615-9.03 23.449-13.573-8.723-.753-17.473-1.049-26.195-1.13zm16.907 71.496c-4.712-5.188-9.396-10.375-14.107-15.536a102.536 102.536 0 01-5.546 20.24c8.022.806 17.31 1.263 23.745.51l-4.092-5.214z" fill="#2A3B55"/>
    <path d="M405.499 328.058c-3.925-11.886-19.568-14.938-26.798-6.21-3.951 4.791-5.913 11.404-5.188 17.535 3.602 31.082 8.171 41.47-2.741 82.03-12.794 47.654-48.73 61.816-40.72 67.492 8.036 5.675 15.857-.214 21.905-8.139-4.086 6.292-11.289 15.796-6.101 20.588 5.214 4.792 16.933-5.73 21.583-10.495-1.99 5.114-13.17 15.126-7.284 18.633 5.886 3.48 39.592-22.086 54.321-84.813 12.176-51.858-6.128-88.027-8.977-96.62" fill="#EAA65B"/>
    <path d="M414.886 360.846c-4.913 2.551-9.64 5.397-14.024 8.807 5.176.403 10.353.805 15.53 1.181-.397-3.517-.925-6.82-1.506-9.988zM403 402.382l12.624 8.377c.608-4 1.03-7.867 1.294-11.652-4.542 1.02-13.892 3.168-13.918 3.275zm-9.878 73.568a155.385 155.385 0 006.682-12.727c-6.787-.59-13.549-1.745-20.125-3.598 5.335 4.538 8.584 11.465 13.443 16.325zm14.949-33.992c1.32-4 2.535-8.216 3.67-12.619-9.19-.188-18.355-.671-27.493-1.691 7.21 5.262 21.816 12.914 23.823 14.31z" fill="#2A3B55"/>
  </g>
</svg>
