<?xml version="1.0" encoding="UTF-8"?>
<svg width="720px" height="720px" viewBox="0 0 720 720" version="1.1" xmlns="http://www.w3.org/2000/svg" xmlns:xlink="http://www.w3.org/1999/xlink">
    <!-- Generator: Sketch 64 (93537) - https://sketch.com -->
    <title>img_t</title>
    <desc>Created with Sketch.</desc>
    <g id="img_t" stroke="none" stroke-width="1" fill="none" fill-rule="evenodd">
        <g id="tiger" transform="translate(74.000000, 10.000000)">
            <path d="M126.952141,329.947072 C114.884777,330.703984 101.029656,328.321112 82.5096053,317.219734 C56.7547228,301.801152 52.0339255,290.475504 44.715293,278.925585 C42.4526623,275.393328 30.943973,252.966301 25.80417,255.937882 C20.664367,258.937497 25.2454957,274.88872 29.0724143,284.756612 C21.6420469,278.308841 9.96575527,263.843409 4.37901288,266.618754 C-1.20772952,269.422132 9.0998102,288.120666 11.6138443,291.849159 C2.53538788,286.438639 -5.816792,291.456686 5.38462651,307.660213 C27.9550658,340.319572 64.9393005,379.090295 114.940645,380.856423 C118.29269,364.176322 122.287211,347.131781 126.952141,329.947072" id="Fill-1752" fill="#E28248"></path>
            <path d="M34.0654912,312.288161 C30.7365239,314.460453 20.2418136,317.817632 15.3047859,320.892695 L19.395466,325.998992 C23.5425693,323.064987 31.4700252,315.052897 34.0654912,312.288161" id="Fill-1753" fill="#2A3B55"></path>
            <path d="M114.369773,381.674656 C113.410579,375.609165 112.70529,362.462565 112.112846,362.406142 C111.266499,362.349719 103.959698,374.649971 100.743577,380.207653 C105.172796,380.969366 109.714861,381.477175 114.369773,381.674656" id="Fill-1754" fill="#2A3B55"></path>
            <path d="M56.9732997,333.489169 C53.6725441,335.633249 39.9335013,344.407053 38.240806,345.507305 C41.456927,348.497733 44.7858942,351.403526 48.2559194,354.168262 C48.2277078,353.152645 55.3088161,339.893199 56.9732997,333.489169" id="Fill-1755" fill="#2A3B55"></path>
            <path d="M68.0897544,368.855551 C72.7164546,371.3934 77.540636,373.649265 82.5340869,375.566751 C84.1139357,371.139615 89.1920214,351.316198 86.0887468,345.59194 C84.4524748,346.91726 73.647437,362.087955 68.0897544,368.855551" id="Fill-1756" fill="#2A3B55"></path>
            <path d="M226.004963,274.311641 C188.376776,273.52921 164.967406,268.750792 149.0725,262.82667 C99.0691933,397.796035 84.7107018,548.805236 136.920859,577.811075 C182.901553,603.351861 288.718608,604.581396 341.487461,564.453858 C395.066423,523.711553 334.671368,331.764439 319.027875,259.193955 C294.724592,269.197895 263.661085,275.094072 226.004963,274.311641" id="Fill-1757" fill="#E28248"></path>
            <path d="M319.192265,374.642881 C305.030828,378.084695 289.895618,382.09074 280.352645,393.29074 C302.554663,395.378398 328.707416,393.403587 350.881612,390.187466 C349.323576,382.598549 347.709895,375.037844 346.068393,367.561773 C337.944346,369.564796 327.010269,372.752705 319.192265,374.642881" id="Fill-1758" fill="#2A3B55"></path>
            <path d="M325.96037,336.550355 C328.971372,336.437509 334.655694,336.917106 338.539043,337.142798 C336.76621,329.751363 335.021517,322.58562 333.304964,315.645569 C309.61091,319.482345 283.327957,327.438013 266.246851,343.603252 C286.282679,345.126678 305.868263,337.34028 325.96037,336.550355" id="Fill-1759" fill="#2A3B55"></path>
            <path d="M275.062972,288.427123 C290.551687,288.624604 308.889218,287.016543 324.433249,284.11075 C323.188621,278.835183 321.999309,273.898155 320.948289,269.243244 L320.75468,268.735435 C309.304094,272.854327 297.853509,277.00143 286.402924,281.148533 C282.115869,282.700171 277.496913,284.505712 275.062972,288.427123" id="Fill-1760" fill="#2A3B55"></path>
            <path d="M326.744713,444.624514 C333.025432,444.539879 339.278482,443.919224 345.531531,443.270357 C348.409041,442.988242 355.243127,442.818972 359.697733,442.565068 C358.978356,437.233078 358.203641,431.844665 357.318254,426.399828 C340.689568,429.559526 316.064726,435.878922 301.677177,442.706126 C299.574382,443.693531 318.001511,444.73736 326.744713,444.624514" id="Fill-1761" fill="#2A3B55"></path>
            <path d="M346.24568,559.387011 C350.350887,554.788522 353.640677,548.779454 356.171285,541.613711 C341.409408,540.062074 323.413977,537.099857 313.853904,537.353761 C319.814891,542.460059 333.676996,552.757288 346.24568,559.387011" id="Fill-1762" fill="#2A3B55"></path>
            <path d="M362.896541,481.261461 C337.523483,485.464987 307.321448,488.906801 282.115869,491.135516 C295.067573,496.777834 309.610327,497.031738 323.706471,497.878086 C335.513735,498.583375 350.782232,500.783879 363.091933,502.617632 C363.315238,495.81864 363.259412,488.681108 362.896541,481.261461" id="Fill-1763" fill="#2A3B55"></path>
            <path d="M150.506823,262.720403 L150.479051,262.748393 C123.456621,336.193738 106.959887,414.369367 105.793451,475.107324 L105.876768,478.913942 C108.015233,551.799491 239.905794,554.682444 247.515399,475.69511 C253.958568,408.4915 249.265053,340.364225 236.045447,274.196238 C233.046041,274.196238 230.046635,274.252218 226.963912,274.196238 C220.048614,274.056289 213.744306,273.720403 207.745493,273.328553 C181.361827,271.565193 163.365389,267.534656 150.506823,262.720403" id="Fill-1764" fill="#EBA877"></path>
            <path d="M351.639472,70.7266121 C311.379994,39.0579432 258.696475,32.9528036 208.860714,33.538228 C187.279177,33.8170015 165.530125,35.4896424 144.842003,42.1244516 C64.9931081,67.7994904 61.8661584,202.307701 115.359334,240.722689 C130.04483,251.288204 145.400387,271.52716 226.868594,273.227678 C308.336802,274.928197 360.266503,246.326036 375.147433,209.611567 C392.90404,165.816251 391.898949,102.367404 351.639472,70.7266121" id="Fill-1765" fill="#E28248"></path>
            <path d="M144.902726,41.7277425 L147.776072,40.889836 L148.110831,40.7501849 C130.480198,18.629454 103.560007,7.09427482 74.3522971,0 C66.6528434,43.8504389 82.4423027,77.2829072 90.3928255,95.2141058 C100.77035,70.4679346 118.652052,50.1905979 144.902726,41.7277425" id="Fill-1766" fill="#E28248"></path>
            <path d="M352.130868,71.722928 C362.831999,80.0102949 370.717043,90.5150174 376.292896,102.267003 C395.442288,79.0679187 401.862967,38.3240081 399.919867,13.184738 L398.990558,10.7456468 L396.287115,10.5793451 C366.943486,17.2314121 339.514798,31.6165071 317.380353,51.683576 C329.658493,56.811211 341.345254,63.3524103 352.130868,71.722928" id="Fill-1767" fill="#E28248"></path>
            <path d="M85.4939651,109.319899 C83.1182626,117.242757 81.4412962,125.443609 80.4071669,133.75566 C93.8508477,133.255269 110.20127,131.476101 114.812928,129.27994 C106.23245,121.829674 96.1986007,114.574005 85.4939651,109.319899 Z M79.3450882,157.969025 C79.652532,166.920464 80.6866613,175.732905 82.4754255,184.156154 C94.2980388,180.097427 110.508714,173.369948 120.570513,166.336674 C108.160961,161.443962 91.9502858,158.914208 79.3450882,157.969025 Z M102.822618,229.219144 C108.943546,221.463083 119.452535,207.535533 124.343687,199.112285 C114.505484,201.781037 102.123882,206.284556 90.9161565,209.95409 C94.186241,217.098561 98.183011,223.575845 102.822618,229.219144 Z M364.541178,227.856968 C369.152836,222.21367 372.842162,216.264576 375.357612,210.065288 L376.000449,208.341719 C365.687105,204.92238 352.858312,200.696856 347.631767,199.028886 C351.181346,206.979543 358.587947,218.988928 364.541178,227.856968 Z M345.647357,169.172223 C354.423481,173.620143 368.705645,179.958429 382.93191,185.101337 C384.692725,176.844885 385.754804,168.310439 386.146096,159.720393 C372.786263,161.888754 359.258734,165.47489 345.647357,169.172223 Z M381.282893,116.575569 C367.308173,121.968672 353.053958,129.085344 343.048059,134.951038 C355.765054,135.701625 371.165196,138.17578 385.531208,138.092382 C384.748624,130.753314 383.351152,123.525444 381.282893,116.575569 L381.282893,116.575569 Z" id="Fill-1768" fill="#2A3B55"></path>
            <path d="M225.691818,153.820919 C239.079575,154.154811 251.00787,155.796446 261.813502,158.32846 C269.110812,125.161863 293.4726,67.5655081 315.617128,50.2309529 C282.021437,36.2909655 243.991226,33.1189923 207.47661,33.5363572 C186.90381,33.7867761 166.106477,35.0945195 146.347607,41.1323982 C163.355952,65.1447917 185.893413,128.417309 191.534795,158.690176 C202.087828,155.406906 213.510924,153.514852 225.691818,153.820919" id="Fill-1769" fill="#C06646"></path>
            <path d="M186.88463,88.1612091 C187.163486,66.8690957 183.984531,50.4413686 181.279632,36.1817679 L181.084433,35.2644836 C171.129287,36.1539714 161.285684,37.6827785 151.63728,40.2678523 C157.409591,47.6895158 179.494956,79.7666683 186.88463,88.1612091" id="Fill-1770" fill="#2A3B55"></path>
            <path d="M231.415972,100.503778 C236.410005,78.7879523 242.52292,56.7954916 245.088161,34.63705 C234.49972,33.8071458 223.883988,33.4751842 213.350126,33.5028476 C216.543032,49.7689695 226.503809,92.8686599 231.415972,100.503778" id="Fill-1771" fill="#2A3B55"></path>
            <path d="M279.207018,38.790932 C271.361555,53.9128546 264.444051,69.1467915 260.957179,88.1612091 C278.644619,76.6237422 292.845187,60.9697519 308.564232,46.9119645 C299.031573,43.4955301 289.217715,40.7791848 279.207018,38.790932" id="Fill-1772" fill="#2A3B55"></path>
            <path d="M351.706449,71.0707148 C355.609278,74.0961315 359.027815,77.5173972 362.218449,81.1083123 C369.425864,72.4844609 379.453572,56.707054 379.08323,37.0277078 C362.474839,40.7034478 344.755424,51.1368943 335.012594,59.7890206 C340.767131,63.1537364 346.350741,66.8577513 351.706449,71.0707148" id="Fill-1773" fill="#C06646"></path>
            <path d="M126.952141,50.6825816 C119.870376,42.7534996 103.300153,31.6472593 88.3620561,24.6851385 C86.8405832,25.845492 94.2266425,58.0038594 101.612702,74.0554156 C108.445498,64.6620781 116.91042,56.6777411 126.952141,50.6825816" id="Fill-1774" fill="#C06646"></path>
            <path d="M337.696334,251.310916 C349.595133,223.205178 322.110582,157.550401 226.976051,155.19658 C154.326341,153.403193 106.703212,225.502955 135.444678,256.775142 L136.366416,257.307553 C151.700784,265.854163 176.783229,273.924405 226.864326,274.989229 C274.375728,275.998009 311.748013,266.582727 337.696334,251.310916" id="Fill-1775" fill="#EFC29E"></path>
            <path d="M258.417809,166.712703 C249.802872,161.942597 194.373649,157.652323 190.689448,172.301349 C189.69222,176.224691 191.742077,180.260935 193.598028,183.845572 C196.257301,189.039061 204.484427,199.79297 216.451156,202.72842 C221.243387,203.885665 226.06332,204.958233 230.966354,204.365498 C241.520344,203.123577 253.320869,192.454344 258.223903,187.486659 C261.520294,184.127826 264.816685,179.809328 264.456575,175.067446 C264.207268,171.398134 261.603396,168.462683 258.417809,166.712703" id="Fill-1776" fill="#17111C"></path>
            <path d="M255.4269,233.493937 C253.287044,237.679886 248.979541,242.150593 243.338101,242.150593 L242.44881,242.122117 C234.083916,241.410221 231.554995,231.529104 230.776865,225.748508 L230.999188,204.70486 L224.134973,204.534005 L223.912651,226.118694 C222.356391,233.550889 218.965969,238.192451 213.685804,239.84405 C208.377848,241.467173 202.208392,239.217581 199.457148,234.661447 L193.95466,234.860778 L194.065821,238.021596 C197.372872,243.460482 203.486748,246.820631 209.989688,246.820631 L215.436596,246.051784 C220.438858,244.542564 224.329506,241.239366 227.052959,236.199142 C229.887574,243.175724 234.528562,247.390148 240.670228,248.386803 L243.338101,248.61461 C250.313477,248.61461 257.233273,243.916096 260.957179,236.654756 L260.901598,233.493937 L255.4269,233.493937" id="Fill-1777" fill="#17111C"></path>
            <path d="M327.784953,148.936936 C323.948177,146.087565 318.700822,147.667414 315.766817,152.011999 C313.397044,155.510235 312.494273,160.898649 314.130545,165.045752 C315.766817,169.221067 325.189487,173.932402 330.803593,163.889077 C333.427271,159.234165 331.621729,151.786306 327.784953,148.936936" id="Fill-1778" fill="#17111C"></path>
            <path d="M154.809132,152.380907 L151.649434,146.005089 C149.223238,143.635315 145.894271,143.268565 143.073112,144.566298 C140.223742,145.835819 137.853968,148.600555 136.10485,151.873099 L134.242885,157.40257 C133.763288,161.041864 134.948175,164.850429 136.922986,167.417683 C138.897797,169.984937 146.345656,172.806096 152.213666,164.427255 C154.41417,161.267557 155.542633,156.584434 154.809132,152.380907" id="Fill-1779" fill="#17111C"></path>
            <path d="M287.009999,588.633098 C287.009999,598.870451 287.038017,609.13585 287.038017,619.373203 C287.038017,626.749706 287.038017,634.182304 285.861259,641.446617 C284.768554,648.037789 282.274947,655.105769 276.44719,658.359284 C273.197095,660.154327 269.274566,660.57504 266.192579,662.62251 C263.082574,664.641933 261.289418,669.634395 264.175279,671.934294 C269.078439,675.860949 273.953582,675.860949 279.557195,674.178097 C274.289799,678.665703 266.977085,683.826451 270.115108,689.856672 C273.281149,695.858846 286.56171,690.277385 291.885142,686.79949 C288.410902,690.642003 287.009999,697.261223 289.783787,699.084313 C298.217224,704.693821 322.873119,683.37769 329.037092,666.549166 C334.27647,652.301015 339.964137,593.120705 342.065491,564.231738 C327.075828,575.534897 307.911473,583.556493 287.009999,588.633098" id="Fill-1780" fill="#E28248"></path>
            <path d="M338.8199,598.279318 C339.379284,592.665212 339.85476,587.220376 340.302267,582.057656 C326.037981,586.853625 311.913542,591.988134 297.984887,597.715086 C311.494004,599.633474 325.254844,599.802744 338.8199,598.279318" id="Fill-1781" fill="#2A3B55"></path>
            <path d="M285.893985,613.647247 L285.893985,618.386793 C285.893985,622.674955 285.866022,626.963116 285.642317,631.251277 C296.296231,630.292083 306.894218,628.176214 317.380353,624.819035 C308.320332,614.747499 297.023269,613.224073 285.893985,613.647247" id="Fill-1782" fill="#2A3B55"></path>
            <path d="M330.617021,659.572796 C331.494471,655.707809 332.400225,650.798992 333.24937,645.213098 C323.257767,645.325945 313.266163,645.438791 303.274559,645.551637 C311.596178,652.012091 320.908466,656.779849 330.617021,659.572796" id="Fill-1783" fill="#2A3B55"></path>
            <path d="M136.973481,578.275569 C130.206899,574.525536 124.605056,567.858811 120.029294,558.942065 C120.583931,574.525536 121.027642,593.553481 120.140221,601.136881 C118.282184,616.692573 114.066936,630.414916 105.497781,637.94276 C98.1210968,644.387261 73.7447614,656.720703 78.0986689,662.498531 C82.4803082,668.304138 90.5502896,667.915245 95.6806901,666.220786 C90.3284344,670.998606 84.3106133,674.637527 87.9989553,679.526459 C92.5192541,685.498733 100.422844,681.859812 112.403023,676.720878 C108.243238,681.026472 107.82726,684.2765 109.713029,686.10985 C112.458486,688.832096 120.140221,687.470973 124.715984,685.776513 C142.852643,679.08201 158.32704,664.137434 163.318781,645.442826 C165.232282,638.192762 165.592796,630.63714 165.953311,623.137074 C166.480217,611.998087 166.979391,600.859101 167.506297,589.720114 C155.803438,586.775643 145.348513,582.942276 136.973481,578.275569" id="Fill-1784" fill="#E28248"></path>
            <path d="M166.644952,610.244836 C166.932067,604.26398 167.219182,598.254912 167.506297,592.274055 C157.572117,596.167254 147.580513,598.790932 137.531486,599.975819 C147.178552,604.489673 156.88304,607.903275 166.644952,610.244836" id="Fill-1785" fill="#2A3B55"></path>
            <path d="M146.347607,619.582872 C138.210021,612.61461 129.579248,607.592947 120.729281,604.658942 C119.770307,611.119395 118.400343,617.213098 116.372796,622.545088 C126.373533,622.375819 136.401669,621.416625 146.347607,619.582872" id="Fill-1786" fill="#2A3B55"></path>
            <path d="M134.005038,635.959698 C140.199211,644.141058 149.803021,650.375819 160.344482,654.720403 C161.964059,651.504282 163.384741,648.175315 164.322391,644.677078 L165.743073,637.370277 C155.144786,637.652393 144.546498,637.229219 134.005038,635.959698" id="Fill-1787" fill="#2A3B55"></path>
            <path d="M570.441111,183.206327 C567.379302,173.172987 557.498011,169.903068 547.087863,169.400004 C514.048166,167.862863 485.656852,179.936409 462.888131,204.055552 C443.4874,224.653245 411.505419,256.849368 426.953634,328.005034 C431.629851,349.580908 464.44687,412.88318 437.725633,469.226395 C417.823878,511.204325 383.893474,515.536269 363.045342,512.965051 C361.625776,530.181033 357.895937,544.741953 350.881612,555.082721 C368.890613,558.045212 387.595479,558.045212 404.852944,553.936852 C425.227888,549.101844 442.457519,535.267573 455.845972,519.141564 C481.787839,487.895674 495.39897,446.616444 493.144365,406.007967 C491.585626,377.752515 482.734217,350.475245 478.030166,322.583118 C473.353949,294.663043 470.848833,262.662557 487.855787,240.080554 C519.030564,198.605688 546.475501,212.300219 561.673205,205.173473 C569.633907,201.428438 573.001896,191.618682 570.441111,183.206327" id="Fill-1788" fill="#E28248"></path>
            <path d="M425.180165,318.322311 C429.190438,315.606493 433.200712,312.890676 437.210985,310.174858 L440.744512,305.247189 C434.967475,304.967207 429.190438,304.659228 423.385358,304.351249 C423.777972,308.80295 424.366893,313.478636 425.180165,318.322311 Z M423.69384,522.512603 L423.581665,523.828515 C424.5632,530.716052 425.853218,537.575592 427.283455,544.379135 C433.873764,540.403402 439.987328,535.587725 445.596101,530.212086 C439.06188,526.348346 430.340237,522.120629 425.600823,521.896644 L423.69384,522.512603 Z M524.31524,193.95466 C524.67981,199.47029 525.465038,204.929923 526.41853,210.361559 C531.690777,208.793664 536.682585,208.093711 541.309824,207.673739 C535.364524,203.474021 529.643574,198.938325 524.31524,193.95466 Z M440.351898,230.828185 C444.726741,231.64013 449.073541,232.424077 453.448385,233.208025 C452.971639,227.888382 451.905972,222.596737 450.279427,217.501079 C446.914163,221.50481 443.520855,225.928513 440.351898,230.828185 Z M451.204875,492.358627 C454.542095,498.686203 458.440193,504.6778 462.646773,510.473411 C466.180301,505.57374 469.461433,500.50608 472.434083,495.270432 C465.282897,494.822462 458.187798,493.870526 451.204875,492.358627 Z M471.200153,426.591043 L470.947758,427.151005 C470.863627,427.766964 485.923184,431.826691 492.625668,434.178533 C493.382853,427.96295 493.803511,421.71937 493.831555,415.475789 C490.60651,416.903693 474.060628,422.503317 471.200153,426.591043 Z M385.077434,512.293289 C388.498786,514.81312 398.846973,527.300282 401.847667,529.652124 L402.688983,530.044098 L403.782694,528.784182 C406.306642,520.664727 408.802546,511.957312 408.157537,503.669868 C400.473517,508.345554 392.59319,510.949379 385.077434,512.293289 Z M359.697733,556.446325 C366.400218,557.11828 373.130746,557.314267 379.805187,557.090282 C379.132134,548.32687 374.252501,531.919972 372.569869,531.220019 C370.859193,530.520066 361.857111,552.078618 359.697733,556.446325 Z M475.098251,293.487978 C474.761724,286.152471 474.929988,278.844961 475.883479,271.789435 C470.050354,273.581314 447.194602,286.01248 445.540014,289.120271 C448.456576,289.988213 469.124907,293.207997 475.098251,293.487978 Z M501.12296,225.172564 C496.103108,221.672799 490.494334,219.040976 484.549034,217.529077 C487.381465,223.1567 489.765194,228.980309 491.952616,234.859914 C495.065485,231.136164 498.122267,227.91638 501.12296,225.172564 Z M480.398542,332.769341 C478.856129,334.309238 459.085202,344.612546 457.626921,347.860328 C466.544871,350.492151 475.687172,352.312029 484.913605,353.515948 C483.371192,346.600412 481.800735,339.684877 480.398542,332.769341 Z M443.661074,382.605995 C444.782829,387.561663 445.764365,392.685319 446.521549,397.920967 C454.654271,393.217283 462.786993,388.513599 470.947758,383.781916 C461.861545,382.997969 452.747288,382.68999 443.661074,382.605995 Z M461.272624,457.080996 C456.364947,451.677358 451.485314,446.273721 446.577637,440.898082 C445.399794,447.92561 443.520855,454.981137 440.8006,461.980667 C449.157673,462.82061 458.832807,463.296578 465.535292,462.512631 L461.272624,457.080996 L461.272624,457.080996 Z" id="Fill-1789" fill="#2A3B55"></path>
            <path d="M321.352722,316.727501 C317.264974,304.345434 300.96998,301.166254 293.438445,310.257592 C289.322699,315.249461 287.278825,322.137683 288.034779,328.52393 C291.786547,360.901362 296.546253,371.721727 285.178955,413.971349 C271.851778,463.611168 234.418089,478.363676 242.761574,484.275834 C251.133057,490.187992 259.280554,484.052734 265.580165,475.798022 C261.324428,482.351594 253.820891,492.25167 259.224557,497.24354 C264.656222,502.235409 276.863468,491.275606 281.707169,486.311624 C279.635297,491.638144 267.988016,502.068084 274.119638,505.721351 C280.251259,509.346731 315.361092,482.714132 330.704144,417.373628 C343.387361,363.355466 324.320538,325.679401 321.352722,316.727501" id="Fill-1790" fill="#EAA65B"></path>
            <path d="M331.131,350.881612 C326.013899,353.538582 321.089376,356.5032 316.5225,360.055149 C321.914715,360.47467 327.30693,360.894192 332.699144,361.285745 C332.286475,357.621924 331.736249,354.181848 331.131,350.881612 Z M318.750916,394.148263 L331.901317,402.87431 C332.534076,398.707063 332.974257,394.679657 333.24937,390.736154 C328.517427,391.798942 318.778427,394.03639 318.750916,394.148263 Z M308.46169,470.780856 C310.827661,466.725482 313.166122,462.362458 315.422048,457.523977 C308.351644,456.908679 301.308752,455.706051 294.458438,453.776252 C300.015721,458.502861 303.399611,465.71863 308.46169,470.780856 Z M324.033085,435.373242 C325.40865,431.205995 326.67417,426.815003 327.857156,422.228235 C318.283223,422.032458 308.736803,421.529032 299.217893,420.466245 C306.728478,425.947992 321.942226,433.918901 324.033085,435.373242 L324.033085,435.373242 Z" id="Fill-1791" fill="#2A3B55"></path>
        </g>
    </g>
</svg>