<?xml version="1.0" encoding="UTF-8"?>
<svg width="720px" height="720px" viewBox="0 0 720 720" version="1.1" xmlns="http://www.w3.org/2000/svg" xmlns:xlink="http://www.w3.org/1999/xlink">
    <title>img_y</title>
    <g id="img_y" stroke="none" stroke-width="1" fill="none" fill-rule="evenodd">
        <g id="yak" transform="translate(24.000000, 96.000000)">
            <path d="M236.669447,438.942244 C229.313502,440.606689 226.800028,427.199928 223.779248,420.701752 C223.248882,427.929547 220.643171,441.176705 214.347958,441.404711 C208.075804,441.609916 205.539271,428.04355 204.663014,418.740899 C204.80137,424.349851 203.579222,429.981603 201.526937,434.427723 C201.296343,465.140151 199.543829,499.500679 199.543829,499.500679 C199.543829,499.500679 198.229444,510.900986 198.667572,522.346895 C204.201826,520.773653 210.174208,518.767198 215.431749,516.487137 C218.567826,519.405616 222.603219,521.366469 226.892266,522.027686 C227.929938,521.252466 229.175145,505.383237 229.082908,502.852369 C231.388847,489.263202 235.03223,465.983774 237.430407,438.645836 L236.669447,438.942244" id="Fill-1249" fill="#B5876B"></path>
            <path d="M228.796574,502.356384 C224.31597,502.172563 208.496696,501.322392 199.535489,499.32334 C199.535489,499.32334 198.232456,510.81214 198.6668,522.346895 C204.153254,520.761441 210.074051,518.739412 215.286182,516.441652 C218.395172,519.382785 222.395711,521.358858 226.647713,522.025209 L228.796574,502.356384" id="Fill-1250" fill="#5A4038"></path>
            <path d="M311.600833,449.945333 L310.756705,450.149613 C303.866792,450.603568 298.140408,437.461557 298.094779,428.813704 C295.106109,437.93821 292.687795,449.809146 285.980397,449.241702 C279.250184,448.674257 279.843355,438.097094 279.22737,432.831211 C278.839527,434.692428 278.451684,437.075695 277.721627,439.209285 C279.729284,474.640512 285.957582,510.026343 285.911954,510.026343 L288.695296,526.663812 C291.547081,525.869389 298.687951,522.918679 301.311593,521.692999 L312.924061,525.483527 C314.270104,519.990666 313.494418,513.090542 313.266275,507.892752 C313.220647,507.892752 311.235804,482.335057 311.600833,449.945333" id="Fill-1251" fill="#B5876B"></path>
            <path d="M313.273134,507.070767 C305.572749,508.544274 294.168096,509.649405 286.35546,509.234981 L289.094373,526.111246 C291.900636,525.305422 298.927518,522.31236 301.50928,521.069088 L312.936382,524.914021 C314.260938,519.342321 313.497635,512.343161 313.273134,507.070767" id="Fill-1252" fill="#5A4038"></path>
            <path d="M510.832295,457.593148 C510.201509,462.024081 507.160222,475.452522 500.446863,476.130726 C494.296706,476.74111 491.796092,467.630568 490.219128,460.532032 C487.718515,467.110612 484.857452,470.207744 482.041446,470.750307 C481.433189,483.771826 480.734819,495.301295 480.194146,503.371924 C479.22544,508.164566 479.112799,522.406852 479.202912,522.5651 L494.184065,517.54639 L507.610783,523.785867 C507.971232,523.76326 509.50314,511.578194 509.72842,504.705725 C510.832295,494.057921 511.710889,481.714607 512.27409,469.009583 C511.395496,464.669077 511.125159,460.057289 510.832295,457.593148" id="Fill-1253" fill="#B5876B"></path>
            <path d="M509.396146,504.641782 C497.184998,506.368548 480.205262,503.283392 480.205262,503.283392 C479.224805,508.072291 479.11339,522.738296 479.202522,522.89946 L494.020795,517.788231 L507.301533,524.142732 C507.658062,524.119709 509.195598,511.640942 509.396146,504.641782" id="Fill-1254" fill="#5A4038"></path>
            <path d="M588.539615,463.097011 L584.130193,464.714081 C576.419358,465.534004 571.783812,449.386078 571.286338,438.88651 C570.992377,451.390334 565.361884,471.045708 558.419872,470.089131 L556.882227,469.428638 C557.651049,490.08614 559.414818,507.62338 559.392206,507.62338 C559.392206,507.62338 559.61833,521.653172 562.037859,526.663812 C565.407109,525.638908 571.602912,522.905832 575.447024,520.651044 C579.833833,522.905832 585.012077,524.27237 587.047195,524.841761 C588.426552,518.601236 587.65773,506.37072 587.544668,506.165739 C587.522056,506.165739 587.069807,487.808576 588.539615,463.097011" id="Fill-1255" fill="#B5876B"></path>
            <path d="M588.220851,506.230407 C581.385716,506.805996 568.538405,508.509739 559.760171,507.703914 C559.760171,507.703914 559.988771,521.886424 562.434789,526.951606 C565.840927,525.915546 572.104562,523.152719 575.99076,520.873388 C580.425596,523.152719 585.660533,524.534133 587.717931,525.109722 C589.11239,518.801268 588.335151,506.437619 588.220851,506.230407" id="Fill-1256" fill="#5A4038"></path>
            <path d="M590.248829,151.973339 C542.324024,111.991433 498.297953,115.00205 439.862522,107.270238 C333.661882,93.1978843 330.287538,12.8007262 200.078896,31.6170824 C111.730361,44.3893968 115.104705,148.848683 117.339068,250.160506 C119.755828,358.976064 128.533682,342.577324 134.07399,330.671703 C133.549599,356.968986 135.875161,387.189194 140.594682,390.838427 C145.5878,394.715737 150.99131,390.541927 151.401703,380.688998 C150.147724,410.156553 160.521552,414.558439 164.465887,397.429853 C164.23789,427.216715 167.840231,428.630793 171.966962,429.95364 C176.093694,431.276487 180.174826,424.68506 180.995613,417.660287 C183.161577,427.855331 184.80315,442.954031 192.190227,443.592647 C199.577305,444.231263 205.368409,431.664218 205.094813,419.507711 C205.961199,428.813255 208.469157,442.383839 214.670654,442.17857 C220.894951,441.950492 223.471309,428.699216 223.9957,421.469174 C226.98245,427.96937 229.467609,441.3803 236.740689,439.715337 C244.697757,437.913529 248.664891,415.721632 249.782072,400.189586 C249.873271,427.307946 257.100751,430.729102 264.328231,415.904094 C264.693025,424.434176 264.943821,443.889147 271.464513,444.550571 C277.985205,445.189187 278.828791,437.388952 279.763576,432.781795 C280.379165,438.073183 279.786375,448.701573 286.512264,449.271766 C293.215353,449.841958 295.632113,437.913529 298.618863,428.744832 C298.664462,437.434567 304.387167,450.640228 311.272653,450.184074 C318.180939,449.72792 325.773213,429.748371 326.502801,414.033862 C326.411602,427.353562 330.333137,438.939876 338.996994,439.441645 C347.66085,439.920607 351.673584,432.895834 354.386739,406.758205 C354.705933,432.14318 366.766933,420.534058 366.766933,408.012628 C368.704901,427.079869 372.307242,432.211603 374.8152,432.371257 C380.401107,432.781795 384.915433,421.30952 386.739402,409.928475 C387.674187,417.409403 392.348109,429.930832 397.75162,429.95364 C403.17793,429.976448 407.532658,417.340979 407.532658,405.663435 C407.053866,416.360248 412.616973,434.013411 418.157282,433.716911 C423.720389,433.397603 426.296747,426.07633 428.325913,417.43221 C430.605875,426.07633 431.768656,436.088912 439.178533,436.932798 C446.565611,437.776683 449.187567,420.305981 450.076753,415.767248 C450.008354,439.350414 458.717809,465.92139 467.951656,439.920607 C470.003622,465.92139 482.543414,482.297322 491.024874,460.05981 C492.620847,467.221429 495.151605,476.412934 501.375902,475.797126 C508.17019,475.112895 511.248139,461.565118 511.886528,457.094808 C512.524917,462.63708 513.072108,478.73932 520.664383,479.172666 C528.233857,479.583205 532.200991,454.928076 533.956562,443.227724 C537.627301,465.875774 547.795933,461.337041 545.607169,429.497486 C545.379173,442.908416 552.469855,470.140815 559.469339,471.098739 C566.468823,472.056662 572.145929,452.373613 572.442324,439.852184 C572.943916,450.366535 577.617839,466.537198 585.39251,465.71612 C596.24513,464.575735 598.730289,447.333111 601.534642,435.678374 C602.081833,437.913529 605.820971,445.05234 611.247281,445.189187 C615.875604,445.326033 618.109967,430.158909 617.425979,418.048018 C617.92757,419.986673 622.647092,431.572987 626.021436,407.624897 C632.564928,361.119988 643.827941,196.653632 590.248829,151.973339" id="Fill-1257" fill="#79574F"></path>
            <path d="M319.828201,218.609174 C320.854156,230.089191 321.173342,241.546384 320.740161,253.072047 L323.47604,253.072047 C323.886422,241.546384 323.590035,230.089191 322.541281,218.609174 L319.828201,218.609174 Z M312.555323,412.308777 C312.965705,415.937649 313.376087,419.566521 313.786469,423.218216 L316.499548,423.218216 C316.111966,419.566521 315.701584,415.937649 315.291202,412.308777 L312.555323,412.308777 Z M212.490551,400.668999 C213.448109,408.291912 213.744495,415.914826 213.356913,423.583385 L216.092792,423.583385 C216.457575,415.914826 216.183987,408.291912 215.22643,400.668999 L212.490551,400.668999 Z M313.854865,283.883224 C316.089167,297.257558 316.864332,310.654714 316.362755,324.211632 L319.098633,324.211632 C319.62301,310.426483 318.756649,296.75545 316.499548,283.152885 L313.854865,283.883224 Z M314.310845,149.523668 C315.359599,163.765279 316.408352,178.029713 317.479905,192.271324 L320.192985,192.271324 C319.144231,178.029713 318.095478,163.765279 317.046724,149.523668 L314.310845,149.523668 Z M299.924682,399.87019 C299.947481,387.157727 299.195114,374.513732 297.667582,361.892561 L294.954502,361.892561 C296.459235,374.513732 297.211602,387.157727 297.188803,399.87019 L299.924682,399.87019 Z M284.284574,353.630601 C285.28773,366.069187 286.518875,378.462128 288.023609,390.855068 L290.759487,390.855068 C289.254754,378.462128 288.023609,366.069187 287.020453,353.630601 L284.284574,353.630601 Z M301.110229,278.999082 C302.113385,298.261774 303.937304,317.41035 303.846108,336.718688 L306.581987,336.718688 C306.650384,317.41035 304.849264,298.261774 303.846108,278.999082 L301.110229,278.999082 Z M317.571101,126.08435 L320.215784,125.354011 C315.975172,113.737056 311.164585,102.416801 305.715626,91.3247769 L303.344531,92.6941626 C308.702293,103.580779 313.421685,114.695626 317.571101,126.08435 Z M304.438882,224.543179 C306.399595,233.672417 306.923972,242.824478 306.057611,252.113477 L308.77069,252.113477 C309.68265,242.573424 309.089876,233.170309 307.060766,223.81284 L304.438882,224.543179 Z M339.640524,78.5210209 L341.920424,77.0146967 C339.594926,72.3587854 336.631058,68.2049822 333.051616,64.4391717 L331.227697,66.4932502 C334.647545,70.076476 337.429022,74.0933406 339.640524,78.5210209 Z M310.412218,72.4044316 L312.760514,71.0122229 C310.093032,65.7629111 306.946771,61.1754692 302.797355,56.9760198 L300.859441,58.8931597 C304.849264,62.9556705 307.835932,67.3377047 310.412218,72.4044316 Z M284.717755,70.0080067 L287.020453,68.5245056 C283.942589,62.3850932 280.157957,56.7249658 275.689354,51.475654 L273.842636,53.5069094 C278.151645,58.5508133 281.753886,64.0968252 284.717755,70.0080067 Z M298.100763,69.6884834 L300.471858,68.2962746 C298.305954,63.6403634 295.729668,59.8289066 291.83104,56.4510886 L289.893126,58.3910516 C293.63216,61.6319311 296.048853,65.23798 298.100763,69.6884834 Z M536.828999,139.321744 L539.200094,137.952359 C536.327421,132.520462 531.881618,128.184074 527.116629,124.418264 L525.178714,126.335404 C529.78411,129.964276 534.070321,134.095256 536.828999,139.321744 Z M242.288832,76.9690505 L244.842319,76.0333036 C239.598551,64.1652945 232.462467,52.7081011 225.577172,41.7301927 L223.342871,43.3049862 C230.091372,54.0546637 237.13626,65.3292723 242.288832,76.9690505 Z M223.251675,62.9100243 C219.809027,55.9718036 215.9104,49.3302832 211.487395,42.9626398 L209.253094,44.5146102 C213.516506,50.6768457 217.346736,57.1129584 220.675389,63.8457712 L223.251675,62.9100243 Z M325.96113,77.1972814 L328.263828,75.7366034 C325.345557,69.6656603 321.469729,64.2337638 316.68194,59.5093833 L314.812423,61.4949925 C319.440618,66.0824345 323.134055,71.3317462 325.96113,77.1972814 Z M267.64131,64.9641028 L269.944009,63.5034248 C267.071336,57.4096586 263.218306,51.9777621 258.476116,47.2077354 L256.606599,49.1933446 C261.189196,53.8036097 264.859834,59.0757445 267.64131,64.9641028 Z M256.5838,68.9581444 L258.818101,67.4061739 C253.984715,58.3225824 247.737791,50.3116762 240.145727,43.3734555 L238.367406,45.4503571 C245.799877,52.2288162 251.864409,60.0799606 256.5838,68.9581444 Z M562.363869,186.885073 L564.985753,186.154734 C560.699542,173.921556 554.452619,161.939431 548.456484,150.459415 L546.085389,151.8288 C551.990328,163.103409 558.146055,174.880126 562.363869,186.885073 Z M544.48946,171.388192 C541.593988,164.198917 538.219737,157.260697 534.32111,150.57353 L531.950015,151.965739 C535.734647,158.447498 539.040501,165.157487 541.844777,172.118531 L544.48946,171.388192 Z M538.37933,313.051139 C535.643451,298.033543 534.503502,282.924655 534.571899,267.678827 L531.83602,267.678827 C531.767623,283.152885 532.975969,298.535651 535.734647,313.781478 L538.37933,313.051139 Z M590.087442,398.500805 C588.354719,383.597324 587.853141,368.716666 588.605508,353.744717 L585.869629,353.744717 C585.117262,368.716666 585.61884,383.597324 587.374362,398.500805 L590.087442,398.500805 Z M590.269834,175.199649 L592.61813,173.830263 C589.927849,167.645205 586.234413,162.099193 581.629016,157.169404 L579.713901,159.109367 C584.159704,163.856571 587.670749,169.242821 590.269834,175.199649 Z M545.948595,267.290835 C549.026459,290.182399 550.80478,313.142432 551.397554,336.239403 L554.133433,336.239403 C553.540659,313.142432 551.762338,290.182399 548.684474,267.290835 L545.948595,267.290835 Z M556.048548,251.132084 C555.022594,236.730711 552.035926,222.785801 546.928952,209.251706 L544.284269,209.982045 C549.322846,223.287909 552.309514,236.936119 553.312669,251.132084 L556.048548,251.132084 Z M530.559276,209.730991 C534.366708,223.265086 537.056989,236.958942 538.630119,250.926676 L541.365998,250.926676 C539.770069,236.730711 537.056989,222.762978 533.203959,209.000652 L530.559276,209.730991 Z M274.572204,392.247277 C274.253018,382.364877 273.956631,372.5053 273.660244,362.645723 L270.924365,362.645723 C271.220752,372.5053 271.539938,382.364877 271.836325,392.247277 L274.572204,392.247277 Z M231.459312,220.503491 C232.097683,235.018979 232.758854,249.55729 233.397226,264.095602 L236.133105,264.095602 C235.494733,249.55729 234.833562,235.018979 234.19519,220.503491 L231.459312,220.503491 Z M244.728324,354.497879 C244.682726,366.82235 245.435093,379.101174 247.008223,391.334353 L249.744102,391.334353 C248.170972,379.101174 247.418605,366.82235 247.464203,354.497879 L244.728324,354.497879 Z M247.236213,223.265086 C249.652906,238.510913 250.291278,253.75674 249.196927,269.185152 L251.932806,269.185152 C253.049956,253.528509 252.320388,238.031628 249.858097,222.534747 L247.236213,223.265086 Z M257.860543,324.41704 C258.932096,313.986886 258.726905,303.625201 257.244971,293.240693 L254.600288,293.971032 C256.059423,304.104486 256.173418,314.260763 255.124664,324.41704 L257.860543,324.41704 Z M216.594369,344.387248 C218.099103,361.481746 218.919866,378.599066 219.079459,395.73921 L221.792539,395.73921 C221.655745,378.599066 220.834982,361.481746 219.330248,344.387248 L216.594369,344.387248 Z M270.377189,126.175642 C265.201818,112.185085 260.026447,98.2173514 254.851076,84.2496176 L252.229192,84.9571335 C257.404563,98.9476904 262.579934,112.915424 267.755305,126.905981 L270.377189,126.175642 Z M230.866538,404.046817 C230.912136,408.953782 230.980533,413.837924 231.026131,418.744889 L233.76201,418.744889 C233.716412,413.837924 233.648015,408.953782 233.602417,404.046817 L230.866538,404.046817 Z M230.570151,358.628859 C231.003332,367.073404 231.436513,375.495125 231.846894,383.916847 L234.582773,383.916847 C234.172391,375.495125 233.739211,367.073404 233.30603,358.628859 L230.570151,358.628859 Z M221.99773,294.906779 C223.069283,306.090095 223.707655,317.273412 223.935644,328.502374 L226.671523,328.502374 C226.443533,317.273412 225.805162,306.090095 224.733609,294.906779 L221.99773,294.906779 Z M558.26005,209.776637 C561.793894,220.914307 564.187788,232.234562 565.418934,243.851517 L568.132014,243.851517 C566.900868,231.983508 564.506974,220.412199 560.881934,209.046298 L558.26005,209.776637 Z M271.403144,182.206339 C272.520295,172.985809 271.973119,163.879394 269.807215,154.864272 L267.185331,155.594611 C269.282838,164.404325 269.761617,173.21404 268.667265,182.206339 L271.403144,182.206339 Z M284.740554,128.982883 C279.496786,118.05062 275.78055,106.684719 273.432254,94.8167103 L270.787571,95.5242263 C273.181465,107.643289 277.057294,119.237421 282.369459,130.352268 L284.740554,128.982883 Z M276.099736,333.63757 C275.142179,318.825382 274.6634,304.013194 273.090269,289.246652 L270.377189,289.246652 C271.927521,304.013194 272.429099,318.825382 273.386656,333.63757 L276.099736,333.63757 Z M271.790727,402.768723 C273.728641,409.775413 274.389812,418.585128 273.569048,425.820049 L276.282128,425.820049 C277.14849,418.334074 276.441721,409.318951 274.43541,402.038384 L271.790727,402.768723 Z M300.722647,156.849881 C301.566209,165.819357 302.432571,174.788833 303.276134,183.758309 L306.012013,183.758309 C305.16845,174.788833 304.302088,165.819357 303.435727,156.849881 L300.722647,156.849881 Z M300.357863,128.526421 L302.979747,127.796082 C298.146361,116.179127 293.791753,104.333941 287.476433,93.4245016 L285.128137,94.7938872 C291.329462,105.520742 295.592874,117.114874 300.357863,128.526421 Z M299.149516,412.194661 C299.74229,415.86918 299.97028,419.520875 299.833486,423.218216 L302.569365,423.218216 C302.706159,419.269821 302.432571,415.367071 301.7714,411.464322 L299.149516,412.194661 Z M285.356127,289.246652 C286.313684,296.709804 287.248443,304.150132 288.206,311.613284 L290.941879,311.613284 C289.984322,304.150132 289.049563,296.709804 288.092006,289.246652 L285.356127,289.246652 Z M296.57323,258.983228 C297.804376,246.042534 297.2572,233.261601 295.0001,220.457845 L292.355417,221.188184 C294.589718,233.763709 295.045698,246.293588 293.837351,258.983228 L296.57323,258.983228 Z M282.278263,151.942916 C284.83175,165.499834 284.922946,178.942636 285.812106,192.636493 L288.547985,192.636493 C287.658825,178.714405 287.499232,164.997726 284.922946,151.2354 L282.278263,151.942916 Z M315.883976,402.335085 C316.111966,387.249019 315.245604,372.254246 313.262092,357.305119 L310.526213,357.305119 C312.509725,372.254246 313.398886,387.249019 313.148097,402.335085 L315.883976,402.335085 Z M561.20112,412.103369 C560.152367,394.392648 559.103613,376.681926 558.054859,358.971205 L555.318981,358.971205 C556.367734,376.681926 557.416488,394.392648 558.465241,412.103369 L561.20112,412.103369 Z M562.090281,269.98396 C564.917356,288.881482 566.194099,307.824651 566.148501,326.927581 L568.88438,326.927581 C568.929978,307.573596 567.584838,288.379374 564.734964,269.253621 L562.090281,269.98396 Z M520.596117,216.098634 C524.015966,226.620081 525.817086,237.346935 525.999478,248.393313 L528.735357,248.393313 C528.530166,237.095881 526.729046,226.117973 523.2408,215.368295 L520.596117,216.098634 Z M574.698123,418.927474 C575.632882,426.573211 575.929269,434.196124 575.541686,441.887507 L578.277565,441.887507 C578.665147,434.196124 578.368761,426.573211 577.434002,418.927474 L574.698123,418.927474 Z M510.13138,319.373136 C510.176978,308.235466 509.105426,297.257558 506.985119,286.325296 L504.340436,287.055635 C506.437944,297.736843 507.441099,308.48652 507.395501,319.373136 L510.13138,319.373136 Z M491.573001,354.452232 C493.533715,372.550946 493.8529,390.969184 497.70593,408.79402 L500.350613,408.063681 C496.543181,390.489899 496.223996,372.299892 494.30888,354.452232 L491.573001,354.452232 Z M519.114183,137.244843 L521.485278,135.852634 C519.433369,131.082607 516.69749,126.769043 513.346038,122.797824 L511.408124,124.737787 C514.622781,128.503598 517.176268,132.680224 519.114183,137.244843 Z M527.960191,177.892774 C525.406704,170.018806 522.283242,162.395893 518.453012,155.046857 L516.104716,156.439065 C519.820951,163.559871 522.853217,170.977376 525.315508,178.623113 L527.960191,177.892774 Z M587.465558,320.308883 C586.120418,302.689454 583.703725,285.275433 580.055886,267.998351 L577.411203,268.72869 C581.013444,285.754718 583.407338,302.940508 584.729679,320.308883 L587.465558,320.308883 Z M600.278591,316.200726 C599.640219,302.50687 598.545868,288.858659 597.018335,275.256095 L594.282456,275.256095 C595.809989,288.858659 596.90434,302.50687 597.542712,316.200726 L600.278591,316.200726 Z M606.935896,277.332996 C609.35259,290.547568 610.971318,303.853432 611.814881,317.273412 L614.55076,317.273412 C613.684398,303.602378 612.020071,290.068283 609.55778,276.602657 L606.935896,277.332996 Z M622.00603,270.166545 L619.270151,270.166545 C622.120025,291.894131 621.458854,314.101002 621.800839,335.965526 L624.513919,335.965526 C624.194733,314.101002 624.855903,291.894131 622.00603,270.166545 Z M608.486228,249.990929 C607.597067,237.004589 605.750349,224.200833 602.923274,211.488369 L600.278591,212.218708 C603.060068,224.680118 604.883987,237.255643 605.750349,249.990929 L608.486228,249.990929 Z M621.481653,254.806602 C620.068115,238.12292 617.400633,221.690292 613.524805,205.417426 L610.880122,206.147765 C614.710352,222.169577 617.355035,238.373974 618.768573,254.806602 L621.481653,254.806602 Z M587.305965,414.203094 C587.807543,420.525091 587.579553,426.778619 586.553598,433.05497 L589.198281,433.785309 C590.247035,427.280727 590.543422,420.776145 590.041844,414.203094 L587.305965,414.203094 Z M596.630752,240.656284 C595.695994,231.960685 594.19126,223.402024 592.070954,214.934656 L589.426271,215.664995 C591.500979,223.904132 592.982914,232.211739 593.894874,240.656284 L596.630752,240.656284 Z M599.982204,402.677431 C600.050601,410.368814 599.84541,418.037373 598.95625,425.660287 L601.692129,425.660287 C602.581289,418.037373 602.78648,410.368814 602.718083,402.677431 L599.982204,402.677431 Z M600.688973,350.686422 C601.076556,361.550215 601.486938,372.414008 601.87452,383.277801 L604.610399,383.277801 C604.200018,372.414008 603.812435,361.550215 603.424852,350.686422 L600.688973,350.686422 Z M492.27977,423.994201 C492.940941,433.100616 493.602112,442.229854 494.263282,451.336268 L496.999161,451.336268 C496.33799,442.229854 495.67682,433.100616 495.015649,423.994201 L492.27977,423.994201 Z M479.466737,289.862875 C480.127908,298.96929 480.789079,308.098528 481.450249,317.204942 L484.186128,317.204942 C483.524957,308.098528 482.863787,298.96929 482.202616,289.862875 L479.466737,289.862875 Z M500.510206,133.752909 L502.881301,132.360701 C500.213819,127.111389 497.067558,122.54677 492.918142,118.324498 L490.980228,120.264461 C494.970051,124.304148 497.956719,128.686182 500.510206,133.752909 Z M459.084439,184.625587 L461.820318,184.625587 C460.611971,174.880126 457.944489,165.636772 453.749475,156.758589 L451.37838,158.127974 C455.368203,166.549696 457.944489,175.382234 459.084439,184.625587 Z M498.663488,247.891205 C498.526694,233.375717 497.409543,218.928698 495.312036,204.550148 L492.690152,205.280487 C494.742061,219.430806 495.790815,233.603947 495.927609,247.891205 L498.663488,247.891205 Z M466.676503,135.190764 L469.047598,133.821379 C466.220523,127.522205 462.68668,121.725139 458.468866,116.293242 L456.530952,118.210382 C460.611971,123.459694 463.963423,129.142644 466.676503,135.190764 Z M496.246795,312.777262 C496.679975,304.424009 496.269594,296.162049 495.015649,287.900089 L492.393765,288.630428 C493.579313,296.641334 493.944096,304.675064 493.510916,312.777262 L496.246795,312.777262 Z M492.50776,176.569035 C491.573001,170.33833 490.227861,164.198917 488.44954,158.150797 L485.827656,158.881136 C487.583178,164.929256 488.951117,171.068669 489.863077,177.299374 L492.50776,176.569035 Z M574.173746,207.768205 C576.658836,220.708899 578.733544,233.69524 580.375072,246.772873 L583.110951,246.772873 C581.446624,233.444186 579.349117,220.206791 576.818429,207.037866 L574.173746,207.768205 Z M513.75642,252.067831 C514.326394,236.411188 512.61647,221.119715 508.603848,205.988003 L505.959165,206.718342 C509.926189,221.599 511.590516,236.685065 511.020541,252.067831 L513.75642,252.067831 Z M513.688023,185.447218 C510.017385,173.875909 505.84517,162.510008 501.194176,151.303869 L498.572292,152.034208 C503.223286,163.217524 507.372702,174.606248 511.04334,186.177557 L513.688023,185.447218 Z M468.340829,151.212577 C472.786633,160.318991 475.613708,169.904691 476.799255,179.969676 L479.535134,179.969676 C478.303989,169.402583 475.362919,159.383244 470.689125,149.820368 L468.340829,151.212577 Z M472.079864,320.422999 C471.760678,309.604852 470.255945,298.96929 467.565664,288.470666 L464.94378,289.201005 C467.565664,299.448575 469.024799,309.833083 469.343985,320.422999 L472.079864,320.422999 Z M467.907649,353.151316 C467.725257,372.528123 468.340829,391.813638 471.441492,410.962214 L474.086175,410.231875 C471.008311,391.31153 470.461136,372.277069 470.643527,353.151316 L467.907649,353.151316 Z M476.320476,431.959461 C476.183682,437.437004 476.548466,442.846077 477.392029,448.25515 L480.013913,447.524811 C479.238747,442.366792 478.919561,437.18595 479.056355,431.959461 L476.320476,431.959461 Z M480.857476,132.041177 L483.228571,130.648969 C481.062666,126.01588 478.48638,122.181601 474.587753,118.803783 L472.649839,120.743746 C476.388873,123.984625 478.805566,127.590674 480.857476,132.041177 Z M477.004446,261.995877 C474.496557,243.714578 472.444648,225.410457 470.871517,207.060689 L468.135638,207.060689 C469.731568,225.661511 471.829075,244.216686 474.382562,262.703393 L477.004446,261.995877 Z M577.25161,180.038145 L579.599906,178.645936 C575.496088,169.219998 569.864737,160.729807 562.842648,153.243832 L560.904733,155.160972 C567.790029,162.510008 573.216189,170.817615 577.25161,180.038145 Z M482.134219,215.528057 C483.296968,226.665727 484.049334,237.803397 484.345721,249.009536 L487.0816,249.009536 C486.785213,237.803397 486.032847,226.665727 484.870098,215.528057 L482.134219,215.528057 Z M455.710188,208.955006 C458.537263,225.43328 459.28963,241.911554 459.107238,258.595236 L461.843117,258.595236 C462.00271,241.6605 461.204745,224.931172 458.354871,208.224666 L455.710188,208.955006 Z M451.560772,132.566109 C448.916089,127.248328 446.271406,121.95337 443.626723,116.635589 L441.278427,118.004974 C443.92311,123.322755 446.544994,128.640536 449.189677,133.958317 L451.560772,132.566109 Z M451.355581,354.292471 C451.902757,364.83674 452.95151,375.312541 454.501842,385.765518 L457.123726,385.035179 C455.618992,374.833256 454.615837,364.585686 454.09146,354.292471 L451.355581,354.292471 Z M380.587513,277.926397 C382.297437,291.734369 383.072603,305.565164 383.004206,319.464429 L385.740085,319.464429 C385.808481,305.565164 385.033316,291.734369 383.323391,277.926397 L380.587513,277.926397 Z M331.638079,280.391291 C333.461998,297.462966 333.826782,314.53464 332.823626,331.651961 L335.536706,331.651961 C336.539862,314.53464 336.197877,297.462966 334.373958,280.391291 L331.638079,280.391291 Z M327.921843,358.85709 C328.332225,370.793568 328.719808,382.730046 329.13019,394.666525 L331.843269,394.666525 C331.455687,382.730046 331.068104,370.793568 330.657722,358.85709 L327.921843,358.85709 Z M342.832383,124.509556 C338.751364,114.444572 334.693143,104.356764 330.612124,94.2917792 L327.967441,94.9992951 C332.04846,105.087103 336.12948,115.174911 340.210499,125.239895 L342.832383,124.509556 Z M332.299249,181.544469 C332.162455,171.958769 330.93131,162.555655 328.491818,153.289478 L325.869934,154.019817 C328.241029,163.057763 329.449375,172.209824 329.56337,181.544469 L332.299249,181.544469 Z M332.595636,222.648862 C333.963576,230.568476 334.465153,238.510913 334.168767,246.544642 L336.904646,246.544642 C337.223831,238.259859 336.653857,230.089191 335.240319,221.918523 L332.595636,222.648862 Z M338.61457,150.57353 C339.822916,166.960512 341.054062,183.370317 342.262408,199.780122 L344.998287,199.780122 C343.767142,183.370317 342.558795,166.960512 341.32765,150.57353 L338.61457,150.57353 Z M373.132242,219.522098 C373.588222,228.833921 374.044202,238.168566 374.500182,247.503212 L377.236061,247.503212 C376.780081,238.168566 376.324101,228.833921 375.868121,219.522098 L373.132242,219.522098 Z M340.940067,358.240866 C341.213655,366.45718 341.487243,374.673494 341.738032,382.889808 L344.473911,382.889808 C344.200323,374.673494 343.949534,366.45718 343.675946,358.240866 L340.940067,358.240866 Z M365.426183,324.029048 C367.250103,355.114102 366.429339,386.039395 363.533867,416.987511 C364.810611,414.454148 365.676972,411.190445 365.676972,407.83545 C365.927761,410.231875 366.201349,412.400069 366.474937,414.385678 C369.188017,384.30484 369.940384,354.246825 368.162062,324.029048 L365.426183,324.029048 Z M351.245211,246.544642 C350.242055,238.78479 349.216101,231.047761 348.212945,223.287909 L345.477066,223.287909 C346.480222,231.047761 347.506176,238.78479 348.532131,246.544642 L351.245211,246.544642 Z M367.113309,302.575339 C367.181706,291.780015 366.566133,281.053161 365.243791,270.326306 L362.507913,270.326306 C363.830254,281.053161 364.445827,291.780015 364.400229,302.575339 L367.113309,302.575339 Z M364.14944,257.180204 C365.289389,241.523561 364.559822,226.02668 362.097531,210.529799 L359.452848,211.260138 C361.89234,226.505965 362.530712,241.751792 361.43636,257.180204 L364.14944,257.180204 Z M374.54578,200.57893 C374.112599,183.895248 372.607866,167.302858 369.940384,150.824584 L367.3185,151.554923 C369.940384,167.804966 371.37672,184.123479 371.809901,200.57893 L374.54578,200.57893 Z M380.450719,126.495165 L383.095402,125.764826 C381.408276,119.100483 378.945985,112.732839 375.731327,106.661896 L373.383031,108.031282 C376.483694,113.91964 378.83199,120.059053 380.450719,126.495165 Z M394.449299,357.966989 C395.634847,365.977895 396.068028,373.943155 395.885636,382.045354 L398.621515,382.045354 C398.803906,373.692101 398.302329,365.49861 397.093982,357.23665 L394.449299,357.966989 Z M357.58333,103.80901 C361.253968,111.751446 364.172239,119.922114 366.383741,128.389482 L369.074022,127.887374 C366.816922,119.214598 363.830254,110.792876 360.068421,102.622209 L357.58333,103.80901 Z M355.713813,121.679492 C352.111573,113.417532 348.486533,105.155572 344.884292,96.8707888 L342.513197,98.2629976 C346.138237,106.524958 349.740478,114.786918 353.365517,123.071701 L355.713813,121.679492 Z M360.797988,201.651615 C359.430049,183.438786 357.058954,165.385718 353.479512,147.469589 L350.834829,148.199928 C354.368673,165.865003 356.716969,183.68984 358.062109,201.651615 L360.797988,201.651615 Z M347.802563,272.220623 C355.417426,318.574328 354.414271,369.264421 352.111573,416.188703 C352.544753,413.312993 352.932336,410.140583 353.29712,406.58018 C353.365517,411.738199 353.935492,415.321425 354.779055,417.71785 C357.15015,370.108875 358.176104,318.619974 350.424447,271.490284 L347.802563,272.220623 Z M426.846666,287.900089 C428.944173,298.581297 429.947328,309.308152 429.90173,320.217591 L432.637609,320.217591 C432.683207,309.079921 431.611655,298.079189 429.491348,287.16975 L426.846666,287.900089 Z M520.504921,275.666911 C522.351639,332.930054 523.445991,391.128945 532.109608,447.912804 L532.861974,443.074308 C533.568743,447.570458 534.571899,450.925453 535.66625,453.276231 C526.159071,394.84911 525.133116,334.733079 523.2408,275.666911 L520.504921,275.666911 Z M516.401103,427.554604 C516.355505,434.01354 516.857083,440.381183 517.905836,446.726003 L520.550519,445.995664 C519.547363,439.879075 519.091384,433.762486 519.136982,427.554604 L516.401103,427.554604 Z M507.87428,352.626385 C508.147868,369.606767 509.789395,386.404565 512.798862,403.11107 L515.443545,402.380731 C512.456877,385.902457 510.860948,369.355713 510.610159,352.626385 L507.87428,352.626385 Z M505.206798,425.477702 C506.415145,433.511431 506.757129,441.545161 506.346748,449.624536 L509.059828,449.624536 C509.515807,441.294107 509.082627,433.032147 507.851481,424.747363 L505.206798,425.477702 Z M535.803044,344.455717 C536.395818,378.348012 540.18045,412.194661 544.398264,445.858726 C544.71745,442.8689 544.877043,439.354144 544.785847,435.177517 C545.264625,440.289891 546.381776,446.246718 547.886509,451.815553 C543.372309,416.211526 539.154496,380.356445 538.538923,344.455717 L535.803044,344.455717 Z M558.100457,429.15222 C558.989618,433.397316 559.194809,437.596765 558.807226,441.91033 L561.543105,441.91033 C561.953487,437.368534 561.679899,432.895208 560.74514,428.444705 L558.100457,429.15222 Z M616.511473,351.234176 C618.472186,363.261947 619.019362,375.289718 618.244196,387.454427 L620.980075,387.454427 C621.77804,375.038664 621.139668,362.782662 619.156156,350.503837 L616.511473,351.234176 Z M611.678087,401.718861 C611.928876,406.032426 611.541293,410.231875 610.492539,414.431325 L613.137222,415.161664 C614.231574,410.733983 614.664754,406.260657 614.413966,401.718861 L611.678087,401.718861 Z M572.441023,360.249298 L569.705144,360.249298 C571.59746,375.74618 572.395425,391.265884 572.099038,406.87688 L574.834917,406.87688 C575.131304,391.265884 574.333339,375.74618 572.441023,360.249298 Z M480.720682,370.177344 C481.359053,380.721614 482.476204,391.197414 484.094932,401.627569 L486.716816,400.89723 C485.143686,390.695306 484.072133,380.47056 483.456561,370.177344 L480.720682,370.177344 Z M428.533791,249.876814 C427.120253,238.351151 425.706716,226.848312 424.315978,215.345472 L421.580099,215.345472 C422.993636,226.848312 424.407173,238.351151 425.820711,249.876814 L428.533791,249.876814 Z M431.018881,188.48269 C430.243715,176.569035 427.963816,165.020549 424.156385,153.723117 L421.511702,154.453456 C425.250736,165.522657 427.507836,176.820089 428.305801,188.48269 L431.018881,188.48269 Z M380.177131,162.829532 C382.776216,174.218256 383.870567,185.675449 383.482984,197.360874 L386.218863,197.360874 C386.606446,185.424395 385.466497,173.716148 382.821814,162.099193 L380.177131,162.829532 Z M422.469259,356.985596 C424.04239,366.708234 425.61552,376.453695 427.211449,386.199157 L429.833333,385.468818 C428.260203,375.723356 426.687073,365.977895 425.091143,356.255257 L422.469259,356.985596 Z M453.795073,283.061593 C455.89258,297.280381 456.622148,311.499169 456.074972,325.854895 L458.810851,325.854895 C459.358027,311.248115 458.560062,296.801096 456.416957,282.331254 L453.795073,283.061593 Z M437.311402,352.466623 C438.314558,364.90521 439.545704,377.29815 441.050437,389.69109 L443.763517,389.69109 C442.281583,377.29815 441.027638,364.90521 440.047281,352.466623 L437.311402,352.466623 Z M425.706716,118.438613 C427.963816,122.866293 429.46855,127.499382 430.334911,132.383524 L432.956795,131.653185 C432.067634,126.540812 430.426107,121.679492 428.077811,117.069227 L425.706716,118.438613 Z M439.203719,218.35812 C441.825603,229.929429 443.307537,241.569207 443.69512,253.414393 L446.430999,253.414393 C446.043416,241.318153 444.515884,229.427321 441.825603,217.650604 L439.203719,218.35812 Z M436.809825,157.28352 C441.985196,167.599558 445.085858,178.440528 446.134612,189.920545 L448.870491,189.920545 C447.776139,177.961243 444.561482,166.640988 439.18092,155.891311 L436.809825,157.28352 Z M441.734407,286.621996 C442.235985,297.166265 442.737562,307.733358 443.23914,318.300451 L445.975019,318.300451 C445.473441,307.733358 444.971863,297.166265 444.470286,286.621996 L441.734407,286.621996 Z M287.066051,410.482929 C288.00081,415.732241 288.251598,420.95873 287.886815,426.276511 L290.622694,426.276511 C291.010276,420.707676 290.668292,415.230133 289.710734,409.75259 L287.066051,410.482929 Z M126.62955,296.572865 C126.834741,303.670847 127.039932,310.791653 127.245123,317.889635 L129.981002,317.889635 C129.775811,310.791653 129.57062,303.670847 129.365429,296.572865 L126.62955,296.572865 Z M142.90803,299.56269 L140.286146,300.293029 C142.338055,307.801827 142.976427,315.379095 142.338055,323.138947 L145.051135,323.138947 C145.712306,315.150864 145.028336,307.299719 142.90803,299.56269 Z M187.069676,241.409446 C188.186826,249.146475 189.326776,256.883504 190.443926,264.620533 L193.088609,263.890194 C191.94866,256.153165 190.831509,248.416136 189.714359,240.70193 L187.069676,241.409446 Z M154.261928,295.933818 C155.675465,305.108702 156.291038,314.283586 156.199842,323.549763 L158.935721,323.549763 C159.026917,314.055355 158.365746,304.606594 156.906611,295.203479 L154.261928,295.933818 Z M159.368902,353.516486 C160.463253,362.600077 161.192821,371.683669 161.512007,380.812906 L164.247886,380.812906 C163.905901,371.683669 163.199132,362.600077 162.104781,353.516486 L159.368902,353.516486 Z M175.282597,245.79148 C177.26611,254.920718 177.790486,264.049955 176.901326,273.361778 L179.637205,273.361778 C180.526365,263.821725 179.956391,254.41861 177.92728,245.061141 L175.282597,245.79148 Z M188.004434,402.4492 L185.291355,402.4492 C184.835375,407.926743 185.314153,413.312993 186.75049,418.607951 L189.395173,417.900435 C188.004434,412.810885 187.594053,407.675689 188.004434,402.4492 Z M185.678937,351.439584 C187.366063,364.950856 188.528811,378.462128 189.144384,392.041869 L191.880263,392.041869 C191.26469,378.462128 190.101942,364.950856 188.414816,351.439584 L185.678937,351.439584 Z M186.545299,324.394217 C188.346419,314.352056 186.704892,304.309894 186.590897,294.222086 L183.855018,294.222086 C183.969013,304.036017 185.656138,313.895594 183.900616,323.663878 L186.545299,324.394217 Z M200.338689,260.649314 L203.074568,260.649314 C203.348155,250.538684 202.732583,240.542168 201.273447,230.52283 L198.628764,231.253169 C200.065101,241.021453 200.612277,250.789738 200.338689,260.649314 Z M147.467828,344.18184 L144.731949,344.18184 C144.503959,351.325468 144.686351,358.469097 145.347522,365.612726 L148.083401,365.612726 C147.42223,358.469097 147.217039,351.325468 147.467828,344.18184 Z M239.575752,139.298921 C237.865828,135.282057 236.155904,131.288015 234.445979,127.271151 L232.074884,128.663359 C233.784809,132.657401 235.517532,136.674265 237.227456,140.668307 L239.575752,139.298921 Z M218.486686,270.075252 C218.053505,253.323101 217.643123,236.593773 217.209942,219.864445 L214.474063,219.864445 C214.907244,236.593773 215.317626,253.323101 215.750807,270.075252 L218.486686,270.075252 Z M381.180286,344.387248 C381.978251,357.442058 381.271482,370.451222 381.225884,383.528855 L383.961763,383.528855 C384.007361,370.451222 384.71413,357.442058 383.916165,344.387248 L381.180286,344.387248 Z M255.89983,134.894064 C251.978404,124.09874 248.056977,113.303417 244.112752,102.508093 L241.490868,103.238432 C245.412294,114.033756 249.333721,124.829079 253.255147,135.624403 L255.89983,134.894064 Z M172.090739,351.622169 C172.797507,362.69137 173.755065,373.714924 174.986211,384.738479 L177.69929,384.738479 C176.490944,373.714924 175.533386,362.69137 174.826618,351.622169 L172.090739,351.622169 Z M162.515162,253.619801 C163.267529,260.124383 164.019896,266.628965 164.772262,273.15637 L167.485342,273.15637 C166.732976,266.628965 165.980609,260.124383 165.228242,253.619801 L162.515162,253.619801 Z M197.443217,404.434809 C197.580011,409.273305 197.716805,414.111801 197.853599,418.950297 L200.589478,418.950297 C200.452684,414.111801 200.31589,409.273305 200.179096,404.434809 L197.443217,404.434809 Z M238.071019,165.362895 C238.481401,174.971418 238.868984,184.602764 239.256567,194.23411 L241.992445,194.23411 C241.604863,184.602764 241.21728,174.971418 240.806898,165.362895 L238.071019,165.362895 Z M199.198739,288.584782 L196.576855,289.315121 C198.788357,302.712277 199.586322,316.109434 199.061945,329.666352 L201.797824,329.666352 C202.322201,315.85838 201.478638,302.210169 199.198739,288.584782 Z M225.463177,170.33833 C224.414423,177.892774 224.02684,185.424395 224.346026,193.047309 L227.081905,193.047309 C226.762719,185.675449 227.081905,178.372059 228.085061,171.068669 L225.463177,170.33833 Z M414.375617,182.73127 C414.899994,173.031455 413.87404,163.559871 411.343352,154.202402 L408.721468,154.932741 C411.183759,164.061979 412.141316,173.282509 411.639738,182.73127 L414.375617,182.73127 Z M408.630272,347.491189 C408.561875,359.838483 409.33704,372.094484 410.910171,384.327663 L413.64605,384.327663 C412.072919,372.094484 411.297754,359.838483 411.366151,347.491189 L408.630272,347.491189 Z M417.202692,125.650711 C414.7632,120.835038 412.323708,115.996542 409.861417,111.158046 L407.513121,112.527432 C409.952613,117.365928 412.392105,122.204424 414.854396,127.04292 L417.202692,125.650711 Z M397.093982,278.017689 C399.191489,292.213654 399.921057,306.455265 399.373881,320.810991 L402.10976,320.810991 C402.656936,306.204211 401.858971,291.734369 399.715866,277.28735 L397.093982,278.017689 Z M386.538049,216.395334 C387.085225,227.578651 387.176421,238.761967 386.834436,249.968106 L389.570315,249.968106 C389.9123,238.761967 389.798305,227.578651 389.273928,216.395334 L386.538049,216.395334 Z M409.428236,211.009084 C410.066608,225.547395 410.727779,240.085706 411.366151,254.624017 L414.102029,254.624017 C413.463658,240.085706 412.802487,225.547395 412.164115,211.009084 L409.428236,211.009084 Z M175.077406,332.74747 C175.123004,319.190552 174.826618,305.61081 174.142648,292.053892 L171.406769,292.053892 C172.090739,305.61081 172.387126,319.190552 172.341528,332.74747 L175.077406,332.74747 Z M398.71271,215.482411 C400.878615,226.483142 401.950167,237.52952 401.950167,248.735659 L404.686046,248.735659 C404.686046,237.278466 403.568896,225.981034 401.334594,214.752072 L398.71271,215.482411 Z M397.549962,123.938979 C395.840038,120.241638 394.130113,116.544296 392.420189,112.824132 L390.049094,114.216341 C391.759018,117.913682 393.491742,121.633846 395.201666,125.331188 L397.549962,123.938979 Z M399.62467,197.99992 C399.100293,183.68984 397.572761,169.539521 394.88248,155.480495 L392.260596,156.210834 C394.88248,170.018806 396.364414,183.940894 396.91159,197.99992 L399.62467,197.99992 Z M414.330019,274.868102 C415.561165,291.323553 415.561165,307.733358 414.330019,324.188809 L417.065898,324.188809 C418.297044,307.733358 418.297044,291.323553 417.065898,274.868102 L414.330019,274.868102 Z M201.592633,354.931517 C202.550191,367.187519 203.006171,379.466344 203.02897,391.767992 L205.74205,391.767992 C205.74205,379.466344 205.263271,367.187519 204.328512,354.931517 L201.592633,354.931517 Z M170.175623,394.917579 C170.107226,401.422161 170.563206,407.90392 171.566362,414.340032 L174.211045,413.609693 C173.253487,407.401811 172.843105,401.19393 172.911502,394.917579 L170.175623,394.917579 Z M257.03978,197.132643 C257.70095,182.229162 256.720594,167.439797 254.121509,152.741724 L251.499625,153.472063 C254.053112,167.941905 254.965071,182.457393 254.3267,197.132643 L257.03978,197.132643 Z M238.002622,291.780015 C240.328119,304.05884 240.98929,316.314842 240.031732,328.753428 L242.767611,328.753428 C243.725169,316.063788 242.995601,303.556732 240.624506,291.049676 L238.002622,291.780015 Z M215.044038,314.762871 C214.747651,306.56938 214.428465,298.353066 214.109279,290.136752 L211.3734,290.136752 C211.692586,298.353066 212.011772,306.56938 212.330958,314.762871 L215.044038,314.762871 Z M264.335457,215.413941 C265.110622,231.709631 265.885788,247.982497 266.660954,264.278186 L269.374034,264.278186 C268.621667,247.982497 267.846501,231.709631 267.071336,215.413941 L264.335457,215.413941 Z M255.968227,363.764055 C258.020136,371.752138 259.023292,379.80869 258.977694,388.047827 L261.713573,388.047827 C261.759171,379.557636 260.733216,371.25003 258.61291,363.033716 L255.968227,363.764055 Z M277.285284,214.341256 C280.112359,230.81953 280.864725,247.297804 280.682333,263.981486 L283.418212,263.981486 C283.600604,247.04675 282.779841,230.317422 279.929967,213.610917 L277.285284,214.341256 L277.285284,214.341256 Z" id="Fill-1258" fill="#543630"></path>
            <path d="M668.949457,300.296031 C667.274054,284.811932 665.392095,269.25942 661.192113,254.345429 C651.897071,221.484477 631.700436,193.526443 608.634962,170.288893 C605.903826,167.552381 603.103838,164.861477 600.051392,162.603854 C641.959409,218.72516 631.769289,363.828724 625.641446,407.042814 C622.244739,430.987296 617.49394,419.402728 616.989024,417.464365 C617.49394,426.244008 616.438207,436.619951 614.051332,441.614086 L616.300502,443.712078 C621.280809,443.848904 622.933261,429.664649 623.323423,426.745702 C624.470959,430.006713 625.388988,445.239964 631.241422,444.624249 C637.093856,444.031338 638.631554,428.06835 637.943033,421.728763 C639.205322,425.286229 639.77909,437.965403 646.044637,436.642755 C652.287233,435.320107 653.756079,413.268379 652.838051,408.661917 C654.192143,415.57161 658.070815,417.076692 660.388838,416.141717 C667.549463,413.268379 661.651128,369.849051 659.860971,341.936626 C660.549493,349.644469 662.729811,360.430888 668.444541,360.088824 C675.054349,359.701151 670.762564,317.148385 668.949457,300.296031" id="Fill-1259" fill="#866058"></path>
            <path d="M644.830767,393.403478 C645.222167,399.757979 645.084026,406.089456 644.393319,412.420934 L647.156146,412.420934 C647.846852,406.089456 647.984994,399.757979 647.57057,393.403478 L644.830767,393.403478" id="Fill-1260" fill="#6D4845"></path>
            <path d="M632.821587,394.278373 C632.913681,402.267514 632.222974,410.166637 630.70342,418.020751 L633.351128,418.740899 C634.939754,410.639235 635.676507,402.515065 635.584413,394.278373 L632.821587,394.278373" id="Fill-1261" fill="#6D4845"></path>
            <path d="M638.800034,220.894259 C641.701002,229.58103 643.750099,238.427822 644.970347,247.503212 L647.641079,246.771694 C646.420831,237.719164 644.348711,228.849513 641.447743,220.162741 L638.800034,220.894259" id="Fill-1262" fill="#6D4845"></path>
            <path d="M627.483957,215.146684 C630.477019,226.72967 632.364951,238.451374 633.170775,250.381156 L635.933602,250.381156 C635.127777,238.197057 633.193799,226.221036 630.131666,214.406852 L627.483957,215.146684" id="Fill-1263" fill="#6D4845"></path>
            <path d="M633.070041,274.843683 C635.00402,292.636571 637.07614,310.13329 635.855891,328.085653 L638.618718,328.085653 C639.838966,310.13329 637.743823,292.636571 635.832868,274.843683 L633.070041,274.843683" id="Fill-1264" fill="#6D4845"></path>
            <path d="M643.24358,262.625893 C646.535949,278.54486 648.469927,294.578351 649.06854,310.817987 L651.831366,310.817987 C651.232754,294.326396 649.252728,278.063855 645.891289,261.892934 L643.24358,262.625893" id="Fill-1265" fill="#6D4845"></path>
            <path d="M656.447589,280.599572 C657.253413,288.76875 658.082261,296.915424 658.888086,305.062099 L661.650912,305.062099 C660.845088,296.915424 660.01624,288.76875 659.210415,280.599572 L656.447589,280.599572" id="Fill-1266" fill="#6D4845"></path>
            <path d="M636.555238,353.987152 C636.232908,362.14872 635.933602,370.28811 635.611272,378.449679 L638.374099,378.449679 C638.673405,370.28811 638.995734,362.14872 639.318064,353.987152 L636.555238,353.987152" id="Fill-1267" fill="#6D4845"></path>
            <path d="M647.380893,338.158458 C648.370906,352.083472 648.301835,365.963638 647.127634,379.888651 L649.89046,379.888651 C651.041638,365.963638 651.133732,352.083472 650.143719,338.158458 L647.380893,338.158458" id="Fill-1268" fill="#6D4845"></path>
            <path d="M214.792061,90.7623392 C195.900421,52.0009113 94.9546453,52.1837482 75.7203517,81.1634007 C56.4860581,110.165908 95.8455449,215.182866 107.381552,242.379858 C116.861638,264.800236 152.7489,260.572132 167.985568,241.671365 C184.707067,220.89652 198.413215,201.081568 206.819652,178.7069 C214.335189,158.594838 224.386364,110.440163 214.792061,90.7623392" id="Fill-1269" fill="#B5876B"></path>
            <path d="M75.5797846,81.8928057 L80.5824411,76.4386387 C47.7695624,68.9164334 20.277691,33.0325597 11.5230421,3.98912039 C9.77211237,-1.80593205 1.26759633,-1.10143548 0.630894592,4.89814822 C-2.4616567,33.8052333 5.99738065,68.9846105 22.0058814,88.0060179 C34.2623898,102.573189 52.0218204,112.140707 70.8045216,115.117773 C69.6675542,100.936939 70.8045216,89.0741256 75.5797846,81.8928057" id="Fill-1270" fill="#A18677"></path>
            <path d="M297.554739,11.7799672 C297.192236,6.21209032 289.398429,5.47887197 287.948419,10.8863573 C272.088928,70.2999569 237.696489,80.5650139 208.650964,81.527363 C211.279108,84.2540187 213.499437,87.2327183 215.062729,90.5092878 C218.687756,98.0247759 219.48073,109.664617 218.665099,122.312634 C235.929288,121.052415 258.540391,114.270145 273.470969,95.3210332 C291.664071,72.2475682 299.593816,43.4916609 297.554739,11.7799672" id="Fill-1272" fill="#A18677"></path>
            <path d="M280.135654,33.6361324 C285.809761,34.2508986 291.666903,35.6398149 296.952059,37.8939576 L297.386769,33.5678251 C292.444805,31.5869117 287.11389,30.3346102 281.828734,29.6970749 L280.135654,33.6361324 Z M275.010654,43.6317755 L272.951503,47.160989 C276.657976,48.2083684 280.364449,49.2329788 283.910765,50.8268171 C287.296926,52.352348 290.385653,54.4243378 293.268466,56.7467879 L294.298042,52.4434245 L290.591569,49.8022067 C285.741122,46.6828375 280.387328,45.1345374 275.010654,43.6317755 Z M297.867238,22.3198804 L297.75284,18.016517 C293.909091,17.1057522 290.065341,17.2423669 286.198712,17.3334434 L284.963221,21.3635774 L290.95764,21.1358862 C293.337104,21.0448098 295.64793,21.5229613 297.867238,22.3198804 Z M256.958758,65.4445913 L253.664116,67.9947326 C262.404071,74.8937756 269.725499,83.1361966 275.582641,92.4715352 L278.16802,88.9195527 C272.379516,80.0168273 265.264003,72.1614813 256.958758,65.4445913 Z M230.235546,78.9239096 C235.635099,91.5152323 238.266237,104.584706 240.210992,117.995717 L244.1005,116.538494 C242.109987,103.241328 239.478849,90.2173925 234.193693,77.7171463 L230.235546,78.9239096 Z M265.378401,57.1794012 C273.523489,61.6421485 281.188109,66.4692016 287.091011,73.1177843 L288.921368,69.1104194 C283.087105,63.0082956 275.834315,58.3633954 268.078177,54.0600319 L265.378401,57.1794012 Z M243.25396,74.1423947 C250.895701,84.5934202 256.363892,95.5909045 260.802508,107.544692 L264.14291,104.766859 C259.704294,93.1773779 254.304741,82.4986612 246.937554,72.298096 L243.25396,74.1423947 L243.25396,74.1423947 Z" id="Fill-1273" fill="#79574F"></path>
            <path d="M240.227421,88.1385844 C234.496924,80.2935222 226.083099,74.5009472 216.73693,71.9011301 C225.309936,70.738054 238.408216,67.978599 239.613439,61.6614995 C240.818663,55.3215946 200.636962,49.0957167 188.107184,52.4253071 C192.268617,50.5552632 192.132176,44.9451315 187.311282,35.2300254 C182.513127,25.5149193 148.812346,49.8711008 148.812346,49.8711008 C143.51391,40.4068542 119.386697,25.5833355 112.610157,29.3918396 C105.833616,33.2003436 110.29067,37.2597072 115.270745,41.2962654 C111.746034,43.75925 86.5727782,35.5721066 79.3869166,39.8823297 C72.1783148,44.1697474 87.16402,46.8151754 91.0753118,50.2815982 C80.7740607,52.3568908 62.7639265,51.8551717 60.1942987,56.5530869 C57.6019309,61.2510021 67.8122217,61.9579699 71.6325532,64.6718141 C64.7877926,67.6593232 48.0511021,79.9058302 48.9607049,86.8386759 C49.8930477,93.7715215 64.8332727,93.8627432 66.925359,90.9208448 C66.0612364,97.7624689 54.6229819,112.745625 59.3529162,114.638475 C64.0828504,116.531324 72.1783148,110.829971 74.5205419,113.110512 C71.7917337,116.531324 68.4716837,121.776569 76.6581083,125.083354 C84.8217929,128.367334 90.0292686,120.613493 94.5318022,116.280465 C97.3288306,124.262359 99.1935162,130.146156 105.356075,132.084616 C111.518633,134.023076 124.025671,125.060549 126.117757,120.932769 C129.756168,128.321723 137.851633,134.045882 144.946534,133.817827 C152.041435,133.612579 155.998207,127.63756 158.840716,121.685347 C163.957231,126.816565 170.711032,130.898734 177.965114,130.693486 C185.196455,130.511042 192.518757,124.809689 192.609718,117.534762 C196.111688,122.004623 200.13668,133.635384 207.504463,133.612579 C214.894985,133.612579 214.758544,122.962451 216.759671,119.222363 C222.058106,122.36951 224.855135,130.305794 233.860202,126.063987 C242.865269,121.82218 231.404275,109.712505 227.288322,102.642827 C230.744813,99.974594 235.975028,103.783098 240.000021,102.095497 C244.957355,100.020205 243.411031,92.471613 240.227421,88.1385844" id="Fill-1274" fill="#543630"></path>
            <path d="M133.837148,215.910523 C115.859154,215.17767 103.767356,220.536656 103.607653,238.857977 C103.425135,257.179298 118.345958,268.492714 134.704108,267.59955 C152.225807,266.63768 161.876431,254.797526 162.538058,242.957373 C163.587535,224.017707 151.99766,216.643375 133.837148,215.910523" id="Fill-1275" fill="#A8988E"></path>
            <path d="M134.050134,204.398745 C110.836001,203.665892 95.2010673,209.024879 94.9741452,227.3462 C94.7472231,245.667521 114.035603,256.980937 135.184745,256.087772 C157.854265,255.125903 170.312289,243.285749 171.151901,231.445595 C172.513434,212.50593 157.559266,205.131598 134.050134,204.398745" id="Fill-1276" fill="#D0C0B7"></path>
            <path d="M147.257349,232.940081 L146.528371,229.509571 C137.826197,237.752004 125.934743,237.176415 116.663054,229.601665 L114.407779,232.111233 L113.678801,232.456586 C124.317323,241.435772 137.96288,242.126479 148.214133,233.492646 L147.257349,232.940081" id="Fill-1277" fill="#897876"></path>
            <path d="M157.871841,218.285898 C152.645495,218.677298 144.564227,228.85371 148.155901,232.491431 C151.747576,236.152176 162.729811,229.797675 163.443542,224.939705 C163.904013,221.67036 163.075165,217.894498 157.871841,218.285898" id="Fill-1278" fill="#755F5C"></path>
            <path d="M103.103128,215.6831 C98.2451579,217.824291 106.188284,237.946877 114.361646,232.605413 C123.294785,226.75743 107.961098,213.564933 103.103128,215.6831" id="Fill-1279" fill="#755F5C"></path>
            <path d="M195.173604,144.574563 C192.318683,142.249184 188.427703,143.515479 186.263489,147.061107 C184.513698,149.916028 183.846015,154.313527 185.066264,157.721013 C186.263489,161.128499 193.239626,164.973432 197.406889,156.777047 C199.340868,152.97816 198.028525,146.876918 195.173604,144.574563" id="Fill-1280" fill="#17111C"></path>
            <path d="M103.984277,147.366783 L101.635875,142.16346 C99.8400375,140.252505 97.3765171,139.953198 95.2813737,140.989258 C93.1862302,142.025318 91.4134165,144.281627 90.1240974,146.975383 L88.7426841,151.487999 C88.3973308,154.458038 89.2722259,157.566218 90.7457334,159.661361 C92.1962173,161.733481 97.7218704,164.05886 102.050299,157.220864 C103.707995,154.619203 104.536843,150.820316 103.984277,147.366783" id="Fill-1281" fill="#17111C"></path>
            <path d="M111.103224,134.27337 C112.783943,139.545764 113.704885,145.854218 113.451626,151.379872 L116.214453,151.379872 C116.467712,145.67003 115.500723,138.970176 113.750932,133.536617 L111.103224,134.27337" id="Fill-1282" fill="#815948"></path>
            <path d="M123.465809,147.270167 C124.24861,154.614681 124.363728,161.936171 123.811163,169.303709 L126.573989,169.303709 C127.126555,161.936171 127.011437,154.614681 126.205612,147.270167 L123.465809,147.270167" id="Fill-1283" fill="#815948"></path>
            <path d="M135.074132,135.297919 C135.741816,140.224959 135.649721,145.382236 135.396462,150.355323 L138.159289,150.355323 C138.435571,145.128976 138.435571,139.764488 137.721841,134.561165 L135.074132,135.297919" id="Fill-1284" fill="#815948"></path>
            <path d="M144.895318,139.729953 C145.079507,147.143537 144.457871,154.442004 142.984363,161.717448 L145.655096,162.454201 C147.17465,154.948522 147.842333,147.396797 147.658145,139.729953 L144.895318,139.729953" id="Fill-1285" fill="#815948"></path>
            <path d="M157.177668,128.321782 C157.407904,133.939529 157.177668,139.511229 156.556032,145.082929 L159.295835,145.082929 C159.940495,139.511229 160.147707,133.939529 159.940495,128.321782 L157.177668,128.321782" id="Fill-1286" fill="#815948"></path>
            <path d="M166.01134,154.718287 C165.320634,161.809542 163.939221,168.647537 162.212454,175.508557 L164.860163,176.24531 C166.679024,169.131032 168.060437,162.039777 168.751143,154.718287 L166.01134,154.718287" id="Fill-1287" fill="#815948"></path>
            <path d="M154.377022,153.970021 C154.745399,161.665848 152.09769,170.137911 150.762324,177.745025 L153.410032,178.432548 C154.791446,170.581474 157.531249,161.954164 157.139848,153.970021 L154.377022,153.970021" id="Fill-1288" fill="#815948"></path>
            <path d="M142.032308,175.669722 C141.548814,181.103281 141.433696,186.651957 140.121353,191.970398 L142.769062,192.707152 C144.150475,187.135452 144.288617,181.35654 144.795135,175.669722 L142.032308,175.669722" id="Fill-1289" fill="#815948"></path>
            <path d="M134.365465,163.605379 C134.296394,168.716608 133.974064,173.78179 133.398475,178.869996 L136.138278,178.869996 C136.736891,173.78179 137.059221,168.716608 137.128291,163.605379 L134.365465,163.605379" id="Fill-1290" fill="#815948"></path>
            <path d="M114.438578,159.322998 C115.843015,166.391229 115.635803,173.827837 115.935109,181.011186 L118.674912,181.011186 C118.375606,173.551555 118.536771,165.930758 117.10931,158.586244 L114.438578,159.322998" id="Fill-1291" fill="#815948"></path>
            <path d="M124.999483,178.674296 C125.552048,184.269019 125.644142,189.840719 125.275765,195.458467 L128.038592,195.458467 C128.406969,189.840719 128.314875,184.269019 127.762309,178.674296 L124.999483,178.674296" id="Fill-1292" fill="#815948"></path>
            <path d="M132.696257,191.46388 C132.535092,194.295777 132.350904,197.104651 132.189739,199.936548 L134.952565,199.936548 C135.11373,197.104651 135.297919,194.295777 135.459084,191.46388 L132.696257,191.46388" id="Fill-1293" fill="#815948"></path>
            <path d="M117.811529,192.89134 C117.972694,195.723238 118.133859,198.555135 118.295024,201.387032 L121.05785,201.387032 C120.896685,198.555135 120.73552,195.723238 120.574355,192.89134 L117.811529,192.89134" id="Fill-1294" fill="#815948"></path>
            <path d="M122.001816,126.710133 C122.255075,129.54203 122.508334,132.350904 122.73857,135.182801 L125.501396,135.182801 C125.248137,132.350904 125.017901,129.54203 124.764642,126.710133 L122.001816,126.710133" id="Fill-1295" fill="#815948"></path>
            <path d="M159.01218,185.132403 C158.068214,189.898278 156.894013,194.664154 154.890964,199.1077 L157.26239,200.512137 C159.380557,195.838355 160.669876,190.888291 161.682912,185.869156 L159.01218,185.132403" id="Fill-1296" fill="#815948"></path>
            <path d="M150.102064,188.919777 C149.042981,193.225182 147.845756,197.507563 146.533413,201.743897 L149.181122,202.480651 C150.516488,198.244317 151.713713,193.961936 152.772797,189.633507 L150.102064,188.919777" id="Fill-1297" fill="#815948"></path>
            <path d="M169.292197,131.245773 C169.154056,135.643272 168.785679,140.063794 167.542407,144.300128 L170.190116,145.036882 C171.502458,140.593336 171.916882,135.873507 172.055024,131.245773 L169.292197,131.245773" id="Fill-1298" fill="#815948"></path>
        </g>
    </g>
</svg>