<svg viewBox="0 0 720 720" xmlns="http://www.w3.org/2000/svg">
  <g fill="none" fill-rule="evenodd">
    <path d="M194.378 595l-.266.231c-3.037 2.059-7.038 2.313-11.112.44 6.508 15.819 18.248 42.461 20.972 45.329 4.387-1.573 8.822-3.955 12.028-7.308-5.279-13.53-13.04-26.458-21.622-38.692" fill="#434544"/>
    <path d="M203.556 502.329l-.384-.76c.192 1.68-1.584 3.934-4.728 3.428.84.506 2.568 1.334 5.112-2.668" fill="#AED7C8"/>
    <path d="M195.79 545.217c.924-.139 7.596 1.29-2.07-21.363 1.68-.116 7.45 2.488 4.748-18.898-4.919-.83-13.1-8.365-22.207-35.144.536 3.042-12.93 7.813-11.712-35.812l-2.995.369c-24.13 10.278-17.288 17.537-14.829 16.638-19.577 10.233-12.832 16.34-11.663 16.478-18.993 18.09-11.907 23.967-10.787 23.806-9.399 19.772-.511 21.363.463 20.625-6.867 21.225.754 22.377 2.556 21.156-.755 28.368 7.451 25.142 8.4 23.829 4.018 28.3 10.982 20.418 10.91 19.058 11.273 27.032 17.093 16.132 15.607 14.887 14.586 12.744 18.822 4.817 18.944 3.641 4.992 3.411 10.154 3.55 13.88 1.037 3.725-2.512 4.65-8.526 3.554-12.72 1.267 1.267 9.229.898.049-18.829.998-.368 10.13 1.637-2.849-18.758" fill="#A3CEC6"/>
    <path d="M383.446 645.455c-3.12.21-5.736-1.448-7.512-3.455-1.104 12.814-7.848 44.652-8.256 47.36-.432 2.824 10.8 3.128 11.928 2.1 1.032-.933 7.656-34.848 10.728-47.92-1.608 1.05-3.816 1.704-6.888 1.915" fill="#434544"/>
    <path d="M404.782 552c1.02 5.593-6.243 8.344-30.076 1.077 2.526 5.914-11.224 6.396-22.545 2.934-.705 4.906.85 9.009 5.854 5.295-3.668 7.244-8.454 26.75-.413 21.525-1.36 4.424-6.778 24.137.73 21.73-3.11 11.645-.487 23.84 5.709 19.163-3.45 11.026 1.579 19.782 8.138 13.524-.194 2.453 4.009 9.146 10.252 8.734 6.268-.413 9.014-2.568 10.423-6.396 7.944 6.717 12.56-6.876 11.15-12.722 2.333 1.399 8.966 1.674 8.577-20.08 1.239-.068 7.774 1.536 5.418-18.567 7.24 5.64 5.15-13.524 3.45-18.819 6.146 5.524 7.968-4.195 8.551-13.272-4.883 1.032-12.682.23-25.218-4.126" fill="#A3CEC6"/>
    <path d="M529.97 399.726c10.564-20.45-13.191-44.581-20.858-41.402-.706-17.75-14.14-20.083-20.201-21.02-1.582-6.382-14.895-6.634-25.093-3.935-8.422-9.012-29.962-4.117-34.732-1.28-5.014-3.294-20.834-5.65-38.31 0-9.905-4.781-23.073-2.54-30.594 5.192-10.417-8.738-40.84 3.637-49.432 7.754-4.478-4.758-12.51-6.176-18.546-3.271-4.381-5.147-6.718-6.405-13.727-6.84 4.478-4.002 3.042-11.207-6.572-16.263 2.556-.571 15.358-.731-7.277-40.92 6.036.8 10.855-2.036 1.801-38.588 6.036 8.943 14.117-8.326-1.241-31.154 4.113 2.516 10.538 4.712-.755-33.74 12.072 7.435 6.742-17.84-4.916-36.871.535 11.917-5.647 15.6-8.373 15.53-4.064-.136-10.15-6.038-4.43-18.618-11.439 13.015-25.58 14.09-30.423 10.27-3.602-2.836-4.016-8.67-1.387-11.917-3.505 2.035-16.186 7.16-21.443 2.79-4.916-4.094-1.363-9.63 2.093-12.443-6.96 3.66-12.242 6.748-19.933 8.715a45.831 45.831 0 01-7.716 1.212c-16.429 26.305-13.873 39.869-5.67 38.222-5.16 5.879-20.81 28.752-9.152 24.132-10.782 11.345-4.284 16.903-2.288 16.08-2.629 4.117-8.202 15.142-6.036 18.139 1.704 2.402 4.26 1.304 5.135.87-13.24 35.522-4.697 36.963-1.85 34.973-9.638 21.982-3.967 23.217-.608 21.959-10.514 27.951-3.188 28.866.511 26.67-9.005 20.38-3.261 23.377 1.022 21.685-8.615 11.825-5.257 17.406-.705 14.273-8.251 30.97.316 30.559 4.064 27.288-5.257 31.36-.073 32.755 5.623 29.439-5.452 31.405 5.062 31.016 5.768 28.98-1.217 43.3 12.242 38.566 11.707 35.546 14.968 43.78 27.527 35.775 27.016 31.497 13.532 28.478 26.31 23.309 29.694 17.476 10.952 16.858 41.06 25.961 40.718 9.927 28.72 24.223 34.44 14.914 32.347 11.345 19.276 13.816 34.196 14.365 35.802 7.205 7.302 9.928 38.724 12.924 35 4.278 23.876 7.25 31.154 4.506 30.131-1.075 25.361 8.783 31.373 3.042 33.028-2.768 6.523 2.95 33.637 7.594 25.945-5.124 6.06 2.38 40.792-.388 28.793-9.675 24.461-.298 21.102-7.068 18.644-10.476 10.539 4.323 14.774-11.117 11.172-14.754 4.015 3.66 11.05.846 7.545-18.87 4.843-.641 7.837-9.608-.974-22.257 4.746 1.67 12.023-1.83 4.162-20.86 10.855 4.872 3.456-16.172-2.483-21.753 2.921-.618 12.097.205-1.995-25.573z" fill="#BBDDD8"/>
    <path d="M320.742 630c-.552 2.92-1.968 4.852-3.816 5.84.648 15.154.912 52.405.72 54.152 3.384.023 7.68.046 10.968-.736 5.112-9.68 1.008-39.504-1.128-54.128-2.976-.368-5.856-2.46-6.744-5.128" fill="#434544"/>
    <path d="M338.166 568.27c6.078 3.027 4.863-9.384 1.994-18.468-3.914 4.877-17.577 3.12-34.741-9.338 2.09 3.606-3.623 13.013-32.31-11.464.194 9.014-9.02 10.147-19.109 6.472.219 8.182 1.386 22.813 8.776 20.363.268 5.061 1.483 23.945 9.312 19.854 1.337 4.946 3.185 27.782 12.958 23.76 1.458 3.375 4.619 30.325 15.389 24.5 2.771 15.278 17.893 18.653 19.984 7.374 2.188 6.518 16.289 9.869 14.83-7.813 7.39 4.184 4.911-11.695 2.09-18.144 9.507 5.594 5.276-11.371.098-18.56 7.366 3.236 2.601-12.365.73-18.536" fill="#BBDDD8"/>
    <path d="M168.844 119.508c-17.401 3.041-50.796-.99-57.057 14.675-6.262 15.665 25.628 44 68.124 43.816 42.472-.161 37.472-33.703 36.283-40.822-4.126-24.833-27.303-21.17-47.35-17.669" fill="#F2C68E"/>
    <path d="M111.427 128.122c-2.76 4.324 4.488 9.73 4.488 9.73 3.408.344 13.44 2.644 15.168-3.405 1.752-6.049-16.896-10.626-19.656-6.325M116.796 139.36l-2.16-.277-.696-.574c-.552 4.002-.096 8.372 1.488 11.983l2.856-.76c-1.368-3.127-1.872-6.876-1.488-10.372M178.23 132.793c-1.2 4.508-.528 9.775 4.032 12.236 6.312 3.427 12.6-1.242 16.032-6.05l-2.568-1.448c-2.736 3.818-6.864 7.13-11.976 5.06-3.504-1.426-3.456-6.072-2.664-9.04l-2.856-.758" fill="#17111C"/>
    <path d="M213.626 24c-8.177 9.344-12.562 21.018-14.316 32.807-1.728 11.766-3.508 43.673 7.094 57.193 0 0 14.496-17.81 18.159-49.257 1.65-14.234-1.239-29.369-10.937-40.743" fill="#F2C68E"/>
    <path d="M266.61 118.852c-3.93-6.288-10.797-10.684-18.003-13.418-5.313-18.43-31.566-30.823-44.45-26.609-2.62.866 1.82 5.627 1.82 5.627-10.65-3.827-32.705-3.782-34.962 1.709-2.256 5.49 6.89 10.07 11.5 10.775-8.661-1.549-27.998-.797-36.223 8.224-2.67 2.94-3.13 7.7-.728 10.822 1.892 2.46 4.925 3.371 8.225 3.576-6.478 4.739-2.427 9.227-1.165 9.842 7.036 3.463 15.552 3.417 23.244 1.48 7.667-1.959 12.932-5.034 19.87-8.679-3.445 2.802-6.987 8.315-2.086 12.393 5.24 4.351 17.882-.752 21.376-2.78-2.62 3.236-2.208 9.045 1.383 11.87 4.828 3.804 18.924 2.734 30.328-10.229-5.702 12.53.364 18.407 4.416 18.544 2.717.068 8.88-3.6 8.346-15.469 7.036 2.552 15.261-4.715 7.109-17.678" fill="#BBDDD8"/>
    <path d="M617 590.231c-9.162-4.324-27.973-5.52-38.861-5.336L576 585.907c4.57 5.152 4.205 9.269 1.312 11.178 12.492 1.541 31.887 4.968 37.452 7.038L617 590.231" fill="#434544"/>
    <path d="M575.538 585.439c9.554-2.778-3.58-11.869-8.128-15.014 6.725-6.198-12.892-14.715-18.818-16.092 9.36-5.464-10.595-12.443-19.64-17.08 8.61-.138-2.371-11.845-7.644-16.253-2.08 2.41-5.177 3.696-9.216 2.02 2.443 3.42 5.78 10.216-18.528 10.514 11.924 9.32-22.592 12.098-28.615 9.71 4.644 7.714-3.435 9.046-11.949 8.242 3.169 9.435 7.377 22.819 11.296 16.07 1.451 3.535 3.7 18.939 8.2 11.317.919 6.75 11.61 19.95 12.239 10.56 4.547 4.982 14.15 19.858 15.94 10.01 4.402 7.713 24.841 13.108 21.842 4.728 5.007 2.939 25.083 9.62 22.737-.803 3.87 1.653 29.582 5.28 24.986-5.74 7.668 1.24 12.336-4.223 5.298-12.189M555.692 352.627c-1.186-4.861-11.698-7.474-15.38-6.543 2.737-3.158 10.948-8.883 8.623-13.722-2.325-4.862-14.435-6.611-23.058 2.136-.072-3.522-.411-18.584-7.217-19.448-6.83-.886-11.892 10.042-15.162 22.515-.848-2.34-6.782-13.29-12.788-10.928-12.813 5.02 11.674 35.805 11.674 35.805 4.965 5.68 34.732 26.309 43.523 19.016 6.055-5.021-1.889-17.79-5.837-20.515 6.54 1.953 17.947 1.295 15.622-8.316" fill="#BBDDD8"/>
    <path d="M271.17 45a63.509 63.509 0 00-11.8 10.9c-9.766 11.615-20.92 36.042-25.277 61.184-1.125 6.498 8.306 9.563 10.987 7.028 2.657-2.534 23.05-22.722 28.125-38.738 5.075-15.993 2.537-28.713-2.034-40.374" fill="#F2C68E"/>
    <path d="M265.852 76.375c-8.749 7.79-15.393 17.545-19.12 28.178-2.106 5.895-4.236 12.437-5.732 18.447 0 0 9.205-5.987 16.636-15.65C266.106 96.37 271 88.21 271 73l-5.148 3.375" fill="#D29778"/>
  </g>
</svg>
