<?xml version="1.0" encoding="UTF-8"?>
<svg width="720px" height="720px" viewBox="0 0 720 720" version="1.1" xmlns="http://www.w3.org/2000/svg" xmlns:xlink="http://www.w3.org/1999/xlink">
    <!-- Generator: Sketch 64 (93537) - https://sketch.com -->
    <title>img_d</title>
    <desc>Created with Sketch.</desc>
    <g id="img_d" stroke="none" stroke-width="1" fill="none" fill-rule="evenodd">
        <g id="deer" transform="translate(186.000000, 10.000000)">
            <path d="M40.6813627,375.951904 C30.5302541,383.075807 17.373883,387.825076 0.789286649,386.997222 C-0.123422681,386.953651 -2.23823698,397.171115 8.69201377,404.469303 C12.4318959,406.952866 17.039965,408.216433 21.5812504,408.216433 C23.6738035,408.194647 25.6327894,407.802506 27.5472529,407.236079 C28.7938802,399.110036 32.6228072,387.280435 40.6813627,375.951904" id="Fill-142" fill="#C79563"></path>
            <path d="M294.589178,444.689379 C284.035155,463.02154 269.765236,476.454779 252.50501,484.656593 C254.681777,508.153679 257.254321,534.288646 258.705499,559.182257 C261.739781,610.898014 262.773195,681.344939 262.685245,681.344939 C262.685245,681.344939 262.773195,693.625492 263.828598,697.194389 C264.576174,696.795382 267.786356,695.044184 270.182999,693.049148 L274.382621,697.194389 C276.1856,693.137816 276.757276,687.75122 277.416903,682.342457 C277.372928,682.342457 282.100251,627.390309 285.024595,584.474875 C285.662234,575.186876 287.707076,565.12303 288.278752,555.458191 C288.718503,547.810554 286.453785,540.096416 286.827574,532.360111 C288.300739,502.434577 292.126573,471.378522 294.589178,444.689379" id="Fill-143" fill="#CC9464"></path>
            <path d="M261.819639,680.753507 C261.819639,680.753507 261.909419,693.187976 262.986774,696.801603 C263.7499,696.397595 267.026854,694.624449 269.473347,692.604409 L273.760321,696.801603 C275.600802,692.694188 276.184369,687.24008 276.857715,681.763527 C272.638076,681.539078 266.039279,681.000401 261.819639,680.753507" id="Fill-144" fill="#918567"></path>
            <path d="M147.980729,592.44425 C152.108368,568.35839 162.217773,532.062801 162.725451,490.852184 C140.564222,488.027711 117.520075,482.845804 96.7935872,475.551102 C109.154432,504.129431 128.446179,548.36468 124.892436,575.608612 C121.669788,600.094791 140.453857,682.760665 140.431784,682.760665 C141.778233,689.721767 143.808944,696.304791 144.073819,697.194389 L149.702418,693.502558 L155.551746,694.881435 C155.375163,693.280159 154.381881,686.363536 153.587255,681.114909 C153.565182,681.137149 144.691861,611.592843 147.980729,592.44425" id="Fill-145" fill="#CC9464"></path>
            <path d="M156.38477,694.557114 C156.20521,692.941082 155.19519,685.960721 154.387174,680.663727 C152.950701,681.651303 144.915431,682.18998 141.01002,682.324649 C142.379158,689.3499 144.444088,695.993587 144.713427,696.891383 L150.436874,693.165531 L156.38477,694.557114" id="Fill-146" fill="#918567"></path>
            <path d="M239.045753,216.344617 C230.652786,212.457096 225.2129,205.681704 221.749135,197.795591 C236.137079,249.888364 225.457139,321.974098 202.098934,340.25655 C175.365779,361.204731 146.745316,344.010784 95.0997027,346.676513 C42.8101841,349.408884 27.6895208,395.725912 26.7125617,412.32007 C23.0711684,474.520395 188.266081,508.486216 244.596657,487.649107 C286.650308,472.099026 313.405667,428.603227 315.4484,360.804872 C317.335707,297.960329 304.124555,247.60028 298.351615,223.719798 C279.300911,221.009641 264.801949,228.340394 239.045753,216.344617" id="Fill-147" fill="#D59F69"></path>
            <path d="M272.895036,223.481244 C286.316522,306.502707 279.050254,371.151478 268.895256,405.208718 C257.095903,444.775543 225.586521,454.195158 208.165254,458.949397 C168.478543,469.790841 131.125037,459.438151 98.2823944,448.485627 C98.1712894,458.460644 97.6379853,467.569233 96.7935872,475.944693 C147.81301,493.806415 213.098317,499.293785 244.541036,487.652563 C286.627616,472.101312 313.403925,428.602242 315.448257,360.798788 C317.337042,297.949519 304.115545,247.585682 298.338084,223.703404 C289.405241,222.437088 281.472343,223.370163 272.895036,223.481244" id="Fill-148" fill="#E5BD7D"></path>
            <path d="M259.252297,134.752666 C295.169045,142.30946 302.491225,115.521174 326.853707,102.269405 C316.284689,100.07903 302.916673,94.8659376 288.451449,101.30564 C270.873739,109.125279 253.452772,129.473863 259.252297,134.752666" id="Fill-149" fill="#D59F69"></path>
            <path d="M342.080686,202.31335 C338.532075,197.873393 326.926556,187.683691 319.561515,180.49096 C307.264128,168.458676 313.468617,152.097433 299.207219,138.844161 C290.50308,130.785639 274.590127,121.594927 255.195519,122.061123 C239.907479,122.438519 224.440893,131.251834 219.99955,142.151929 C215.223432,153.851217 209.219808,202.069152 238.769245,215.744221 C266.198444,228.464698 280.950845,219.451585 301.907734,223.713944 C321.771027,227.754305 331.88122,228.797695 338.73294,224.402137 C345.540023,220.00658 347.236215,208.773488 342.080686,202.31335" id="Fill-150" fill="#D59F69"></path>
            <path d="M314.199464,200.601202 C318.905219,195.526977 325.528959,192.151514 332.46493,191.886772 C328.22752,187.937701 323.56637,183.679764 319.908816,180.127806 C307.620328,168.170283 313.820327,151.9107 299.56925,138.739775 C290.871409,130.731324 274.969972,121.597718 255.589398,122.061017 C240.312421,122.436068 224.857027,131.194623 220.418898,142.026991 L220.240481,142.534413 C230.923214,141.89462 263.952707,139.732558 283.667813,158.749873 C289.154143,164.044717 296.446948,181.981001 301.130401,187.981824 C306.282199,194.578317 309.91745,197.975842 314.199464,200.601202" id="Fill-151" fill="#C08759"></path>
            <path d="M264.496348,158.982741 C250.001049,155.927099 236.874501,168.68108 237.076448,174.725935 C237.345711,181.678625 241.474403,194.366178 264.630979,191.974807 C273.359572,191.089114 281.257939,197.798239 286.17198,193.591197 C288.707535,191.421249 287.181714,186.549937 286.418804,183.405727 C282.200358,166.333993 270.77914,160.31128 264.496348,158.982741" id="Fill-152" fill="#EFC68D"></path>
            <path d="M253.397121,172.621328 C253.554236,172.17243 258.896119,168.379243 265.158244,170.309504 C267.94141,171.16241 270.253234,173.204895 271.9366,175.628943 C273.395518,177.738763 275.438003,185.123131 274.09131,186.155596 C272.744616,187.210506 270.791911,185.796478 267.335398,185.818923 C254.968264,185.931147 251.534195,178.479444 253.397121,172.621328" id="Fill-153" fill="#17111C"></path>
            <path d="M283.276954,152.939479 L287.519038,157.248898 L289.067735,156.328657 C287.743487,154.286172 286.19479,152.71503 284.152305,151.368337 L283.276954,152.939479" id="Fill-154" fill="#D5A971"></path>
            <path d="M297.024449,169.930261 C295.74509,167.663327 294.712625,165.373948 293.859719,162.9499 L292.153908,163.533467 C293.074148,166.114629 294.173948,168.538677 295.520641,170.917836 L297.024449,169.930261" id="Fill-155" fill="#D5A971"></path>
            <path d="M289.494188,136.92505 C292.905812,139.236874 295.823647,141.97515 298.382365,145.207214 L299.684168,143.950301 C297.013226,140.583567 293.960721,137.777956 290.414429,135.353908 L289.494188,136.92505" id="Fill-156" fill="#D5A971"></path>
            <path d="M315.462926,178.908216 L311.826854,173.431663 L310.188377,174.217234 C311.400401,176.237275 312.702204,178.167535 314.093788,180.075351 L315.462926,178.908216" id="Fill-157" fill="#D5A971"></path>
            <path d="M272.783968,130.954709 C275.993587,131.695391 278.888978,132.84008 281.739479,134.501002 L282.727054,132.997194 C279.764329,131.246493 276.689379,130.012024 273.34509,129.226453 L272.783968,130.954709" id="Fill-158" fill="#D5A971"></path>
            <path d="M290.347094,148.304609 C293.040481,151.469339 295.307415,154.836072 297.147896,158.561924 L298.831263,157.911022 C296.923447,154.028056 294.589178,150.526653 291.806012,147.249699 L290.347094,148.304609" id="Fill-159" fill="#D5A971"></path>
            <path d="M268.081764,126.050501 C264.288577,125.422044 260.517836,124.973146 256.67976,124.658918 L256.567535,126.454509 C260.383166,126.768737 264.176353,127.217635 267.947094,127.846092 L268.081764,126.050501" id="Fill-160" fill="#D5A971"></path>
            <path d="M247.95992,131.28016 C244.458517,131.078156 240.957114,130.853707 237.433267,130.651703 L237.410822,132.447295 C240.912224,132.671743 244.413627,132.873747 247.91503,133.075752 L247.95992,131.28016" id="Fill-161" fill="#D5A971"></path>
            <path d="M245.749098,137.060677 C240.901002,136.185326 236.12024,135.938432 231.20481,136.297551 L231.294589,138.093142 C236.030461,137.756468 240.676553,137.980917 245.367535,138.811378 L245.749098,137.060677" id="Fill-162" fill="#D5A971"></path>
            <path d="M277.688176,148.012826 C273.468537,145.521443 269.046894,143.613627 264.333467,142.244489 L263.79479,143.972745 C268.351102,145.296994 272.638076,147.137475 276.723046,149.539078 L277.688176,148.012826" id="Fill-163" fill="#D5A971"></path>
            <path d="M270.236473,133.793988 C265.949499,132.514629 261.707415,131.28016 257.218437,130.988377 L257.240882,132.783968 C261.572745,133.075752 265.657715,134.31022 269.787575,135.544689 L270.236473,133.793988" id="Fill-164" fill="#D5A971"></path>
            <path d="M246.254108,128.435271 C248.565932,128.367936 250.832866,128.457715 253.122244,128.704609 L253.144689,126.886573 C250.855311,126.662124 248.588377,126.572345 246.276553,126.617234 L246.254108,128.435271" id="Fill-165" fill="#D5A971"></path>
            <polyline id="Fill-166" fill="#D5A971" points="278.608417 140.572345 284.354309 144.343086 285.319439 142.794389 279.551102 139.023647 278.608417 140.572345"></polyline>
            <path d="M251.797996,139.259319 C254.10982,139.461323 256.354309,139.797996 258.598798,140.291784 L258.823246,138.518637 C256.578758,138.02485 254.334269,137.665731 252.022445,137.463727 L251.797996,139.259319" id="Fill-167" fill="#D5A971"></path>
            <path d="M312.803206,195.124649 L308.852906,190.545892 L307.236874,191.353908 C308.426453,193.486172 309.862926,195.147094 311.793186,196.628457 L312.803206,195.124649" id="Fill-168" fill="#D5A971"></path>
            <path d="M314.677355,188.166733 C312.949098,185.877355 311.288176,183.565531 309.694589,181.186373 L308.168337,182.173948 C309.761924,184.530661 311.422846,186.86493 313.151102,189.154309 L314.677355,188.166733" id="Fill-169" fill="#D5A971"></path>
            <polyline id="Fill-170" fill="#D5A971" points="323.733868 189.591984 320.097796 185.147896 318.751102 186.35992 322.387174 190.804008 323.733868 189.591984"></polyline>
            <path d="M302.837675,182.387174 C301.423647,180.21002 300.234068,177.987976 299.224048,175.631263 L297.563126,176.327054 C298.640481,178.840882 299.91984,181.197595 301.423647,183.486974 L302.837675,182.387174" id="Fill-171" fill="#D5A971"></path>
            <path d="M301.827655,151.716232 C303.578357,155.442084 304.678156,159.302605 305.239279,163.387575 L306.98998,162.961122 C306.406413,158.719038 305.216834,154.723848 303.421242,150.840882 L301.827655,151.716232" id="Fill-172" fill="#D5A971"></path>
            <path d="M305.183166,173.016433 C304.262926,170.682164 303.387575,168.325451 302.557114,165.946293 L300.828858,166.462525 C301.659319,168.841683 302.534669,171.198397 303.45491,173.532665 L305.183166,173.016433" id="Fill-173" fill="#D5A971"></path>
            <path d="M342.044867,202.217422 C340.238153,199.965559 336.331132,196.242181 331.972433,192.184369 C322.780771,192.518804 314.085957,198.248792 309.636922,206.230643 C306.542923,211.804562 305.413726,218.248012 305.933156,224.602279 C323.006611,227.879743 332.288608,228.45943 338.657277,224.401618 C345.545377,219.987074 347.261756,208.705463 342.044867,202.217422" id="Fill-174" fill="#E5BD7D"></path>
            <path d="M337.273025,199.553302 C329.260199,200.136869 326.028135,200.810216 325.848576,204.221839 C325.601682,209.406608 331.953586,213.783362 338.619718,212.818232 C345.308295,211.853101 348.113907,207.319234 347.39567,203.368933 C346.879438,200.540877 343.490259,199.104404 337.273025,199.553302" id="Fill-175" fill="#17111C"></path>
            <path d="M341.701002,222.191693 L339.007615,218.982074 L338.98517,218.914739 L339.187174,212.989288 L337.952705,213.258627 L337.167134,213.303517 L336.987575,217.68027 L335.775551,221.226563 L330.141884,221.563236 L328.525852,222.86504 C331.398798,225.737986 335.708216,225.087084 337.818036,221.787685 C338.626052,223.358827 339.950301,224.503517 342.01523,224.234178 L341.701002,222.191693" id="Fill-176" fill="#17111C"></path>
            <path d="M241.282565,124.849699 C245.706158,123.297539 250.396499,122.299722 255.10907,122.188853 L259.821641,122.344069 C259.065851,95.2256127 283.629015,80.1918321 298.900412,68.9275836 C315.105431,56.9316024 352.917143,48.7051531 343.647606,3.47076921 C342.513921,-2.07266019 339.424075,-0.0991993237 339.379617,3.31555319 C339.2907,17.0632581 331.132618,34.9131008 322.596641,33.9596309 C308.281095,32.385297 313.238186,-1.93961789 306.92512,0.211232723 C300.612053,2.33990961 309.437009,38.7269802 291.009079,49.0821063 C279.472172,55.5790056 280.27242,29.1257605 257.176377,25.5779657 C249.062753,24.3362375 252.085911,28.7488073 255.62034,30.3231412 C268.602138,36.0883078 275.937744,55.8007428 265.156627,73.4066745 C258.132229,84.8704866 241.304794,101.41208 241.282565,124.849699" id="Fill-177" fill="#A99C8C"></path>
            <path d="M255.532259,121.752305 L261.031257,121.954309 C261.300595,118.901804 261.637269,115.961523 261.143481,114.56994 L241.549092,113.761924 C241.167529,115.086172 240.94308,120.450501 240.808411,124.71503 C245.476948,122.986774 250.504603,121.864529 255.532259,121.752305" id="Fill-178" fill="#C08759"></path>
            <path d="M232.865731,128.35658 C217.930666,111.592769 195.406012,109.397507 183.067385,105.095683 C163.560813,98.3325049 156.681362,78.4642838 163.006018,65.7805534 C164.736977,62.3213542 164.27095,56.9995093 158.811773,63.1196309 C143.255337,80.48215 160.343005,98.9312125 147.649309,102.723027 C129.29671,108.177918 109.501645,64.5387896 103.998084,68.574522 C98.4723318,72.6102544 125.457532,98.5542484 113.718082,111.03841 C107.837262,117.291577 90.0838402,108.554882 81.2737049,97.9998896 C79.076719,95.3833158 75.4372676,95.8268029 78.078089,100.816033 C99.6928795,141.639018 134.067942,124.032581 154.195883,123.012561 C173.746838,122.014715 203.528203,117.779413 219.905734,141.683367 C222.191487,136.516742 226.896144,131.837954 232.865731,128.35658" id="Fill-179" fill="#A99C8C"></path>
            <path d="M219.850196,142.407365 C222.02735,137.020591 226.875447,132.15005 233.047791,128.536423 C230.758412,124.945241 228.109915,121.556062 226.875447,121.241834 C225.124745,120.815381 212.376048,132.352054 213.071839,134.843437 C213.655406,136.953257 217.852601,139.534419 219.827751,142.497144 L219.850196,142.407365" id="Fill-180" fill="#C08759"></path>
            <path d="M134.408597,143.303266 C131.552643,144.224082 128.032514,146.717024 129.338726,149.457015 C146.651562,159.877963 164.960662,170.613336 185.085174,171.129891 C199.143551,171.489234 217.629764,163.96549 224.160821,157.497315 C230.66974,151.006682 229.673477,144.516048 223.983708,142.696874 C195.645561,133.578545 163.300223,133.960347 134.408597,143.303266" id="Fill-181" fill="#D59F69"></path>
            <path d="M141.683367,150.240473 C153.347485,156.076144 165.56493,161.148689 178.424233,163.03406 C191.30567,164.91943 209.14491,161.687366 216.227486,156.79438 C223.310063,151.923839 218.86132,151.228048 218.86132,151.228048 C197.170929,141.419631 158.902881,144.965923 141.683367,150.240473" id="Fill-182" fill="#997A5E"></path>
            <path d="M65.0565489,582.885648 C74.7343653,544.657304 101.792297,516.43638 97.7968681,425.413337 C95.3996108,391.299154 24.5695373,379.512638 26.7004327,418.986349 C29.341855,462.663177 51.738453,496.621689 39.9963318,576.592093 C37.2883189,595.094701 45.6343257,681.981344 45.5455384,681.981344 C46.3002305,687.74117 47.387875,695.391286 47.4766623,695.791583 C48.7196846,695.591435 50.9171704,694.857557 53.4920023,693.500996 L59.6183264,694.968751 C59.6405233,694.435022 59.6849169,687.05177 59.6627201,681.781195 C59.5961296,681.781195 59.3519645,605.480178 65.0565489,582.885648" id="Fill-183" fill="#D59F69"></path>
            <path d="M44.7632741,681.909419 C45.5264003,687.722645 46.6261999,695.443687 46.7159795,695.847695 C47.9728933,695.645691 50.1949374,694.90501 52.7985446,693.535872 L58.9933342,695.017234 C59.0157791,694.478557 59.0606689,687.026854 59.038224,681.707415 C54.3696869,682.335872 49.4318111,682.425651 44.7632741,681.909419" id="Fill-184" fill="#918567"></path>
            <path d="M163.468759,370.74351 C167.716067,368.409242 172.962741,369.396817 177.618881,370.698621 C181.230228,371.731086 184.955139,373.010444 187.40813,375.793611 L187.975952,376.781186 L187.521694,378.329883 C184.955139,382.527078 165.104086,384.794011 161.265611,379.407238 L159.948264,376.422068 C159.675709,374.065354 161.401888,371.8882 163.468759,370.74351" id="Fill-185" fill="#E5BD7D"></path>
            <path d="M109.241042,385.868942 L108.679919,382.008421 L111.305971,379.943491 C114.268697,378.551908 117.366092,377.519443 120.553266,376.846096 L124.301563,377.339884 C127.017394,379.539483 128.655871,385.060926 124.324008,387.215635 C119.992144,389.39279 116.154068,389.617238 112.607775,388.158321 L109.241042,385.868942" id="Fill-186" fill="#E5BD7D"></path>
            <path d="M154.070398,357.770975 C156.023103,355.997829 159.053163,356.401837 161.656771,356.918069 L163.699256,357.815865 C164.529717,358.75855 167.335328,363.202638 162.038334,366.120474 C156.74134,369.03831 152.70126,366.210254 151.848354,364.100434 L152.027913,361.541716 L154.070398,357.770975" id="Fill-187" fill="#E5BD7D"></path>
            <path d="M194.262113,374.940967 L196.371933,372.314915 C199.177544,371.035556 202.319829,370.496879 205.394778,370.788663 L206.921031,371.686458 C207.010811,372.112911 206.965921,376.803893 202.589167,378.105697 C198.189969,379.4075 194.441672,375.816318 194.262113,374.940967" id="Fill-188" fill="#E5BD7D"></path>
            <path d="M130.517077,374.301277 L134.377598,371.069213 C138.88902,370.036748 143.669782,370.216308 148.091425,371.585446 L150.044131,373.358592 C150.044131,374.009494 148.562768,380.900075 141.739521,381.461197 C134.916275,382.02232 130.494632,375.625526 130.517077,374.301277" id="Fill-189" fill="#E5BD7D"></path>
            <path d="M101.8998,368.051303 L100.84489,371.260922 C99.2288577,372.652505 97.0517034,373.146293 94.9643287,373.572745 L92.1587174,373.527856 L91.6873747,371.171142 C91.6873747,371.171142 95.4805611,367.647295 98.6228457,367.108617 L101.8998,368.051303" id="Fill-190" fill="#E5BD7D"></path>
            <path d="M68.4532886,380.032526 L66.9943707,378.281824 L68.0941703,376.14956 C70.6528878,373.792846 74.5582986,373.02972 77.8128076,374.219299 L78.755493,374.915091 C78.957497,375.386434 79.4288397,378.371604 75.9947715,379.965191 C72.5158136,381.536333 70.8548918,381.24455 68.4532886,380.032526" id="Fill-191" fill="#E5BD7D"></path>
            <path d="M95.3573798,378.609699 C98.5894439,379.844167 103.998662,384.961602 98.1405461,386.981642 C92.2824299,389.001682 89.4319289,386.936753 85.7060772,384.220921 L84.4267184,382.42533 L85.6387425,380.719518 C88.4443537,378.677033 92.1477605,377.397674 95.3573798,378.609699" id="Fill-192" fill="#E5BD7D"></path>
            <path d="M216.868218,341.769694 C216.037757,344.193742 208.29427,349.311177 206.745573,344.979313 C205.219321,340.60256 211.952787,337.976507 214.152387,337.909173 C216.351986,337.841838 217.721124,339.323201 216.868218,341.769694" id="Fill-193" fill="#E5BD7D"></path>
            <path d="M85.4661681,356.775903 C88.4513385,356.012777 93.9727814,356.34945 93.3218796,360.726204 C92.6934227,365.080512 84.1868094,367.010773 78.6653665,367.392336 L74.9619597,365.394741 L76.3759878,363.374701 L82.4136631,358.593939 L85.4661681,356.775903" id="Fill-194" fill="#E5BD7D"></path>
            <path d="M152.75992,387.330053 L152.80481,390.898791 C152.153908,392.425043 141.60481,394.602197 137.362725,392.582157 L136.173146,391.123239 L136.958717,390.180554 C140.998798,387.509612 145.914228,386.230254 150.73988,386.634262 L152.75992,387.330053" id="Fill-195" fill="#E5BD7D"></path>
            <path d="M200.018085,361.286374 L199.636522,359.243889 C199.973195,355.809821 202.217684,352.645092 205.315079,351.163729 C208.412474,349.704811 212.272995,349.97415 215.145941,351.85952 C217.188426,353.206214 219.971592,356.056715 217.30065,359.647897 C214.629708,363.239079 206.594438,362.318839 202.621692,362.206615 L200.018085,361.286374" id="Fill-196" fill="#E5BD7D"></path>
            <path d="M181.507629,363.665398 L177.2431,361.465799 L178.230675,357.784837 L181.978971,356.460588 C186.355725,356.14636 194.054322,358.390849 192.999412,362.273815 C191.966947,366.156781 184.605024,364.136741 181.507629,363.665398" id="Fill-197" fill="#E5BD7D"></path>
            <path d="M96.6399816,357.09317 L95.742186,356.307599 L96.3257531,355.07313 C98.3682381,353.142869 101.241184,352.447078 103.979461,351.818621 L105.819941,352.245074 C105.932166,352.514413 107.256414,353.793771 104.697697,356.262709 C102.116535,358.731647 99.2435888,358.14808 96.6399816,357.09317" id="Fill-198" fill="#E5BD7D"></path>
            <path d="M111.334304,368.470911 C108.885016,367.909788 106.569326,365.822414 106.613859,363.286141 C106.658391,360.368305 109.463939,358.393155 112.002292,357.024017 C114.050787,355.924217 116.099283,354.869307 118.192311,353.881732 L122.445165,352.40037 C125.183914,352.018806 127.922664,353.118606 130.26062,354.599969 L134.669339,359.044057 L134.268546,365.081732 C132.064187,367.775119 121.843976,367.236442 118.815766,367.932233 C116.366478,368.493356 113.783592,369.054478 111.334304,368.470911" id="Fill-199" fill="#E5BD7D"></path>
            <path d="M229.941656,348.578037 L225.340453,351.338759 C223.275523,350.912306 222.467507,348.398478 222.265503,346.266214 C222.063499,344.021725 222.085944,341.732346 222.355283,339.487857 C222.624621,337.198478 223.163299,334.86421 224.554882,333.023729 C225.946465,331.183248 228.325623,330.061003 230.592557,330.532346 C237.056686,331.879039 236.562898,342.158799 229.941656,348.578037" id="Fill-200" fill="#E5BD7D"></path>
            <path d="M239.547282,328.997397 L235.91121,325.114431 L238.447482,319.817437 C240.82664,317.03427 240.938865,312.118839 244.574937,313.847096 C248.211009,315.575352 247.402993,327.493589 239.547282,328.997397" id="Fill-201" fill="#E5BD7D"></path>
            <path d="M224.770064,308.492127 L227.283891,303.329802 L231.705535,304.384712 L233.411346,308.8288 C233.905134,314.05846 231.458641,323.350644 226.767659,322.2284 C222.099122,321.08371 224.298721,312.217979 224.770064,308.492127" id="Fill-202" fill="#E5BD7D"></path>
            <path d="M241.60022,303.645951 L237.717254,303.264388 L236.348115,300.211883 C235.719659,297.024708 235.45032,293.747754 235.562544,290.51569 L236.954128,286.991842 C239.759739,284.859578 245.505631,284.612684 246.56054,289.348556 C247.593005,294.061983 246.897214,297.855169 244.63028,300.930119 L241.60022,303.645951" id="Fill-203" fill="#E5BD7D"></path>
            <path d="M239.394563,278.259312 L237.531637,279.583561 L235.489152,278.326647 C233.334443,275.58837 232.8631,271.63807 234.299573,268.47334 L235.062699,267.597989 C235.556487,267.41843 238.586547,267.171536 239.888351,270.740274 C241.190154,274.309011 240.763701,275.947488 239.394563,278.259312" id="Fill-204" fill="#E5BD7D"></path>
            <path d="M233.289303,237.668938 L233.042409,231.990381 L233.401527,230.351904 L238.025174,229.656112 C239.551427,230.531463 242.716156,236.142685 240.112549,240.609218 L236.992709,241.686573 L233.289303,237.668938" id="Fill-205" fill="#E5BD7D"></path>
            <path d="M238.520901,253.593234 C239.979819,250.473395 245.501262,245.468184 247.04996,251.46097 C248.621102,257.453755 246.354168,260.147142 243.368998,263.648545 L241.483627,264.770789 L239.867595,263.446541 C238.049559,260.50626 237.039539,256.713074 238.520901,253.593234" id="Fill-206" fill="#E5BD7D"></path>
            <path d="M239.700887,558.349887 C239.455838,549.526621 239.277621,541.678792 239.433561,532.678175 C239.945936,502.395309 240.926131,471.757738 241.282565,444.689379 C229.65389,452.692391 217.267791,456.28377 208.468314,458.678023 C203.455954,460.030333 198.510426,461.050107 193.587174,461.781685 C200.604478,507.937561 211.297513,580.208529 211.988105,585.617768 C217.3569,628.115757 221.923717,681.432224 221.856885,681.432224 C221.856885,681.432224 222.99302,694.822305 223.861829,697.194389 C225.955882,695.908586 228.116766,694.112897 230.344482,692.583235 C232.416257,693.758192 234.755358,695.199178 237.139014,695.465206 L237.473171,690.809714 L237.473171,690.721038 C237.606834,687.99425 237.629112,685.134448 237.473171,680.855829 C237.294954,680.855829 235.891493,653.344089 235.668722,631.551954 C235.267733,594.308019 240.124153,573.868193 239.700887,558.349887" id="Fill-207" fill="#D59F69"></path>
            <path d="M220.734036,681.09018 C220.734036,681.09018 221.878725,694.646894 222.754076,697.048497 C224.863895,695.746693 227.04105,693.928657 229.285539,692.37996 C231.372913,693.569539 233.729627,695.028457 236.13123,695.297796 C236.535238,690.584369 236.714797,687.32986 236.467903,680.506613 C230.609787,680.708617 226.569707,680.910621 220.734036,681.09018" id="Fill-208" fill="#918567"></path>
        </g>
    </g>
</svg>