<svg viewBox="0 0 720 720" xmlns="http://www.w3.org/2000/svg">
  <g fill="none" fill-rule="evenodd">
    <path d="M326.148 649.56c-4.608-2.583-10.008-4.371-13.177-8.487-2.7-3.491-25.033-38.49-18.019-46.438 14.674-16.634 26.119-31.45 33.485-44.678-19.78-1.193-36.596-3.719-47.454-5.677A183.463 183.463 0 01259.15 539c9.48 14.278 15.173 31.309 9.186 55.18-1.849 7.41 17.755 40.393 21.98 48.681 7.63 15.016 26.97 23.418 43.639 18.933 1.203-5.024-3.228-9.65-7.806-12.234" fill="#DE4A42"/>
    <path d="M326.922 649.523c-4.745-2.59-10.306-4.383-13.57-8.51-2.78-3.502-25.78-38.597-18.556-46.567A488.362 488.362 0 00304.014 584c-14.447 1.708-26.112 1.452-34.696.057-.392 3.16-1.057 6.461-1.934 9.934-1.904 7.429 18.285 40.503 22.637 48.815 7.858 15.057 27.774 23.482 44.94 18.985 1.24-5.038-3.324-9.678-8.039-12.268" fill="#17111C"/>
    <path d="M451.641 645.88c-3.394-17.672-5.826-32.998-6.817-62.321-.631-18.89-.3-34.13 1.14-50.559a328.292 328.292 0 01-12.403 4.44c-12.614 4.213-25.648 7.04-38.593 8.935 3.034 22.536 9.4 49.626 15.648 67.553 9.55 27.315 23.005 38.71 35.199 47.986 3.333 2.545 19.461 4.128 21.894-3.648 2.433-7.804-14.656-5.005-16.068-12.385" fill="#DE4A42"/>
    <path d="M449.77 645.902c-3.36-17.652-5.77-32.96-6.752-62.248-.089-2.627-.149-5.169-.208-7.654a286.734 286.734 0 00-42.774 5.338c2.767 12.032 5.95 23.527 9.102 32.65 9.46 27.282 22.785 38.664 34.862 47.928 3.302 2.542 19.275 4.124 21.684-3.643 2.41-7.795-14.516-5-15.914-12.37" fill="#17111C"/>
    <path d="M524.442 357.709c-39.799.71-71.763-5.421-96.693-13.709-24.722 53.729-95.95 41.836-103.963 39.367-65.708-20.436-104.498-10.53-129.754 21.997-42.708 54.978-1.662 122.53 87.284 138.282 27.779 4.91 93.576 13.822 150.974-5.677 56.182-19.073 118.862-55.858 119.782-182.247-8.725 1.079-17.866 1.817-27.63 1.987" fill="#E3746D"/>
    <path d="M542.654 620.827c-2.664-2.79-52.637-57.727-57.611-67.206-9.296-17.705-2.161-57.215-1.332-78.677.799-21.463-73.983-8.796-70.372 15.883 3.642 24.68 11.191 60.175 21.375 75.205 11.665 17.25 66.967 36.037 93.227 64.559 6.187 6.718 8.704 12.866 13.115 12.382 14.21-1.508 9.088-14.204 1.598-22.146" fill="#E3746D"/>
    <path d="M450.715 577.51c21.678 13.875 57.611 29.741 77.248 51.095 6.182 6.71 8.695 12.852 13.102 12.368 14.196-1.507 9.08-14.188 1.597-22.093-2.573-2.7-48.798-53.568-56.753-65.88-12.954 7.052-27.002 17.856-35.194 24.51" fill="#434544"/>
    <path d="M523.612 358.35c-24.5.425-45.993-1.726-64.807-5.35-12.027 18.317-14.051 57.923-10.687 76.89 3.72 20.752 6.192 39.069 20.243 55.347l3.572-7.163c5.924 18.855 12.325 21.8 26.733 35.926 46.202-41.22 72.607-109.08 58.913-158.452-10.568 1.557-21.82 2.604-33.967 2.803" fill="#DDE3DD"/>
    <path d="M197.425 404.649c7.063-10.465 15.363-18.548 25.236-24.05-15.337-25.041-34.773-65.88-45.29-123.79-6.032-33.21-1.624-68.773-12.27-100.536C134.943 66.173 78.956 57.723 24 55c26.524 43.788 20.802 101.16 15.492 153.455-5.336 52.267-7.501 111.029 23.611 150.96 16.703 21.411 62.998 52.948 128.239 55.585a90.405 90.405 0 016.083-10.351" fill="#E3746D"/>
    <path d="M112.733 158.775c6.278 11.35 13.944 21.825 22.717 30.968 3.55-9.341 5.429-19.447 5.506-29.553 6.149 4.926 11.629 10.842 16.234 17.522l3.344-4.359c1.21-8.577 1.467-17.21 1.235-25.901C131.051 65.615 77.05 57.632 24 55c21.508 35.526 21.765 80.025 18.266 123.448 2.316-5.237 4.631-10.445 7.024-15.654 2.881 13.928 8.027 27.26 15.102 39.206 3.576-11.436 7.152-22.872 10.702-34.308l1.904-3.086 5.017 2.859 19.604 29.128c3.705-12.625 7.41-25.222 11.114-37.818" fill="#DDE3DD"/>
    <path d="M266.266 431.429c-30.423-32.61-61.142-23.633-77.687-2.046-23.573 30.791 2.876 79.25 13.195 106.008 5.782 14.998 6.82 32.864-8.748 58.741-4.447 7.414 3.885 40.42 5.249 48.715 2.49 15.026 19.125 23.434 37.509 18.946 2.965-5.027.118-9.658-3.647-12.242-3.736-2.585-8.57-4.375-10.349-8.493-1.512-3.494-11.89-38.518-2.016-46.471 28.495-23.008 49.726-42.608 61.141-59.196 8.955-12.953 29.622-56.554-14.647-103.962" fill="#E3746D"/>
    <path d="M217.84 594.35a858.904 858.904 0 0016.354-13.797c-11.973-1.966-23.595-4.674-33.144-7.553-1.986 6.356-5.052 13.283-9.549 20.893-4.38 7.44 3.825 40.561 5.169 48.884 2.453 15.078 18.835 23.516 36.94 19.012 2.92-5.045.116-9.691-3.592-12.285-3.68-2.594-8.44-4.39-10.192-8.523-1.489-3.506-11.71-38.65-1.985-46.632" fill="#434544"/>
    <path d="M515.795 157.062c-77.254 2.102-116.31 63.923-133.999 92.35-13.058 20.956-22.2 27.942-32.439 37.825 0 0 15.166 16.044 30.658 18.089-5.282 2.044-14.423 4.515-16.916 4.515 15.462 13.091 66.301 49.752 160.768 48.105 88.59-1.533 133.97-44.413 156.525-59.606-4.215-2.47-4.511-.34-11.278-2.897 3.917-4.458 16.946-11.927 20.805-16.442-10.596-13.148-22.823-24.62-30.332-37.825-19.024-33.396-66.54-86.243-143.792-84.114" fill="#EEF0ED"/>
    <path d="M383.458 248.563c9.696-15.41 25.787-40.735 51.04-60.849-19.066-14.029-59.19-25.072-92.236-23.579 5.89 34.707 21.624 65.131 40.273 85.865l.923-1.437" fill="#D36251"/>
    <path d="M411.186 208.22c-17.656-10.5-40.62-21.76-50.68-27.22 4.253 25.334 15.105 44.39 27.012 59 6.012-9.345 13.755-20.605 23.668-31.78" fill="#C03F42"/>
    <path d="M659.416 241.448l3.542 5.552c24.74-23.399 36.38-58.666 32.212-89.997-30.574-.226-61.059 11.246-83.297 31.16 22.566 16.742 38.374 37.251 47.543 53.285" fill="#D36251"/>
    <path d="M656.288 234c13.742-17.235 27.98-36.988 23.75-57-13.8 3.264-25.384 17.721-45.866 28.514 9.132 9.62 16.485 19.497 22.116 28.486" fill="#C03F42"/>
    <path d="M516.97 157.062c-77.402 2.102-116.534 63.928-134.256 92.355l-.922 1.449c24.026-10.735 50.164-13.15 81.565 9.854 36.278 26.61 43.86 63.615 47.161 97.126h.119c4.728.142 9.486.2 14.422.114 3.211-.057 6.244-.284 9.337-.426l.624-.142c-1.576-34.988 13.828-68.102 34.791-94.087 16.474-20.363 55.011-37.772 94.768-16.557l-3.538-5.566c-19.061-33.398-66.668-86.25-144.07-84.12" fill="#E1806B"/>
    <path d="M539.681 298.625l-1.033.783c-2.524 5.684-4.136 11.745-5.687 17.603l-.456 1.711.335 1.247 1.064.406.456-.058.943-.986.486-1.798c1.52-5.655 3.071-11.484 5.443-16.907l-.152-1.392-1.399-.609M553.385 272.147l-1.277.58a79.48 79.48 0 00-10.734 18.328l.76 1.682.608.116 1.369-.841c2.645-6.38 6.05-12.18 10.399-17.748l.152-1.247-1.277-.87M590.862 236.337l-1.46.029c-6.112 3.596-12.04 7.54-17.605 11.745l-.548 1.305.943 1.16.426.087.851-.319c5.777-4.35 11.676-8.265 17.515-11.658l.699-1.102-.821-1.247M538.262 238.708l.426-.058.852-.957c1.49-6.873 3.344-13.485 5.564-19.69l-.213-1.247-1.46-.464-1.094.898a163.097 163.097 0 00-5.595 19.808l.456 1.334 1.064.376M543.786 186.81l.517-.087.79-.986c1.126-6.873 2.677-13.572 4.623-19.923l-.274-1.218-1.49-.406-1.064.957a161.886 161.886 0 00-4.622 20.039l.517 1.305 1.003.319M616.318 229.846c-5.808.638-11.677 1.48-17.424 2.553h-.03l-1.095.957.244 1.42.912.377h.304c5.899-1.072 11.555-1.913 17.393-2.552l1.247-1.507-1.551-1.248M631.106 220.805l6.325.087 4.013.058h.03l1.308-1.247-1.49-1.508-1.976-.029c-2.767-.029-5.565-.087-8.362-.116h-.03l-1.308 1.247 1.49 1.508M502.088 294.379l-1.368.609-.03 1.218c3.162 6.177 5.412 12.644 6.658 19.227l.943 1.101.578.088.942-.29.396-1.19c-1.338-7.047-3.65-13.774-6.842-19.952l-1.277-.811M434.898 237.215c-6.446-1.16-13.744-2.436-20.738-2.06l-1.368 1.567 1.399 1.189c6.416-.348 13.105.725 19.947 1.972l.304.029 1.49-1.218-1.034-1.48M648.671 232.055c-6.112-.986-13.714-2.204-20.738-1.682l-1.216.783.091 1.48 1.186.492c6.447-.493 13.136.493 19.978 1.624h.273l1.49-1.247-1.064-1.45M400.746 235.76l-3.071.377-2.798.348-1.125.783.182 1.45 1.126.522h.182l3.071-.406 2.828-.348 1.125-.754-.182-1.45-1.338-.522M513.187 294.467l-1.156 1.566c.912 4.872 1.642 9.222 2.22 13.369l.82 1.015.579.116.973-.319.486-1.247a308.79 308.79 0 00-2.25-13.398l-1.672-1.102M498.769 266.64l-1.247.87.182 1.246c3.223 4.09 5.17 9.136 7.085 14.036l1.855 4.67 1.125.87.213.029 1.216-.551.122-1.276-1.673-4.292c-2.037-5.25-4.105-10.644-7.571-15.052l-1.307-.55M529.787 281.685l-.517-1.248-1.55-.174-.791 1.045-.456 3.654c-.517 4.089-1.064 8.323-.578 12.615l.76 1.043.608.117.913-.262.577-1.247c-.456-4.03.061-7.859.578-11.89l.456-3.654M540.31 264.35a61.95 61.95 0 00-5.504 17.458l.456 1.19.943.318.578-.087.881-1.073a61.077 61.077 0 015.322-16.733l-.67-1.74-2.006.667M470.9 190.837a64.062 64.062 0 00-11.676-14.442l-1.277-.378-1.064 1.044.395 1.363a63.62 63.62 0 0111.16 13.891l1.124.667.73-.203.608-1.943M447.593 240.381l-1.338.087-.608 1.334.821 1.131a66.191 66.191 0 0115.508 9.367l.882.319 1.033-.493-.121-2.03a68.275 68.275 0 00-16.177-9.715M531.734 329.248l-1.794 1.103a61.107 61.107 0 00-.882 18.212l.73 1.043.608.146.912-.262.608-1.276c-.547-5.887-.243-11.774.913-17.457l-1.095-1.509M493.133 200.968l1.247.87.517-.087.942-1.827a62.968 62.968 0 00-8.787-16.182l-1.156-.58-1.247.841.122 1.392c3.558 4.843 6.386 10.092 8.362 15.573M496.57 251.852l.607-1.972c-3.101-5.365-6.993-10.237-11.524-14.529l-1.277-.377-1.065 1.044.365 1.334c4.379 4.205 8.089 8.903 11.038 14.007l1.125.667.73-.174M460.85 217.344l1.004.464.912-.319.213-2.03c-4.135-4.698-8.94-8.758-14.26-12.122l-1.308-.145-.852 1.218.639 1.247a65.55 65.55 0 0113.653 11.687M522.669 249.004l-.791-1.189-1.55.058-.518 1.131.396 6.612.395 6.206.79 1.189.76.174.791-.232.578-1.102-.182-2.494c-.213-3.451-.457-6.902-.67-10.353M473.703 183.007l3.557 5.597 1.278.725.82-.232.517-1.769a1103.435 1103.435 0 01-7.024-10.962l-1.277-.696h-.03l-1.338.726.091 1.218 3.406 5.393M565.528 255.135l-1.217.464-4.013 4.64-4.592 5.22.183 2.058.912.348 1.003-.464c2.858-3.335 5.717-6.612 8.605-9.918l.274-1.392-1.155-.957M514.418 333.83l-1.52.115-.487 1.16.67 6.003.729 6.757 1.55 1.305h.153l1.216-1.392-1.46-12.788-.85-1.16M514.028 213.117l-1.034 1.856c2.19 6.873 3.649 14.21 4.348 21.75l.7 1.044.608.116.912-.261.639-1.276c-.67-7.598-2.16-14.935-4.5-22.446l-1.673-.783M512.74 198.721l.974 1.044.486.058 1.034-.377.365-1.218-1.49-6.322-1.794-7.743-.943-.986-1.52.29-.365 1.218.335 1.421c.973 4.205 1.915 8.41 2.919 12.615M512.102 263.026c-1.824-6.699-4.956-13.862-8.848-20.242l-1.125-.637-1.308.754.03 1.42c3.77 6.264 6.781 13.225 8.484 19.576l.882.899.365.058 1.125-.464.395-1.363M453.953 188.901l-1.246-.348-1.065 1.073.426 1.334c5.352 5.133 10.156 11.107 13.531 16.849l1.095.638 1.307-.754.03-1.45c-3.587-5.974-8.574-12.151-14.078-17.342M498.718 186.766l1.186.899.456-.058.912-.667.152-1.189c-2.128-6.583-5.625-13.63-9.821-19.807l-1.065-.609h-.09l-1.248.812.092 1.421c4.074 6.09 7.419 12.905 9.426 19.198M474.463 257.394l-1.277-.261-.943 1.16.517 1.305c5.778 4.669 11.068 10.237 14.93 15.689l1.064.58.791-.261.456-2.03c-4.105-5.713-9.609-11.455-15.538-16.182M564.372 191.027l.183-.029 1.185-.841c3.102-6.612 7.237-13.021 11.616-18.067l.243-1.218-1.216-.899-1.399.493c-4.56 5.336-8.818 11.977-11.95 18.763l.122 1.218 1.216.58M486.849 213.809l1.307-.813-.06-1.392a394.016 394.016 0 00-9.64-14.094l-1.976-.319-.365 1.944a450.088 450.088 0 019.64 14.036l1.094.638M486.91 258.954h.03l1.338-.782-.091-1.276c-3.892-5.974-9.183-12.151-16.177-18.85h-2.037l-.061 1.943c6.842 6.496 12.01 12.499 15.781 18.299l1.217.667M519.51 186.668c1.368 9.135 1.764 16.878 1.155 23.664l.578 1.247.912.261.639-.116.73-1.102c.638-6.989.243-14.964-1.156-24.331l-1.611-1.131-1.247 1.508M425.158 207.106c6.963 3.77 13.166 7.975 18.974 12.847l.973.348.456-.058 1.034-1.102-.456-1.16a115.294 115.294 0 00-19.522-13.282h-1.399l-.79 1.276.73 1.131M566.48 227.917l-.03-1.74-2.25.029-2.068 2.117c-3.77 3.828-7.662 7.801-10.278 12.296v1.45l1.308.754 1.064-.667c2.585-4.379 6.447-8.323 10.187-12.122l2.067-2.117M583.138 212.688l.548-1.19-.973-1.16-1.369.204-6.902 5.132-.73.522-.547 1.19.973 1.189.517.087.851-.29 3.406-2.553 4.226-3.131M546.574 192.152l-1.946 4.669.152 1.305 1.216.551h.213l1.095-.841 2.25-5.336 1.855-4.408-.852-1.769-1.824.725-2.16 5.104M561.367 208.887l-3.892 6.321a4004.906 4004.906 0 00-7.116 11.513l.517 1.856.76.203 1.186-.667c3.68-5.945 7.359-11.89 11.008-17.834l.091-1.305-1.338-.754h-.03l-1.186.667M532.586 222.114l1.46-1.304c.152-6.874.274-13.804.426-20.678l-.639-1.189-1.52-.058-.73 1.16-.426 20.707 1.43 1.362M523.19 306.885l-.73 1.131-.182 9.077c-.06 3.886-.152 7.772-.243 11.63l1.43 1.391h.03l1.429-1.305c.152-6.902.273-13.804.426-20.706l-.609-1.189-1.55-.029M561.554 244.199l.304.029.913-.377a154.282 154.282 0 0113.044-10.933l.244-1.856-2.068-.29a148.63 148.63 0 00-13.106 10.991l-.364 1.363 1.033 1.073M620.068 216.368a149.267 149.267 0 00-17.028 3.509l-1.034 1.015.395 1.421.821.319.396-.058a158.12 158.12 0 0116.967-3.509l1.155-1.508-1.672-1.189M603.881 209.716l-2.037-.58-4.227 2.262-3.588 1.914-.517 1.769 1.308.783.76-.203 7.784-4.176.517-1.769M568.31 203.664l.851.261 1.095-.58c4.47-6.235 9.092-11.426 14.17-15.834l.486-1.334-1.034-1.102-1.246.319c-5.291 4.553-10.096 9.889-14.748 16.327l.426 1.943M549.234 211.619l.213 1.392 1.217.551.212-.029 1.004-.783c2.128-4.843 4.44-9.28 7.085-13.601l-.456-1.711-2.129.464c-2.645 4.321-4.987 8.816-7.146 13.717M553.927 250.962l-1.946 2.349-3.8 4.668-.244 1.335 1.186.928.213.029 1.094-.522 5.778-7.076-.335-1.943-1.946.232M522.881 338.962l-1.58-1.276-1.308 1.392.152 3.19.273 5.713.73 1.16.73.173.821-.203.639-1.188a439.009 439.009 0 01-.457-8.933v-.029M518.969 174.125l1.43 1.131.303-.029 1.125-1.537-.577-3.393-.913-5.394-1.672-1.16-1.216 1.537a419.997 419.997 0 011.52 8.845M443.889 196.415l.03.029.943.377 1.094-.464v-1.885l-2.676-2.552-3.953-3.741h-2.037l-.06 1.943 6.659 6.293M621.092 202.963c-2.98.811-6.051 1.595-9.062 2.32l-.03.029-.943 1.74 1.277.986.426-.059 3.284-.84 5.747-1.48 1.034-1.681-1.733-1.016M410.314 216.645l3.284.841 5.747 1.479.425.058 1.369-1.015-.973-1.711a279.721 279.721 0 01-9.062-2.32h-.03l-1.733 1.044.973 1.624M545.798 241.7l-.912-1.798-1.794.754c-2.007 5.364-3.649 10.12-5.017 14.558l.334 1.392 1.156.493.304-.03.912-.87c1.369-4.495 3.01-9.25 5.017-14.5M508.818 178.099l.426-.058 1.003-1.624c-1.672-5.655-3.193-10.295-4.804-14.616l-1.946-.9-.821 1.595c1.581 4.292 3.132 9.048 4.743 14.587l1.4 1.016M529.804 244.91l1.338-1.248.03-1.913c.03-3.393.092-6.815.153-10.208l-1.551-1.45h-.03l-1.339 1.246v.9c-.06 3.712-.09 7.482-.182 11.194l1.581 1.478M534.127 190.91h.091l1.49-1.305c.274-3.103.517-6.206.76-9.338l.396-4.959-.548-1.16-1.52-.058-.79 1.131-1.186 14.297 1.307 1.392M507.582 229.423l-.821 1.566 2.402 6.931 2.31 6.642 1.126.956.334.059 1.095-.464.243-1.19c-1.55-4.524-3.132-9.077-4.713-13.6l-1.976-.9M503.583 223.532l1.125.813h.152l1.277-.61.122-1.305c-2.037-4.379-4.44-8.757-7.39-13.369l-1.763-.406-.577 2.06c2.736 4.204 5.108 8.525 7.054 12.817M481.867 176.27l1.034 1.015.426.059 1.064-.406.304-1.19c-1.003-3.624-2.615-6.843-4.896-9.83l-1.915-.261-.335 1.971c2.038 2.727 3.467 5.54 4.318 8.643M458.443 238.86h-.03l-1.855.493.487 1.914c3.01 1.74 5.473 3.799 7.54 6.351l1.156.522h.213l1.216-.87-.182-1.218a30.199 30.199 0 00-8.545-7.192M471.762 212.439l-.243 2a103.722 103.722 0 018.544 11.456l.03.028 1.247.638.851-.232.426-1.769a111.317 111.317 0 00-8.94-11.947l-1.915-.174M514.712 270.134l-1.064 1.769c1.338 4.524 2.31 9.019 3.01 13.746v.029l1.52 1.189h.244l1.125-1.48c-.73-4.93-1.764-9.628-3.132-14.355l-1.703-.899M500.644 258.833l-1.673-2.987-1.216-.725h-.06l-1.308.667-.03 1.276 1.307 2.349 2.128 3.741 1.186.725h.06l1.308-.667.03-1.247-1.732-3.132M590.087 220.513l-3.254 1.682-3.132 1.624-.73 1.189.73 1.305.639.174.669-.203 1.885-.986 4.47-2.32.76-1.16-.73-1.305h-1.307M449.113 235.01l.426-.058.973-1.16-.517-1.275c-4.013-3.046-8.666-5.279-13.196-7.424l-6.204-3.103h-1.277l-.699 1.275.79 1.248 6.143 3.044c4.348 2.089 8.848 4.264 12.71 7.163l.851.29M456.705 221.266l-1.976.232.213 2.001 7.723 5.916.882.319.456-.087.943-1.16-.517-1.247-4.987-3.857-2.737-2.117M423.217 230.792l.273.029 1.004-.435.273-1.48-1.033-.84-6.69-1.276-13.774-2.61-1.612 1.072 1.095 1.653 7.662 1.45c4.257.813 8.514 1.625 12.802 2.437M496.934 231.24a24.103 24.103 0 00-4.744-6.96l-1.398-.435-1.156.958.335 1.218 4.318 6.322 1.277.812.608-.117.76-1.798M513.544 320.454l-.852 1.595.73 7.105.456 1.131.882.261.608-.087.943-1.16c.334-2.755.06-5.278-.852-7.946l-1.915-.899M590.902 189.14l.76.232 1.095-.58 5.413-4.93.669-1.015-.79-1.219h-1.552l-6.05 5.54.455 1.971M435.126 203.516l.973.435.335-.058 1.094-1.015-.365-1.305-5.777-4.524-1.946.435.456 1.914 5.23 4.118M500.334 286.748l-3.71-6.177v-.03l-1.976-.231-.304 1.943 3.375 5.597 1.065.811.182.03 1.216-.58.152-1.363M505.494 204.908l1.429 1.102.334-.029 1.064-1.566a29.159 29.159 0 00-3.101-8.816l-2.007-.609-.639 1.769c1.43 2.668 2.372 5.336 2.92 8.149M529.91 262.846l-1.58 1.218-.031 4.93.669 1.015.608.145.912-.261.67-1.276.09-4.321-1.337-1.45M558.18 174.879l.334-.03 1.125-.927 1.824-3.974-.669-1.827-1.946.551-1.976 4.553v.03l.213 1.188 1.094.435M586.159 205.315l.334.058.913-.348c4.682-4.263 9.973-7.801 16.115-10.904l.639-1.914-1.855-.58c-6.507 3.277-12.01 6.989-16.754 11.281l-.426 1.334 1.034 1.073" fill="#C24849"/>
    <path d="M536.658 355.01c-1.581-6.903-29.551-6.497-30.166 1.014-.586 7.482 7.41 12.963 15.932 12.876 8.523-.058 15.787-7.018 14.234-13.89" fill="#17111C"/>
    <path d="M612.66 320.988c-6.553-5.394-20.918-7.221-27.209-1.19-6.29 6.033-4.622 12.5 1.434 15.806 6.027 3.306 11.205 3.596 13.663 3.248l5.413-1.595c3.803-1.45 13.253-10.875 6.7-16.27M453.53 327.97c-6.554-5.365-20.92-7.221-27.21-1.189-6.29 6.061-4.622 12.499 1.434 15.805 6.027 3.306 11.205 3.625 13.663 3.277l5.412-1.595c3.804-1.45 13.254-10.904 6.7-16.298" fill="#E0A4A1"/>
    <path d="M608.744 288.647c-5.23-6.38-11.372-4.35-14.17 5.568-2.797 9.947 4.774 15.167 10.734 13.485 5.96-1.682 8.666-12.644 3.436-19.053M444.859 297.674c-1.642-6.64-8.301-8.99-12.498-4.147-5.138 5.945-1.49 16.182 3.923 16.501 5.412.348 10.217-5.713 8.575-12.354" fill="#17111C"/>
  </g>
</svg>
