<?xml version="1.0" encoding="UTF-8"?>
<svg width="720px" height="720px" viewBox="0 0 720 720" version="1.1" xmlns="http://www.w3.org/2000/svg" xmlns:xlink="http://www.w3.org/1999/xlink">
    <!-- Generator: Sketch 64 (93537) - https://sketch.com -->
    <title>img_a</title>
    <desc>Created with Sketch.</desc>
    <g id="img_a" stroke="none" stroke-width="1" fill="none" fill-rule="evenodd">
        <g id="alpaca" transform="translate(107.000000, 10.000000)">
            <path d="M89.17458,598.888889 L88.9089765,599.133289 C85.8666099,601.308446 81.8584125,601.577286 77.7777778,599.597648 C84.297135,616.314591 96.0561237,644.469443 98.7845954,647.5 C103.179125,645.838082 107.621946,643.320764 110.833333,639.776968 C105.54541,625.479582 97.7704732,611.817636 89.17458,598.888889" id="Fill-5" fill="#434544"></path>
            <path d="M98.3524306,501.887186 L97.9635417,501.085103 C98.1579861,502.859409 96.359375,505.241353 93.1753472,504.706631 C94.0260417,505.241353 95.7760417,506.116353 98.3524306,501.887186" id="Fill-6" fill="#AED7C8"></path>
            <path d="M90.127216,546.733398 C91.0376303,546.589131 97.6021963,548.079893 88.0907631,524.444109 C89.7438837,524.323886 95.4219938,527.04092 92.7626258,504.727586 C87.9230552,503.861982 79.8730764,495.999417 70.9126834,468.059661 C71.4397653,471.23354 58.1908419,476.21076 59.3887554,430.694444 L56.4418882,431.079157 C32.6992425,441.803022 39.4315164,449.377053 41.8513017,448.439316 C22.5888525,459.115092 29.2252933,465.486895 30.3752903,465.631162 C11.6878396,484.506127 18.6596962,490.637485 19.7617766,490.469173 C10.5138843,511.099389 19.2586529,512.758462 20.2169838,511.989037 C13.4607516,534.134059 20.9596901,535.336286 22.7326021,534.061925 C21.9898957,563.660755 30.0638328,560.294519 30.9982053,558.923981 C34.9513199,588.450677 41.8033852,580.227444 41.7315103,578.808816 C52.8241894,607.013062 58.550216,595.639994 57.0887615,594.341589 C71.4397653,607.63822 75.6085043,599.366898 75.7282957,598.140627 C80.6397411,601.699219 85.7188943,601.843486 89.3845097,599.222631 C93.050125,596.601776 93.9605393,590.326151 92.8824171,585.950045 C94.1282472,587.272494 101.962602,586.887782 92.9303337,566.305655 C93.9126227,565.920942 102.896974,568.012817 90.127216,546.733398" id="Fill-7" fill="#A3CEC6"></path>
            <path d="M276.238787,652.032312 C273.079065,652.248804 270.429759,650.540923 268.631148,648.472222 C267.513093,661.67823 260.683232,694.488783 260.270037,697.279124 C259.832537,700.189737 271.207537,700.502448 272.349898,699.444043 C273.395037,698.481857 280.10337,663.530438 283.214482,650.05983 C281.586009,651.142289 279.349898,651.81582 276.238787,652.032312" id="Fill-8" fill="#434544"></path>
            <path d="M297.631963,553.194444 C298.649423,559.037076 291.406072,561.910502 267.641096,554.319869 C270.160523,560.497734 256.449028,561.000584 245.160059,557.384857 C244.457527,562.509132 246.007943,566.795326 250.998346,562.916201 C247.340332,570.482888 242.567957,590.860265 250.586517,585.400756 C249.229902,590.022182 243.82767,610.615066 251.313274,608.100818 C248.212441,620.264986 250.828769,633.00384 257.006209,628.119016 C253.566223,639.636664 258.580851,648.783735 265.12167,642.246692 C264.927868,644.80883 269.118837,651.800832 275.344728,651.369818 C281.594844,650.938804 284.332297,648.687954 285.737362,644.689104 C293.659021,651.705051 298.261819,637.50554 296.856754,631.399511 C299.182379,632.860169 305.795874,633.147511 305.40827,610.423504 C306.643758,610.351668 313.160351,612.027833 310.810502,591.027881 C318.029628,596.918404 315.946256,576.900205 314.250488,571.368861 C320.379477,577.139658 322.196372,566.986887 322.777778,557.504583 C317.908501,558.582117 310.132194,557.744035 297.631963,553.194444" id="Fill-9" fill="#A3CEC6"></path>
            <path d="M422.766315,419.928563 C425.648661,419.281198 434.704031,420.144351 420.796712,393.122871 C431.221196,371.687908 407.778116,346.392734 400.211959,349.725463 C399.515392,331.119724 386.256601,328.674124 380.275733,327.691089 C378.714463,321.001654 365.575769,320.737913 355.511578,323.567136 C347.200815,314.120407 325.943514,319.251372 321.235682,322.224454 C316.287655,318.771842 300.674949,316.302266 283.428913,322.224454 C273.652956,317.213372 260.658381,319.563066 253.23634,327.667112 C242.955973,318.508101 212.931537,331.479371 204.452637,335.795135 C200.03304,330.808029 192.106589,329.321488 186.149741,332.3665 C181.826222,326.971795 179.520345,325.653089 172.602715,325.197536 C177.022312,321.001654 175.605159,313.449066 166.117437,308.150267 C168.63949,307.550855 181.273772,307.38302 158.935592,265.256365 C164.89244,266.095541 169.648311,263.122459 160.713038,224.808062 C166.669887,234.182862 174.644377,216.080628 159.488041,192.152112 C163.547345,194.789524 169.888506,197.091265 158.743435,156.786821 C170.657132,164.579174 165.39685,138.085176 153.891487,118.136754 C154.419917,130.628494 148.318951,134.488706 145.628762,134.416776 C141.617497,134.272917 135.61261,128.086989 141.257204,114.899931 C129.968016,128.542542 116.012658,129.669436 111.232768,125.665365 C107.677875,122.692283 107.269543,116.578284 109.863654,113.173625 C106.404839,115.307531 93.890654,120.67826 88.7024315,116.098754 C83.8504826,111.806967 87.3573367,106.004661 90.7681126,103.055556 C83.8985217,106.891791 78.6862796,110.128614 71.0961023,112.19059 C68.6220887,112.837955 66.051997,113.269531 63.4819053,113.461343 C47.2687099,141.034282 49.7907626,155.252327 57.8853505,153.526022 C52.7932061,159.687974 37.3486363,183.664443 48.8540002,178.821196 C38.2133401,190.713524 44.6265596,196.539806 46.5961626,195.676653 C44.0020513,199.992418 38.5015747,211.549075 40.6393145,214.689993 C42.3206829,217.207522 44.8427355,216.056651 45.7074393,215.601099 C32.6408048,252.836554 41.0716664,254.347072 43.8819536,252.261119 C34.3702123,275.302505 39.9667671,276.597234 43.2814649,275.278529 C32.9050198,304.577773 40.134904,305.536832 43.7858754,303.235091 C34.8986424,324.598124 40.5672559,327.739042 44.7946964,325.964783 C36.2917762,338.360617 39.6064739,344.210875 44.0981295,340.926099 C35.9555025,373.390237 44.4103836,372.958661 48.1093941,369.530026 C42.9211716,402.401764 48.0373355,403.864329 53.6579099,400.387741 C48.277531,433.307432 58.653976,432.899832 59.3505429,430.765927 C58.1495655,476.153381 71.4323759,471.190252 70.9039459,468.025359 C85.6759683,513.916319 98.0700555,505.524555 97.5656449,501.040956 C110.920514,530.891659 123.530777,525.472977 126.869494,519.358977 C137.678291,537.029635 167.390473,546.572269 167.054199,529.764765 C195.397267,555.155845 201.041861,545.397422 198.97618,541.657093 C217.999662,556.13888 232.723646,556.714315 234.308936,549.209681 C241.5148,559.615468 272.524038,562.756385 268.849047,553.69328 C292.412224,561.293821 299.594069,558.416645 298.585248,552.566386 C323.613618,561.77335 329.546446,555.755257 331.179776,549.665234 C337.617015,552.758198 364.374792,557.625421 356.784615,544.294505 C362.765482,546.788057 397.041378,543.886905 385.199741,534.152459 C409.339387,533.840764 406.024689,526.74373 403.598715,523.171236 C413.99918,527.702789 418.178581,511.518672 414.623688,507.706414 C418.586913,511.542649 425.528563,508.593543 422.069748,487.925827 C426.849638,487.254486 429.804043,477.855711 421.108966,464.596724 C425.792778,466.347006 432.974623,462.678606 425.216309,442.730184 C435.929028,447.837172 428.627085,425.778821 422.766315,419.928563" id="Fill-10" fill="#BBDDD8"></path>
            <path d="M213.992001,635.833333 C213.432973,638.861773 211.998945,640.864835 210.127417,641.890212 C210.783667,657.604713 211.051029,696.2352 210.856584,698.047494 C214.283667,698.07134 218.634362,698.095186 221.964223,697.284423 C227.141306,687.245265 222.985056,656.31703 220.821862,641.150987 C217.807973,640.769451 214.891306,638.599467 213.992001,635.833333" id="Fill-11" fill="#434544"></path>
            <path d="M231.497911,570.841923 C237.473352,574.001715 236.278264,561.048981 233.457855,551.569605 C229.609671,556.659041 216.176879,554.825879 199.302233,541.824903 C201.357785,545.587709 195.74087,555.404772 167.536787,529.861111 C167.728001,539.268125 158.669233,540.450032 148.75,536.614865 C148.965116,545.153539 150.112401,560.421846 157.378537,557.865068 C157.641457,563.147468 158.836545,582.853957 166.532913,578.58462 C167.84751,583.746417 169.664044,607.577519 179.272554,603.380544 C180.70666,606.902144 183.813889,635.026704 194.402371,628.948325 C197.127173,644.892008 211.99407,648.413608 214.049622,636.64278 C216.200781,643.444775 230.063805,646.942255 228.629699,628.490035 C235.895835,632.855854 233.457855,616.285037 230.685251,609.555404 C240.030841,615.392577 235.871934,597.688094 230.780858,590.186603 C238.023093,593.56348 233.338347,577.28211 231.497911,570.841923" id="Fill-12" fill="#BBDDD8"></path>
            <path d="M65.076263,99.8205238 C47.8392216,102.970807 14.7594883,98.7942953 8.55703824,115.023026 C2.35458823,131.251756 33.9438104,160.606666 76.0387327,160.41574 C118.109615,160.248679 113.157271,125.500103 111.979286,118.125577 C107.8924,92.3982662 84.9337192,96.1929252 65.076263,99.8205238" id="Fill-13" fill="#F2C68E"></path>
            <path d="M7.3194991,108.637724 C4.52436021,113.207168 11.864638,118.918974 11.864638,118.918974 C15.3160269,119.283557 25.4757491,121.714113 27.2257491,115.321752 C29.0000547,108.929391 10.114638,104.092585 7.3194991,108.637724" id="Fill-14" fill="#17111C"></path>
            <path d="M12.9590686,120.470486 L10.7715686,120.178819 L10.0667075,119.571181 C9.50767975,123.800347 9.9694853,128.418403 11.573652,132.234375 L14.4660131,131.432292 C13.0805964,128.126736 12.5701797,124.164931 12.9590686,120.470486" id="Fill-15" fill="#17111C"></path>
            <path d="M73.2303414,113.953711 C72.0150637,118.7176 72.6956192,124.283572 77.3136748,126.884266 C83.7060359,130.505794 90.0740914,125.571766 93.5497859,120.491905 L90.9490914,118.960655 C88.1782581,122.995378 83.9977026,126.495378 78.8206192,124.307878 C75.2720081,122.800933 75.3206192,117.891211 76.1227026,114.755794 L73.2303414,113.953711" id="Fill-16" fill="#17111C"></path>
            <path d="M108.525261,0 C100.575744,9.79075878 96.3125954,22.0231636 94.6073361,34.3764419 C92.9271542,46.7055456 91.1968177,80.1391737 101.503605,94.3055556 C101.503605,94.3055556 115.597071,75.6426771 119.158054,42.6925432 C120.763004,27.7767453 117.954341,11.9181335 108.525261,0" id="Fill-17" fill="#F2C68E"></path>
            <path d="M160.95738,99.7620463 C157.075357,93.2359929 150.293799,88.6724846 143.176757,85.8350701 C137.928837,66.7061675 112.000758,53.8432218 99.2763495,58.2175691 C96.6883342,59.1160837 101.073582,64.0579139 101.073582,64.0579139 C90.5537795,60.0855336 68.7713176,60.1328239 66.5427489,65.831298 C64.3141802,71.5297721 73.3482705,76.2824414 77.9012604,77.0154401 C69.3464321,75.4075719 50.2478379,76.1878609 42.1243455,85.5513287 C39.488404,88.6015493 39.033105,93.5433795 41.4054524,96.7827611 C43.2745745,99.3364341 46.2699626,100.282239 49.5289448,100.495045 C43.1307959,105.41323 47.1326343,110.071319 48.3787158,110.709737 C55.328016,114.303796 63.7390657,114.256505 71.3353698,112.24667 C78.9077108,110.21319 84.1077044,107.021098 90.9611523,103.237879 C87.5583914,106.146229 84.0597782,111.868348 88.9003253,116.100825 C94.0763558,120.617043 106.561133,115.320536 110.01182,113.21612 C107.423805,116.573727 107.831178,122.603233 111.377717,125.535228 C116.146375,129.483963 130.068939,128.372642 141.331598,114.918569 C135.700268,127.923385 141.691044,134.023826 145.692883,134.165697 C148.37675,134.236632 154.463379,130.429768 153.936191,118.11066 C160.885491,120.758914 169.008983,113.21612 160.95738,99.7620463" id="Fill-18" fill="#BBDDD8"></path>
            <path d="M506.527778,593.891409 C497.402605,589.321965 478.668165,588.058076 467.824458,588.25252 L465.694444,589.321965 C470.244929,594.766409 469.881858,599.117103 467.001498,601.134465 C479.442716,602.762937 498.758068,606.384465 504.300945,608.571965 L506.527778,593.891409" id="Fill-19" fill="#434544"></path>
            <path d="M466.136971,588.743541 C475.647091,585.828142 462.573685,576.286838 458.047349,572.985932 C464.740548,566.480497 445.214706,557.541547 439.316024,556.095895 C448.633534,550.361474 428.770624,543.036836 419.766105,538.169807 C428.337252,538.025242 417.406632,525.737198 412.158009,521.111111 C410.087451,523.641002 407.00569,524.990278 402.984956,523.231401 C405.416658,526.821437 408.739181,533.953322 384.542545,534.266546 C396.412138,544.048793 362.055324,546.964192 356.060336,544.458394 C360.682977,552.554047 352.641508,553.951511 344.166667,553.108214 C347.320656,563.010931 351.509924,577.057852 355.410277,569.974156 C356.854853,573.684664 359.093944,589.851874 363.572128,581.852599 C364.487025,588.936295 375.12873,602.790462 375.754712,592.935932 C380.281048,598.164375 389.839321,613.777419 391.620964,603.441005 C396.002842,611.536658 416.347277,617.198795 413.361821,608.404411 C418.345606,611.488469 438.328897,618.499882 435.993501,607.561114 C439.845701,609.295897 465.43876,613.102781 460.864271,601.537563 C468.496444,602.83865 473.143161,597.10423 466.136971,588.743541" id="Fill-20" fill="#BBDDD8"></path>
            <path d="M445.946572,343.577696 C444.776032,338.503342 434.408394,335.776469 430.777332,336.748658 C433.47674,333.452699 441.574964,327.477291 439.281662,322.426649 C436.988359,317.352294 425.044076,315.526475 416.539746,324.655571 C416.46808,320.980221 416.13364,305.259207 409.420953,304.358153 C402.684377,303.433388 397.691666,314.838829 394.466709,327.856682 C393.63061,325.414353 387.777911,313.985199 381.853546,316.451241 C369.216494,321.691579 393.367835,353.821253 393.367835,353.821253 C398.264992,359.749237 427.624041,381.279675 436.295591,373.668143 C442.267733,368.427805 434.432282,355.101697 430.538446,352.256265 C436.988359,354.295491 448.239874,353.607845 445.946572,343.577696" id="Fill-21" fill="#BBDDD8"></path>
            <path d="M166.192244,22.3611111 C161.706343,25.6366591 157.65928,29.4902449 154.172955,33.7532742 C144.225957,45.8920696 132.864924,71.4220757 128.427783,97.698714 C127.281928,104.490659 136.887607,107.693952 139.618156,105.044612 C142.324325,102.395272 163.095997,81.2968893 168.264536,64.5578759 C173.433074,47.8429474 170.848805,34.5480763 166.192244,22.3611111" id="Fill-22" fill="#F2C68E"></path>
            <path d="M160.272847,55.0058432 C151.76693,63.0339806 145.307364,73.0870191 141.683103,84.0453074 C139.636752,90.1200108 137.565746,96.8617404 136.111111,103.055556 C136.111111,103.055556 145.060815,96.8855627 152.284681,86.9278137 C160.519395,75.6121899 165.277778,67.2028946 165.277778,51.5277778 L160.272847,55.0058432" id="Fill-23" fill="#D29778"></path>
        </g>
    </g>
</svg>