<?xml version="1.0" encoding="UTF-8"?>
<svg width="720px" height="720px" viewBox="0 0 720 720" version="1.1" xmlns="http://www.w3.org/2000/svg" xmlns:xlink="http://www.w3.org/1999/xlink">
    <title>img_l</title>
    <g id="img_l" stroke="none" stroke-width="1" fill="none" fill-rule="evenodd">
        <g id="lion" transform="translate(139.000000, 24.000000)">
            <path d="M442.151187,310.208958 C439.167943,306.779402 434.07888,311.784013 428.839401,313.968767 C431.847714,311.88563 441.424178,305.305964 440.045368,299.005743 C438.691627,292.705522 429.115163,299.056551 425.831088,301.114285 C428.388154,298.472257 435.232067,287.87874 432.449377,283.483828 C428.212669,276.751738 422.822775,284.372972 417.006703,289.098138 C419.237869,286.354494 422.772636,277.539265 419.363215,273.220566 C415.978863,268.901866 406.953923,281.095842 404.923312,283.636253 C376.745446,318.973378 345.108019,330.176593 321.668246,335.917923 C325.955093,349.610741 329.640276,363.455984 332.673659,377.402844 C374.439072,372.830103 402.642008,353.446763 429.466133,330.10038 C435.056582,325.248194 445.134431,313.663918 442.151187,310.208958" id="Fill-852" fill="#E9AE5A"></path>
            <path d="M287.527192,254.828143 C277.936222,258.768453 267.714267,261.546877 257.719467,263.466515 C234.22159,267.987769 168.119616,274.42866 132.027281,248.463027 C129.17523,246.417096 126.525093,244.244874 124.026393,242.047393 C129.780975,333.912189 63.830437,451.363743 111.154302,529.083836 C134.298827,567.097726 214.332947,572.679832 250.90483,566.163165 C287.451474,559.646498 323.493329,537.040231 335.280127,501.804765 C339.469866,489.226083 340.403724,475.813873 340.706596,462.578472 C342.22096,393.092617 319.227872,317.468972 287.527192,254.828143" id="Fill-853" fill="#E9AE5A"></path>
            <path d="M271.211015,339.214539 C246.896349,338.561046 224.276878,348.614785 202.163436,376.81552 C163.857084,425.676687 152.041321,532.020101 244.06259,542.526258 C272.754402,545.818857 308.960736,532.296579 321.737953,506.55901 C348.532159,452.495033 324.799425,340.622063 271.211015,339.214539" id="Fill-854" fill="#EFCF5E"></path>
            <path d="M293.939758,476.810284 C302.092933,476.580976 302.755379,487.231061 294.831511,488.148293 C287.136952,489.065525 286.678336,477.014113 293.939758,476.810284" id="Fill-855" fill="#E9AE5A"></path>
            <path d="M166.856279,632.276411 C162.831538,618.300999 168.491331,587.590538 172.214216,563.538652 C146.682264,557.892788 123.2633,547.158052 112.421653,529.233067 C107.013407,520.32121 103.114439,511.080222 100.322275,501.611374 C104.145779,537.233484 111.239386,594.502291 114.257942,625.035527 C115.71691,639.643884 118.081446,655.948531 129.652577,664.860387 C134.985359,668.961867 152.79484,671.974682 168.54164,672 C190.199779,672 193.520191,663.062825 184.389059,659.467701 C195.532561,658.353719 194.954005,651.112836 185.596481,647.973432 C195.381633,646.530318 192.740397,636.023442 166.856279,632.276411" id="Fill-856" fill="#E9AE5A"></path>
            <path d="M412.29886,176.855505 C410.560532,167.155708 400.936741,160.461838 391.212178,159.022024 C403.783569,152.833352 413.40736,142.931476 410.888043,132.145504 C408.368726,121.334273 392.874927,117.141131 380.278343,119.060883 C386.097965,114.968781 392.068746,102.389357 388.36535,96.3017242 C384.661955,90.2140914 371.939405,91.3507863 365.439567,94.2304135 C371.183609,89.5068145 382.898433,69.1473454 375.113744,61.0641814 C367.354248,52.9810175 351.78487,61.0641814 341.380091,67.2781137 C344.907135,61.6198989 348.056281,37.0925484 337.979013,31.9142715 C327.876553,26.7107347 313.188936,39.6943168 305.555406,48.5605372 C314.347822,7.86685874 277.994079,10.1402486 270.083425,29.5651019 C272.376003,-0.292084858 248.442493,-9.48668384 234.10758,24.2100058 C228.262765,13.0198758 220.730008,1.55188692 211.559694,2.00656489 C202.364188,2.46124286 195.86435,13.8281922 191.959409,27.0138533 C182.537164,-21.4598704 155.832406,5.568209 153.539828,28.7820454 C142.656379,-0.039485985 117.664756,-3.85372897 108.066159,36.511571 C77.1037545,-0.772022717 67.5051574,36.2337122 74.332506,52.5515994 C51.2303706,37.395667 25.7600773,45.6051304 50.4745755,76.3211534 C40.7752057,74.4771816 28.9848029,73.2899669 22.7117039,80.9437127 C18.4288653,86.1219896 18.5044448,93.8515152 21.0993411,100.040188 C23.6942375,106.22886 28.4305532,111.255578 33.0660961,116.105476 C21.376466,114.615143 14.0956403,113.427928 8.3767911,120.904854 C2.65794187,128.407041 10.8961079,141.921081 20.4443188,150.635742 C11.2991986,154.096346 0.415749879,159.451443 0.0126591844,170.060595 C-0.415624679,180.543448 10.0647334,186.429002 25.1554413,193.021833 C17.0684342,197.821211 7.74696189,205.601257 10.5937899,214.568517 C14.0200608,225.303969 24.7019642,228.006777 39.1124566,230.204387 C32.6630055,238.085472 27.0953152,254.428619 33.0912893,260.768851 C40.6240467,268.750975 53.1954377,266.629144 61.0557063,264.153675 C60.4510702,271.100144 54.4047098,293.581444 64.910261,298.98706 C75.4410054,304.367416 92.9754506,295.198077 102.246537,289.160964 C99.5508676,295.829574 96.326142,310.732908 105.118558,315.784885 C114.213292,320.988422 127.338932,315.355467 136.761177,301.23519 C137.189461,308.686857 142.001356,323.337591 152.456521,325.004744 C158.830393,326.040399 168.378604,318.715032 175.533464,303.205461 C181.781369,323.337591 194.781044,329.324185 204.833118,329.248405 C214.859999,329.223145 227.204652,323.135512 234.561057,306.539766 C238.088101,315.582806 247.258414,329.399964 258.418988,329.630332 C269.604754,329.879902 272.451582,314.269292 275.827467,305.78197 C277.515409,314.117733 286.836882,322.377716 295.276593,321.645179 C303.741498,320.937902 310.165756,311.313885 310.417687,302.801303 C315.60748,309.621473 327.397883,319.876987 337.601116,317.452038 C347.779156,315.052348 349.744223,299.391218 347.829542,288.731546 C384.913886,315.355467 382.822853,282.593393 370.07511,264.658873 C400.407685,275.470105 406.277693,254.049721 387.055306,233.260833 C425.122183,239.348466 408.79701,203.226827 395.117119,194.512166 C398.744936,194.411127 414.037189,186.580561 412.29886,176.855505" id="Fill-857" fill="#AC6450"></path>
            <path d="M340.958968,97.6183625 C335.993337,90.2625092 325.810011,88.143026 316.987822,89.6141967 C291.882395,93.8282279 291.353063,112.379939 288.227488,122.254238 C292.411726,124.348786 296.495139,126.76749 300.402108,129.585156 C304.56114,132.602302 308.442903,136.192956 311.996984,140.132701 C327.398004,134.771656 336.648699,127.241257 340.303606,120.982548 C344.487844,113.876045 345.571713,104.450579 340.958968,97.6183625" id="Fill-858" fill="#E5905A"></path>
            <path d="M300.753364,130.003421 L305.440962,133.763033 C308.591642,131.844864 311.716707,129.875543 314.63685,127.624891 C320.323444,123.22589 325.29281,117.292353 326.445498,110.233489 L326.163729,106.243697 L322.065283,103.507109 L317.044687,104.504557 C312.536396,106.601756 309.30887,110.642699 306.388727,114.683642 C303.442969,118.750161 300.650903,122.918983 298.191835,127.266833 L297.781991,128.008525 L300.753364,130.003421" id="Fill-859" fill="#AC6450"></path>
            <path d="M130.578199,126.919697 C125.742011,120.274995 122.215624,92.7684371 94.7349945,97.7331577 C88.6645713,98.8113546 82.8460328,102.64773 80.7050121,108.414829 C78.4380491,114.53297 79.9493578,123.083322 83.173483,128.775199 C88.7401367,138.604343 98.1606276,144.923078 108.437527,149.687204 C114.281254,140.835959 121.862986,133.087986 130.578199,126.919697" id="Fill-860" fill="#E5905A"></path>
            <path d="M116.191095,140.132701 C118.677515,137.294785 121.341536,134.634238 124.208531,132.151061 C115.759777,128.476972 106.397645,105.39356 95.4624719,115.681008 L94.0670321,117.986815 C92.2402746,131.821659 112.84204,138.967128 116.191095,140.132701" id="Fill-861" fill="#AC6450"></path>
            <path d="M300.368859,128.905608 C272.020635,108.167248 236.131379,107.964923 201.023968,108.369574 C185.815802,108.546609 170.431089,109.431783 155.929106,114.009396 C129.37156,122.355321 106.84935,143.953563 99.3083185,170.812267 C91.7672872,197.670971 104.075057,227.412813 133.079024,248.328207 C169.144826,274.327028 235.198207,267.877904 258.67881,263.350872 C284.656276,258.343317 312.146992,247.721231 326.346325,225.338977 C345.186293,195.647717 328.742305,149.669257 300.368859,128.905608" id="Fill-862" fill="#E9AE5A"></path>
            <path d="M193.565796,183.98046 C194.605449,183.623707 206.599492,176.947321 237.155142,183.165024 C240.553031,183.853048 244.432711,184.464626 246.359872,187.369618 L246.765591,188.210537 C247.399525,176.692497 242.885911,160.332802 235.32941,140.150748 C231.728661,130.56937 226.530397,122.185663 217.427096,117.598833 C213.826347,115.764101 206.066987,115.636689 202.973386,118.21041 C191.435776,127.817271 183.803203,169.047779 187.074306,191.090047 C187.480024,187.242206 190.852556,184.948791 193.565796,183.98046" id="Fill-863" fill="#F6D153"></path>
            <path d="M247.371807,188.347066 C245.441088,185.455276 241.554244,184.846478 238.15008,184.16158 C207.538009,177.972133 195.521819,184.618178 194.480246,184.973311 C191.279316,186.114807 187.13843,189.031964 188.027578,194.206748 C189.983702,205.266579 214.24472,213.383886 214.24472,213.383886 C224.9907,211.735058 240.461863,202.552354 244.043856,199.914229 C247.62585,197.301471 249.836016,192.025221 247.371807,188.347066" id="Fill-864" fill="#17111C"></path>
            <path d="M236.141173,232.315811 C229.475024,241.000157 216.667031,239.056277 215.293855,227.292017 C215.268888,226.96383 215.64339,216.234623 215.668357,212.043921 L213.770877,212.498335 L211.873396,211.791469 L211.823463,212.018676 C211.748562,219.693214 213.246573,232.795469 205.007513,237.213378 C200.488514,239.611671 194.846006,237.162888 193.298061,232.290566 C192.549056,229.917517 188.828996,230.927325 189.602968,233.325618 C191.675216,239.889368 198.790768,243.726638 205.307115,241.328344 C209.326778,239.838878 211.748562,236.885191 213.246573,233.300373 C218.140075,243.019772 231.197737,245.039388 238.862559,235.067537 L236.141173,232.315811" id="Fill-865" fill="#17111C"></path>
            <path d="M155.104659,163.079368 C152.760621,161.168468 149.168128,160.709852 146.671218,162.416923 L143.970479,167.410743 C143.945,169.347122 143.715692,182.952733 150.645891,182.596032 C157.57609,182.213852 158.569759,174.162591 158.595237,171.156108 C158.595237,168.124146 157.448697,164.990269 155.104659,163.079368" id="Fill-866" fill="#17111C"></path>
            <path d="M290.863334,164.376991 C289.946102,162.568005 287.703979,160.988327 285.156111,161.064763 C282.506329,161.141199 280.315163,162.771834 279.21958,164.657256 C276.365969,169.651076 277.818253,179.766109 283.474519,182.899986 L289.512964,181.778924 C294.150083,177.345635 291.780566,166.185976 290.863334,164.376991" id="Fill-867" fill="#17111C"></path>
            <path d="M283.759768,270.265389 C287.326782,276.533142 289.900128,283.972915 291.989379,290.877635 C292.702782,293.298109 296.524583,292.253483 295.785702,289.833009 C293.594536,282.622545 290.893796,274.85155 287.148431,268.278052 L283.759768,270.265389" id="Fill-868" fill="#D28554"></path>
            <path d="M306.317346,284.214597 C307.97346,287.552303 309.655052,290.890009 311.336645,294.227716 L314.725308,292.240379 C313.069194,288.902673 311.387602,285.564967 309.706009,282.227261 L306.317346,284.214597" id="Fill-869" fill="#D28554"></path>
            <path d="M283.526673,296.316967 C285.641403,301.081479 287.399431,306.024341 289.53964,310.788853 C290.558787,313.081934 293.94745,311.094597 292.928303,308.801517 C290.813573,304.037005 289.055545,299.094142 286.915336,294.32963 C285.89619,292.03655 282.507526,294.023886 283.526673,296.316967" id="Fill-870" fill="#D28554"></path>
            <path d="M263.653308,273.414209 C265.105592,276.522607 266.557877,279.631006 267.984682,282.739404 C269.054787,285.032484 272.468929,283.019669 271.398825,280.752067 C269.94654,277.643669 268.494256,274.535271 267.06745,271.426873 C265.997346,269.133792 262.583204,271.121129 263.653308,273.414209" id="Fill-871" fill="#D28554"></path>
            <path d="M258.1219,292.190194 C260.109237,299.401611 261.612478,306.736511 263.574336,313.947928 C264.211303,316.318805 268.033104,315.306243 267.370658,312.935366 C265.383322,305.723949 263.905559,298.389049 261.918222,291.177632 C261.281255,288.806755 257.484933,289.79462 258.1219,292.190194" id="Fill-872" fill="#D28554"></path>
            <path d="M249.283336,311.260209 C249.512644,313.960948 249.767431,316.661687 249.996739,319.336948 C250.200568,321.833858 254.149763,321.859336 253.920455,319.336948 C253.691147,316.661687 253.461839,313.960948 253.232531,311.260209 C253.003222,308.763299 249.054028,308.73782 249.283336,311.260209" id="Fill-873" fill="#D28554"></path>
            <path d="M238.801642,276.168937 C240.432277,282.181904 241.324031,288.245828 241.451424,294.462625 C241.502382,296.985013 245.426097,296.985013 245.37514,294.462625 C245.247747,287.889127 244.330514,281.443023 242.597965,275.124312 C241.935519,272.678359 238.113718,273.722985 238.801642,276.168937" id="Fill-874" fill="#D28554"></path>
            <path d="M302.568321,262.255213 C303.434596,264.701165 304.632094,266.815895 306.262729,268.82871 L309.039904,266.051535 L306.364643,261.210587 C305.549326,258.815592 301.727525,259.860217 302.568321,262.255213" id="Fill-875" fill="#D28554"></path>
            <path d="M323.70678,294.586707 C327.120922,298.867124 329.770704,303.631636 331.630647,308.778328 C332.471443,311.147844 336.293244,310.128697 335.426969,307.733702 C333.337718,301.899086 330.356713,296.625001 326.483955,291.809531 L323.70678,294.586707" id="Fill-876" fill="#D28554"></path>
            <path d="M319.222294,261.092701 C322.916701,266.035564 326.58563,271.003905 330.280038,275.946768 L333.668701,273.959431 C329.999773,269.016569 326.305365,264.048227 322.636436,259.105365 L319.222294,261.092701" id="Fill-877" fill="#D28554"></path>
            <path d="M323.426275,243.155716 C326.662066,246.34055 329.66855,249.678256 332.445725,253.270749 L335.834389,251.283412 C332.878863,247.436133 329.694028,243.792682 326.228929,240.37854 L323.426275,243.155716" id="Fill-878" fill="#D28554"></path>
            <path d="M341.159431,268.825479 C343.146768,270.863773 344.955754,273.003981 346.535431,275.373498 L349.949573,273.386161 C348.166066,270.761858 346.17873,268.315905 343.936607,266.048303 L341.159431,268.825479" id="Fill-879" fill="#D28554"></path>
            <path d="M335.312076,286.711507 L339.64345,292.520645 L343.057592,290.533308 C341.605308,288.18927 339.949194,285.972626 338.089251,283.934332 L335.312076,286.711507" id="Fill-880" fill="#D28554"></path>
            <path d="M350.637498,257.640341 C355.249137,261.538578 359.453118,265.869953 363.173005,270.659943 L365.95018,267.882768 C362.230294,263.092777 358.051791,258.761403 353.414673,254.837687 L350.637498,257.640341" id="Fill-881" fill="#D28554"></path>
            <path d="M339.579754,232.454673 C342.968417,234.23818 346.000379,236.429346 348.752076,239.104607 L351.529251,236.301953 C348.573725,233.422863 345.261498,230.97691 341.56709,229.066009 L339.579754,232.454673" id="Fill-882" fill="#D28554"></path>
            <path d="M367.899299,251.461763 C371.160569,253.703886 374.702104,255.767659 377.759545,258.315526 L380.53672,255.538351 C377.224493,252.761175 373.428171,250.519052 369.886635,248.0731 L367.899299,251.461763" id="Fill-883" fill="#D28554"></path>
            <path d="M364.313989,234.026893 C368.670842,235.937793 372.849344,238.230874 376.798538,240.906134 L378.785875,237.491992 C374.836681,234.816732 370.658178,232.54913 366.301325,230.638229 C363.982766,229.619082 361.995429,233.007746 364.313989,234.026893" id="Fill-884" fill="#D28554"></path>
            <path d="M378.600341,221.995327 C383.823469,223.906228 389.046597,225.79165 394.269725,227.677072 C396.66472,228.543346 397.683867,224.747024 395.314351,223.880749 C390.091223,221.995327 384.868095,220.109906 379.644967,218.199005 C377.249972,217.33273 376.230825,221.154531 378.600341,221.995327" id="Fill-885" fill="#D28554"></path>
            <path d="M348.739336,213.89346 C352.663052,214.734256 356.510332,215.829839 360.434047,216.670635 C362.905479,217.205687 363.950104,213.409365 361.478673,212.874313 C357.554957,212.033517 353.707678,210.937934 349.783962,210.097137 C347.312531,209.562085 346.267905,213.358408 348.739336,213.89346" id="Fill-886" fill="#D28554"></path>
            <path d="M352.421005,198.772286 C359.529555,199.027072 366.612626,199.867869 373.721175,200.071698 C376.243564,200.148134 376.243564,196.224418 373.721175,196.147982 C366.612626,195.944153 359.529555,195.077878 352.421005,194.84857 C349.898616,194.746655 349.898616,198.69585 352.421005,198.772286" id="Fill-887" fill="#D28554"></path>
            <path d="M342.734709,182.475685 C346.93869,182.501163 351.091714,182.093505 355.244738,181.252709 C357.716169,180.743135 356.671543,176.946813 354.174633,177.456386 C350.40379,178.220746 346.607467,178.577448 342.734709,178.52649 C340.186842,178.501012 340.186842,182.450206 342.734709,182.475685" id="Fill-888" fill="#D28554"></path>
            <path d="M383.445585,207.880379 C386.757812,208.211602 389.968125,208.950483 393.12748,209.995109 C395.547954,210.810426 396.567101,207.014104 394.172106,206.198786 C390.681528,205.026767 387.114513,204.313365 383.445585,203.931185 C380.923196,203.676398 380.948675,207.600113 383.445585,207.880379" id="Fill-889" fill="#D28554"></path>
            <path d="M377.874637,173.407097 C385.187016,173.075874 392.448438,172.311514 399.684381,171.190452 C402.181291,170.808272 401.111186,167.01195 398.639755,167.39413 C391.760513,168.464234 384.855793,169.152158 377.874637,169.483381 C375.377727,169.585296 375.352248,173.53449 377.874637,173.407097" id="Fill-890" fill="#D28554"></path>
            <path d="M389.661686,154.728464 C392.438861,153.709317 395.241515,152.664691 398.01869,151.620066 C400.388207,150.753791 399.36906,146.957469 396.974065,147.823744 C394.196889,148.868369 391.394235,149.912995 388.61706,150.932142 C386.273022,151.823895 387.292169,155.620217 389.661686,154.728464" id="Fill-891" fill="#D28554"></path>
            <path d="M350.367682,162.684654 C357.399796,160.162265 364.99244,159.092161 371.795246,155.881848 L369.807909,152.493184 C363.336326,155.525147 356.023947,156.493336 349.323056,158.888331 C346.95354,159.729128 347.972687,163.52545 350.367682,162.684654" id="Fill-892" fill="#D28554"></path>
            <path d="M333.866649,150.777048 C338.325417,149.273806 342.656791,147.515777 346.91173,145.502962 L344.949872,142.114299 C340.975199,143.974242 336.949568,145.579398 332.822023,146.980725 C330.427028,147.770564 331.446175,151.592365 333.866649,150.777048" id="Fill-893" fill="#D28554"></path>
            <path d="M373.713641,141.054138 C378.325281,140.136905 382.682134,138.50627 386.733243,136.187711 L384.745906,132.799048 C380.949584,134.939256 376.949432,136.417019 372.669015,137.257815 C370.197584,137.74191 371.24221,141.538232 373.713641,141.054138" id="Fill-894" fill="#D28554"></path>
            <path d="M350.764891,129.418919 C356.7269,126.488872 362.408645,123.07473 367.810123,119.201972 L365.822787,115.813308 C360.421308,119.686066 354.739564,123.100209 348.777555,126.030256 L350.764891,129.418919" id="Fill-895" fill="#D28554"></path>
            <polyline id="Fill-896" fill="#D28554" points="376.065213 106.793858 380.72781 103.634502 378.740474 100.22036 374.077877 103.379716 376.065213 106.793858"></polyline>
            <path d="M348.599204,82.7929479 C354.179033,79.0475829 359.22381,74.6397725 363.682578,69.5949953 L360.828967,66.8942559 C356.599507,71.6842464 351.834995,75.8627488 346.535431,79.429763 L348.599204,82.7929479" id="Fill-897" fill="#D28554"></path>
            <path d="M350.688455,100.60254 C353.312758,98.3094597 355.937062,96.0418578 358.561365,93.7487773 L356.34472,90.4875071 C353.720417,92.7805877 351.096114,95.0481896 348.47181,97.3412701 L350.688455,100.60254" id="Fill-898" fill="#D28554"></path>
            <path d="M330.742993,65.4287708 C333.953306,60.0018134 336.450216,54.269112 338.335638,48.2561452 C339.074519,45.8356712 335.201761,45.1222684 334.462879,47.5172637 C332.679372,53.1990077 330.23342,58.6004864 327.201458,63.7216997 L330.742993,65.4287708" id="Fill-899" fill="#D28554"></path>
            <path d="M314.052132,81.9191384 C316.880265,77.3329773 318.842123,72.3391574 319.886748,67.0395934 C320.396322,64.5681621 316.6,63.5235365 316.090426,65.9949678 C315.122237,70.9887877 313.313251,75.6004275 310.663469,79.9318019 L314.052132,81.9191384" id="Fill-900" fill="#D28554"></path>
            <path d="M312.561787,58.4517179 C314.752952,54.4770449 316.663853,50.4004572 318.319967,46.1964762 C319.237199,43.8269596 315.644706,42.2727606 314.701995,44.6422771 C313.045881,48.8462582 311.134981,52.9228459 308.943815,56.8975188 L312.561787,58.4517179" id="Fill-901" fill="#D28554"></path>
            <path d="M289.808351,94.1585926 C291.260635,86.8342933 293.502758,79.8079316 296.662114,73.0050231 C297.681261,70.7704911 294.292597,68.8090686 293.247971,71.0684287 C289.961223,78.1692748 287.540749,85.4935741 286.012028,93.1406392 C285.553412,95.5489681 289.349734,96.5917497 289.808351,94.1585926" id="Fill-902" fill="#D28554"></path>
            <path d="M296.536538,55.2920548 C297.148026,51.5212112 298.116216,47.9287183 299.517543,44.3871828 C300.460253,42.0176662 296.638452,40.9985193 295.72122,43.3425572 C294.319893,46.8586141 293.351704,50.4765856 292.740216,54.2474292 C292.358035,56.7188605 296.154358,57.7889648 296.536538,55.2920548" id="Fill-903" fill="#D28554"></path>
            <path d="M273.709233,109.528862 C273.683754,106.67525 274.014977,103.949032 274.753858,101.197336 C275.390825,98.7513829 271.594503,97.7067573 270.957536,100.15271 C270.11674,103.235629 269.73456,106.344027 269.785517,109.528862 C269.810996,112.076729 273.76019,112.076729 273.709233,109.528862" id="Fill-904" fill="#D28554"></path>
            <path d="M257.807665,55.3969678 C257.756707,52.5433564 258.08793,49.8171384 258.826812,47.0654417 C259.489257,44.6194891 255.692935,43.5493848 255.030489,46.0208161 C254.215172,49.1037355 253.807513,52.2121337 253.85847,55.3969678 C253.909428,57.9193564 257.833143,57.9448351 257.807665,55.3969678" id="Fill-905" fill="#D28554"></path>
            <path d="M174.510034,58.0371438 C173.720195,55.3109258 173.312536,52.5847078 173.287057,49.7310964 C173.287057,47.1832291 169.337863,47.1832291 169.363342,49.7310964 C169.38882,52.9159306 169.821958,56.0243287 170.713711,59.0817694 C171.427114,61.5022433 175.223436,60.4830964 174.510034,58.0371438" id="Fill-906" fill="#D28554"></path>
            <path d="M275.853564,76.1072518 C275.343991,67.7756515 276.414095,59.7027965 279.063877,51.8110633 C279.879195,49.3529825 276.082872,48.3180011 275.267555,50.7502074 C272.490379,58.9783096 271.394797,67.413408 271.929849,76.1072518 C272.082721,78.6688308 276.006436,78.6688308 275.853564,76.1072518" id="Fill-907" fill="#D28554"></path>
            <path d="M287.361835,34.9674744 C288.126195,32.2412564 288.661248,29.4386024 289.731352,26.7888204 C290.674063,24.4447825 287.08157,22.7886687 286.138859,25.1581853 C284.941361,28.13919 284.329873,31.2730668 283.463598,34.3559862 C282.775674,36.7764602 286.673911,37.3879483 287.361835,34.9674744" id="Fill-908" fill="#D28554"></path>
            <path d="M262.600387,25.217938 C262.93161,22.3898053 263.008046,19.536194 263.619534,16.7590186 C264.180065,14.2875873 260.383743,13.2429617 259.823212,15.714393 C259.135288,18.8482698 259.033373,22.0331039 258.651193,25.217938 C258.370928,27.7403267 262.320122,27.714848 262.600387,25.217938" id="Fill-909" fill="#D28554"></path>
            <path d="M202.902173,31.205199 C202.698344,28.3770663 202.239728,25.5489336 202.316164,22.6953222 C202.3926,20.1729336 198.468884,19.8671895 198.392448,22.3895781 C198.290533,25.5998909 198.800107,28.7592464 199.054893,31.9440805 C199.233244,34.4664691 203.106002,33.7021089 202.902173,31.205199" id="Fill-910" fill="#D28554"></path>
            <path d="M252.919745,96.6883791 C253.684105,89.5798293 254.117243,82.4458009 254.219157,75.3117725 C254.270115,72.7893838 250.32092,72.7639052 250.295442,75.3117725 C250.168048,82.4458009 249.734911,89.5798293 248.996029,96.6883791 C248.741243,99.2107677 252.664958,99.185289 252.919745,96.6883791" id="Fill-911" fill="#D28554"></path>
            <path d="M234.409493,104.457788 C234.205664,99.5658828 234.2821,94.6994563 234.613323,89.8075511 C234.791674,87.2851625 230.867958,87.3106411 230.689607,89.8075511 C230.332906,94.6994563 230.281948,99.5658828 230.485778,104.457788 C230.587693,106.980177 234.536887,106.980177 234.409493,104.457788" id="Fill-912" fill="#D28554"></path>
            <path d="M231.066495,74.2370559 C230.505964,66.0788015 230.735272,57.9960865 231.754419,49.8881918 C232.060163,47.3953918 228.136447,46.9421555 227.830703,49.4097756 C226.786078,57.8701875 226.582248,66.3305995 227.168258,74.841371 C227.346609,77.3341709 231.244846,76.7298558 231.066495,74.2370559" id="Fill-913" fill="#D28554"></path>
            <path d="M211.35493,65.3146041 C210.233869,59.4290307 209.749774,53.5179786 209.749774,47.5304904 C209.749774,42.6640639 205.902494,42.1544904 205.826058,47.5304904 C205.724144,53.87468 206.386589,60.1424335 207.558608,66.3592297 C208.042703,68.8561397 211.839025,67.7860354 211.35493,65.3146041" id="Fill-914" fill="#D28554"></path>
            <path d="M212.890534,97.232953 C212.126174,91.704081 211.667557,86.1242516 211.438249,80.5444222 C211.336335,78.0220336 207.38714,77.9965549 207.489055,80.5444222 C207.743842,86.480953 208.278894,92.3920051 209.094211,98.2775786 C209.425434,100.774489 213.221756,99.7298629 212.890534,97.232953" id="Fill-915" fill="#D28554"></path>
            <path d="M200.915732,102.557211 C199.539883,97.7672203 198.495258,92.9007938 197.858291,87.9579312 C197.552547,85.4865 193.603352,85.4610213 193.934575,87.9579312 C194.597021,93.2574952 195.641646,98.4551445 197.119409,103.601836 C197.832812,106.047789 201.629134,105.003163 200.915732,102.557211" id="Fill-916" fill="#D28554"></path>
            <path d="M189.267828,75.2365014 C188.197723,70.5993829 187.509799,65.9113071 187.229534,61.1467952 C187.076662,58.6244066 183.152946,58.6244066 183.305818,61.1467952 C183.611562,66.2680085 184.324965,71.3127858 185.471505,76.281127 C186.032036,78.7525583 189.828358,77.7079327 189.267828,75.2365014" id="Fill-917" fill="#D28554"></path>
            <path d="M177.841137,96.1819905 C176.26146,90.0925877 174.681782,84.0031848 173.102104,77.9392607 C172.465137,75.4933081 168.668815,76.512455 169.305782,78.9838863 C170.88546,85.0732891 172.465137,91.1372133 174.044815,97.2266161 C174.681782,99.6725687 178.478104,98.6534218 177.841137,96.1819905" id="Fill-918" fill="#D28554"></path>
            <path d="M184.350908,37.8485687 C183.790377,31.5808152 183.229846,25.3385403 182.643837,19.0707867 C182.414529,16.5483981 178.490813,16.9560569 178.720121,19.4784455 C179.306131,25.7461991 179.866662,32.0139526 180.452671,38.2562275 C180.681979,40.7786161 184.580216,40.3709573 184.350908,37.8485687" id="Fill-919" fill="#D28554"></path>
            <path d="M245.858,38.2498518 C246.749753,32.0075769 247.616028,25.7907807 248.507782,19.5739845 C248.839004,17.0770746 244.940767,16.5675011 244.584066,19.0898897 C243.717791,25.3066859 242.826038,31.5234822 241.959763,37.7402784 C241.603061,40.262667 245.501298,40.7467618 245.858,38.2498518" id="Fill-920" fill="#D28554"></path>
            <path d="M220.429158,31.617261 C220.225328,25.3495074 220.021499,19.0562752 219.81767,12.7885216 C219.741233,10.2406543 215.792039,10.4190051 215.893954,12.9668724 C216.072305,19.2346259 216.276134,25.5278581 216.479963,31.8210904 C216.581878,34.343479 220.505594,34.1651283 220.429158,31.617261" id="Fill-921" fill="#D28554"></path>
            <path d="M145.597877,69.7223886 C144.298464,65.3655355 142.973573,60.9832038 141.648682,56.6263507 C140.909801,54.2058768 137.113479,55.2250237 137.85236,57.6709763 C139.177251,62.0278294 140.476664,66.4101611 141.801555,70.7670142 C142.540436,73.1874882 146.336758,72.1683412 145.597877,69.7223886" id="Fill-922" fill="#D28554"></path>
            <path d="M155.419905,49.8071676 C153.942142,44.9152623 152.4389,40.0233571 150.935659,35.1314519 C150.196777,32.710978 146.400455,33.7556036 147.139336,36.1760775 C148.642578,41.0679827 150.14582,45.9598879 151.623583,50.8517932 C152.362464,53.2722671 156.158787,52.2531202 155.419905,49.8071676" id="Fill-923" fill="#D28554"></path>
            <path d="M153.43524,103.945451 C150.224927,98.4930152 147.982804,92.7348351 146.606955,86.5689962 C146.046425,84.097565 142.250102,85.1421905 142.810633,87.6136218 C144.237439,94.0852048 146.657913,100.200086 150.046576,105.932788 L153.43524,103.945451" id="Fill-924" fill="#D28554"></path>
            <path d="M128.411581,36.0029961 C125.94015,32.3085886 124.436908,28.3339156 123.82542,23.9515838 C123.468719,21.4546739 119.672396,22.4992995 120.029098,24.9962094 C120.691543,29.6842852 122.373136,34.0411383 124.997439,37.9903326 L128.411581,36.0029961" id="Fill-925" fill="#D28554"></path>
            <path d="M168.599206,26.6730822 C166.892135,22.5710158 166.20421,18.3670348 166.433519,13.9592244 C166.560912,11.4368357 162.637196,11.7425798 162.509803,14.2394898 C162.255016,18.9785229 163.070334,23.5901627 164.879319,27.9470158 C165.847509,30.2910537 169.567395,29.0171201 168.599206,26.6730822" id="Fill-926" fill="#D28554"></path>
            <path d="M124.234009,75.5952227 C119.265668,69.5058199 115.469346,62.2189194 111.647545,55.3651564 L108.258882,57.3524929 C112.233555,64.5374787 116.259185,72.0027299 121.456834,78.3978768 L124.234009,75.5952227" id="Fill-927" fill="#D28554"></path>
            <path d="M90.6654966,40.0754292 C88.4233734,37.6039979 86.588909,34.9287372 85.1366246,31.9222538 C84.0665203,29.6291732 80.4230701,31.1324149 81.518653,33.4254955 C83.0728521,36.737723 85.0601886,39.7696851 87.5316199,42.4704244 L90.6654966,40.0754292" id="Fill-928" fill="#D28554"></path>
            <path d="M103.710938,73.3021422 C99.2012133,68.8433744 94.4112227,64.7158294 89.3664455,60.8685498 L87.379109,64.2572133 C92.1690995,67.9006635 96.6788246,71.8498578 100.933763,76.0793175 L103.710938,73.3021422" id="Fill-929" fill="#D28554"></path>
            <path d="M59.4927014,99.6216114 C54.6007962,95.5450237 49.4795829,91.8506161 44.1290616,88.4619526 L42.4219905,92.0289668 C47.5177251,95.2392796 52.3331943,98.7808152 56.9448341,102.628095 L59.4927014,99.6216114" id="Fill-930" fill="#D28554"></path>
            <path d="M135.91536,113.661413 C134.717862,111.062589 133.291057,108.616636 131.609464,106.272598 L128.220801,108.259935 C129.876915,110.603972 131.30372,113.049925 132.501218,115.64875 C133.571322,117.94183 136.985464,115.954494 135.91536,113.661413" id="Fill-931" fill="#D28554"></path>
            <path d="M79.353327,97.7489289 L73.1365308,93.1372891 L70.3338768,95.9144645 C72.499564,97.9272796 74.8436019,99.6598294 77.3659905,101.137592 L79.353327,97.7489289" id="Fill-932" fill="#D28554"></path>
            <path d="M77.7481706,73.6078863 C73.5441896,70.3211374 69.3656872,67.0343886 65.1617062,63.7476398 L62.3845308,66.5248152 C66.5885118,69.811564 70.7670142,73.0983128 74.9709953,76.3850616 L77.7481706,73.6078863" id="Fill-933" fill="#D28554"></path>
            <path d="M36.346485,97.2204177 C33.3145229,96.3031855 30.5628262,94.9528158 27.9640016,93.1693087 L25.9766651,96.5579722 C28.8557551,98.5453087 31.9386746,100.023072 35.2763807,101.01674 C37.7223333,101.730143 38.7669589,97.9338206 36.346485,97.2204177" id="Fill-934" fill="#D28554"></path>
            <path d="M71.3677869,125.337783 C63.800621,124.012892 56.946858,120.98093 51.0103272,116.063546 L48.2331518,118.840722 C54.6792561,124.165764 62.0680713,127.7073 70.3231613,129.134106 C72.7945926,129.567243 73.8646969,125.796399 71.3677869,125.337783" id="Fill-935" fill="#D28554"></path>
            <path d="M34.7422604,127.769461 C30.0032272,126.546485 25.34063,125.0942 20.7289902,123.412608 C18.333995,122.520854 16.9581466,126.215262 19.3531419,127.107016 C23.939303,128.788608 28.6273789,130.240892 33.366412,131.43839 C35.8123646,132.075357 37.2136916,128.380949 34.7422604,127.769461" id="Fill-936" fill="#D28554"></path>
            <path d="M86.4530316,145.959621 C83.3701122,144.864038 80.2617141,143.921327 77.1023587,143.182445 C74.6309274,142.596436 73.5863018,146.392758 76.0577331,146.978768 C79.2170885,147.717649 82.3254866,148.634881 85.408406,149.755943 C87.7779226,150.622218 88.7970696,146.825896 86.4530316,145.959621" id="Fill-937" fill="#D28554"></path>
            <path d="M51.3686774,145.014402 C44.6423078,144.86153 38.2981182,143.12898 31.9539286,140.988772 C29.5334547,140.198933 28.5143078,143.995255 30.909303,144.785094 C37.5592367,147.027217 44.311085,148.810724 51.3686774,148.938118 C53.8910661,148.989075 53.8910661,145.065359 51.3686774,145.014402" id="Fill-938" fill="#D28554"></path>
            <path d="M91.7005074,174.026188 C87.0124316,173.159913 82.3243557,172.624861 77.5853226,172.471989 C75.0374553,172.395553 75.0629339,176.319268 77.5853226,176.395704 C81.9676543,176.548576 86.3245074,177.007192 90.6558818,177.82251 C93.1273131,178.281126 94.1719387,174.484804 91.7005074,174.026188" id="Fill-939" fill="#D28554"></path>
            <path d="M31.4231719,171.00757 C24.2381862,170.727304 17.078679,169.911987 9.97012929,169.045712 C7.44774066,168.739968 7.47321933,172.689162 9.97012929,172.994906 C17.1041577,173.835702 24.2381862,174.65102 31.4231719,174.931285 C33.9455606,175.0332 33.9455606,171.109484 31.4231719,171.00757" id="Fill-940" fill="#D28554"></path>
            <path d="M64.1075261,184.545293 C59.5468437,184.774601 55.0371185,184.621729 50.5273934,184.061198 C48.0304835,183.755454 48.0559621,187.704648 50.5273934,188.010393 C55.0371185,188.545445 59.5468437,188.698317 64.1075261,188.494487 C66.6044361,188.367094 66.6299148,184.4179 64.1075261,184.545293" id="Fill-941" fill="#D28554"></path>
            <path d="M86.6578264,196.951059 C80.6448596,197.588026 74.7338075,198.734567 68.8991913,200.467116 C66.4787174,201.180519 67.4978643,204.976841 69.9438169,204.263439 C75.4217316,202.658282 81.001561,201.511742 86.6578264,200.874775 C89.1547364,200.619988 89.180215,196.670794 86.6578264,196.951059" id="Fill-942" fill="#D28554"></path>
            <path d="M34.6986794,209.00197 C29.6793808,210.377818 24.8639116,212.212283 20.2013144,214.454406 L22.1886509,217.84307 C26.545504,215.753818 31.0552291,214.097705 35.743305,212.798292 C38.1637789,212.135847 37.144632,208.339525 34.6986794,209.00197" id="Fill-943" fill="#D28554"></path>
            <path d="M41.6186074,193.192038 C38.9943041,193.701611 36.3954794,194.236664 33.7711761,194.746237 C31.2997448,195.25581 32.3443704,199.052133 34.8412804,198.542559 C37.440105,198.032986 40.0389297,197.497934 42.663233,196.98836 C45.1346643,196.478787 44.0900387,192.682464 41.6186074,193.192038" id="Fill-944" fill="#D28554"></path>
            <path d="M69.8804654,213.243471 C67.1287687,215.001499 63.5872332,215.765859 60.4788351,216.657613 C57.217565,217.600324 53.9053375,218.492077 50.5676313,219.230959 C48.0962,219.766011 49.1408256,223.562333 51.6122569,223.027281 C58.1093185,221.600475 66.1860578,220.275584 71.8678019,216.657613 L69.8804654,213.243471" id="Fill-945" fill="#D28554"></path>
            <path d="M54.780168,232.863822 C49.9137415,234.902116 44.9199216,236.609187 39.7987083,237.959557 C37.3527557,238.622002 38.3973813,242.418324 40.8433339,241.755879 C45.9645472,240.405509 50.9583671,238.698438 55.8502723,236.660144 C58.1433529,235.691955 57.1242059,231.895632 54.780168,232.863822" id="Fill-946" fill="#D28554"></path>
            <path d="M95.290237,219.740815 C88.1307299,223.333308 81.6336682,228.250692 74.7034692,232.301801 L76.6908057,235.690464 C83.6210047,231.639355 90.1180664,226.74745 97.2775735,223.129479 L95.290237,219.740815" id="Fill-947" fill="#D28554"></path>
            <path d="M82.9967773,249.385251 C78.7163602,251.627374 74.7671659,254.302635 71.0727583,257.411033 L73.8499336,260.188209 C77.2895545,257.309118 81.0094408,254.863166 84.9841137,252.799393 L82.9967773,249.385251" id="Fill-948" fill="#D28554"></path>
            <path d="M59.136,248.83746 C56.2059526,250.595488 53.2759052,252.378995 50.3458578,254.162502 L52.3331943,257.551166 C55.2632417,255.767659 58.1932891,254.00963 61.1233365,252.226123 L59.136,248.83746" id="Fill-949" fill="#D28554"></path>
            <path d="M78.2067867,277.679318 C75.0219526,280.609365 71.8625972,283.513934 68.7032417,286.418502 L71.4804171,289.221156 C74.6397725,286.291109 77.8246066,283.38654 80.9839621,280.456493 L78.2067867,277.679318" id="Fill-950" fill="#D28554"></path>
            <path d="M109.838559,238.098199 C104.946654,241.716171 100.054749,245.359621 95.1883223,248.977592 L97.1501801,252.366256 C102.042085,248.748284 106.933991,245.130313 111.825896,241.486863 L109.838559,238.098199" id="Fill-951" fill="#D28554"></path>
            <path d="M102.271393,264.889024 C99.7490047,267.920986 97.5068815,271.10582 95.5705024,274.545441 L98.9591659,276.532777 C100.717194,273.3989 102.755488,270.443374 105.074047,267.691678 L102.271393,264.889024" id="Fill-952" fill="#D28554"></path>
            <path d="M114.004322,282.43109 C111.278104,285.564967 108.67928,288.77528 106.156891,292.03655 L109.545555,294.023886 C111.864114,291.017403 114.284588,288.087355 116.781498,285.208265 L114.004322,282.43109" id="Fill-953" fill="#D28554"></path>
            <path d="M128.310597,256.748588 L123.087469,262.787033 L125.864645,265.564209 C128.106768,263.525915 130.017668,261.258313 131.699261,258.735924 L128.310597,256.748588" id="Fill-954" fill="#D28554"></path>
            <path d="M135.523842,270.631233 C131.217947,276.82255 127.905719,283.523441 125.536203,290.682948 C124.746364,293.077944 128.542686,294.122569 129.332525,291.727574 C131.600127,284.873811 134.784961,278.529621 138.912506,272.618569 L135.523842,270.631233" id="Fill-955" fill="#D28554"></path>
            <path d="M116.097988,301.361744 L112.989589,308.139071 C111.919485,310.432152 115.308149,312.419488 116.378253,310.126408 L119.51213,303.349081 C120.556755,301.056 117.168092,299.068664 116.097988,301.361744" id="Fill-956" fill="#D28554"></path>
            <path d="M156.884929,266.723488 C155.203336,269.780929 153.496265,272.83837 151.814673,275.89581 L155.203336,277.883147 C156.910408,274.825706 158.592,271.768265 160.299071,268.710825 L156.884929,266.723488" id="Fill-957" fill="#D28554"></path>
            <path d="M151.879682,291.517571 C149.663037,297.30123 147.955966,303.186804 146.783947,309.276206 C146.299852,311.747638 150.096174,312.817742 150.580269,310.320832 C151.752288,304.256908 153.459359,298.345856 155.676004,292.562197 C156.593236,290.19268 152.796914,289.173534 151.879682,291.517571" id="Fill-958" fill="#D28554"></path>
            <path d="M164.108197,305.616682 L163.318358,311.196512 C162.987135,313.667943 166.757979,314.738047 167.11468,312.241137 L167.904519,306.661308 C168.235742,304.189877 164.43942,303.119773 164.108197,305.616682" id="Fill-959" fill="#D28554"></path>
            <path d="M170.949843,274.835682 C169.956175,279.319929 169.370165,283.829654 169.166336,288.390336 C169.064421,290.938204 173.013615,290.912725 173.11553,288.390336 C173.293881,284.160876 173.828933,280.007853 174.746165,275.880308 C175.281217,273.408876 171.484895,272.364251 170.949843,274.835682" id="Fill-960" fill="#D28554"></path>
            <path d="M181.978579,287.144645 C181.443527,294.227716 180.577252,301.310787 180.347944,308.419336 C180.246029,310.941725 184.195224,310.941725 184.27166,308.419336 C184.526446,301.310787 185.367243,294.227716 185.902295,287.144645 C186.106124,284.622256 182.15693,284.622256 181.978579,287.144645" id="Fill-961" fill="#D28554"></path>
            <path d="M192.785451,306.900592 C192.123006,310.187341 191.817262,313.47409 191.919176,316.837275 C192.021091,319.359663 195.944807,319.385142 195.868371,316.837275 C195.766456,313.830791 195.995764,310.900744 196.607252,307.945218 C197.091347,305.473786 193.295025,304.429161 192.785451,306.900592" id="Fill-962" fill="#D28554"></path>
            <path d="M198.473518,277.97276 C197.963945,283.960248 198.24421,289.845821 199.237879,295.756874 C199.645537,298.253783 203.44186,297.183679 203.034201,294.712248 C202.116969,289.157897 201.938618,283.578068 202.397234,277.97276 C202.626542,275.450371 198.677348,275.47585 198.473518,277.97276" id="Fill-963" fill="#D28554"></path>
            <path d="M212.070662,300.890389 C212.707629,307.311014 213.319117,313.73164 213.956084,320.152265 C214.185392,322.649175 218.134587,322.674654 217.8798,320.152265 C217.268312,313.73164 216.631345,307.311014 216.019857,300.890389 C215.76507,298.393479 211.841354,298.368 212.070662,300.890389" id="Fill-964" fill="#D28554"></path>
            <path d="M218.655975,277.937678 C219.191028,280.893204 219.72608,283.84873 220.235653,286.804256 C220.694269,289.301166 224.490592,288.25654 224.031975,285.75963 C223.522402,282.804104 222.98735,279.848578 222.452298,276.893052 C222.01916,274.421621 218.222838,275.466247 218.655975,277.937678" id="Fill-965" fill="#D28554"></path>
            <path d="M223.561299,295.769175 C223.968958,299.234275 224.351138,302.699374 224.758797,306.164474 C225.039062,308.661384 228.988256,308.686863 228.682512,306.164474 C228.300332,302.699374 227.892673,299.234275 227.510493,295.769175 C227.230228,293.272265 223.281034,293.246787 223.561299,295.769175" id="Fill-966" fill="#D28554"></path>
            <path d="M50.7743806,161.041129 C58.4222172,162.467935 66.4991404,162.264105 74.0207752,164.378835 C76.4438521,165.066759 77.4787079,161.270437 75.0556309,160.582513 C67.5592366,158.467783 59.457073,158.671612 51.8092364,157.244807 C49.360919,156.786191 48.3008228,160.582513 50.7743806,161.041129" id="Fill-967" fill="#D28554"></path>
            <path d="M373.361289,185.08982 C377.106654,185.08982 380.877498,185.08982 384.648341,185.08982 C387.17073,185.08982 387.17073,181.166104 384.648341,181.166104 C380.877498,181.166104 377.106654,181.166104 373.361289,181.166104 C370.813422,181.166104 370.813422,185.08982 373.361289,185.08982" id="Fill-968" fill="#D28554"></path>
            <path d="M173.271054,202.349349 C171.572064,196.208989 169.538424,192.132401 155.225718,193.380856 C140.887269,194.629311 137.025927,199.572174 136.948701,205.050088 C136.871474,210.528003 142.174383,215.139643 147.811942,216.566448 C155.611852,218.553785 158.443502,217.68751 164.827587,215.623737 C169.332486,214.145974 174.944302,208.489709 173.271054,202.349349" id="Fill-969" fill="#E8819C"></path>
            <path d="M284.541282,189.728404 C272.867334,190.263457 268.350024,194.161694 267.588679,201.015457 C266.801957,207.86922 273.451031,215.665694 286.292374,214.697504 C295.555398,214.00958 303.676405,207.971134 302.432876,201.244765 C301.163968,194.518395 296.21523,189.218831 284.541282,189.728404" id="Fill-970" fill="#E8819C"></path>
            <path d="M264.892659,218.5051 C289.581523,214.810692 314.320516,212.466654 339.184834,210.377403 L339.184834,208.262673 C314.145062,210.377403 289.20555,212.772398 264.341232,216.466806 L264.892659,218.5051" id="Fill-971" fill="#17111C"></path>
            <path d="M281.85782,228.07574 C308.912225,226.801807 336.016685,225.476916 363.07109,226.827285 L363.07109,224.738034 C336.016685,223.387664 308.912225,224.712555 281.85782,225.96101 L281.85782,228.07574" id="Fill-972" fill="#17111C"></path>
            <path d="M269.118483,237.614104 C287.6386,240.671545 306.158716,243.601592 324.853081,245.334142 L324.853081,243.244891 C306.357857,241.53782 287.987096,238.607773 269.666121,235.57581 L269.118483,237.614104" id="Fill-973" fill="#17111C"></path>
            <path d="M178.350711,216.524017 C152.392181,214.078064 126.382703,214.179979 100.322275,215.097211 L100.322275,217.186463 C126.382703,216.294709 152.392181,216.192794 178.350711,218.638747 L178.350711,216.524017" id="Fill-974" fill="#17111C"></path>
            <path d="M165.611374,227.193327 C137.875122,227.550028 110.340405,229.43545 82.8056872,232.51837 L82.8056872,234.607621 C110.340405,231.524701 137.875122,229.63928 165.611374,229.308057 L165.611374,227.193327" id="Fill-975" fill="#17111C"></path>
            <path d="M173.037758,238.544076 C155.563687,241.72891 138.268182,245.729062 121.023697,249.907564 L121.559398,251.920379 C138.803883,247.741877 156.124898,243.767204 173.57346,240.556891 L173.037758,238.544076" id="Fill-976" fill="#17111C"></path>
            <path d="M112.547575,355.939501 C90.3559928,398.944217 51.7421329,428.217603 26.5646816,438.65442 C-5.54605775,451.958219 8.11808665,457.490989 16.9744765,454.976094 C5.28404188,459.125671 4.90448232,470.643894 23.578813,465.085974 C20.112169,467.047593 10.6990917,469.663084 12.8752332,475.573089 C15.0766787,481.508243 24.5656679,478.037687 30.0060217,477.459261 C24.5403639,479.295135 20.036257,481.759733 22.5160462,485.632672 C31.1447004,499.18796 104.576825,471.146873 142.406261,383.603354 C157.866988,347.791239 125.503209,330.765395 112.547575,355.939501" id="Fill-977" fill="#E9AE5A"></path>
            <path d="M382.661687,580.410957 C375.991311,577.139912 357.172229,531.773043 338.606774,488.872038 C337.820532,493.300529 336.806026,497.678696 335.360355,501.956215 C328.258815,522.941223 312.432525,539.397093 293.004739,550.669615 C314.461536,583.329735 350.172139,627.388186 361.712143,630.155993 C376.16885,633.628332 402.368461,615.612426 408.912024,610.756184 C426.868776,597.420387 422.886841,590.50087 417.154883,590.878299 C423.64772,586.07238 422.40495,577.970254 411.727277,581.417432 C418.194751,569.21392 401.632945,571.22687 382.661687,580.410957" id="Fill-978" fill="#E9AE5A"></path>
        </g>
    </g>
</svg>