<?xml version="1.0" encoding="UTF-8"?>
<svg width="720px" height="720px" viewBox="0 0 720 720" version="1.1" xmlns="http://www.w3.org/2000/svg" xmlns:xlink="http://www.w3.org/1999/xlink">
    <title>img_r</title>
    <g id="img_r" stroke="none" stroke-width="1" fill="none" fill-rule="evenodd">
        <g id="raccoon" transform="translate(168.000000, 24.000000)">
            <path d="M70.9603657,395.195948 C97.3125616,374.361816 109.308177,322.504245 133.037077,302.461282 C155.215848,283.712961 181.162626,282.801917 203.269852,305.530061 C225.377079,328.234231 208.397203,385.030618 163.848875,421.13672 C123.283187,454.006221 50.7132939,452.016309 38.6222864,434.706478 C29.5599928,421.760066 47.68458,413.584647 70.9603657,395.195948" id="Fill-1565" fill="#6E6E6C"></path>
            <path d="M15.4363543,395.486439 C17.5987765,394.107182 22.676824,397.761003 25.5195588,403.01186 C23.2599491,397.204461 23.3328397,388.03361 26.1269808,387.017315 C29.5528406,385.783243 32.6871379,392.606937 35.4569821,398.632113 C33.7562006,392.026197 33.4160443,384.403986 37.0119823,383.968431 C40.6322172,383.532876 46.4877648,392.485949 48.5044057,398.365941 C48.5772964,393.478047 48.0670619,384.307196 52.0031562,383.605469 C55.9635474,382.879544 58.5876103,393.066689 59.1950322,395.607426 C61.8190951,406.762472 64.4674548,418.207887 63.0096421,429.58071 C62.2807358,435.121936 59.4622979,441.098717 53.9712034,442.284395 C38.0081543,445.744636 11.8404163,397.785201 15.4363543,395.486439" id="Fill-1566" fill="#393C3B"></path>
            <path d="M86.2600236,439.442697 C78.9695191,449.747698 82.9265364,464.374152 102.68764,462.925753 C89.1378543,472.542172 70.8396474,478.786908 68.9930394,476.83988 C67.1464314,474.892852 75.61205,469.407932 78.2260796,467.674602 C75.3482489,468.291952 62.3980107,473.301988 60.5753846,470.832587 C58.7527585,468.339441 67.0265218,465.300178 69.2808225,462.56959 C65.4916787,463.685569 59.3283247,465.53762 58.2011743,463.139452 C57.074024,460.741283 62.0862457,457.939462 66.6667929,455.470061 C63.8129442,455.992434 56.0428013,456.182388 55.8749278,453.665498 C55.7070544,451.124864 83.022464,441.888354 86.2600236,439.442697" id="Fill-1567" fill="#393C3B"></path>
            <path d="M86.4716697,438.339935 L86.1105813,438.555188 C102.600287,417.292994 107.655525,315.813256 100.891135,246.908442 C97.4487583,211.70265 177.802972,206.871421 181.437929,262.071806 C183.315589,290.365591 181.510147,329.3981 177.393739,349.990618 C180.330591,348.125094 183.171154,346.139984 185.867281,343.987456 C189.381875,348.962188 186.372805,362.40353 175.034628,379.288916 C179.199181,377.375558 181.606437,374.481604 185.987644,373.118336 C183.70075,383.402636 172.314428,392.706341 166.922174,397.370152 C169.762736,397.011397 172.651444,396.98748 175.492006,397.322318 C168.631326,402.416634 161.385485,407.056528 153.947063,411.31375 C134.448287,442.788493 110.688668,456.684258 102.961375,461.993827 C83.1255835,463.452762 79.1536107,448.719904 86.4716697,438.339935" id="Fill-1568" fill="#7D7E7C"></path>
            <path d="M186.441246,562.074074 C209.997258,544.652032 237.447419,533.339637 262.43686,518.017786 C287.426301,502.695935 310.982314,481.765619 319.391763,453.699425 C323.023115,441.599459 323.477035,428.616458 320.992425,416.230102 C329.23464,407.542946 334.753341,398.97512 337.667979,392.173364 L339.842013,386.588764 C369.561769,419.738376 429.741886,546.08398 321.75692,633.528312 C269.293428,675.98559 215.492069,671.689744 158.131028,672 C155.789761,672 153.329042,671.976134 151.25057,670.878307 C131.397582,631.428121 162.885233,579.496116 186.441246,562.074074" id="Fill-1569" fill="#959593"></path>
            <path d="M376.017978,456.326288 C354.894397,452.070738 336.916366,452.630039 317.123596,459.074157 L318.986729,453.578418 C320.874059,447.255887 321.890314,440.665863 322.13228,434.051523 C336.81958,432.932921 351.482684,431.182066 366.049002,428.87191 C369.751073,437.334376 373.186982,446.526364 376.017978,456.326288" id="Fill-1570" fill="#7D7E7C"></path>
            <path d="M299.505417,563.540875 C292.764382,557.41027 286.023346,551.303706 278.728582,545.870307 C268.304052,538.104873 256.772066,531.805977 244.638202,527.189992 C250.584759,523.944377 256.483165,520.626638 262.261195,517.092524 L268.015151,513.438202 C303.285212,527.718907 338.507124,555.655234 365.447191,582.918397 C360.319189,592.150367 354.011506,601.238088 346.33154,610.085393 C332.19944,593.280322 315.828354,578.326453 299.505417,563.540875" id="Fill-1571" fill="#7D7E7C"></path>
            <path d="M308.644454,477.195506 C333.037054,484.93257 357.881809,491.226328 383.012136,496.02946 C383.868852,506.629474 383.773661,517.513418 382.46479,528.539326 C353.241266,520.045118 321.471392,507.646887 292.961798,495.532584 C298.839819,489.901327 304.170495,483.796854 308.644454,477.195506" id="Fill-1572" fill="#7D7E7C"></path>
            <path d="M260.54103,664.449438 C240.06733,627.589969 215.998828,592.755746 188.764045,560.613907 C196.620232,554.94322 204.881133,549.892019 213.332486,545.150562 C246.828412,575.290981 276.229598,609.982246 300.51236,647.961557 C287.299681,655.681316 273.991775,660.923128 260.54103,664.449438" id="Fill-1573" fill="#7D7E7C"></path>
            <path d="M158.157365,671.999001 C155.811207,671.999001 153.345347,671.974826 151.262534,670.86278 C141.255452,650.773422 144.271941,627.492975 152.722897,607.065169 C158.803756,614.05172 164.190343,621.690994 169.529049,629.306094 C179.46431,643.472596 189.399571,657.663274 199.334831,671.853951 C185.784572,672.119875 172.06673,671.926476 158.157365,671.999001" id="Fill-1574" fill="#7D7E7C"></path>
            <path d="M117.717723,184.810422 C129.295474,185.62404 184.187912,172.031831 220.191598,157.051685 C236.6833,179.354394 259.551155,201.274224 279.015198,217.067988 C312.262278,244.013106 369.959264,317.525898 337.982621,392.091608 C330.599708,409.273308 307.06068,437.630293 263.506287,450.911413 C222.277032,463.474634 114.17009,465.532609 80.036102,304.125129 C72.173779,266.842274 69.5370243,212.952037 76.5603799,171.696812 C95.1614857,179.450114 111.149807,184.355753 117.717723,184.810422" id="Fill-1575" fill="#959593"></path>
            <path d="M73.1625727,196.602946 L69.7928737,199.306641 C72.7084998,190.405984 73.87953,180.955017 76.627866,172.006507 L76.8190546,170.738403 L76.9624461,170.786256 L77.0102432,170.642697 L77.0580404,170.834109 C95.4838414,178.514514 111.280799,183.371593 117.80511,183.826197 C120.027677,183.993682 123.875348,183.586932 128.87015,182.773431 C129.013542,183.539079 136.350404,201.938555 136.661085,205.695015 L131.666283,202.129967 C136.207012,211.772346 137.019564,219.907355 142.970309,236.799462 L135.203272,233.258341 C139.982987,242.82894 148.49088,262.400814 152.50584,272.186752 L144.380325,268.64563 C152.027869,287.427931 163.284097,299.104062 170.190786,318.17348 L163.475286,318.532378 C172.580643,328.126903 192.153576,357.915392 191.293227,365.404386 C188.186412,363.322781 186.656903,363.346707 185.461975,363.035663 C190.098298,372.151658 199.538235,393.972624 197.554653,394.762198 L193.396301,393.398388 C191.962387,405.935873 194.997506,412.659219 189.118457,421.87092 L186.394019,418.616916 C181.638203,424.239643 179.081055,429.45562 171.887584,431.034769 C157.763527,434.145213 145.742544,428.283221 137.856014,421.631655 L138.381783,426.153763 C126.504191,412.754925 119.525807,399.427865 109.75129,385.981174 L109.799088,389.474443 C99.4510048,373.228351 92.6638096,354.757095 88.1230804,336.046574 L86.5218759,341.908566 C85.3269472,333.151467 82.9370897,322.169205 81.742161,313.412107 C81.2880881,315.900463 80.3799423,318.197407 79.1850135,319.05876 C77.1536347,305.444583 77.9422876,292.500348 75.337343,279.556113 C74.9071687,282.116248 73.9512257,283.575765 72.9474856,284.748163 C71.6569625,267.018628 71.3462811,247.87743 72.302224,230.171822 C71.4418754,232.636252 70.6532224,233.354047 69.553888,234.957122 C69.1237136,223.304918 70.2469466,209.379696 73.1625727,196.602946" id="Fill-1576" fill="#BEB1AE"></path>
            <path d="M118.272,192.06213 C118.465294,196.870328 118.996854,201.630202 119.794193,206.390076 L117.305528,206.607533 C116.508189,201.87182 116.000791,197.111946 115.783335,192.303748 L118.272,192.06213" id="Fill-1577" fill="#A69C97"></path>
            <path d="M103.48498,187.096881 C103.605789,190.04462 103.871569,192.968198 104.378966,195.867613 L101.938625,196.49582 C101.431227,193.378948 101.092962,190.237915 100.996315,187.072719 L103.48498,187.096881" id="Fill-1578" fill="#A69C97"></path>
            <path d="M103.315847,208.902903 C103.388333,212.551335 103.799083,216.151443 104.548099,219.727389 L102.059434,219.969007 C101.310418,216.393061 100.899667,212.792953 100.827182,209.144521 L103.315847,208.902903" id="Fill-1579" fill="#A69C97"></path>
            <path d="M126.960372,213.892315 C126.887886,218.144791 127.636902,222.203973 129.231581,226.166508 L126.887886,227.060494 C125.220722,222.904665 124.399221,218.603865 124.471707,214.133933 L126.960372,213.892315" id="Fill-1580" fill="#A69C97"></path>
            <path d="M114.901429,215.486993 C115.867901,219.715308 116.616917,223.967784 117.124315,228.244422 L114.635649,228.48604 C114.128252,224.18524 113.379236,219.956926 112.412764,215.728611 L114.901429,215.486993" id="Fill-1581" fill="#A69C97"></path>
            <path d="M87.7566384,203.720198 C87.3942114,200.772458 87.5391822,197.848881 88.1673889,194.949465 L90.6318923,195.360216 C90.0520092,198.066337 89.9070384,200.748297 90.2453035,203.47858 L87.7566384,203.720198" id="Fill-1582" fill="#A69C97"></path>
            <path d="M83.7428301,214.339308 C83.4528885,219.558256 83.8878009,224.680557 84.95092,229.802858 L82.4622548,230.044476 C81.3508121,224.704719 80.9642234,219.364962 81.2541649,213.928557 L83.7428301,214.339308" id="Fill-1583" fill="#A69C97"></path>
            <path d="M93.3370247,218.289762 C93.7236135,224.620153 94.738409,230.781411 96.4297348,236.870184 L94.1102022,237.764171 C92.346391,231.457942 91.2349483,225.079227 90.8241978,218.53138 L93.3370247,218.289762" id="Fill-1584" fill="#A69C97"></path>
            <path d="M78.5819414,238.259488 C78.4369706,244.372422 79.2101482,250.316225 80.9739594,256.16338 L78.6544268,257.057366 C76.8181302,250.992755 75.9483055,244.831497 76.0932762,238.501106 L78.5819414,238.259488" id="Fill-1585" fill="#A69C97"></path>
            <path d="M92.0806112,266.238849 C90.9450067,260.947416 90.1718292,255.63182 89.7369169,250.219578 L92.225582,250.243739 C92.6604944,255.438526 93.4095101,260.536665 94.496791,265.610643 L92.0806112,266.238849" id="Fill-1586" fill="#A69C97"></path>
            <path d="M83.1890697,271.095371 C83.623982,275.372009 84.348836,279.576162 85.4119551,283.731991 L83.0924225,284.625978 C81.956818,280.252692 81.1594787,275.831083 80.7004045,271.336989 L83.1890697,271.095371" id="Fill-1587" fill="#A69C97"></path>
            <path d="M106.130697,269.114103 C104.850121,263.049492 103.738679,256.960719 102.82053,250.823622 L105.260872,250.364548 C106.17902,256.477483 107.290463,262.566256 108.5952,268.630867 L106.130697,269.114103" id="Fill-1588" fill="#A69C97"></path>
            <path d="M107.906589,229.863263 C108.075721,232.400252 108.413987,234.913079 109.018031,237.377582 L106.674337,238.271569 C106.021969,235.565447 105.611218,232.883488 105.417924,230.104881 L107.906589,229.863263" id="Fill-1589" fill="#A69C97"></path>
            <path d="M120.639856,265.598562 C121.292225,270.672539 122.234535,275.674031 123.442625,280.6272 L120.978121,281.062112 C119.770031,276.108944 118.827721,271.107452 118.175353,266.033474 L120.639856,265.598562" id="Fill-1590" fill="#A69C97"></path>
            <polyline id="Fill-1591" fill="#A69C97" points="118.718993 246.679874 119.371362 251.415587 116.882697 251.657204 116.206166 246.921492 118.718993 246.679874"></polyline>
            <path d="M132.177115,235.154697 C133.916764,242.330751 134.979883,249.603452 135.946355,256.900315 L133.45769,257.141933 C132.51538,250.062526 131.524746,243.007281 129.83342,236.048683 L132.177115,235.154697" id="Fill-1592" fill="#A69C97"></path>
            <path d="M140.005537,271.614849 C140.730391,275.601546 141.865996,279.443272 143.364027,283.212512 L141.044494,284.106499 C139.449816,280.143964 138.290049,276.06062 137.516872,271.856467 L140.005537,271.614849" id="Fill-1593" fill="#A69C97"></path>
            <path d="M159.999425,320.711622 C158.573879,316.604117 156.834229,312.665744 154.756315,308.84818 L156.858391,307.495119 C159.032953,311.505978 160.869249,315.637645 162.367281,319.962607 L159.999425,320.711622" id="Fill-1594" fill="#A69C97"></path>
            <path d="M146.650031,295.039712 C147.374885,298.615658 148.075578,302.167443 148.800431,305.743389 L146.311766,305.985007 C145.586912,302.409061 144.88622,298.857276 144.161366,295.28133 L146.650031,295.039712" id="Fill-1595" fill="#A69C97"></path>
            <path d="M135.837627,307.422634 C136.441672,312.859038 137.311497,318.222957 138.471263,323.562715 L135.982598,323.804333 C134.822831,318.464575 133.953007,313.100656 133.348962,307.664252 L135.837627,307.422634" id="Fill-1596" fill="#A69C97"></path>
            <path d="M130.23209,290.43689 C130.473708,292.925555 131.053591,295.293411 131.995901,297.612944 L129.652207,298.50693 C128.637411,295.969942 128.009204,293.384629 127.743425,290.678508 L130.23209,290.43689" id="Fill-1597" fill="#A69C97"></path>
            <path d="M120.651937,296.634391 C121.014364,303.037267 121.932512,309.343497 123.454706,315.601402 L121.135173,316.471227 C119.540494,310.020027 118.549861,303.520503 118.163272,296.876009 L120.651937,296.634391" id="Fill-1598" fill="#A69C97"></path>
            <path d="M110.141555,280.808413 C111.035542,284.819272 111.929528,288.805969 112.847676,292.792665 L110.359011,293.034283 C109.440863,289.047587 108.546876,285.06089 107.628728,281.050031 L110.141555,280.808413" id="Fill-1599" fill="#A69C97"></path>
            <path d="M106.130697,300.645249 C106.323991,303.448018 106.903874,306.154139 107.797861,308.811937 L105.381681,309.440144 C104.415209,306.589052 103.835326,303.665474 103.61787,300.645249 L106.130697,300.645249" id="Fill-1600" fill="#A69C97"></path>
            <path d="M170.787667,420.209906 C172.16489,422.650247 173.832054,424.848971 175.78916,426.8544 L173.880378,428.47324 C171.778301,426.298679 170.01449,423.882499 168.516458,421.273025 L170.787667,420.209906" id="Fill-1601" fill="#A69C97"></path>
            <path d="M115.360503,315.613483 C115.432989,321.702256 116.882697,327.428602 119.685465,332.840845 L117.365933,333.734831 C114.442355,328.105133 112.944324,322.16133 112.871838,315.855101 L115.360503,315.613483" id="Fill-1602" fill="#A69C97"></path>
            <path d="M99.2566652,323.043236 C98.4834876,319.20151 97.9277663,315.359784 97.5895011,311.445573 L100.078166,311.203955 C100.416431,315.118166 100.972153,318.959892 101.74533,322.801618 L99.2566652,323.043236" id="Fill-1603" fill="#A69C97"></path>
            <path d="M98.7255818,277.159982 C98.70142,281.605753 99.1604942,285.979038 100.078643,290.328162 L97.6141391,290.811398 C96.6476672,286.244818 96.2127549,281.654076 96.2369167,276.990849 L98.7255818,277.159982" id="Fill-1604" fill="#A69C97"></path>
            <path d="M85.8347865,296.549825 C86.8254202,301.116404 87.8160539,305.682984 88.8066876,310.273726 L86.3180225,310.515344 C85.3273888,305.924602 84.3367551,301.358022 83.3461213,296.791443 L85.8347865,296.549825" id="Fill-1605" fill="#A69C97"></path>
            <path d="M93.1920539,322.741213 C93.5061573,327.863515 94.5934382,332.792521 96.526382,337.576557 L94.2793348,338.688 C92.2739056,333.71067 91.0658157,328.564207 90.7275506,323.200288 L93.1920539,322.741213" id="Fill-1606" fill="#A69C97"></path>
            <path d="M106.408557,333.541537 C107.761618,338.494706 109.090517,343.447874 110.443578,348.401043 L108.027398,349.029249 C106.674337,344.076081 105.345438,339.098751 103.992378,334.145582 L106.408557,333.541537" id="Fill-1607" fill="#A69C97"></path>
            <path d="M118.380728,342.9888 C118.380728,345.888216 119.443847,348.90844 120.168701,351.662885 C120.893555,354.393169 121.521762,357.268422 122.70569,359.829573 L120.361996,360.72356 C119.105582,357.920791 118.40489,354.755596 117.631712,351.783694 C116.93102,349.053411 115.892063,346.057348 115.892063,343.230418 L118.380728,342.9888" id="Fill-1608" fill="#A69C97"></path>
            <path d="M129.70053,328.74542 C131.343533,332.828764 132.237519,337.08124 132.358328,341.502849 L129.869663,341.744467 C129.748854,337.540315 128.951515,333.529456 127.380998,329.639407 L129.70053,328.74542" id="Fill-1609" fill="#A69C97"></path>
            <path d="M108.19653,361.653789 C109.501267,368.225798 111.724153,374.459542 114.768539,380.427506 L112.424845,381.321492 C109.259649,375.136072 107.060926,368.684872 105.707865,361.895407 L108.19653,361.653789" id="Fill-1610" fill="#A69C97"></path>
            <path d="M122.669447,373.662202 C124.239964,376.948207 125.786319,380.234211 127.332674,383.520216 L125.013142,384.414202 C123.442625,381.128198 121.89627,377.842193 120.325753,374.556189 L122.669447,373.662202" id="Fill-1611" fill="#A69C97"></path>
            <path d="M134.689942,352.387739 C135.60809,357.944953 136.260458,363.55049 136.598724,369.204351 L134.110058,369.445969 C133.771793,363.792108 133.119425,358.186571 132.201276,352.629357 L134.689942,352.387739" id="Fill-1612" fill="#A69C97"></path>
            <path d="M143.750616,335.220782 C147.060782,340.512216 146.674193,346.649312 148.220548,352.496467 L145.876854,353.390454 C144.427146,347.881564 144.837897,341.671982 141.721025,336.718813 L143.750616,335.220782" id="Fill-1613" fill="#A69C97"></path>
            <path d="M153.415335,319.503533 C155.058337,323.756009 156.242265,328.129294 156.991281,332.623389 L154.502616,332.865007 C153.777762,328.588369 152.642157,324.432539 151.07164,320.397519 L153.415335,319.503533" id="Fill-1614" fill="#A69C97"></path>
            <path d="M161.683061,347.519137 C163.326063,352.303173 164.002593,357.183856 163.785137,362.233672 L161.320634,361.847083 C161.513928,357.23218 160.837398,352.762247 159.339366,348.413124 L161.683061,347.519137" id="Fill-1615" fill="#A69C97"></path>
            <path d="M152.569672,380.149645 C149.960198,375.77636 148.196387,371.113133 147.423209,366.087479 L149.911874,365.845861 C150.612566,370.436602 152.207245,374.689079 154.599263,378.675775 L152.569672,380.149645" id="Fill-1616" fill="#A69C97"></path>
            <path d="M165.302939,389.113672 C163.611613,384.595416 162.379362,379.980512 161.557861,375.2448 L164.046526,375.003182 C164.843865,379.521438 166.027793,383.918885 167.646634,388.219685 L165.302939,389.113672" id="Fill-1617" fill="#A69C97"></path>
            <path d="M176.803955,359.442984 C178.060369,363.260548 178.761061,367.17476 178.906031,371.20978 L176.417366,371.451398 C176.296557,367.633834 175.644189,363.96124 174.460261,360.336971 L176.803955,359.442984" id="Fill-1618" fill="#A69C97"></path>
            <path d="M169.664144,331.934778 C171.645411,335.897312 173.046796,340.02898 173.964944,344.353942 L171.476279,344.59556 C170.606454,340.488054 169.20507,336.573843 167.320449,332.828764 L169.664144,331.934778" id="Fill-1619" fill="#A69C97"></path>
            <path d="M185.888791,380.934903 C186.855263,385.59813 187.580117,390.285519 188.087515,395.021231 L185.598849,395.262849 C185.091452,390.527137 184.366598,385.839748 183.400126,381.176521 L185.888791,380.934903" id="Fill-1620" fill="#A69C97"></path>
            <path d="M177.999964,391.167425 C179.473834,397.038742 181.358454,402.740926 183.72631,408.298139 L181.406778,409.192126 C179.038921,403.634912 177.130139,397.932728 175.680431,392.061411 L177.999964,391.167425" id="Fill-1621" fill="#A69C97"></path>
            <path d="M157.704054,392.18222 C159.902778,398.270993 162.246472,404.335604 164.759299,410.303569 L162.415604,411.197555 C159.926939,405.205429 157.559083,399.16498 155.384521,393.076207 L157.704054,392.18222" id="Fill-1622" fill="#A69C97"></path>
            <path d="M139.836404,380.765771 C141.551892,386.564602 143.726454,392.145978 146.408413,397.55822 L144.064719,398.452207 C141.38276,393.039964 139.208198,387.434427 137.49271,381.659757 L139.836404,380.765771" id="Fill-1623" fill="#A69C97"></path>
            <path d="M131.935497,392.544647 C135.221501,398.875038 139.618948,404.480575 145.248647,408.902184 L143.67813,410.835128 C137.686004,406.147739 133.095263,400.179775 129.591802,393.438634 L131.935497,392.544647" id="Fill-1624" fill="#A69C97"></path>
            <path d="M118.054544,390.732512 C120.011649,394.815856 122.621124,398.464288 125.882966,401.629483 L124.312449,403.586589 C120.712342,400.10729 117.861249,396.120593 115.735011,391.626499 L118.054544,390.732512" id="Fill-1625" fill="#A69C97"></path>
            <path d="M145.876854,420.850193 C149.525285,423.870418 153.463658,426.45573 157.716135,428.557807 L156.701339,430.853178 C152.27973,428.630292 148.123901,425.972494 144.306337,422.807299 L145.876854,420.850193" id="Fill-1626" fill="#A69C97"></path>
            <path d="M153.88649,412.47813 C156.665097,415.884944 159.467865,419.267596 162.246472,422.674409 L160.216881,424.124117 C157.438274,420.741465 154.635506,417.334652 151.856899,413.927838 L153.88649,412.47813" id="Fill-1627" fill="#A69C97"></path>
            <path d="M175.668351,408.129007 C177.14222,411.656629 178.640252,415.184252 180.114121,418.736036 L177.697942,419.412566 C176.224072,415.884944 174.750202,412.357321 173.252171,408.805537 L175.668351,408.129007" id="Fill-1628" fill="#A69C97"></path>
            <path d="M191.78427,401.556998 C191.615137,404.67387 191.446004,407.790742 191.25271,410.907613 L188.764045,410.883452 C188.933178,407.76658 189.10231,404.649708 189.295604,401.532836 L191.78427,401.556998" id="Fill-1629" fill="#A69C97"></path>
            <path d="M127.755506,408.261897 C130.485789,411.644548 133.578499,414.664773 137.009474,417.322571 L135.438957,419.279676 C131.838849,416.476908 128.601169,413.287551 125.750076,409.759928 L127.755506,408.261897" id="Fill-1630" fill="#A69C97"></path>
            <path d="M79.7716854,190.394966 C79.6508764,194.405825 79.6750382,198.416683 79.8441708,202.427542 L77.3555056,202.234247 C77.186373,198.223389 77.1622112,194.236692 77.2830202,190.201672 L79.7716854,190.394966" id="Fill-1631" fill="#A69C97"></path>
            <path d="M10.3894517,128.392918 C6.6703639,124.801745 3.16722315,121.066925 0,117.164517 C0.695829328,116.972988 31.8881785,56.8088675 51.9472584,39.0924135 C69.630921,23.4588399 95.5205708,14.5527306 128.440496,15.1273183 C179.595949,16.0370822 187.82593,21.4956653 201.598552,31.5988323 C223.409202,47.5675821 251.050423,103.230765 262.759551,127.578919 C258.920492,132.486855 245.411806,139.573437 239.701206,141.728141 L245.195859,143.715257 C218.946297,162.652709 132.927396,185.229218 118.099033,184.199748 C103.246676,183.170279 40.2621245,159.396713 7.46216969,131.33768 L10.3894517,128.392918" id="Fill-1632" fill="#959593"></path>
            <path d="M90.8417184,75.5419056 C114.451927,76.5279537 127.24079,91.222475 127.24079,91.222475 C139.765718,75.349506 168.150756,72.6799612 186.146342,78.5721997 C212.299927,87.109933 238.645465,115.777477 262.759551,127.321455 C258.920492,132.251695 245.411806,139.370481 239.701206,141.534977 L245.195859,143.531123 C218.946297,162.554636 132.927396,185.233742 118.099033,184.199594 C103.246676,183.165446 40.2621245,159.283842 7.46216969,131.097297 L10.3894517,128.139153 C6.6703639,124.53166 3.16722315,120.779867 0,116.859725 C25.4577557,109.452339 58.977534,74.2191582 90.8417184,75.5419056" id="Fill-1633" fill="#EFEBDC"></path>
            <path d="M127.317483,15.1292674 C161.883243,15.7544367 176.903461,18.4474734 187.253933,23.2324226 C172.185572,38.5971589 156.298802,58.1216751 146.935236,82.046421 C135.790427,110.491621 129.989349,138.552102 127.678546,167.622472 C122.382956,165.915279 115.402405,165.506514 110.564162,165.891234 C114.776563,141.389409 115.859752,101.931612 111.334429,79.3533843 C106.303619,54.2985248 94.8940298,37.0823257 78.5258427,22.6793882 C92.4147309,17.4856746 108.758847,14.7926378 127.317483,15.1292674" id="Fill-1634" fill="#393C3B"></path>
            <path d="M103.536176,175.826267 C100.895597,168.408595 104.773204,166.258195 110.268463,165.702474 C116.810439,165.001782 128.44326,165.895768 133.153482,170.027436 C137.792338,174.086618 135.722694,177.928344 133.153482,180.634465 C129.489976,184.476191 122.305698,188.342079 116.643916,187.834681 C110.33983,187.254798 104.725626,179.136434 103.536176,175.826267" id="Fill-1635" fill="#17111C"></path>
            <path d="M85.4087897,92.5624079 C98.1702764,90.9163013 105.363549,93.8745219 108.637563,100.721371 C113.154269,110.192448 107.968422,122.287753 94.896262,132.736952 C84.8352398,140.752775 68.5846575,152.752654 64.3547265,166.11236 C47.339411,158.335102 29.4398726,148.649316 15.1011236,138.056977 C23.0352314,125.389114 49.9442838,97.0951653 85.4087897,92.5624079" id="Fill-1636" fill="#434544"></path>
            <path d="M148.800291,113.875905 C146.612467,107.087908 149.305173,102.062408 151.613207,99.4424794 L160.003871,94.6313375 C178.804728,90.5585392 194.864796,99.513932 208.376409,109.946012 C220.9023,119.639748 237.419166,137.479081 237.082578,148.125519 C223.931594,155.389867 203.712258,162.89239 183.420796,169.132584 C182.266779,150.912171 155.508014,134.69243 148.800291,113.875905" id="Fill-1637" fill="#434544"></path>
            <path d="M86.8148398,101.497935 C94.1841881,99.8307714 97.059442,105.822897 97.7359723,108.529019 C98.4125027,111.210978 96.9144712,115.197675 94.4741296,117.396398 C90.1008442,121.286448 78.5756667,118.676974 77.4883858,113.530511 C76.4011049,108.384048 79.4454914,103.189261 86.8148398,101.497935" id="Fill-1638" fill="#17111C"></path>
            <path d="M163.574382,104.708853 C166.23218,100.818803 174.616324,99.4899045 178.796315,103.307469 C183.000467,107.125033 182.468908,110.918435 180.825906,114.08363 C179.207065,117.248826 175.703604,119.254255 172.15182,119.447549 L167.802697,118.601887 C162.293807,115.847442 160.916584,108.623064 163.574382,104.708853" id="Fill-1639" fill="#17111C"></path>
            <path d="M51.5547871,38.9934617 C46.1128396,43.8687152 41.1005196,50.2644687 36.3746178,57.3842697 C31.6964524,46.6683658 18.640552,8.75240864 30.5507792,1.34298863 C40.3606057,-4.73901087 67.0691111,11.1417656 78.5258427,22.8230662 C68.1193115,26.8535976 59.049399,32.2598194 51.5547871,38.9934617" id="Fill-1640" fill="#959593"></path>
            <path d="M51.4936464,40.2652858 C49.3536631,42.2153004 47.2607124,44.4301319 45.2383106,46.8134831 C38.6537467,33.6448657 37.1487035,19.9466146 37.9482577,15.8780655 L38.912426,13.9761993 L40.6996648,13.5910112 C43.8978816,13.6150855 47.1196146,14.3132389 50.0591521,15.6373229 C56.7377812,18.670679 63.0636658,23.3410845 67.9550562,28.7818661 C61.8878509,32.0559648 56.3380041,35.8596971 51.4936464,40.2652858" id="Fill-1641" fill="#737370"></path>
            <path d="M200.450716,31.8495263 C196.011798,28.5778535 192.14874,25.8113654 187.253933,23.5019493 C207.217067,7.74499555 234.954306,6.37377973 238.817364,12.2916585 C242.60844,18.0651988 238.09754,41.15936 224.612827,60.4044944 C216.454815,48.0394956 208.10485,37.4787281 200.450716,31.8495263" id="Fill-1642" fill="#959593"></path>
            <path d="M200.766983,32.6802785 L199.334831,31.6142461 C205.861687,25.6783843 223.329243,17.9496499 228.024822,22.5287433 C228.095256,25.9206644 226.475281,36.0479715 216.473697,49.8337079 C211.120736,42.5410776 205.791253,36.4598477 200.766983,32.6802785" id="Fill-1643" fill="#737370"></path>
            <path d="M114.813579,465.114607 C107.461574,475.705138 111.451972,490.73686 131.379775,489.248329 C117.715687,499.131198 103.882308,504.450866 102.020123,502.44989 C100.157937,500.448914 104.075782,495.910115 106.711863,494.128758 C103.83394,494.763214 92.1771421,499.326416 90.3391408,496.788592 C88.5011395,494.250769 95.4178286,491.664142 97.7153302,488.857895 C93.870038,490.029198 84.2930838,493.34789 83.1564251,490.883273 C82.0439507,488.443058 90.4600619,484.123879 95.0550652,481.586055 C92.1771421,482.122903 83.2047936,482.562141 85.4539268,477.876929 C86.5905855,475.534323 111.572893,467.628028 114.813579,465.114607" id="Fill-1644" fill="#393C3B"></path>
            <path d="M113.645881,465.564275 L113.285619,465.779144 C137.49527,442.501632 146.501836,373.170457 152.482196,276.312132 C154.907965,236.87167 220.932103,246.206549 224.558747,301.284725 C226.432113,329.528106 224.558747,344.18697 222.733416,353.712844 C225.639535,351.850643 228.473601,349.869071 231.163562,347.720377 C234.694136,352.662372 231.66793,366.103643 220.355682,382.935075 C224.510712,381.049 226.93648,378.160201 231.28365,376.799362 C229.001986,387.041467 217.641704,396.328597 212.261781,401.007974 C215.095847,400.649859 217.977949,400.625984 220.836033,400.960226 C213.967024,406.045467 209.115487,410.915838 201.670059,415.165477 C181.543385,470.482395 137.807497,483.875918 130.097876,489.176028 C110.307447,490.632365 106.344558,475.925752 113.645881,465.564275" id="Fill-1645" fill="#868684"></path>
            <path d="M176.316211,487.062499 C188.791516,469.011374 195.315957,447.660838 202.605168,426.979749 C209.918278,406.298659 218.521936,385.354572 234.032421,369.837778 C249.519006,354.320983 293.230372,325.343548 315.050206,375.528066 C337.419718,427.003657 280.826764,487.301586 247.726577,505.065806 C234.916686,511.927624 220.648952,515.681302 206.357319,518.215632 C197.060588,519.889246 170.126357,523.188657 169.146496,502.364114 C168.859707,496.649917 173.06594,491.772527 176.316211,487.062499" id="Fill-1646" fill="#7D7E7C"></path>
            <path d="M158.765125,473.723549 C156.641228,469.333345 155.424164,458.333975 159.123085,457.689761 C162.845869,457.045546 167.14139,467.997196 168.69255,474.320044 C167.952766,464.871562 168.45391,458.286256 172.940343,457.594321 C177.45064,456.902387 179.192712,468.211934 180.743872,477.016202 C181.984801,471.456867 181.3882,463.082076 186.972377,462.58102 C192.580418,462.056105 198.212323,511.398179 186.089409,517.196111 C181.412064,519.438932 176.161984,516.384878 171.961919,513.306963 C148.336555,495.817727 146.093338,462.366282 148.980883,461.125572 C151.868427,459.884863 156.665092,469.619662 158.765125,473.723549" id="Fill-1647" fill="#393C3B"></path>
        </g>
    </g>
</svg>