<?xml version="1.0" encoding="UTF-8"?>
<svg width="720px" height="720px" viewBox="0 0 720 720" version="1.1" xmlns="http://www.w3.org/2000/svg" xmlns:xlink="http://www.w3.org/1999/xlink">
    <!-- Generator: Sketch 64 (93537) - https://sketch.com -->
    <title>img_g</title>
    <desc>Created with Sketch.</desc>
    <g id="img_g" stroke="none" stroke-width="1" fill="none" fill-rule="evenodd">
        <g id="giraffe" transform="translate(187.000000, 61.000000)">
            <path d="M258,428 C262.55186,436.846341 264.337833,446.628049 263.51597,456.647561 C271.608166,471.423171 280.127099,483.963415 301.748436,493 L301.653606,492.889024 C300.3892,491.303659 302.143563,485.184146 305.794534,484.153659 L306,484.106098 C277.566678,476.004878 273.141258,449.973171 258,428" id="Fill-394" fill="#DD965E"></path>
            <path d="M305.579981,483.543405 C309.271662,482.506699 316.877796,482.363155 321.158236,482.107966 C329.719116,481.597588 338.566419,482.841635 346.07708,487.020358 L347,487.769976 C341.351092,497.594759 327.905101,498.918552 325.979698,499.939309 C328.462035,501.374748 330.307876,503.543856 330.673861,504.787903 C319.47152,506.526379 305.261733,497.148178 301.410928,492.331482 C300.137935,490.73655 301.904213,484.580111 305.579981,483.543405" id="Fill-395" fill="#C06B33"></path>
            <path d="M106.634064,173.231949 C130.871745,150.400439 146.268308,121.579817 152.855497,109.902633 C154.680863,106.670413 156.093537,103.327285 157.141138,100 C159.252214,158.005661 151.347587,242.914795 147.458764,321.739752 C143.077886,410.657471 209.36247,380.41087 244.853928,411.417994 C274.774052,437.560944 269.536046,481.623698 229.77482,512.36147 C204.584773,531.849852 129.443198,535.747528 97.2532714,508.844055 C68.2537661,484.618255 52.5397485,453.246714 63.5078153,380.870352 C75.8250655,299.716297 98.269127,234.105413 106.634064,173.231949" id="Fill-396" fill="#F0AE62"></path>
            <path d="M229.40313,512.289132 C227.290186,513.969732 224.785956,515.507639 222,516.934563 C227.744078,558.125107 237.322758,591.562697 237.964467,594.051887 C239.247885,599.10954 253.77242,599.823003 254.195008,593.148168 C254.32022,591.388295 254.946277,580.083885 255.603638,564.482847 C256.401861,545.568175 258.718274,499.415105 259,474 C253.866328,487.539925 244.005922,500.842029 229.40313,512.289132" id="Fill-397" fill="#F0AE62"></path>
            <path d="M235,582.813545 C236.631037,589.22619 237.77118,593.230105 237.977039,594.027697 C239.275534,599.116339 253.970705,599.834172 254.398258,593.118442 C254.461599,592.129427 254.699129,588.093608 255,582 C250.011876,583.914222 240.415677,584.360874 235,582.813545" id="Fill-398" fill="#17111C"></path>
            <path d="M220.573804,503.381541 C199.703797,508.637407 160.087231,507.212624 140.469107,498.378971 C120.850984,489.545317 102.437204,474.806731 94.4980444,454.82811 C76.829056,410.390717 89.9025227,341.6212 94.4505045,306.682359 C96.3679463,291.991266 100.10775,259.157937 88.2861668,262.197474 C79.6022156,298.450281 70.0942398,337.473499 63.5020432,380.992698 C52.5520244,453.308341 68.2401845,484.653563 97.1919708,508.85904 C126.587463,533.444459 191.812177,532.288802 222,517.011964 C221.239362,511.376156 220.859043,504.917141 220.573804,503.381541" id="Fill-399" fill="#F8C667"></path>
            <path d="M140.831877,498.099488 C124.615519,490.714177 109.248515,479.215328 100,464 C103.130024,485.218871 111.293254,538.742519 112.991961,547.287244 C118.182454,573.509067 123.640336,592.202638 124.127927,594.044995 C125.449144,599.111477 140.312828,599.826185 140.753233,593.139699 C140.894792,590.979694 141.822789,574.350834 142.640685,553.036669 C142.939532,545.429005 144.528137,512.695403 145,499.735374 C143.552954,499.211255 142.121636,498.687136 140.831877,498.099488" id="Fill-400" fill="#F0AE62"></path>
            <path d="M121,582.813545 C122.631702,589.22619 123.766123,593.230105 123.983683,594.027697 C125.289044,599.116339 139.974359,599.834172 140.409479,593.118442 C140.471639,592.129427 140.70474,588.093608 141,582 C136.011655,583.914222 126.423465,584.360874 121,582.813545" id="Fill-401" fill="#17111C"></path>
            <path d="M147.101425,316.430549 C147.614974,303.382622 148.268582,290.191311 149,277 C146.899118,277.446083 144.30025,278.067413 143.537707,278.513496 C140.705407,280.154444 139.335944,283.308888 137.810859,286.144701 C132.379691,296.293089 124.676457,300.451219 129.547391,310.822648 C133.546847,319.361951 141.732505,318.915868 147.101425,316.430549" id="Fill-402" fill="#C06B33"></path>
            <path d="M146.68218,202.683068 C144.081316,199.781709 136.761519,199.236703 133.257361,201.032019 C130.43846,202.474684 125.221159,207.459892 124.644919,210.521547 C123.585885,216.131909 123.772773,224.499365 125.641657,229.901343 C126.498229,232.401961 133.880322,235.880386 135.842651,237.659673 C137.804979,239.454989 140.655028,240.480884 143.240318,239.775581 C147.834658,238.541301 149.376488,233.059175 150.15519,228.474707 C150.560115,226.022177 153.129831,209.880362 146.68218,202.683068" id="Fill-403" fill="#C06B33"></path>
            <path d="M125.879182,174.527688 C125.879182,174.527688 123.783182,172.046099 121.447182,170.934218 C119.095182,169.806223 116.087182,169.33891 114.743182,171.643243 C113.399182,173.947577 110.151182,190.239051 118.615182,189.997338 C129.191182,189.675053 127.319182,176.944821 125.879182,174.527688" id="Fill-404" fill="#C06B33"></path>
            <path d="M234.184468,414.275244 C229.936507,415.851977 230.049143,433.726824 233.862653,435.678226 C239.413966,438.535079 248.762698,436.177785 250.854497,434.085882 C256.244902,428.700011 241.248313,411.636948 234.184468,414.275244" id="Fill-405" fill="#C06B33"></path>
            <path d="M140.834028,251.700574 C138.857086,246.844063 123.461842,243.736521 121.733963,244.017606 C118.293772,244.59539 116.425795,248.967811 117.157419,252.372053 C117.889043,255.760679 120.364113,258.368516 122.621252,260.91389 C124.224599,262.69409 129.82853,268.831095 135.121132,264.458674 C140.413733,260.086253 141.472253,253.230921 140.834028,251.700574" id="Fill-406" fill="#C06B33"></path>
            <path d="M189,391 C189.497067,398.858136 192.062573,406.934555 198.107548,412.032988 C209.283535,421.450279 222.319515,416.336254 228.701212,406.201752 C228.941729,405.796372 229.438795,404.206035 230,402.13236 C217.044192,396.581772 202.388737,394.601646 189,391" id="Fill-407" fill="#C06B33"></path>
            <path d="M99.7331974,247.641752 C105.964536,244.125839 112.879612,239.727007 113.905219,232.83708 C114.899747,226.246715 107.782657,204.946277 105.886838,200.973139 C105.544969,200.279416 104.30181,198.702774 102.716781,197 C102.188438,199.948321 101.566858,202.959708 100.88312,206.002628 C98.0083132,220.586569 94.6207029,235.548905 91,251 C94.7605583,250.006715 98.8940646,248.114745 99.7331974,247.641752" id="Fill-408" fill="#C06B33"></path>
            <path d="M161,375.401116 C153.20317,366.799381 148.169372,353.720907 147.645349,333 C140.13435,334.646801 136.418549,339.187493 134.624167,341.329933 C131.432389,345.119173 126.160398,368.030484 134.401854,375.385128 C140.674252,381.013028 152.409196,382.036283 161,375.401116" id="Fill-409" fill="#C06B33"></path>
            <path d="M105.908043,266.842547 C103.401011,269.496536 97.6458772,299.274919 107.784374,303.492865 C117.938638,307.726609 131.136028,284.235651 129.921932,278.169391 C129.259697,274.899298 120.855624,270.286413 117.402544,267.648222 C113.965231,265.010031 108.888098,263.683037 105.908043,266.842547" id="Fill-410" fill="#C06B33"></path>
            <path d="M139.270443,189.995361 C140.993929,192.262175 151.478464,190.825462 155.436097,184.328324 C156.106341,171.094596 156.664878,158.243992 157,146 C145.66968,147.835801 134.96173,152.560992 134.131904,158.355736 C133.477618,163.049 135.40856,172.052405 136.605425,176.633925 L139.270443,189.995361" id="Fill-411" fill="#C06B33"></path>
            <path d="M129.300636,399.19074 C122.851066,400.92437 120.280937,425.997788 123.190517,430.17134 C127.296258,436.06247 137.625268,433.638599 140.033754,432.723628 C151.882212,428.148772 140.195397,396.253201 129.300636,399.19074" id="Fill-412" fill="#C06B33"></path>
            <path d="M105.067238,316.139732 C99.5119462,317.569482 99.4961641,323.320252 99.0542659,328.689756 C98.6754959,333.280841 100.206358,343.209657 105.966817,343.924532 C111.743058,344.639406 119.602534,340.238955 121.764679,332.280016 C123.926824,324.321077 110.622531,314.725869 105.067238,316.139732" id="Fill-413" fill="#C06B33"></path>
            <path d="M171.284053,461.861926 C174.765168,460.19286 175.423757,452.440282 174.780849,448.587391 C174.263386,445.483239 172.005365,438.307815 169.418051,436.74794 C161.091601,431.709544 142.713826,438.339012 141.098714,446.762337 C140.204914,451.410764 145.567712,454.530514 149.629013,456.57395 C151.808629,457.681461 162.659671,465.979996 171.284053,461.861926" id="Fill-414" fill="#C06B33"></path>
            <path d="M223.549075,431.614388 C220.251241,425.911248 203.351814,423.834475 198.602301,424.010202 C194.815315,424.153978 183.407018,432.013768 181.466187,435.400507 C179.509577,438.77127 183.596367,464.363512 195.919852,463.996082 C211.336044,463.532802 226.862689,437.333504 223.549075,431.614388" id="Fill-415" fill="#C06B33"></path>
            <path d="M237.883553,476.499842 C242.571348,474.051918 247.433942,465.300191 249.706331,462.052292 C251.104724,460.052354 252.693807,458.036417 252.963951,455.540495 C253.488348,450.548651 248.196702,446.292783 243.270544,446.020792 C238.344387,445.7488 233.831391,448.196724 229.493194,450.356657 C226.442154,451.876609 215.890643,457.30044 219.895132,466.29216 C223.883731,475.28388 234.38757,478.307785 237.883553,476.499842" id="Fill-416" fill="#C06B33"></path>
            <path d="M157.680157,469.46946 C156.265246,467.334568 140.701225,453.300795 129.827078,451.212997 C123.658701,450.019969 113.007124,454.069984 110.41577,457.601974 C103.22993,467.365964 125.502855,484.303817 130.129137,486.030567 C133.594874,487.333479 137.426263,487.082316 141.11457,486.658477 C145.899831,486.109056 160.319205,473.456684 157.680157,469.46946" id="Fill-417" fill="#C06B33"></path>
            <path d="M208.517955,471.424724 C204.101843,469.583434 190.243279,474.139038 189.247647,477.234309 C188.252014,480.32958 190.307514,496.424988 194.530923,498.075799 C202.752921,501.298056 225.556119,495.393231 225.989701,491.123345 C226.439341,486.853458 212.034786,472.885057 208.517955,471.424724" id="Fill-418" fill="#C06B33"></path>
            <path d="M250.982979,477.172466 C247.342959,475.786072 241.198481,483.064642 238.865134,488.027303 C236.531788,492.974209 235.100669,500.347306 236.640677,503.38792 C238.16513,506.428535 251.247425,507.153241 253.782995,503.734519 C256.33412,500.300042 254.623,478.543106 250.982979,477.172466" id="Fill-419" fill="#C06B33"></path>
            <path d="M240.541759,518.600587 C239.629759,514.216587 229.773759,516.072587 229.389759,518.344587 C228.989759,520.632587 229.629759,526.248587 230.461759,527.752587 C231.293759,529.256587 234.829759,529.960587 236.541759,530.056587 C238.253759,530.152587 240.029759,526.184587 240.461759,523.512587 C240.717759,521.880587 240.877759,520.216587 240.541759,518.600587" id="Fill-420" fill="#C06B33"></path>
            <path d="M131.907237,509.256272 C131.038671,504.210239 130.80179,498.896135 127.975003,494.260092 C125.164008,489.639818 111.914432,483.647654 109.245566,485.271846 C106.576701,486.911807 108.945516,500.993393 109.482448,503.137957 C110.035172,505.266752 116.115132,517.629533 120.947516,518.90681 C123.616382,519.616408 129.585797,516.068416 130.422779,515.201129 C131.796692,513.781933 132.207287,511.006614 131.907237,509.256272" id="Fill-421" fill="#C06B33"></path>
            <path d="M133.839312,522.884971 C131.791312,522.708971 126.687312,526.772971 126.063312,528.708971 C125.455312,530.628971 127.999312,534.772971 129.391312,535.796971 C130.783312,536.804971 136.383312,537.972971 137.711312,536.212971 C139.039312,534.468971 135.903312,523.060971 133.839312,522.884971" id="Fill-422" fill="#C06B33"></path>
            <path d="M173.531292,474.051298 C169.561583,475.092126 163.48199,482.073684 162.309832,485.180157 C161.137674,488.302642 158.121321,494.403499 161.684681,496.56522 C165.01361,498.598839 179.15765,499.191311 180.704899,493.410709 C182.236519,487.630107 177.501,473.026482 173.531292,474.051298" id="Fill-423" fill="#C06B33"></path>
            <path d="M92.9114921,371.004791 C90.6218791,380.180414 90.4481843,395.991695 92.0745991,403.230594 C93.7168042,410.469494 101.833087,410.374246 108.259794,405.834058 C112.428469,402.881349 120.797399,393.975598 121.93431,385.863585 C122.64488,380.926528 117.639312,359.241578 104.549042,355.241134 C97.9486406,353.225037 94.5852781,364.321508 92.9114921,371.004791" id="Fill-424" fill="#C06B33"></path>
            <path d="M93.2900638,434.006732 C94.7817497,443.05388 103.514328,452.994766 111.936137,445.17063 C120.357947,437.346494 113.75413,416.304428 109.449994,415.222534 C103.59202,413.732969 90.9282278,419.691229 93.2900638,434.006732" id="Fill-425" fill="#C06B33"></path>
            <path d="M157.941588,422.381844 C163.284593,426.064315 174.937736,426.240433 181.834493,420.460555 C188.747105,414.696687 189.222744,407.459831 186.321349,403.393102 C184.767597,401.231651 169.959386,388.182895 157.006166,387.126186 C144.0688,386.053466 146.193318,392.089517 146.050627,395.035494 C145.939644,397.244976 148.175145,415.609299 157.941588,422.381844" id="Fill-426" fill="#C06B33"></path>
            <path d="M108.897485,77.358739 C83.4092843,79.7732402 51.1961315,76.5120957 38,47.4596882 C54.3524178,41.7213282 78.8413926,47.428331 86.7083172,50.3915825 C97.3984526,54.4523346 111.768279,61.8996598 120,69.6291994 C119.888975,71.9025934 118.160155,76.57481 108.897485,77.358739" id="Fill-427" fill="#F0AE62"></path>
            <path d="M75.9365079,56.2972669 C80.4920635,58.7805133 89.1428571,65.4885036 98.1746032,69.0037485 C105.428571,71.8256194 112.952381,74.2766158 118,74.4539906 L116.253968,75.6794888 C110.095238,77.1629866 95.8095238,78.6142345 74.6984127,72.760868 C57.968254,68.1168748 48.6190476,58.4902637 46,52.072523 C52.6349206,51.7500235 60.968254,48.1380287 75.9365079,56.2972669" id="Fill-428" fill="#E98776"></path>
            <path d="M13.8952187,147.989802 C27.0750291,112.449792 83.310999,81.7583082 108.68847,65.1370553 C124.798888,54.5685371 144.188416,59.0843207 152.615891,67.8782153 C161.043366,76.6721098 161.217619,94.3232783 152.60005,109.613563 C143.982482,124.903848 120.363375,169.665564 81.441747,191.753292 C29.6888137,221.129653 1.52330539,181.327377 13.8952187,147.989802" id="Fill-429" fill="#F8C667"></path>
            <path d="M147.373917,69.875191 C149.204188,68.1872816 165.259198,52.2084061 170.412857,47 L171.616982,50.2150655 C172.756888,52.40131 174.282114,53.8963155 176,54.8608351 C171.600927,59.1368722 156.926648,74.6495633 154.518397,76.5786026 C151.756935,78.7809224 145.399151,71.7238537 147.373917,69.875191" id="Fill-430" fill="#DD965E"></path>
            <path d="M177.282884,33.819163 C183.173117,31.8604873 190.402771,33.4274279 193.936911,38.3789601 C197.487187,43.3461617 196.373692,51.0555094 191.22579,54.4557705 C186.723393,57.4016188 176.169388,59.3916333 171.683129,51.0241706 C167.600311,43.3775006 171.521753,35.7308305 177.282884,33.819163" id="Fill-431" fill="#C06B33"></path>
            <path d="M136.167599,29.5850066 C138.525827,30.0714937 140.819446,30.1499594 143,29.9145624 C141.352471,34.418492 132.937149,58.24067 131.806491,60.5161745 C130.57892,62.9956897 123.423474,62.0854879 124.037259,59.8570628 C124.586436,57.895421 129.512872,35.9878054 131.273467,28 C132.711017,28.6591116 134.31009,29.2083713 136.167599,29.5850066" id="Fill-432" fill="#DD965E"></path>
            <path d="M126.323625,5.71328149 C131.052567,1.08617077 139.935308,-2.80698445 148.993787,2.69768174 C158.068242,8.21830349 158.228003,16.4035028 155.336319,21.8603023 C151.869494,28.4180351 144.280821,31.2262126 136.148959,29.5030128 C128.033074,27.7798129 124.150868,23.3282133 123.144371,16.3077695 C122.601182,12.5103476 123.575727,8.40977014 126.323625,5.71328149" id="Fill-433" fill="#C06B33"></path>
            <path d="M0.131883014,152.238119 C1.02080966,141.086011 5.97340094,121.58965 16.6563943,123.080829 C27.3393877,124.58787 29.6728201,132.963849 31.4665471,138.071927 C41.7844456,132.265851 54.6103871,132.630714 64.6425592,139.023743 C66.2299282,132.773486 70.849172,127.633681 76.3732162,125.920412 C81.913134,124.223007 88.1991152,125.99973 92.358022,130.473265 C94.405728,132.662441 95.9296023,135.406843 97.1677501,138.278154 C101.739373,148.938491 102.247331,161.740414 98.5487611,172.829068 C95.9137286,180.729139 82.4687131,202.541585 54.3881555,202.985765 C26.3075979,203.44581 16.4500364,192.658564 9.6878444,184.583993 C2.89390508,176.477695 -0.757043627,163.390228 0.131883014,152.238119" id="Fill-434" fill="#DD965E"></path>
            <path d="M77.5383844,136.041469 C79.0263844,134.45454 82.7703844,134.972721 83.9223844,135.68522 C88.6263844,138.66476 90.7543844,153.287179 81.4743844,152.995702 C72.1783844,152.720419 72.5303844,141.401403 77.5383844,136.041469" id="Fill-435" fill="#17111C"></path>
            <path d="M16.830343,134.062402 C25.918343,135.215413 23.838343,153.801937 12.302343,149.297511 C8.20634301,147.69867 7.74234301,132.924766 16.830343,134.062402" id="Fill-436" fill="#17111C"></path>
            <path d="M73.8942236,181.227966 C71.3488682,186.827966 65.9860126,192.235966 58.3499466,193.899966 C49.7373606,195.755966 43.1898742,191.259966 39.2197602,185.723966 C38.1952146,184.283966 41.0287234,182.987966 42.053269,184.427966 C45.5591358,189.323966 51.1140937,193.291966 58.6701171,191.115966 C64.5452455,189.435966 68.7234703,185.003966 70.7405443,180.555966 C71.4449194,179.003966 74.6146072,179.675966 73.8942236,181.227966" id="Fill-437" fill="#17111C"></path>
            <path d="M126.684165,102.155392 C135.596165,100.503892 132.844165,112.465694 128.012165,116.741073 C126.476165,118.099316 124.652165,118.161055 123.148165,117.836929 C121.612165,117.497368 120.172165,116.602162 119.612165,114.719143 L119.484165,110.906801 C119.836165,108.329225 120.940165,105.520131 122.668165,103.868631 L126.684165,102.155392" id="Fill-438" fill="#17111C"></path>
            <path d="M87.9456358,90.9178048 C88.8256358,89.9332599 92.8736358,85.0566857 96.6016358,87.8564854 C100.329636,90.6716686 95.9296358,98.1172897 94.5376358,99.7479423 L91.0816358,102.67081 C89.2896358,103.470753 87.5616358,102.763111 86.6816358,101.086308 C85.7856358,99.3941214 85.7216358,96.840458 86.3456358,94.3329451 L87.9456358,90.9178048" id="Fill-439" fill="#17111C"></path>
            <path d="M128.545878,78.5814503 C127.585878,75.8360927 126.609878,72.7909547 127.793878,70.1402646 C128.801878,67.8840224 138.561878,62.7404214 141.073878,66.1168957 C143.585878,69.49337 144.705878,81.3268079 133.777878,81.9894805 C130.593878,82.1788155 128.977878,79.7647941 128.545878,78.5814503" id="Fill-440" fill="#DD965E"></path>
            <path d="M123.571875,79.9941379 C124.56666,83.8583954 123.287651,89.1757415 123.050798,89.7984938 C122.182335,92.0340147 119.150611,92.1777267 116.782077,91.8903026 C114.334591,91.5869105 111.760784,91.1877103 109.771215,89.6707497 C107.150036,87.6587809 104.323585,79.4033216 105.144677,76.0181043 C107.513212,66.0381003 120.098025,64.6169477 122.813944,67.0121487 C125.529864,69.4073496 122.592881,76.1298803 123.571875,79.9941379" id="Fill-441" fill="#DD965E"></path>
            <path d="M129.088983,87.5532544 C130.752983,86.3212544 132.960983,86.0492544 135.024983,86.2252544 C136.800983,86.3692544 138.656983,86.8812544 139.824983,88.2252544 C141.680983,90.3692544 141.552983,93.7772544 138.032983,95.2652544 C134.528983,96.7372544 128.208983,95.0572544 127.296983,93.0092544 C126.464983,91.1212544 127.408983,88.7692544 129.088983,87.5532544" id="Fill-442" fill="#DD965E"></path>
            <path d="M145.06352,79.1511582 L148.88752,77.8391582 L149.59152,79.1351582 C150.71152,82.6391582 151.28752,90.0311582 146.67952,90.1591582 C142.07152,90.3031582 143.67152,81.1671582 145.06352,79.1511582" id="Fill-443" fill="#DD965E"></path>
            <path d="M106.767049,107.715958 C101.855049,107.619958 100.527049,95.6039584 108.015049,94.3559584 C111.919049,93.7159584 116.127049,97.4279584 115.103049,101.267958 C114.399049,103.939958 110.063049,107.763958 106.767049,107.715958" id="Fill-444" fill="#DD965E"></path>
            <path d="M157.435518,85 C163.597904,85.7703071 195.02766,93.1589674 210.362339,104.367722 C221.071267,112.196558 229.229697,123.499636 233,136.154682 C218.093045,137.585252 202.172226,137.836781 188.532599,131.690044 C174.892973,125.527587 164.675134,118.343294 155.724624,95.8786232 C154.441453,92.7030713 154.774127,87.6253325 157.435518,85" id="Fill-445" fill="#F0AE62"></path>
            <path d="M155,94 C167.26386,107.390145 187.86269,101.50228 200.683275,106.551283 C218.291696,113.515424 222.045614,129.279709 223,132.191986 C215.476257,133.758918 205.550643,132.745952 199.808421,131.685503 C179.670877,127.966018 164.54386,111.821872 157.354152,100.473486 C156.749708,99.1281407 156.16117,97.7036572 155.572632,96.2158633 L155,94" id="Fill-446" fill="#E98776"></path>
            <path d="M182,527.255633 C187.34814,563.585813 194.82593,591.775752 195.370351,594.056287 C196.555269,599.108304 210.005682,599.820971 210.389979,593.153575 C210.582128,589.986166 212.327479,555.572268 213,521 C204.033058,524.05655 193.352789,526.194551 182,527.255633" id="Fill-447" fill="#E39B5C"></path>
            <path d="M192,582.813545 C193.480315,589.22619 194.503937,593.230105 194.692913,594.027697 C195.858268,599.116339 209.086614,599.834172 209.464567,593.118442 C209.527559,592.129427 209.732283,588.093608 210,582 C205.511811,583.914222 196.88189,584.360874 192,582.813545" id="Fill-448" fill="#17111C"></path>
            <path d="M97.3126473,509.053362 C80.3919874,494.813728 68.0589159,478.092826 63,452 C64.6653574,482.438996 71.8452474,524.604749 74.3904163,540.045507 C79.3393559,570.026179 85.0895522,592.057311 85.5608798,594.064452 C86.7234878,599.106009 99.9206599,599.817201 100.297722,593.163609 C100.501964,589.74989 102.465829,550.191839 103,513.209881 C100.989002,511.913932 99.0722702,510.538962 97.3126473,509.053362" id="Fill-449" fill="#F0AE62"></path>
            <path d="M83,582.813545 C84.4658494,589.22619 85.4903678,593.230105 85.6795096,594.027697 C86.8458844,599.116339 100.085814,599.834172 100.464098,593.118442 C100.527145,592.129427 100.732049,588.093608 101,582 C96.5078809,583.914222 87.8704028,584.360874 83,582.813545" id="Fill-450" fill="#17111C"></path>
        </g>
    </g>
</svg>