<?xml version="1.0" encoding="UTF-8"?>
<svg width="720px" height="720px" viewBox="0 0 720 720" version="1.1" xmlns="http://www.w3.org/2000/svg" xmlns:xlink="http://www.w3.org/1999/xlink">
    <title>img_e</title>
    <g id="img_e" stroke="none" stroke-width="1" fill="none" fill-rule="evenodd">
        <g id="elephant" transform="translate(83.840708, 24.000000)">
            <path d="M339.843868,258.704504 C252.292882,283.941644 184.822623,253.147501 160.252102,203.507868 C98.6777816,291.892771 6.88369316,456.823744 122.582235,575.871003 C128.231482,611.585181 142.169579,652.856362 146.042643,659.77516 C152.061928,670.603629 208.357039,675.65545 212.32878,662.916075 C215.585114,652.461002 230.880017,622.281863 231.866785,577.869767 C249.554601,578.287092 264.306782,577.979589 276.296012,577.781909 C281.723236,609.740168 294.181181,649.737412 300.225135,660.851418 C307.921925,674.974552 364.463728,673.459006 367.029325,661.839818 C372.900594,635.109095 378.377156,602.272259 382.792943,569.808818 C478.139396,475.471552 421.622262,341.400617 382.57092,273.179069 C367.892747,269.554937 353.559943,264.569009 339.843868,258.704504" id="Fill-234" fill="#B6B6B2"></path>
            <path d="M178.275467,647.958307 C169.640224,648.691592 167.636056,662.75733 168.601026,670.067959 C175.726957,670.956789 183.421973,671.245659 190.325218,670.779023 C190.25099,662.823992 187.628251,647.158359 178.275467,647.958307 Z M155.215163,647.002814 C148.361403,646.86949 146.654148,656.402194 146.159292,662.668447 C149.252144,665.801574 156.551275,668.179195 165.260746,669.579102 C164.914346,662.535123 163.207092,647.158359 155.215163,647.002814 Z M205.54205,648.269397 C194.185097,647.647216 192.923214,662.624006 192.923214,670.556815 C200.692458,669.80131 207.076104,668.04587 209.822557,665.090509 C210.663813,658.868698 210.168956,648.513826 205.54205,648.269397 L205.54205,648.269397 Z" id="Fill-235" fill="#C7C6C1"></path>
            <path d="M326.555477,648.282275 C320.197464,653.113386 321.310735,663.256534 321.459171,670.44855 C329.103631,671.235518 337.490271,671.169938 344.887337,670.317389 C344.442029,662.076081 342.611317,653.288268 337.589228,649.003663 C334.991596,646.773919 329.252067,646.227413 326.555477,648.282275 Z M354.758338,651.277127 C349.414638,651.189686 346.940703,663.037931 346.198523,670.164367 C354.68412,669.071355 361.586399,666.950913 364.159292,663.999782 C362.996543,657.857057 360.02782,651.386428 354.758338,651.277127 Z M306.194991,650.184115 C299.663802,649.550168 298.9711,657.419852 299.193754,662.207243 C302.187216,666.448128 310.202766,669.049495 319.702677,670.229948 C318.663624,665.005352 316.263907,651.145965 306.194991,650.184115 L306.194991,650.184115 Z" id="Fill-236" fill="#C7C6C1"></path>
            <path d="M97.9808697,314.003758 C62.1498238,340.601922 12.1878785,355.747795 5.15929204,360.512298 L5.15929204,360.59972 C11.8192464,358.173757 16.7589173,365.451644 18.2580214,367.746473 C22.1655223,373.844163 26.1713251,380.116696 27.4738254,387.06675 C28.1127878,390.476211 28.0882123,393.994949 27.3755235,397.382554 C26.7611366,400.245627 25.2620324,403.392821 22.1900978,404.135908 C74.8061946,402.343756 133.344981,372.88252 146.836918,354.26162 C160.353431,335.662575 130.346773,289.984546 97.9808697,314.003758" id="Fill-237" fill="#B6B6B2"></path>
            <path d="M9.36629752,361.249131 C13.6412975,362.463459 16.7412975,366.96751 17.8662975,368.689648 L19.1412975,370.720887 C23.3162975,369.616952 29.9662975,366.923353 27.3662975,361.182895 C24.3912975,354.669684 12.6912975,359.482837 9.36629752,361.249131" id="Fill-238" fill="#C7C6C1"></path>
            <path d="M22.288459,372.552664 L20.438459,373.413733 C23.363459,378.138571 25.913459,383.040039 26.913459,388.316844 C32.038459,387.477854 41.413459,385.071278 38.238459,377.343738 C34.163459,367.452488 23.638459,371.912382 22.288459,372.552664" id="Fill-239" fill="#C7C6C1"></path>
            <path d="M26.4304401,389.791993 C26.7054401,392.52975 26.6804401,395.267507 26.1304401,397.916949 L24.3804401,402.200214 C30.2304401,402.619709 38.0554401,400.389761 38.8804401,395.201271 C39.7304401,389.924465 30.9804401,389.438734 26.4304401,389.791993" id="Fill-240" fill="#C7C6C1"></path>
            <path d="M17.3525595,367.694902 C15.8080651,365.33258 10.5518022,357.611286 3.50193285,360.695429 C-3.52302526,363.779572 2.3809289,385.412318 4.47346961,390.465063 C6.54109913,395.539681 10.1283118,400.308072 15.3596636,402.998494 L21.2885289,404.135908 C24.4522512,403.414088 25.9718343,400.242452 26.5946143,397.355169 C27.3170391,393.964799 27.3419503,390.443189 26.6942591,387.030946 C25.3739656,380.07522 21.3134401,373.797568 17.3525595,367.694902" id="Fill-241" fill="#ABACA8"></path>
            <path d="M154.583261,124.320872 C158.30694,113.771964 163.781489,104.56086 170.193123,96.3805217 C137.099229,64.5144867 100.232335,48.7020908 65.0669902,55.1937263 C1.59181656,66.9049876 -20.2323982,189.610057 48.3967426,234.963781 C109.085322,275.054016 107.211152,300.954765 139.417281,297.22646 C173.078358,293.322707 182.424547,260.864529 187.159292,238.143805 C153.054333,210.971047 139.072039,168.007824 154.583261,124.320872" id="Fill-242" fill="#BEBEB9"></path>
            <path d="M155.6286,124.003294 L156.810639,121.410669 C144.34998,109.590056 130.904289,98.0990136 117.286218,89.925653 C76.8752677,65.7131706 7.8245034,81.4007499 9.17892281,169.352263 C13.5623166,195.168657 26.3923623,219.469025 49.589873,234.849005 C110.193985,275.012723 108.322424,300.960946 140.483729,297.225808 C174.097956,293.314899 183.431137,260.797228 188.159292,238.034858 C154.1018,210.812294 140.138967,167.770322 155.6286,124.003294" id="Fill-243" fill="#EB94A1"></path>
            <path d="M148.068467,163.268577 C108.158829,143.672946 79.1291716,136.618518 48.159292,158.130167 C82.2237035,148.092849 115.600441,159.959092 141.633805,172.630934 C118.154658,172.957528 100.569857,176.223466 91.8265766,186.173692 C108.993861,181.884426 124.417401,184.910863 142.22324,184.257675 C133.848356,196.646469 130.901183,214.434947 137.286725,223.666667 C139.570784,212.801978 146.521201,203.374302 154.159292,194.490949 C150.426206,184.606042 148.363185,174.111493 148.068467,163.268577" id="Fill-244" fill="#E46B8C"></path>
            <path d="M155.968932,124.59147 L157.159292,121.964592 C144.610916,109.987811 131.070574,98.3449546 117.356637,90.0636114 C84.6961415,70.3620286 33.4114751,76.7288678 15.159292,126.127526 C25.6493374,111.278988 51.2420723,89.952303 83.3073884,94.9166566 C115.347905,99.8587485 143.519753,122.253994 153.513815,132.472103 C154.232991,129.845225 155.026564,127.218348 155.968932,124.59147" id="Fill-245" fill="#E46B8C"></path>
            <path d="M449.240857,173.884352 C449.240857,156.967232 460.329795,118.40324 460.1573,82.7430964 C459.935522,42.6391841 446.727365,5.85709895 411.045629,0.753364647 C353.851354,-7.43020933 330.022459,53.5066184 317.159292,64.9900206 C317.159292,64.9900206 364.792439,206.530652 367.946625,215.880165 C380.760509,227.055584 401.755563,248.372474 422.011356,242.960756 C440.566844,237.989014 449.240857,222.501821 449.240857,173.884352" id="Fill-246" fill="#BEBEB9"></path>
            <path d="M457.658044,78.0990618 C451.664955,55.2370299 438.514831,23.1819162 409.614274,22.1068302 C361.867681,20.3296473 333.511951,103.28679 331.159292,107.916242 L367.761711,215.907528 C380.614658,227.009436 401.739058,248.379512 422.145278,242.960201 C440.793195,238.001642 449.510415,222.555509 449.510415,174.066938 C449.510415,158.730508 458.623873,125.556427 460.159292,92.9089193 C459.267758,87.2702032 458.20287,81.4120818 457.658044,78.0990618" id="Fill-247" fill="#EB94A1"></path>
            <path d="M409.467974,22.1068497 C361.810417,20.3284371 333.507564,103.342982 331.159292,107.975637 L339.118697,131.51216 C349.401655,108.129327 361.76098,85.4710332 376.246109,63.9105244 C378.446069,60.6391234 380.695466,57.3896781 383.290924,54.3597899 C388.877339,47.7950322 396.243496,42.2182815 404.993898,39.5177289 C413.7443,36.8171764 423.977821,37.2782464 431.714758,41.8230786 C441.874123,47.7950322 446.15045,59.2778693 454.159292,67.2477926 C447.089758,46.2581324 433.939437,23.0289896 409.467974,22.1068497" id="Fill-248" fill="#E46B8C"></path>
            <path d="M381.011481,166.672693 C400.647069,139.368138 411.849741,138.316277 420.282658,132.772093 C407.348888,130.690285 379.799713,144.495959 373.913982,152.165778 C390.285216,99.2440281 414.001248,101.17244 436.159292,94.3353441 C413.877598,88.9445571 387.020861,91.6399506 367.731492,124.576344 C360.708183,136.497434 354.575153,148.988282 349.159292,160.14239 L357.023419,183.34907 C364.442407,182.01233 393.277541,167.636898 426.811367,169.937844 C415.089366,164.262178 398.396643,162.158456 381.011481,166.672693" id="Fill-249" fill="#E46B8C"></path>
            <path d="M544.522696,132.816977 C537.380581,134.070123 531.548265,139.742258 530.782156,146.183869 C526.1855,143.545666 521.366426,140.819524 515.929521,140.291883 C510.492617,139.786228 501.02746,142.33649 502.831524,146.93136 C508.317855,160.913833 517.338174,214.293462 466.379551,225.176047 C416.162324,235.926722 394.414706,197.299041 385.814511,188.483048 C402.125225,100.850757 330.580504,43.9315394 257.701271,51.5603415 C219.420521,55.5616152 172.860848,78.6898565 156.475994,124.968324 C125.609205,211.985035 211.215737,296.099722 340.19394,258.945038 C370.171054,271.762305 403.039613,280.710208 436.254157,279.171257 C469.468701,277.632305 499.025691,270.926874 525.073406,239.532265 C556.039048,202.223686 557.324135,149.811397 544.522696,132.816977" id="Fill-250" fill="#C7C6C1"></path>
            <path d="M340.752779,135.876739 C336.652779,135.258536 329.377779,136.87028 327.277779,137.731349 L324.202779,141.705512 L327.402779,144.575741 C330.077779,145.59136 333.127779,145.701754 336.027779,145.326416 C338.927779,144.951078 345.727779,144.377033 346.877779,141.418489 C348.027779,138.459945 344.852779,136.494942 340.752779,135.876739" id="Fill-251" fill="#A3A3A0"></path>
            <path d="M266.718425,158.044734 L266.159292,158.707094 L266.767046,160.539625 C268.347205,161.952661 270.87546,161.908504 273.087683,161.643559 C277.171787,161.13575 281.231581,160.142209 284.805172,158.243442 C288.354453,156.344675 293.192172,151.73023 290.250644,149.080788 C287.333427,146.431346 274.23026,150.515903 266.718425,158.044734" id="Fill-252" fill="#A3A3A0"></path>
            <path d="M260.159292,191.770634 C265.251172,199.074386 274.235403,209.631628 285.373891,206.90932 C296.243097,204.25341 298.568715,191.527175 299.15624,183.006131 C299.278641,180.903536 295.680052,180.903536 295.533171,183.006131 C295.068047,189.845099 293.452355,201.575368 284.419163,203.766493 C275.14117,206.001884 267.356469,195.997957 263.268277,190.132823 L260.159292,191.770634" id="Fill-253" fill="#17111C"></path>
            <path d="M329.159292,175.666432 C334.428941,182.188572 344.33098,193.65107 355.164398,190.487508 C365.139966,187.540627 365.532126,175.103058 365.017416,167.605847 C364.870356,165.569033 361.242877,165.547365 361.389937,167.605847 C361.806607,173.412935 362.223277,184.897102 354.208508,187.388949 C345.409419,190.140816 336.340721,179.068346 332.296572,174.062982 L329.159292,175.666432" id="Fill-254" fill="#17111C"></path>
            <path d="M313.050231,230.717201 C309.990915,217.923684 293.649691,218.689108 288.476214,218.995278 C283.526589,219.279578 263.92707,224.003338 265.220439,235.812739 C266.140721,244.188665 273.279125,251.011874 290.341651,249.327941 C307.379304,247.644008 314.119748,235.156661 313.050231,230.717201" id="Fill-255" fill="#E4A7A4"></path>
            <path d="M369.271355,250.800236 C372.028779,252.786056 393.817353,223.020821 404.133074,209.120081 C399.996938,205.457347 396.525538,201.684289 393.595775,198.264265 C383.083095,213.46682 367.695684,249.652873 369.271355,250.800236 Z M417.304698,260.685206 L420.33294,261.104435 L422.327149,258.633192 C423.459662,256.44879 431.214918,235.288775 436.483567,225.205223 C432.076613,224.410895 428.014336,223.241468 424.247498,221.719006 C415.852126,238.62054 416.96002,260.155654 417.304698,260.685206 Z M499.239585,200.514861 C497.934732,202.964039 496.383681,205.324959 494.561812,207.575555 C500.1259,209.384857 512.558928,213.268238 518.147636,213.268238 C515.488691,209.49518 503.646539,202.964039 499.239585,200.514861 Z M525.065816,185.7536 C524.499559,185.312306 510.343141,180.855244 505.29607,179.509299 C505.049871,182.11293 504.631334,184.738625 504.040457,187.36432 C508.989049,187.187803 526.592247,186.945092 525.065816,185.7536 Z M465.879677,224.234378 L465.042602,224.43296 C461.472723,225.205223 458.075183,225.668581 454.800741,225.955422 C454.456063,238.797057 460.660268,258.942098 467.20915,261.016176 C467.406109,259.449585 465.584239,235.818327 465.879677,224.234378 Z M478.017267,220.196544 C485.403225,228.956216 496.777599,234.913676 502.366307,236.612655 C499.141105,230.655195 490.130237,219.622862 486.560358,215.1658 C484.024513,217.041296 481.193229,218.740276 478.017267,220.196544 L478.017267,220.196544 Z" id="Fill-256" fill="#B6B6B2"></path>
            <path d="M468.491871,389.436094 C467.949017,385.78674 468.886673,382.027466 469.849005,378.400095 C471.798343,370.815594 477.621683,355.536671 477.621683,355.536671 C479.052843,352.722711 483.099571,351.425651 486.159292,352.151125 C463.902289,345.138209 420.350615,315.217901 398.118288,302.005479 C367.545753,283.846644 328.509635,341.95052 370.556124,363.802678 C392.911827,375.410263 438.931018,396.822739 475.129491,397.416309 C471.403541,396.646867 469.010049,393.085449 468.491871,389.436094" id="Fill-266" fill="#B6B6B2"></path>
            <path d="M479.140485,356.019094 L483.815485,352.707291 C479.265485,351.272177 469.590485,348.468184 467.815485,352.905999 C465.990485,357.520444 472.615485,362.995958 475.940485,364.651859 C477.665485,359.860785 479.140485,356.019094 479.140485,356.019094" id="Fill-267" fill="#C7C6C1"></path>
            <path d="M469.949125,377.446256 C470.824125,374.001982 472.524125,369.012199 474.099125,364.574384 C471.749125,363.691236 459.224125,358.568982 455.749125,366.760173 C452.524125,374.355241 464.899125,378.351483 469.324125,379.852833 L469.949125,377.446256" id="Fill-268" fill="#C7C6C1"></path>
            <path d="M469.347041,389.20802 C468.997041,386.889758 469.272041,384.50526 469.772041,382.16492 C465.372041,381.32593 458.422041,381.635031 457.372041,386.315712 C456.372041,390.731449 465.522041,393.712071 472.022041,394.793927 C470.597041,393.248419 469.647041,391.283416 469.347041,389.20802" id="Fill-269" fill="#C7C6C1"></path>
            <path d="M487.623197,351.643812 C484.477107,350.690043 480.057599,352.020883 478.559461,354.993091 C478.559461,354.993091 472.666784,370.408651 470.694235,378.060979 C469.720445,381.720788 468.771624,385.513681 469.320942,389.195671 C469.84529,392.877661 472.26728,396.470928 476.037595,397.247251 C479.008902,397.89049 482.254869,396.626192 484.701828,394.674294 C487.123818,392.700215 488.896615,390.082897 490.619474,387.532121 C493.640719,383.051628 502.879239,356.789725 487.623197,351.643812" id="Fill-270" fill="#ABACA8"></path>
            <path d="M256.282182,293.82027 C169.002147,291.269751 140.584817,352.130415 131.112373,375.546819 C120.97216,400.568291 115.481605,436.275559 119.463494,462.66024 C123.42065,489.022933 141.549374,511.38395 163.363199,529.611367 C198.507696,559.030286 270.973125,557.139384 299.959297,551.422703 C328.945469,545.684035 390.157734,519.717112 385.953256,417.674359 C383.554229,359.496138 343.537484,296.370789 256.282182,293.82027" id="Fill-271" fill="#BEBEB9"></path>
        </g>
    </g>
</svg>