<svg viewBox="0 0 720 720" xmlns="http://www.w3.org/2000/svg">
  <g fill="none" fill-rule="evenodd">
    <path d="M260.67 534.942c-7.356 1.665-9.87-11.742-12.89-18.24-.531 7.228-3.137 20.475-9.432 20.703-6.272.205-8.809-13.361-9.685-22.664.138 5.609-1.084 11.24-3.136 15.687-.23 30.712-1.983 65.073-1.983 65.073s-1.315 11.4-.876 22.846c5.534-1.573 11.506-3.58 16.764-5.86a21.79 21.79 0 0011.46 5.54c1.038-.775 2.283-16.644 2.19-19.175 2.307-13.589 5.95-36.868 8.348-64.206l-.76.296" fill="#B5876B"/>
    <path d="M252.797 598.356c-4.481-.183-20.3-1.034-29.262-3.033 0 0-1.303 11.49-.868 23.024 5.486-1.586 11.407-3.608 16.62-5.905a21.462 21.462 0 0011.36 5.583l2.15-19.669" fill="#5A4038"/>
    <path d="M335.6 545.945l-.843.205c-6.89.454-12.617-12.688-12.662-21.336-2.989 9.124-5.407 20.995-12.115 20.428-6.73-.568-6.137-11.145-6.753-16.41-.387 1.86-.775 4.244-1.505 6.377 2.007 35.432 8.236 70.817 8.19 70.817l2.783 16.638c2.852-.795 9.993-3.745 12.617-4.971l11.612 3.79c1.346-5.492.57-12.392.342-17.59-.045 0-2.03-25.558-1.665-57.948" fill="#B5876B"/>
    <path d="M337.273 603.07c-7.7 1.474-19.105 2.58-26.918 2.165l2.74 16.876c2.806-.806 9.833-3.799 12.414-5.042l11.427 3.845c1.325-5.572.562-12.57.337-17.843" fill="#5A4038"/>
    <path d="M534.832 553.593c-.63 4.431-3.672 17.86-10.385 18.538-6.15.61-8.65-8.5-10.228-15.599-2.5 6.579-5.362 9.676-8.178 10.218a1653.593 1653.593 0 01-1.847 32.622c-.969 4.793-1.081 19.035-.991 19.193l14.981-5.019 13.427 6.24c.36-.023 1.892-12.208 2.117-19.08 1.104-10.648 1.983-22.991 2.546-35.696-.879-4.34-1.149-8.953-1.442-11.417" fill="#B5876B"/>
    <path d="M533.396 600.642c-12.211 1.727-29.19-1.359-29.19-1.359-.981 4.79-1.093 19.455-1.003 19.616l14.818-5.11 13.28 6.354c.357-.023 1.895-12.502 2.095-19.501" fill="#5A4038"/>
    <path d="M612.54 559.097l-4.41 1.617c-7.71.82-12.346-15.328-12.844-25.827-.294 12.503-5.924 32.159-12.866 31.202l-1.538-.66c.769 20.657 2.533 38.194 2.51 38.194 0 0 .226 14.03 2.646 19.04 3.37-1.024 9.565-3.757 13.409-6.012 4.387 2.255 9.565 3.621 11.6 4.19 1.38-6.24.61-18.47.498-18.675-.023 0-.475-18.357.995-43.069" fill="#B5876B"/>
    <path d="M612.22 602.23c-6.834.576-19.682 2.28-28.46 1.474 0 0 .229 14.182 2.675 19.248 3.406-1.036 9.67-3.8 13.556-6.079 4.435 2.28 9.67 3.661 11.727 4.237 1.394-6.309.617-18.672.503-18.88" fill="#5A4038"/>
    <path d="M614.249 247.973c-47.925-39.982-91.951-36.971-150.386-44.703-106.201-14.072-109.575-94.47-239.784-75.653-88.349 12.772-84.974 117.232-82.74 218.544 2.417 108.815 11.195 92.416 16.735 80.51-.524 26.298 1.801 56.518 6.52 60.167 4.994 3.878 10.397-.296 10.808-10.149-1.254 29.468 9.12 33.87 13.064 16.74-.228 29.788 3.374 31.202 7.501 32.525 4.127 1.322 8.208-5.269 9.029-12.294 2.166 10.195 3.807 25.294 11.194 25.933 7.387.638 13.178-11.929 12.905-24.085.866 9.305 3.374 22.876 9.576 22.67 6.224-.228 8.8-13.479 9.325-20.709 2.986 6.5 5.472 19.911 12.745 18.246 7.957-1.801 11.924-23.993 13.041-39.525.091 27.118 7.319 30.54 14.546 15.714.365 8.53.616 27.985 7.137 28.647 6.52.638 7.364-7.162 8.299-11.77.615 5.292.022 15.92 6.748 16.49 6.703.571 9.12-11.357 12.107-20.526.045 8.69 5.768 21.895 12.654 21.44 6.908-.457 14.5-20.437 15.23-36.151-.091 13.32 3.83 24.906 12.494 25.408 8.664.479 12.677-6.546 15.39-32.684.319 25.385 12.38 13.776 12.38 1.255 1.938 19.067 5.54 24.199 8.048 24.358 5.586.41 10.1-11.061 11.924-22.443.935 7.481 5.61 20.003 11.013 20.026 5.426.022 9.78-12.613 9.78-24.29-.478 10.696 5.085 28.35 10.625 28.053 5.563-.32 8.14-7.64 10.169-16.285 2.28 8.644 3.443 18.657 10.853 19.5 7.387.845 10.009-16.626 10.898-21.165-.069 23.583 8.64 50.154 17.875 24.154 2.052 26 14.591 42.376 23.073 20.139 1.596 7.161 4.127 16.353 10.35 15.737 6.795-.684 9.873-14.232 10.512-18.702.638 5.542 1.185 21.644 8.777 22.078 7.57.41 11.537-24.245 13.293-35.945 3.67 22.648 13.839 18.109 11.65-13.73-.228 13.41 6.863 40.643 13.862 41.6 7 .959 12.677-18.724 12.973-31.246.502 10.515 5.176 26.685 12.95 25.864 10.853-1.14 13.338-18.383 16.143-30.038.547 2.236 4.286 9.374 9.712 9.511 4.629.137 6.863-15.03 6.179-27.141.502 1.939 5.221 13.525 8.595-10.423 6.544-46.505 17.807-210.971-35.772-255.652" fill="#79574F"/>
    <path d="M343.828 314.61a271.657 271.657 0 01.912 34.462h2.736c.41-11.526.114-22.983-.935-34.463h-2.713zm-7.273 193.699c.41 3.629.821 7.258 1.231 10.91h2.714c-.388-3.652-.798-7.281-1.209-10.91h-2.736zm-100.064-11.64a130.48 130.48 0 01.866 22.914h2.736c.365-7.668.091-15.291-.867-22.914h-2.735zm101.364-116.786c2.234 13.375 3.01 26.772 2.508 40.329h2.736a202.927 202.927 0 00-2.6-41.06l-2.644.731zm.456-134.36c1.049 14.242 2.097 28.507 3.169 42.748h2.713l-3.146-42.747h-2.736zM323.925 495.87a310.954 310.954 0 00-2.257-37.977h-2.713a315.548 315.548 0 012.234 37.977h2.736zm-15.64-46.24a926.466 926.466 0 003.739 37.225h2.735a926.467 926.467 0 01-3.739-37.224h-2.735zM325.11 375c1.003 19.262 2.827 38.41 2.736 57.719h2.736c.068-19.309-1.733-38.457-2.736-57.72h-2.736zm16.461-152.916l2.645-.73a346.442 346.442 0 00-14.5-34.03l-2.371 1.37a335.83 335.83 0 0114.226 33.39zm-13.132 98.46c1.96 9.128 2.485 18.28 1.619 27.57h2.713c.912-9.54.319-18.944-1.71-28.301l-2.622.73zM363.64 174.52l2.28-1.506c-2.326-4.656-5.29-8.81-8.87-12.576l-1.823 2.054c3.42 3.583 6.201 7.6 8.413 12.028zm-29.229-6.117l2.349-1.392c-2.668-5.25-5.814-9.837-9.964-14.036l-1.938 1.917c3.99 4.063 6.977 8.445 9.553 13.511zm-25.694-2.396l2.302-1.483c-3.077-6.14-6.862-11.8-11.33-17.05l-1.847 2.032c4.309 5.044 7.91 10.59 10.875 16.501zm13.383-.32l2.37-1.392c-2.165-4.656-4.741-8.467-8.64-11.845l-1.938 1.94c3.74 3.24 6.156 6.847 8.208 11.297zm238.728 69.634l2.371-1.37c-2.873-5.432-7.318-9.768-12.083-13.534l-1.938 1.917c4.605 3.63 8.891 7.76 11.65 12.987zm-294.54-62.353l2.553-.936c-5.243-11.868-12.38-23.325-19.265-34.303l-2.234 1.575c6.748 10.75 13.793 22.024 18.946 33.664zm-19.037-14.059a157.814 157.814 0 00-11.765-19.947l-2.234 1.552c4.264 6.162 8.094 12.598 11.422 19.33l2.577-.935zm102.71 14.287l2.302-1.46a57.936 57.936 0 00-11.582-16.228l-1.87 1.986c4.629 4.587 8.322 9.837 11.15 15.702zm-58.32-12.233l2.302-1.46c-2.873-6.094-6.726-11.526-11.468-16.296l-1.87 1.985c4.583 4.61 8.254 9.883 11.035 15.771zm-11.058 3.994l2.234-1.552c-4.833-9.083-11.08-17.094-18.672-24.033l-1.779 2.077c7.433 6.779 13.497 14.63 18.217 23.508zm305.78 117.927l2.622-.73c-4.286-12.233-10.533-24.216-16.53-35.696l-2.37 1.37c5.904 11.274 12.06 23.051 16.278 35.056zm-17.875-15.497a159.678 159.678 0 00-10.168-20.814l-2.371 1.392a154.17 154.17 0 019.895 20.153l2.644-.73zm-6.11 141.663c-2.736-15.017-3.875-30.126-3.807-45.372h-2.736c-.068 15.474 1.14 30.857 3.899 46.102l2.644-.73zm51.708 85.45a269.346 269.346 0 01-1.481-44.756h-2.736a266.918 266.918 0 001.504 44.756h2.713zm.183-223.301l2.348-1.37c-2.69-6.185-6.384-11.73-10.989-16.66l-1.915 1.94c4.446 4.747 7.957 10.133 10.556 16.09zm-44.321 92.09c3.077 22.892 4.856 45.852 5.449 68.95h2.735c-.592-23.098-2.37-46.058-5.449-68.95h-2.735zm10.1-16.158c-1.026-14.401-4.013-28.346-9.12-41.88l-2.645.73c5.039 13.306 8.026 26.954 9.029 41.15h2.736zm-25.49-41.401a258.516 258.516 0 018.071 41.196h2.736A265.025 265.025 0 00557.204 305l-2.645.73zM298.572 488.247c-.319-9.882-.615-19.742-.912-29.601h-2.736c.297 9.86.616 19.719.912 29.601h2.736zM255.46 316.503c.639 14.516 1.3 29.054 1.938 43.593h2.736c-.638-14.539-1.3-29.077-1.938-43.593h-2.736zm13.27 133.995a280.356 280.356 0 002.28 36.836h2.735a280.356 280.356 0 01-2.28-36.836h-2.736zm2.507-131.233c2.417 15.246 3.055 30.492 1.96 45.92h2.737c1.117-15.656.387-31.153-2.075-46.65l-2.622.73zm10.625 101.152a127.389 127.389 0 00-.616-31.176l-2.645.73c1.46 10.133 1.573 20.29.525 30.446h2.736zm-41.267 19.97a654.943 654.943 0 012.485 51.352h2.714a644.022 644.022 0 00-2.463-51.352h-2.736zm53.783-218.211c-5.175-13.99-10.35-27.959-15.526-41.926l-2.622.707c5.176 13.99 10.35 27.958 15.526 41.949l2.622-.73zm-39.51 277.87c.045 4.908.114 9.792.16 14.699h2.735c-.046-4.907-.114-9.791-.16-14.698h-2.735zm-.297-45.417c.433 8.444.867 16.866 1.277 25.288h2.736c-.41-8.422-.844-16.844-1.277-25.288h-2.736zm-8.572-63.722a446.982 446.982 0 011.938 33.595h2.736a446.982 446.982 0 00-1.938-33.595h-2.736zm336.262-85.13c3.534 11.137 5.928 22.458 7.159 34.075h2.713c-1.231-11.868-3.625-23.44-7.25-34.806l-2.622.73zm-286.857-27.57c1.117-9.221.57-18.328-1.596-27.343l-2.622.73c2.098 8.81 2.577 17.62 1.482 26.612h2.736zm13.338-53.224c-5.244-10.932-8.96-22.298-11.309-34.166l-2.644.707c2.393 12.12 6.27 23.713 11.581 34.828l2.372-1.37zM300.1 429.638c-.958-14.813-1.437-29.625-3.01-44.391h-2.713c1.55 14.766 2.052 29.578 3.01 44.39h2.713zm-4.31 69.13c1.939 7.007 2.6 15.817 1.779 23.052h2.713c.866-7.486.16-16.501-1.847-23.782l-2.644.73zm28.933-245.918c.843 8.97 1.71 17.939 2.553 26.908h2.736c-.844-8.97-1.71-17.939-2.576-26.908h-2.713zm-.365-28.324l2.622-.73c-4.834-11.617-9.188-23.462-15.504-34.371l-2.348 1.369c6.201 10.727 10.465 22.32 15.23 33.732zm-1.208 283.669a55.87 55.87 0 01.683 11.023h2.736a58.035 58.035 0 00-.798-11.754l-2.621.73zm-13.794-122.948c.958 7.463 1.892 14.903 2.85 22.366h2.736c-.958-7.463-1.892-14.903-2.85-22.366h-2.736zm11.217-30.264c1.231-12.94.684-25.721-1.573-38.525l-2.645.73c2.235 12.576 2.69 25.106 1.482 37.795h2.736zm-14.295-107.04c2.554 13.557 2.645 27 3.534 40.693h2.736c-.89-13.922-1.049-27.638-3.625-41.4l-2.645.707zm33.606 250.392a306.496 306.496 0 00-2.622-45.03h-2.736a303.389 303.389 0 012.622 45.03h2.736zm245.317 9.768l-3.146-53.132h-2.736l3.146 53.132h2.736zm.89-142.119c2.826 18.897 4.103 37.84 4.058 56.944h2.735c.046-19.354-1.3-38.549-4.149-57.674l-2.645.73zm-41.495-53.885c3.42 10.521 5.221 21.248 5.403 32.294h2.736c-.205-11.297-2.006-22.275-5.494-33.025l-2.645.73zm54.102 202.828c.935 7.646 1.231 15.27.844 22.96h2.736c.387-7.69.09-15.314-.844-22.96h-2.736zm-64.567-99.554c.046-11.138-1.026-22.115-3.146-33.048l-2.645.73a163.554 163.554 0 013.056 32.318h2.735zm-18.558 35.08c1.96 18.098 2.28 36.516 6.133 54.341l2.645-.73c-3.808-17.574-4.127-35.764-6.042-53.612h-2.736zm27.541-217.208l2.371-1.392c-2.052-4.77-4.788-9.084-8.139-13.055l-1.938 1.94c3.215 3.766 5.768 7.942 7.706 12.507zm8.846 40.648c-2.553-7.874-5.677-15.497-9.507-22.846l-2.348 1.392c3.716 7.12 6.748 14.538 9.21 22.184l2.645-.73zm59.506 142.416c-1.346-17.62-3.762-35.034-7.41-52.31l-2.645.73c3.602 17.026 5.996 34.212 7.319 51.58h2.736zm12.813-4.108a629.49 629.49 0 00-3.26-40.945h-2.737a629.49 629.49 0 013.26 40.945h2.737zm6.657-38.868a340.483 340.483 0 014.879 39.94h2.736a348.13 348.13 0 00-4.993-40.67l-2.622.73zm15.07-7.166h-2.736c2.85 21.727 2.189 43.934 2.53 65.799h2.714c-.32-21.865.342-44.072-2.508-65.8zm-13.52-20.176a258.12 258.12 0 00-5.563-38.503l-2.644.73a251.35 251.35 0 015.471 37.773h2.736zm12.996 4.816c-1.414-16.684-4.081-33.117-7.957-49.39l-2.645.73c3.83 16.023 6.475 32.227 7.889 48.66h2.713zm-34.176 159.396c.502 6.322.274 12.576-.752 18.852l2.644.73c1.049-6.504 1.345-13.009.844-19.582h-2.736zm9.325-173.547a188.652 188.652 0 00-4.56-25.721l-2.645.73a182.177 182.177 0 014.469 24.991h2.736zm3.351 162.021c.069 7.692-.137 15.36-1.026 22.983h2.736c.89-7.623 1.094-15.291 1.026-22.983h-2.736zm.707-51.99c.388 10.863.798 21.727 1.186 32.59h2.735c-.41-10.863-.798-21.727-1.185-32.59h-2.736zm-108.41 73.307c.662 9.107 1.323 18.236 1.984 27.342H521l-1.983-27.342h-2.736zm-12.812-134.131l1.983 27.342h2.736l-1.983-27.342h-2.736zm21.043-156.11l2.371-1.392c-2.667-5.25-5.813-9.814-9.963-14.037l-1.938 1.94c3.99 4.04 6.977 8.422 9.53 13.489zm-41.426 50.873h2.736c-1.208-9.746-3.876-18.99-8.07-27.867l-2.372 1.369c3.99 8.422 6.566 17.254 7.706 26.498zm39.58 63.265a320.854 320.854 0 00-3.352-43.34l-2.622.73c2.052 14.15 3.1 28.323 3.238 42.61h2.735zm-31.987-112.7l2.37-1.37c-2.826-6.299-6.36-12.096-10.578-17.528l-1.938 1.917c4.081 5.25 7.432 10.933 10.146 16.98zm29.57 177.586c.433-8.353.023-16.615-1.231-24.877l-2.622.73a120.444 120.444 0 011.117 24.147h2.736zm-3.74-136.208c-.934-6.23-2.28-12.37-4.057-18.418l-2.622.73c1.755 6.048 3.123 12.188 4.035 18.418l2.645-.73zm81.667 31.2a608.562 608.562 0 016.201 39.004h2.736a612.743 612.743 0 00-6.293-39.735l-2.644.73zm-60.418 44.299c.57-15.657-1.14-30.948-5.152-46.08l-2.645.73c3.967 14.881 5.632 29.967 5.062 45.35h2.735zm-.068-66.62a421.384 421.384 0 00-12.494-34.144l-2.622.73a418.077 418.077 0 0112.471 34.144l2.645-.73zm-45.347-34.235c4.446 9.106 7.273 18.692 8.458 28.757h2.736c-1.231-10.567-4.172-20.587-8.846-30.15l-2.348 1.393zm3.739 169.21a145.532 145.532 0 00-4.514-31.952l-2.622.73a142.79 142.79 0 014.4 31.222h2.736zm-4.172 32.728c-.183 19.377.433 38.663 3.533 57.811l2.645-.73c-3.078-18.92-3.625-37.955-3.442-57.08h-2.736zm8.412 78.808a90.645 90.645 0 001.072 16.296l2.622-.73a88.822 88.822 0 01-.958-15.566h-2.736zm4.537-299.918l2.372-1.392c-2.166-4.633-4.743-8.467-8.641-11.845l-1.938 1.94c3.739 3.24 6.156 6.847 8.207 11.297zm-3.853 129.955a1087.634 1087.634 0 01-6.132-54.935h-2.736c1.596 18.6 3.693 37.156 6.247 55.642l2.621-.707zm100.248-81.958l2.348-1.392c-4.104-9.426-9.735-17.916-16.757-25.402l-1.938 1.917c6.885 7.349 12.311 15.657 16.347 24.877zm-95.118 35.49a432.043 432.043 0 012.212 33.482h2.736a432.043 432.043 0 00-2.212-33.482h-2.736zm-26.424-6.573c2.827 16.478 3.58 32.957 3.397 49.64h2.736c.16-16.935-.638-33.664-3.488-50.37l-2.645.73zm-4.15-76.389c-2.644-5.318-5.289-10.613-7.933-15.93l-2.349 1.369c2.645 5.318 5.267 10.636 7.912 15.953l2.37-1.392zm-.204 221.726a331.269 331.269 0 003.146 31.474l2.622-.73a323.268 323.268 0 01-3.033-30.744h-2.735zm-70.768-76.366c1.71 13.808 2.485 27.64 2.416 41.538h2.736c.068-13.899-.707-27.73-2.417-41.538h-2.735zm-48.95 2.465c1.824 17.072 2.189 34.144 1.186 51.261h2.713c1.003-17.117.66-34.189-1.163-51.26h-2.736zm-3.716 78.466c.41 11.937.798 23.873 1.208 35.81h2.713c-.387-11.937-.775-23.873-1.185-35.81h-2.736zm14.91-234.347c-4.08-10.065-8.139-20.153-12.22-30.218l-2.645.707a41423.6 41423.6 0 0012.243 30.24l2.622-.73zM356.3 277.544c-.137-9.585-1.368-18.988-3.807-28.255l-2.622.73c2.371 9.039 3.58 18.19 3.693 27.525h2.736zm.297 41.105c1.368 7.92 1.87 15.862 1.573 23.896h2.736c.319-8.285-.251-16.456-1.665-24.626l-2.644.73zm6.019-72.075c1.208 16.387 2.44 32.796 3.647 49.206h2.736c-1.23-16.41-2.44-32.82-3.67-49.206h-2.713zm34.517 68.948l1.368 27.981h2.736l-1.368-27.98h-2.736zM364.94 454.241c.274 8.216.547 16.432.798 24.649h2.736c-.274-8.217-.524-16.433-.798-24.65h-2.736zm24.486-34.212c1.824 31.085 1.003 62.01-1.892 92.959 1.277-2.534 2.143-5.798 2.143-9.153.25 2.397.524 4.565.798 6.55 2.713-30.08 3.465-60.138 1.687-90.356h-2.736zm-14.18-77.484c-1.004-7.76-2.03-15.497-3.033-23.257h-2.736c1.003 7.76 2.03 15.497 3.055 23.257h2.713zm15.867 56.03a250.074 250.074 0 00-1.87-32.249h-2.735a254.243 254.243 0 011.892 32.25h2.713zm-2.964-45.395c1.14-15.656.41-31.153-2.051-46.65l-2.645.73c2.44 15.246 3.078 30.492 1.983 45.92h2.713zm10.397-56.601c-.433-16.684-1.938-33.276-4.606-49.754l-2.622.73c2.622 16.25 4.059 32.568 4.492 49.024h2.736zm5.905-74.084l2.644-.73a85.566 85.566 0 00-7.364-19.103l-2.348 1.37a82.767 82.767 0 017.068 18.463zm13.998 231.472c1.186 8.01 1.619 15.976 1.437 24.078h2.736a148.02 148.02 0 00-1.528-24.808l-2.645.73zm-36.866-254.158a146.817 146.817 0 018.8 24.58l2.691-.502a151.504 151.504 0 00-9.006-25.265l-2.485 1.187zm-1.87 17.87c-3.601-8.261-7.226-16.523-10.829-24.808l-2.37 1.392c3.624 8.262 7.226 16.524 10.852 24.809l2.348-1.393zm5.085 79.973c-1.368-18.213-3.739-36.266-7.318-54.182l-2.645.73c3.534 17.665 5.882 35.49 7.227 53.452h2.736zm-12.995 70.569c7.614 46.353 6.611 97.043 4.309 143.968.433-2.876.82-6.048 1.185-9.609.069 5.158.638 8.741 1.482 11.138 2.371-47.61 3.397-99.098-4.355-146.228l-2.621.73zm79.044 15.68c2.097 10.68 3.1 21.407 3.055 32.317h2.736c.045-11.138-1.026-22.139-3.147-33.048l-2.644.73zm93.658-12.234c1.847 57.263 2.941 115.462 11.605 172.246l.752-4.839c.707 4.496 1.71 7.851 2.804 10.202-9.507-58.427-10.533-118.543-12.425-177.61h-2.736zM540.4 523.555a112.276 112.276 0 001.505 19.171l2.645-.73a108.516 108.516 0 01-1.414-18.441h-2.736zm-8.527-74.929a312.44 312.44 0 004.925 50.485l2.645-.73a303.7 303.7 0 01-4.834-49.755h-2.736zm-2.667 72.852c1.208 8.033 1.55 16.067 1.14 24.147h2.713c.456-8.33.023-16.593-1.209-24.878l-2.644.73zm30.596-81.022c.593 33.892 4.377 67.739 8.595 101.403.32-2.99.479-6.505.388-10.681.479 5.112 1.596 11.069 3.1 16.638-4.514-35.604-8.732-71.46-9.347-107.36h-2.736zm22.297 84.696c.89 4.245 1.095 8.445.707 12.758h2.736c.41-4.541.137-9.015-.798-13.465l-2.645.707zm58.411-77.918c1.961 12.028 2.508 24.056 1.733 36.22h2.736c.798-12.415.16-24.671-1.824-36.95l-2.645.73zm-4.833 50.485a41.898 41.898 0 01-1.185 12.712l2.644.73a45.278 45.278 0 001.277-13.442h-2.736zm-39.237-41.47h-2.736a331.948 331.948 0 012.394 46.628h2.736a331.948 331.948 0 00-2.394-46.628zm-91.72 9.928a338.1 338.1 0 003.374 31.45l2.622-.73a330.913 330.913 0 01-3.26-30.72h-2.736zm-52.187-120.3c-1.414-11.526-2.827-23.029-4.218-34.532h-2.736c1.414 11.503 2.827 23.006 4.24 34.532h2.714zm2.485-61.394a135.814 135.814 0 00-6.863-34.76l-2.644.73a134.342 134.342 0 016.794 34.03h2.713zm-50.842-25.653a134.207 134.207 0 013.306 34.53h2.736a137.77 137.77 0 00-3.397-35.26l-2.645.73zm42.292 194.156c1.573 9.722 3.147 19.468 4.742 29.213l2.622-.73c-1.573-9.746-3.146-19.491-4.742-29.214l-2.622.73zm31.326-73.924c2.098 14.218 2.827 28.437 2.28 42.793h2.736a235.623 235.623 0 00-2.394-43.524l-2.622.73zm-16.484 69.405a926.467 926.467 0 003.74 37.224h2.713a926.35 926.35 0 01-3.717-37.224h-2.736zm-11.604-234.028c2.257 4.427 3.762 9.06 4.628 13.945l2.622-.73a51.378 51.378 0 00-4.88-14.585l-2.37 1.37zm13.497 99.92a185.395 185.395 0 014.491 35.055h2.736a186.88 186.88 0 00-4.605-35.763l-2.622.707zm-2.394-61.075c5.175 10.316 8.276 21.157 9.325 32.637h2.735c-1.094-11.96-4.309-23.28-9.69-34.03l-2.37 1.393zm4.924 129.338c.502 10.544 1.004 21.111 1.505 31.678h2.736c-.502-10.567-1.003-21.134-1.505-31.678h-2.736zm-154.668 123.86c.935 5.25 1.186 10.477.82 15.795h2.737c.387-5.57.045-11.047-.912-16.524l-2.645.73zM150.63 392.573l.615 21.318h2.736l-.616-21.317h-2.735zm16.278 2.99l-2.622.731c2.052 7.509 2.69 15.086 2.052 22.846h2.713c.661-7.988-.023-15.84-2.143-23.576zm44.162-58.153c1.117 7.737 2.257 15.475 3.374 23.212l2.645-.73c-1.14-7.738-2.257-15.475-3.375-23.19l-2.644.708zm-32.808 54.525c1.413 9.175 2.029 18.35 1.938 27.616h2.736c.09-9.495-.57-18.943-2.03-28.347l-2.644.73zm5.107 57.582a322.027 322.027 0 012.143 27.297h2.736a331.73 331.73 0 00-2.143-27.297h-2.736zm15.914-107.725c1.983 9.13 2.507 18.259 1.618 27.57h2.736c.89-9.54.32-18.942-1.71-28.3l-2.644.73zm12.721 156.658h-2.713a46.512 46.512 0 001.46 16.159l2.644-.708c-1.39-5.09-1.8-10.224-1.39-15.45zm-2.325-51.01a515.824 515.824 0 013.465 40.603h2.736a515.824 515.824 0 00-3.465-40.602h-2.736zm.866-27.045c1.801-10.042.16-20.084.046-30.172h-2.736c.114 9.814 1.801 19.674.046 29.442l2.644.73zm13.794-63.745h2.736c.273-10.11-.342-20.107-1.802-30.126l-2.644.73c1.436 9.768 1.983 19.537 1.71 29.396zm-52.871 83.533h-2.736c-.228 7.143-.046 14.287.616 21.43h2.735a168.252 168.252 0 01-.615-21.43zm92.108-204.883c-1.71-4.017-3.42-8.011-5.13-12.028l-2.371 1.392c1.71 3.994 3.443 8.011 5.152 12.005l2.349-1.37zm-21.09 130.776c-.432-16.752-.843-33.481-1.276-50.21h-2.736c.433 16.729.844 33.458 1.277 50.21h2.736zm162.694 74.312c.798 13.055.091 26.064.046 39.142h2.736c.045-13.078.752-26.087-.046-39.142h-2.736zM279.9 230.894c-3.922-10.795-7.843-21.59-11.787-32.386l-2.622.73 11.764 32.386 2.645-.73zm-83.81 216.728a699.919 699.919 0 002.896 33.116h2.713a731.39 731.39 0 01-2.872-33.116h-2.736zm-9.575-98.002c.753 6.504 1.505 13.009 2.257 19.536h2.713c-.752-6.527-1.504-13.032-2.257-19.536h-2.713zm34.928 150.815l.41 14.515h2.736l-.41-14.515h-2.736zm40.628-239.072c.41 9.608.798 19.24 1.186 28.871h2.735c-.387-9.631-.775-19.263-1.185-28.871h-2.736zm-38.872 123.222l-2.622.73c2.211 13.397 3.01 26.794 2.485 40.351h2.736c.524-13.808-.32-27.456-2.6-41.081zm26.264-118.247c-1.049 7.555-1.436 15.086-1.117 22.71h2.736c-.32-7.373 0-14.676 1.003-21.98l-2.622-.73zm188.913 12.393c.524-9.7-.502-19.171-3.033-28.529l-2.622.73c2.463 9.13 3.42 18.35 2.919 27.8h2.736zm-5.746 164.76a276.247 276.247 0 002.28 36.837h2.736a276.247 276.247 0 01-2.28-36.837h-2.736zm8.573-221.84c-2.44-4.816-4.88-9.654-7.342-14.493l-2.348 1.37c2.44 4.838 4.88 9.676 7.341 14.515l2.349-1.392zm-20.109 152.367c2.097 14.196 2.827 28.437 2.28 42.793h2.736a235.514 235.514 0 00-2.394-43.524l-2.622.73zm-10.556-61.623c.547 11.184.638 22.367.296 33.573h2.736c.342-11.206.228-22.39-.296-33.573h-2.736zm22.89-5.386c.639 14.538 1.3 29.077 1.938 43.615h2.736c-.638-14.538-1.3-29.077-1.938-43.615h-2.736zm-234.35 121.738a757.333 757.333 0 00-.935-40.693h-2.736c.684 13.557.98 27.137.935 40.693h2.735zm223.635-117.265c2.166 11.001 3.237 22.048 3.237 33.254h2.736c0-11.458-1.117-22.755-3.351-33.984l-2.622.73zm-1.163-91.543c-1.71-3.697-3.42-7.395-5.13-11.115l-2.37 1.392c1.709 3.698 3.442 7.418 5.152 11.115l2.348-1.392zm2.075 74.06c-.525-14.31-2.052-28.46-4.743-42.519l-2.621.73c2.621 13.809 4.103 27.73 4.65 41.79h2.714zm14.705 76.87a329.766 329.766 0 010 49.32h2.736a329.766 329.766 0 000-49.32h-2.736zm-212.737 80.063c.957 12.256 1.413 24.534 1.436 36.836h2.713c0-12.302-.479-24.58-1.413-36.836h-2.736zm-31.417 39.986a117.914 117.914 0 001.39 19.422l2.645-.73c-.958-6.208-1.368-12.416-1.3-18.692h-2.735zm86.864-197.785a202.556 202.556 0 00-2.918-44.391l-2.622.73c2.553 14.47 3.465 28.985 2.827 43.66h2.713zm-19.037 94.647c2.325 12.279 2.986 24.535 2.029 36.973h2.736c.957-12.69.228-25.196-2.143-37.703l-2.622.73zm-22.959 22.983a9236.7 9236.7 0 00-.935-24.626h-2.736l.958 24.626h2.713zm49.291-99.35l2.326 48.865h2.713c-.752-16.296-1.527-32.568-2.303-48.864h-2.736zm-8.367 148.351a94.877 94.877 0 013.01 24.284h2.736a97.413 97.413 0 00-3.101-25.014l-2.645.73zm21.317-149.423c2.827 16.479 3.58 32.957 3.397 49.64h2.736c.183-16.934-.638-33.664-3.488-50.37l-2.645.73z" fill="#543630"/>
    <path d="M692.95 396.296c-1.676-15.484-3.558-31.037-7.758-45.95-9.295-32.862-29.492-60.82-52.557-84.057-2.731-2.737-5.531-5.428-8.584-7.685 41.908 56.121 31.718 201.225 25.59 244.439-3.396 23.944-8.147 12.36-8.652 10.421.505 8.78-.55 19.156-2.938 24.15l2.25 2.098c4.98.137 6.632-14.047 7.022-16.966 1.148 3.26 2.066 18.494 7.918 17.878 5.853-.593 7.39-16.556 6.702-22.895 1.262 3.557 1.836 16.236 8.102 14.914 6.242-1.323 7.711-23.375 6.793-27.981 1.354 6.91 5.233 8.415 7.55 7.48 7.161-2.874 1.263-46.293-.527-74.205.688 7.707 2.869 18.494 8.584 18.152 6.61-.388 2.318-42.94.504-59.793" fill="#866058"/>
    <path d="M668.83 489.403c.392 6.355.254 12.686-.437 19.018h2.763c.69-6.332.829-12.663.415-19.018h-2.74M656.822 490.278c.092 7.99-.599 15.889-2.119 23.743l2.648.72a119.61 119.61 0 002.233-24.463h-2.762M662.8 316.894a144.494 144.494 0 016.17 26.61l2.671-.732a144.983 144.983 0 00-6.193-26.61l-2.648.732M651.484 311.147a192.148 192.148 0 015.687 35.234h2.763a194.008 194.008 0 00-5.802-35.974l-2.648.74M657.07 370.844c1.934 17.793 4.006 35.29 2.786 53.242h2.763c1.22-17.953-.875-35.45-2.786-53.242h-2.763M667.244 358.626a290.054 290.054 0 015.825 48.192h2.762a291.622 291.622 0 00-5.94-48.925l-2.647.733M680.448 376.6c.805 8.169 1.634 16.315 2.44 24.462h2.763c-.806-8.147-1.635-16.293-2.44-24.462h-2.763M660.555 449.987c-.322 8.162-.621 16.301-.944 24.463h2.763c.3-8.162.622-16.301.944-24.463h-2.763M671.38 434.158c.99 13.925.922 27.806-.252 41.73h2.762a271.513 271.513 0 00.254-41.73h-2.763" fill="#6D4845"/>
    <path d="M238.792 186.762c-18.892-38.761-119.837-38.578-139.072-9.599-19.234 29.003 20.126 134.02 31.662 161.217 9.48 22.42 45.367 18.192 60.604-.709 16.721-20.774 30.427-40.59 38.834-62.964 7.515-20.112 17.566-68.267 7.972-87.945" fill="#B5876B"/>
    <path d="M99.58 177.893l5.002-5.454c-32.812-7.523-60.304-43.406-69.059-72.45-1.75-5.795-10.255-5.09-10.892.91-3.093 28.906 5.366 64.086 21.375 83.107 12.256 14.567 30.016 24.135 48.799 27.112-1.137-14.181 0-26.044 4.775-33.225M321.555 107.78c-.363-5.568-8.157-6.301-9.607-.894-15.86 59.414-50.252 69.679-79.297 70.641 2.628 2.727 4.848 5.706 6.412 8.982 3.625 7.516 4.418 19.156 3.602 31.804 17.264-1.26 39.875-8.043 54.806-26.992 18.193-23.073 26.123-51.83 24.084-83.541" fill="#A18677"/>
    <path d="M304.136 129.636c5.674.615 11.53 2.004 16.816 4.258l.435-4.326c-4.942-1.981-10.273-3.233-15.558-3.87l-1.693 3.938zm-5.125 9.996l-2.06 3.529c3.707 1.047 7.413 2.072 10.96 3.666 3.386 1.525 6.475 3.597 9.357 5.92l1.03-4.304-3.706-2.64c-4.85-3.12-10.205-4.668-15.581-6.171zm22.856-21.312l-.114-4.303c-3.844-.911-7.688-.775-11.554-.684l-1.236 4.03 5.995-.227c2.38-.091 4.69.387 6.91 1.184zm-40.908 43.125l-3.295 2.55c8.74 6.899 16.061 15.141 21.919 24.477l2.585-3.552c-5.788-8.903-12.904-16.759-21.21-23.475zm-26.723 13.479c5.4 12.591 8.03 25.66 9.975 39.072l3.89-1.458c-1.991-13.297-4.622-26.32-9.907-38.82l-3.958 1.206zm35.142-21.745c8.145 4.463 15.81 9.29 21.713 15.939l1.83-4.008c-5.834-6.102-13.087-10.747-20.843-15.05l-2.7 3.12zm-22.124 16.963c7.642 10.451 13.11 21.449 17.549 33.403l3.34-2.778c-4.439-11.59-9.838-22.268-17.205-32.469l-3.684 1.844z" fill="#79574F"/>
    <path d="M264.227 184.139c-5.73-7.845-14.144-13.638-23.49-16.238 8.573-1.163 21.671-3.922 22.876-10.24 1.206-6.34-38.976-12.565-51.506-9.236 4.162-1.87 4.025-7.48-.796-17.195-4.798-9.715-38.499 14.641-38.499 14.641-5.298-9.464-29.425-24.288-36.202-20.48-6.776 3.81-2.32 7.869 2.66 11.905-3.524 2.463-28.697-5.724-35.883-1.414-7.209 4.288 7.777 6.933 11.688 10.4-10.3 2.075-28.311 1.573-30.88 6.271-2.593 4.698 7.617 5.405 11.438 8.119-6.845 2.987-23.582 15.234-22.672 22.167.932 6.933 15.872 7.024 17.964 4.082-.864 6.841-12.302 21.825-7.572 23.717 4.73 1.893 12.825-3.808 15.168-1.527-2.73 3.42-6.05 8.666 2.137 11.972 8.164 3.284 13.371-4.47 17.874-8.803 2.797 7.982 4.662 13.866 10.824 15.805 6.163 1.938 18.67-7.024 20.762-11.152 3.638 7.389 11.734 13.113 18.829 12.885 7.094-.205 11.051-6.18 13.894-12.133 5.116 5.132 11.87 9.214 19.124 9.008 7.231-.182 14.554-5.883 14.645-13.158 3.502 4.47 7.527 16.1 14.894 16.078 7.391 0 7.255-10.65 9.256-14.39 5.298 3.147 8.095 11.083 17.1 6.841s-2.456-16.351-6.572-23.421c3.457-2.668 8.687 1.14 12.712-.548 4.957-2.075 3.411-9.623.227-13.956" fill="#543630"/>
    <path d="M157.837 311.91c-17.978-.732-30.07 4.627-30.23 22.948-.182 18.321 14.739 29.635 31.097 28.742 17.522-.962 27.172-12.802 27.834-24.643 1.05-18.94-10.54-26.314-28.7-27.046" fill="#A8988E"/>
    <path d="M158.05 300.399c-23.214-.733-38.849 4.626-39.076 22.947-.227 18.322 19.062 29.635 40.21 28.742 22.67-.962 35.128-12.802 35.968-24.642 1.361-18.94-13.593-26.314-37.102-27.047" fill="#D0C0B7"/>
    <path d="M171.257 328.94l-.729-3.43c-8.702 8.242-20.593 7.666-29.865.092l-2.255 2.51-.73.345c10.64 8.979 24.285 9.67 34.536 1.036l-.957-.553" fill="#897876"/>
    <path d="M181.872 314.286c-5.227.391-13.308 10.568-9.716 14.205 3.592 3.661 14.574-2.693 15.288-7.551.46-3.27-.369-7.046-5.572-6.654M127.103 311.683c-4.858 2.141 3.085 22.264 11.259 16.922 8.933-5.848-6.4-19.04-11.259-16.922" fill="#755F5C"/>
    <path d="M219.174 240.575c-2.855-2.326-6.746-1.06-8.91 2.486-1.75 2.855-2.418 7.253-1.198 10.66 1.197 3.407 8.174 7.252 12.34-.944 1.935-3.799.623-9.9-2.232-12.202M127.984 243.367l-2.348-5.204c-1.796-1.91-4.26-2.21-6.355-1.174-2.095 1.036-3.868 3.293-5.157 5.986l-1.381 4.513c-.346 2.97.53 6.078 2.003 8.173 1.45 2.072 6.976 4.398 11.304-2.44 1.658-2.602 2.487-6.4 1.934-9.854" fill="#17111C"/>
    <path d="M135.103 230.273c1.68 5.273 2.602 11.581 2.349 17.107h2.762c.254-5.71-.713-12.41-2.463-17.843l-2.648.736M147.466 243.27c.783 7.345.898 14.666.345 22.034h2.763c.553-7.368.437-14.69-.368-22.034h-2.74M159.074 231.298c.668 4.927.576 10.084.322 15.057h2.763c.277-5.226.277-10.59-.437-15.794l-2.648.737M168.895 235.73a97.922 97.922 0 01-1.91 21.987l2.67.737a101.686 101.686 0 002.003-22.724h-2.763M181.178 224.322c.23 5.618 0 11.19-.622 16.76h2.74c.644-5.57.852-11.142.644-16.76h-2.762M190.011 250.718c-.69 7.092-2.072 13.93-3.799 20.79l2.648.737c1.819-7.114 3.2-14.205 3.891-21.527h-2.74M178.377 249.97c.368 7.696-2.28 16.168-3.615 23.775l2.648.688c1.381-7.852 4.121-16.479 3.73-24.463h-2.763M166.032 271.67c-.483 5.433-.598 10.982-1.91 16.3l2.647.737c1.381-5.572 1.52-11.35 2.026-17.037h-2.763M158.365 259.605a153.916 153.916 0 01-.967 15.265h2.74c.599-5.088.921-10.153.99-15.265h-2.763M138.439 255.323c1.404 7.068 1.197 14.505 1.496 21.688h2.74c-.3-7.46-.138-15.08-1.566-22.425l-2.67.737M149 274.674c.552 5.595.644 11.167.276 16.784h2.763c.368-5.617.276-11.189-.277-16.784H149M156.696 287.464c-.16 2.832-.345 5.64-.506 8.473h2.763c.16-2.832.345-5.641.506-8.473h-2.763M141.812 288.891l.483 8.496h2.763l-.484-8.496h-2.762M146.002 222.71c.253 2.832.506 5.64.737 8.473h2.762c-.253-2.832-.483-5.641-.736-8.473h-2.763M183.012 281.132c-.944 4.766-2.118 9.532-4.121 13.976l2.371 1.404c2.119-4.674 3.408-9.624 4.42-14.643l-2.67-.737M174.102 284.92a225.051 225.051 0 01-3.569 12.824l2.648.737a203.978 203.978 0 003.592-12.847l-2.67-.714M193.292 227.246c-.138 4.397-.506 8.818-1.75 13.054l2.648.737c1.312-4.444 1.727-9.163 1.865-13.791h-2.763" fill="#815948"/>
  </g>
</svg>
