<?xml version="1.0" encoding="UTF-8"?>
<svg width="720px" height="720px" viewBox="0 0 720 720" version="1.1" xmlns="http://www.w3.org/2000/svg" xmlns:xlink="http://www.w3.org/1999/xlink">
    <title>img_k</title>
    <g id="img_k" stroke="none" stroke-width="1" fill="none" fill-rule="evenodd">
        <g id="koala" transform="translate(106.000000, 24.000000)">
            <path d="M398.461931,647.46743 C398.143497,639.686171 391.551924,628.350509 361.141528,621.017553 C439.157728,575.899058 442.02363,500.840326 415.402591,481.05095 C372.636976,449.28548 342.258423,485.501959 326.495966,518.708403 C309.810052,553.804124 310.606136,611.891385 323.343475,630.560003 C343.691373,660.340131 399.035111,660.916521 398.461931,647.46743" id="Fill-745" fill="#91928E"></path>
            <path d="M340.250177,323.334696 C324.671379,326.297365 310.17356,326.265508 300.921662,326.902642 C260.543963,329.642314 219.943709,327.762771 179.915738,321.295871 C170.727427,319.830465 162.238572,318.205775 154.385587,315.88024 C132.829618,348.565166 113.181258,381.186379 104.533436,426.613966 C87.1106173,517.915135 132.002988,581.214305 152.255425,600.615007 C185.16166,632.057523 232.088813,647.157577 279.556454,640.117257 C387.240916,624.157073 406.634929,513.423347 392.13711,437.795652 C383.997983,395.426303 359.580603,354.04451 340.250177,323.334696" id="Fill-746" fill="#ACADA9"></path>
            <path d="M170.768131,461.541731 C174.684635,434.088421 176.340392,405.679659 186.370462,379.850616 C208.627665,322.619063 260.975077,332.300973 271.641976,333.033486 C301.254563,335.008086 352.869621,356.728687 367.516707,417.813894 C372.388455,438.101317 377.005471,476.860805 372.197406,504.409661 C366.688828,536.066958 356.05377,566.959894 332.013444,588.298314 C326.536707,593.171117 298.261463,601.483547 290.460298,601.547243 C253.842582,601.865727 210.347105,601.133214 176.276709,541.863365 C162.712234,518.231861 166.947152,488.517315 170.768131,461.541731" id="Fill-747" fill="#E3ADAE"></path>
            <path d="M245.486672,489.103329 C240.40526,489.103329 238.023348,482.568431 236.308371,477.610922 L235.927265,478.512287 C234.402841,482.278707 232.497311,486.946491 228.114593,487.171832 C223.57308,487.397174 221.508757,482.697198 220.206645,478.383521 C218.777497,482.278707 217.157797,485.240335 212.965632,485.948551 L205.216477,482.14994 L202.453459,477.482156 C200.738483,480.991042 198.261294,484.950611 194.481993,485.014994 C190.988522,484.918419 188.797163,482.214323 187.495051,479.220503 C186.383492,482.632814 184.54148,485.787593 180.825697,485.819784 L175.839561,483.276647 C173.298855,480.186251 172.758954,475.164359 173.14006,472.749988 L174.886796,471.526707 L176.093631,473.265054 L178.126196,481.312958 L180.889215,482.793772 L180.920973,482.793772 C184.096856,482.793772 185.494245,476.097916 185.811833,472.106156 L187.304498,470.721916 L188.797163,472.138347 C188.924198,474.745868 190.575657,481.892407 194.545511,481.988982 L200.516171,474.552719 L202.866324,471.172599 L204.200195,471.236982 L204.930648,473.039713 L207.471354,480.15406 L212.489249,482.954731 C215.538097,482.439665 216.427344,480.186251 218.142321,475.196551 L218.936291,472.910946 L220.33368,471.913006 L220.365439,471.913006 L221.762827,472.975329 L222.49328,475.454084 C223.795392,480.186251 225.129263,484.14582 227.797005,484.14582 L227.955799,484.14582 C230.464746,484.017054 231.893894,480.475976 233.164247,477.353389 L235.355606,472.943138 L236.752994,472.363689 L237.928071,473.297246 L239.007871,476.258874 C240.437019,480.411593 242.406066,486.077317 245.486672,486.077317 L245.613708,486.077317 C249.424767,485.916359 252.537132,477.96503 254.029797,471.172599 L255.490703,469.981509 L255.522462,469.981509 L256.951609,471.236982 C257.523268,474.327377 261.588398,483.695138 265.08187,483.727329 L265.113628,483.727329 C267.559058,483.727329 268.543582,480.894467 269.845694,476.258874 L271.084288,472.299305 L272.545194,471.301365 L273.942583,472.39588 C275.244695,477.128048 277.848919,482.504048 280.897766,482.504048 L281.183596,482.471856 C285.40752,481.988982 287.471844,474.552719 287.979985,470.689725 L289.47265,469.369868 L290.933556,470.689725 C291.63225,475.357509 297.285322,482.246515 300.461205,482.246515 L300.524723,482.246515 L303.383017,479.832144 C305.574376,476.452024 306.590659,471.462323 305.606135,468.919186 L306.400106,466.987689 L308.337394,467.663713 C313.799913,478.705437 317.515696,481.119808 319.707055,481.184192 L319.802332,481.184192 C323.518115,481.184192 326.185856,473.039713 327.773798,468.146587 L328.631286,465.571257 L330.123951,464.573317 L331.489581,465.700024 C332.378828,469.080144 338.00014,479.510228 341.747682,479.381461 C346.193918,479.15612 350.608395,472.943138 351.275331,467.921246 L352.895031,466.601389 L354.260661,468.21097 L362.517956,479.317078 C363.343686,479.478036 365.217457,478.673246 367.313539,471.462323 L369.18731,470.432192 L370.203593,472.299305 C369.314346,475.293126 366.995951,483.212263 362.009815,482.310898 C358.960967,481.795832 354.991114,477.256814 352.831513,473.136287 C350.640154,477.932838 346.447989,482.182132 341.906476,482.407473 C336.92034,482.632814 332.537622,475.389701 330.187469,470.432192 C328.123145,476.709557 325.169574,484.306778 319.611779,484.210204 C315.324337,484.081437 311.576795,479.510228 308.623224,474.552719 L305.860206,481.506108 L300.58824,485.272527 L300.461205,485.272527 C296.777181,485.272527 292.299186,480.894467 289.821997,476.258874 C288.329332,480.894467 285.661591,485.014994 281.532943,485.497868 C277.245501,486.012934 274.29193,481.634874 272.576953,477.610922 C271.338359,482.021174 269.813935,486.753341 265.145387,486.753341 L265.08187,486.753341 C260.857945,486.72115 257.523268,481.216383 255.649497,476.741749 C253.902762,482.214323 250.758638,488.91018 245.708984,489.103329 L245.486672,489.103329" id="Fill-748" fill="#D499A0"></path>
            <path d="M230.751588,523.516168 C225.457524,523.516168 222.332113,516.40182 220.865083,511.122395 C217.771564,517.174419 213.753178,520.039473 208.682358,519.58879 C203.515862,519.138108 200.741262,514.856623 199.274232,510.736096 C198.317474,514.277174 196.690984,517.818251 192.959626,518.043593 L187.729346,515.59703 L184.508259,510.253222 C183.264473,512.731976 181.510416,515.114156 178.576356,514.856623 L173.473644,511.283353 L171.017964,503.171066 L172.899589,502.173126 L173.88824,504.072431 L176.056892,509.705964 L178.767708,511.830611 C180.26663,512.02376 181.893119,509.577198 183.392041,504.877222 L185.17799,503.750515 L186.357992,505.327904 L189.897999,513.504575 L192.768274,515.017581 C195.542874,514.856623 196.467741,509.995689 197.137472,506.422419 L197.807203,503.428599 L199.369908,502.334084 L200.70937,503.65394 C200.964506,505.714204 202.463428,516.015521 208.937494,516.59497 C213.498043,516.949078 217.197509,513.408 219.940217,505.585437 L221.534814,504.587497 L222.842384,505.939545 C223.416439,510.961437 226.70131,520.490156 230.78348,520.490156 L231.006723,520.490156 L234.897541,517.721677 C237.448898,514.277174 238.915927,508.933365 238.947819,506.744335 L238.852143,505.939545 L240.159713,504.362156 L241.849987,505.553246 L241.945663,506.454611 C242.583502,511.573078 246.888915,518.655234 252.565682,518.655234 C256.233257,518.655234 260.666238,512.088144 260.889481,507.645701 L262.260835,506.229269 L263.855433,507.355976 C264.525164,510.060072 269.245172,516.305246 272.880855,516.820311 L276.261402,515.757988 L279.323029,509.770347 L280.598707,508.386108 L282.193304,509.319665 C283.979254,513.762108 286.69007,517.367569 288.252775,517.367569 L291.091159,516.047713 L292.813324,509.190898 L294.120894,507.516934 L295.779275,508.83679 C296.480898,514.084024 300.531176,520.264814 303.273884,520.264814 L303.305776,520.264814 C305.50632,520.264814 306.97335,513.955257 307.866325,510.188838 L308.472272,507.581317 L309.620382,506.454611 L311.119304,507.03406 L313.032821,510.41418 C314.499851,513.375808 316.2858,517.013461 318.837156,517.045653 C322.568514,517.045653 327.926362,508.772407 328.213389,503.879281 L329.552851,502.46285 L331.147449,503.525174 C331.849072,505.939545 336.218269,512.860743 340.619358,512.860743 L340.65125,512.860743 C344.127473,512.828551 345.658287,508.547066 347.571804,502.012168 L348.273426,499.629988 L349.64478,498.567665 L351.11181,499.501222 L351.462622,500.338204 C352.897759,503.943665 355.130196,509.384048 358.255607,510.639521 L361.508586,510.156647 L365.17616,502.012168 L366.579406,500.370395 L368.174004,501.786826 C368.397247,505.102563 366.48373,510.22103 363.262643,512.60321 L357.139389,513.472383 C353.790734,512.120335 351.590189,508.257341 349.9637,504.555305 C348.209643,510.349796 346.104774,515.854563 340.683142,515.918946 L340.619358,515.918946 C336.250161,515.918946 332.455019,511.927186 330.222582,508.418299 C328.213389,513.955257 323.461489,520.071665 318.837156,520.071665 C314.563635,520.071665 312.20363,515.532647 310.513357,512.088144 C309.205787,517.560719 307.579297,523.290826 303.305776,523.290826 C299.925229,523.290826 296.799818,519.717557 294.854409,515.661413 L293.355487,518.075784 L288.284667,520.393581 L288.252775,520.393581 C285.286824,520.393581 282.799252,517.045653 281.204654,514.180599 L278.111135,518.140168 L272.466259,519.814132 C268.894361,519.299066 265.131111,515.564838 262.898674,512.120335 C261.080833,516.852503 257.030555,521.713437 252.565682,521.713437 C247.207834,521.713437 242.998097,517.464144 240.733768,512.699784 L237.289438,519.524407 L231.261859,523.516168 L230.751588,523.516168" id="Fill-749" fill="#D499A0"></path>
            <path d="M197.959894,556.094084 L197.800046,556.094084 C196.105658,556.029701 193.484152,555.128335 192.205368,550.685892 L186.546751,553.969437 L186.482812,553.969437 L182.646462,552.102323 C180.952074,550.460551 179.129807,547.370156 179.065868,543.66812 L180.568439,542.122922 L182.071009,543.603737 L184.756455,549.913293 L186.482812,550.943425 L191.502037,545.567425 L193.068547,544.247569 L194.507178,545.696192 L197.895955,553.068072 L197.959894,553.068072 C199.878069,553.068072 200.901096,546.372216 201.412609,543.153054 L201.764274,540.964024 L203.234875,539.708551 L204.737446,540.899641 C205.600625,544.891401 206.527743,548.335904 208.989401,550.524934 L211.227272,551.265341 C213.209386,550.621509 215.447257,546.179066 216.694071,540.48115 L218.35649,539.322251 L219.667243,540.899641 L223.503593,548.85097 L226.508734,550.653701 C228.714636,550.653701 229.737662,545.664 230.409024,542.348263 L230.984476,539.708551 L232.519016,538.581844 L233.957648,539.869509 C234.629009,544.215377 235.971732,552.907114 240.990957,552.939305 L241.022926,552.939305 C245.754425,552.939305 247.736539,546.983856 248.47184,543.442778 L249.942441,542.251689 L249.974411,542.251689 L251.413042,543.47497 C252.052434,546.726323 254.162426,552.746156 257.870898,552.746156 L258.094685,552.746156 C260.396496,552.617389 261.355583,549.591377 262.34664,545.696192 L263.337698,542.348263 L264.904207,541.414707 L266.21496,542.67018 C266.534656,544.66606 268.996314,549.526994 272.097364,549.526994 C275.070536,549.526994 277.947798,544.537293 279.066734,541.414707 L280.473396,540.416766 L280.505365,540.416766 L281.912027,541.446898 C283.862172,547.434539 286.004134,549.84891 289.680637,549.84891 C293.325169,549.816719 295.435162,545.792766 297.481216,541.897581 L297.992729,540.931832 L299.878935,540.255808 L300.774083,542.058539 L302.212714,546.340024 L306.976183,549.526994 C310.428898,549.526994 312.379043,545.181126 313.817674,541.961964 L313.977522,541.607856 L315.67191,540.738683 L316.854785,542.219497 C316.854785,544.344144 318.357355,548.529054 321.778101,548.561246 L323.856124,547.370156 L327.820353,539.000335 L328.747471,537.197605 L330.665646,538.066778 L331.11322,539.161293 C332.296095,541.994156 334.597905,547.241389 337.890773,546.758515 C340.736066,546.372216 343.453481,542.798946 345.915139,536.167473 L347.417709,535.169533 L348.792402,536.328431 C349.815428,540.577725 352.309056,542.541413 354.32314,542.605796 L357.42419,540.642108 L359.150548,536.135281 L360.429331,534.396934 L362.155689,535.684599 L359.662061,542.637988 L354.227231,545.631808 C351.98936,545.567425 349.144067,544.215377 347.289831,540.803066 C345.563473,544.47291 342.654241,549.172886 338.274408,549.752335 C334.022453,550.299593 331.337007,546.66194 329.674589,543.378395 L327.085053,548.207138 L321.778101,551.587257 L321.746132,551.587257 C318.453264,551.555066 316.151454,549.301653 314.90464,546.66194 C313.242222,549.687952 310.844503,552.585198 306.976183,552.585198 L299.783026,548.174946 L298.568182,546.211257 C296.554098,549.623569 293.932592,552.842731 289.680637,552.874922 L289.616697,552.874922 C284.725351,552.874922 282.071875,549.591377 280.377487,545.85715 C278.555221,549.140695 275.677958,552.553006 272.129334,552.585198 L272.097364,552.585198 C268.932375,552.585198 266.470717,550.106443 264.968146,547.531114 C264.009059,551.200958 262.506488,555.514635 258.286503,555.772168 L257.870898,555.804359 C254.130457,555.804359 251.508951,552.681772 249.910471,548.947545 C247.960327,553.518754 244.891246,555.965317 241.022926,555.965317 L240.990957,555.965317 C236.163549,555.965317 233.701891,551.555066 232.391138,547.144814 C231.400081,550.589317 229.801602,553.711904 226.508734,553.711904 L221.297692,550.911234 L218.164672,546.275641 C216.949828,549.623569 214.999683,553.196838 212.15439,554.162587 L207.007287,552.810539 L203.65048,547.949605 C202.755332,552.23109 201.3167,556.094084 197.959894,556.094084" id="Fill-750" fill="#D499A0"></path>
            <path d="M239.179765,585.29188 L239.148073,585.29188 C235.661976,585.29188 232.714639,582.008335 230.813132,578.531641 L229.450385,580.527521 L224.41139,583.328192 L224.316314,583.328192 C221.622512,583.328192 219.11886,580.817246 217.724422,577.694659 C215.822914,580.752862 213.509413,581.493269 211.639597,581.493269 C207.583048,581.493269 203.748341,575.795353 203.209581,574.314539 L204.128643,572.35085 L206.03015,573.284407 L211.639597,578.467257 C213.794639,578.467257 215.442613,576.567952 216.583517,572.801533 L218.168107,571.73921 L219.499162,573.091257 C219.879463,576.857677 222.414807,580.334371 224.348006,580.30218 L227.200267,578.531641 L228.975008,574.121389 L230.147604,572.479617 L231.858961,573.477557 C232.999865,577.018635 236.073969,582.265868 239.179765,582.265868 C241.873567,582.265868 243.996917,579.400814 245.454739,573.702898 L246.722411,572.576192 L248.211925,573.380982 L249.321138,575.73097 C250.905728,579.239856 252.078324,581.30012 254.867202,581.267928 C258.955443,581.171353 261.300635,574.604263 262.061238,572.447425 L263.519061,571.449485 L264.9135,572.544 C266.212863,577.372743 269.191892,578.982323 271.600468,578.91794 C273.597051,578.821365 275.498558,576.052886 276.76623,571.256335 L278.287436,570.16182 L279.681875,571.449485 L285.703315,579.175473 C287.763282,578.274108 289.442947,575.376862 290.488776,570.54812 L291.97829,569.35703 L293.436112,570.580311 C294.133332,574.314539 296.351757,580.656287 300.186464,580.946012 L300.249848,580.946012 C301.802746,580.946012 306.556514,575.891928 307.855878,569.16388 L309.377084,567.940599 L310.803214,569.35703 L317.8071,580.978204 C322.053801,580.591904 325.22298,574.893988 326.64911,570.129629 L328.075241,569.067305 L329.501372,570.16182 L329.945057,571.964551 C330.642276,575.473437 331.497955,578.402874 333.684688,578.209725 C334.793901,578.145341 337.709546,576.889868 341.227335,566.524168 L343.128842,565.558419 L344.047904,567.489916 C340.9738,576.53576 337.646162,581.042587 333.843147,581.235737 C330.261975,581.396695 328.58231,578.499449 327.726631,575.602204 C325.571589,579.91588 322.307335,583.617916 317.997251,583.972024 L315.081606,582.780934 C313.148407,581.074778 310.866598,577.501509 309.377084,574.314539 C307.126967,579.819305 302.94365,584.10079 299.996313,583.972024 C295.781305,583.650108 293.277654,579.626156 291.914906,576.085078 C290.615543,579.143281 288.872494,581.10697 286.590685,582.008335 L283.8335,581.622036 L278.445895,575.666587 C276.76623,579.690539 274.484421,581.847377 271.695543,581.943952 L271.378625,581.943952 C268.177754,581.943952 265.325493,580.076838 263.487369,576.92206 C261.934471,580.237796 259.304053,584.197365 254.962277,584.326132 C250.525426,584.261749 248.592227,581.235737 247.166096,578.177533 C245.264589,582.909701 242.602478,585.29188 239.179765,585.29188" id="Fill-751" fill="#D499A0"></path>
            <path d="M235.923822,366.002587 L229.809372,364.135473 C226.913053,362.107401 225.464894,359.049198 224.692542,355.669078 C223.276564,359.467689 221.120416,363.330683 217.677014,363.588216 C211.562564,364.038898 210.017861,356.11976 209.245509,351.870467 L210.468399,350.099928 L212.238372,351.32321 C213.139449,356.248527 214.39452,360.755353 217.451745,360.562204 C220.219339,360.369054 222.311124,353.447856 223.244383,350.486228 L223.952372,348.297198 L225.593619,347.331449 L226.880872,348.74788 C227.202685,353.641006 227.846311,359.081389 231.547163,361.656719 C235.151471,364.167665 240.429207,362.751234 243.486432,359.918371 C247.219465,356.473868 248.828531,351.13006 249.697427,347.395832 L251.049042,346.236934 L252.561564,347.170491 L253.462641,352.095808 C253.913179,356.795784 254.42808,359.918371 257.485306,360.143713 C260.639075,360.304671 262.409048,356.924551 264.275564,352.707449 L266.85007,348.329389 L268.491317,348.104048 L269.360212,349.520479 C269.263668,352.385533 271.226729,357.471808 274.316135,360.401246 L279.400784,362.590275 C285.064696,362.171784 287.767927,353.31909 288.926454,349.552671 L290.149344,348.361581 L291.694048,348.74788 L293.20657,351.741701 C295.233993,356.441677 297.35796,360.562204 301.123174,359.564263 C304.276943,358.69509 305.886009,354.542371 306.947993,351.001293 L308.84669,349.971162 L309.844311,351.870467 C308.557059,356.151952 306.497454,361.238228 301.927707,362.461509 C295.781075,364.167665 292.530762,357.793725 290.760789,353.737581 C288.926454,358.727281 285.708322,365.165605 279.626053,365.616287 L272.22435,362.590275 C269.77857,360.272479 268.008597,356.924551 267.075339,353.898539 L267.043157,353.962922 C265.305366,357.825916 262.698679,363.620407 257.227855,363.169725 C252.336295,362.783425 251.145586,358.437557 250.662866,354.477988 L245.546037,362.171784 C243.100256,364.393006 239.495949,366.002587 235.923822,366.002587" id="Fill-752" fill="#D499A0"></path>
            <path d="M195.940978,397.582563 L192.003663,396.005174 C188.161606,392.625054 187.304288,384.834683 187.113772,381.647713 L188.510884,380.038132 L190.098511,381.454563 C190.447789,387.216862 191.940158,391.916838 193.940568,393.719569 L196.163246,394.524359 C199.402004,394.299018 202.767773,386.508647 204.037875,381.293605 L205.561997,380.134707 L206.959108,381.486754 C207.467149,385.76824 210.547145,391.820263 214.86549,391.820263 L215.119511,391.788072 C218.675795,391.594922 220.168164,386.057964 221.343008,381.615521 L222.168574,378.782659 L223.629191,377.720335 L225.026302,378.847042 C225.915373,382.00182 229.916193,390.017533 234.139281,389.792192 C237.409792,389.727808 240.807313,383.19291 242.553703,377.140886 L244.173082,376.078563 L245.474936,377.527186 C245.601947,381.937437 249.983797,388.407952 254.492657,389.180551 C257.191623,389.695617 260.843165,384.899066 264.113676,376.400479 L265.28852,375.434731 L266.685632,376.01418 L268.495526,380.038132 C270.210163,384.609341 273.099644,392.303138 278.243555,392.625054 L278.529328,392.657246 C283.387466,392.657246 290.56354,384.802491 291.452611,376.368287 L293.008485,375.01624 L294.437349,376.464862 C294.627865,381.712096 297.390335,389.631234 304.344141,390.049725 L304.598161,390.049725 C309.392794,390.049725 314.536706,382.323737 316.156085,376.62582 L317.934227,375.563497 L319.045566,377.334036 C318.664535,379.394299 320.061647,384.866874 323.109891,388.665485 L328.380812,391.884647 L328.47607,391.884647 L333.588228,388.536719 C336.318946,384.770299 337.398533,379.555257 336.922245,378.171018 L337.874821,376.239521 L339.779973,377.205269 C340.700797,380.038132 338.922654,386.315497 336.001421,390.339449 C333.778743,393.397653 331.143283,394.94285 328.317307,394.94285 L320.791955,390.56479 L316.822888,382.870994 C313.996912,388.246994 309.170527,393.462036 304.153626,393.075737 C298.025386,392.721629 294.437349,388.086036 292.69096,383.128527 C289.674469,390.242874 283.450971,395.94079 278.05304,395.651066 C270.972224,395.200383 267.66996,386.37988 265.701303,381.100455 L265.574293,380.746347 C261.890998,389.051784 257.953684,392.914778 253.984617,392.174371 C249.666271,391.433964 245.697204,387.184671 243.760299,382.742228 C241.918652,387.249054 238.711646,392.75382 234.171033,392.818204 L234.044023,392.818204 C229.408152,392.818204 225.851868,387.828503 223.851458,383.836743 C222.486099,388.729868 220.453937,394.524359 215.310026,394.814084 C210.48364,395.168192 207.181376,391.176431 205.403234,386.959329 C203.72035,391.369581 200.703859,397.228455 196.385513,397.550371 L195.940978,397.582563" id="Fill-753" fill="#D499A0"></path>
            <path d="M326.275518,426.683784 L326.11657,426.683784 C320.203721,426.555018 317.755929,420.374228 316.293612,414.998228 C314.100136,420.663952 310.221815,425.846802 304.595072,426.297485 L297.823907,423.722156 L293.532323,417.348216 L289.812951,423.271473 L283.772944,426.522826 L283.709365,426.522826 C278.750201,426.458443 275.634829,420.116695 274.140723,414.998228 L273.886406,415.64206 C272.137983,420.406419 270.294192,425.878994 264.889975,425.589269 C259.962601,425.331737 256.306808,419.601629 254.463016,414.129054 C252.682804,418.893413 249.472063,424.430371 245.212269,424.526946 L245.085111,424.526946 C240.825317,424.526946 237.741735,419.859162 235.611837,415.577677 L233.418361,419.987928 C231.129517,423.174898 227.886987,425.138587 224.549088,425.363928 C220.257505,425.653653 217.205712,422.917365 215.39371,417.219449 C214.217498,420.889293 211.928653,424.623521 206.9377,424.913246 C201.12022,425.267353 198.004848,420.663952 196.224636,416.800958 C195.112003,420.889293 192.918527,424.816671 187.355363,424.977629 L187.164626,424.977629 L181.315356,421.372168 C179.153669,417.734515 178.708616,411.618108 179.312617,410.523593 L181.347145,409.911952 L182.046515,411.682491 L184.526096,420.696144 L187.291784,421.951617 C192.155578,421.82285 193.236422,417.605749 194.190107,411.682491 L194.285476,411.231808 L195.557056,409.976335 L197.114742,410.845509 L197.655164,412.229749 C199.498955,417.412599 201.819589,422.176958 206.778753,421.887234 C211.578969,421.597509 212.818759,416.318084 213.613497,411.392766 L213.994971,409.364695 L215.552657,408.27018 L216.919606,409.622228 C217.93687,418.313964 220.416452,422.563257 224.358351,422.337916 L231.002359,418.185198 L233.068677,409.750994 L233.990572,407.948263 L235.866154,408.720862 L236.470154,410.169485 C237.932472,413.549605 241.27037,421.500934 245.085111,421.500934 L245.14869,421.500934 C249.122379,421.404359 253.096067,410.137293 253.096067,407.787305 L254.558385,406.274299 L254.621964,406.274299 L256.084281,407.690731 C256.465755,413.388647 260.471234,422.337916 265.048923,422.531066 L265.20787,422.563257 C267.941768,422.563257 269.308717,419.376287 271.08893,414.579737 L273.314195,409.364695 L274.903671,408.624287 L276.111672,409.944144 C276.620304,414.676311 279.894624,423.432431 283.741154,423.496814 L283.772944,423.496814 L287.619474,421.21121 L292.006427,411.167425 L291.974637,410.555784 L293.373376,409.010587 L294.962851,410.362635 L294.994641,411.07085 C295.280746,414.805078 297.251696,419.086563 299.826646,421.468743 L304.340756,423.271473 C309.744973,422.82079 313.527924,415.803018 314.894873,409.07497 L316.293612,407.851689 L316.357191,407.851689 L317.819508,408.946204 L318.455298,411.45715 C319.6633,416.253701 321.443512,423.529006 326.180149,423.625581 L326.275518,423.657772 C331.488997,423.657772 336.003107,412.197557 336.861424,407.819497 L338.4509,406.596216 L339.849638,408.012647 C340.135744,412.970156 345.667118,418.893413 349.672596,418.861222 L354.949655,415.64206 L357.047762,408.431138 L358.223974,406.660599 L359.972397,407.851689 C360.576398,411.006467 359.559134,414.64412 357.302079,417.541365 L349.799754,421.887234 C345.317434,422.144766 340.676165,417.927665 338.323742,413.25988 C336.289213,418.82903 332.188366,426.683784 326.275518,426.683784" id="Fill-754" fill="#D499A0"></path>
            <path d="M281.222297,455.801102 C276.907502,455.801102 272.338896,449.781269 270.022867,444.791569 C267.484753,449.813461 262.218166,454.320287 257.332296,454.094946 C252.478152,453.740838 249.368962,448.654563 248.131631,443.503904 C245.498338,448.364838 241.691166,453.451114 237.281193,453.451114 L237.154287,453.451114 L231.538709,450.231952 C229.730302,448.042922 228.302613,444.952527 227.509452,442.055281 C225.447235,446.916216 222.306318,452.485365 217.356995,452.485365 L217.103184,452.485365 C211.551059,452.292216 210.123369,447.39909 209.520567,443.117605 C207.014179,447.01279 203.714631,450.328527 199.209478,449.942228 C195.529212,449.652503 192.26139,445.950467 190.579889,442.312814 L185.281575,448.944287 L182.48965,449.169629 L180.2688,445.950467 C179.126648,442.505964 178.587299,436.26079 179.602545,434.168335 L181.633036,433.492311 L182.299291,435.520383 L183.82216,446.465533 C184.932585,446.240192 188.295586,440.960766 189.374285,437.773796 L190.008813,435.681341 L191.753767,435.166275 L192.70556,436.743665 L192.388296,438.127904 L193.815985,442.087473 L199.431563,446.916216 C203.873263,447.238132 206.855547,442.184048 209.108124,437.709413 L210.694445,436.872431 L211.931776,438.160096 L212.185587,440.445701 C212.788389,445.789509 213.454644,449.330587 217.230089,449.459353 C221.291072,449.716886 224.431989,441.82994 226.050037,437.64503 L226.938377,435.423808 L228.715057,434.619018 L229.793755,436.292982 C229.381312,439.029269 231.094539,444.984719 233.823012,448.300455 L237.21774,450.39291 L237.281193,450.39291 C240.898005,450.39291 245.11762,443.503904 247.655735,437.580647 L249.337235,436.711473 L250.511113,438.224479 C250.352481,443.117605 253.080954,450.747018 257.554381,451.068934 L257.871645,451.068934 C262.440251,451.068934 268.055829,444.501844 268.563451,439.737485 L270.054594,438.385437 L271.545736,439.801868 C271.831274,443.568287 277.795842,452.77509 281.222297,452.77509 L281.317476,452.77509 C284.331487,452.614132 286.710969,445.725126 287.40895,441.121725 L288.83664,439.801868 L288.868366,439.801868 L290.359508,441.057341 C291.469933,447.302515 293.754236,450.167569 297.751766,450.296335 L299.179455,449.523737 C301.146494,447.495665 302.542457,442.441581 302.320372,438.256671 L303.716335,436.679281 L305.302656,438.031329 C305.588194,440.703234 308.856016,449.040862 313.107358,449.040862 L313.202537,449.040862 C317.295246,448.879904 320.087172,443.503904 321.038965,438.224479 L322.625286,436.969006 L323.989523,438.44982 C324.084702,441.443641 326.464184,449.008671 331.540413,449.040862 C334.649603,449.040862 335.886934,444.759377 336.965632,440.02721 L337.949152,436.486132 L339.123029,435.552575 L340.487266,436.132024 L342.327399,441.186108 C343.120559,444.340886 344.230984,448.654563 346.229749,448.654563 L346.261476,448.654563 C349.910015,448.557988 353.399922,440.928575 353.24129,435.520383 L354.383442,434.007377 L356.064942,434.844359 L356.540839,436.196407 C357.175367,438.417629 359.174132,445.177868 362.283322,445.242251 L363.933097,444.534036 L365.043522,436.872431 L366.312579,435.134084 L368.025806,436.421749 C368.025806,436.486132 369.009325,443.246371 366.185673,446.529916 L362.346775,448.268263 L362.21987,448.268263 C358.825142,448.20388 356.667745,444.952527 355.303508,441.765557 C353.78064,446.819641 350.544544,451.551808 346.356655,451.712766 L346.198023,451.712766 C342.041861,451.712766 340.550719,446.368958 339.503747,442.280623 C338.456774,446.658683 336.648368,452.066874 331.540413,452.066874 C326.908354,452.066874 323.894343,448.236072 322.308022,444.308695 C320.563068,448.429222 317.580784,451.905916 313.329443,452.066874 C309.331913,452.163449 306.444808,448.686754 304.572948,445.01691 L301.336853,451.648383 L297.656587,453.322347 C292.897622,453.161389 290.359508,450.19976 288.995272,447.173749 C287.726215,451.068934 285.410185,455.57576 281.476108,455.801102 L281.222297,455.801102" id="Fill-755" fill="#D499A0"></path>
            <path d="M481.878486,68.1436258 L490.530401,70.8578322 C489.344768,62.1085082 476.174631,45.4400881 463.741509,39.3091749 C468.419952,39.7881525 473.130439,40.2990619 477.840926,40.7780395 C466.208907,25.4826885 438.586867,17.9787062 420.161492,20.4374579 C423.9427,16.3182506 429.326114,13.6998398 434.901792,13.3166577 C426.794627,8.75040466 416.828903,8.59074546 407.792458,10.8579061 C398.788058,13.1250666 390.520673,17.627456 382.381464,22.0979135 C383.599141,16.9568874 386.034494,12.1032478 389.399128,8.04790419 C371.935077,14.9132497 357.707484,29.5699639 351.330702,47.1963392 L348.767172,39.5965615 C336.814711,58.3086193 333.834607,90.4001179 331.976048,98.6066006 C364.276531,117.574113 385.169303,147.174928 398.435573,174.98756 C402.825618,184.215862 406.863179,195.487801 409.426709,207.813491 C427.916172,211.294062 443.681884,212.220085 456.948153,210.208379 C478.738161,206.9194 488.73593,198.42553 499.022095,177.957221 C515.717087,144.684245 504.469597,101.19308 481.878486,68.1436258" id="Fill-756" fill="#ACADA9"></path>
            <path d="M470.461652,119.930368 C468.987021,107.925015 461.61387,98.7630352 453.567517,89.6326482 C421.542393,53.4586235 388.427325,90.5488462 375.155652,111.526621 C372.879592,115.15982 369.321244,120.056741 366.179641,125.522336 C377.720226,137.812026 386.920637,151.428624 394.197617,164.982036 C403.205685,164.887257 413.431926,164.444954 419.683076,163.907873 C437.346583,162.359814 474.757314,155.156602 470.461652,119.930368" id="Fill-757" fill="#D499A0"></path>
            <path d="M159.675538,17.157293 C157.790857,20.7290715 156.992263,25.1937946 156.70477,29.9455356 C144.885585,8.00461069 120.576398,2.39181594 112.494632,0 C112.111307,2.35992506 114.475144,8.10028332 117.222305,11.8315162 C95.1811239,4.71985013 71.0316554,5.00686804 59.1485837,9.47159113 C61.1610394,12.1823159 67.6136751,14.3827865 71.3510929,14.6379136 C56.273647,20.7928533 40.8767636,24.9386676 27.8756609,36.8977473 C34.040803,37.0253108 38.2573768,37.3123287 44.4225189,37.4398922 C29.7603417,43.7861772 14.8745582,60.5926705 11.807959,71.6588056 C14.8745582,71.6269147 17.9411574,70.2874978 20.209163,68.91619 C14.6828957,76.6337828 10.3385469,84.4151573 7.59138518,91.7819504 C-2.05562471,117.741126 -2.21534341,143.540847 5.45115451,159.486287 C18.8994696,187.51837 65.7289944,195.49109 103.071228,192.58902 C111.089107,154.096728 133.673332,113.914221 181.077844,92.8343494 C179.959813,79.4082893 178.298739,38.1096007 159.675538,17.157293" id="Fill-758" fill="#ACADA9"></path>
            <path d="M146.874251,114.337043 C145.338758,110.228044 143.739285,106.664772 142.267771,104.192952 C113.701192,56.5863487 84.4308451,65.7031898 70.2915083,79.3463499 C56.1201819,92.9574085 45.4037162,113.052981 46.3314102,128.076508 C47.2271148,143.100035 57.335781,157.353124 85.8383809,163.837638 C92.9400388,165.442716 101.00138,167.529317 109.062722,169.005988 C116.7082,149.070923 128.800212,129.874195 146.874251,114.337043" id="Fill-759" fill="#D499A0"></path>
            <path d="M402.627347,279.238114 C378.786856,327.829548 324.166985,325.213331 301.408705,326.744775 C260.984908,329.456707 220.338303,327.606212 180.264633,321.129482 C148.880488,316.088479 125.294635,309.611748 108.361201,277.483335 C86.8442826,236.708645 91.0458111,100.601583 224.094215,80.8523396 C324.135155,65.9845733 374.26703,123.445619 398.616797,174.844699 C410.903085,200.751622 420.452014,242.83442 402.627347,279.238114" id="Fill-760" fill="#BEB9B6"></path>
            <path d="M310.829458,245.043734 C308.538384,228.687838 300.583267,171.410384 259.216659,173.065066 C220.013843,174.624286 205.821915,206.986047 203.689943,237.82041 C202.258022,258.663039 202.512586,285.583443 226.791603,299.998269 C251.07062,314.381274 297.40122,310.594598 309.397537,274.859831 C312.579584,265.345409 312.229558,254.971826 310.829458,245.043734" id="Fill-761" fill="#D2CFCB"></path>
            <path d="M216.789176,210.078078 C220.331053,196.596505 225.869262,167.73952 257.842755,167.001243 C289.784049,166.295065 305.04632,217.492943 298.155759,241.374587 C294.066501,255.626535 284.600028,260.954966 269.595348,264.261161 C260.644058,266.251298 250.759,265.801913 241.646715,264.164864 C210.671388,259.285819 214.470856,218.8732 216.789176,210.078078" id="Fill-762" fill="#6F6F6C"></path>
            <path d="M143.479048,163.044521 C147.69615,159.05276 152.235168,155.543874 157.160485,152.48567 C160.44403,150.457599 157.418018,145.210365 154.102281,147.270629 C148.758473,150.618557 143.768772,154.449359 139.197563,158.795227 L143.479048,163.044521" id="Fill-763" fill="#91928E"></path>
            <path d="M367.32003,152.342416 C363.231695,148.028739 358.628294,144.45547 353.477635,141.590416 C350.065324,139.691111 347.039312,144.906153 350.419432,146.805458 C355.151599,149.445171 359.304318,152.664332 363.038545,156.59171 L367.32003,152.342416" id="Fill-764" fill="#91928E"></path>
            <path d="M278.119188,281.362561 C272.350336,285.965962 264.338042,287.929651 256.325749,287.736501 L256.614191,286.867328 C257.287224,280.461196 257.992306,273.411232 257.960256,266.425651 L252.928536,266.490034 C252.960585,273.443423 252.255503,280.493387 251.58247,286.867328 L251.61452,287.382393 C243.570176,286.32007 235.878374,283.1331 230.942801,277.821483 L227.353293,281.394753 C240.365259,295.26934 266.805829,296.782345 281.676647,284.935831 L278.119188,281.362561" id="Fill-765" fill="#17111C"></path>
            <path d="M340.11698,235.191069 L347.669911,231.179059 C350.991947,229.978615 354.439343,229.094077 357.886739,229.441574 C362.901133,229.947024 367.414088,233.011315 371.770343,236.012425 C375.719178,238.729219 380.200793,242.456913 380.263473,247.953683 L378.633795,254.019084 C365.65905,274.489811 338.894721,262.706506 335.792065,256.957012 C332.031269,250.038664 334.475786,239.898072 340.11698,235.191069" id="Fill-766" fill="#EFC1BC"></path>
            <path d="M135.597647,237.619435 C137.884257,231.656329 144.21159,229.814322 149.724514,229.470898 C154.015823,229.221134 158.338457,229.408457 162.56712,230.095307 C168.675189,231.06314 174.908551,233.12369 179.481772,237.96286 C184.086316,242.80203 186.59219,250.981788 184.148963,257.694185 C181.987646,263.532409 176.600016,267.559847 171.212386,267.591068 C149.285986,267.715949 143.491151,261.128434 138.385432,253.167219 C135.535,248.733915 133.655594,242.677148 135.597647,237.619435" id="Fill-767" fill="#EFC1BC"></path>
            <path d="M333.918503,197.695679 C335.141785,194.573092 337.556156,191.450505 340.904084,191.289547 C359.897138,190.388182 357.193042,217.944206 346.119126,219.103104 C332.534264,220.487343 332.437689,201.526481 333.918503,197.695679" id="Fill-768" fill="#17111C"></path>
            <path d="M173.353142,191.392788 C188.611969,192.487303 188.772927,219.431686 171.292879,219.077579 C157.611442,218.820046 158.094316,190.298273 173.353142,191.392788" id="Fill-769" fill="#17111C"></path>
            <path d="M350.632172,338.011976 C439.724158,371.036181 418.380538,507.078088 313.136624,514.872818 C291.793005,516.463579 290.991818,507.873468 300.285586,501.955836 C280.28796,507.841653 286.216744,495.497345 295.574607,487.6708 C280.159771,487.161756 275.096269,478.762536 293.267189,473.513024 C314.514666,467.34087 386.301014,423.276782 350.632172,338.011976" id="Fill-770" fill="#A3A3A0"></path>
            <path d="M252.746233,660.091377 C256.509013,650.843321 245.635216,642.644014 235.781835,639.084625 C223.217976,634.508267 209.793141,631.838725 196.176979,631.17134 C196.495859,615.916815 203.766316,601.425016 207.847975,586.520074 C211.132436,574.507135 212.344179,562.081053 211.419428,549.845653 C209.920693,530.141891 202.522685,510.53347 188.077436,496.168793 C173.600299,481.804115 156.47646,473.986171 135.14341,477.799802 C106.986335,482.852863 53.8928699,529.665187 129.116584,632.665012 C136.068161,642.16731 144.167705,651.097563 154.339966,657.739638 C176.40644,672.136096 205.902809,674.074692 233.167021,670.356401 C240.947685,669.307653 249.97198,666.860573 252.746233,660.091377" id="Fill-771" fill="#91928E"></path>
            <path d="M154.113334,346.195404 C142.635053,344.037853 115.588165,367.802639 116.729651,405.972248 C119.805323,508.455904 238.171131,521.052192 255.230012,509.566408 C259.605711,506.61564 253.739738,499.444957 251.488473,498.334453 C267.247329,496.303817 264.996064,486.81694 250.442111,481.581707 C253.168995,483.770986 278.186574,473.586078 251.044562,467.049969 C223.522054,460.418673 178.908957,444.268772 175.389374,389.917533 C173.74056,364.122111 169.999021,349.146172 154.113334,346.195404" id="Fill-772" fill="#A3A3A0"></path>
        </g>
    </g>
</svg>