<?xml version="1.0" encoding="UTF-8"?>
<svg width="720px" height="720px" viewBox="0 0 720 720" version="1.1" xmlns="http://www.w3.org/2000/svg" xmlns:xlink="http://www.w3.org/1999/xlink">
    <!-- Generator: Sketch 64 (93537) - https://sketch.com -->
    <title>img_l</title>
    <desc>Created with Sketch.</desc>
    <g id="img_l" stroke="none" stroke-width="1" fill="none" fill-rule="evenodd">
        <g id="lion" transform="translate(129.000000, 10.000000)">
            <path d="M460.574153,323.134331 C457.466607,319.561877 452.1655,324.775014 446.70771,327.050799 C449.841369,324.880864 459.816852,318.027046 458.380591,311.464316 C456.970444,304.901586 446.994962,311.517241 443.57405,313.660713 C446.237661,310.908601 453.366736,299.873688 450.468101,295.295655 C446.054864,288.28306 440.440391,296.221846 434.381982,301.143894 C436.706113,298.285931 440.388163,289.103401 436.836682,284.604756 C433.311315,280.106111 423.910337,292.808168 421.795117,295.45443 C392.443173,332.263935 359.48752,343.933951 335.07109,349.914503 C339.536555,364.177855 343.375288,378.599984 346.535061,393.127962 C390.0407,388.36469 419.418758,368.173711 447.360555,343.854563 C453.183939,338.800202 463.681699,326.733248 460.574153,323.134331" id="Fill-852" fill="#E9AE5A"></path>
            <path d="M299.507492,265.445982 C289.516898,269.550472 278.869028,272.444664 268.457778,274.444287 C243.980823,279.153926 175.1246,285.863188 137.528418,258.815653 C134.557531,256.684475 131.796972,254.421744 129.19416,252.132701 C135.188516,347.825197 66.4900385,470.170566 115.785731,551.128996 C139.894611,590.726798 223.263487,596.541492 261.359198,589.753297 C299.428618,582.965102 336.972218,559.416908 349.250132,522.713297 C353.614444,509.610503 354.587212,495.639451 354.902705,481.852575 C356.480167,409.471476 332.529033,330.696846 299.507492,265.445982" id="Fill-853" fill="#E9AE5A"></path>
            <path d="M282.511474,353.348479 C257.183697,352.667757 233.621748,363.140401 210.586913,392.516166 C170.684463,443.413216 158.376376,554.187606 254.231865,565.131518 C284.119168,568.561309 321.8341,554.475603 335.143702,527.665635 C363.054332,471.348993 338.332735,354.814649 282.511474,353.348479" id="Fill-854" fill="#EFCF5E"></path>
            <path d="M306.187248,496.677379 C314.680139,496.438516 315.370186,507.532355 307.116158,508.487805 C299.100992,509.443256 298.623267,496.889701 306.187248,496.677379" id="Fill-855" fill="#E9AE5A"></path>
            <path d="M173.808624,658.621262 C169.616186,644.063541 175.511803,612.073477 179.389809,587.019429 C152.794025,581.138321 128.399271,569.956304 117.105889,551.284445 C111.472299,542.001261 107.410874,532.375232 104.50237,522.511848 C108.485187,559.618212 115.87436,619.27322 119.018689,651.078674 C120.538448,666.295712 123.001506,683.279719 135.054768,692.562904 C140.609749,696.835278 159.161291,699.973627 175.564208,700 C198.12477,700 201.583532,690.690443 192.071936,686.945522 C203.679751,685.785124 203.077088,678.242537 193.329668,674.972325 C203.522535,673.469082 200.771247,662.524418 173.808624,658.621262" id="Fill-856" fill="#E9AE5A"></path>
            <path d="M429.47798,184.224484 C427.667221,174.120529 417.642439,167.147748 407.512686,165.647942 C420.607885,159.201408 430.632666,148.886954 428.008378,137.651567 C425.38409,126.389867 409.244716,122.022012 396.123274,124.021753 C402.18538,119.759147 408.404944,106.65558 404.54724,100.314296 C400.689536,93.9730119 387.43688,95.1570691 380.666216,98.1566807 C386.649593,93.2362651 398.852534,72.0284848 390.743483,63.6085223 C382.660675,55.1885599 366.442573,63.6085223 355.604262,70.0813684 C359.278265,64.1873947 362.558626,38.6380712 352.061472,33.2440328 C341.538076,27.823682 326.238475,41.3482466 318.286881,50.5838929 C327.445647,8.19464453 289.577166,10.562759 281.336901,30.7969812 C283.725003,-0.304255061 258.794263,-9.88196233 243.862063,25.2187561 C237.773714,13.5623706 229.927091,1.61654887 220.374682,2.09017176 C210.796029,2.56379464 204.025365,14.4043668 199.957718,28.1394305 C190.14288,-22.3540317 162.325423,5.80021771 159.93732,29.9812973 C148.600395,-0.0411312344 122.567454,-4.01430101 112.568915,38.0328864 C80.316411,-0.80419033 70.3178723,37.7434502 77.4296938,54.7412494 C53.3649693,38.9538198 26.8334139,47.5053442 52.5776828,79.5012014 C42.4741726,77.5803975 30.192503,76.3437155 23.6580249,84.3163674 C19.1967347,89.7104059 19.2754633,97.761995 21.9784804,104.208529 C24.6814974,110.655062 29.6151595,115.891227 34.4438502,120.943204 C22.2671521,119.390773 14.6829587,118.154091 8.72582406,125.942557 C2.76868945,133.757334 11.3501124,147.834459 21.2961654,156.912231 C11.7699986,160.517028 0.433072791,166.095253 0.0131866504,177.146453 C-0.432942374,188.066092 10.4840973,194.196877 26.2035847,201.064409 C17.779619,206.063762 8.06975197,214.167976 11.0351978,223.508871 C14.60423,234.691634 25.7312127,237.507059 40.7421423,239.796236 C34.023964,248.0057 28.2242867,265.029811 34.470093,271.634219 C42.3167153,279.948932 55.4119143,277.738692 63.599694,275.160079 C62.9698648,282.395984 56.6715727,305.814004 67.6148552,311.444854 C78.5843807,317.049392 96.8494278,307.497997 106.506809,301.209337 C103.69882,308.155806 100.339731,323.680112 109.498498,328.942589 C118.972179,334.362939 132.644721,328.495278 142.45956,313.786656 C142.905689,321.548809 147.91808,336.809991 158.808876,338.546608 C165.448326,339.625416 175.394379,331.994825 182.847358,315.839022 C189.355593,336.809991 202.896921,343.046026 213.367832,342.967089 C223.812499,342.940776 236.671512,336.599492 244.334435,319.312257 C248.008438,328.73209 257.560848,343.124963 269.186445,343.364929 C280.838286,343.624898 283.803732,327.363846 287.320278,318.522885 C289.078551,327.205971 298.788418,335.810121 307.579784,335.047061 C316.397393,334.310315 323.089329,324.285297 323.351758,315.418024 C328.757792,322.522367 341.039461,333.205195 351.667829,330.679206 C362.269954,328.17953 364.316899,311.865852 362.32244,300.762027 C400.951965,328.495278 398.773805,294.368118 385.494906,275.686326 C417.091338,286.948026 423.20593,264.635126 403.18261,242.980035 C442.835607,249.321319 425.830219,211.694612 411.580333,202.61684 C415.359308,202.51159 431.288738,194.354752 429.47798,184.224484" id="Fill-857" fill="#AC6450"></path>
            <path d="M355.165592,101.685794 C349.993059,94.0234471 339.385428,91.8156521 330.195648,93.3481215 C304.044161,97.7377374 303.492774,117.062437 300.236967,127.348164 C304.595548,129.529985 308.849103,132.049469 312.918863,134.984537 C317.251187,138.127398 321.29469,141.867663 324.996859,145.971564 C341.039588,140.387141 350.675728,132.542976 354.482923,126.023487 C358.841504,118.62088 359.970534,108.802686 355.165592,101.685794" id="Fill-858" fill="#E5905A"></path>
            <path d="M313.284754,135.420231 L318.167668,139.336493 C321.449627,137.3384 324.704903,135.287024 327.746719,132.942595 C333.670254,128.360302 338.846677,122.179534 340.047393,114.826552 L339.753885,110.670518 L335.48467,107.819905 L330.254882,108.858914 C325.558746,111.043495 322.19674,115.252811 319.154924,119.462127 C316.086426,123.698085 313.178024,128.040607 310.616495,132.569618 L310.189573,133.342214 L313.284754,135.420231" id="Fill-859" fill="#AC6450"></path>
            <path d="M136.018957,132.208018 C130.981262,125.286453 127.307942,96.6337886 98.682286,101.805373 C92.3589284,102.928494 86.2979508,106.924718 84.067721,112.932114 C81.7063011,119.305177 83.280581,128.211794 86.6390448,134.140832 C92.4376424,144.379524 102.250654,150.96154 112.955757,155.924171 C119.042973,146.704124 126.94061,138.633319 136.018957,132.208018" id="Fill-860" fill="#E5905A"></path>
            <path d="M121.032391,145.971564 C123.622412,143.015401 126.397434,140.243998 129.383886,137.657355 C120.583101,133.830179 110.83088,109.784958 99.4400749,120.50105 L97.9864918,122.902933 C96.0836194,137.314229 117.543791,144.757425 121.032391,145.971564" id="Fill-861" fill="#AC6450"></path>
            <path d="M312.884229,134.276675 C283.354828,112.674217 245.970186,112.463461 209.399967,112.884973 C193.558127,113.069384 177.532384,113.99144 162.426152,118.759787 C134.762042,127.453459 111.301406,149.951628 103.446165,177.929445 C95.5909242,205.907262 108.411518,236.888347 138.623983,258.675216 C176.192527,285.757321 244.998133,279.039483 269.457094,274.323825 C296.516954,269.107622 325.153117,258.042949 339.944089,234.728101 C359.569055,203.799705 342.439901,155.905476 312.884229,134.276675" id="Fill-862" fill="#E9AE5A"></path>
            <path d="M201.631038,191.646313 C202.714009,191.274695 215.207804,184.320126 247.036606,190.7969 C250.576074,191.513592 254.617407,192.150652 256.624867,195.176686 L257.04749,196.052643 C257.707839,184.054684 253.006157,167.013335 245.134802,145.990363 C241.384022,136.00976 235.969164,127.276732 226.486558,122.498784 C222.735778,120.587605 214.653112,120.454884 211.430611,123.135844 C199.412267,133.142991 191.46167,176.091437 194.869068,199.052133 C195.291691,195.043965 198.804746,192.654991 201.631038,191.646313" id="Fill-863" fill="#F6D153"></path>
            <path d="M257.678966,196.194861 C255.6678,193.182579 251.619004,192.548414 248.073,191.834979 C216.185426,185.387638 203.668561,192.310602 202.58359,192.680532 C199.249288,193.86959 194.935865,196.908296 195.86206,202.298695 C197.899689,213.819353 223.171584,222.274882 223.171584,222.274882 C234.365313,220.557352 250.481107,210.992036 254.21235,208.243989 C257.943593,205.522366 260.24585,200.026272 257.678966,196.194861" id="Fill-864" fill="#17111C"></path>
            <path d="M245.980388,241.995636 C239.036484,251.04183 225.694824,249.016955 224.264432,236.762518 C224.238425,236.420656 224.628532,225.244399 224.654539,220.879084 L222.677997,221.352432 L220.701455,220.616114 L220.64944,220.852787 C220.571419,228.847098 222.131847,242.495281 213.549493,247.097269 C208.842202,249.595491 202.96459,247.044675 201.352147,241.969339 C200.571933,239.497414 196.69687,240.549297 197.503092,243.047519 C199.661684,249.884759 207.073717,253.881914 213.861579,251.383692 C218.048727,249.832165 220.571419,246.755407 222.131847,243.021222 C227.229245,253.145596 240.830976,255.249362 248.815166,244.862017 L245.980388,241.995636" id="Fill-865" fill="#17111C"></path>
            <path d="M161.567353,169.874342 C159.125647,167.883821 155.383467,167.406096 152.782519,169.184295 L149.969249,174.38619 C149.942709,176.403252 149.703846,190.575764 156.922804,190.2042 C164.141761,189.806096 165.176832,181.419366 165.203372,178.287612 C165.203372,175.129318 164.009059,171.864863 161.567353,169.874342" id="Fill-866" fill="#17111C"></path>
            <path d="M302.98264,171.226032 C302.027189,169.341672 299.691644,167.696174 297.037616,167.775795 C294.277426,167.855416 291.994962,169.553994 290.85373,171.517975 C287.881218,176.719871 289.394014,187.256364 295.285957,190.520819 L301.576005,189.353046 C306.406336,184.735037 303.93809,173.110392 302.98264,171.226032" id="Fill-867" fill="#17111C"></path>
            <path d="M295.583092,281.526446 C299.298731,288.055356 301.9793,295.805119 304.155603,302.997536 C304.898731,305.518864 308.879774,304.430712 308.110106,301.909385 C305.827641,294.398484 303.014371,286.303698 299.112949,279.456304 L295.583092,281.526446" id="Fill-868" fill="#D28554"></path>
            <path d="M319.080569,296.056872 C320.805687,299.533649 322.557346,303.010427 324.309005,306.487204 L327.838863,304.417062 C326.113744,300.940284 324.362085,297.463507 322.610427,293.98673 L319.080569,296.056872" id="Fill-869" fill="#D28554"></path>
            <path d="M295.340284,308.663507 C297.543128,313.62654 299.374408,318.775355 301.603791,323.738389 C302.665403,326.127014 306.195261,324.056872 305.133649,321.668246 C302.930806,316.705213 301.099526,311.556398 298.870142,306.593365 C297.808531,304.204739 294.278673,306.274882 295.340284,308.663507" id="Fill-870" fill="#D28554"></path>
            <path d="M274.638863,284.806468 C276.151659,288.044383 277.664455,291.282297 279.150711,294.520212 C280.265403,296.908838 283.821801,294.812155 282.707109,292.45007 C281.194313,289.212155 279.681517,285.974241 278.195261,282.736326 C277.080569,280.3477 273.524171,282.417842 274.638863,284.806468" id="Fill-871" fill="#D28554"></path>
            <path d="M268.876979,304.364785 C270.947121,311.876678 272.512998,319.517199 274.5566,327.029091 C275.220107,329.498755 279.20115,328.444003 278.511102,325.974339 C276.44096,318.462447 274.901624,310.821926 272.831482,303.310033 C272.167974,300.84037 268.213472,301.869396 268.876979,304.364785" id="Fill-872" fill="#D28554"></path>
            <path d="M259.670142,324.229384 C259.909004,327.042654 260.174407,329.855924 260.41327,332.642654 C260.625592,335.243602 264.739336,335.270142 264.500474,332.642654 C264.261611,329.855924 264.022749,327.042654 263.783886,324.229384 C263.545023,321.628436 259.431279,321.601896 259.670142,324.229384" id="Fill-873" fill="#D28554"></path>
            <path d="M248.751711,287.675976 C250.450289,293.939484 251.379199,300.256071 251.5119,306.731901 C251.564981,309.359389 255.652185,309.359389 255.599104,306.731901 C255.466403,299.884507 254.510952,293.169815 252.706213,286.587825 C252.016166,284.039958 248.035123,285.128109 248.751711,287.675976" id="Fill-874" fill="#D28554"></path>
            <path d="M315.175334,273.182513 C316.077704,275.730381 317.325098,277.933224 319.023676,280.029907 L321.916567,277.137016 L319.129837,272.094362 C318.280548,269.599575 314.299505,270.687727 315.175334,273.182513" id="Fill-875" fill="#D28554"></path>
            <path d="M337.194562,306.861153 C340.75096,311.319921 343.51115,316.282954 345.448591,321.644091 C346.32442,324.112338 350.305463,323.050726 349.403093,320.55594 C347.22679,314.478214 344.121576,308.984376 340.087453,303.968262 L337.194562,306.861153" id="Fill-876" fill="#D28554"></path>
            <path d="M332.523223,271.971564 C336.371564,277.120379 340.193365,282.295735 344.041706,287.44455 L347.571564,285.374408 C343.749763,280.225592 339.901422,275.050237 336.079621,269.901422 L332.523223,271.971564" id="Fill-877" fill="#D28554"></path>
            <path d="M336.90237,253.287204 C340.272986,256.604739 343.404739,260.081517 346.29763,263.823697 L349.827488,261.753555 C346.748815,257.745972 343.43128,253.950711 339.821801,250.394313 L336.90237,253.287204" id="Fill-878" fill="#D28554"></path>
            <path d="M355.374408,280.02654 C357.44455,282.149763 359.32891,284.379147 360.974408,286.847393 L364.530806,284.777251 C362.672986,282.043602 360.602844,279.495735 358.267299,277.133649 L355.374408,280.02654" id="Fill-879" fill="#D28554"></path>
            <path d="M349.283412,298.65782 L353.795261,304.709005 L357.351659,302.638863 C355.838863,300.197156 354.113744,297.888152 352.176303,295.764929 L349.283412,298.65782" id="Fill-880" fill="#D28554"></path>
            <path d="M365.247393,268.375355 C370.051185,272.436019 374.430332,276.947867 378.305213,281.937441 L381.198104,279.04455 C377.323223,274.054976 372.970616,269.543128 368.140284,265.455924 L365.247393,268.375355" id="Fill-881" fill="#D28554"></path>
            <path d="M353.72891,242.140284 C357.258768,243.998104 360.417062,246.280569 363.283412,249.067299 L366.176303,246.147867 C363.09763,243.148815 359.647393,240.600948 355.799052,238.610427 L353.72891,242.140284" id="Fill-882" fill="#D28554"></path>
            <path d="M383.228436,261.939336 C386.625592,264.274882 390.314692,266.424645 393.499526,269.078673 L396.392417,266.185782 C392.94218,263.292891 388.987678,260.957346 385.298578,258.409479 L383.228436,261.939336" id="Fill-883" fill="#D28554"></path>
            <path d="M379.493738,243.778013 C384.032127,245.768535 388.384733,248.15716 392.498478,250.94389 L394.56862,247.387492 C390.454876,244.600762 386.102269,242.238677 381.56388,240.248155 C379.148714,239.186544 377.078572,242.716402 379.493738,243.778013" id="Fill-884" fill="#D28554"></path>
            <path d="M394.375355,231.245133 C399.816114,233.235654 405.256872,235.199635 410.69763,237.163616 C413.192417,238.065986 414.254028,234.111484 411.785782,233.209114 C406.345024,231.245133 400.904265,229.281152 395.463507,227.29063 C392.96872,226.388261 391.907109,230.369303 394.375355,231.245133" id="Fill-885" fill="#D28554"></path>
            <path d="M363.270142,222.805687 C367.357346,223.681517 371.364929,224.822749 375.452133,225.698578 C378.02654,226.255924 379.114692,222.301422 376.540284,221.744076 C372.453081,220.868246 368.445498,219.727014 364.358294,218.851185 C361.783886,218.293839 360.695735,222.248341 363.270142,222.805687" id="Fill-886" fill="#D28554"></path>
            <path d="M367.105213,207.054464 C374.509953,207.319867 381.888152,208.195696 389.292891,208.408019 C391.920379,208.48764 391.920379,204.400436 389.292891,204.320815 C381.888152,204.108493 374.509953,203.206123 367.105213,202.96726 C364.477725,202.861099 364.477725,206.974843 367.105213,207.054464" id="Fill-887" fill="#D28554"></path>
            <path d="M357.015322,190.078838 C361.394469,190.105379 365.720535,189.680734 370.046602,188.804905 C372.621009,188.274099 371.532858,184.319597 368.93191,184.850402 C365.003948,185.646611 361.049445,186.018175 357.015322,185.965094 C354.361294,185.938554 354.361294,190.052298 357.015322,190.078838" id="Fill-888" fill="#D28554"></path>
            <path d="M399.422484,216.542061 C402.872721,216.887085 406.216797,217.656753 409.507792,218.744905 C412.029119,219.594194 413.09073,215.639692 410.595944,214.790403 C406.959925,213.569549 403.244285,212.826421 399.422484,212.428317 C396.794996,212.162914 396.821536,216.250118 399.422484,216.542061" id="Fill-889" fill="#D28554"></path>
            <path d="M393.619413,180.632392 C401.236475,180.287369 408.800456,179.49116 416.337897,178.323388 C418.938844,177.925283 417.824152,173.970781 415.249745,174.368885 C408.083868,175.483577 400.891451,176.200165 393.619413,176.545189 C391.018465,176.65135 390.991925,180.765094 393.619413,180.632392" id="Fill-890" fill="#D28554"></path>
            <path d="M405.897589,161.175483 C408.79048,160.113872 411.709911,159.02572 414.602802,157.937569 C417.071049,157.035199 416.009437,153.080697 413.514651,153.983066 C410.62176,155.071218 407.702328,156.15937 404.809437,157.220981 C402.367731,158.149891 403.429343,162.104393 405.897589,161.175483" id="Fill-891" fill="#D28554"></path>
            <path d="M364.966335,169.463181 C372.291454,166.835693 380.200459,165.721001 387.286714,162.376925 L385.216572,158.847067 C378.47534,162.005361 370.858278,163.013892 363.878184,165.508679 C361.409937,166.384508 362.471549,170.33901 364.966335,169.463181" id="Fill-892" fill="#D28554"></path>
            <path d="M347.777759,157.059424 C352.422309,155.493548 356.934157,153.662268 361.366385,151.565586 L359.322783,148.035728 C355.182499,149.973169 350.989134,151.645206 346.689608,153.104922 C344.194821,153.927671 345.256432,157.908714 347.777759,157.059424" id="Fill-893" fill="#D28554"></path>
            <path d="M389.285042,146.931393 C394.088834,145.975943 398.627223,144.277365 402.847128,141.862199 L400.776986,138.332341 C396.822483,140.561725 392.655659,142.101062 388.196891,142.976891 C385.622483,143.481156 386.710635,147.435659 389.285042,146.931393" id="Fill-894" fill="#D28554"></path>
            <path d="M365.380095,134.811374 C371.590521,131.759242 377.509005,128.202844 383.135545,124.16872 L381.065403,120.638863 C375.438863,124.672986 369.520379,128.229384 363.309953,131.281517 L365.380095,134.811374" id="Fill-895" fill="#D28554"></path>
            <polyline id="Fill-896" fill="#D28554" points="391.734597 111.243602 396.591469 107.952607 394.521327 104.396209 389.664455 107.687204 391.734597 111.243602"></polyline>
            <path d="M363.124171,86.242654 C368.936493,82.3412322 374.191469,77.749763 378.836019,72.4947867 L375.863507,69.6815166 C371.45782,74.67109 366.494787,79.0236967 360.974408,82.7393365 L363.124171,86.242654" id="Fill-897" fill="#D28554"></path>
            <path d="M365.300474,104.794313 C368.034123,102.405687 370.767773,100.043602 373.501422,97.6549763 L371.192417,94.2578199 C368.458768,96.6464455 365.725118,99.0085308 362.991469,101.397156 L365.300474,104.794313" id="Fill-898" fill="#D28554"></path>
            <path d="M344.523951,68.1549696 C347.868027,62.501889 350.468975,56.530325 352.432956,50.2668179 C353.202624,47.7454909 349.168501,47.0023629 348.398833,49.4971497 C346.541013,55.4156331 343.993145,61.0421733 340.834852,66.3767705 L344.523951,68.1549696" id="Fill-899" fill="#D28554"></path>
            <path d="M327.137638,85.3324359 C330.083609,80.5551847 332.127211,75.3532889 333.215363,69.8329098 C333.746169,67.2585022 329.791666,66.1703505 329.260861,68.7447581 C328.25233,73.9466539 326.36797,78.7504453 323.60778,83.2622937 L327.137638,85.3324359" id="Fill-900" fill="#D28554"></path>
            <path d="M325.585194,60.8872061 C327.867659,56.7469218 329.85818,52.5004763 331.583299,48.1213294 C332.538749,45.6530829 328.796569,44.0341256 327.814578,46.502372 C326.08946,50.8815189 324.098938,55.1279644 321.816474,59.2682488 L325.585194,60.8872061" id="Fill-901" fill="#D28554"></path>
            <path d="M301.883699,98.0818673 C303.396495,90.4523889 305.73204,83.1332621 309.023035,76.0468991 C310.084646,73.7192616 306.554789,71.6761131 305.466637,74.0296133 C302.04294,81.426328 299.521613,89.0558064 297.929196,97.0214991 C297.451471,99.5301751 301.405973,100.616406 301.883699,98.0818673" id="Fill-902" fill="#D28554"></path>
            <path d="M308.892227,57.5958904 C309.529194,53.6679284 310.537724,49.9257483 311.99744,46.2366487 C312.979431,43.7684023 308.998388,42.7067909 308.042938,45.1484971 C306.583222,48.8110563 305.574691,52.5797767 304.937724,56.5077388 C304.53962,59.0821464 308.494123,60.1968383 308.892227,57.5958904" id="Fill-903" fill="#D28554"></path>
            <path d="M285.113784,114.092564 C285.087244,111.120052 285.432267,108.280242 286.201936,105.413891 C286.865443,102.866024 282.91094,101.777872 282.247433,104.32574 C281.371604,107.537114 280.9735,110.775029 281.02658,114.092564 C281.053121,116.746593 285.166865,116.746593 285.113784,114.092564" id="Fill-904" fill="#D28554"></path>
            <path d="M268.549651,57.7051748 C268.49657,54.7326629 268.841594,51.8928525 269.611262,49.0265018 C270.301309,46.4786345 266.346807,45.3639425 265.65676,47.9383501 C264.807471,51.1497245 264.382826,54.3876392 264.435907,57.7051748 C264.488987,60.3326629 268.576191,60.3592032 268.549651,57.7051748" id="Fill-905" fill="#D28554"></path>
            <path d="M181.781285,60.4553581 C180.958536,57.6155477 180.533892,54.7757373 180.507351,51.8032254 C180.507351,49.149197 176.393607,49.149197 176.420148,51.8032254 C176.446688,55.120761 176.897873,58.3586757 177.826783,61.5435098 C178.569911,64.0648368 182.524413,63.0032254 181.781285,60.4553581" id="Fill-906" fill="#D28554"></path>
            <path d="M287.347463,79.2783873 C286.816657,70.599637 287.931349,62.1904131 290.691539,53.9698577 C291.540828,51.4093568 287.586325,50.3312512 286.737036,52.8647994 C283.844145,61.4357391 282.702913,70.2223 283.260259,79.2783873 C283.419501,81.9466987 287.506705,81.9466987 287.347463,79.2783873" id="Fill-907" fill="#D28554"></path>
            <path d="M299.335245,36.4244525 C300.131454,33.5846421 300.6888,30.6652108 301.803492,27.9050212 C302.785482,25.4633151 299.043302,23.7381966 298.061311,26.206443 C296.813918,29.3116563 296.176951,32.5761113 295.274582,35.7874857 C294.557994,38.3088127 298.618657,38.9457795 299.335245,36.4244525" id="Fill-908" fill="#D28554"></path>
            <path d="M273.54207,26.2686855 C273.887094,23.3227139 273.966715,20.350202 274.603682,17.4573111 C275.187568,14.8829035 271.233065,13.7947518 270.649179,16.3691594 C269.932591,19.6336144 269.82643,22.9511499 269.428326,26.2686855 C269.136383,28.8961736 273.250127,28.8696333 273.54207,26.2686855" id="Fill-909" fill="#D28554"></path>
            <path d="M211.35643,32.5054156 C211.144108,29.5594441 210.666383,26.6134725 210.746004,23.6409606 C210.825625,21.0134725 206.738421,20.6949891 206.6588,23.3224772 C206.552639,26.6665531 207.083445,29.9575483 207.348847,33.2750839 C207.534629,35.902572 211.568753,35.1063635 211.35643,32.5054156" id="Fill-910" fill="#D28554"></path>
            <path d="M263.458068,100.717062 C264.254276,93.3123222 264.705461,85.8810426 264.811622,78.449763 C264.864703,75.8222748 260.750959,75.7957345 260.724419,78.449763 C260.591717,85.8810426 260.140532,93.3123222 259.370864,100.717062 C259.105461,103.34455 263.192665,103.318009 263.458068,100.717062" id="Fill-911" fill="#D28554"></path>
            <path d="M244.176556,108.810196 C243.964233,103.714461 244.043854,98.645267 244.388878,93.5495324 C244.57466,90.9220442 240.487456,90.9485845 240.301674,93.5495324 C239.93011,98.645267 239.87703,103.714461 240.089352,108.810196 C240.195513,111.437684 244.309257,111.437684 244.176556,108.810196" id="Fill-912" fill="#D28554"></path>
            <path d="M240.694265,77.3302665 C240.110379,68.8320849 240.349242,60.4125901 241.410853,51.9668664 C241.729336,49.3701998 237.642133,48.8980786 237.323649,51.4685163 C236.235498,60.2814454 236.023175,69.0943744 236.633602,77.9597615 C236.819384,80.5564281 240.880047,79.9269331 240.694265,77.3302665" id="Fill-913" fill="#D28554"></path>
            <path d="M220.161386,68.036046 C218.993613,61.9052403 218.489348,55.7478943 218.489348,49.5109275 C218.489348,44.4417332 214.481765,43.9109275 214.402144,49.5109275 C214.295983,56.1194583 214.98603,62.6483683 216.206884,69.1241976 C216.711149,71.7251455 220.665651,70.6104536 220.161386,68.036046" id="Fill-914" fill="#D28554"></path>
            <path d="M221.760973,101.284326 C220.964764,95.5250843 220.487039,89.712762 220.248176,83.9004398 C220.142015,81.2729516 216.028271,81.2464113 216.134432,83.9004398 C216.399835,90.084326 216.957181,96.241672 217.80647,102.372478 C218.151494,104.973426 222.105996,103.885274 221.760973,101.284326" id="Fill-915" fill="#D28554"></path>
            <path d="M209.28722,106.830428 C207.854045,101.840855 206.765893,96.7716602 206.102386,91.6228451 C205.783903,89.0484375 201.670159,89.0218972 202.015182,91.6228451 C202.70523,97.1432242 203.793382,102.557442 205.332718,107.91858 C206.075846,110.466447 210.030348,109.378295 209.28722,106.830428" id="Fill-916" fill="#D28554"></path>
            <path d="M197.153987,78.3713556 C196.039295,73.5410239 195.322708,68.6576115 195.030764,63.6945784 C194.871523,61.0670902 190.784319,61.0670902 190.943561,63.6945784 C191.262044,69.0291755 192.005172,74.2841518 193.199485,79.4595073 C193.783371,82.0339149 197.737873,80.9457632 197.153987,78.3713556" id="Fill-917" fill="#D28554"></path>
            <path d="M185.251185,100.189573 C183.605687,93.8464455 181.96019,87.5033175 180.314692,81.1867299 C179.651185,78.6388626 175.696682,79.7004739 176.36019,82.2748815 C178.005687,88.6180095 179.651185,94.9345972 181.296682,101.277725 C181.96019,103.825592 185.914692,102.763981 185.251185,100.189573" id="Fill-918" fill="#D28554"></path>
            <path d="M192.032196,39.4255924 C191.44831,32.8966825 190.864423,26.3943128 190.253997,19.8654028 C190.015134,17.2379147 185.92793,17.6625592 186.166793,20.2900474 C186.77722,26.8189573 187.361106,33.3478673 187.971532,39.850237 C188.210395,42.4777251 192.271058,42.0530806 192.032196,39.4255924" id="Fill-919" fill="#D28554"></path>
            <path d="M256.102083,39.8435956 C257.030993,33.341226 257.933363,26.8653966 258.862273,20.3895672 C259.207296,17.7886193 255.146633,17.2578137 254.775069,19.8853018 C253.872699,26.3611312 252.943789,32.8369606 252.041419,39.31279 C251.669855,41.9402781 255.730519,42.4445435 256.102083,39.8435956" id="Fill-920" fill="#D28554"></path>
            <path d="M229.613706,32.9346469 C229.401384,26.4057369 229.189061,19.8502867 228.976739,13.3213767 C228.897118,10.6673483 224.783374,10.8531303 224.889535,13.5071587 C225.075317,20.0360687 225.28764,26.5915189 225.499962,33.1469691 C225.606123,35.7744573 229.693327,35.5886753 229.613706,32.9346469" id="Fill-921" fill="#D28554"></path>
            <path d="M151.664455,72.6274882 C150.3109,68.0890995 148.930806,63.5241706 147.550711,58.985782 C146.781043,56.464455 142.82654,57.5260664 143.596209,60.0739336 C144.976303,64.6123223 146.329858,69.1772512 147.709953,73.7156398 C148.479621,76.2369668 152.434123,75.1753555 151.664455,72.6274882" id="Fill-922" fill="#D28554"></path>
            <path d="M161.895735,51.8824662 C160.356398,46.7867316 158.790521,41.690997 157.224645,36.5952624 C156.454976,34.0739354 152.500474,35.1620871 153.270142,37.6834141 C154.836019,42.7791487 156.401896,47.8748833 157.941232,52.9706179 C158.7109,55.4919449 162.665403,54.4303335 161.895735,51.8824662" id="Fill-923" fill="#D28554"></path>
            <path d="M159.828375,108.276512 C156.484299,102.596891 154.148754,96.5987866 152.715578,90.1760377 C152.131692,87.6016302 148.17719,88.6897818 148.761076,91.2641894 C150.247332,98.0054216 152.768659,104.37509 156.298517,110.346654 L159.828375,108.276512" id="Fill-924" fill="#D28554"></path>
            <path d="M133.762064,37.503121 C131.187656,33.6547797 129.621779,29.5144954 128.984813,24.9495665 C128.613249,22.3486186 124.658746,23.4367703 125.03031,26.0377181 C125.720358,30.9211305 127.472016,35.4595191 130.205666,39.5732632 L133.762064,37.503121" id="Fill-925" fill="#D28554"></path>
            <path d="M175.624173,27.7844606 C173.845974,23.5114748 173.129386,19.1323279 173.368248,14.5408587 C173.50095,11.9133705 169.413746,12.231854 169.281045,14.8328018 C169.015642,19.7692947 169.864931,24.5730862 171.749291,29.1114748 C172.757822,31.553181 176.632703,30.2261668 175.624173,27.7844606" id="Fill-926" fill="#D28554"></path>
            <path d="M129.410427,78.7450237 C124.235071,72.4018957 120.280569,64.8113744 116.299526,57.6720379 L112.769668,59.7421801 C116.909953,67.2265403 121.103318,75.0028436 126.517536,81.664455 L129.410427,78.7450237" id="Fill-927" fill="#D28554"></path>
            <path d="M94.4432257,41.7452387 C92.1076806,39.1708311 90.1967802,36.3841013 88.683984,33.2523477 C87.569292,30.8637221 83.7740313,32.4295989 84.9152636,34.8182245 C86.5342209,38.2684615 88.6043631,41.4267553 91.1787707,44.2400254 L94.4432257,41.7452387" id="Fill-928" fill="#D28554"></path>
            <path d="M108.032227,76.3563981 C103.334597,71.7118483 98.3450237,67.4123223 93.0900474,63.4047393 L91.0199052,66.9345972 C96.0094787,70.7298578 100.707109,74.8436019 105.139336,79.2492891 L108.032227,76.3563981" id="Fill-929" fill="#D28554"></path>
            <path d="M61.971564,103.772512 C56.8758294,99.5260664 51.5412322,95.6777251 45.9677725,92.1478673 L44.1895735,95.8635071 C49.4976303,99.2075829 54.5137441,102.896682 59.3175355,106.904265 L61.971564,103.772512" id="Fill-930" fill="#D28554"></path>
            <path d="M141.5785,118.397305 C140.331107,115.690196 138.844851,113.142329 137.093192,110.700623 L133.563334,112.770765 C135.288453,115.212471 136.774709,117.760339 138.022102,120.467448 C139.136794,122.856073 142.693192,120.785931 141.5785,118.397305" id="Fill-931" fill="#D28554"></path>
            <path d="M82.6597156,101.821801 L76.1838863,97.0180095 L73.264455,99.9109005 C75.5203791,102.007583 77.9620853,103.812322 80.5895735,105.351659 L82.6597156,101.821801" id="Fill-932" fill="#D28554"></path>
            <path d="M80.9876777,76.6748815 C76.6085308,73.2511848 72.2559242,69.8274882 67.8767773,66.4037915 L64.9838863,69.2966825 C69.3630332,72.7203791 73.7156398,76.1440758 78.0947867,79.5677725 L80.9876777,76.6748815" id="Fill-933" fill="#D28554"></path>
            <path d="M37.8609219,101.271268 C34.702628,100.315818 31.8362773,98.9091832 29.1291683,97.0513633 L27.0590261,100.581221 C30.0580783,102.651363 33.2694527,104.1907 36.7462299,105.225771 C39.2940972,105.968899 40.3822489,102.014396 37.8609219,101.271268" id="Fill-934" fill="#D28554"></path>
            <path d="M74.3414447,130.560191 C66.4589802,129.180096 59.3196438,126.021802 53.1357575,120.899527 L50.2428665,123.792418 C56.9575584,129.339338 64.6542409,133.028437 73.253293,134.514693 C75.8277006,134.965878 76.9423926,131.037916 74.3414447,130.560191" id="Fill-935" fill="#D28554"></path>
            <path d="M36.1898546,133.093189 C31.2533617,131.819255 26.3964896,130.306459 21.5926982,128.5548 C19.0979114,127.62589 17.6647361,131.474231 20.1595228,132.403141 C24.936774,134.1548 29.8201863,135.667596 34.7566792,136.91499 C37.3045465,137.578497 38.7642621,133.730155 36.1898546,133.093189" id="Fill-936" fill="#D28554"></path>
            <path d="M90.0552413,152.041272 C86.8438669,150.900039 83.6059522,149.918049 80.3149569,149.148381 C77.7405493,148.537954 76.6523977,152.492456 79.2268053,153.102883 C82.5178005,153.872551 85.7557152,154.828001 88.9670896,155.995774 C91.4353361,156.898144 92.4969475,152.943641 90.0552413,152.041272" id="Fill-937" fill="#D28554"></path>
            <path d="M53.509039,151.056669 C46.5024039,150.897427 39.8938731,149.092688 33.2853423,146.863304 C30.7640153,146.040555 29.7024039,149.995057 32.1971906,150.817806 C39.1242049,153.153351 46.1573802,155.011171 53.509039,155.143873 C56.1365271,155.196953 56.1365271,151.109749 53.509039,151.056669" id="Fill-938" fill="#D28554"></path>
            <path d="M95.5213619,181.277279 C90.6379495,180.374909 85.7545372,179.817563 80.8180443,179.658322 C78.1640159,179.578701 78.1905562,183.665904 80.8180443,183.745525 C85.3829732,183.904767 89.9213619,184.382492 94.4332102,185.231781 C97.0076178,185.709506 98.0957695,181.755004 95.5213619,181.277279" id="Fill-939" fill="#D28554"></path>
            <path d="M32.7324708,178.132885 C25.2481106,177.840942 17.7902907,176.991653 10.3855513,176.089283 C7.75806319,175.7708 7.78460347,179.884544 10.3855513,180.203027 C17.816831,181.078857 25.2481106,181.928146 32.7324708,182.220089 C35.3599589,182.32625 35.3599589,178.239046 32.7324708,178.132885" id="Fill-940" fill="#D28554"></path>
            <path d="M66.7786731,192.23468 C62.0279622,192.473543 57.3303318,192.314301 52.6327015,191.730415 C50.0317536,191.411931 50.0582939,195.525675 52.6327015,195.844159 C57.3303318,196.401505 62.0279622,196.560747 66.7786731,196.348424 C69.3796209,196.215723 69.4061612,192.101979 66.7786731,192.23468" id="Fill-941" fill="#D28554"></path>
            <path d="M90.2685692,205.157354 C84.0050621,205.820861 77.8477161,207.015174 71.769991,208.819913 C69.248664,209.563041 70.3102753,213.517543 72.8581426,212.774415 C78.5643038,211.102377 84.3766261,209.908065 90.2685692,209.244557 C92.8695171,208.979155 92.8960573,204.865411 90.2685692,205.157354" id="Fill-942" fill="#D28554"></path>
            <path d="M36.1444577,217.710385 C30.9160217,219.143561 25.8999079,221.054461 21.0430359,223.390006 L23.1131781,226.919864 C27.6515667,224.743561 32.349197,223.018442 37.2326093,221.664888 C39.7539363,220.97484 38.692325,217.020338 36.1444577,217.710385" id="Fill-943" fill="#D28554"></path>
            <path d="M43.352716,201.241706 C40.6190667,201.772512 37.9119577,202.329858 35.1783085,202.860664 C32.6039009,203.391469 33.6920525,207.345972 36.2930004,206.815166 C39.0001094,206.28436 41.7072184,205.727014 44.4408677,205.196209 C47.0152753,204.665403 45.9271236,200.7109 43.352716,201.241706" id="Fill-944" fill="#D28554"></path>
            <path d="M72.7921515,222.128615 C69.9258008,223.959895 66.2367013,224.756103 62.9987866,225.685013 C59.6016302,226.667004 56.1513932,227.595914 52.6746159,228.365582 C50.1002084,228.922928 51.18836,232.87743 53.7627676,232.320084 C60.5305401,230.833828 68.9438103,229.453734 74.8622937,225.685013 L72.7921515,222.128615" id="Fill-945" fill="#D28554"></path>
            <path d="M57.062675,242.566481 C51.9934807,244.689704 46.791585,246.467903 41.4569878,247.874538 C38.9091205,248.564585 39.9972722,252.519088 42.5451395,251.82904 C47.8797366,250.422405 53.0816324,248.644206 58.177367,246.520984 C60.5659926,245.512453 59.5043812,241.55795 57.062675,242.566481" id="Fill-946" fill="#D28554"></path>
            <path d="M99.2606635,228.896682 C91.8028436,232.638863 85.0350711,237.761137 77.8161137,241.981043 L79.8862559,245.5109 C87.1052133,241.290995 93.8729858,236.195261 101.330806,232.42654 L99.2606635,228.896682" id="Fill-947" fill="#D28554"></path>
            <path d="M86.4549763,259.776303 C81.9962085,262.111848 77.8824645,264.898578 74.0341232,268.136493 L76.9270142,271.029384 C80.5099526,268.030332 84.3848341,265.482464 88.5251185,263.332701 L86.4549763,259.776303" id="Fill-948" fill="#D28554"></path>
            <path d="M61.6,259.205687 C58.5478673,261.036967 55.4957346,262.894787 52.4436019,264.752607 L54.5137441,268.282464 C57.5658768,266.424645 60.6180095,264.593365 63.6701422,262.735545 L61.6,259.205687" id="Fill-949" fill="#D28554"></path>
            <path d="M81.4654028,289.249289 C78.1478673,292.301422 74.856872,295.327014 71.5658768,298.352607 L74.4587678,301.272038 C77.749763,298.219905 81.0672986,295.194313 84.3582938,292.14218 L81.4654028,289.249289" id="Fill-950" fill="#D28554"></path>
            <path d="M114.415166,248.018957 C109.319431,251.787678 104.223697,255.582938 99.1545024,259.351659 L101.198104,262.881517 C106.293839,259.112796 111.389573,255.344076 116.485308,251.548815 L114.415166,248.018957" id="Fill-951" fill="#D28554"></path>
            <path d="M106.532701,275.926066 C103.905213,279.08436 101.569668,282.401896 99.5526066,285.984834 L103.082464,288.054976 C104.913744,284.790521 107.036967,281.711848 109.452133,278.845498 L106.532701,275.926066" id="Fill-952" fill="#D28554"></path>
            <path d="M118.754502,294.199052 C115.914692,297.463507 113.207583,300.807583 110.580095,304.204739 L114.109953,306.274882 C116.525118,303.143128 119.046445,300.090995 121.647393,297.091943 L118.754502,294.199052" id="Fill-953" fill="#D28554"></path>
            <path d="M133.656872,267.446445 L128.216114,273.736493 L131.109005,276.629384 C133.44455,274.506161 135.435071,272.144076 137.18673,269.516588 L133.656872,267.446445" id="Fill-954" fill="#D28554"></path>
            <path d="M141.170669,281.907534 C136.685361,288.356823 133.235124,295.336918 130.766878,302.794738 C129.944129,305.289525 133.898631,306.377676 134.72138,303.88289 C137.083465,296.743553 140.401001,290.135022 144.700527,283.977676 L141.170669,281.907534" id="Fill-955" fill="#D28554"></path>
            <path d="M120.935404,313.918483 L117.697489,320.978199 C116.582797,323.366825 120.112655,325.436967 121.227347,323.048341 L124.491802,315.988626 C125.579953,313.6 122.050096,311.529858 120.935404,313.918483" id="Fill-956" fill="#D28554"></path>
            <path d="M163.421801,277.836967 C161.670142,281.021801 159.891943,284.206635 158.140284,287.391469 L161.670142,289.461611 C163.448341,286.276777 165.2,283.091943 166.978199,279.907109 L163.421801,277.836967" id="Fill-957" fill="#D28554"></path>
            <path d="M158.208002,303.664137 C155.898997,309.688781 154.120798,315.819587 152.899945,322.162715 C152.395679,324.737123 156.350182,325.851815 156.854447,323.250867 C158.0753,316.934279 159.853499,310.776933 162.162504,304.752289 C163.117954,302.284042 159.163452,301.222431 158.208002,303.664137" id="Fill-958" fill="#D28554"></path>
            <path d="M170.946038,318.350711 L170.12329,324.163033 C169.778266,326.737441 173.706228,327.852133 174.077792,325.251185 L174.900541,319.438863 C175.245564,316.864455 171.291062,315.749763 170.946038,318.350711" id="Fill-959" fill="#D28554"></path>
            <path d="M178.072753,286.287169 C177.037682,290.958259 176.427255,295.655889 176.214933,300.4066 C176.108772,303.060629 180.222516,303.034088 180.328677,300.4066 C180.514459,296.000913 181.071805,291.674847 182.027255,287.375321 C182.584601,284.800913 178.630099,283.712761 178.072753,286.287169" id="Fill-960" fill="#D28554"></path>
            <path d="M189.56102,299.109005 C189.003674,306.487204 188.101304,313.865403 187.862442,321.270142 C187.756281,323.89763 191.870025,323.89763 191.949646,321.270142 C192.215048,313.865403 193.090878,306.487204 193.648224,299.109005 C193.860546,296.481517 189.746802,296.481517 189.56102,299.109005" id="Fill-961" fill="#D28554"></path>
            <path d="M200.818178,319.688117 C200.128131,323.111813 199.809648,326.53551 199.915809,330.038828 C200.02197,332.666316 204.109174,332.692856 204.029553,330.038828 C203.923392,326.907074 204.162254,323.854941 204.799221,320.776268 C205.303486,318.201861 201.348984,317.113709 200.818178,319.688117" id="Fill-962" fill="#D28554"></path>
            <path d="M206.743248,289.554958 C206.212443,295.791925 206.504386,301.922731 207.539457,308.080077 C207.964101,310.681024 211.918604,309.566333 211.493959,306.991925 C210.538509,301.206143 210.352727,295.393821 210.830452,289.554958 C211.069315,286.92747 206.955571,286.95401 206.743248,289.554958" id="Fill-963" fill="#D28554"></path>
            <path d="M220.90694,313.427488 C221.570447,320.11564 222.207414,326.803791 222.870921,333.491943 C223.109784,336.092891 227.223528,336.119431 226.958125,333.491943 C226.321158,326.803791 225.657651,320.11564 225.020684,313.427488 C224.755281,310.82654 220.668077,310.8 220.90694,313.427488" id="Fill-964" fill="#D28554"></path>
            <path d="M227.766641,289.518414 C228.323987,292.597087 228.881333,295.67576 229.412139,298.754433 C229.889864,301.355381 233.844366,300.26723 233.366641,297.666282 C232.835835,294.587609 232.278489,291.508936 231.721143,288.430263 C231.269959,285.855855 227.315456,286.944007 227.766641,289.518414" id="Fill-965" fill="#D28554"></path>
            <path d="M232.876353,308.092891 C233.300998,311.70237 233.699102,315.311848 234.123747,318.921327 C234.41569,321.522275 238.529434,321.548815 238.21095,318.921327 C237.812846,315.311848 237.388202,311.70237 236.990097,308.092891 C236.698154,305.491943 232.58441,305.465403 232.876353,308.092891" id="Fill-966" fill="#D28554"></path>
            <path d="M52.8899798,167.751176 C60.8564763,169.237432 69.2699379,169.02511 77.1049741,171.227953 C79.6290126,171.944541 80.7069874,167.990039 78.1829489,167.273451 C70.3742048,165.070607 61.9344511,165.28293 53.9679545,163.796674 C51.417624,163.318948 50.3133571,167.273451 52.8899798,167.751176" id="Fill-967" fill="#D28554"></path>
            <path d="M388.918009,192.801896 C392.819431,192.801896 396.747393,192.801896 400.675355,192.801896 C403.302844,192.801896 403.302844,188.714692 400.675355,188.714692 C396.747393,188.714692 392.819431,188.714692 388.918009,188.714692 C386.263981,188.714692 386.263981,192.801896 388.918009,192.801896" id="Fill-968" fill="#D28554"></path>
            <path d="M180.490681,210.780572 C178.7209,204.384363 176.602525,200.137918 161.693456,201.438392 C146.757572,202.738866 142.735341,207.887681 142.654896,213.593842 C142.574452,219.300003 148.098316,224.103794 153.970773,225.59005 C162.095679,227.660193 165.045315,226.757823 171.695403,224.60806 C176.388006,223.068723 182.233648,217.17678 180.490681,210.780572" id="Fill-969" fill="#E8819C"></path>
            <path d="M296.397169,197.633755 C284.236806,198.191101 279.531275,202.251764 278.738208,209.391101 C277.918705,216.530437 284.844824,224.651764 298.221223,223.643233 C307.870206,222.926646 316.329589,216.636598 315.034246,209.629963 C313.712467,202.623328 308.557531,197.102949 296.397169,197.633755" id="Fill-970" fill="#E8819C"></path>
            <path d="M275.929853,227.609479 C301.647419,223.761137 327.417204,221.319431 353.317536,219.143128 L353.317536,216.940284 C327.23444,219.143128 301.255781,221.637915 275.35545,225.486256 L275.929853,227.609479" id="Fill-971" fill="#17111C"></path>
            <path d="M293.601896,237.578896 C321.783568,236.251882 350.01738,234.871787 378.199052,236.278422 L378.199052,234.102119 C350.01738,232.695484 321.783568,234.075579 293.601896,235.376052 L293.601896,237.578896" id="Fill-972" fill="#17111C"></path>
            <path d="M280.331754,247.514692 C299.623541,250.699526 318.915329,253.751659 338.388626,255.556398 L338.388626,253.380095 C319.122768,251.601896 299.986559,248.549763 280.90221,245.391469 L280.331754,247.514692" id="Fill-973" fill="#17111C"></path>
            <path d="M185.781991,225.545851 C158.741855,222.997984 131.648649,223.104145 104.50237,224.059595 L104.50237,226.235899 C131.648649,225.306989 158.741855,225.200827 185.781991,227.748695 L185.781991,225.545851" id="Fill-974" fill="#17111C"></path>
            <path d="M172.511848,236.659716 C143.619919,237.03128 114.937921,238.995261 86.2559242,242.206635 L86.2559242,244.382938 C114.937921,241.171564 143.619919,239.207583 172.511848,238.862559 L172.511848,236.659716" id="Fill-975" fill="#17111C"></path>
            <path d="M180.247665,248.483412 C162.045507,251.800948 144.029356,255.967773 126.066351,260.320379 L126.624373,262.417062 C144.587379,258.064455 162.630102,253.924171 180.805687,250.580095 L180.247665,248.483412" id="Fill-976" fill="#17111C"></path>
            <path d="M117.237058,370.770313 C94.1208258,415.566893 53.8980551,446.060003 27.6715433,456.931688 C-5.77714349,470.789811 8.45634026,476.553114 17.6817464,473.933431 C5.5042103,478.255908 5.10883575,490.254056 24.5612635,484.464557 C20.950176,486.507909 11.1448872,489.23238 13.4117013,495.388635 C15.7048737,501.571087 25.5892374,497.955924 31.2562726,497.353397 C25.5628791,499.265766 20.8711011,501.833055 23.4542148,505.867367 C32.4423962,519.987458 108.934192,490.777993 148.339856,399.586827 C164.444779,362.28254 130.732509,344.547286 117.237058,370.770313" id="Fill-977" fill="#E9AE5A"></path>
            <path d="M398.605924,604.594746 C391.657616,601.187409 372.054405,553.930253 352.715389,509.241706 C351.896387,513.854717 350.83961,518.415308 349.333703,522.871058 C341.936265,544.730441 325.450547,561.871971 305.21327,573.614182 C327.5641,607.63514 364.762645,653.529361 376.783482,656.412493 C391.842552,660.029513 419.133814,641.262944 425.950025,636.204358 C444.654975,622.312903 440.507126,615.105073 434.536336,615.498228 C441.299708,610.492062 440.005157,602.052348 428.88258,605.643158 C435.619533,592.931167 418.367651,595.02799 398.605924,604.594746" id="Fill-978" fill="#E9AE5A"></path>
        </g>
    </g>
</svg>