<?xml version="1.0" encoding="UTF-8"?>
<svg width="720px" height="720px" viewBox="0 0 720 720" version="1.1" xmlns="http://www.w3.org/2000/svg" xmlns:xlink="http://www.w3.org/1999/xlink">
    <title>img_w</title>
    <g id="img_w" stroke="none" stroke-width="1" fill="none" fill-rule="evenodd">
        <g id="wolf" transform="translate(153.000000, 24.000000)">
            <path d="M227.144762,483.324031 C248.067548,465.533118 290.537098,437.220486 281.567404,380.869531 C277.375047,354.653405 243.953188,336.940866 204.857023,343.739817 C164.824889,350.695515 143.024634,374.0118 138.013305,400.286706 C133.021475,426.561613 148.757438,465.787834 165.936351,482.912567 C173.775084,490.749974 198.402743,500.938603 222.50392,505.915356 C245.045151,510.55902 280.143953,515.300651 281.586903,497.960388 C283.029854,480.639719 249.978482,484.166553 227.144762,483.324031" id="Fill-1337" fill="#8D8F8A"></path>
            <path d="M317.016037,186.664626 C299.023281,170.705299 260.803373,161.873818 230.286247,150.868736 C219.584673,186.449224 186.127554,213.100322 160.784815,239.633927 C133.344881,268.341135 112.666931,291.428309 90.9305838,325.187672 C77.3282167,346.316646 52.397077,389.162055 55.9054685,439.781517 C59.41386,490.400979 116.822121,486.367087 138.695668,484.683036 C198.005125,480.081266 346.827565,319.078089 343.240774,161.070956 C339.791182,163.890764 319.191632,184.177712 317.016037,186.664626" id="Fill-1338" fill="#A3A4A0"></path>
            <path d="M231.787331,196.698649 C229.910271,201.302387 227.282386,205.846849 224.121021,209.680004 L222.65889,208.375941 C225.681945,204.661337 228.211037,200.235426 230.028822,195.789757 L231.787331,196.698649" id="Fill-1339" fill="#80817E"></path>
            <path d="M215.348233,203.139931 C213.332863,206.637191 210.665461,209.719521 208.689608,213.23654 L206.990374,212.228855 C208.985986,208.711836 211.633629,205.629505 213.648999,202.112487 L215.348233,203.139931" id="Fill-1340" fill="#80817E"></path>
            <path d="M220.63364,193.408854 C223.360318,190.484591 225.276895,187.105882 227.114439,183.588864 L228.872948,184.477998 C226.95637,188.153085 224.960759,191.670103 222.095772,194.712917 L220.63364,193.408854" id="Fill-1341" fill="#80817E"></path>
            <path d="M242.140802,178.362732 C240.421809,181.919268 238.505232,185.238701 236.292276,188.4791 L234.533767,187.589966 C236.746723,184.329809 238.683059,181.010375 240.382292,177.473598 L242.140802,178.362732" id="Fill-1342" fill="#80817E"></path>
            <path d="M238.910282,166.250753 C237.843321,169.609703 236.38119,172.593241 234.286785,175.43847 L232.824654,174.134407 C234.76099,171.467005 235.986019,168.957671 236.993704,165.816065 L238.910282,166.250753" id="Fill-1343" fill="#80817E"></path>
            <path d="M242.881747,167.801797 C244.995909,163.692023 247.129831,159.582248 249.243994,155.452715 L251.081537,156.183781 C248.967374,160.293555 246.833453,164.40333 244.71929,168.513104 L242.881747,167.801797" id="Fill-1344" fill="#80817E"></path>
            <path d="M219.062837,218.660257 C217.67974,220.695386 216.296643,222.730514 214.913545,224.765643 L213.155036,223.856751 C214.538133,221.821622 215.92123,219.786493 217.304328,217.751364 L219.062837,218.660257" id="Fill-1345" fill="#80817E"></path>
            <path d="M205.597398,219.796372 C204.174784,222.009328 202.653377,224.083974 200.934384,226.099344 L199.452495,224.795281 C201.092453,222.878703 202.47555,221.021401 203.838889,218.88748 L205.597398,219.796372" id="Fill-1346" fill="#80817E"></path>
            <path d="M215.476664,191.383604 C214.054049,193.616318 212.512884,195.690964 210.793892,197.706334 L209.33176,196.382513 C210.971718,194.465935 212.354816,192.628392 213.718154,190.474712 L215.476664,191.383604" id="Fill-1347" fill="#80817E"></path>
            <path d="M172.788357,236.946778 C168.876167,240.740416 165.161563,244.672363 161.585269,248.782138 L163.106676,250.026925 C166.68297,245.917151 170.397574,241.985203 174.309763,238.191565 L172.788357,236.946778" id="Fill-1348" fill="#80817E"></path>
            <path d="M201.171487,209.166283 C199.017807,213.177264 196.449198,216.417664 193.011213,219.440719 L191.529324,218.136656 C194.80924,215.25191 197.338332,212.110304 199.432736,208.25739 L201.171487,209.166283" id="Fill-1349" fill="#80817E"></path>
            <path d="M157.761993,273.954507 C160.113259,271.346381 162.484282,268.738255 164.835548,266.130128 L163.314141,264.885341 C160.943117,267.493467 158.591852,270.101593 156.240587,272.709719 L157.761993,273.954507" id="Fill-1350" fill="#80817E"></path>
            <path d="M149.690633,266.070853 C152.081416,262.593351 154.768576,259.688847 158.088009,257.080721 L156.942014,255.48028 C153.484271,258.206957 150.67856,261.170737 148.169227,264.826065 L149.690633,266.070853" id="Fill-1351" fill="#80817E"></path>
            <path d="M147.843211,272.541772 C145.729048,274.972071 143.674161,277.501163 142.053961,280.306875 L143.851987,281.116974 C145.373394,278.469331 147.369006,276.098308 149.384376,273.786559 L147.843211,272.541772" id="Fill-1352" fill="#80817E"></path>
            <path d="M173.163769,250.451734 C170.772986,252.644931 168.44148,254.897403 166.524902,257.50553 L168.046309,258.750317 C169.864094,256.280501 172.077049,254.107062 174.309763,252.052175 L173.163769,250.451734" id="Fill-1353" fill="#80817E"></path>
            <path d="M131.611577,294.048933 C133.291052,292.033563 134.970528,290.037951 136.650003,288.022581 L135.128596,286.777794 C133.449121,288.773405 131.769646,290.788776 130.09017,292.804146 L131.611577,294.048933" id="Fill-1354" fill="#80817E"></path>
            <path d="M120.250422,294.572534 C124.557782,289.751453 128.8849,284.910612 133.19226,280.089531 L131.651094,278.844743 C127.343734,283.665825 123.036375,288.486907 118.729015,293.327747 L120.250422,294.572534" id="Fill-1355" fill="#80817E"></path>
            <path d="M140.878328,296.271768 C144.454623,291.80634 148.366812,287.657048 152.081416,283.32993 L150.54025,282.085143 C146.845405,286.412261 142.913457,290.561552 139.356922,295.026981 L140.878328,296.271768" id="Fill-1356" fill="#80817E"></path>
            <path d="M162.849815,282.964397 C164.924461,279.941342 167.117658,277.27394 169.725784,274.685573 L168.461238,273.164166 C165.754319,275.851326 163.383296,278.676796 161.229616,281.818402 L162.849815,282.964397" id="Fill-1357" fill="#80817E"></path>
            <path d="M133.221898,310.90296 C135.33606,308.196042 137.549016,305.686708 139.979315,303.295926 L138.457908,302.03138 C136.027609,304.441921 133.794895,306.951254 131.700491,309.658173 L133.221898,310.90296" id="Fill-1358" fill="#80817E"></path>
            <path d="M117.345918,315.536336 C120.309697,311.545113 123.273477,307.573648 126.237257,303.582425 L124.71585,302.337637 C121.75207,306.309102 118.768532,310.300325 115.804752,314.27179 L117.345918,315.536336" id="Fill-1359" fill="#80817E"></path>
            <path d="M106.251502,312.987486 C108.365665,309.865638 110.499587,306.763548 112.613749,303.661459 L111.092342,302.416671 C108.97818,305.518761 106.844258,308.62085 104.730095,311.72294 L106.251502,312.987486" id="Fill-1360" fill="#80817E"></path>
            <path d="M99.9682893,321.384861 C97.5577485,325.000673 95.3843101,328.735035 93.4084569,332.607707 L95.1669662,333.536358 C97.1230608,329.643927 99.2964993,325.929324 101.70704,322.313512 L99.9682893,321.384861" id="Fill-1361" fill="#80817E"></path>
            <path d="M111.685098,319.359612 C109.827796,321.888704 108.187838,324.457313 106.68619,327.223507 L108.424941,328.152158 C109.867314,325.504515 111.329445,323.15325 113.127471,320.703192 L111.685098,319.359612" id="Fill-1362" fill="#80817E"></path>
            <path d="M89.545664,339.128022 C88.3799107,340.90629 87.4315012,342.585765 86.5423673,344.502343 L88.281118,345.430994 C89.1702519,343.514416 90.1186614,341.834941 91.2844148,340.056673 L89.545664,339.128022" id="Fill-1363" fill="#80817E"></path>
            <path d="M114.727912,335.097282 C111.52703,339.404642 108.662043,343.830553 106.113193,348.533083 L107.851943,349.461734 C110.341518,344.917272 113.068196,340.609912 116.170285,336.440862 L114.727912,335.097282" id="Fill-1364" fill="#80817E"></path>
            <path d="M97.4984729,342.052285 C95.1076906,345.924957 92.9144936,349.856905 90.9386405,353.946921 L92.6773913,354.855813 C94.6730029,350.785556 96.8464414,346.83385 99.2372237,342.980936 L97.4984729,342.052285" id="Fill-1365" fill="#80817E"></path>
            <path d="M77.5423562,365.772402 C78.7278681,362.551761 80.1702409,359.904118 82.2646452,357.177441 L80.8222725,355.833861 C78.648834,358.639572 77.048393,361.484801 75.8036055,364.843751 L77.5423562,365.772402" id="Fill-1366" fill="#80817E"></path>
            <path d="M84.8134958,366.266365 C82.6202988,369.625316 80.6642042,373.043542 78.9254534,376.639594 L80.6839627,377.568245 C82.4227135,373.972193 84.3590496,370.534208 86.5522465,367.195016 L84.8134958,366.266365" id="Fill-1367" fill="#80817E"></path>
            <path d="M69.3722035,384.681317 C70.3008545,381.223574 71.585159,378.04245 73.3239098,374.900843 L71.5654005,373.972193 C69.7476156,377.291626 68.423794,380.591301 67.455626,384.246629 L69.3722035,384.681317" id="Fill-1368" fill="#80817E"></path>
            <path d="M95.5127405,369.111594 C97.7849716,364.44858 100.452373,360.27953 103.811324,356.308065 L102.368951,354.964485 C98.9309664,359.054501 96.1054964,363.38162 93.7739897,368.182943 L95.5127405,369.111594" id="Fill-1369" fill="#80817E"></path>
            <path d="M139.544628,274.99183 C140.730139,273.213562 142.132995,271.652638 143.535851,270.032438 L142.014444,268.787651 L138.023221,273.747042 L139.544628,274.99183" id="Fill-1370" fill="#80817E"></path>
            <path d="M125.466674,327.885418 C127.126391,325.553911 128.786107,323.222405 130.445824,320.87114 L128.924417,319.626352 C127.2647,321.957859 125.604984,324.309124 123.945267,326.640631 L125.466674,327.885418" id="Fill-1371" fill="#80817E"></path>
            <path d="M228.467898,171.53616 C226.68963,174.697525 224.733535,177.641546 222.500821,180.506533 L221.03869,179.20247 C223.152853,176.475792 225.029913,173.630564 226.709389,170.627267 L228.467898,171.53616" id="Fill-1372" fill="#80817E"></path>
            <path d="M181.857522,242.311219 C184.920095,239.74261 187.212084,236.581245 189.444799,233.301329 L191.084757,234.407806 C188.75325,237.845791 186.362468,241.105949 183.181344,243.793109 L181.857522,242.311219" id="Fill-1373" fill="#80817E"></path>
            <path d="M201.912432,234.427565 C199.77851,237.746998 197.466762,240.809571 194.898153,243.77335 L193.258195,242.666872 C195.846563,239.703093 198.158311,236.64052 200.272474,233.321087 L201.912432,234.427565" id="Fill-1374" fill="#80817E"></path>
            <path d="M186.293313,254.68006 C183.803738,257.742632 181.175853,260.528585 178.271349,263.195987 L176.769701,261.911682 C179.674205,259.24428 182.302089,256.458327 184.791664,253.415514 L186.293313,254.68006" id="Fill-1375" fill="#80817E"></path>
            <path d="M240.155069,150.196946 C239.06835,153.555896 237.606219,156.539434 235.511814,159.384663 L234.049683,158.0806 C236.005778,155.413198 237.211048,152.903865 238.218733,149.762258 L240.155069,150.196946" id="Fill-1376" fill="#80817E"></path>
            <path d="M186.955224,225.170693 C184.781785,228.075197 182.450278,230.742599 179.861911,233.291449 L178.577606,231.80956 C181.027664,229.37926 183.260378,226.810651 185.335024,224.044457 L186.955224,225.170693" id="Fill-1377" fill="#80817E"></path>
            <path d="M146.085791,499.079095 C167.025124,481.327403 209.528263,453.057638 200.53196,396.850463 C196.355802,370.692133 162.90751,353.018642 123.780424,359.783054 C83.7166302,366.723418 61.8991329,390.007851 56.8838406,416.224832 C51.888063,442.441813 61.489323,474.367489 79.891738,490.125048 C98.2941529,505.882607 121.282536,515.911922 143.880623,525.726183 C158.438631,532.040937 173.211301,538.433892 189.018254,541.053635 C204.805692,543.673379 220.788277,543.77113 222.251883,526.469096 C223.695975,509.186611 175.29938,508.854256 146.085791,499.079095" id="Fill-1378" fill="#8D8F8A"></path>
            <path d="M339.594108,471.417984 C335.241632,467.085964 332.684797,458.049488 332.138297,445.151438 C330.420728,403.928643 342.268051,271.047364 337.408111,217.553779 C329.737604,259.325428 313.323109,299.940564 292.673245,336.458904 C294.42985,373.388883 307.760528,469.673415 310.805309,476.749701 C315.079714,486.727068 321.540116,494.607032 332.079744,496.95926 C342.63889,499.331089 352.592983,501.957744 356.262335,491.627543 C359.951205,481.297342 346.425349,478.18064 339.594108,471.417984" id="Fill-1379" fill="#ACADA8"></path>
            <path d="M282.975456,494.23242 C275.80958,481.520661 285.810308,394.203214 290.082272,351.504238 C286.361529,346.94054 283.073888,342.024282 280.376842,336.794636 C278.585373,341.201641 276.793904,345.608645 275.002435,350.01565 C267.718441,330.605244 254.66631,323.495276 247.736672,290.413363 C240.649542,339.96768 254.804115,431.261224 254.371013,473.333426 C254.27258,482.049501 253.93791,504.946337 265.986031,513.79952 C278.034152,522.633115 300.181432,522.789809 301.283875,510.411023 C302.110706,501.244454 287.503345,502.262961 282.975456,494.23242" id="Fill-1380" fill="#ACADA8"></path>
            <path d="M316.814546,186.898784 C302.109072,173.879825 273.954667,165.61817 247.469107,157.043277 C236.376193,184.9802 230.172014,227.14988 235.11965,255.869899 C235.846089,260.079036 238.67331,253.951316 239.497916,251.425834 C241.402363,261.743114 240.342155,283.356543 242.992674,293.497627 C243.640579,295.925222 246.939003,295.318323 248.018844,289.464686 C254.870928,323.52933 268.123524,330.518455 275.466445,350.154569 C277.253091,345.749658 279.039737,341.344747 280.826384,336.939836 C285.695486,346.434866 292.410135,355.00976 300.45986,362.03804 C307.390477,352.875825 321.40878,337.331384 331.893056,307.593341 C333.699336,310.334175 337.783099,314.48458 340.61032,314.327961 C342.259532,309.237841 346.971566,290.502287 345.872091,274.997001 C346.716331,276.42615 350.839361,279.617263 352.626007,279.617263 C349.582818,257.984256 357.043539,227.110726 353.175744,209.334463 L358.123381,210.802767 C356.061866,196.687475 352.861609,178.206426 346.578896,163.52339 C333.797503,172.27448 322.626055,180.203319 316.814546,186.898784" id="Fill-1381" fill="#BDBEB9"></path>
            <path d="M148.211609,565.399938 C149.427279,564.677228 153.623301,564.579564 154.093883,562.763023 C129.545192,550.652743 91.2711945,532.409193 72.4871322,512.544428 C60.3500398,499.691905 45.467886,478.596579 59.683382,457.677048 C57.4677254,452.71574 55.9971568,446.934058 55.5265749,440.156208 C55.1736384,435.019105 55.1736384,429.979666 55.3697143,425.018358 C6.44880037,455.801908 -4.43340692,518.853493 1.44886729,551.473117 C1.80180375,553.484986 4.01746037,550.183958 4.95862424,547.859566 C9.54679813,584.268535 32.7817813,615.130216 59.5265214,640.366476 C60.9186596,636.79199 60.9382672,631.928345 61.1931657,629.096102 C67.9381735,639.057784 90.7221823,660.817222 133.447101,668.37638 C182.034686,676.970772 224.700781,670.192922 269.20999,648.941335 C240.68096,605.676384 173.132844,575.967134 148.211609,565.399938" id="Fill-1382" fill="#A3A4A0"></path>
            <path d="M171.508296,628.265276 C163.580189,624.446893 149.701106,618.435387 150.934367,611.895183 C152.187204,605.354978 168.787291,605.472467 175.521289,606.510284 C172.526226,604.395487 163.384433,600.361708 164.108729,595.779649 C164.81345,591.197589 173.798639,592.078755 177.106911,591.217171 C166.673129,587.007159 147.821851,577.510155 148.702752,573.848424 C149.387897,570.969951 152.363384,569.364272 155.593354,568.26771 C184.4086,580.897746 243.135324,609.212524 269.20999,648.923706 C229.099637,668.152691 190.477028,675.515316 147.665246,670.44372 L148.213363,669.856277 C150.777763,667.232363 153.674948,664.960914 156.80704,663.081095 C151.932722,662.395744 138.425575,658.890665 138.543029,654.249861 C138.660482,649.609057 151.893571,648.551659 157.687941,648.492914 C153.831552,645.712348 134.627914,637.918931 135.900326,631.261238 C137.172738,624.623126 154.575424,625.504291 171.508296,628.265276" id="Fill-1383" fill="#80817E"></path>
            <path d="M204.818161,592.965875 C229.162603,607.403481 254.423862,626.313607 269.20999,648.931216 C238.330782,663.819997 208.309872,671.568441 176.591874,672 C176.747928,670.273764 177.567212,663.663067 201.560532,661.819134 C200.214565,661.112946 193.933387,659.269013 195.747516,654.129539 C197.561645,648.990065 215.468855,651.265557 222.900932,653.815678 C220.189491,652.638699 213.225577,649.264693 214.376476,645.537594 C215.546882,641.790878 232.751848,646.479177 235.15118,647.04805 C227.836143,644.184068 215.078719,634.395528 216.892848,630.825359 C218.726484,627.274806 223.583668,628.804879 225.787933,628.510634 C218.51191,625.372024 207.158973,617.721662 208.739021,614.622284 C210.299562,611.50329 218.277829,613.563003 222.354742,615.250006 C214.493516,611.326744 199.336761,598.968466 204.818161,592.965875" id="Fill-1384" fill="#343A3F"></path>
            <path d="M271.679806,41.4754922 C252.069688,25.4380385 238.983215,0.384406576 233.889678,2.84869824 C229.050817,5.17608481 214.142426,32.3419667 232.244073,60.7204366 C242.822958,52.3301102 257.319949,45.4848556 271.679806,41.4754922" id="Fill-1385" fill="#343A3F"></path>
            <path d="M260.565632,45.6057331 C255.519098,43.1732815 251.207688,39.3508576 247.392985,35.2774665 C242.624606,30.142291 238.372802,24.5244861 233.008375,19.9684657 C230.485108,28.1731635 229.094331,43.7524366 235.849534,58.2506202 C243.041839,53.2891912 251.605053,48.9648329 260.565632,45.6057331" id="Fill-1386" fill="#CDCDC7"></path>
            <path d="M368.423628,57.015712 C377.42777,41.2712454 375.494125,4.08005175 365.200887,0.323955271 C358.638216,-2.06982642 339.438494,33.9536688 327.250675,40.1813936 C341.860433,43.5482573 356.040491,49.4062108 368.423628,57.015712" id="Fill-1387" fill="#343A3F"></path>
            <path d="M363.117335,54.5458956 C365.26541,51.4466787 367.103852,48.2110183 368.032749,44.4295839 C371.593522,30.0835233 366.233011,14.2950599 365.149297,15.0552452 C364.162344,15.7179708 356.595702,37.1785859 344.53939,45.8524948 C350.983615,48.308478 357.214967,51.2322675 363.117335,54.5458956" id="Fill-1388" fill="#CDCDC7"></path>
            <path d="M400.008709,102.087938 L407.361256,96.0246829 C391.087619,90.1368915 384.264455,69.2956695 368.461381,57.3641187 C345.933177,43.5609521 317.640577,35.4116249 291.289049,37.6146726 C271.60383,39.2718325 247.624723,48.3569676 232.233392,60.6784384 C220.724205,70.9333334 214.920594,101.464066 190.157216,119.614841 C192.157109,120.2972 194.333463,120.97956 197.980326,120.843088 C193.451157,122.305288 188.157324,127.432736 186.47114,129.0704 C190.039576,129.36284 195.431443,130.942015 202.940845,129.206872 C200.176287,130.649575 197.764652,131.604879 195.098128,133.573975 C220.606564,155.389997 290.171461,163.441844 316.503383,186.681074 C334.384777,166.132292 402.851694,133.983391 413.69425,101.912474 C410.714018,101.678522 407.224009,100.85969 400.008709,102.087938" id="Fill-1389" fill="#BDBEB9"></path>
            <path d="M388.996086,119.420693 C387.046232,119.302767 383.284393,119.027605 381.511799,119.833435 C384.919119,116.885277 387.952225,113.229561 388.740044,110.890688 C386.415976,110.831725 383.304089,109.907969 380.783066,109.770388 C383.363175,108.709051 387.932529,103.107551 388.680958,100.611443 C385.450897,99.943194 380.133115,100.100429 376.331885,99.3928711 C378.458998,98.2922253 379.798291,95.5013022 380.467938,93.7324072 C376.430362,93.064158 370.856538,91.3738806 366.681094,91.9242034 L369.044553,86.9712975 C364.9085,87.4233484 358.724115,87.6198923 352.933641,89.2315522 L353.268464,85.4186008 C347.891595,86.0671956 343.204068,87.5412748 338.949842,90.1159997 C326.935592,113.072326 323.44949,142.553908 323.547967,180.506533 C336.054604,169.912817 356.793957,157.2947 375.228937,143.536628 C379.030167,140.922594 380.645197,137.286532 382.398096,135.065586 C380.408851,134.220448 379.010472,134.31872 376.981836,133.532544 C381.098194,130.269916 386.278108,124.904268 388.996086,119.420693" id="Fill-1390" fill="#EEF0EA"></path>
            <path d="M308.727052,181.741441 C306.756293,148.668183 296.961618,120.325284 278.988292,97.5960066 C269.804553,94.4751472 260.246369,94.2396107 255.31947,94.0629583 L258.236194,99.460671 C252.442161,98.0081956 247.791169,97.8119151 243.179592,97.6156346 L246.017486,102.48339 C241.543862,102.718927 239.139535,103.19 235.473922,104.308798 C237.54322,106.742676 238.430062,109.078414 240.755558,110.452377 C237.641758,110.236468 229.26603,113.985425 228.458019,114.574267 C229.009831,115.889346 232.87252,119.245742 237.720588,120.521565 C235.020648,120.207516 230.211995,122.091808 229.167492,122.935814 C232.517783,125.821137 235.138893,130.060795 238.232986,130.806661 C235.710414,132.003972 232.320707,132.82835 231.000298,134.182685 C235.533045,137.382056 238.19357,139.914074 245.564211,141.602086 C241.997136,142.36758 239.967254,144.408897 239.10012,145.704348 C245.308012,148.314878 248.52035,152.044207 254.74795,152.456396 C252.934851,152.966725 251.14146,154.144408 249.328362,154.635109 C250.451694,156.63717 254.609997,159.188816 256.206312,160.75906 C275.618293,166.98115 295.049981,173.321009 308.727052,181.741441" id="Fill-1391" fill="#EEF0EA"></path>
            <path d="M363.715927,54.1861173 C342.140314,42.3325368 316.202418,35.5869136 291.895466,37.6144997 C272.442044,39.2521655 248.842489,48.1033589 233.397651,60.1518997 C281.04871,84.6778937 305.453911,126.262906 308.696148,180.539827 C311.840136,182.469933 314.709024,184.49752 317.165264,186.681074 C319.012357,184.575504 321.389997,182.352957 324.180286,180.013435 C324.023087,120.9015 332.590452,82.4748434 369.237554,57.3639687 C368.078209,56.8375761 366.093567,55.6678149 363.715927,54.1861173" id="Fill-1392" fill="#A3A4A0"></path>
            <path d="M263.670073,116.034387 C262.346251,112.418576 258.888508,108.427353 254.087185,111.885096 C249.30562,115.342839 254.541631,124.649107 258.394545,124.491039 C262.267217,124.313212 265.013653,119.669957 263.670073,116.034387" id="Fill-1393" fill="#17111C"></path>
            <path d="M356.533337,110.118323 C353.569558,107.07551 345.745179,108.972329 345.666145,114.820854 C345.60687,120.669379 350.605778,122.526681 354.517967,120.827447 C358.430156,119.128214 359.497117,113.180896 356.533337,110.118323" id="Fill-1394" fill="#17111C"></path>
            <path d="M328.181964,173.736456 C325.015855,170.851711 306.192951,171.721086 303.548092,174.546556 C299.0499,179.347879 310.903504,189.404972 316.98475,189.049318 C323.04669,188.713423 333.703349,178.774882 328.181964,173.736456" id="Fill-1395" fill="#17111C"></path>
            <path d="M309.794013,162.11134 C310.228701,164.581157 310.465803,167.011456 310.485561,169.501031 L312.599724,169.263929 C312.560207,166.774354 312.323105,164.324296 311.908176,161.874238 L309.794013,162.11134" id="Fill-1396" fill="#343A3F"></path>
            <path d="M341.31875,76.8335189 C342.286918,74.5217708 343.413154,72.3483323 344.717217,70.2341695 L342.820398,69.3055185 C341.496576,71.4196813 340.390099,73.5931198 339.421931,75.904868 L341.31875,76.8335189" id="Fill-1397" fill="#343A3F"></path>
            <path d="M320.843354,165.974133 C320.566735,163.306731 320.645769,160.738122 321.119974,158.110238 L319.025569,157.774343 C318.531606,160.599813 318.432813,163.346248 318.729191,166.191477 L320.843354,165.974133" id="Fill-1398" fill="#343A3F"></path>
            <path d="M283.139754,56.23525 C284.246232,58.6853079 284.93778,61.1353658 285.332951,63.783009 L287.387838,63.2495286 C286.972909,60.4240587 286.162809,57.796174 284.977298,55.1880479 L283.139754,56.23525" id="Fill-1399" fill="#343A3F"></path>
            <path d="M315.040229,157.389051 C314.566025,155.591025 314.190612,153.654689 314.48699,151.797387 L312.451862,151.244148 C312.07645,153.476862 312.412345,155.729335 312.985342,157.902773 L315.040229,157.389051" id="Fill-1400" fill="#343A3F"></path>
            <path d="M309.467997,132.463664 C310.159546,135.822614 310.613992,139.161806 310.791819,142.599791 L312.92574,142.619549 C312.728155,139.023496 312.25395,135.486719 311.522884,131.949942 L309.467997,132.463664" id="Fill-1401" fill="#343A3F"></path>
            <path d="M317.270462,133.412073 C317.092635,130.270467 317.072876,127.148619 317.191428,124.007013 L315.077265,123.868703 C314.958714,127.010309 314.978472,130.132157 315.156299,133.273764 L317.270462,133.412073" id="Fill-1402" fill="#343A3F"></path>
            <path d="M348.728199,60.2462319 C350.46695,57.6381057 352.324252,55.1287723 354.319863,52.6984729 L352.699664,51.3153757 C350.723811,53.7456751 348.866509,56.2550085 347.107999,58.8631347 L348.728199,60.2462319" id="Fill-1403" fill="#343A3F"></path>
            <path d="M295.864248,55.7906831 C296.318695,58.8927725 297.069519,65.0376757 297.247345,68.1792822 L299.361508,68.1200066 C299.20344,64.9784001 298.452616,58.8334969 297.978411,55.7314075 L295.864248,55.7906831" id="Fill-1404" fill="#343A3F"></path>
            <path d="M297.691912,120.638183 C298.758873,122.989448 299.667766,125.399989 300.438348,127.869805 L302.473477,127.257291 C301.643619,124.609648 300.635934,122.060797 299.489939,119.531705 L297.691912,120.638183" id="Fill-1405" fill="#343A3F"></path>
            <path d="M317.76658,117.002613 C317.825856,113.367043 318.221027,109.790749 319.090402,106.253972 L317.035515,105.700733 C316.126622,109.415337 315.711693,113.1497 315.652417,116.982855 L317.76658,117.002613" id="Fill-1406" fill="#343A3F"></path>
            <path d="M313.642071,83.4625062 C313.266659,79.8269364 313.227142,76.2506423 313.642071,72.634831 L311.547667,72.3186945 C311.09322,76.1320911 311.132738,79.886212 311.547667,83.6996086 L313.642071,83.4625062" id="Fill-1407" fill="#343A3F"></path>
            <path d="M299.73692,107.824775 C301.159535,111.223243 302.384564,114.661227 303.412007,118.198004 L305.368102,117.348387 C304.3209,113.81161 303.095871,110.373626 301.673257,106.975158 L299.73692,107.824775" id="Fill-1408" fill="#343A3F"></path>
            <path d="M296.931209,76.8829153 C297.840101,80.2813827 298.413099,83.6996086 298.650201,87.2166272 L300.764364,87.0783174 C300.507503,83.3834721 299.914747,79.7874194 298.946579,76.2111252 L296.931209,76.8829153" id="Fill-1409" fill="#343A3F"></path>
            <path d="M333.494371,93.1837036 C334.640366,89.8445118 336.082739,86.7029053 337.861007,83.6600915 L336.023463,82.5931308 C334.166161,85.7940129 332.664513,89.1134462 331.459243,92.6107062 L333.494371,93.1837036" id="Fill-1410" fill="#343A3F"></path>
            <path d="M305.279074,75.2231986 C304.38994,71.9827995 304.192355,68.8609515 304.607284,65.5415183 L302.51288,65.2253818 C302.058434,68.9004686 302.315295,72.3977287 303.303221,75.9740228 L305.279074,75.2231986" id="Fill-1411" fill="#343A3F"></path>
            <path d="M262.432813,48.5491813 C264.981664,51.1573075 267.234136,53.9235018 269.150714,57.0255913 L271.047533,56.0771818 C269.032163,52.8170241 266.700656,49.8730029 264.013496,47.1265671 L262.432813,48.5491813" id="Fill-1412" fill="#343A3F"></path>
            <path d="M324.385688,102.233111 C324.978444,98.6370583 325.887337,95.1793153 327.270434,91.8006064 L325.393373,90.8324384 C323.951001,94.3692155 322.943316,98.0047853 322.291284,101.778665 L324.385688,102.233111" id="Fill-1413" fill="#343A3F"></path>
            <path d="M272.005822,46.8005513 C273.902641,49.764331 275.463565,52.8466619 276.767628,56.1068196 L278.763239,55.3955124 C277.399901,51.957528 275.740184,48.6973703 273.744572,45.5755224 L272.005822,46.8005513" id="Fill-1414" fill="#343A3F"></path>
            <path d="M241.814786,59.0804785 C245.015668,60.5426098 247.999206,62.2813606 250.864193,64.3362479 L252.148498,62.6567727 C249.145201,60.5030928 245.983836,58.6655494 242.605127,57.1046254 L241.814786,59.0804785" id="Fill-1415" fill="#343A3F"></path>
            <path d="M280.264888,91.9191576 C282.714946,94.3296984 284.532731,96.9773416 285.915828,100.118948 L287.792888,99.1310216 C286.330757,95.8115883 284.374662,92.9861183 281.806053,90.4767848 L280.264888,91.9191576" id="Fill-1416" fill="#343A3F"></path>
            <path d="M289.294537,67.7841116 C290.262705,69.8982744 290.99377,72.0519544 291.487734,74.3044269 L293.582138,73.9487734 C293.028899,71.4789569 292.258316,69.1869673 291.211114,66.8949777 L289.294537,67.7841116" id="Fill-1417" fill="#343A3F"></path>
            <path d="M258.214367,68.4065053 C260.269254,69.473466 262.166073,70.7182535 263.964099,72.2001433 L265.386714,70.6194608 C263.430619,69.0190198 261.415249,67.6951982 259.182535,66.5294448 L258.214367,68.4065053" id="Fill-1418" fill="#343A3F"></path>
            <path d="M305.975914,58.3000165 C305.442434,53.3999008 305.620261,48.6183362 306.489636,43.777496 L304.434749,43.3230498 C303.506098,48.3219582 303.308513,53.3011081 303.861752,58.3592921 L305.975914,58.3000165" id="Fill-1419" fill="#343A3F"></path>
            <path d="M275.157307,64.3461271 C278.61505,67.8236286 281.44052,71.6963008 283.752269,76.0234192 L285.491019,74.7786317 C283.06072,70.2934451 280.077182,66.3219803 276.481129,62.706169 L275.157307,64.3461271" id="Fill-1420" fill="#343A3F"></path>
            <path d="M350.249606,67.8829042 C353.15411,63.9114394 356.532819,60.512972 360.425249,57.5491923 L358.94336,56.0277854 C354.892861,59.1298749 351.435118,62.706169 348.412062,66.8159435 L350.249606,67.8829042" id="Fill-1421" fill="#343A3F"></path>
            <path d="M291.379062,57.7665362 C290.647996,52.9454545 289.719345,48.1441314 288.612867,43.4020839 L286.55798,43.9158057 C287.664458,48.6776118 288.57335,53.4591764 289.324174,58.280258 L291.379062,57.7665362" id="Fill-1422" fill="#343A3F"></path>
            <path d="M316.640755,100.49436 C316.640755,97.8269585 317.016167,95.2978665 317.727474,92.7292574 L315.652828,92.3538453 C314.862487,95.1200397 314.526592,97.846717 314.54635,100.711704 L316.640755,100.49436" id="Fill-1423" fill="#343A3F"></path>
            <path d="M322.390077,87.7995038 C322.429594,84.75669 323.042108,81.9707371 324.346171,79.2045427 L322.528386,78.0980649 C321.066255,81.2001544 320.315431,84.3022438 320.275914,87.7402282 L322.390077,87.7995038" id="Fill-1424" fill="#343A3F"></path>
            <path d="M296.763261,93.6776669 C297.691912,95.8115883 298.363703,97.9652682 298.837907,100.237499 L300.932312,99.9213628 C300.41859,97.4515464 299.707283,95.1397982 298.699598,92.8280501 L296.763261,93.6776669" id="Fill-1425" fill="#343A3F"></path>
            <path d="M330.925762,82.7610783 C331.795138,77.9399967 333.356062,73.415293 335.569017,69.0288991 L333.573405,68.3175919 C331.281416,72.8818127 329.720492,77.6041017 328.811599,82.6227686 L330.925762,82.7610783" id="Fill-1426" fill="#343A3F"></path>
            <path d="M324.346171,123.592083 C324.642549,118.691968 325.669993,113.989437 327.349468,109.385699 L325.274822,108.911495 C323.536071,113.712818 322.548145,118.593175 322.21225,123.671117 L324.346171,123.592083" id="Fill-1427" fill="#343A3F"></path>
            <path d="M318.44825,70.441634 C318.547042,65.5415183 319.376901,60.8192293 320.878549,56.1364574 L318.784145,55.7610453 C317.242979,60.621644 316.452638,65.5217597 316.334087,70.6194608 L318.44825,70.441634" id="Fill-1428" fill="#343A3F"></path>
            <path d="M304.72595,136.929092 C306.583252,141.453796 307.709488,146.116809 308.203451,150.997166 L310.258338,150.522962 C309.764375,145.445019 308.519588,140.623937 306.583252,135.921407 L304.72595,136.929092" id="Fill-1429" fill="#343A3F"></path>
            <path d="M296.605193,50.3669662 C296.328574,47.383428 296.071713,44.3998897 295.795093,41.396593 L293.680931,41.43611 C293.937791,44.4196483 294.214411,47.4031865 294.49103,50.4064833 L296.605193,50.3669662" id="Fill-1430" fill="#343A3F"></path>
            <path d="M312.78743,59.3768565 C312.985016,57.0651083 313.45922,54.8916699 314.190286,52.6984729 L312.135399,52.1649926 C311.345058,54.5360163 310.890611,56.8872815 310.673268,59.396615 L312.78743,59.3768565" id="Fill-1431" fill="#343A3F"></path>
            <path d="M326.895022,57.5985887 C327.961982,53.2121947 329.621699,49.2012129 332.17055,45.4668504 L330.570109,44.0837532 C327.803914,48.1342522 325.966371,52.4613705 324.800617,57.203418 L326.895022,57.5985887" id="Fill-1432" fill="#343A3F"></path>
            <path d="M320.680964,48.2330448 C321.925751,45.0124042 321.708407,45.0914383 323.368124,42.068383 L321.471305,41.100215 C319.811588,44.1232703 320.028932,44.0442362 318.784145,47.2846353 L320.680964,48.2330448" id="Fill-1433" fill="#343A3F"></path>
            <path d="M308.242968,113.732576 C308.914758,117.131044 309.349446,120.529511 309.56679,123.987254 L311.680953,123.789669 C311.463609,120.331926 311.028921,116.933458 310.357131,113.534991 L308.242968,113.732576" id="Fill-1434" fill="#343A3F"></path>
            <path d="M320.414223,152.449418 C320.513016,148.971917 320.809394,145.573449 321.362633,142.155224 L319.24847,141.878604 C318.71499,145.29683 318.398853,148.715056 318.319819,152.172799 L320.414223,152.449418" id="Fill-1435" fill="#343A3F"></path>
            <path d="M291.517371,104.594255 C292.604091,106.945521 293.493225,109.336303 294.283566,111.806119 L296.298936,111.193605 C295.469078,108.545962 294.481151,105.997111 293.335156,103.487778 L291.517371,104.594255" id="Fill-1436" fill="#343A3F"></path>
            <path d="M288.415282,82.0201334 C289.995964,85.3395667 291.379062,88.7380341 292.564574,92.2155356 L294.461393,91.2671261 C293.275881,87.7896246 291.892784,84.4109157 290.312101,81.0914824 L288.415282,82.0201334" id="Fill-1437" fill="#343A3F"></path>
            <path d="M305.773152,95.2188324 C306.444942,98.6172997 306.87963,102.015767 307.096973,105.453752 L309.211136,105.256166 C308.993792,101.818182 308.559105,98.4197144 307.887315,95.021247 L305.773152,95.2188324" id="Fill-1438" fill="#343A3F"></path>
            <path d="M340.271547,63.2495286 C341.871989,60.1869563 343.650256,57.2626936 345.645868,54.4372237 L343.887359,53.2517118 C341.891747,56.0969403 340.093721,59.0212029 338.49328,62.0837753 L340.271547,63.2495286" id="Fill-1439" fill="#343A3F"></path>
            <path d="M325.610717,72.3483323 C326.084922,68.8708308 327.05309,65.6699487 328.53498,62.5085837 L326.717195,61.441623 C325.077237,64.9191245 324.030035,68.4954187 323.496554,72.3088153 L325.610717,72.3483323" id="Fill-1440" fill="#343A3F"></path>
            <path d="M307.422989,86.7819395 C307.343955,85.0036716 307.284679,83.2254038 307.205645,81.4273775 L305.091482,81.6052043 C305.170517,83.3834721 305.229792,85.1617399 305.308826,86.9400077 L307.422989,86.7819395" id="Fill-1441" fill="#343A3F"></path>
            <path d="M262.590882,59.8313027 C265.910315,63.1309775 268.93337,66.647996 271.739082,70.3823585 L273.359281,68.9992613 C270.55357,65.2648988 267.530514,61.7676388 264.211081,58.4679641 L262.590882,59.8313027" id="Fill-1442" fill="#343A3F"></path>
            <path d="M334.907106,59.6040796 C336.922476,55.7709245 339.056398,51.997045 341.30887,48.3021997 L339.609637,47.0178951 C337.258371,50.8905673 335.045416,54.822515 332.951012,58.8137384 L334.907106,59.6040796" id="Fill-1443" fill="#343A3F"></path>
            <polyline id="Fill-1444" fill="#343A3F" points="274.465759 83.195766 270.375743 78.7303379 268.893853 80.2319863 272.96411 84.6974144 274.465759 83.195766"></polyline>
            <polyline id="Fill-1445" fill="#343A3F" points="259.281328 55.6523733 255.863102 51.8587353 254.440487 53.4394178 257.858713 57.2330558 259.281328 55.6523733"></polyline>
            <polyline id="Fill-1446" fill="#343A3F" points="323.091504 134.706257 323.585468 129.983968 321.451546 130.043244 321.036617 134.192535 323.091504 134.706257"></polyline>
            <polyline id="Fill-1447" fill="#343A3F" points="312.659 45.8719003 314.121131 41.3669552 312.026727 40.9915431 310.742422 44.9630079 312.659 45.8719003"></polyline>
            <polyline id="Fill-1448" fill="#343A3F" points="328.712807 103.912586 330.174938 99.407641 328.080534 99.0322289 326.796229 103.003694 328.712807 103.912586"></polyline>
            <path d="M278.871911,80.3406583 L282.270379,84.7270522 L284.246232,83.9564695 C283.19903,81.9015822 281.914725,80.2221071 280.215491,78.7007001 L278.871911,80.3406583" id="Fill-1449" fill="#343A3F"></path>
            <path d="M278.308793,43.8960472 C279.29672,45.5360053 279.909234,47.1957219 280.225371,49.0925409 L282.339534,48.9344727 C281.964122,46.6820001 281.252814,44.6863884 280.087061,42.7105353 L278.308793,43.8960472" id="Fill-1450" fill="#343A3F"></path>
        </g>
    </g>
</svg>