<svg viewBox="0 0 720 720" xmlns="http://www.w3.org/2000/svg">
  <g fill="none" fill-rule="evenodd">
    <path d="M120.47 382.46c-2.99 2.142-6.965 3.195-10.589 3.617 6.684-15.345 9.569-27.214 20.967-43.191-5.101 2.528-10.273 3.933-17.8 3.617 11.467-12.43 17.975-24.861 31.836-38.24-4.01.632-8.021 1.51-12.805 1.053 10.201-14.256 16.182-25.387 30.5-37.888-5.98 2.493-8.76 2.914-14.389 4.424a255.793 255.793 0 0124.59-35.43c-3.025.35-6.719.175-10.096-1.054 9.146-5.794 19.313-17.206 33.244-23.246-1.197-.245-6.895.773-10.87-.245 6.05-7.796 23.78-17.523 33.841-24.16-4.08 1.3-9.322 2.143-12.91 2.424 7.81-10.43 25.011-17.171 36.339-23.597-5.066 1.229-10.8.667-14.107-.632 13.58-7.374 21.952-15.696 40.033-22.017-3.271-.316-7.387-1.826-10.659-2.142 12.63-6.215 20.369-12.43 39.857-16.75-3.482-.316-10.835-.667-14.704-2.142 14.317-8.708 34.299-13.624 50.938-15.345-6.015-.35-11.398-3.3-17.413-3.652 13.755-6.987 49.25-8.462 58.36-7.62-4.572-2.528-7.598-4.53-11.116-7.795 15.092.07 32.048-2.282 49.567 1.686-2.252-2.072-4.996-5.83-5.945-10.254 13.578 4.144 35.248 8.638 45.45 14.116-1.759-3.195-3.553-6.39-5.312-9.55 8.584 4.494 26.947 10.85 33.63 15.169-1.23-2.529-1.512-5.268-1.793-8.709 8.478 5.092 19.313 15.942 27.79 20.999-.21-2.774-.668-4.495-.598-7.936 8.584 7.339 15.901 16.082 21.74 25.704l1.443-11.167c2.251.422 10.378 22.825 12.348 27.073l4.714-8.287c5.91 15.626 6.895 40.277 6.895 40.277-4.468-6.532-14.88-9.376-21.987-10.886l4.397 7.129c-17.343-2.213-29.127 2.493-37.957 2.633l4.96 3.652c-25.434 6.602-31.027 10.5-42.847 19.489l8.372 2.352c-27.087 9.867-35.741 18.927-48.37 29.286 3.518.35 7.07.737 10.589 1.088-17.343 8.709-29.691 23.527-34.686 30.058 3.342.738 7.422 1.019 9.674.035-15.408 9.34-30.746 20.016-37.113 30.058l8.583.281c-21.494 11.904-31.485 27.39-31.801 29.18l9.533.246c-12.7 10.605-18.187 20.718-25.328 30.655l7.704-.807c-11.574 13.413-16.604 29.742-25.047 45.613l9.498-1.404c-8.69 10.394-11.081 16.96-19.806 27.354l8.936-1.089c-8.232 10.43-13.579 27.67-17.695 37.573a15.933 15.933 0 009.674-1.756c-7.458 12.677-12.418 23.808-15.021 38.275l5.734-1.404c-5.347 9.55-5.382 23.07-5.664 33.99l7.353-2.493c-8.127 17.874-4.081 27.284-6.579 41.786 3.835-2.071 5.312-2.422 7.141-6.39.141 11.798 4.468 21.77 7.423 33.183 1.478-2.634 3.553-5.057 3.342-9.06 3.518 11.799 10.167 15.837 15.267 23.738l.599-8.112c7.317 11.272 19.7 23.983 21.74 24.019l-.88-8.85c5.418 7.024 16.57 17.453 24.766 20.894l-.844-8.147c8.794 6.602 19.524 6.918 24.87 8.884l-2.216-8.04c14.318 6.846 19.208 4.95 31.907 8.18l-4.15-8.637c8.266 3.862 21.845 5.934 29.408 7.584l-4.995-6.882c9.252 2.072 21.072.667 28.706 1.51-1.97-2.88-4.996-5.057-9.006-6.532 4.749-1.158 12.98-4.213 15.76-5.267.668 8.006-14.423 15.696-20.615 18.681 7 .562 10.8 3.406 10.167 3.512-8.02 1.053-20.052 4.494-33.807 1.755l3.87 6.497c0 .105-22.198 1.018-36.867-3.09l7.493 6.074c-6.79 1.054-24.941-.456-32.927-2.387 3.905 1.825 6.473 5.583 7.388 7.374-8.091.21-22.128-.457-35.355-4.18l4.116 8.393c-7-1.58-30.324-6.847-39.153-12.816l3.166 8.673c-12.876-3.582-29.445-11.799-41.476-17.593l2.85 8.78c-1.654 1.158-28.248-11.73-38.52-22.65 1.723 4.425 1.02 7.62.879 10.991-7.704-4.916-19.806-11.166-28.002-19.84l.668 11.307c-7.985-3.3-20.262-20.542-24.378-28.127.738 4.144.985 8.674-.493 11.202-8.9-6.777-19.63-22.192-24.66-32.2 1.02 4.354-2.146 9.48-4.432 12.185-2.111-.387-9.182-29.532-10.483-41.822l-7.107 5.76c-2.568-12.712-6.085-33.992-5.945-46.984-.668 3.3-4.432 8.217-7.739 10.85-2.11-1.404-1.653-38.099-.528-53.97a46.877 46.877 0 01-11.257 12.851c-1.055-21.455 2.744-42.875 7.915-63.697-2.603 2.598-6.015 4.494-9.392 5.583 2.568-14.327 1.97-25.634 7.704-43.191" fill="#6B5255"/>
    <path d="M524.082 143.478c-4.259-4.08-9.617-6.92-14.833-9.58l1.88-3.159c5.5 2.768 11.072 5.82 15.543 10.114l-2.59 2.625M519.344 156.43a115.93 115.93 0 00-17.068-4.045l.994-3.548a118.107 118.107 0 0117.068 4.045l-.994 3.549M497.68 167.136c7.559-1.49 15.153-1.88 22.818-1.136v3.69a74.104 74.104 0 00-21.86.994l-.957-3.548M479.76 114.327c-5.712-3.903-11.816-7.026-18.594-8.551l.994-3.549c7.062 1.561 13.484 4.826 19.446 8.907l-1.845 3.193M453.235 119.136c7.95.461 15.614 2.803 22.995 5.784l-.994 3.548c-7.026-2.839-14.371-5.18-22-5.677v-3.655M470.747 144.314c-7.239-1.455-14.478-2.377-21.858-1.526v-3.69c7.7-.887 15.294.177 22.817 1.668l-.959 3.548M446.76 155.517a78.103 78.103 0 0118.203-.106v3.655a80.1 80.1 0 00-18.204.142v-3.69M445.34 174.457c6.955-1.597 13.91-2.555 21.043-2.839v3.655c-6.778.32-13.45 1.207-20.05 2.733l-.993-3.549M448.268 192.767c5.926-3.406 12.135-6.103 18.665-8.055l.958 3.549a83.66 83.66 0 00-17.743 7.7l-1.88-3.194M412.25 110.488c-7.878-1.206-15.933-1.88-23.668.355l-.994-3.584c8.41-2.377 17.14-1.632 25.656-.32l-.994 3.55M411.647 125.584c-7.24-.922-14.336-.887-21.504.71l-.958-3.548c7.452-1.633 14.868-1.81 22.462-.852v3.69M408.684 140.521c-6.707-.993-14.478-.319-20.936 1.704l-.994-3.549c7.133-2.235 15.578-2.803 22.888-1.703l-.958 3.548M384.909 156.289a132.066 132.066 0 0122.143-1.988v3.69c-7.133 0-14.159.604-21.185 1.846l-.958-3.548M385.6 177.881c8.091-3.37 16.466-4.897 25.195-5.251v3.69c-8.445.32-16.43 1.845-24.236 5.11l-.958-3.549M392.095 200.45c6.422-3.442 13.768-5.678 21.078-5.678v3.69c-6.671 0-13.378 2.023-19.233 5.182l-1.845-3.194M401.108 223.036c5.465-5.074 12.526-8.8 19.8-10.326l.994 3.549c-6.671 1.419-13.165 4.72-18.204 9.368l-2.59-2.59M368.497 259.231c5.323-5.18 11.533-9.226 18.523-11.746l.958 3.549c-6.352 2.307-12.03 6.103-16.855 10.787l-2.626-2.59M378.54 236.52c-5.572 1.278-11.498 5.04-15.756 8.765l-2.59-2.59c4.754-4.187 11.142-8.304 17.352-9.723l.993 3.549M368.23 218.565c-6.457 2.271-12.525 5.145-18.026 9.19l-1.88-3.157c5.784-4.259 12.207-7.24 18.913-9.581l.994 3.548M360.229 198.392c-6.849 2.2-13.378 5.145-19.02 9.616l-2.626-2.59c6.174-4.897 13.165-8.162 20.652-10.575l.994 3.549M354.16 177.597c-7.38 1.065-14.158 3.904-20.935 6.85l-1.881-3.195c7.062-3.051 14.159-6.103 21.823-7.203l.994 3.548M351.198 155.49c-6.671 1.633-13.555 3.087-19.446 6.707l-1.88-3.194c6.21-3.797 13.377-5.358 20.368-7.061l.958 3.548M323.43 140.533c6.46-2.555 13.095-4.577 19.908-5.961l.994 3.548c-6.814 1.384-13.45 3.407-19.943 5.962l-.958-3.549M342.06 121.052c-6.6 1.561-13.2 3.087-19.836 4.613l-.958-3.549c6.6-1.525 13.2-3.051 19.8-4.613l.995 3.549M355.066 294.06c-5.855 5.642-11.71 11.284-17.6 16.962l-2.591-2.626 17.6-16.962 2.59 2.626M341.617 281.516c-6.139 3.3-11.923 7.097-17.281 11.532l-2.626-2.59c5.642-4.649 11.639-8.694 18.062-12.1l1.845 3.158M332 264.944c-6.99 4.542-13.98 9.084-21.007 13.626l-1.845-3.193c6.99-4.507 14.017-9.049 21.007-13.591l1.845 3.158M320.13 244.895a460.341 460.341 0 00-19.445 13.84l-1.845-3.194c6.351-4.755 12.845-9.404 19.445-13.84l1.846 3.194M308.793 227.72a240.993 240.993 0 01-18.913 12.704l-1.881-3.194a241.612 241.612 0 0018.949-12.703l1.845 3.193M301.004 208.47c-7.523 3.016-14.513 6.92-21.078 11.639l-1.88-3.159c6.848-4.932 14.158-8.906 21.965-12.029l.993 3.549M270.026 198.108c6.564-3.69 13.342-6.92 20.297-9.83l.958 3.549a187.75 187.75 0 00-19.375 9.44l-1.88-3.16M284.858 175.557a149.42 149.42 0 00-19.836 10.54l-1.88-3.195c6.351-4.01 12.952-7.522 19.836-10.503l1.88 3.158M279.766 160.245c-7.558 1.668-16.607 4.933-22.213 10.504l-2.626-2.59c6.068-6.033 15.72-9.688 23.881-11.462l.958 3.548M323.626 345.034c-3.939 5.43-7.878 10.823-11.817 16.252l-3.158-1.88c3.94-5.394 7.878-10.823 11.817-16.217l3.158 1.845M296.09 348.99a123.901 123.901 0 0110.893-13.093l2.59 2.59a117.884 117.884 0 00-10.29 12.349l-3.193-1.845M297.083 326.546a145.39 145.39 0 00-11.958 14.052l-3.159-1.845a141.972 141.972 0 0112.491-14.797l2.626 2.59M268.038 327.558a182.09 182.09 0 0113.733-15.365l2.626 2.626a176.517 176.517 0 00-13.768 15.365l-2.59-2.626M253.862 315.085a175.42 175.42 0 0115.472-16.998l2.626 2.59c-5.536 5.359-10.717 11.001-15.507 16.998l-2.59-2.59M261.279 284.727a215.736 215.736 0 00-16.324 17.85l-2.59-2.591a215.853 215.853 0 0116.288-17.85l2.626 2.591M249.941 270.569c-5.43 4.861-10.681 9.9-15.826 15.116l-2.59-2.626c5.11-5.216 10.396-10.22 15.826-15.08l2.59 2.59M240.36 254.92c-6.636 4.897-12.881 10.255-18.807 15.968l-2.626-2.59c6.174-5.962 12.704-11.462 19.588-16.572l1.845 3.194M203.278 256.162a196.406 196.406 0 0119.091-18.95l2.59 2.59c-6.777 5.891-13.164 12.208-19.09 18.985l-2.59-2.625M190.45 237.71a119.11 119.11 0 0118.878-17.495l1.846 3.158a116.812 116.812 0 00-18.098 16.927l-2.626-2.59M292.097 416.554c2.875-5.358 6.246-10.361 10.007-15.152l2.59 2.59c-3.548 4.543-6.67 9.369-9.438 14.408l-3.159-1.846M276.236 410.362a67.81 67.81 0 0110.68-16.074l2.591 2.59c-4.116 4.648-7.416 9.723-10.078 15.33l-3.193-1.846M277.016 387.723l-11.71 19.588-3.194-1.846 11.71-19.587 3.194 1.845M249.462 394.713c3.087-5.677 6.742-10.93 11-15.862l2.59 2.626c-4.044 4.649-7.451 9.688-10.396 15.117l-3.194-1.88M235.48 386.268c3.266-7.381 7.204-14.407 11.746-21.114l3.194 1.88c-4.577 6.672-8.48 13.698-11.78 21.08l-3.16-1.846M234.416 361.215c-4.613 4.542-8.197 9.759-10.823 15.685l-3.158-1.845c2.733-6.21 6.53-11.71 11.39-16.43l2.591 2.59M221.393 347.004c-4.684 5.287-7.948 11.39-11.355 17.494l-3.194-1.845c3.584-6.388 7.062-12.74 11.923-18.24l2.626 2.59M192.384 349.913c4.045-6.955 8.871-13.413 14.23-19.41l2.626 2.59c-5.181 5.784-9.794 11.959-13.698 18.701l-3.158-1.88M195.79 319.112c-5.11 6.352-9.793 12.74-13.377 20.05l-3.194-1.846c3.762-7.594 8.694-14.23 13.946-20.794l2.626 2.59M183.761 308.91c-4.258 5.607-8.445 11.178-11.532 17.53l-3.159-1.845c3.052-6.388 7.275-11.923 11.533-17.53l3.158 1.845M170.685 297.715a221.622 221.622 0 00-11.959 17.742l-3.193-1.88a221.42 221.42 0 0111.994-17.708l3.158 1.846M288.673 464.867c-1.845 6.459-3.158 12.917-3.477 19.66h-3.69c.318-7.062 1.702-13.84 3.619-20.618l3.548.958M273.805 460.769c-2.342 6.139-3.975 12.49-4.79 19.02h-3.691c.887-6.884 2.484-13.52 4.932-20.014l3.549.994M249.728 476.17c.887-7.452 2.555-14.62 5.075-21.646l3.548.958c-2.413 6.706-4.08 13.59-4.932 20.688h-3.69M240.573 450.709a116.73 116.73 0 00-5.003 21.362l-3.549-.958a115.381 115.381 0 015.003-21.362l3.549.958M223.682 443.559a154.632 154.632 0 00-6.707 22.39l-3.548-.957a153.759 153.759 0 016.707-22.427l3.548.994M210.038 438.821c-2.52 7.523-4.507 15.188-6.032 22.995l-3.549-.994a190.365 190.365 0 015.997-22.994l3.584.993M192.1 432.63c-3.3 7.274-5.145 14.938-5.535 22.923h-3.655c.39-8.659 2.413-16.891 5.997-24.769l3.193 1.845M176.77 426.1c-2.696 7.097-4.683 14.336-6.032 21.823l-3.548-.958a119.472 119.472 0 016.032-21.859l3.549.994M159.117 418.4c-3.158 6.422-5.252 13.2-6.104 20.333h-3.655c.923-7.807 3.088-15.152 6.6-22.179l3.159 1.846M143.734 408.712c-3.158 7.026-5.287 14.336-6.494 21.966l-3.548-.994c1.277-7.949 3.584-15.507 6.884-22.817l3.158 1.845M128.813 400.462a208.39 208.39 0 00-3.265 15.4l-3.549-.993a203.69 203.69 0 013.265-15.365l3.549.958M278.238 520.242a102.149 102.149 0 00.213 23.278h-3.69a102.149 102.149 0 01-.213-23.278h3.69M261.936 520.011c-.035 7.95.39 15.862 1.207 23.74h-3.69c-.817-7.878-1.243-15.79-1.207-23.74h3.69M240.928 539.28c0-6.423.106-12.846.355-19.233h3.69a495.385 495.385 0 00-.355 19.233h-3.69M225.728 538.464c-.674-7.381-.638-14.691.178-22.037h3.69a106.358 106.358 0 00-.177 22.037h-3.69M211.06 512.329c-.32 8.623.212 17.175 1.028 25.798h-3.69c-.78-8.623-1.349-17.175-1.03-25.798h3.691M195.738 511.495a80.487 80.487 0 00.887 22.036l-3.548.994c-1.384-7.665-1.739-15.294-1.03-23.03h3.691M179.95 509.029c-.355 7.558.035 15.01 1.17 22.533l-3.583.993c-1.136-7.842-1.632-15.613-1.278-23.526h3.69M162.111 506.988a119.375 119.375 0 001.313 22.214l-3.549.958a123.266 123.266 0 01-1.454-23.172h3.69M146.378 503.901c.142 6.565.674 13.059 1.667 19.517l-3.548.958c-1.03-6.778-1.668-13.59-1.81-20.475h3.69M280.44 578.686c.32 5.713 2.023 11 4.081 16.288l-3.548.993c-2.2-5.606-3.904-11.248-4.187-17.28h3.655M264.632 576.646c1.064 6.884 2.697 13.661 4.542 20.404l-3.548.958c-1.846-6.707-3.478-13.485-4.543-20.404l3.549-.958M249.143 579.804a150.8 150.8 0 004.47 18.488l-3.548.993a152.384 152.384 0 01-4.47-18.488l3.548-.993M232.323 599.072c-2.342-6.174-3.797-12.49-4.471-19.055h3.655c.674 6.245 2.164 12.207 4.364 18.062l-3.548.993M213.977 580.159c.07 6.032 1.632 12.242 3.974 17.778l-3.548.993c-2.484-5.855-4.046-12.384-4.117-18.771h3.69M196.004 580.23a54.145 54.145 0 004.435 16.784l-3.193 1.845a61.305 61.305 0 01-4.933-18.63h3.69M180.55 582.235c.532 5.961 1.916 11.71 4.258 17.21l-3.158 1.845c-2.626-6.139-4.223-12.42-4.755-19.055h3.655M312.856 630.193a151 151 0 01-9.332-12.917l3.193-1.845a145.748 145.748 0 008.73 12.136l-2.59 2.626M290.714 618.98c2.874 4.896 6.174 9.474 9.687 13.945l-2.59 2.59c-3.726-4.683-7.275-9.51-10.291-14.69l3.194-1.846M273.734 624.764c2.52 3.903 5.252 7.629 8.161 11.248l-2.625 2.59a151.482 151.482 0 01-8.73-11.958l3.194-1.88M257.357 627.94a69.486 69.486 0 009.262 9.297l-2.59 2.625c-3.407-2.838-6.494-5.926-9.262-9.332l2.59-2.59M347.064 648.45c-5.287-2.023-9.936-4.862-14.052-8.765l2.626-2.59c3.655 3.442 7.735 6.032 12.42 7.806l-.994 3.549M329.499 647.101a40.228 40.228 0 0010.61 5.5l-.958 3.585c-4.152-1.42-7.949-3.336-11.497-5.89l1.845-3.195" fill="#483241"/>
    <path d="M461.135 610.613c6.62-17.184 38.635-21.34 44.627-11.127 6.34 10.88-3.797 53.91.558 61.094 4.355 7.183 12.925 6.127 13.76 12.711 1.116 8.627-7.664 9.402-9.65 9.402-8.047-.035-16.199.247-23.968-1.725-7.803-1.972-15.398-6.62-18.777-13.98-1.463-3.24-10.068-47.326-6.55-56.375M517.917 414.502c32.534 4.93 54.592 31.04 59.724 68.677 2.351 17.152-16.606 19.582-21.595 9.409-11.154-22.707-22.628-25.415-44.508-29.373-21.844-3.924-15.465-52.046 6.379-48.713" fill="#B58865"/>
    <path d="M555.196 182.499c-3.856-7.485-15.248-10.506-22.75-12.123l4.382 7.133c-17.282-2.213-29.025 2.495-37.823 2.636l4.943 3.654c-25.344 6.606-30.918 10.506-42.696 19.502l8.343 2.354c-26.991 9.874-35.614 18.94-48.199 29.305 3.506.351 7.046.738 10.551 1.09-17.28 8.714-29.585 23.542-34.562 30.077 3.33.738 7.396 1.02 9.64.036-15.354 9.346-30.637 20.028-36.982 30.078l8.553.28c-21.418 11.913-31.373 27.409-31.689 29.2l9.5.247c-12.654 10.611-18.123 20.731-25.239 30.675l7.677-.808c-11.532 13.423-16.545 29.762-24.958 45.644l9.464-1.405c-8.658 10.4-11.041 16.971-19.735 27.372l8.904-1.089c-8.203 10.436-13.53 27.689-17.632 37.598 3.295.456 6.73-.176 9.64-1.757-7.432 12.685-12.374 23.823-15.003 38.3l5.749-1.405c-5.329 9.557-5.364 23.085-5.644 34.013l7.326-2.494c-8.097 17.885-4.066 27.302-6.555 41.814 3.82-2.073 5.293-2.425 7.116-6.395.14 11.806 4.452 21.785 7.396 33.205 1.473-2.635 3.54-5.06 3.33-9.065 3.506 11.806 10.13 15.847 15.214 23.753l.596-8.117c7.29 11.28 19.63 24 21.663 24.034l-.877-8.854c5.434 7.027 16.51 17.463 24.678 20.907l-.841-8.152c8.763 6.606 19.455 6.922 24.783 8.89l-2.209-8.047c14.267 6.852 19.14 4.955 31.794 8.187l-4.136-8.644c8.237 3.866 21.768 5.939 29.304 7.59l-4.977-6.887c9.219 2.073 20.997.668 28.603 1.511-1.963-2.881-4.977-5.06-8.973-6.536 5.749-1.405 16.72-5.657 16.72-5.657 61.765-27.267 67.549-108.155 64.814-138.338-5.643-62.195 3.61-124.951 8.904-132.014 27.272-8.925 91.525-43.923 106.598-105.555-47.463 14.653-84.584-11.876-104.705-65.743" fill="#C09570"/>
    <path d="M543.725 485.413c-5.119-56.453 2.068-113.256 7.398-128.324l.105-.35s-22.158-27.965-76.08-3.015c-17.67 8.165-31.8 22.392-43.089 38.232-25.488 35.673-41.16 78.95-40.494 122.752.245 15.7 2.63 31.679 9.782 45.66 5.82 11.32 14.585 20.99 24.752 28.7 20.79 15.769 68.297 20.395 92.453 1.086 24.577-35.252 27.136-83.085 25.173-104.74" fill="#D2AD7E"/>
    <path d="M405.363 404.19c19.52 5.859 52.263 30.637 56.635 61.132 2.379 16.801-3.568 27.672-15.567 23.543-3.918-1.342-8.57-8.718-10.25-12.566-6.786-15.495-24.696-21.742-50.023-25.236-19.66-2.718-9.375-55.45 19.205-46.873" fill="#B58865"/>
    <path d="M664.974 248.14c-1.49-6.954-7.772-8.374-12.775-6.919-8.34 2.413-10.646 9.013-10.823 10.752-.497 5.678 3.442 10.397 10.433 12.03 6.99 1.596 14.655-8.907 13.165-15.862M565.553 253.82c-3.3-5.5-8.197-6.849-11.213-6.316l-4.968 4.506-.142 6.99 4.045 6.495 6.742.851c8.623-1.951 6.565-10.823 5.536-12.526M623.688 308.436c-9.864 1.384-18.594-4.435-20.723-14.23l4.365-.39c1.632 7.488 8.694 11.25 15.933 10.22l.425 4.4" fill="#17111C"/>
    <path d="M580.044 284.95c-4.968-7.877-20.653-6.103-23.81-5.038-6.46 2.164-10.611 9.652-9.05 16.287 1.846 7.736 9.794 13.733 17.707 13.981 17.069.533 20.156-17.352 15.153-25.23" fill="#C47A6A"/>
    <path d="M437.06 624.835c-.913 13.083-7.194 35.55-3.37 46.536 2.843 8.248 11.475 7.146 12.984 12.478 1.509 5.333-2.421 11.625-10.948 11.98-9.369.392-30.247 1.423-39.405-14.682-1.439-2.595-9.65-45.433-9.194-59.227.983-27.054 51.932-24.637 49.932 2.915" fill="#B58865"/>
    <path d="M422.065 168.33c11.448 1.785 25.767 12.816 31.579 22.99 0 0-16.63 5.64-28.638 25.63-6.477-1.606-22.546-13.565-24.436-28.665-1.82-14.636 12.953-21.311 21.495-19.955" fill="#CBA077"/>
    <path d="M419.59 179.092c8.765-2.484 19.269 5.252 25.443 14.833-4.116 2.66-9.155 6.706-14.123 12.561-5.82-2.697-11.036-6.777-14.868-11.923l-2.023-3.442c-1.774-4.613.852-10.68 5.571-12.03" fill="#B58865"/>
    <path d="M448.517 75.817l-4.803-3.025c-3.284 4.626-6.78 8.753-9.57 11.458-6.429 6.262-14.657 13.984-22.639 20.21 4.768 9.003 11.866 16.796 20.484 22.169 6.78 4.234 25.605 12.312 41.073-2.455 9.395-8.932 11.726-17.97 7.134-25.229-3.39-5.373-9.182-8.682-14.515-12.098-5.721-3.665-11.442-7.365-17.164-11.03" fill="#E6CCC2"/>
    <path d="M402.592 24.073c-14.92.639-28.375 12.345-36.88 24.795-3.8 5.534-7.46 11.387-8.923 17.95-2.266 10.145.976 20.893 6.588 29.584 5.577 8.69 14.361 17.949 24.783 18.516 10.423.568 31.233-18.623 44.34-31.535 7.947-7.84 22.064-27.03 18.3-37.99-3.8-10.926-21.229-22.42-48.208-21.32" fill="#A86647"/>
    <path d="M192.748 28.436l-.998.034-.756.94c-2.167 4.73-4.403 9.53-5.263 14.713-1.41 8.279.791 16.731 3.096 24.836 1.41 5.078 2.958 10.33 6.26 14.435 5.538 6.922 14.963 9.427 23.769 9.357l5.331-12.661c1.96-6.853 3.509-13.914 3.2-21.045-.276-7.095-2.546-14.33-7.362-19.513-6.845-7.34-17.44-9.392-27.277-11.096" fill="#4C645D"/>
    <path fill="#161724" d="M249.604 111.766l-2.988-2.615c-6.01-1.135-11.917-2.476-17.858-4.506-7.088-8.05-12.751-17.372-16.469-27.417l-2.606 1.995.243 1.066c3.232 7.775 7.262 15.205 11.952 22.223l-7.643-1.995.417 2.374-.278 1.066-.522 1.858-.903 2.683-1.32 1.307c10.527 1.617 21.194 3.2 31.721 5.126 3.579-1.961 6.254-3.165 6.254-3.165"/>
    <path fill="#A17565" d="M215.254 101.251l-2.448 2.733-.249 6.884 1.384-1.384.923-2.768.532-1.916.284-1.1-.426-2.449"/>
    <path d="M256.442 47.072c-8.18 1.267-16.678 4.118-21.848 10.56-5.312 6.617-6.161 15.875-4.639 24.217 2.266 12.461 9.56 23.937 19.865 31.4 0 0-17.74 8.06-24.256 16.367-4.921 6.266-6.196 15.242-3.151 22.634 4.355 10.455 15.686 16.192 26.522 19.607 15.757 4.998 32.824 7.005 48.936 3.168 11.508-2.746 22.626-10.103 25.778-21.472 1.027-3.661-2.054-11.933-10.056-18.129a72.105 72.105 0 0020.643-10.278l7.755-7.603c5.489-8.624 2.585-20.03-2.195-29.04-15.545-29.111-50.6-46.57-83.354-41.431" fill="#CD4C55"/>
    <path d="M154.002 219.168c-7.256 21.662-29.62 38.347-22.925 61.551 2.98 10.41 35.65 16.545 47.884 6.59 3.786-3.085 6.415-7.256 8.693-11.567 7.923-15.037 11.638-32.248 10.832-49.248-12.69-.385-29.305-3.26-44.484-7.326" fill="#E6CCC2"/>
    <path d="M232.755 181.153c-4.326-9.155-11.993-16.45-20.574-21.887-8.758-5.577-19.028-9.47-29.403-8.768-7.948.526-19.906 3.051-29.824 6.839-21.56 8.278-42.697 29.954-40.727 41.283 1.934 11.329 55.076 26.376 85.077 27.147 8.054.21 16.46-.035 23.704-3.612 5.065-2.56 9.32-6.664 11.958-11.68 4.783-8.944 4.15-20.133-.21-29.322" fill="#8F4E3C"/>
    <path d="M50 502.754c.035 11.486 2.52 24.869 9.938 33.334 7.419 8.465 25.86 9.87 32.718 8.78 21.766-3.371 38.982-20.09 52.734-31.225 13.752-11.1 23.13-41.517-4.759-64.243-27.854-22.726-38.142-16.79-58.368-1.967-20.19 14.858-32.333 43.52-32.263 55.321" fill="#AB7F41"/>
    <path d="M76.614 446.204c2.986 3.788 8.78 8.098 16.104 13.034-4.657 6.464-9.812 16.996-8.816 25.06 6.008 1.807 19.73 1.529 29.365.312-2.276 8.446-1.28 22.8 2.24 25.303 4.017-1.008 16.85-6.117 21.045-9.767 3.946 1.843 1.92 19.325 6.862 20.646 29.222-20.715 20.512-52.1 8.354-68.367 9.172-10.74 9.385-17.482 9.42-18.56l-5.865-6.221c-3.306 7.924-7.928 13.416-12.052 17.343-14.611-9.35-45.398-20.784-66.657 1.217" fill="#4C645D"/>
    <path d="M82.75 450.816c18.925-7.9 36.564-10.217 56.253-4.74-16.25 1.088-32.606 4.705-47.502 11.41l1.563 1.124-.382.562c15.104-6.776 31.84-10.287 48.23-11.2.625-.035-38.89 19.697-56.53 34.022l.07 1.932.625.14c17.05-14.044 37.78-23.279 56.981-34.023-8.854 12.57-21.112 22.507-30.8 34.41l1.876-.211-.278 1.404c9.445-11.657 21.39-21.418 30.21-33.566-3.473 12.289-9.897 23.98-15.904 35.04-3.924 7.269-7.848 14.923-12.466 21.91l.625.772 1.598-.491c4.965-7.584 9.201-15.906 13.403-23.77 5.798-10.85 12.014-22.401 15.174-34.515.243 6.988-2.674 16.152-3.785 22.015-1.771 9.34-3.646 19.487-7.674 28.3l1.84-1.405.66.773c3.89-9.2 5.73-19.592 7.466-29.178.972-5.266 3.264-12.815 3.437-19.17 9.931 22.085 2.709 45.89-6.111 67.448l1.25.983.764-.632c9.514-23.384 16.875-49.12 3.958-72.715l-1.11-1.088-2.431-1.054c-22.327-7.373-41.599-4.95-62.71 4.038l1.7 1.475" fill="#354945"/>
    <path d="M141.364 604.948c-11.812-9.164-12.054-26.105-2.563-37.009 22.585-25.891 57.05 24.862 23.866 41.342l-1.94-1.385c-5.957 2.734-12.747 2.13-19.363-2.948" fill="#BB414D"/>
    <path d="M153.119 554.4l-3.868 4.507-5.749-5.642-.461 8.48-5.749-1.81c-1.88.994 3.904 3.656 6.884 7.062 1.704 1.952 8.162 1.597 8.02-2.2-.355-5.18 3.016-10.432.923-10.397" fill="#293647"/>
    <path d="M235.982 235.933c8.554-12.688 25.767-13.38 35.794-2.386 10.026 11.063 9.57 33.432-7.152 37.165l-.876-.242c-4.347 2.144-9.886 2.593-15.74.865-15.601-4.46-20.51-22.749-12.026-35.402" fill="#C35264"/>
    <path d="M257.469 218l3.407 5.43 5.855-2.733.319 6.814 6.352-1.136c1.88 1.348-4.755 3.3-8.375 6.494-2.2 1.845-9.048.39-8.268-3.584 1.136-5.465-1.561-11.675.71-11.284M164.956 425.098c-2.206-3.404-7.239-10.663-10.41-16.047l-.552.07c-12.789-5.106-24.854-11.393-33.024-22.89l2.896-2.57c7.032 9.83 16.857 15.526 27.577 20.041-8.066-14.344-14.892-29.488-19.683-46.334l3.723-.695c7.308 25.286 30.507 64.223 33.368 68.043 2.827 3.89-1.62 3.786-3.895.382" fill="#293647"/>
    <path d="M112.382 394.107c-11.615 1.948-21.36-6.94-22.383-18.273-2.26-27.022 45.33-19.832 36.54 8.216l-1.907.39c-1.659 4.957-5.719 8.57-12.25 9.667" fill="#BB414D"/>
    <path d="M103.867 339.015c-3.513-15.703 7.921-29.3 23.006-28.908 15.154.393 31.479 16.988 22.662 32.441l-.758.5c-1.377 4.889-4.89 9.35-10.229 12.669-14.12 8.494-31.203-1.07-34.681-16.702" fill="#C35264"/>
    <path d="M166.435 359.314c4.648-10.332 19.41-16.95 26.968-5.484 6.99 10.898-3.832 24.946-9.58 33.686-14.479 21.762-1.065 34.713-4.046 35.669-2.874.99-28.708-29.653-13.342-63.87M105.308 308.253l6.458 1.242 2.058-6.246 5.323 4.507 3.69-5.5c2.272-.497-.922 5.82-1.1 10.787-.177 2.946-6.103 7.062-8.516 3.62-3.265-4.649-9.758-6.99-7.913-8.41M92.352 359.23l.46 4.684-6.28.177 4.578 4.826-4.152 2.271c-.462 1.632 4.187-.248 7.7-.07l3.087-5.785-5.393-6.103" fill="#293647"/>
  </g>
</svg>
