<svg viewBox="0 0 720 720" xmlns="http://www.w3.org/2000/svg">
  <g fill="none" fill-rule="evenodd">
    <path d="M581.151 334.209c-2.983-3.43-8.072 1.575-13.312 3.76 3.009-2.083 12.585-8.663 11.206-14.963-1.353-6.3-10.93.05-14.214 2.108 2.557-2.642 9.401-13.235 6.618-17.63-4.236-6.732-9.626.889-15.442 5.614 2.23-2.744 5.766-11.559 2.356-15.877-3.384-4.32-12.41 7.875-14.44 10.415-28.178 35.337-59.815 46.54-83.255 52.282a481.198 481.198 0 0111.006 41.485c41.765-4.573 69.968-23.956 96.792-47.303 5.59-4.852 15.668-16.436 12.685-19.891" fill="#E9AE5A"/>
    <path d="M426.527 278.828c-9.59 3.94-19.813 6.719-29.808 8.639-23.497 4.52-89.6 10.962-125.692-15.004-2.852-2.046-5.502-4.218-8-6.416 5.754 91.865-60.197 209.317-12.873 287.037 23.145 38.014 103.179 43.596 139.75 37.08 36.547-6.518 72.59-29.124 84.376-64.36 4.19-12.578 5.124-25.99 5.427-39.226 1.514-69.485-21.48-145.109-53.18-207.75" fill="#E9AE5A"/>
    <path d="M410.211 363.215c-24.315-.654-46.934 9.4-69.048 37.6-38.306 48.862-50.122 155.205 41.9 165.711 28.691 3.293 64.898-10.23 77.675-35.967 26.794-54.064 3.061-165.937-50.527-167.344" fill="#EFCF5E"/>
    <path d="M432.94 500.81c8.153-.229 8.815 10.421.892 11.338-7.695.918-8.154-11.134-.892-11.338M305.856 656.276c-4.024-13.975 1.635-44.685 5.358-68.737-25.532-5.646-48.95-16.38-59.792-34.306-5.409-8.912-9.308-18.153-12.1-27.622 3.824 35.622 10.917 92.891 13.936 123.425 1.459 14.608 3.823 30.913 15.395 39.824 5.332 4.102 23.142 7.115 38.889 7.14 21.658 0 24.978-8.937 15.847-12.532 11.144-1.114 10.565-8.355 1.207-11.495 9.786-1.443 7.144-11.95-18.74-15.697" fill="#E9AE5A"/>
    <path d="M551.299 200.856c-1.738-9.7-11.362-16.394-21.087-17.834 12.572-6.189 22.195-16.09 19.676-26.876-2.52-10.812-18.013-15.005-30.61-13.085 5.82-4.092 11.79-16.672 8.087-22.76-3.703-6.087-16.426-4.95-22.925-2.07 5.744-4.724 17.458-25.084 9.674-33.167-7.76-8.083-23.33 0-33.734 6.214 3.527-5.658 6.676-30.185-3.401-35.364-10.102-5.203-24.79 7.78-32.424 16.647 8.793-40.694-27.56-38.42-35.472-18.996 2.293-29.857-21.64-39.052-35.975-5.355-5.845-11.19-13.378-22.658-22.548-22.203-9.196.454-15.696 11.821-19.6 25.007-9.423-48.474-36.128-21.446-38.42 1.768-10.884-28.821-35.875-32.636-45.474 7.73-30.962-37.284-40.56-.278-33.733 16.04-23.103-15.156-48.573-6.947-23.858 23.77-9.7-1.845-21.49-3.032-27.763 4.622-4.283 5.178-4.208 12.908-1.613 19.096 2.595 6.189 7.332 11.216 11.967 16.065-11.69-1.49-18.97-2.677-24.69 4.8-5.718 7.502 2.52 21.016 12.068 29.73-9.145 3.461-20.028 8.816-20.431 19.426-.429 10.482 10.052 16.368 25.142 22.96-8.087 4.8-17.408 12.58-14.561 21.548 3.426 10.735 14.108 13.438 28.518 15.635-6.449 7.881-12.017 24.225-6.02 30.565 7.532 7.982 20.103 5.86 27.964 3.385-.605 6.946-6.651 29.427 3.854 34.833 10.531 5.38 28.065-3.789 37.337-9.826-2.696 6.669-5.92 21.572 2.872 26.624 9.094 5.203 22.22-.43 31.642-14.55.428 7.452 5.24 22.103 15.696 23.77 6.373 1.035 15.922-6.29 23.076-21.8 6.248 20.133 19.248 26.12 29.3 26.043 10.027-.025 22.372-6.112 29.728-22.708 3.527 9.043 12.697 22.86 23.858 23.09 11.186.25 14.033-15.36 17.408-23.848 1.688 8.336 11.01 16.596 19.45 15.863 8.464-.707 14.889-10.331 15.14-18.844 5.19 6.82 16.98 17.076 27.184 14.651 10.178-2.4 12.143-18.06 10.229-28.72 37.084 26.623 34.993-6.139 22.245-24.073 30.333 10.811 36.203-10.61 16.98-31.398 38.067 6.087 21.742-30.034 8.062-38.749 3.628-.1 18.92-7.931 17.182-17.656" fill="#AC6450"/>
    <path d="M479.959 121.618c-4.966-7.355-15.149-9.475-23.971-8.004-25.106 4.214-25.635 22.766-28.76 32.64 4.184 2.095 8.267 4.513 12.174 7.331 4.16 3.017 8.04 6.608 11.595 10.548 15.401-5.361 24.652-12.892 28.307-19.15 4.184-7.107 5.268-16.532.655-23.365" fill="#E5905A"/>
    <path d="M439.753 154.003l4.688 3.76c3.15-1.918 6.276-3.887 9.196-6.138 5.686-4.4 10.656-10.333 11.808-17.392l-.281-3.99-4.099-2.736-5.02.998c-4.509 2.097-7.736 6.138-10.656 10.179-2.946 4.066-5.738 8.235-8.197 12.583l-.41.742 2.971 1.994" fill="#AC6450"/>
    <path d="M269.578 150.92c-4.836-6.645-8.362-34.152-35.843-29.187-6.07 1.078-11.889 4.915-14.03 10.682-2.267 6.118-.756 14.668 2.468 20.36 5.567 9.83 14.988 16.148 25.265 20.912 5.843-8.851 13.425-16.599 22.14-22.767" fill="#E5905A"/>
    <path d="M255.191 164.133a82.155 82.155 0 018.018-7.982c-8.45-3.674-17.811-26.757-28.747-16.47l-1.395 2.306c-1.827 13.835 18.775 20.98 22.124 22.146" fill="#AC6450"/>
    <path d="M439.369 152.906c-28.348-20.739-64.238-20.941-99.345-20.536-15.208.177-30.593 1.062-45.095 5.64-26.557 8.345-49.08 29.944-56.62 56.802-7.542 26.859 4.766 56.6 33.77 77.516 36.066 25.999 102.12 19.55 125.6 15.023 25.977-5.008 53.468-15.63 67.667-38.012 18.84-29.691 2.396-75.67-25.977-96.433" fill="#E9AE5A"/>
    <path d="M332.566 207.98c1.04-.356 13.033-7.033 43.59-.815 3.397.688 7.277 1.3 9.204 4.205l.406.84c.634-11.518-3.88-27.877-11.437-48.06-3.6-9.58-8.799-17.964-17.902-22.551-3.6-1.835-11.36-1.962-14.454.611-11.537 9.607-19.17 50.838-15.899 72.88.406-3.848 3.779-6.141 6.492-7.11" fill="#F6D153"/>
    <path d="M386.372 212.347c-1.93-2.892-5.818-3.5-9.222-4.185-30.612-6.19-42.628.456-43.67.811-3.2 1.142-7.342 4.059-6.452 9.234 1.956 11.06 26.217 19.177 26.217 19.177 10.746-1.649 26.217-10.832 29.799-13.47 3.582-2.613 5.792-7.889 3.328-11.567" fill="#17111C"/>
    <path d="M375.141 256.316c-6.666 8.684-19.474 6.74-20.847-5.024-.025-.328.35-11.057.374-15.248l-1.897.454-1.898-.707-.05.228c-.074 7.674 1.424 20.776-6.815 25.194-4.52 2.399-10.162-.05-11.71-4.922-.749-2.373-4.469-1.364-3.695 1.035 2.072 6.563 9.188 10.4 15.704 8.002 4.02-1.49 6.442-4.443 7.94-8.028 4.893 9.72 17.95 11.74 25.616 1.768l-2.722-2.752M294.105 187.08c-2.344-1.912-5.937-2.37-8.434-.663l-2.7 4.994c-.026 1.936-.255 15.542 6.675 15.185 6.93-.382 7.924-8.433 7.95-11.44 0-3.032-1.147-6.166-3.491-8.077M429.863 188.377c-.917-1.809-3.159-3.389-5.707-3.312-2.65.076-4.84 1.707-5.936 3.592-2.854 4.994-1.402 15.11 4.255 18.243l6.038-1.121c4.637-4.433 2.268-15.593 1.35-17.402" fill="#17111C"/>
    <path d="M422.76 294.265c3.567 6.268 6.14 13.708 8.23 20.613.713 2.42 4.535 1.375 3.796-1.045-2.191-7.21-4.892-14.981-8.638-21.555l-3.388 1.987M445.317 308.215c1.656 3.337 3.338 6.675 5.02 10.013l3.388-1.988a1835.965 1835.965 0 00-5.019-10.013l-3.389 1.988M422.527 320.317c2.114 4.764 3.872 9.707 6.013 14.472 1.019 2.293 4.407.306 3.388-1.987-2.114-4.765-3.872-9.708-6.013-14.472-1.019-2.293-4.407-.306-3.388 1.987M402.653 297.414c1.453 3.109 2.905 6.217 4.332 9.325 1.07 2.293 4.484.28 3.414-1.987a1525.02 1525.02 0 01-4.332-9.325c-1.07-2.293-4.484-.306-3.414 1.987M397.122 316.19c1.987 7.212 3.49 14.547 5.452 21.758.637 2.37 4.46 1.358 3.797-1.013-1.988-7.211-3.465-14.546-5.453-21.757-.637-2.371-4.433-1.383-3.796 1.012M388.283 335.26c.23 2.7.484 5.402.714 8.077.204 2.497 4.153 2.522 3.923 0-.229-2.675-.458-5.376-.687-8.077-.23-2.497-4.179-2.522-3.95 0M377.802 300.169c1.63 6.013 2.522 12.077 2.65 18.294.05 2.522 3.974 2.522 3.923 0a78.595 78.595 0 00-2.777-19.339c-.662-2.446-4.484-1.401-3.796 1.045M441.568 286.255c.867 2.446 2.064 4.56 3.695 6.574l2.777-2.777-2.675-4.841c-.816-2.395-4.637-1.35-3.797 1.044M462.707 318.587a49.826 49.826 0 017.924 14.191c.84 2.37 4.662 1.35 3.796-1.044-2.09-5.835-5.07-11.109-8.943-15.924l-2.777 2.777M458.222 285.093c3.695 4.943 7.364 9.91 11.058 14.854l3.389-1.988c-3.67-4.942-7.364-9.91-11.033-14.854l-3.414 1.988M462.426 267.156c3.236 3.185 6.243 6.522 9.02 10.115l3.388-1.988c-2.955-3.847-6.14-7.49-9.605-10.904l-2.803 2.777M480.16 292.825c1.987 2.039 3.796 4.179 5.375 6.548l3.415-1.987a51.76 51.76 0 00-6.013-7.338l-2.778 2.777M474.312 310.712l4.331 5.809 3.415-1.988a44.728 44.728 0 00-4.969-6.599l-2.777 2.778M489.637 281.64c4.612 3.899 8.816 8.23 12.536 13.02l2.777-2.777a86.718 86.718 0 00-12.535-13.045l-2.778 2.802M478.58 256.455a39.248 39.248 0 019.172 6.65l2.777-2.803c-2.955-2.88-6.268-5.325-9.962-7.236l-1.987 3.389M506.9 275.462c3.26 2.242 6.802 4.306 9.86 6.854l2.777-2.778c-3.313-2.777-7.109-5.019-10.65-7.465l-1.988 3.389M503.314 258.027a78.354 78.354 0 0112.485 6.88l1.987-3.415c-3.95-2.675-8.128-4.943-12.485-6.854-2.318-1.019-4.306 2.37-1.987 3.389M517.6 245.995c5.223 1.911 10.447 3.797 15.67 5.682 2.395.866 3.414-2.93 1.044-3.796-5.223-1.886-10.446-3.771-15.669-5.682-2.395-.866-3.414 2.956-1.045 3.796M487.74 237.893c3.923.841 7.77 1.937 11.694 2.778 2.471.535 3.516-3.262 1.045-3.797-3.924-.84-7.771-1.936-11.695-2.777-2.471-.535-3.516 3.261-1.045 3.796M491.421 222.772c7.109.255 14.192 1.096 21.3 1.3 2.523.076 2.523-3.848 0-3.924-7.108-.204-14.191-1.07-21.3-1.3-2.522-.101-2.522 3.848 0 3.924M481.735 206.476a60.898 60.898 0 0012.51-1.223c2.471-.51 1.427-4.306-1.07-3.797a53.737 53.737 0 01-11.44 1.07c-2.548-.025-2.548 3.924 0 3.95M522.446 231.88c3.312.332 6.522 1.07 9.681 2.115 2.421.815 3.44-2.98 1.045-3.796-3.49-1.172-7.057-1.886-10.726-2.268-2.523-.255-2.497 3.67 0 3.95M516.875 197.407c7.312-.331 14.573-1.095 21.81-2.217 2.496-.382 1.426-4.178-1.045-3.796a194.922 194.922 0 01-20.765 2.09c-2.497.101-2.523 4.05 0 3.923M528.662 178.728c2.777-1.019 5.58-2.063 8.357-3.108 2.37-.866 1.35-4.663-1.045-3.796-2.777 1.044-5.58 2.089-8.357 3.108-2.344.892-1.325 4.688 1.045 3.796M489.368 186.685c7.032-2.523 14.624-3.593 21.427-6.803l-1.987-3.389c-6.472 3.032-13.784 4-20.485 6.395-2.37.841-1.35 4.637 1.045 3.797M472.867 174.777a120.354 120.354 0 0013.045-5.274l-1.962-3.389c-3.975 1.86-8 3.465-12.128 4.867-2.395.79-1.376 4.611 1.045 3.796M512.714 165.054a42.962 42.962 0 0013.02-4.866l-1.988-3.389a40.1 40.1 0 01-12.077 4.459c-2.471.484-1.427 4.28 1.045 3.796M489.765 153.419a120.234 120.234 0 0017.045-10.217l-1.987-3.389a120.234 120.234 0 01-17.045 10.217l1.987 3.389M515.065 130.794l4.663-3.16-1.988-3.414-4.662 3.16 1.987 3.414M487.6 106.793a78.345 78.345 0 0015.083-13.198l-2.854-2.7a74.445 74.445 0 01-14.294 12.535l2.064 3.363M489.688 124.603c2.625-2.294 5.25-4.561 7.873-6.854l-2.216-3.261c-2.625 2.293-5.249 4.56-7.873 6.853l2.216 3.262M469.743 89.429c3.21-5.427 5.707-11.16 7.593-17.173.739-2.42-3.134-3.134-3.873-.739-1.784 5.682-4.23 11.083-7.262 16.205l3.542 1.707M453.052 105.92a44.688 44.688 0 005.835-14.88c.51-2.472-3.287-3.516-3.797-1.045-.968 4.994-2.777 9.605-5.427 13.937l3.39 1.987M451.562 82.452a105.16 105.16 0 005.758-12.256c.917-2.369-2.675-3.923-3.618-1.554a105.16 105.16 0 01-5.758 12.256l3.618 1.554M428.808 118.159c1.453-7.325 3.695-14.351 6.854-21.154 1.02-2.235-2.37-4.196-3.414-1.937-3.287 7.101-5.707 14.426-7.236 22.073-.459 2.408 3.338 3.45 3.796 1.018M435.537 79.292c.611-3.77 1.58-7.363 2.98-10.905.943-2.37-2.879-3.388-3.796-1.044-1.401 3.516-2.37 7.134-2.98 10.904-.383 2.472 3.413 3.542 3.796 1.045M412.71 133.529a30.623 30.623 0 011.044-8.332c.637-2.446-3.16-3.49-3.796-1.044a33.329 33.329 0 00-1.172 9.376c.025 2.548 3.974 2.548 3.923 0M396.808 79.397c-.051-2.854.28-5.58 1.019-8.332.662-2.446-3.134-3.516-3.797-1.044-.815 3.083-1.222 6.191-1.172 9.376.051 2.522 3.975 2.548 3.95 0M313.51 82.037a30.471 30.471 0 01-1.223-8.306c0-2.548-3.95-2.548-3.924 0 .026 3.185.459 6.293 1.35 9.35.714 2.421 4.51 1.402 3.797-1.044M414.854 100.107c-.51-8.331.56-16.404 3.21-24.296.815-2.458-2.981-3.493-3.796-1.06-2.778 8.227-3.873 16.662-3.338 25.356.153 2.562 4.076 2.562 3.924 0M426.362 58.967c.764-2.726 1.3-5.528 2.37-8.178.942-2.344-2.65-4-3.593-1.63-1.198 2.98-1.81 6.114-2.675 9.197-.688 2.42 3.21 3.032 3.898.611M401.6 49.218c.332-2.828.408-5.682 1.02-8.459.56-2.471-3.236-3.516-3.797-1.045-.688 3.134-.79 6.32-1.172 9.504-.28 2.522 3.67 2.497 3.95 0M341.902 55.205c-.204-2.828-.662-5.656-.586-8.51.077-2.522-3.847-2.828-3.924-.305-.101 3.21.408 6.37.663 9.554.178 2.522 4.051 1.758 3.847-.739M391.92 120.688a230.796 230.796 0 001.3-21.376c.05-2.523-3.9-2.548-3.925 0a249.96 249.96 0 01-1.299 21.376c-.255 2.523 3.669 2.497 3.924 0M373.41 128.458c-.204-4.892-.128-9.759.203-14.65.179-2.523-3.745-2.497-3.923 0a127.777 127.777 0 00-.204 14.65c.102 2.522 4.05 2.522 3.923 0M370.066 98.237c-.56-8.158-.33-16.24.688-24.349.306-2.493-3.618-2.946-3.923-.478-1.045 8.46-1.249 16.92-.663 25.431.179 2.493 4.077 1.889 3.898-.604M350.355 89.315c-1.121-5.886-1.605-11.797-1.605-17.785 0-4.866-3.848-5.376-3.924 0-.102 6.345.56 12.612 1.733 18.83.484 2.496 4.28 1.426 3.796-1.045M351.89 121.233c-.764-5.529-1.222-11.109-1.452-16.689-.102-2.522-4.05-2.547-3.949 0 .255 5.937.79 11.848 1.605 17.734.331 2.496 4.128 1.452 3.797-1.045M339.916 126.557c-1.376-4.79-2.42-9.656-3.058-14.6-.305-2.47-4.255-2.496-3.923 0 .662 5.3 1.707 10.498 3.184 15.645.714 2.446 4.51 1.401 3.797-1.045M328.268 99.237a84.604 84.604 0 01-2.038-14.09c-.153-2.523-4.077-2.523-3.924 0a91.396 91.396 0 002.166 15.134c.56 2.472 4.356 1.427 3.796-1.044M316.841 120.182c-1.58-6.09-3.16-12.179-4.739-18.243-.637-2.446-4.433-1.427-3.796 1.045 1.58 6.09 3.16 12.153 4.739 18.243.637 2.446 4.433 1.426 3.796-1.045M323.35 61.849a4670.51 4670.51 0 00-1.706-18.778c-.23-2.523-4.153-2.115-3.924.407.586 6.268 1.147 12.536 1.733 18.778.229 2.523 4.127 2.115 3.898-.407M384.858 62.25c.892-6.242 1.758-12.46 2.65-18.676.331-2.497-3.567-3.006-3.924-.484-.866 6.217-1.758 12.433-2.624 18.65-.357 2.523 3.541 3.007 3.898.51M359.43 55.617c-.205-6.267-.409-12.56-.612-18.828-.077-2.548-4.026-2.37-3.924.178.178 6.268.382 12.56.586 18.854.102 2.522 4.026 2.344 3.95-.204M284.598 93.722c-1.3-4.356-2.624-8.739-3.95-13.096-.738-2.42-4.535-1.401-3.796 1.045 1.325 4.357 2.625 8.74 3.95 13.096.738 2.42 4.535 1.401 3.796-1.045M294.42 73.807c-1.478-4.892-2.981-9.784-4.484-14.676-.74-2.42-4.536-1.375-3.797 1.045 1.504 4.892 3.007 9.784 4.485 14.676.738 2.42 4.535 1.401 3.796-1.045M292.435 127.945c-3.21-5.452-5.452-11.21-6.828-17.376-.56-2.471-4.357-1.427-3.796 1.045a62.086 62.086 0 007.236 18.319l3.388-1.988M267.412 60.003c-2.472-3.694-3.975-7.67-4.587-12.051-.356-2.497-4.153-1.453-3.796 1.044.663 4.688 2.344 9.045 4.968 12.994l3.415-1.987M307.6 50.673c-1.708-4.102-2.396-8.306-2.166-12.714.127-2.522-3.797-2.216-3.924.28-.255 4.74.56 9.351 2.37 13.708.968 2.344 4.687 1.07 3.72-1.274M263.234 99.595c-4.968-6.09-8.765-13.376-12.586-20.23l-3.39 1.987c3.976 7.185 8.001 14.65 13.199 21.046l2.777-2.803M229.665 64.075c-2.242-2.471-4.076-5.146-5.528-8.153-1.07-2.293-4.714-.79-3.618 1.503 1.554 3.313 3.541 6.345 6.013 9.045l3.133-2.395M242.71 97.302c-4.509-4.459-9.299-8.586-14.344-12.433l-1.987 3.388a136.07 136.07 0 0113.555 11.822l2.777-2.777M198.493 123.622c-4.892-4.077-10.013-7.771-15.364-11.16l-1.707 3.567c5.096 3.21 9.911 6.752 14.523 10.6l2.548-3.007M274.915 137.661a44.707 44.707 0 00-4.306-7.388l-3.388 1.987a46.434 46.434 0 014.28 7.389c1.07 2.293 4.484.305 3.414-1.988M218.353 121.749l-6.216-4.612-2.803 2.777a39.946 39.946 0 007.032 5.224l1.987-3.39M216.748 97.608c-4.204-3.287-8.382-6.574-12.586-9.86l-2.777 2.777c4.204 3.287 8.382 6.573 12.586 9.86l2.777-2.777M175.346 121.22c-3.031-.917-5.783-2.267-8.382-4.05l-1.987 3.388a32.606 32.606 0 009.3 4.459c2.445.713 3.49-3.083 1.07-3.797M210.368 149.338c-7.567-1.325-14.421-4.357-20.358-9.274l-2.777 2.777c6.446 5.325 13.835 8.866 22.09 10.293 2.472.433 3.542-3.338 1.045-3.796M173.742 151.77a150.973 150.973 0 01-14.013-4.357c-2.395-.892-3.77 2.802-1.376 3.694a141.356 141.356 0 0014.013 4.331c2.446.637 3.848-3.057 1.376-3.669M225.453 169.96c-3.083-1.096-6.191-2.039-9.35-2.778-2.472-.586-3.517 3.21-1.045 3.797a81.788 81.788 0 019.35 2.777c2.37.866 3.39-2.93 1.045-3.796M190.369 169.014c-6.727-.152-13.07-1.885-19.415-4.025-2.42-.79-3.44 3.006-1.045 3.796 6.65 2.242 13.402 4.026 20.46 4.153 2.522.051 2.522-3.873 0-3.924M230.7 198.026c-4.688-.866-9.376-1.401-14.115-1.554-2.548-.076-2.522 3.847 0 3.924a86.9 86.9 0 0113.07 1.427c2.472.458 3.517-3.338 1.046-3.797M170.423 195.008c-7.185-.28-14.344-1.096-21.453-1.962-2.522-.306-2.497 3.643 0 3.949 7.134.84 14.268 1.656 21.453 1.936 2.523.102 2.523-3.822 0-3.923M203.108 208.545c-4.561.23-9.07.077-13.58-.484-2.498-.306-2.472 3.644 0 3.95 4.51.534 9.019.687 13.58.483 2.496-.127 2.522-4.076 0-3.949M225.658 220.951c-6.013.637-11.924 1.784-17.759 3.516-2.42.714-1.401 4.51 1.045 3.796a98.676 98.676 0 0116.714-3.388c2.497-.255 2.522-4.204 0-3.924M173.699 233.002c-5.02 1.376-9.835 3.21-14.498 5.452l1.988 3.39c4.357-2.09 8.866-3.746 13.554-5.046 2.42-.662 1.402-4.458-1.044-3.796M180.619 217.192c-2.625.51-5.224 1.045-7.848 1.554-2.471.51-1.427 4.306 1.07 3.797 2.6-.51 5.198-1.045 7.822-1.555 2.472-.51 1.427-4.306-1.044-3.796M208.88 237.243c-2.751 1.758-6.293 2.523-9.401 3.415-3.261.942-6.574 1.834-9.911 2.573-2.472.535-1.427 4.331 1.044 3.796 6.497-1.427 14.574-2.751 20.256-6.37l-1.988-3.414M193.78 256.864a113.961 113.961 0 01-14.981 5.096c-2.446.662-1.402 4.458 1.044 3.796a115.599 115.599 0 0015.007-5.096c2.293-.968 1.274-4.764-1.07-3.796M234.29 243.74c-7.16 3.593-13.656 8.51-20.587 12.562l1.988 3.388c6.93-4.05 13.427-8.943 20.587-12.56l-1.988-3.39M221.997 273.385a66.041 66.041 0 00-11.924 8.026l2.777 2.777c3.44-2.879 7.16-5.325 11.134-7.389l-1.987-3.414M198.136 272.837c-2.93 1.758-5.86 3.542-8.79 5.326l1.987 3.388c2.93-1.783 5.86-3.541 8.79-5.325l-1.987-3.389M217.207 301.68c-3.185 2.93-6.344 5.834-9.504 8.739l2.777 2.802c3.16-2.93 6.345-5.834 9.504-8.765l-2.777-2.777M248.839 262.098c-4.892 3.618-9.784 7.262-14.65 10.88l1.961 3.388c4.892-3.618 9.784-7.236 14.676-10.88l-1.987-3.388M241.271 288.889c-2.522 3.032-4.764 6.217-6.7 9.656l3.388 1.988a56.906 56.906 0 016.115-8.841l-2.803-2.803M253.004 306.431a215.112 215.112 0 00-7.847 9.606l3.389 1.987a198.31 198.31 0 017.235-8.816l-2.777-2.777M267.31 280.749l-5.223 6.038 2.778 2.777c2.242-2.038 4.153-4.306 5.834-6.828l-3.388-1.987M274.524 294.631c-4.306 6.192-7.618 12.892-9.988 20.052-.79 2.395 3.007 3.44 3.797 1.045a73.435 73.435 0 019.58-19.11l-3.39-1.987M255.098 325.362l-3.108 6.777c-1.07 2.293 2.318 4.28 3.388 1.987l3.134-6.777c1.045-2.293-2.344-4.28-3.414-1.987M295.885 290.723c-1.682 3.058-3.389 6.115-5.07 9.173l3.388 1.987c1.707-3.057 3.389-6.115 5.096-9.172l-3.414-1.988M290.88 315.518c-2.217 5.783-3.924 11.669-5.096 17.758-.484 2.472 3.312 3.542 3.796 1.045a105.416 105.416 0 015.096-17.759c.917-2.37-2.88-3.388-3.796-1.044M303.108 329.617l-.79 5.58c-.33 2.47 3.44 3.541 3.797 1.044l.79-5.58c.33-2.471-3.466-3.541-3.797-1.044M309.95 298.836a78.709 78.709 0 00-1.784 13.554c-.102 2.548 3.848 2.523 3.95 0a71.27 71.27 0 011.63-12.51c.535-2.471-3.261-3.516-3.796-1.044M320.979 311.145c-.535 7.083-1.402 14.166-1.631 21.274-.102 2.523 3.847 2.523 3.924 0 .254-7.108 1.095-14.191 1.63-21.274.204-2.523-3.745-2.523-3.923 0M331.785 330.9c-.662 3.287-.968 6.574-.866 9.937.102 2.523 4.026 2.548 3.95 0a37.241 37.241 0 01.738-8.892c.484-2.471-3.312-3.516-3.822-1.044M337.474 301.973c-.51 5.987-.23 11.873.764 17.784.408 2.497 4.204 1.427 3.796-1.045-.917-5.554-1.095-11.134-.637-16.74.23-2.522-3.72-2.496-3.923 0M351.07 324.89c.638 6.421 1.25 12.842 1.886 19.262.23 2.497 4.179 2.523 3.924 0-.612-6.42-1.249-12.841-1.86-19.262-.255-2.497-4.179-2.522-3.95 0M357.656 301.938c.535 2.955 1.07 5.91 1.58 8.866.458 2.497 4.255 1.453 3.796-1.044-.51-2.956-1.045-5.911-1.58-8.867-.433-2.471-4.23-1.427-3.796 1.045M362.561 319.77c.408 3.464.79 6.93 1.198 10.394.28 2.497 4.23 2.523 3.924 0-.383-3.465-.79-6.93-1.173-10.395-.28-2.497-4.229-2.522-3.949 0M189.774 185.041c7.648 1.427 15.725 1.223 23.247 3.338 2.423.688 3.458-3.109 1.035-3.796-7.497-2.115-15.599-1.911-23.247-3.338-2.448-.459-3.508 3.338-1.035 3.796M512.361 209.09h11.287c2.523 0 2.523-3.924 0-3.924h-11.287c-2.548 0-2.548 3.924 0 3.924" fill="#D28554"/>
    <path d="M312.271 226.35c-1.699-6.141-3.733-10.218-18.045-8.97-14.339 1.25-18.2 6.192-18.277 11.67-.078 5.478 5.225 10.09 10.863 11.516 7.8 1.988 10.632 1.122 17.016-.942 4.504-1.478 10.116-7.134 8.443-13.275M423.541 213.728c-11.674.535-16.191 4.434-16.952 11.287-.787 6.854 5.862 14.65 18.703 13.683 9.263-.688 17.384-6.727 16.14-13.453-1.268-6.727-6.217-12.026-17.89-11.517" fill="#E8819C"/>
    <path d="M403.893 242.505c24.689-3.694 49.428-6.038 74.292-8.128v-2.114c-25.04 2.114-49.98 4.51-74.844 8.204l.552 2.038M420.858 252.076c27.054-1.274 54.159-2.6 81.213-1.249v-2.089c-27.054-1.35-54.159-.025-81.213 1.223v2.115M408.118 261.614c18.52 3.058 37.04 5.988 55.735 7.72v-2.09c-18.495-1.706-36.866-4.636-55.187-7.668l-.548 2.038M317.35 240.524c-25.958-2.446-51.967-2.344-78.028-1.427v2.09c26.06-.892 52.07-.994 78.029 1.452v-2.115M304.611 251.193c-27.736.357-55.27 2.242-82.805 5.325v2.09c27.534-3.083 55.07-4.969 82.805-5.3v-2.115M312.038 262.544c-17.474 3.185-34.77 7.185-52.014 11.364l.535 2.012c17.245-4.178 34.566-8.153 52.014-11.363l-.535-2.013" fill="#17111C"/>
    <path d="M251.548 379.94c-22.192 43.004-60.806 72.278-85.983 82.714-32.111 13.304-18.447 18.837-9.59 16.322-11.691 4.15-12.07 15.668 6.604 10.11-3.467 1.962-12.88 4.577-10.704 10.487 2.202 5.935 11.69 2.465 17.131 1.886-5.466 1.836-9.97 4.3-7.49 8.174 8.629 13.555 82.06-14.486 119.89-102.03 15.461-35.812-16.903-52.838-29.858-27.663M521.662 604.411c-6.67-3.271-25.49-48.638-44.055-91.539-.786 4.429-1.801 8.807-3.247 13.084-7.101 20.985-22.927 37.441-42.355 48.714 21.457 32.66 57.167 76.718 68.707 79.486 14.457 3.472 40.656-14.544 47.2-19.4 17.957-13.336 13.975-20.255 8.243-19.878 6.493-4.806 5.25-12.908-5.428-9.46 6.468-12.204-10.094-10.191-29.065-1.007" fill="#E9AE5A"/>
  </g>
</svg>
