<svg viewBox="0 0 720 720" xmlns="http://www.w3.org/2000/svg">
  <g fill="none" fill-rule="evenodd">
    <path d="M278.234 244.841c13.731 1.866 26.884 4.937 39.458 8.668 17.055-20.608 36.943-54.792 35.931-78.73-21.39-15.527-86.315 37.715-115.887 67.594 16.592-.057 30.612 1.12 40.498 2.468" fill="#E8DF24"/>
    <path d="M319.086 229.706c19.21-18.533-4.198-38.547-11.388-43.215-16.161 9.793-33.502 23.344-48.226 36.211 20.475 6.263 49.693 16.54 59.614 7.004" fill="#17111C"/>
    <path d="M542.426 358.414c-22.608-5.94-74.746-19.743-106.202-41.438-11.634-8.006-75.982-60.434-158.771-71.826-28.382-3.903-90.719-6.63-151.648 18.91-41.883 17.534-76.211 38.482-93.16 57.163l-.057.03c-3.045 3.357-5.516 6.657-7.383 9.842-1.982 4.534-.69 8.724 7.526 12.511-7.555 1.665-10.14 4.821-8.015 9.384 17.351 24.593 98.791 65.8 214.243 85.745 16.661 2.87 47.14 2.87 64.031 3.127 85.117 1.234 193.273-44.88 237.914-48.984 11.347-8.006 10.485-29.04 1.522-34.464" fill="#CCBD9C"/>
    <path d="M295.437 379.13c-10.371-34.819-55.924-43.217-62.829-44.1-51.54-6.662-103.797 4.64-105.344 38.833-.43 9.907 6.732 18.477 14.21 25.053 15.184 13.352 42.287 29.978 89.76 33.651 17.418 1.338 35.525-2.391 50.079-12.014 4.555-3.018 8.795-6.662 11.718-11.246 5.615-8.825 5.386-20.185 2.406-30.177" fill="#DECBA9"/>
    <path d="M514.868 377.494c-16.897-4.684-35.86-9.597-57.26-14.453 3.04-5.37 7.057-13.71 10.987-19.337-6.454 2.4-15.261 12.825-19.306 17.48a1302.476 1302.476 0 00-31.413-6.426c2.553-10.54 7.66-21.736 10.959-28.82-7.402 7.026-13.828 13.882-20.856 26.992-10.385-1.914-21.229-3.742-32.56-5.513 4.16-12.539 12.622-28.534 18.388-37.332-7.63 2.628-19.823 16.481-28.802 35.733a1633.603 1633.603 0 00-28.974-3.97c5.594-16.453 13.024-33.59 21.774-48.158-17.27 9.769-27.024 30.648-34.913 46.558-11.245-1.342-22.92-2.57-34.998-3.742 6.454-23.85 18.446-47.129 24.843-58.326-13.827 7.97-33.277 39.018-41.625 56.841a1909.838 1909.838 0 00-41.77-3.085l3.902-.2c4.59-18.309 27.024-56.355 28.458-59.24-12.88 6.713-35.285 48.786-40.564 58.955a2329.84 2329.84 0 00-37.953-1.8c6.426-20.794 23.782-49.528 31.441-59.84-20.052 11.083-38.527 37.075-46.186 59.326-9.295-.286-18.848-.514-28.515-.686.344 2.857.66 5.713.717 8.712.057 2.628 0 5.027-.086 7.427 8.204 0 16.409-.029 24.613.057 5.394 14.624 25.331 56.47 37.18 61.753-3.443-11.168-21.574-48.843-20.885-61.382 12.479.257 24.93.657 37.408 1.2l-.688.085c3.93 21.823 19.277 54.213 32.215 61.411-8.118-21.908-14.802-38.017-16.58-60.868a1647.11 1647.11 0 0133.764 2.085l1.607.143c5.594 50.243 17.27 64.753 21.4 68.123-3.5-19.423-6.34-50.9-5.393-66.723 11.36 1 22.692 2.113 34.023 3.37 1.004 23.422 4.963 41.902 25.503 64.496-7.63-21.937-11.761-40.074-10.872-62.84 8.635 1.029 17.27 2.143 25.905 3.257 2.495 16.195 8.462 44.473 22.146 50.357-4.36-12.282-7.057-31.62-8.147-48.558 10.27 1.371 20.511 2.8 30.781 4.228 4.275 27.278 10.27 33.761 16.926 42.13-6.053-19.565-5.766-27.677-4.848-40.502 7.229.942 18.388 2.4 31.068 3.942 3.5 14.824 7.2 19.794 12.967 28.277-.46-8.826-2.869-18.366-4.475-27.25 20.913 2.514 43.92 5.085 58.694 6.113" fill="#FFFFFE"/>
    <path d="M102.686 275.245c-30.513 14.708-55.143 30.851-69.073 45.616-8.335 8.876-15.286 16.746-.808 23.41-13.93 3.045-11.132 11.088 6.98 23.756 14.564 10.198 36.224 22.578 64.488 34.01 9.344-4.308 36.743-12.064 35.618-64.142-.663-30.478-16.122-54.032-37.205-62.65" fill="#9AB59F"/>
    <path d="M79.665 304.788c-18.738 3.727-18.099 35.438-1.51 41.173 15.193 5.275 30.561-1.807 30.968-16.573.377-12.758-10.72-28.327-29.458-24.6" fill="#FFFFFE"/>
    <path d="M90.23 333.825c6.868-1.362 6.666-13.157.55-15.302-5.564-1.941-11.215.696-11.36 6.173-.116 4.753 3.941 10.52 10.81 9.13" fill="#17111C"/>
    <path d="M311.973 441.232c-2.827.058-5.711.173-8.48.145-16.873-.231-47.13-.26-63.946-3.113 9.23 19.827 39.17 95.216 65.648 94.178 15.979-.634 29.305-39.193 26.305-55.475-2.654-14.64-10.643-26.426-19.527-35.735" fill="#E8DF24"/>
    <path d="M270.672 469.118c-11.262 13.857 24.918 47.675 37.349 24.82 11.347-20.828-24.947-40.095-37.35-24.82" fill="#17111C"/>
    <path d="M353.66 438.842c28.333 31.661 34.73 91.021 63.49 91.796 18.536.517 7.512-58.355 20.536-69.923 16.05-14.266 44.269-15.96 52.094-36.024 2.6-6.63 1.857-13.75-1.828-19.03-38.528 10.936-87.28 26.206-134.292 33.181" fill="#E8DF24"/>
    <path d="M369.962 461.74c6.528 12.273 11.896 25.38 17.38 36.764 13.056 5.519 27.592 4.771 32.263-10.118 8.211-26.13-32.815-40.473-49.643-26.647" fill="#17111C"/>
    <path d="M649.13 390.481c.743-19.303 18.54-27.375 32.39-48.057 13.276-19.82 18.913-43.03 10.53-48.171-14.279-8.819-95.026 50.21-151.824 62.361l3.663.977c8.927 5.429 9.786 26.484-1.517 34.499l-1.287.2c51.533 25.94 121.15 101.974 138.46 92.208 7.869-4.453 8.956-27.95-2.975-49.177-13.363-23.756-28.07-27.749-27.44-44.84" fill="#EC952D"/>
    <path d="M633.798 405.913c-23.612-15.357-55.123-9.917-53.674 3.315.454 4.164 3.836 7.338 6.99 10.086 15.485 13.401 59.527 48.364 71.205 41.65 4.518-2.607-.909-39.695-24.521-55.051M677.132 310.855c-4.093-8.51-104.671 30.531-94.527 50.684 2.479 4.887 32.71 11.04 59.339-.489 26.628-11.557 39.28-41.656 35.188-50.195" fill="#E5702A"/>
    <path d="M657.44 317.939c-53.26 26.952-104.534 44.25-104.534 44.25a201.041 201.041 0 0031.834-6.855c23.984-7.234 46.386-18.843 68.645-30.365 10.065-5.222 20.331-10.589 28.124-18.931-8.656 2.333-16.046 7.846-24.07 11.9M611.857 352.103a2210.758 2210.758 0 00-14.811 3.768l-38.706 9.824c7.955-.058 27.25-2.347 57.74-10.201 28.177-7.245 43.075-16.925 45.505-18.548-12.295 4.55-45.649 14.114-49.728 15.157M556.528 374.848c5.858 1.681 22.709 1.276 34.626.87 20.689-.696 52.747-7.216 61.374-12.926-24.007 4.58-49.11 8.926-96 12.056M631.163 381.752c-13.234-.405-40.046-2.318-47.465-1.767 15.812 3.535 42.538 4.724 54.34 4.26l-6.875-2.493M572.83 383.417s45.018 18.838 68.83 22.75c-21.686-11.012-44.96-18.721-68.83-22.75M560.15 383.925c12.505 10.335 71.607 41.662 101.799 56.775l5.07 1.187c-19.283-17.864-100.716-57.354-106.868-57.962M663.396 465.434c-3.4-4.794-8.328-8.296-13.055-11.798-15.043-11.194-70.203-52.902-84.756-58.844 26.081 24.686 74.727 57.811 97.811 70.642" fill="#E0552A"/>
  </g>
</svg>
