<?xml version="1.0" encoding="UTF-8"?>
<svg width="720px" height="720px" viewBox="0 0 720 720" version="1.1" xmlns="http://www.w3.org/2000/svg" xmlns:xlink="http://www.w3.org/1999/xlink">
    <!-- Generator: Sketch 64 (93537) - https://sketch.com -->
    <title>img_s</title>
    <desc>Created with Sketch.</desc>
    <g id="img_s" stroke="none" stroke-width="1" fill="none" fill-rule="evenodd">
        <g id="squirrel" transform="translate(19.000000, 10.000000)">
            <path d="M211.807378,507.670533 C211.520674,478.831953 181.576007,459.10367 151.153499,459.96979 C120.699135,460.867988 89.4165151,481.526548 74.1574773,508.761202 C58.9302955,536.027934 59.4399919,568.330993 73.4566446,592.037011 C87.7281455,616.192128 106.682483,631.942676 133.600827,643.04184 C126.815493,646.089298 112.766984,650.965232 97.093818,654.461789 C85.3707994,657.092227 58.3250309,650.387818 47.1435648,668.351783 C44.7543626,672.169126 48.5770861,677.782865 51.9538252,679.932125 C70.2391857,691.576624 97.030106,683.685311 120.476143,676.884667 C141.947107,670.661436 176.510898,662.224788 177.084306,641.662464 C179.250516,564.09663 212.412642,563.358824 211.807378,507.670533" id="Fill-1658" fill="#E36A56"></path>
            <path d="M645.890378,63.879245 C636.926288,53.4085403 626.649599,43.6401389 614.003829,36.5213366 C522.50608,-15.0660378 447.655927,17.7187602 397.392992,59.4419646 C347.130058,101.133246 335.828901,169.958976 347.002,226.30286 C354.493418,264.195318 371.781306,299.597792 385.259456,335.766416 C419.547101,427.927771 397.489036,499.020025 345.017094,499.307331 C344.440831,506.17075 343.352334,511.278411 342.615998,514.183393 C338.486114,530.272525 333.843996,542.307451 324.783862,553.895456 C366.787027,578.029154 438.659822,590.159848 488.60261,554.948911 C558.074309,505.94729 570.23986,402.19793 529.933469,301.098168 C519.816853,275.687555 511.557084,249.606562 508.867857,222.472114 C503.073213,163.734014 552.66384,137.876481 579.364023,163.191325 C590.345034,173.598184 595.787517,188.72963 591.561589,203.063003 C587.335661,217.364453 572.544912,230.069759 555.609184,231.921286 C556.377535,243.253909 567.774735,252.000778 580.644608,254.075765 C593.51448,256.11883 607.312776,252.57539 619.318254,246.988886 C656.006994,229.910145 678.801395,194.124596 681.522637,159.296734 C684.275893,124.436949 669.100969,90.9498474 645.890378,63.879245" id="Fill-1659" fill="#E17962"></path>
            <path d="M554.755043,231.369109 C571.535118,229.511809 586.189929,216.766887 590.377017,202.420845 C594.564106,188.042779 589.171643,172.864154 578.291557,162.424846 C574.516833,158.806313 570.298024,156.340587 565.857172,154.771488 C562.685135,150.800709 556.436223,137.03107 565.920613,133.828828 C575.373283,130.594564 587.553904,136.967025 600.654417,149.647902 C598.529152,140.265334 585.016275,121.820422 590.535619,115.992342 C596.023243,110.164262 612.10547,127.808614 618.861908,131.267035 C614.70654,126.655807 607.157092,96.6828246 610.614612,91.71935 C614.072133,86.7558754 635.039296,105.905281 647.759164,121.820422 C645.348416,111.573248 638.147892,93.4805829 645.031212,89.5738481 C651.914532,85.6671133 661.494084,96.8429367 669.011811,101.806411 C676.973624,119.67492 681.033831,138.88837 679.511253,158.518111 C676.815022,193.454568 654.230119,229.351697 617.878577,246.48369 C605.983439,252.087613 592.31196,255.642101 579.560372,253.592666 C566.808783,251.511209 555.516332,242.737067 554.755043,231.369109" id="Fill-1660" fill="#D84451"></path>
            <path d="M369.470893,256.599424 C371.730259,264.184438 374.731988,271.511239 377.314121,278.999424 L372.892219,280 C370.27781,272.511816 367.308357,265.185014 365.048991,257.567723 L369.470893,256.599424" id="Fill-1661" fill="#D6403E"></path>
            <path d="M388.87758,262.247839 C385.940404,252.432372 382.583632,242.868584 381.324843,232.644139 C381.002076,229.812755 385.423978,228.8375 385.779021,231.668885 C387.005534,241.893329 390.362306,251.457117 393.331759,261.272584 L388.87758,262.247839" id="Fill-1662" fill="#D6403E"></path>
            <path d="M370.552247,231.340533 C368.486541,224.530158 367.453688,217.622953 367.356858,210.522089 C367.324581,207.584913 371.87559,207.81085 371.907866,210.748025 C372.004696,217.429293 373.037549,223.916902 375.006425,230.339956 L370.552247,231.340533" id="Fill-1663" fill="#D6403E"></path>
            <path d="M353.785106,219.543414 C352.138997,211.119207 351.751677,202.662723 351.91306,194.077132 C351.977613,191.139956 356.528622,191.365893 356.464069,194.303069 C356.302685,202.469063 356.657729,210.505951 358.207008,218.542838 L353.785106,219.543414" id="Fill-1664" fill="#D6403E"></path>
            <path d="M367.070844,189.32641 C366.522141,178.602376 367.554994,167.586753 371.105426,157.348703 L375.430499,158.741856 C372.009173,168.623518 371.07315,179.185556 371.621853,189.553202 C371.75096,192.501501 367.232228,192.24231 367.070844,189.32641" id="Fill-1665" fill="#D6403E"></path>
            <path d="M351.880455,165.103776 C352.009562,160.42366 352.655095,155.840375 353.881608,151.321643 L358.20668,152.709539 C357.109274,156.873228 356.528294,161.036917 356.431464,165.329712 C356.366911,168.234611 351.815902,168.040951 351.880455,165.103776" id="Fill-1666" fill="#D6403E"></path>
            <path d="M382.182409,207.9216 C381.181833,202.047249 379.406617,195.527364 380.084426,189.523906 C380.374916,186.651283 384.925925,186.844943 384.603158,189.749842 C383.989902,195.365981 385.700565,201.433992 386.636588,206.921024 L382.182409,207.9216" id="Fill-1667" fill="#D6403E"></path>
            <path d="M364.323528,140.630001 C364.549465,131.883027 366.550618,123.426543 369.681453,115.292825 L374.006525,116.648445 C371.004796,124.459396 369.068197,132.464007 368.84226,140.823661 C368.777707,143.760837 364.226698,143.5349 364.323528,140.630001" id="Fill-1668" fill="#D6403E"></path>
            <path d="M382.962536,128.541787 C384.963689,121.344092 387.965418,114.501441 391.870893,108.142939 L395.711816,110.563689 C392,116.6317 389.191931,123.054755 387.287608,129.897406 L382.962536,128.541787" id="Fill-1669" fill="#D6403E"></path>
            <path d="M378.008069,98.3469741 C381.203458,93.3118156 384.624784,88.4380403 389.498559,84.8230548 L392.597118,88.1475504 C388.013833,91.5365994 384.85072,96.0230548 381.848991,100.767723 L378.008069,98.3469741" id="Fill-1670" fill="#D6403E"></path>
            <path d="M396.906052,68.329683 C401.166571,62.8426513 406.137176,58.1948127 411.914697,54.2893372 L414.044957,58.2916427 C408.977522,61.745245 404.491066,65.9412104 400.746974,70.7827089 L396.906052,68.329683" id="Fill-1671" fill="#D6403E"></path>
            <path d="M402.602882,87.3567723 C406.927954,82.2247839 412.382709,77.8674352 418.289337,74.7365994 L420.451873,78.7389049 C414.835735,81.7083573 409.800576,85.8397695 405.701441,90.681268 L402.602882,87.3567723" id="Fill-1672" fill="#D6403E"></path>
            <path d="M403.361383,108.417291 C405.814409,104.511816 409.461671,101.122767 413.52853,98.9602305 L415.65879,102.962536 C412.269741,104.770029 409.235735,107.610375 407.202305,110.83804 L403.361383,108.417291" id="Fill-1673" fill="#D6403E"></path>
            <path d="M421.791354,62.2132565 C429.892795,56.5002882 438.220173,50.2386167 447.548127,46.7527378 L449.678386,50.7550432 C440.350432,54.2731988 432.055331,60.5348703 423.95389,66.215562 L421.791354,62.2132565" id="Fill-1674" fill="#D6403E"></path>
            <path d="M437.687608,80.3850144 C442.30317,77.7060519 446.951009,75.1239193 451.824784,72.9613833 L453.955043,76.9636888 C449.081268,79.1585014 444.433429,81.7083573 439.817867,84.3873199 L437.687608,80.3850144" id="Fill-1675" fill="#D6403E"></path>
            <path d="M423.163112,45.978098 C426.261671,43.1377522 430.13487,40.9752161 434.040346,39.4582133 L436.202882,43.4605187 C432.620173,44.848415 429.102017,46.7204611 426.261671,49.3025937 L423.163112,45.978098" id="Fill-1676" fill="#D6403E"></path>
            <path d="M456.779251,60.518732 C463.492795,56.8391931 470.88415,54.5152738 478.243228,52.4818444 L479.243804,56.9037464 C472.272046,58.8726225 465.300288,61.0351585 458.90951,64.5210375 L456.779251,60.518732" id="Fill-1677" fill="#D6403E"></path>
            <path d="M451.518156,32.6478386 C458.651297,28.2904899 467.301441,25.6760807 475.435159,23.8363112 L476.435735,28.2904899 C468.657061,30.0334294 460.491066,32.4864553 453.648415,36.6824207 L451.518156,32.6478386" id="Fill-1678" fill="#D6403E"></path>
            <path d="M474.35389,37.2956772 C477.872046,36.5210375 481.357925,35.714121 484.876081,34.9394813 L485.876657,39.3613833 C482.358501,40.1682997 478.872622,40.9429395 475.354467,41.7175793 L474.35389,37.2956772" id="Fill-1679" fill="#D6403E"></path>
            <path d="M494.204035,19.5435159 C500.465706,17.8005764 507.017867,17.2841499 513.440922,16.3804035 L514.441499,20.8023055 C508.018444,21.7060519 501.466282,22.2224784 495.204611,23.9654179 L494.204035,19.5435159" id="Fill-1680" fill="#D6403E"></path>
            <path d="M502.453127,31.5673377 C509.650822,29.9857815 516.91307,28.8238218 524.272147,28.5333319 C527.209323,28.4365019 526.983387,32.9552339 524.046211,33.0843405 C517.074453,33.3425538 510.264078,34.5045135 503.453704,36.0215163 L502.453127,31.5673377" id="Fill-1681" fill="#D6403E"></path>
            <path d="M515.54759,51.5542373 C511.771221,51.9738339 508.091682,52.716197 504.44442,53.7813267 L503.443844,49.327148 C507.091106,48.2942949 510.802922,47.5519318 514.579291,47.1000586 C517.451913,46.7772921 518.484766,51.1991941 515.54759,51.5542373" id="Fill-1682" fill="#D6403E"></path>
            <path d="M592.712392,59.292219 C589.613833,57.0651297 586.386167,55.1285303 582.964841,53.4824207 L585.385591,49.6414986 C588.806916,51.2876081 592.034582,53.2242075 595.133141,55.4512968 L592.712392,59.292219" id="Fill-1683" fill="#D6403E"></path>
            <path d="M538.718775,20.2059544 C544.786787,20.431891 551.274395,21.7229573 556.955087,23.8854933 L555.56719,28.2105653 C550.241542,26.1771359 544.238084,24.9828996 538.525116,24.756963 C535.58794,24.6278564 535.7816,20.1091244 538.718775,20.2059544" id="Fill-1684" fill="#D6403E"></path>
            <path d="M546.104293,39.1260393 C550.074322,38.964656 553.850691,40.2879989 557.62706,41.2885753 L556.239163,45.6136473 C552.817838,44.7099009 549.493342,43.5156646 545.910633,43.6770479 C542.973457,43.7738779 543.199394,39.2551459 546.104293,39.1260393" id="Fill-1685" fill="#D6403E"></path>
            <path d="M580.156772,33.50317 C585.450144,34.6005764 590.323919,36.7631124 595.294524,38.8288184 L593.906628,43.1538905 C588.936023,41.0881844 584.062248,38.9256484 578.768876,37.8282421 L580.156772,33.50317" id="Fill-1686" fill="#D6403E"></path>
            <path d="M612.223631,54.967147 C615.644957,56.9682997 618.323919,59.9054755 620.776945,62.9717579 L617.45245,66.070317 C615.22536,63.2945245 612.869164,60.615562 609.770605,58.7757925 L612.223631,54.967147" id="Fill-1687" fill="#D6403E"></path>
            <path d="M395.276081,149.892795 C393.823631,153.895101 392.661671,157.994236 391.757925,162.157925 L387.432853,160.770029 C388.336599,156.60634 389.498559,152.539481 390.918732,148.504899 L395.276081,149.892795" id="Fill-1688" fill="#D6403E"></path>
            <path d="M393.823631,284.212104 C396.308934,290.731988 399.439769,296.99366 400.989049,303.836311 L396.567147,304.836888 C395.082421,298.381556 392.145245,292.507205 389.789049,286.342363 L393.823631,284.212104" id="Fill-1689" fill="#D6403E"></path>
            <path d="M390.612104,306.854179 C394.743516,313.98732 397.874352,321.669164 400.165994,329.609222 L395.744092,330.609798 C393.54928,323.024784 390.54755,315.794813 386.577522,308.984438 L390.612104,306.854179" id="Fill-1690" fill="#D6403E"></path>
            <path d="M407.702594,378.411527 C406.508357,369.79366 404.991354,361.272622 402.828818,352.848415 L407.25072,351.847839 C409.413256,360.272046 410.930259,368.793084 412.156772,377.410951 L407.702594,378.411527" id="Fill-1691" fill="#D6403E"></path>
            <path d="M419.435159,349.120461 C418.014986,339.986167 414.948703,331.206916 411.269164,322.750432 L415.27147,320.620173 C419.112392,329.4317 422.404611,338.598271 423.889337,348.119885 L419.435159,349.120461" id="Fill-1692" fill="#D6403E"></path>
            <path d="M415.85245,304.675504 C414.367723,301.286455 412.979827,297.832853 411.269164,294.572911 L415.27147,292.442651 C416.982133,295.702594 418.370029,299.123919 419.854755,302.512968 L415.85245,304.675504" id="Fill-1693" fill="#D6403E"></path>
            <path d="M402.81268,271.156196 C401.682997,266.895677 400.327378,262.699712 399.649568,258.37464 L404.07147,257.374063 C404.74928,261.731412 406.137176,265.895101 407.266859,270.15562 L402.81268,271.156196" id="Fill-1694" fill="#D6403E"></path>
            <path d="M432.634215,377.28245 C432.408279,372.666888 431.665916,368.180433 430.245743,363.790808 L434.667645,362.790231 C436.216924,367.599453 436.927011,372.473229 437.185224,377.47611 C437.346607,380.413286 432.795599,380.18735 432.634215,377.28245" id="Fill-1695" fill="#D6403E"></path>
            <path d="M423.902525,413.281514 C424.289845,403.950366 423.289268,394.650957 422.772842,385.31981 C422.611459,382.463336 427.162467,382.685506 427.323851,385.54198 C427.808,394.873127 428.808577,404.140798 428.453534,413.503684 C428.356704,416.391897 423.805695,416.169726 423.902525,413.281514" id="Fill-1696" fill="#D6403E"></path>
            <path d="M408.928509,432.847755 C410.025916,425.972827 409.477212,419.130176 409.154446,412.222971 C409.025339,409.318072 413.576348,409.544009 413.705454,412.448908 C414.028221,419.356113 414.576924,426.198764 413.447241,433.073692 L408.928509,432.847755" id="Fill-1697" fill="#D6403E"></path>
            <path d="M435.156726,428.128254 C435.640876,424.674652 436.060473,421.124219 435.737706,417.606064 C435.479493,414.733441 439.933671,413.700588 440.191885,416.605487 C440.546928,420.575516 440.256438,424.448715 439.707735,428.354191 L435.156726,428.128254" id="Fill-1698" fill="#D6403E"></path>
            <path d="M420.235411,448.120432 C421.59103,445.247809 422.17201,442.24608 422.4625,439.147521 C422.75299,436.242622 427.303998,436.436282 427.013508,439.373458 C426.626189,443.31121 425.786996,446.926195 424.076333,450.541181 L420.235411,448.120432" id="Fill-1699" fill="#D6403E"></path>
            <path d="M400.569452,465.397118 C402.409222,461.297983 404.216715,457.198847 406.056484,453.099712 L410.381556,454.455331 C408.541787,458.586744 406.734294,462.685879 404.926801,466.785014 L400.569452,465.397118" id="Fill-1700" fill="#D6403E"></path>
            <path d="M420.839193,472.836888 C422.420749,468.963689 424.325072,465.316427 426.616715,461.798271 L430.457637,464.251297 C428.391931,467.414409 426.616715,470.706628 425.164265,474.224784 L420.839193,472.836888" id="Fill-1701" fill="#D6403E"></path>
            <path d="M395.405187,484.343516 C398.95562,482.08415 401.376369,479.405187 403.635735,475.887032 L407.476657,478.307781 C404.797695,482.503746 401.763689,485.699135 397.535447,488.378098 L395.405187,484.343516" id="Fill-1702" fill="#D6403E"></path>
            <path d="M371.342939,496.124496 C374.441499,495.575793 377.604611,493.929683 380.02536,491.92853 L383.123919,495.253026 C380.089914,497.770605 376.248991,499.868588 372.343516,500.578674 L371.342939,496.124496" id="Fill-1703" fill="#D6403E"></path>
            <polyline id="Fill-1704" fill="#D6403E" points="390.886455 504.080692 396.793084 500.562536 399.891643 503.887032 393.016715 508.082997 390.886455 504.080692"></polyline>
            <path d="M352.687032,504.149934 C356.043804,504.698638 360.336599,504.989127 363.531988,503.568955 L365.662248,507.603537 C361.659942,509.346476 356.721614,509.378753 352.493372,508.700943 L352.687032,504.149934" id="Fill-1705" fill="#D6403E"></path>
            <path d="M430.893372,340.082997 L428.085303,331.787896 L432.087608,329.657637 C433.443228,332.723919 434.572911,335.822478 435.315274,339.114697 L430.893372,340.082997" id="Fill-1706" fill="#D6403E"></path>
            <path d="M398.342363,229.551585 C397.6,224.77464 396.82536,219.997695 396.05072,215.253026 L400.472622,214.25245 C401.247262,219.029395 402.021902,223.774063 402.796542,228.551009 L398.342363,229.551585" id="Fill-1707" fill="#D6403E"></path>
            <path d="M404.765418,135.319885 C406.282421,131.801729 408.089914,128.574063 410.413833,125.540058 L414.254755,127.993084 C412.189049,130.704323 410.44611,133.544669 409.122767,136.707781 L404.765418,135.319885" id="Fill-1708" fill="#D6403E"></path>
            <path d="M129.552895,292.780097 C118.525695,307.628214 107.498495,328.922274 85.9555021,343.994877 C69.5585355,355.50778 38.9700424,362.082 26.7602155,366.667919 C-6.60904969,379.207042 -5.23464509,419.742722 11.6417649,423.462769 C22.2534469,425.803833 33.472424,403.002513 43.9882174,400.212478 C66.9375779,394.151367 94.2338926,394.728616 115.393331,383.921239 C141.794684,370.452105 163.241789,341.333119 169.730257,326.933973 C179.670718,304.902318 144.415642,272.704673 129.552895,292.780097" id="Fill-1709" fill="#E36A56"></path>
            <path d="M319.423803,411.884724 C293.774565,373.034361 251.602222,334.82246 240.971077,256.195965 L237.993076,258.143272 C221.181777,267.975574 165.336245,273.051341 120.666224,258.462503 C107.249206,286.554794 94.7608134,331.183231 92.9996297,400.520115 C91.3024891,467.686231 100.332558,510.175822 114.48607,540.502728 C127.038506,567.222329 148.781119,588.355394 175.743239,598.219619 C193.22699,604.604231 244.909724,613.925764 284.424281,587.653087 C324.451181,561.029255 334.217745,545.00388 342.159082,514.00659 C344.912933,503.280442 352.726184,462.291234 319.423803,411.884724" id="Fill-1710" fill="#E9896C"></path>
            <path d="M103.454537,510.804294 C95.9384301,483.586288 91.8125671,448.509561 92.9959542,401.133618 C93.8275235,368.452842 97.0258669,341.266781 101.599498,318.712893 L102.654951,315.518292 C109.819241,300.184203 130.256655,291.910185 145.57672,295.264517 C164.734797,299.417499 175.673132,317.530891 182.293703,341.043159 C188.946257,364.523482 198.797155,404.424057 205.73756,436.625643 C209.351688,453.237571 223.168532,510.19732 203.530703,536.456946 C192.592369,551.088222 179.063376,559.106672 150.118368,552.30217 C127.218229,546.903294 111.834197,527.895413 103.454537,510.804294" id="Fill-1711" fill="#ECAA8C"></path>
            <path d="M121.613759,421.016715 L122.410579,420.952161 C127.573976,420.145245 129.19949,414.10951 129.964438,408.331988 C131.653697,412.076081 134.331014,415.884726 137.23144,417.659942 L141.566144,418.531412 C145.582119,417.434006 147.143887,411.398271 148.4188,406.524496 L148.450673,406.395389 C150.522406,411.882421 154.665873,417.498559 158.904958,416.820749 C162.952806,416.175216 166.745671,410.107205 168.020584,404.45879 C169.805462,409.074352 172.38716,414.755043 178.060522,414.270893 L183.255792,411.301441 C185.901236,407.621902 185.869363,401.682997 185.231907,398.778098 L184.020739,398.003458 L183.255792,399.229971 C183.861375,401.973487 183.733884,407.137752 181.598405,410.074928 L177.901158,412.205187 L177.454939,412.205187 C173.183981,412.205187 171.175993,406.944092 169.550479,402.683573 L168.371185,399.778674 L167.223763,399.197695 L166.426943,400.262824 C166.650053,406.040346 162.251604,414.20634 158.586229,414.78732 C154.888982,415.3683 150.586152,407.815562 149.43873,402.489914 L148.482546,401.682997 L147.462615,402.393084 L146.442685,406.008069 C145.390882,410.107205 143.924732,415.723343 141.024306,416.530259 L138.283243,415.884726 C135.095961,413.948127 131.526206,408.235159 130.44253,403.425937 L129.390727,402.61902 L128.434542,403.555043 L128.402669,403.87781 C127.797086,409.881268 127.000265,418.144092 122.091851,418.918732 L120.243228,418.499135 C118.044003,416.853026 117.279055,411.107781 116.641599,406.492219 L116.036015,402.32853 L114.95234,401.457061 L113.996155,402.457637 C113.741172,408.041499 109.374596,417.885879 106.506042,417.885879 C104.976147,417.885879 103.255015,413.883573 102.904414,404.975216 L101.820738,404.006916 L100.864553,405.072046 C101.247027,414.948703 103.127523,419.951585 106.506042,419.951585 C110.012053,419.951585 113.199334,413.851297 114.856721,408.461095 C115.52605,413.399424 116.418489,418.208646 119.000188,420.145245 L121.613759,421.016715" id="Fill-1712" fill="#D6403E"></path>
            <path d="M114.225879,448.758501 L114.386133,448.758501 C118.616821,448.629395 120.50781,443.594236 121.244975,439.333718 C123.424421,443.497406 127.23845,447.983862 130.828125,447.983862 L131.180682,447.951585 C134.994711,447.628818 136.917751,441.754467 137.654917,436.848415 C140.827932,442.98098 144.161202,445.692219 147.334218,444.723919 C152.462324,443.142363 153.487946,438.849568 153.584098,434.879539 C155.891746,439.785591 158.231444,442.851873 161.85317,442.335447 C165.667199,441.81902 166.628719,437.526225 167.205631,432.910663 C168.872266,436.622478 171.211964,440.85072 174.481132,440.85072 L174.769588,440.85072 C178.134908,440.592507 179.16053,435.815562 179.961796,432.006916 L180.218202,430.748127 C182.045089,434.363112 184.833497,439.495101 188.102665,438.881844 C192.205151,438.139481 191.724391,430.877233 191.500036,427.746398 L190.474415,426.745821 L190.410313,426.745821 L189.448793,427.810951 L189.448793,427.907781 C189.929553,434.944092 188.775729,436.654755 187.750108,436.848415 L181.660481,429.005187 L180.923316,427.552738 L180.025898,427.036311 L179.128479,427.520461 L177.942604,431.58732 L174.641386,438.785014 L174.481132,438.785014 C171.98118,438.785014 169.54533,433.168876 168.231252,430.13487 L167.558188,428.585591 L166.468466,428.004611 L165.603098,428.908357 L165.378743,430.748127 C164.865932,435.266859 164.353122,439.914697 161.596764,440.269741 C158.423748,440.721614 156.051999,435.686455 153.327692,429.102017 L152.173868,428.488761 L151.340551,429.521614 L151.436703,431.329107 C151.725159,436.880692 151.564906,441.23804 146.725255,442.722767 C144.225303,443.56196 141.052287,439.817867 137.943373,432.65245 L136.821599,432.039193 L135.988282,433.007493 C135.699826,439.010951 133.712685,445.659942 130.988378,445.885879 L130.828125,445.918156 C127.623058,445.918156 122.623154,439.236888 121.597533,434.685879 L120.50781,433.846686 L119.578341,434.879539 C119.578341,439.591931 117.911706,446.595965 114.322031,446.692795 L114.25793,446.692795 C110.443901,446.692795 107.04653,438.526801 106.950378,435.815562 L105.892706,434.814986 L104.899135,435.880115 C105.027338,439.236888 108.873418,448.758501 114.225879,448.758501" id="Fill-1713" fill="#D6403E"></path>
            <path d="M172.415346,339.371582 L171.501261,340.404435 C171.469741,345.08455 168.002522,352.669564 164.945065,353.315098 L164.787464,353.347374 C162.108249,353.702417 158.830151,347.634406 157.348703,341.792331 L156.340058,341.049968 L155.362932,341.856884 C153.881484,349.538729 151.580512,353.863801 148.995857,353.605587 C144.04719,353.185991 142.975504,348.957749 142.12446,343.43844 L141.840778,341.663224 L140.832133,340.824031 L139.855007,341.663224 C138.5942,348.699536 137.333393,354.122014 134.212896,354.347951 C131.470641,354.573887 130.020713,350.119709 128.602305,345.826913 L128.034942,344.083974 L126.994777,343.406164 L126.080692,344.180804 L125.73397,345.826913 C125.103566,349.086855 123.9058,355.090314 121.510267,355.639017 L121.384186,355.639017 L116.68768,349.312792 L114.733429,345.600977 L113.787824,345.310487 L113.756304,345.310487 L113.03134,345.988296 L112.590058,347.569853 L108.366354,356.542763 C107.326189,356.57504 105.876261,355.154867 104.899135,348.150832 L104.867615,348.054002 L103.732889,347.247086 L103.701369,347.247086 L102.881844,348.441322 C103.323127,351.539881 104.331772,358.769853 108.429395,358.608469 C111.707493,358.511639 113.315022,352.895501 114.323667,348.990026 L114.85951,350.151985 C116.403999,353.702417 118.358249,358.156596 121.636347,357.704723 L121.920029,357.64017 C125.072046,356.96236 126.427414,352.314521 127.309978,348.344492 C128.791427,352.734118 130.588076,356.736423 134.370497,356.413657 C137.963797,356.155443 139.571326,352.637288 140.800612,347.343916 C141.714697,351.217115 143.605908,355.21942 148.838256,355.639017 C152.084834,355.929507 154.701009,352.572734 156.529179,345.923743 C158.262788,350.571582 161.288725,355.89723 165.039625,355.41308 L165.386347,355.348527 C172.762068,353.605587 173.487032,340.178498 173.487032,340.178498 L172.415346,339.371582" id="Fill-1714" fill="#D6403E"></path>
            <path d="M110.637773,478.695101 C114.4675,478.695101 117.347708,472.723919 119.658205,467.591931 L123.39298,475.144669 L127.729117,477.016715 C130.071264,476.693948 132.160207,473.369452 133.426232,468.302017 L135.958283,473.208069 L141.402193,477.145821 L141.528795,477.145821 C146.339692,477.145821 149.156599,470.948703 150.897384,466.010375 C151.467095,469.367147 152.733121,473.046686 154.695461,475.080115 L159.031598,476.758501 C163.272783,476.209798 164.918617,471.75562 165.709882,467.430548 L168.495139,471.981556 L174.730314,475.790202 L174.856917,475.790202 C179.256355,475.693372 182.041611,468.205187 183.687445,462.911816 C184.890169,466.107205 187.200665,469.883573 189.796018,471.917003 L195.777988,473.401729 C201.918212,471.432853 199.386161,461.104323 197.993533,455.520461 L197.645376,454.068012 L196.411001,453.293372 L195.683036,454.519885 L196.031193,456.036888 C197.138966,460.587896 199.481113,470.044957 195.176626,471.432853 L191.030393,470.270893 C187.517172,467.527378 184.763566,461.362536 184.890169,458.941787 L184.067252,457.876657 L182.896179,458.554467 L182.358118,460.329683 C181.250346,463.976945 178.306836,473.627666 174.793615,473.692219 L174.761965,473.692219 L170.07767,470.658213 L166.374546,462.169452 L166.437847,461.523919 L165.58328,460.394236 L164.443857,461.201153 L164.348905,462.040346 L164.317254,462.427666 C163.842495,466.817291 163.11453,474.144092 158.778393,474.692795 L156.15139,473.627666 C153.302832,470.658213 152.258361,463.460519 152.638169,460.65245 L151.910204,459.522767 L150.70748,460.07147 L149.916214,462.395389 C148.618538,466.526801 145.928234,475.080115 141.528795,475.080115 L141.433843,475.080115 L137.604116,472.04611 C135.578475,469.04438 134.407402,465.332565 134.31245,463.428242 L134.439052,462.363112 L133.647786,461.233429 L132.476713,461.911239 L132.286809,463.266859 C131.305639,470.98098 128.900191,474.757349 127.444261,474.983285 L124.943861,473.789049 L121.145785,464.299712 L120.481121,463.105476 L119.246746,463.621902 L118.138974,466.074928 C116.334888,470.01268 113.328077,476.629395 110.637773,476.629395 L110.574472,476.629395 L108.896988,475.564265 C107.124552,473.175793 106.52319,467.753314 107.219504,464.654755 L106.428238,463.428242 L105.225514,464.202882 C104.434248,467.817867 105.067261,473.885879 107.282805,476.823055 L110.51117,478.695101 L110.637773,478.695101" id="Fill-1715" fill="#D6403E"></path>
            <path d="M171.680898,509.548133 L175.995039,507.15966 C178.184305,504.835741 179.955034,500.994819 180.792106,497.31528 C182.659421,501.446692 185.94332,506.352744 190.160875,505.804041 C195.537454,505.093954 197.565744,497.089343 197.694524,490.472629 L196.664282,489.407499 L195.634039,490.440352 C195.505259,496.508363 193.670139,503.254185 189.87112,503.770611 L189.710144,503.770611 C185.717954,504.028825 181.725764,495.346404 181.275033,492.312398 L180.148205,491.440928 L179.214547,492.538335 C179.439913,496.7343 177.282843,502.770035 174.48187,505.739487 L171.423338,507.482427 C167.592123,507.54698 163.535543,501.446692 162.63408,494.184444 L161.571643,493.280698 L161.539447,493.280698 L160.573595,494.216721 C159.994084,499.961966 157.804818,506.901447 153.458482,507.482427 L149.820438,505.545827 L146.053613,495.636894 L145.313126,494.378104 L144.057518,495.120467 L143.413616,497.573493 C142.415569,501.672629 140.77362,508.61211 137.908257,509.063983 L137.779477,509.063983 C134.978505,509.257643 131.694606,500.123349 130.278023,496.185597 L129.537536,494.184444 L128.475098,493.506634 L127.541441,494.378104 L127.380466,495.701447 C126.865344,499.380986 125.931687,506.191361 121.842911,507.385597 L118.655598,506.255914 L115.178529,495.540064 L114.470238,494.281274 L113.182434,494.991361 C112.345362,498.08992 114.019507,504.577528 117.20682,507.708363 L122.422423,509.354473 C126.736564,508.12796 128.281928,502.899142 128.99022,498.735453 C131.050705,504.383868 133.980457,511.420179 137.908257,511.161966 L138.230208,511.129689 C141.739472,510.516433 143.542397,505.448998 144.76581,500.768882 L148.275074,506.933724 L153.748238,509.548133 C157.901403,508.967153 160.444815,504.577528 161.732618,499.542369 C163.567738,505.061678 167.141392,509.612686 171.455533,509.548133 L171.680898,509.548133" id="Fill-1716" fill="#D6403E"></path>
            <path d="M126.412733,390.321614 L121.953137,388.578674 C119.56176,386.642075 117.331962,383.188473 116.039326,379.73487 C114.779006,383.930836 112.258365,389.095101 108.121928,389.127378 C102.854435,389.159654 99.8167395,381.736023 98.8472622,375.345245 L99.6874759,374.215562 L100.850849,375.054755 C101.723378,380.864553 104.405599,387.126225 108.121928,387.126225 L108.283508,387.126225 C112.193733,386.835735 114.908269,377.991931 114.940585,375.022478 L115.910062,374.021902 L116.944171,374.925648 C117.299646,378.992507 120.175762,384.544092 123.213458,387.029395 L126.412733,388.288184 C130.129062,387.836311 133.23139,381.47781 133.199074,374.376945 L134.071603,373.344092 L134.103919,373.344092 L135.170344,374.118732 C136.462981,379.573487 139.46836,385.964265 143.766376,385.964265 L147.030283,383.640346 C149.130817,380.50951 150.100294,375.442075 149.357028,373.602305 L149.906399,372.311239 L151.231351,372.827666 L152.136197,375.119308 C153.655044,378.927954 156.143369,385.383285 158.987169,385.447839 L159.084117,385.447839 C161.830969,385.254179 163.80224,376.055331 164.642453,372.085303 L165.094876,370.051873 L166.064353,369.277233 L167.033831,369.98732 L167.389306,371.213833 C168.358783,374.699712 170.136158,381.122767 174.240279,381.736023 L177.181026,380.21902 L179.152297,369.470893 L179.669351,368.179827 L180.994304,368.696254 C182.222308,371.568876 181.41441,378.024207 178.796822,381.445533 L173.949435,383.704899 C169.619103,383.091643 167.453938,378.250144 166.225933,374.344669 C164.965613,380.057637 163.058974,387.190778 159.245697,387.448991 L158.922538,387.448991 C155.464735,387.352161 153.073358,382.704323 151.263667,378.346974 L148.678394,384.737752 L143.766376,387.965418 C139.662256,387.965418 136.62456,384.059942 134.717922,379.412104 C133.683812,384.931412 130.807696,389.772911 126.638944,390.289337 L126.412733,390.321614" id="Fill-1717" fill="#D6403E"></path>
            <path d="M180.241199,536.310958 L183.982103,534.342082 C186.47604,531.630843 187.882876,526.240641 187.56314,520.301736 L186.508013,519.333436 L186.47604,519.333436 L185.516833,520.398566 C185.804595,525.724214 184.589601,530.662543 182.479347,532.921909 L179.793569,534.277529 C176.883977,534.309805 175.029511,528.693667 173.94241,525.336895 L173.238993,523.238912 L172.247813,522.561102 L171.32058,523.271189 L170.936897,524.336318 C169.721903,527.854474 167.25994,535.084445 163.646929,535.407212 L163.455088,535.407212 C159.362474,535.536318 155.941305,527.88675 154.918152,522.657932 L153.926972,521.818739 L152.903818,522.625655 L152.424215,525.143235 C151.528956,529.62969 150.441856,535.245828 146.924766,535.633148 L146.860819,535.633148 C142.640311,536.020468 138.451776,530.3075 137.108888,526.176088 L135.829946,525.530554 L135.158501,526.821621 C136.661258,531.534013 141.489263,538.215281 147.020686,537.698854 L147.14858,537.698854 C151.592903,537.182428 153.127633,531.921333 154.054866,527.305771 C155.845385,532.405482 159.106686,537.634301 163.519035,537.505194 C167.931384,537.343811 170.681109,531.211246 172.247813,526.789344 C173.622675,530.88848 175.668982,536.407788 179.825543,536.343235 L180.241199,536.310958" id="Fill-1718" fill="#D6403E"></path>
            <path d="M119.308721,328.866859 L115.590651,327.317579 C112.984824,324.929107 111.173457,319.893948 110.951009,314.18098 L111.872581,313.148127 L111.90436,313.148127 L112.921268,314.08415 C113.111938,319.216138 114.700857,323.8317 116.893564,325.832853 L119.562948,326.865706 C122.359444,326.639769 123.598801,321.088184 124.361482,317.763689 L124.838157,315.697983 L125.727952,314.987896 L126.681303,315.568876 L127.1262,316.569452 C128.588005,319.829395 131.543394,326.510663 135.039015,326.510663 L135.197907,326.478386 C139.106646,326.25245 141.712473,318.602882 142.220927,313.535447 L143.078943,312.6317 L144.127629,313.30951 L144.826753,315.665706 C146.06611,319.893948 147.591472,325.155043 150.959979,325.219597 L151.055314,325.219597 C155.059389,325.219597 158.586789,319.377522 159.476583,315.310663 L160.652383,314.536023 L161.383285,315.730259 C160.366377,320.378098 156.362302,327.220749 151.055314,327.220749 L150.928201,327.220749 C146.669899,327.123919 144.731418,322.217867 143.428505,317.892795 C142.189149,322.927954 139.551544,328.221326 135.32502,328.479539 C131.130275,328.737752 127.952438,323.089337 126.077514,319.022478 C125.155941,323.057061 123.662358,328.544092 119.690061,328.834582 L119.308721,328.866859" id="Fill-1719" fill="#D6403E"></path>
            <path d="M324.666243,493.085527 C311.901299,466.196294 275.261772,456.060876 247.089764,465.301052 C218.917755,474.541229 198.481112,502.485568 195.966323,532.124472 C193.4197,561.795349 207.903614,591.817929 231.300706,610.106443 C255.143456,628.714688 279.750193,638.178674 309.800335,641.120184 C304.770757,645.820204 296.016743,658.865159 282.837973,666.474716 C272.969812,672.165897 242.314847,668.776766 239.609061,688.631955 C239.036071,692.884354 245.020633,697.040835 249.127061,698.127914 C271.314507,703.915014 291.496488,694.610892 294.456937,692.724489 C312.124128,681.310154 358.377154,647.163067 350.005134,627.819446 C318.490684,554.761305 349.27298,544.913643 324.666243,493.085527" id="Fill-1720" fill="#E36A56"></path>
            <path d="M92.8300171,158.088333 C120.754191,101.882661 147.940139,107.313626 175.093991,106.927996 C202.247842,106.542365 235.082819,115.765366 256.395062,139.385245 C271.833599,156.513675 279.055368,180.808408 275.460532,203.592754 C271.865696,226.409237 257.486351,247.136886 237.586366,258.802214 C210.881868,274.452393 86.0255058,278.212292 63.0121351,210.244884 C58.6469769,197.358392 85.5440545,172.742299 92.8300171,158.088333" id="Fill-1721" fill="#E9896C"></path>
            <path d="M221.625264,181.591106 L217.573642,174.941119 C214.223875,171.29331 209.374689,169.453265 204.525503,168.48482 C195.369474,166.612493 185.383979,167.032153 177.153124,171.486999 C154.470418,183.753966 157.724477,208.029649 163.91357,213.937162 C170.102662,219.844675 179.003471,222.427194 187.489547,221.813846 C195.975622,221.232779 204.078867,217.714096 211.097426,212.80731 C216.329443,209.159501 221.210531,204.414121 223.092781,198.280638 C224.719811,192.825066 223.794637,186.852989 221.625264,181.591106" id="Fill-1722" fill="#EDB78D"></path>
            <path d="M113.418963,141.811153 C101.799367,136.242985 88.5982141,171.044037 93.3428827,177.583398 C95.0858222,179.979005 98.5394245,180.335109 102.799943,177.745263 C108.480635,174.313718 125.006283,147.411695 113.418963,141.811153" id="Fill-1723" fill="#EDB78D"></path>
            <path d="M78.6743516,191.300116 C127.95486,164.78567 131.468052,127.940505 135.620007,111.149089 C148.874324,105.935754 162.064765,107.119149 175.223267,106.927247 C196.110793,106.639394 220.319883,112.076615 240.057637,125.413797 C206.969752,132.418216 145.137565,183.943876 87.2018278,199.711816 C86.6588799,195.937745 82.8582444,193.155167 78.6743516,191.300116" id="Fill-1724" fill="#D95B47"></path>
            <path d="M99.6661347,156.913083 C100.989478,153.072161 104.313973,149.360345 107.638469,149.779942 C110.962965,150.199538 110.801581,154.653717 110.801581,154.653717 C111.318008,158.720576 110.349708,162.981094 108.154896,166.49925 L105.637316,168.984553 L99.8920713,166.40242 C98.8592183,164.401267 98.3105151,160.754005 99.6661347,156.913083" id="Fill-1725" fill="#17111C"></path>
            <path d="M255.803919,4.57812168 C259.257521,3.01144887 263.32438,20.9802268 265.196426,30.0285615 C266.229279,22.387035 268.294985,11.3563795 270.618904,4.03458213 C275.783169,15.0012918 273.330143,27.6945388 274.04023,35.6877674 C278.494408,30.8598573 279.914581,15.7686417 284.1751,17.527152 C289.016599,19.4774998 280.334178,57.3973762 264.615446,68.5878963 C263.001613,46.2388291 252.350316,6.14479448 255.803919,4.57812168" id="Fill-1726" fill="#B92442"></path>
            <path d="M257.307518,140.341023 C260.799271,144.310404 263.787708,148.699313 266.398659,153.314121 C280.397128,118.493293 277.912007,91.2562414 269.607297,54.4668588 C259.289324,62.9865053 247.146831,78.4122289 241.169957,90.5139995 C236.073885,100.873115 232.739418,110.264089 229.971182,119.525978 C240.068954,124.624857 249.474667,131.466391 257.307518,140.341023" id="Fill-1727" fill="#D84451"></path>
            <path d="M105.852863,8.44740634 C109.048252,7.72244236 114.922603,17.1469741 118.021162,25.4682997 C115.955456,17.1154539 113.88975,8.41588617 115.72952,0 C119.247675,11.1581412 120.764678,12.9232709 123.508194,25.342219 C124.476494,16.232889 126.025773,5.2323487 131.028655,5.95731268 C136.063814,6.68227666 129.285716,25.9726225 127.284563,54.4668588 C111.178511,38.9274135 102.657473,9.14085014 105.852863,8.44740634" id="Fill-1728" fill="#B92442"></path>
            <path d="M114.513304,126.322974 L114.610689,126.195247 L114.805457,126.035588 C126.394202,114.220824 137.853101,109.910032 149.279539,108.345374 C146.195699,86.6317546 136.359874,65.1097256 125.193128,46.3976945 C111.494387,71.9111977 112.241001,98.2549275 113.76669,127.089337 L114.513304,126.322974" id="Fill-1729" fill="#D84451"></path>
            <path d="M87.6102101,201.829652 L87.6102101,201.733221 C111.481928,201.476069 120.589611,213.337187 122.411148,219.605258 C124.360512,226.194768 121.803969,234.166468 115.796094,237.509439 L110.651051,239.341645 C102.949466,241.01313 94.6407025,239.727372 87.769994,235.80581 C79.2375327,230.887785 75.6583729,222.498214 72.6224784,212.694308 C78.6623106,212.115717 86.7473769,207.776284 87.6102101,201.829652" id="Fill-1730" fill="#EDB78D"></path>
            <path d="M75.8947231,188.777735 C81.9627347,190.585228 89.4186425,194.555257 88.5471727,200.590992 C87.482043,207.885516 75.5074033,212.856121 69.7298816,211.371395 C62.7904004,209.596179 54.4630229,198.654392 57.1419854,193.135084 C59.7886713,187.615775 69.2457318,186.776582 75.8947231,188.777735" id="Fill-1731" fill="#17111C"></path>
            <path d="M74.4461095,212.912968 C75.3821326,217.108934 76.7700288,221.111239 78.8357349,224.887608 L75.4789625,226.856484 C73.0904899,222.466859 71.4121037,217.851297 70.443804,212.945245 L74.4461095,212.912968" id="Fill-1732" fill="#17111C"></path>
            <path d="M193.475685,180.608075 C189.699316,179.446115 184.470498,184.31989 183.792688,188.128536 C183.405368,190.452455 182.953495,202.039775 189.311996,202.782138 C195.702774,203.556778 199.156377,197.779256 199.640527,190.646115 C200.0924,183.512974 197.252054,181.770034 193.475685,180.608075" id="Fill-1733" fill="#17111C"></path>
            <path d="M123.718053,359.206402 C111.341402,368.722227 90.3395715,375.987687 78.2835591,379.106049 C36.4081544,389.972091 16.8812619,390.16498 12.1037464,388.975502 C19.4143071,402.992054 34.7087696,428.324722 60.0392212,440.830316 C63.7586293,442.694903 67.8307398,443.755789 71.5822118,445.588228 C80.2073909,449.735327 87.2293768,467.834683 91.0770403,465.841503 C94.89264,463.848324 94.7002568,450.34614 97.233302,448.224369 L101.722243,446.263337 C107.42961,444.302306 111.501721,439.351505 114.611916,434.175668 C132.054657,404.985234 127.116822,378.463087 123.878372,359.07781 L123.718053,359.206402" id="Fill-1734" fill="#9D594A"></path>
            <path d="M79.7096472,296.556887 C67.5599462,296.876781 54.349557,300.843465 44.3533744,307.721184 C14.6862474,328.226382 9.67208505,342.877522 6.61858877,350.618954 C3.40438216,358.712269 -4.21328752,383.184151 12.1148821,388.846273 C16.8397658,390.029881 36.4142841,389.869934 78.5203907,379.025531 C90.6058076,375.92256 111.658861,368.692958 124.065698,359.224099 C133.290471,352.346381 127.569184,338.942827 124.772824,332.640917 C120.81935,323.843836 116.737307,316.518266 111.94814,310.50426 C104.426896,301.003412 91.8593482,296.236993 79.7096472,296.556887" id="Fill-1735" fill="#85853B"></path>
            <path d="M62.2375637,299.616225 C58.2675349,285.204175 70.2421747,271.330598 69.3384283,270.380353 L56.4923188,270.317003 C54.0715695,273.642861 48.5845378,287.611463 53.8779096,302.59366 L62.2375637,299.616225" id="Fill-1736" fill="#85853B"></path>
            <path d="M201.087317,309.858196 C190.207461,324.629745 183.367786,347.391938 161.989824,362.450004 C145.701853,373.910689 115.289157,380.596088 103.136803,385.212197 C69.9882371,397.787115 71.5152344,437.995017 88.3122045,441.624234 C98.9057482,443.916371 109.976479,421.249683 120.41096,418.448183 C143.252294,412.303982 170.420121,412.781511 191.448146,401.957531 C217.629787,388.459391 240.884683,363.564237 247.08811,349.206546 C262.421708,313.710259 215.816478,289.897503 201.087317,309.858196" id="Fill-1737" fill="#E36A56"></path>
        </g>
    </g>
</svg>