<?xml version="1.0" encoding="UTF-8"?>
<svg width="720px" height="720px" viewBox="0 0 720 720" version="1.1" xmlns="http://www.w3.org/2000/svg" xmlns:xlink="http://www.w3.org/1999/xlink">
    <!-- Generator: Sketch 64 (93537) - https://sketch.com -->
    <title>img_h</title>
    <desc>Created with Sketch.</desc>
    <g id="img_h" stroke="none" stroke-width="1" fill="none" fill-rule="evenodd">
        <g id="hedgehog" transform="translate(37.000000, 10.000000)">
            <path d="M73.4061296,373.395696 C70.291376,375.626931 66.150586,376.724259 62.3762376,377.16319 C69.3386279,361.178773 72.343449,348.815539 84.2161566,332.172724 C78.9027535,334.806312 73.5160621,336.269417 65.674212,335.940219 C77.6202079,322.991743 84.3993774,310.043267 98.8371761,296.107196 C94.659742,296.765593 90.4823078,297.680033 85.4987021,297.204524 C96.1255083,282.354013 102.355015,270.758909 117.269188,257.737278 C111.039681,260.334289 108.144793,260.77322 102.281727,262.346058 C109.757136,249.361004 118.331869,236.997771 127.895994,225.439244 C124.744597,225.80502 120.89696,225.622132 117.379121,224.341916 C126.906602,218.306609 137.496764,206.418885 152.007851,200.127535 C150.76195,199.871492 144.825596,200.932242 140.684806,199.871492 C146.987601,191.751261 165.456258,181.619262 175.936487,174.706093 C171.685765,176.059464 166.225785,176.937327 162.488081,177.229948 C170.623084,166.366396 188.542078,159.343494 200.341497,152.649791 C195.064738,153.930007 189.09174,153.344766 185.64719,151.991394 C199.791835,144.310095 208.513145,135.6412 227.348243,129.057229 C223.940336,128.728031 219.652969,127.155193 216.245063,126.825995 C229.400316,120.351757 237.462031,113.877519 257.762895,109.378473 C254.135123,109.049274 246.476494,108.683498 242.445636,107.147238 C257.359809,98.0759896 278.173692,92.9551236 295.506379,91.1628205 C289.240228,90.7970443 283.633671,87.7245247 277.36752,87.3587485 C291.695387,80.0798032 328.669343,78.5435434 338.160181,79.4214061 C333.39644,76.7878178 330.245042,74.7028938 326.580626,71.3011756 C342.300971,71.3743309 359.963455,68.9236307 378.212247,73.0569011 C375.86702,70.8988219 373.008776,66.9850171 372.019384,62.3762376 C386.164029,66.6923962 408.736831,71.3743309 419.363638,77.0804388 C417.53143,73.7518758 415.662577,70.4233129 413.830369,67.1313275 C422.771544,71.8132622 441.899795,78.4338105 448.862186,82.9328571 C447.57964,80.2992689 447.286487,77.4462149 446.993334,73.8616087 C455.824576,79.1653628 467.110977,90.4678458 475.942219,95.7350223 C475.722355,92.8453907 475.24598,91.0530876 475.319269,87.4684814 C484.260444,95.1132028 491.882429,104.221029 497.965359,114.243295 L499.46777,102.611614 C501.812996,103.050545 510.277797,126.387063 512.32987,130.812955 L517.240187,122.180638 C523.396406,138.457676 524.422442,164.135162 524.422442,164.135162 C519.768634,157.331726 508.921963,154.368939 501.519843,152.796101 L506.100363,160.221357 C488.034792,157.916967 475.758999,162.818368 466.561315,162.964678 L471.728141,166.76875 C445.234414,173.645342 439.407993,177.705457 427.095555,187.069326 L435.816865,189.520027 C407.600862,199.798336 398.586399,209.235361 385.431146,220.025757 C389.095562,220.391533 392.796622,220.793887 396.461038,221.159663 C378.395467,230.230912 365.533368,245.666665 360.329897,252.470102 C363.811092,253.238232 368.061815,253.530852 370.407041,252.506679 C354.356899,262.236325 338.380045,273.35592 331.747453,283.817117 L340.688628,284.109738 C318.299046,296.50955 307.892105,312.640278 307.562308,314.505736 L317.492875,314.76178 C304.264333,325.808219 298.547844,336.342572 291.10908,346.694037 L299.134151,345.852752 C287.078222,359.825401 281.838108,376.833992 273.043509,393.367074 L282.937432,391.903969 C273.886325,402.730943 271.394522,409.570957 262.306771,420.397931 L271.614387,419.264025 C263.039654,430.127577 257.469742,448.087185 253.182375,458.402073 C256.626926,458.877582 260.218054,458.219185 263.259519,456.573192 C255.490957,469.777711 250.324131,481.372815 247.612463,496.442792 L253.585461,494.979688 C248.015549,504.928799 247.978904,519.011181 247.685751,530.386819 L255.344381,527.789808 C246.87958,546.407814 251.093658,556.210615 248.491923,571.31717 C252.486136,569.15909 254.025191,568.793314 255.930687,564.660044 C256.077264,576.950122 260.584495,587.338165 263.662605,599.22589 C265.201659,596.482569 267.363665,593.958713 267.1438,589.788865 C270.808216,602.078944 277.733962,606.285369 283.047365,614.515333 L283.670316,606.065904 C291.292301,617.807318 304.191045,631.048415 306.316406,631.084992 L305.400302,621.867433 C311.043503,629.182956 322.659701,640.046508 331.19779,643.631114 L330.31833,635.145107 C339.47937,642.021699 350.655839,642.350898 356.225751,644.399244 L353.917169,636.02297 C368.831342,643.155605 373.92488,641.180414 387.153422,644.545554 L382.829411,635.547461 C391.440788,639.570999 405.585434,641.729078 413.463928,643.448226 L408.260457,636.279013 C417.897871,638.437093 430.210309,636.973988 438.162091,637.851851 C436.110018,634.852487 432.958621,632.584674 428.781186,631.048415 C433.728148,629.841353 442.302881,626.659101 445.19777,625.561772 C445.894009,633.901469 430.173665,641.911966 423.724292,645.021063 C431.01648,645.606305 434.974049,648.569092 434.314455,648.678825 C425.959586,649.776153 413.427284,653.36076 399.099417,650.507706 L403.130275,657.274564 C403.130275,657.384297 380.00781,658.335315 364.727196,654.055734 L372.532402,660.383662 C365.460079,661.48099 346.551693,659.908153 338.233469,657.896384 C342.300971,659.79842 344.975994,663.712225 345.928742,665.577683 C337.500586,665.797149 322.879566,665.102174 309.101362,661.224947 L313.388729,669.966997 C306.096541,668.321004 281.801464,662.834362 272.60378,656.616167 L275.901754,665.650838 C262.489992,661.919921 245.230593,653.36076 232.69829,647.325453 L235.666467,656.469857 C233.944191,657.676918 206.241207,644.252934 195.541113,632.877295 C197.336676,637.486075 196.603793,640.814638 196.457217,644.326089 C188.432146,639.205223 175.826555,632.694407 167.288466,623.659736 L167.984705,635.437728 C159.666481,631.999433 146.877669,614.039824 142.590302,606.139059 C143.35983,610.455217 143.616339,615.17373 142.077284,617.807318 C132.806312,610.747838 121.629843,594.690265 116.389728,584.265645 C117.452409,588.80127 114.154435,594.141601 111.772564,596.958078 C109.573915,596.555724 102.208439,566.196304 100.852605,553.394138 L93.4504847,559.392867 C90.7754611,546.151771 87.1110452,523.985736 87.2576218,510.452019 C86.5613828,513.890314 82.6404577,519.011181 79.1959067,521.754502 C76.9972572,520.291397 77.4736313,482.06779 78.6462444,465.534708 C75.6047791,470.655574 71.6105658,475.227776 66.9201134,478.922115 C65.8207886,456.573192 69.7783578,434.260847 75.1650492,412.570322 C72.4533814,415.277065 68.898898,417.252256 65.3810587,418.386162 C68.0560823,403.462495 67.4331316,391.684503 73.4061296,373.395696" id="Fill-463" fill="#6B5255"></path>
            <path d="M493.834983,124.456766 C489.39934,120.205941 483.817822,117.248845 478.384158,114.476568 L480.343234,111.186799 C486.072607,114.069967 491.875908,117.248845 496.533333,121.721452 L493.834983,124.456766" id="Fill-464" fill="#483241"></path>
            <path d="M488.90033,137.948515 C483.09703,136.10033 477.182838,134.69571 471.120792,133.734653 L472.155776,130.038284 C478.180858,130.99934 484.09505,132.40396 489.935314,134.252145 L488.90033,137.948515" id="Fill-465" fill="#483241"></path>
            <path d="M466.333993,149.099936 C474.207261,147.547461 482.117492,147.14086 490.10165,147.917098 L490.10165,151.761322 C482.450165,150.985085 474.909571,151.317758 467.332013,152.796306 L466.333993,149.099936" id="Fill-466" fill="#483241"></path>
            <path d="M447.667327,94.0910891 C441.716172,90.0250825 435.358416,86.7722772 428.29835,85.1828383 L429.333333,81.4864686 C436.689109,83.1128713 443.379538,86.5135314 449.589439,90.7643564 L447.667327,94.0910891" id="Fill-467" fill="#483241"></path>
            <path d="M420.036964,99.09967 C428.316832,99.580198 436.30099,102.019802 443.989439,105.124752 L442.954455,108.821122 C435.635644,105.864026 427.984158,103.424422 420.036964,102.906931 L420.036964,99.09967" id="Fill-468" fill="#483241"></path>
            <path d="M438.278548,125.327445 C430.737954,123.811933 423.19736,122.850877 415.508911,123.738006 L415.508911,119.893782 C423.530033,118.969689 431.440264,120.0786 439.276568,121.631075 L438.278548,125.327445" id="Fill-469" fill="#483241"></path>
            <path d="M413.291089,136.997393 C419.648845,136.221155 425.932673,136.184191 432.253465,136.886502 L432.253465,140.693762 C425.932673,140.028416 419.648845,140.06538 413.291089,140.841617 L413.291089,136.997393" id="Fill-470" fill="#483241"></path>
            <path d="M411.812541,156.726073 C419.057426,155.062706 426.30231,154.064686 433.732013,153.768977 L433.732013,157.576238 C426.671947,157.908911 419.722772,158.833003 412.847525,160.422442 L411.812541,156.726073" id="Fill-471" fill="#483241"></path>
            <path d="M414.862046,175.79934 C421.034983,172.250825 427.50363,169.441584 434.30495,167.408581 L435.30297,171.10495 C428.834323,173.064026 422.69835,175.725413 416.821122,179.126073 L414.862046,175.79934" id="Fill-472" fill="#483241"></path>
            <path d="M377.343894,90.092137 C369.137954,88.8353714 360.747195,88.1330611 352.689109,90.461774 L351.654125,86.7284407 C360.414521,84.251873 369.507591,85.0281106 378.378878,86.3957674 L377.343894,90.092137" id="Fill-473" fill="#483241"></path>
            <path d="M376.715512,105.817157 C369.174917,104.856101 361.782178,104.893065 354.315512,106.556431 L353.317492,102.860061 C361.079868,101.159731 368.805281,100.974913 376.715512,101.972933 L376.715512,105.817157" id="Fill-474" fill="#483241"></path>
            <path d="M373.629043,121.37649 C366.642904,120.341507 358.547855,121.043817 351.820462,123.150748 L350.785479,119.454378 C358.215182,117.125665 367.012541,116.534246 374.627063,117.680121 L373.629043,121.37649" id="Fill-475" fill="#483241"></path>
            <path d="M348.863366,137.80066 C356.477888,136.469967 364.166337,135.767657 371.928713,135.730693 L371.928713,139.574917 C364.49901,139.574917 357.180198,140.2033 349.861386,141.49703 L348.863366,137.80066" id="Fill-476" fill="#483241"></path>
            <path d="M349.584158,160.293069 C358.011881,156.781518 366.735314,155.192079 375.828383,154.822442 L375.828383,158.666667 C367.031023,158.99934 358.714191,160.588779 350.582178,163.989439 L349.584158,160.293069" id="Fill-477" fill="#483241"></path>
            <path d="M356.348515,183.80198 C363.038944,180.216502 370.690429,177.887789 378.30495,177.887789 L378.30495,181.732013 C371.355776,181.732013 364.369637,183.838944 358.270627,187.128713 L356.348515,183.80198" id="Fill-478" fill="#483241"></path>
            <path d="M365.737294,207.329373 C371.429703,202.043564 378.785479,198.162376 386.363036,196.572937 L387.39802,200.269307 C380.448845,201.747855 373.684488,205.185479 368.435644,210.027723 L365.737294,207.329373" id="Fill-479" fill="#483241"></path>
            <path d="M331.767657,245.032343 C337.312211,239.635644 343.780858,235.421782 351.062706,232.79736 L352.060726,236.493729 C345.444224,238.89637 339.530033,242.851485 334.50297,247.730693 L331.767657,245.032343" id="Fill-480" fill="#483241"></path>
            <path d="M342.228383,221.375578 C336.425083,222.706271 330.252145,226.624422 325.816502,230.505611 L323.118152,227.807261 C328.071287,223.445545 334.724752,219.157756 341.193399,217.679208 L342.228383,221.375578" id="Fill-481" fill="#483241"></path>
            <path d="M331.490429,202.671947 C324.763036,205.037624 318.442244,208.031683 312.712871,212.245545 L310.753795,208.955776 C316.778878,204.520132 323.469307,201.415182 330.455446,198.975578 L331.490429,202.671947" id="Fill-482" fill="#483241"></path>
            <path d="M323.155116,181.658086 C316.021122,183.949835 309.219802,187.017822 303.342574,191.675248 L300.607261,188.976898 C307.038944,183.875908 314.320792,180.475248 322.120132,177.961716 L323.155116,181.658086" id="Fill-483" fill="#483241"></path>
            <path d="M316.834323,159.99736 C309.145875,161.106271 302.085809,164.063366 295.025743,167.131353 L293.066667,163.80462 C300.422442,160.625743 307.815182,157.446865 315.79934,156.30099 L316.834323,159.99736" id="Fill-484" fill="#483241"></path>
            <path d="M313.747855,136.968977 C306.79868,138.669307 299.627723,140.184818 293.491749,143.955116 L291.532673,140.628383 C298.00132,136.673267 305.467987,135.046865 312.749835,133.272607 L313.747855,136.968977" id="Fill-485" fill="#483241"></path>
            <path d="M284.823762,121.388779 C291.551155,118.727393 298.463366,116.620462 305.560396,115.178878 L306.59538,118.875248 C299.49835,120.316832 292.586139,122.423762 285.821782,125.085149 L284.823762,121.388779" id="Fill-486" fill="#483241"></path>
            <path d="M304.229703,101.09571 C297.354455,102.722112 290.479208,104.311551 283.566997,105.90099 L282.568977,102.20462 C289.444224,100.615182 296.319472,99.0257426 303.194719,97.3993399 L304.229703,101.09571" id="Fill-487" fill="#483241"></path>
            <path d="M317.776898,281.312211 C311.677888,287.189439 305.578878,293.066667 299.442904,298.980858 L296.744554,296.245545 C302.843564,290.368317 308.942574,284.491089 315.078548,278.576898 L317.776898,281.312211" id="Fill-488" fill="#483241"></path>
            <path d="M303.767657,268.245545 C297.372937,271.683168 291.347855,275.638284 285.766337,280.258746 L283.031023,277.560396 C288.908251,272.718152 295.155116,268.50429 301.845545,264.955776 L303.767657,268.245545" id="Fill-489" fill="#483241"></path>
            <path d="M293.750495,250.983498 C286.468647,255.714851 279.186799,260.446205 271.867987,265.177558 L269.945875,261.850825 C277.227723,257.156436 284.546535,252.425083 291.828383,247.693729 L293.750495,250.983498" id="Fill-490" fill="#483241"></path>
            <path d="M281.386139,230.09901 C274.510891,234.719472 267.783498,239.524752 261.130033,244.514851 L259.207921,241.188119 C265.824422,236.234983 272.588779,231.392739 279.464026,226.772277 L281.386139,230.09901" id="Fill-491" fill="#483241"></path>
            <path d="M269.576238,212.208581 C263.218482,216.939934 256.638944,221.338614 249.874587,225.441584 L247.915512,222.114851 C254.716832,218.011881 261.259406,213.613201 267.654125,208.881848 L269.576238,212.208581" id="Fill-492" fill="#483241"></path>
            <path d="M261.462706,192.155776 C253.626403,195.29769 246.344554,199.363696 239.506271,204.279868 L237.547195,200.990099 C244.681188,195.852145 252.29571,191.712211 260.427723,188.459406 L261.462706,192.155776" id="Fill-493" fill="#483241"></path>
            <path d="M229.193399,181.362376 C236.031683,177.518152 243.091749,174.154455 250.336634,171.123432 L251.334653,174.819802 C244.422442,177.70297 237.69505,180.992739 231.152475,184.652145 L229.193399,181.362376" id="Fill-494" fill="#483241"></path>
            <path d="M244.644224,157.871947 C237.473267,161.013861 230.59802,164.673267 223.981518,168.850165 L222.022442,165.523432 C228.638944,161.346535 235.514191,157.687129 242.685149,154.582178 L244.644224,157.871947" id="Fill-495" fill="#483241"></path>
            <path d="M239.339934,141.922112 C231.466667,143.659406 222.040924,147.060066 216.20066,152.863366 L213.465347,150.165017 C219.786139,143.881188 229.840264,140.073927 238.341914,138.225743 L239.339934,141.922112" id="Fill-496" fill="#483241"></path>
            <path d="M285.027063,334.410561 C280.924092,340.066007 276.821122,345.684488 272.718152,351.339934 L269.428383,349.380858 C273.531353,343.762376 277.634323,338.106931 281.737294,332.488449 L285.027063,334.410561" id="Fill-497" fill="#483241"></path>
            <path d="M256.343234,338.532013 C259.817822,333.726733 263.588119,329.180198 267.691089,324.892409 L270.389439,327.590759 C266.508251,331.656766 262.959736,335.907591 259.669967,340.454125 L256.343234,338.532013" id="Fill-498" fill="#483241"></path>
            <path d="M257.378218,315.152475 C252.905611,319.772937 248.765677,324.652145 244.921452,329.790099 L241.631683,327.867987 C245.623762,322.434323 249.948515,317.29637 254.642904,312.454125 L257.378218,315.152475" id="Fill-499" fill="#483241"></path>
            <path d="M227.123432,316.205941 C231.59604,310.587459 236.364356,305.264686 241.428383,300.20066 L244.163696,302.935974 C239.062706,308 234.294389,313.322772 229.821782,318.941254 L227.123432,316.205941" id="Fill-500" fill="#483241"></path>
            <path d="M212.356436,303.213201 C217.346535,296.966337 222.706271,291.052145 228.472607,285.507591 L231.207921,288.205941 C225.441584,293.787459 220.044884,299.664686 215.054785,305.911551 L212.356436,303.213201" id="Fill-501" fill="#483241"></path>
            <path d="M220.081848,271.590759 C214.056766,277.467987 208.40132,283.677888 203.078548,290.183498 L200.380198,287.485149 C205.70297,280.942574 211.358416,274.769637 217.346535,268.892409 L220.081848,271.590759" id="Fill-502" fill="#483241"></path>
            <path d="M208.271947,256.842244 C202.616502,261.906271 197.145875,267.155116 191.786139,272.588779 L189.087789,269.853465 C194.410561,264.419802 199.918152,259.207921 205.573597,254.143894 L208.271947,256.842244" id="Fill-503" fill="#483241"></path>
            <path d="M198.291749,240.541254 C191.379538,245.642244 184.873927,251.223762 178.70099,257.174917 L175.965677,254.476568 C182.39736,248.266667 189.19868,242.537294 196.369637,237.214521 L198.291749,240.541254" id="Fill-504" fill="#483241"></path>
            <path d="M159.664686,241.834983 C165.837624,234.811881 172.454125,228.232343 179.551155,222.09637 L182.249505,224.794719 C175.189439,230.930693 168.535974,237.510231 162.363036,244.570297 L159.664686,241.834983" id="Fill-505" fill="#483241"></path>
            <path d="M146.30231,222.613861 C152.216502,215.812541 158.759076,209.750495 165.966997,204.390759 L167.889109,207.680528 C160.976898,212.892409 154.693069,218.769637 149.037624,225.312211 L146.30231,222.613861" id="Fill-506" fill="#483241"></path>
            <path d="M252.184818,408.910891 C255.178878,403.329373 258.690429,398.117492 262.608581,393.127393 L265.306931,395.825743 C261.610561,400.557096 258.357756,405.584158 255.474587,410.833003 L252.184818,408.910891" id="Fill-507" fill="#483241"></path>
            <path d="M235.662046,402.460726 C238.582178,396.324752 242.278548,390.780198 246.788119,385.716172 L249.486469,388.414521 C245.19868,393.256766 241.761056,398.542574 238.988779,404.382838 L235.662046,402.460726" id="Fill-508" fill="#483241"></path>
            <path d="M236.475248,378.877888 C232.409241,385.679208 228.343234,392.480528 224.277228,399.281848 L220.950495,397.359736 C225.016502,390.558416 229.082508,383.757096 233.148515,376.955776 L236.475248,378.877888" id="Fill-509" fill="#483241"></path>
            <path d="M207.772937,386.159736 C210.988779,380.245545 214.79604,374.774917 219.231683,369.636964 L221.930033,372.372277 C217.716172,377.214521 214.167657,382.463366 211.09967,388.118812 L207.772937,386.159736" id="Fill-510" fill="#483241"></path>
            <path d="M193.209241,377.362376 C196.609901,369.673927 200.712871,362.355116 205.444224,355.368977 L208.770957,357.328053 C204.00264,364.277228 199.936634,371.59604 196.49901,379.284488 L193.209241,377.362376" id="Fill-511" fill="#483241"></path>
            <path d="M192.10033,351.266007 C187.29505,355.99736 183.561716,361.431023 180.826403,367.60396 L177.536634,365.681848 C180.382838,359.213201 184.337954,353.483828 189.40198,348.567657 L192.10033,351.266007" id="Fill-512" fill="#483241"></path>
            <path d="M178.534653,336.462046 C173.655446,341.969637 170.254785,348.327393 166.706271,354.685149 L163.379538,352.763036 C167.112871,346.109571 170.735314,339.493069 175.79934,333.763696 L178.534653,336.462046" id="Fill-513" fill="#483241"></path>
            <path d="M148.316832,339.493069 C152.530693,332.248185 157.557756,325.520792 163.139274,319.273927 L165.874587,321.972277 C160.477888,327.99736 155.672607,334.429043 151.606601,341.452145 L148.316832,339.493069" id="Fill-514" fill="#483241"></path>
            <path d="M151.865347,307.408581 C146.542574,314.025083 141.663366,320.678548 137.930033,328.293069 L134.6033,326.370957 C138.521452,318.460726 143.659406,311.548515 149.130033,304.710231 L151.865347,307.408581" id="Fill-515" fill="#483241"></path>
            <path d="M139.334653,296.781518 C134.89901,302.621782 130.537294,308.425083 127.321452,315.041584 L124.031683,313.119472 C127.210561,306.466007 131.609241,300.69967 136.044884,294.859406 L139.334653,296.781518" id="Fill-516" fill="#483241"></path>
            <path d="M125.713531,285.119472 C121.277888,291.070627 117.10099,297.243564 113.256766,303.60132 L109.930033,301.642244 C113.811221,295.284488 117.951155,289.148515 122.423762,283.19736 L125.713531,285.119472" id="Fill-517" fill="#483241"></path>
            <path d="M248.617822,459.236964 C246.69571,465.964356 245.328053,472.691749 244.99538,479.714851 L241.151155,479.714851 C241.483828,472.359076 242.925413,465.29901 244.921452,458.238944 L248.617822,459.236964" id="Fill-518" fill="#483241"></path>
            <path d="M233.130033,454.967657 C230.690429,461.362376 228.990099,467.978878 228.139934,474.780198 L224.29571,474.780198 C225.219802,467.609241 226.883168,460.69703 229.433663,453.932673 L233.130033,454.967657" id="Fill-519" fill="#483241"></path>
            <path d="M208.050165,471.009901 C208.974257,463.247525 210.711551,455.780858 213.335974,448.462046 L217.032343,449.460066 C214.518812,456.446205 212.781518,463.617162 211.894389,471.009901 L208.050165,471.009901" id="Fill-520" fill="#483241"></path>
            <path d="M198.513531,444.488449 C196.073927,451.770297 194.336634,459.163036 193.30165,466.740594 L189.605281,465.742574 C190.640264,458.128053 192.377558,450.735314 194.817162,443.490429 L198.513531,444.488449" id="Fill-521" fill="#483241"></path>
            <path d="M180.918812,437.040264 C177.99868,444.654785 175.669967,452.417162 173.932673,460.364356 L170.236304,459.366337 C171.973597,451.382178 174.30231,443.619802 177.222442,436.005281 L180.918812,437.040264" id="Fill-522" fill="#483241"></path>
            <path d="M166.706271,432.105611 C164.081848,439.941914 162.011881,447.926073 160.422442,456.058086 L156.726073,455.023102 C158.315512,446.891089 160.385479,438.943894 162.972937,431.070627 L166.706271,432.105611" id="Fill-523" fill="#483241"></path>
            <path d="M148.021122,425.655446 C144.583498,433.233003 142.661386,441.217162 142.254785,449.533993 L138.447525,449.533993 C138.854125,440.514851 140.961056,431.939274 144.694389,423.733333 L148.021122,425.655446" id="Fill-524" fill="#483241"></path>
            <path d="M132.052805,418.854125 C129.243564,426.246865 127.173597,433.787459 125.768977,441.586799 L122.072607,440.588779 C123.440264,432.789439 125.547195,425.211881 128.356436,417.819142 L132.052805,418.854125" id="Fill-525" fill="#483241"></path>
            <path d="M113.663366,410.833003 C110.373597,417.523432 108.192739,424.583498 107.305611,432.013201 L103.49835,432.013201 C104.459406,423.881188 106.714191,416.229703 110.373597,408.910891 L113.663366,410.833003" id="Fill-526" fill="#483241"></path>
            <path d="M97.639604,400.741914 C94.349835,408.060726 92.1320132,415.675248 90.8752475,423.622442 L87.1788779,422.587459 C88.509571,414.307591 90.9122112,406.434323 94.349835,398.819802 L97.639604,400.741914" id="Fill-527" fill="#483241"></path>
            <path d="M82.0963696,392.147855 C80.7656766,397.470627 79.619802,402.793399 78.6957096,408.190099 L74.9993399,407.155116 C75.9234323,401.758416 77.0693069,396.435644 78.4,391.149835 L82.0963696,392.147855" id="Fill-528" fill="#483241"></path>
            <path d="M237.748092,516.918812 C236.897927,525.013861 236.971855,533.071947 237.969875,541.166997 L234.12565,541.166997 C233.12763,533.071947 233.053703,525.013861 233.903868,516.918812 L237.748092,516.918812" id="Fill-529" fill="#483241"></path>
            <path d="M220.766745,516.678548 C220.729781,524.958416 221.173346,533.20132 222.023511,541.407261 L218.179286,541.407261 C217.329121,533.20132 216.885557,524.958416 216.922521,516.678548 L220.766745,516.678548" id="Fill-530" fill="#483241"></path>
            <path d="M198.883168,536.749835 C198.883168,530.059406 198.994059,523.368977 199.252805,516.715512 L203.09703,516.715512 C202.838284,523.368977 202.727393,530.059406 202.727393,536.749835 L198.883168,536.749835" id="Fill-531" fill="#483241"></path>
            <path d="M183.050332,535.89967 C182.348021,528.211221 182.384985,520.5967 183.23515,512.945215 L187.079375,512.945215 C186.22921,520.5967 186.155282,528.211221 186.894556,535.89967 L183.050332,535.89967" id="Fill-532" fill="#483241"></path>
            <path d="M167.769976,508.675908 C167.437302,517.658086 167.991758,526.566337 168.841923,535.548515 L164.997698,535.548515 C164.184497,526.566337 163.593078,517.658086 163.925751,508.675908 L167.769976,508.675908" id="Fill-533" fill="#483241"></path>
            <path d="M151.810591,507.807261 C151.071317,515.49571 151.367027,523.147195 152.734684,530.761716 L149.038314,531.7967 C147.59673,523.812541 147.227093,515.865347 147.966367,507.807261 L151.810591,507.807261" id="Fill-534" fill="#483241"></path>
            <path d="M135.36441,505.238284 C134.994773,513.111551 135.401374,520.873927 136.584212,528.710231 L132.850879,529.745215 C131.668041,521.576238 131.150549,513.481188 131.520186,505.238284 L135.36441,505.238284" id="Fill-535" fill="#483241"></path>
            <path d="M116.782264,503.112871 C116.523518,510.875248 116.967083,518.563696 118.149921,526.252145 L114.453551,527.250165 C113.196786,519.266007 112.679294,511.244884 112.93804,503.112871 L116.782264,503.112871" id="Fill-536" fill="#483241"></path>
            <path d="M100.393399,499.89703 C100.541254,506.735314 101.09571,513.49967 102.130693,520.227063 L98.4343234,521.225083 C97.3623762,514.165017 96.6970297,507.067987 96.5491749,499.89703 L100.393399,499.89703" id="Fill-537" fill="#483241"></path>
            <path d="M240.042244,577.79802 C240.374917,583.749175 242.149175,589.256766 244.293069,594.764356 L240.5967,595.79934 C238.30495,589.959076 236.530693,584.081848 236.234983,577.79802 L240.042244,577.79802" id="Fill-538" fill="#483241"></path>
            <path d="M223.574917,575.672607 C224.683828,582.843564 226.384158,589.90363 228.306271,596.926733 L224.609901,597.924752 C222.687789,590.938614 220.987459,583.878548 219.878548,576.670627 L223.574917,575.672607" id="Fill-539" fill="#483241"></path>
            <path d="M207.440264,578.962376 C208.586139,585.467987 210.138614,591.89967 212.09769,598.220462 L208.40132,599.255446 C206.442244,592.89769 204.889769,586.50297 203.743894,579.99736 L207.440264,578.962376" id="Fill-540" fill="#483241"></path>
            <path d="M189.919472,599.033663 C187.479868,592.60198 185.964356,586.022442 185.262046,579.184158 L189.069307,579.184158 C189.771617,585.689769 191.324092,591.89967 193.615842,597.99868 L189.919472,599.033663" id="Fill-541" fill="#483241"></path>
            <path d="M170.809241,579.332013 C170.883168,585.615842 172.509571,592.084488 174.949175,597.850825 L171.252805,598.885809 C168.665347,592.786799 167.038944,585.985479 166.965017,579.332013 L170.809241,579.332013" id="Fill-542" fill="#483241"></path>
            <path d="M152.087129,579.405941 C152.678548,585.467987 154.231023,591.308251 156.707591,596.889769 L153.380858,598.811881 C150.645545,592.60198 148.945215,586.207261 148.242904,579.405941 L152.087129,579.405941" id="Fill-543" fill="#483241"></path>
            <path d="M135.989439,581.494389 C136.543894,587.70429 137.985479,593.692409 140.425083,599.421782 L137.135314,601.343894 C134.4,594.949175 132.736634,588.406601 132.182178,581.494389 L135.989439,581.494389" id="Fill-544" fill="#483241"></path>
            <path d="M273.808581,631.450825 C270.333993,627.126073 267.081188,622.653465 264.087129,617.99604 L267.413861,616.073927 C270.223102,620.435644 273.254125,624.649505 276.506931,628.715512 L273.808581,631.450825" id="Fill-545" fill="#483241"></path>
            <path d="M250.743234,619.770297 C253.737294,624.871287 257.174917,629.639604 260.834323,634.29703 L258.135974,636.99538 C254.254785,632.116172 250.558416,627.089109 247.416502,621.692409 L250.743234,619.770297" id="Fill-546" fill="#483241"></path>
            <path d="M233.056106,625.79538 C235.680528,629.861386 238.526733,633.742574 241.557756,637.512871 L238.822442,640.211221 C235.606601,636.219142 232.538614,632.042244 229.729373,627.754455 L233.056106,625.79538" id="Fill-547" fill="#483241"></path>
            <path d="M215.99736,629.10363 C218.917492,632.652145 222.133333,635.867987 225.644884,638.788119 L222.946535,641.523432 C219.39802,638.566337 216.182178,635.350495 213.29901,631.80198 L215.99736,629.10363" id="Fill-548" fill="#483241"></path>
            <path d="M309.441584,650.468647 C303.933993,648.361716 299.091749,645.40462 294.80396,641.338614 L297.539274,638.640264 C301.346535,642.225743 305.59736,644.924092 310.476568,646.772277 L309.441584,650.468647" id="Fill-549" fill="#483241"></path>
            <path d="M291.144554,649.064026 C294.582178,651.540594 298.20462,653.425743 302.1967,654.793399 L301.19868,658.526733 C296.873927,657.048185 292.918812,655.052145 289.222442,652.390759 L291.144554,649.064026" id="Fill-550" fill="#483241"></path>
            <path d="M428.265882,611.054928 C435.160861,593.155154 468.510789,588.826929 474.752559,599.464091 C481.357224,610.798169 470.797019,655.620965 475.333189,663.103658 C479.86936,670.586351 488.796544,669.485955 489.667489,676.34509 C490.828748,685.331657 481.683828,686.138614 479.615334,686.138614 C471.232491,686.101934 462.740779,686.395373 454.648251,684.3413 C446.519433,682.287228 438.608351,677.445486 435.088283,669.779394 C433.564129,666.404846 424.600656,620.481654 428.265882,611.054928" id="Fill-551" fill="#B58865"></path>
            <path d="M487.413314,406.77289 C521.303392,411.908603 544.280346,439.106185 549.62555,478.311209 C552.075435,496.177705 532.327876,498.709395 527.13115,488.112465 C515.512755,464.459249 503.560284,461.638224 480.768928,457.515186 C458.014692,453.428315 464.659077,403.300858 487.413314,406.77289" id="Fill-552" fill="#B58865"></path>
            <path d="M526.245745,165.102987 C522.229188,157.30673 510.362087,154.158946 502.548057,152.475248 L507.112327,159.905483 C489.110847,157.599548 476.878605,162.504235 467.713552,162.650643 L472.862048,166.457266 C446.462312,173.338469 440.656561,177.401307 428.387805,186.771455 L437.078174,189.223799 C408.962273,199.509001 399.979791,208.952354 386.871208,219.749986 C390.522624,220.116007 394.210554,220.518631 397.86197,220.884652 C379.86049,229.961984 367.044021,245.408088 361.859011,252.216087 C365.327856,252.984732 369.563498,253.277549 371.900404,252.252689 C355.907203,261.988859 339.987031,273.11591 333.377969,283.584123 L342.287423,283.87694 C319.977273,296.285067 309.607253,312.426612 309.278625,314.293321 L319.173962,314.549536 C305.992351,325.603383 300.296143,336.1448 292.883769,346.503207 L300.880369,345.661357 C288.867212,359.643376 283.645687,376.663372 274.882289,393.207541 L284.741112,391.743455 C275.722115,402.577689 273.239152,409.42229 264.183642,420.256524 L273.458237,419.121858 C264.913925,429.992694 259.363773,447.964346 255.091616,458.286151 C258.523947,458.761979 262.102335,458.10314 265.13301,456.456044 C257.392008,469.669417 252.243512,481.272296 249.50495,496.352379 L255.493272,494.888294 C249.94312,504.844076 249.906606,518.935901 249.614493,530.319168 L257.245952,527.720416 C248.811182,546.350906 253.01031,556.160281 250.417804,571.276966 C254.397848,569.117439 255.931442,568.751418 257.830178,564.615376 C257.976235,576.913696 262.467476,587.308704 265.534665,599.204401 C267.06826,596.45924 269.222595,593.933692 269.00351,589.761048 C272.654926,602.059368 279.556102,606.268614 284.850654,614.504096 L285.471395,606.049001 C293.06634,617.798289 305.919323,631.048265 308.037144,631.084867 L307.12429,621.861127 C312.783984,629.181555 324.322458,640.052392 332.830256,643.639402 L331.953917,635.147705 C341.082456,642.028908 352.219274,642.358327 357.769425,644.408047 L355.469034,636.026156 C370.330295,643.163574 375.405763,641.187058 388.587374,644.554455 L384.278703,635.550328 C392.85953,639.576564 406.953995,641.73609 414.804538,643.456391 L409.619528,636.282371 C419.222751,638.441898 431.491508,636.977812 439.41508,637.856263 C437.370287,634.854888 434.23007,632.585555 430.067456,631.048265 C436.055778,629.584179 447.484709,625.15532 447.484709,625.15532 C511.822653,596.752057 517.847489,512.493924 514.999385,481.052684 C509.120605,416.266891 518.760343,350.895464 524.27398,343.538433 C552.681994,334.241489 619.612444,297.785754 635.313531,233.585596 C585.873363,248.84869 547.204871,221.214072 526.245745,165.102987" id="Fill-553" fill="#C09570"></path>
            <path d="M514.296777,480.638671 C508.964752,421.833448 516.4515,362.663203 522.002649,346.967209 L522.112211,346.602186 C522.112211,346.602186 499.031116,317.473342 442.86225,343.462988 C424.455807,351.968026 409.737957,366.787964 397.978285,383.287008 C371.427722,420.44636 355.102961,465.526714 355.796854,511.154602 C356.052499,527.507637 358.535908,544.152691 365.986135,558.717113 C372.048575,570.507359 381.178754,580.581997 391.769763,588.612505 C413.42655,605.038545 462.912125,609.85685 488.074901,589.744077 C513.675925,553.022752 516.341938,503.197098 514.296777,480.638671" id="Fill-554" fill="#D2AD7E"></path>
            <path d="M370.169636,396.030943 C390.502772,402.134199 424.609968,427.944353 429.164882,459.710696 C431.642755,477.211598 425.448072,488.535711 412.949388,484.234019 C408.868185,482.836888 404.021757,475.152668 402.27267,471.145109 C395.203443,455.004571 376.546516,448.496883 350.164454,444.856989 C329.685561,442.025961 340.398719,387.096659 370.169636,396.030943" id="Fill-555" fill="#B58865"></path>
            <path d="M640.597398,233.479965 C639.044923,226.23508 632.502348,224.756532 627.290467,226.272044 C618.603998,228.785575 616.201358,235.660823 616.01654,237.472044 C615.499048,243.386235 619.602018,248.302407 626.883866,250.002737 C634.165715,251.666103 642.149873,240.724849 640.597398,233.479965" id="Fill-556" fill="#17111C"></path>
            <path d="M537.034407,239.395796 C533.596783,233.666423 528.495793,232.261802 525.353879,232.816258 L520.178961,237.510647 L520.031107,244.792496 L524.244968,251.556852 L531.26807,252.443981 C540.250248,250.410977 538.106354,241.170053 537.034407,239.395796" id="Fill-557" fill="#17111C"></path>
            <path d="M597.592079,296.288 C587.316172,297.729584 578.223102,291.667538 576.005281,281.465558 L580.551815,281.058957 C582.252145,288.858297 589.607921,292.776449 597.148515,291.704502 L597.592079,296.288" id="Fill-558" fill="#17111C"></path>
            <path d="M552.128752,271.823417 C546.953835,263.617476 530.615881,265.465661 527.326112,266.574572 C520.598719,268.829357 516.273967,276.628697 517.900369,283.540908 C519.822482,291.598994 528.10235,297.845859 536.345254,298.104605 C554.124792,298.65906 557.340633,280.029357 552.128752,271.823417" id="Fill-559" fill="#C47A6A"></path>
            <path d="M403.186864,625.8698 C402.236526,639.497558 395.69382,662.90175 399.677926,674.344623 C402.638592,682.936035 411.630244,681.788045 413.201956,687.342838 C414.773668,692.89763 410.679907,699.452285 401.797909,699.822605 C392.038677,700.229956 370.290575,701.303883 360.750651,684.528409 C359.252043,681.825077 350.699007,637.201577 351.174176,622.83318 C352.197616,594.651866 405.270295,597.170039 403.186864,625.8698" id="Fill-560" fill="#B58865"></path>
            <path d="M387.567991,150.344045 C399.492998,152.203298 414.408373,163.693482 420.462046,174.291225 C420.462046,174.291225 403.139789,180.166465 390.631295,200.990099 C383.884732,199.316771 367.145961,186.859776 365.176693,171.130495 C363.280362,155.88462 378.66982,148.931013 387.567991,150.344045" id="Fill-561" fill="#CBA077"></path>
            <path d="M384.989853,161.553886 C394.119886,158.966428 405.06114,167.024513 411.492823,177.004711 C407.205034,179.776989 401.95619,183.99085 396.781272,190.08986 C390.719226,187.280619 385.285563,183.029794 381.293483,177.670058 L379.186553,174.084579 C377.338368,169.279299 380.073681,162.958507 384.989853,161.553886" id="Fill-562" fill="#B58865"></path>
            <path d="M415.12203,53.9756436 L410.118791,50.8250825 C406.697458,55.6435878 403.055394,59.9431771 400.149101,62.7601494 C393.453589,69.2836642 384.881863,77.3268614 376.567657,83.8133108 C381.534107,93.1908633 388.928601,101.308191 397.905001,106.905071 C404.968397,111.315856 424.576681,119.729708 440.690054,104.347556 C450.475801,95.0441346 452.903844,85.6295166 448.121336,78.0681699 C444.589638,72.4712907 438.55632,69.0242062 433.001252,65.4659254 C427.041512,61.6481866 421.081771,57.7933824 415.12203,53.9756436" id="Fill-563" fill="#E6CCC2"></path>
            <path d="M367.282878,0.0762020824 C351.742145,0.741312635 337.726437,12.9350061 328.866767,25.9046619 C324.908963,31.6689533 321.0964,37.7658 319.571375,44.6016585 C317.211217,55.1695262 320.588059,66.3655538 326.433989,75.4184474 C332.243608,84.471341 341.39376,94.115444 352.250487,94.7066534 C363.107214,95.2978628 384.784357,75.3075956 398.436964,61.8575823 C406.715672,53.6915027 421.421272,33.7012356 417.499779,22.2835044 C413.541975,10.9027238 395.386914,-1.06926609 367.282878,0.0762020824" id="Fill-564" fill="#A86647"></path>
            <path d="M148.695787,4.62046205 L147.656698,4.65669527 L146.868424,5.63499238 C144.611093,10.5627112 142.2821,15.5628964 141.386334,20.9616471 C139.917277,29.585155 142.210439,38.389829 144.611093,46.8321707 C146.08015,52.1222217 147.692529,57.5934389 151.132272,61.8689596 C156.901007,69.0793717 166.718606,71.688164 175.891254,71.6156975 L181.445005,58.4268031 C183.487353,51.2888575 185.099732,43.9335126 184.777256,36.5057012 C184.490611,29.114123 182.125788,21.577612 177.109496,16.1788612 C169.979196,8.53365049 158.943354,6.39589014 148.695787,4.62046205" id="Fill-565" fill="#4C645D"></path>
            <line x1="168.646865" y1="90.0990099" x2="168.646865" y2="90.0990099" id="Fill-566" fill="#161724"></line>
            <path d="M207.920792,91.4227554 L204.808314,88.6993809 C198.547165,87.516863 192.394592,86.1193419 186.205827,84.0051432 C178.822739,75.6200164 172.923506,65.9090362 169.051004,55.4455446 L166.336634,57.5239093 L166.589975,58.6347595 C169.955795,66.7332153 174.154021,74.4733324 179.039888,81.7834429 L171.077734,79.7050782 L171.512034,82.1776156 L171.222501,83.2884657 L170.679627,85.223495 L169.738645,88.0185373 L168.363364,89.3802245 C179.329421,91.0644167 190.440245,92.7127749 201.406303,94.7194719 C205.134038,92.6769411 207.920792,91.4227554 207.920792,91.4227554" id="Fill-567" fill="#161724"></path>
            <polyline id="Fill-568" fill="#A17565" points="172.139934 80.469967 169.589439 83.3161716 169.330693 90.4871287 170.772277 89.0455446 171.733333 86.1623762 172.287789 84.1663366 172.583498 83.020462 172.139934 80.469967"></polyline>
            <path d="M215.043297,24.0328854 C206.522875,25.3528976 197.670489,28.322925 192.285287,35.0329869 C186.752546,41.9263839 185.867307,51.5698062 187.45336,60.2598864 C189.813996,73.2400062 197.412294,85.1934499 208.145813,92.966855 C208.145813,92.966855 189.666456,101.363599 182.879627,110.017012 C177.75262,116.543739 176.424762,125.893826 179.596867,133.593897 C184.133715,144.483997 195.936897,150.460719 207.223689,154.017418 C223.637489,159.224133 241.416031,161.314152 258.19868,157.317449 C270.186287,154.457423 281.768159,146.794018 285.050919,134.950576 C286.120582,131.137207 282.911592,122.520461 274.575595,116.067068 C282.247663,113.683713 289.550882,110.053679 296.079517,105.360303 L304.157319,97.4402296 C309.874486,88.4568133 306.84992,76.5767037 301.870453,67.1899504 C285.677963,36.8663372 249.161869,18.6795027 215.043297,24.0328854" id="Fill-569" fill="#CD4C55"></path>
            <path d="M108.335731,203.30033 C100.777179,225.8649 77.4807724,243.24473 84.4550884,267.415839 C87.5588416,278.259977 121.590583,284.64962 134.334228,274.280142 C138.277821,271.067064 141.016426,266.722106 143.389885,262.2311 C151.642217,246.567345 155.51278,228.639831 154.672941,210.93139 C141.454603,210.529755 124.146615,207.535751 108.335731,203.30033" id="Fill-570" fill="#E6CCC2"></path>
            <path d="M190.369934,163.700696 C185.863747,154.164802 177.877172,146.565316 168.93807,140.902237 C159.815789,135.093014 149.118175,131.037519 138.310654,131.768239 C130.030994,132.316279 117.574868,134.94687 107.24361,138.892757 C84.7859475,147.515251 62.7679128,170.094494 64.81951,181.89562 C66.8344716,193.696745 122.190961,209.370686 153.441184,210.174478 C161.830751,210.393693 170.586675,210.137942 178.133622,206.41127 C183.409158,203.744143 187.842073,199.469432 190.589748,194.244785 C195.572199,184.928107 194.912757,173.273126 190.369934,163.700696" id="Fill-571" fill="#8F4E3C"></path>
            <path d="M0,498.702442 C0.0367639999,510.666761 2.6247544,524.606838 10.3522751,533.424577 C18.0797957,542.242317 37.2892456,543.705842 44.4335571,542.57161 C67.1058111,539.059149 85.0394911,521.6432 99.3645648,510.044762 C113.689638,498.482913 123.458391,466.797593 94.4072874,443.125073 C65.3926344,419.452553 54.6761671,425.635947 33.6077381,441.076138 C12.5757598,456.552917 -0.0725877074,486.408831 0,498.702442" id="Fill-572" fill="#AB7F41"></path>
            <path d="M27.7227723,439.795577 C30.8334553,443.741934 36.8696617,448.231368 44.4982415,453.372494 C39.6470572,460.106645 34.2774258,471.076794 35.3143201,479.47638 C41.5727181,481.359046 55.8670473,481.069405 65.9027033,479.802226 C63.532659,488.600069 64.5695534,503.552781 68.2357155,506.159549 C72.4203248,505.109601 85.7888555,499.787449 90.1586245,495.985912 C94.2691699,497.904783 92.1583493,516.115955 97.3057891,517.491749 C127.746044,495.913502 118.673219,463.220285 106.008295,446.276292 C115.562536,435.088912 115.784728,428.06512 115.821759,426.942761 L109.711489,420.462046 C106.267519,428.716812 101.453366,434.43722 97.1576613,438.528398 C81.9375336,428.789222 49.8678729,416.87774 27.7227723,439.795577" id="Fill-573" fill="#4C645D"></path>
            <path d="M34.1155641,444.599811 C53.8282113,436.370667 72.2025687,433.956784 92.7109559,439.662324 C75.7833982,440.796118 58.7473306,444.563238 43.2304028,451.548867 L44.8580526,452.719235 L44.4601826,453.304418 C60.1941304,446.24564 77.628068,442.588243 94.7003056,441.637319 C95.3513655,441.600745 54.1899113,462.155321 35.8155538,477.077504 L35.8878938,479.089073 L36.5389537,479.235368 C54.2984213,464.605777 75.8919082,454.986821 95.8939154,443.795184 C86.6705667,456.888668 73.9025585,467.239104 63.8111299,479.637682 L65.7643096,479.418238 L65.4749497,480.881197 C75.3131883,468.738637 87.7556666,458.571071 96.9428453,445.916475 C93.3258458,458.717367 86.6343967,470.896502 80.3769876,482.417305 C76.2897782,489.988118 72.2025687,497.961245 67.3919594,505.239467 L68.0430193,506.044094 L69.7068391,505.532058 C74.8791484,497.632079 79.2918878,488.964047 83.6684571,480.771476 C89.7088463,469.470116 96.1832754,457.437278 99.4747449,444.819255 C99.7279349,452.097477 96.6896553,461.643285 95.5322155,467.751139 C93.6875457,477.479818 91.734366,488.049697 87.5386466,497.229765 L89.4556563,495.766806 L90.1428862,496.571434 C94.1939257,486.989052 96.1109354,476.163154 97.9194351,466.178458 C98.932195,460.692362 101.319415,452.828956 101.500265,446.209067 C111.844883,469.214099 104.321524,494.011255 95.1343455,516.467678 L96.4364654,517.491749 L97.2322052,516.833418 C107.142784,492.475148 114.810823,465.666423 101.355585,441.08871 L100.198145,439.954916 L97.6662452,438.857697 C74.4089384,431.177162 54.3345912,433.700766 32.3432343,443.063704 L34.1155641,444.599811" id="Fill-574" fill="#354945"></path>
            <path d="M95.1711906,605.153969 C82.867176,595.608835 82.6146009,577.961437 92.5011112,566.603468 C116.026676,539.632916 151.928419,592.501117 117.361715,609.667559 L115.341115,608.22469 C109.134984,611.073431 102.062882,610.444488 95.1711906,605.153969" id="Fill-575" fill="#BB414D"></path>
            <path d="M107.415241,552.500151 L103.386198,557.19454 L97.3980796,551.317313 L96.9175516,560.151636 L90.9294328,558.266488 C88.9703569,559.301471 94.9954394,562.073748 98.1003899,565.622263 C99.8746473,567.655266 106.60204,567.285629 106.454185,563.330514 C106.084548,557.933814 109.596099,552.463187 107.415241,552.500151" id="Fill-576" fill="#293647"></path>
            <path d="M193.731762,220.763274 C202.642108,207.546615 220.572355,206.826361 231.016449,218.278398 C241.460544,229.802461 240.985813,253.102675 223.566816,256.992046 L222.65387,256.739957 C218.125661,258.972744 212.355847,259.440909 206.257372,257.640274 C190.006945,252.994636 184.894451,233.943921 193.731762,220.763274" id="Fill-577" fill="#C35264"></path>
            <path d="M216.113525,202.083867 L219.66204,207.739313 L225.76105,204.893108 L226.093723,211.990138 L232.710224,210.807299 C234.6693,212.21192 227.757089,214.244923 223.986792,217.571656 C221.695043,219.493768 214.56105,217.978256 215.374251,213.838323 C216.557089,208.145913 213.747848,201.677266 216.113525,202.083867" id="Fill-578" fill="#293647"></path>
            <path d="M119.745851,417.81077 C117.447746,414.265055 112.205195,406.703274 108.90167,401.095255 L108.327144,401.167616 C95.0053198,395.849043 82.4375609,389.300324 73.9273927,377.324489 L76.9436549,374.647112 C84.2688629,384.88627 94.5026094,390.819916 105.669961,395.523416 C97.2675164,380.580758 90.1577556,364.805942 85.16656,347.258269 L89.0446113,346.534653 C96.6570824,372.874254 120.823087,413.432897 123.803442,417.412782 C126.747888,421.465028 122.115771,421.356486 119.745851,417.81077" id="Fill-579" fill="#293647"></path>
            <path d="M64.9811078,385.52837 C52.8820019,387.557308 42.731992,378.29797 41.6655054,366.493237 C39.3118799,338.346325 88.8851166,345.834953 79.7280425,375.051669 L77.742171,375.457456 C76.0137273,380.622027 71.7845565,384.384786 64.9811078,385.52837" id="Fill-580" fill="#BB414D"></path>
            <path d="M56.1110554,328.140478 C52.4517377,311.783323 64.3624579,297.619514 80.0759983,298.028443 C95.86129,298.437372 112.866354,315.72391 103.682185,331.820837 L102.89292,332.341292 C101.457893,337.434315 97.7985758,342.081234 92.2378481,345.538542 C77.5288262,354.386276 59.7344973,344.423282 56.1110554,328.140478" id="Fill-581" fill="#C35264"></path>
            <path d="M121.285951,349.285689 C126.128195,338.522692 141.505093,331.629951 149.37836,343.572454 C156.660209,354.925204 145.386281,369.558457 139.398162,378.662773 C124.316974,401.331413 138.289251,414.822019 135.184301,415.817228 C132.190242,416.849296 105.280671,384.928901 121.285951,349.285689" id="Fill-582" fill="#293647"></path>
            <path d="M57.6123961,296.096732 L64.3397889,297.390462 L66.4836833,290.884851 L72.0282377,295.579241 L75.8724621,289.849868 C78.2381387,289.332376 74.911406,295.911914 74.7265876,301.086831 C74.5417691,304.154818 68.3688318,308.442607 65.8553004,304.857128 C62.4546404,300.014884 55.6902839,297.57528 57.6123961,296.096732" id="Fill-583" fill="#293647"></path>
            <path d="M44.1161716,349.197578 L44.5966997,354.076786 L38.0541254,354.261605 L42.8224422,359.288667 L38.4976898,361.654344 C38.0171617,363.354674 42.8594059,361.395598 46.5188119,361.580416 L49.7346535,355.555334 L44.1161716,349.197578" id="Fill-584" fill="#293647"></path>
        </g>
    </g>
</svg>