<?xml version="1.0" encoding="UTF-8"?>
<svg width="720px" height="720px" viewBox="0 0 720 720" version="1.1" xmlns="http://www.w3.org/2000/svg" xmlns:xlink="http://www.w3.org/1999/xlink">
    <!-- Generator: Sketch 64 (93537) - https://sketch.com -->
    <title>img_b</title>
    <desc>Created with Sketch.</desc>
    <g id="img_b" stroke="none" stroke-width="1" fill="none" fill-rule="evenodd">
        <g id="bear" transform="translate(165.000000, 10.000000)">
            <path d="M88.1926756,221.856751 C134.597239,257.830363 195.193154,255.149527 180.840276,283.14937 C169.371818,305.55841 116.436925,312.776046 71.070753,287.846562 C12.8746765,255.90566 0.62165648,190.076241 3.22917299,187.028795 C5.8366895,183.958436 11.4440038,191.565595 14.1438218,195.621219 C11.9055111,189.617979 8.49035675,181.025556 11.397853,178.023936 C14.282274,175.068142 19.5203823,181.2776 21.8048437,185.035353 C19.6819099,177.863544 13.6823144,169.935601 18.9665735,166.727763 C24.273908,163.519925 28.0351929,171.264563 32.8810201,176.969932 C31.058066,171.676999 25.2199981,163.978188 29.3274135,162.007659 C33.4348289,160.060043 37.7729979,166.773589 40.5651174,170.645908 C38.8113895,165.490454 35.7885163,160.70161 40.2189869,158.387384 C44.6725328,156.073158 59.5561447,199.653929 88.1926756,221.856751" id="Fill-35" fill="#B98156"></path>
            <path d="M133.377593,295.033776 C127.847303,295.057012 122.386722,294.33668 117.042324,292.87278 L116.414938,294.499336 C121.898755,295.986473 127.452282,296.776514 133.168465,296.753278 L133.377593,295.033776" id="Fill-36" fill="#563C37"></path>
            <path d="M104.86639,294.046473 C98.8016598,293.256432 93.0854772,291.234855 87.8804979,288.051452 L86.8348548,289.445643 C92.2954357,292.791701 98.2904564,294.929461 104.657261,295.765975 L104.86639,294.046473" id="Fill-37" fill="#563C37"></path>
            <path d="M79.7012448,282.416598 C74.9842324,281.231535 70.5692946,279.209959 66.5493776,276.444813 L65.526971,277.839004 C69.8024896,280.790041 74.473029,282.881328 79.4921162,284.1361 L79.7012448,282.416598" id="Fill-38" fill="#563C37"></path>
            <path d="M53.2929461,268.172614 C49.7842324,265.523651 46.6473029,262.502905 43.9053942,259.0639 L42.5576763,260.156017 C45.3925311,263.711203 48.6224066,266.848133 52.2473029,269.566805 L53.2929461,268.172614" id="Fill-39" fill="#563C37"></path>
            <path d="M37.5966805,249.246473 C32.6705394,243.948548 28.4879668,238.162656 25.0024896,231.819087 L23.3991701,232.516183 C26.9543568,238.975934 31.206639,244.924481 36.2489627,250.338589 L37.5966805,249.246473" id="Fill-40" fill="#563C37"></path>
            <path d="M20.0182573,224.232365 C18.833195,221.676349 17.6481328,219.143568 16.4630705,216.587552 L14.8365145,217.284647 C16.0448133,219.817427 17.2298755,222.373444 18.4381743,224.906224 L20.0182573,224.232365" id="Fill-41" fill="#563C37"></path>
            <path d="M110.501245,279.837237 C104.552697,279.860473 99.0224066,278.071262 93.4456432,276.119394 L92.8182573,277.722714 C98.5112033,279.721054 104.204149,281.579975 110.292116,281.556739 L110.501245,279.837237" id="Fill-42" fill="#563C37"></path>
            <path d="M85.6033195,275.329461 C81.6763485,274.260581 78.2141079,272.169295 75.4954357,269.125311 L74.1477178,270.194191 C77.0522822,273.470539 80.746888,275.794191 84.9759336,276.93278 L85.6033195,275.329461" id="Fill-43" fill="#563C37"></path>
            <path d="M67.9087137,261.817427 C63.2614108,258.703734 59.1253112,255.055602 55.4539419,250.896266 L54.0829876,251.965145 C57.8705394,256.2639 62.1228216,260.028216 66.8863071,263.211618 L67.9087137,261.817427" id="Fill-44" fill="#563C37"></path>
            <path d="M45.8456432,242.298755 C43.8240664,240.160996 41.7792531,238 39.7809129,235.862241 L38.386722,236.954357 C40.4315353,239.092116 42.4763485,241.253112 44.4979253,243.390871 L45.8456432,242.298755" id="Fill-45" fill="#563C37"></path>
            <path d="M30.7419087,223.058921 C26.2572614,218.039834 23.166805,211.765975 20.2157676,205.724481 L18.6356846,206.421577 C21.6099585,212.556017 24.793361,219.015768 29.3941909,224.151037 L30.7419087,223.058921" id="Fill-46" fill="#563C37"></path>
            <path d="M133.33112,285.700563 C130.658921,285.956165 128.079668,285.607617 125.570124,284.678156 L124.942739,286.281476 C127.73112,287.327119 130.612448,287.698903 133.563485,287.443302 L133.33112,285.700563" id="Fill-47" fill="#563C37"></path>
            <path d="M124.826556,275.689627 C122.038174,275.294606 119.226556,274.853112 116.461411,274.458091 L116.252282,276.177593 C119.040664,276.595851 121.829046,277.014108 124.594191,277.409129 L124.826556,275.689627" id="Fill-48" fill="#563C37"></path>
            <path d="M106.725311,271.052545 C102.33361,271.261674 98.0813278,269.983665 94.479668,267.450885 L93.4340249,268.845076 C97.4307054,271.679931 102.078008,273.004412 106.980913,272.772047 L106.725311,271.052545" id="Fill-49" fill="#563C37"></path>
            <path d="M67.7112033,270.147718 C65.1087137,269.33444 63.0174274,267.824066 61.4373444,265.593361 L60.0896266,266.662241 C61.8091286,269.102075 64.2024896,270.86805 67.0605809,271.751037 L67.7112033,270.147718" id="Fill-50" fill="#563C37"></path>
            <path d="M80.7701245,259.435685 C78.2838174,259.017427 76.0995851,257.390871 74.1941909,255.834025 L73.1717842,257.228216 C75.3095436,258.994191 77.7493776,260.690456 80.5377593,261.178423 L80.7701245,259.435685" id="Fill-51" fill="#563C37"></path>
            <path d="M50.9228216,235.060581 C53.5485477,239.986722 57.0107884,244.239004 61.3095436,247.794191 L62.3551867,246.376763 C58.2887967,243.007469 55.0124481,239.034025 52.5261411,234.363485 L50.9228216,235.060581" id="Fill-52" fill="#563C37"></path>
            <path d="M36.8298755,219.887137 C38.4564315,223.117012 40.6639004,225.858921 43.4755187,228.112863 L44.4979253,226.718672 C41.9186722,224.650622 39.920332,222.141079 38.433195,219.190041 L36.8298755,219.887137" id="Fill-53" fill="#563C37"></path>
            <polyline id="Fill-54" fill="#563C37" points="41.7792531 249.351037 47.2165975 254.230705 48.2622407 252.836515 43.1502075 248.258921 41.7792531 249.351037"></polyline>
            <path d="M106.109544,289.120332 C108.851452,289.8639 111.546888,290.491286 114.428216,290.491286 L114.637344,288.771784 C111.918672,288.771784 109.362656,288.214108 106.760166,287.517012 L106.109544,289.120332" id="Fill-55" fill="#563C37"></path>
            <path d="M14.3136929,207.722822 L12.6174274,202.517842 C11.8273859,200.310373 11.1767635,198.056432 10.6190871,195.779253 L8.92282158,196.034855 L10.4099585,201.472199 C11.1302905,203.609959 12.2921162,205.747718 12.5941909,207.955187 L14.3136929,207.722822" id="Fill-56" fill="#563C37"></path>
            <path d="M362.773819,227.764677 C349.132336,159.225152 336.31761,61.7784255 315.83242,38.4409242 C276.056244,-6.89919161 202.497878,-3.42388324 166.051694,27.8769074 C128.84765,59.7760955 132.682882,164.955958 121.498703,250.825995 C110.360456,336.396833 70.1479363,437.664096 98.5562094,534.765593 C115.757338,592.464918 171.471543,609.703368 243.35343,606.734396 C326.534324,603.282103 372.603035,596.492594 386.428242,530.507765 C396.441182,482.728029 377.310955,300.95329 362.773819,227.764677" id="Fill-57" fill="#C08B5E"></path>
            <path d="M337.566437,71.8755633 C334.112678,60.4687325 314.426248,2.90456432 238.927061,2.90456432 C216.707874,2.90456432 194.304486,8.22775201 174.848307,19.8419797 C151.685092,33.6684412 143.787495,59.454792 137.893078,84.3193787 C133.472266,102.892925 123.594513,168.038603 139.113407,187.649135 C139.735084,188.432634 140.817262,180.620683 140.702136,176.564921 C142.889517,193.732778 147.978057,212.905471 156.336155,226.731933 C158.362361,230.073327 160.710917,224.197081 160.572767,220.832642 C163.197624,227.492388 171.924124,236.4335 177.311989,242.033217 C180.880874,245.720273 180.673648,234.866501 180.949949,234.428663 C186.660165,248.23208 203.652662,262.795953 209.063553,268.672199 C220.967511,259.615867 240.515791,253.486136 250.946145,239.429233 C251.613872,242.401922 250.761944,244.913729 252.396724,248.23208 C253.916378,246.04289 274.523811,232.193385 279.013698,217.836909 C279.359074,221.754406 280.602428,224.796228 282.766784,226.086698 C289.490103,219.542173 297.019299,206.522255 300.380958,196.820687 C300.450033,202.650845 302.153888,206.430078 302.614389,208.089254 C307.058227,204.471329 331.027319,185.736474 339.914994,139.625225 C345.62521,110.013553 341.549773,85.0798341 337.566437,71.8755633" id="Fill-58" fill="#D59E62"></path>
            <path d="M326.877859,47.9253112 C344.918313,36.7076102 358.160283,15.9306774 347.825087,5.24276524 C336.567105,-6.38955301 311.767249,2.80113012 297.717842,18.4644497 C311.375065,27.0792755 320.672128,38.0435993 326.877859,47.9253112" id="Fill-59" fill="#B0744B"></path>
            <path d="M317.914581,37.7593361 C322.987958,34.0112274 342.08107,20.779952 335.603455,14.7287885 C329.10319,8.677625 314.834316,20.7122151 306.431535,26.4021151 C310.825442,30.01475 314.630475,33.8757536 317.914581,37.7593361" id="Fill-60" fill="#473B35"></path>
            <path d="M171.369295,23.5594489 C157.129195,7.40091081 130.918151,-3.61837874 119.479762,11.6373183 C107.948755,27.031914 128.76477,44.4405396 149.441857,50.8298755 C154.489567,40.1578325 161.343339,30.6432779 171.369295,23.5594489" id="Fill-61" fill="#B0744B"></path>
            <path d="M154.220508,40.6639004 C157.38074,35.6410291 161.121898,31.0662074 165.560166,26.9865984 L161.121898,24.3218826 C154.383167,20.5724153 147.52825,16.7993665 140.045935,15.077913 C137.67576,14.5119556 135.142927,14.1818139 132.8657,15.077913 C130.611711,15.9504305 128.91541,18.3557491 129.310439,20.7846493 C131.308821,32.9763134 146.482585,36.3720574 154.220508,40.6639004" id="Fill-62" fill="#473B35"></path>
            <path d="M262.076596,115.58811 C259.52581,107.827962 251.942392,103.213199 244.404935,100.044855 C234.960133,96.0499859 216.047549,84.8689443 210.026775,96.9453876 C204.028981,108.998872 198.077147,124.059987 189.643467,136.136431 C185.438118,142.128734 180.589326,147.868489 178.245361,154.779153 C176.498877,159.944932 174.568552,165.891317 176.590797,170.96526 C183.967394,189.6539 211.129817,203.199721 232.363387,183.432007 C247.714062,169.151498 257.434625,149.337866 261.846795,128.858422 C262.788977,124.496209 263.455399,119.858487 262.076596,115.58811" id="Fill-63" fill="#E6BF7D"></path>
            <path d="M206.98408,155.729662 C203.251939,149.734641 182.048709,153.127172 174.84101,156.845015 C172.671703,157.960367 169.825945,159.122193 169.919249,161.538791 C170.059204,166.999372 174.514448,170.763687 177.686768,172.157878 C180.975718,173.645015 192.405402,172.204351 194.318125,172.645845 C198.330177,170.206011 210.716222,161.724683 206.98408,155.729662" id="Fill-64" fill="#17111C"></path>
            <path d="M202.233242,78.5703333 L197.260628,77.245852 C194.495482,80.7545657 192.729507,93.3255201 198.840711,94.092325 C204.951914,94.8823665 203.139466,80.3827815 202.233242,78.5703333" id="Fill-65" fill="#17111C"></path>
            <path d="M255.588648,77.2109224 C253.7762,74.8872709 250.685744,73.3304244 247.874126,74.1437024 C244.621014,75.0963995 242.878275,78.8374784 243.11064,82.206773 C243.319769,85.5528311 243.854209,93.9179763 250.383669,94.5221257 C256.889893,95.1262751 257.401097,79.5345738 255.588648,77.2109224" id="Fill-66" fill="#17111C"></path>
            <path d="M217.132914,178.324702 C215.517334,182.135491 212.331683,184.645034 208.713693,185.713914 L208.690938,185.667441 C204.390309,181.391922 200.453755,176.465781 197.108821,171.284039 L195.766296,172.167026 L194.605809,172.07408 C197.814215,177.116404 201.636996,181.972835 205.755588,186.248354 C202.68371,186.434246 199.520814,185.667441 196.790256,183.715574 L195.53875,185.923043 C203.571142,191.662462 215.380806,188.781134 219.294606,179.625947 L217.132914,178.324702" id="Fill-67" fill="#17111C"></path>
            <path d="M310.018996,600.882013 C321.873798,628.016852 331.366811,657.434059 319.878889,668.200389 C317.883981,670.067782 306.396059,667.693195 300.136173,678.275091 C296.513235,684.407518 296.261005,692.292067 304.2865,696.534047 C316.301812,702.897017 345.468752,700.983515 356.635654,686.735996 C376.88283,660.892195 384.747815,575.038212 386.307054,535.892116 C375.805121,577.712504 350.834368,593.804362 310.018996,600.882013" id="Fill-68" fill="#C08B5E"></path>
            <path d="M101.368831,540.248963 C108.607073,575.152086 128.21739,627.137915 118.874739,645.419406 C110.156473,662.50211 90.731159,650.191497 84.8341886,670.086739 C78.9140929,689.981981 118.065351,700.72495 141.051973,685.647907 C160.199782,673.083705 174.421887,635.552472 178.630705,601.963403 C141.537606,593.802435 113.925909,574.921551 101.368831,540.248963" id="Fill-69" fill="#C08B5E"></path>
            <path d="M328.121759,465.368031 C328.92813,419.406799 324.873237,371.623722 303.170344,331.128026 C296.581144,318.859398 288.010575,307.28261 276.444914,299.534003 C266.745426,293.053769 255.364079,289.502324 244.005772,286.873333 C234.237166,284.613322 224.238169,282.929845 214.193094,283.229643 C189.518149,284.013728 166.317711,296.951134 149.222652,314.777543 C132.127592,332.603951 120.515853,354.973442 111.208031,377.873343 C106.346768,389.819112 100.748251,422.335588 101.785013,448.856118 C102.890893,477.544413 104.06589,551.871081 169.013293,579.360187 C194.471569,590.129829 246.125375,591.697999 277.412559,565.984616 C297.341436,549.611071 327.177153,517.832558 328.121759,465.368031" id="Fill-70" fill="#D09A59"></path>
            <path d="M368.362309,277.678207 C362.804884,260.921788 338.753456,259.818484 330.959226,274.965919 C320.236394,295.813755 323.164995,304.59421 295.654589,344.680897 C267.429327,385.870887 230.302962,399.892033 234.084778,408.994286 C236.275464,414.280947 238.58145,413.476455 246.859938,410.879095 C242.985882,413.568397 235.491429,419.682536 237.958834,423.199316 C240.426238,426.670124 251.448848,422.601693 256.452837,420.050304 C245.914483,428.531948 248.174349,439.633938 265.769018,429.842121 C259.243079,434.347276 256.245298,440.139619 260.396072,442.438167 C268.882098,447.150192 308.245269,418.18848 333.680289,392.306823 C363.219962,362.264794 382.843898,321.14376 368.362309,277.678207" id="Fill-71" fill="#B98156"></path>
            <path d="M285.390871,420 C290.340249,416.584232 295.545228,413.214938 300.076349,409.218257 L301.33112,410.40332 C296.707054,414.492946 291.385892,417.978423 286.320332,421.487137 L285.390871,420" id="Fill-72" fill="#563C37"></path>
            <path d="M309.545228,401.224896 C315.702905,397.832365 320.861411,392.743568 325.276349,387.329461 L326.554357,388.514523 C322.046473,394.021577 316.771784,399.249793 310.474689,402.712033 L309.545228,401.224896" id="Fill-73" fill="#563C37"></path>
            <path d="M337.429046,376.501245 C340.078008,374.340249 341.843983,371.365975 343.586722,368.484647 L345.143568,369.297925 C343.191701,372.458091 341.263071,375.618257 338.33527,377.988382 L337.429046,376.501245" id="Fill-74" fill="#563C37"></path>
            <path d="M352.858091,356.436515 C356.645643,352.53278 358.66722,347.606639 359.945228,342.40166 L361.66473,342.773444 C360.293776,348.257261 358.13278,353.508714 354.1361,357.59834 L352.858091,356.436515" id="Fill-75" fill="#563C37"></path>
            <path d="M364.079539,329.0639 C366.170825,325.671369 366.147589,321.744398 366.124352,317.910373 L367.867091,317.840664 C367.890328,321.976763 367.867091,326.252282 365.613149,329.877178 L364.079539,329.0639" id="Fill-76" fill="#563C37"></path>
            <path d="M350.836515,341.170124 C353.462241,335.430705 355.251452,329.412448 356.180913,323.161826 L357.877178,323.556846 C356.924481,329.946888 355.06556,336.104564 352.346888,341.983402 L350.836515,341.170124" id="Fill-77" fill="#563C37"></path>
            <path d="M335.80249,362.791701 C339.520332,359.120332 342.634025,355.077178 345.236515,350.569295 L346.770124,351.382573 C344.097925,355.983402 340.891286,360.189212 337.103734,363.953527 L335.80249,362.791701" id="Fill-78" fill="#563C37"></path>
            <path d="M317.004149,384.785062 C321.744398,380.114523 325.810788,374.956017 329.180083,369.216598 L330.713693,370.006639 C327.274689,375.885477 323.138589,381.183402 318.282158,385.970124 L317.004149,384.785062" id="Fill-79" fill="#563C37"></path>
            <path d="M297.392531,399.296266 C300.320332,397.204979 303.13195,394.881328 305.478838,392.162656 L306.756846,393.347718 C304.317012,396.182573 301.365975,398.622407 298.321992,400.783402 L297.392531,399.296266" id="Fill-80" fill="#563C37"></path>
            <path d="M337.626556,343.644813 C339.810788,340.06639 342.506224,336.53444 343.249793,332.305394 L344.946058,332.700415 C344.179253,337.092116 341.437344,340.740249 339.160166,344.458091 L337.626556,343.644813" id="Fill-81" fill="#563C37"></path>
            <path d="M323.765975,363.035685 C325.648133,361.014108 327.112033,358.690456 328.06473,356.111203 L329.760996,356.506224 C328.692116,359.387552 327.158506,361.966805 325.043983,364.220747 L323.765975,363.035685" id="Fill-82" fill="#563C37"></path>
            <path d="M303.364315,385.958506 C306.106224,383.983402 308.871369,381.915353 311.125311,379.382573 L312.40332,380.567635 C310.056432,383.216598 307.151867,385.377593 304.293776,387.422407 L303.364315,385.958506" id="Fill-83" fill="#563C37"></path>
            <path d="M275.143568,414.620747 C279.233195,411.692946 283.346058,408.788382 287.435685,405.883817 L288.341909,407.347718 C284.252282,410.252282 280.162656,413.180083 276.073029,416.107884 L275.143568,414.620747" id="Fill-84" fill="#563C37"></path>
            <path d="M270.856432,427.958506 C273.0639,427.052282 275.039004,425.843983 276.828216,424.33361 L278.106224,425.495436 C276.084647,427.261411 273.853942,428.609129 271.367635,429.608299 L270.856432,427.958506" id="Fill-85" fill="#563C37"></path>
            <path d="M366.451452,311.427386 C366.381743,305.409129 365.847303,298.926141 363.73278,293.233195 L365.405809,292.721992 C367.590041,298.53112 368.124481,305.223237 368.217427,311.357676 L366.451452,311.427386" id="Fill-86" fill="#563C37"></path>
            <path d="M358.158115,309.719502 C358.762264,306.582573 357.995459,303.39917 357.3216,300.308714 L358.971393,299.820747 C359.714961,303.213278 360.528239,306.652282 359.85438,310.137759 L358.158115,309.719502" id="Fill-87" fill="#563C37"></path>
            <path d="M347.34449,320.814938 C348.227478,316.841494 348.134532,313.170124 347.646565,309.126971 L349.389304,309.080498 C349.87727,313.263071 349.970216,317.097095 349.040756,321.209959 L347.34449,320.814938" id="Fill-88" fill="#563C37"></path>
        </g>
    </g>
</svg>