<svg viewBox="0 0 720 720" xmlns="http://www.w3.org/2000/svg">
  <g fill="none" fill-rule="evenodd">
    <path d="M147.065 100.515C153.568 58.61 139.628 31.24 133.178 24c-11.542 22.809-29.027 47.394-31 72.855 14.794.239 30.093 1.565 44.887 3.66" fill="#DCD3C5"/>
    <path d="M234.948 129.33c60.826 63.18 20.661 115.194 68.17 167.13 12.133 13.247 28.004 20.832 44.796 25.283 21.662-26.837-2.895-20.2-9.212-16.724 20.662-15.67 13.897-31.261-6.948-29.681 28.426-21.806 14.502-30.998-6.554-32.868 32.9-18.751 13.766-28.706-4.58-28.706 28.69-15.697 18.161-26.705-5.37-27.943 26.61-17.514 34.428-30.234-12.949-28.18 8.976-9.033 16.793-13.432 14.398-21.253-2.396-7.796-18.32-6.084-34.322-1.054 8.607-3.977 21.082-21.859 16.45-28.39-4.632-6.506-26.715 2.765-34.532 5.478 7.343-6.848 18.187-22.544 13.844-29.655-4.316-7.111-21.109 6.03-28.952 13.063 4.316-8.718 10.502-27.47 3.5-29.971-7-2.528-17.792 12.8-24.74 20.253-1.475-11.957 8.58-28.549-1.053-33.316-9.607-4.74-24.005 8.77-32.796 20.253 2.132-35.765-12.528-34.685-28.4-3.608 3.001-5.083 5.633-25.915-5.474-28.575-11.08-2.687-8.449 18.646-12.686 27.943-.08-6.295-.185-15.67-7.449-16.803-7.29-1.132-11.054 12.01-14.345 19.384-1.368 3.002-2.842 15.564-3.605 26.125 49.43 3.766 99.49 17.988 112.809 31.814" fill="#0F0F0D"/>
    <path d="M348.607 253.075c-18.299 9.882-40.725 12.34-60.47 19.659l1.183 2.299c19.298-7.134 40.962-9.618 59.077-18.866l.21-3.092zm-9.938-8.825l-4.627-.106c-16.616 2.695-35.362 8.191-51.584 14.11l.789 2.484c18.535-6.765 39.384-12.313 59.05-15.035l-3.628-1.453zm3.339-15.114l-.263-.344c-20.244.687-43.38 5.073-63.704 10.067l.42 2.537c19.588-4.783 41.778-9.01 61.601-9.909l1.946-2.351zm-5.626-67.802c-20.14 3.435-49.928 11.996-68.595 18.972l.737 2.457c18.693-7.029 48.087-15.431 68.883-18.998l-1.025-2.431zm-20.192 23.648l4.548-3.091c-16.616 2.827-34.152 6.474-49.848 9.909l.552 2.51c14.408-3.145 30.472-6.527 45.852-9.222l-1.104-.106zm9.07 28.194c-16.642 1.797-34.94 5.285-49.401 9.882l.315 2.59c17.09-5.523 39.99-9.407 58.42-10.78-2.813-.9-6.02-1.454-9.334-1.692zm7.415 61.593l.184-.133c-11.595 4.281-22.716 9.803-33.285 16.04l1.603 1.955c12.173-7.161 25.056-13.318 38.517-17.677-2.103-.291-4.443-.37-7.02-.185zm-165.426-172.36l2.498.503c3.155-14.321 8.23-37.706 11.91-55.489l-3.181 2.907c-3.47 16.567-8.308 38.763-11.227 52.08zm45.169-47.614c-4.39 16.779-11.28 39.477-15.538 54.881l2.445.74c4.47-16.197 11.7-40.005 16.195-57.497l-3.102 1.876zM344.506 300.32c-6.705 3.593-13.251 7.478-19.535 11.785l2.656 1.32a217.356 217.356 0 0119.14-11.493c-2.84.713-5.574 1.77-7.152 2.642l4.89-4.254zm6.073-19.474c-13.514 6.606-26.975 13.344-39.358 21.905l2.077 1.744c12.12-8.297 25.187-14.903 38.385-21.35l-1.104-2.3zm-11.884-83.841c-18.85 2.193-49.848 6.289-64.966 10.12l.395 2.563c14.907-3.858 42.644-7.504 63.651-9.961l.92-2.722zM165.803 42.297c-3.575 18.602-9.202 43.52-12.146 57.708l2.55.397c2.787-13.529 8.071-36.966 11.594-54.802l-1.998-3.303zm65.15 40.454l-1.972 2.193-.078-4.07-.658 1.85c-2.734 7.373-7.992 21.985-12.961 33.373l2.34 1.03c5.021-11.52 10.332-26.211 13.093-33.689l.236-.687zm-48.297 23.067l2.498.582c2.813-11.204 6.993-28.458 10.2-41.67-.026-3.25-.236-6.103-.578-8.534-2.787 11.335-8.623 35.618-12.12 49.622zM152.5 48.85c-1.315 6.21-1.683 14.004-3.839 18.734-.026-2.352-.052-5.126-.473-7.742-2.655 13.265-6.047 29.383-7.756 38.287l2.55.317c2.472-12.498 8.808-41.616 9.912-48.328l-.342.872-.052-2.14zm-25.371 47.879l2.55.238c1.946-10.2 5.942-30.572 8.44-45.712l-2.84 2.166c-2.445 14.295-6.31 33.848-8.15 43.308zm152.016-15.114l-.026-.027-1.998-1.69c-14.618 12.313-31.47 31.416-43.933 45.923l1.893 1.69c12.488-14.479 29.551-33.847 44.064-45.896zm-22.978-14.057c-10.28 15.695-23.847 36.807-32.838 52.238l2.287 1.163c8.545-14.612 21.454-34.667 31.13-49.57l-.58-3.831zm43.354 47.614c-16.432 7.61-35.046 18.312-50.584 28.51l1.524 2.062c14.592-9.539 32.102-19.712 47.404-26.978l1.656-3.594zm7.52 14.93c-15.854 7.24-36.52 17.386-51.374 23.595l1.341 2.22c15.933-6.712 37.833-17.545 54.844-25.155l-4.812-.66zm1.235 21.799l4.601-4.36c-6.94 2.536-15.249 5.654-19.85 7.16-9.254 3.04-20.56 9.09-30.13 12.736l1.052 2.51c10.7-4.016 23.163-10.674 33.627-14.004 2.024-.66 6.494-2.404 10.7-4.042zm-30.287-45.078c-12.2 8.244-27.37 18.892-37.65 26.264l1.71 1.93c12.172-8.72 29.892-21.087 44.064-30.467-2.656.581-5.443 1.4-8.124 2.273z" fill="#FFFFFE"/>
    <path d="M510.481 523.01c-14.474 7.815-30.38 14.363-47.352 19.353 1.692 68.462 20.044 147.617 20.044 150.31 2.968-.37 8.643-3.3 13.017-6.759 3.93 1.61 11.792 3.881 15.176 4.753-.416-4.066-10.152-102.231-.885-167.657" fill="#D4CBBD"/>
    <path d="M44.987 102.644c57.262-19.08 170.203 3.853 191.287 25.73 60.983 63.31 20.714 115.431 68.345 167.472 36.758 40.14 107.874 29.109 135.212 32.962 31.481 4.433 117.163 2.058 149.278 47.317 38.922 89.938-88.48 192.226-234.089 174.887-64.545-7.68-129.17-40.218-157.721-125.67-30.426-90.966-20.979-178.45-17.179-207.61-43.33 7.785-63.86 9.711-111.49 6.544-56.206-3.747-53.62-111.63-23.643-121.632" fill="#DCD3C5"/>
    <path d="M117.788 96.762c3.114.107 12.003 3.034 13.387 3.78l2.874 4.71-6.094 2.342c-5.35-.532-16.048-4.125-14.185-8.942l4.018-1.89M165.34 111.722c5.615.24 15.33 5.43 14.185 9.448-1.118 4.045-10.087-1.81-14.372-3.007l-4.018-2.901 4.205-3.54" fill="#AFA89B"/>
    <path d="M221.956 120.475c3.032-5.973 6.144-14.096 7.447-25.165 2.712-23.016-1.33-45.181-7.926-58.003a167.994 167.994 0 00-44.466 47.49c-3.67 5.947-7.022 12.344-8.298 19.114l.425.132c21.276 4.354 40.08 10.194 52.818 16.432" fill="#DCD3C5"/>
    <path d="M177.03 139.889c-4.325 7.415-16.226 20.478-26.273 16.414-9.751-3.959-7.092-20.188-5.05-27.814.671-2.428 4.432-1.32 3.788 1.082-1.478 5.436-4.567 21.164 3.358 23.354 7.817 2.164 17.488-9.342 20.819-15.068l3.358 2.032M133.782 124.546c-5.948 7.447-13.19 21.53-24.802 18.891-12.078-2.717-8.38-21.582-6.052-29.943.647-2.378 4.293-1.307 3.621 1.071-1.759 6.323-5.974 26.207 5.56 25.24 8.69-.705 13.63-11.209 18.44-17.27l3.233 2.011" fill="#17111C"/>
    <path d="M74.445 97.188c-10.694 1.131-20.643 3.025-29.288 5.865-30.22 9.967-32.827 117.48 23.835 121.215 6.677.447 12.795.763 18.54 1 6.731-42.843 2.05-87.368-13.087-128.08" fill="#484846"/>
    <path d="M51.333 130.993c3.087-1.81 9.794-4.456 12.03 1.35 2.208 5.807-.107 15.718-2.61 19.877-2.5 4.132-6.333 6.103-8.835 3.997-3.273-2.755-4.285-7.373-4.764-11.667-.559-4.996-.133-11.073 4.179-13.557" fill="#0F0F0D"/>
    <path d="M94.958 205.001c12.196 5.217 24.34 3.247 30.518-9.315l3.316 2.05c-6.847 13.972-21.236 16.873-34.93 10.991l1.096-3.726" fill="#17111C"/>
    <path d="M141.114 171.245c2.968-2.297 12.004-7.33 20.493-5.445 8.49 1.91 11.64 7.432 12.943 10.838 2.604 6.89-1.433 13.625-6.276 14.529-8.958 1.703-18.515.929-26.431-3.562-3.333-1.858-6.667-4.928-6.38-8.696.26-3.252 3.073-5.651 5.65-7.664" fill="#EFABAA"/>
    <path d="M220.23 62.269c2.153.56 3.964 32.991-5.67 55.909-1.497 3.57-31.241-9.06-30.873-10.073 9.45-26.516 34.39-46.396 36.543-45.836" fill="#AFA89B"/>
    <path d="M490.338 333.386c-10.121 18.576-23.027 71.365-17.615 168 10.486-56.203 18.942-117.142 43.633-163.74-8.742-1.852-17.536-3.228-26.018-4.26M438.698 329.294c-3.486-.502-7.668-.74-12.387-.898-18.017 45.188-20.108 167.045-11.555 181.307 8.82-55.541 18.633-128.698 38.393-178.956-5.523-.45-10.43-.898-14.451-1.453M366.666 325.07c-15.236 47.732-17.508 109.198-12.777 159.682 7.484-49.188 19.726-114.49 37.715-157.434-8.072-.37-16.492-1.032-24.938-2.249M312.033 303.446c-24.573 57.3-18.017 148.624-17.084 159.683 11.327-50.28 21.162-97.235 41.764-145.695-8.875-3.404-17.244-7.944-24.68-13.988M286.894 268.515c-12.775 15.075-39.753 54.917-46.656 109.782 26.29-57.334 47-73.958 59.88-88.088-5.818-7.223-10.05-14.445-13.224-21.694M270.178 188.743c-1.13-4.397-2.469-8.874-4.15-13.377-17.255 5.346-30.203 25.096-35.77 39.921 13.893-8.663 26.237-17.696 39.92-26.544M688.104 540.609c-7.28-10.515-17.487-17.142-25.009-20.926 2.498 3.862-6.635 10.385-10.127 6.862-.054 5.428-.135 10.855-.188 16.282-.108 9.21-.108 18.838 4.244 27.005 6.743 12.629 21.84 18.343 35.674 23.04-1.639-5.793 1.02-11.768 2.31-17.639 2.606-11.767 0-24.605-6.904-34.624" fill="#0F0F0D"/>
    <path d="M662.198 518.163c-24.524-30.31-14.426-78.22-30.976-112.39-11.96-24.717-35.2-39.557-61.638-47.436 7.056 4.885 13.324 10.585 18.23 17.519 1.809 4.176 3.147 8.405 4.248 12.634 40.786 30.441 27.095 95.869 60.012 136.554 3.252 4.23 13.036-2.941 10.124-6.881M315.09 542.563c-18.095-5.442-35.555-13.394-51.565-24.543 1.028 81.264 14.638 168.208 15.14 172.726 3.323-.74 11.842-4.333 15.06-6.314 3.956 1.611 10.735 5.204 16.616 6.578-.474-3.276-3.481-79.838 4.748-148.447M241.901 501.35c-18.931-18.723-34.69-43.467-45.377-75.87-1.144-3.538-2.159-7.05-3.199-10.589-11.182 162.064 12.638 272.738 12.326 277.782 3.9-.95 12.196-5.651 17.059-7.87 2.808 1.48 13.652 5.81 18.15 7.448.39-3.803-4.914-94.804 1.041-190.901M589.545 438.178c-8.568 25.418-27.904 49.333-54.628 68.66l-.105.158c-2.2 57.955 19.205 184.227 20.672 185.677 1.336-.633 8.541-3.111 14.358-6.143 5.685 3.348 9.563 4.535 14.462 5.932.63-75.647-8.07-143.885 5.24-254.284" fill="#DCD3C5"/>
    <path d="M551.867 348.356c-11.105 19.842-16.07 90.104-12.987 111.446 11.916-23.71 16.855-74.788 30.704-101.735-5.461-3.737-11.393-6.974-17.717-9.71" fill="#0F0F0D"/>
    <path d="M275.168 670.983c1.578 11.604 2.675 18.922 2.809 20.147 3.37-.746 12.009-4.365 15.272-6.361 4.012 1.623 10.886 5.243 16.85 6.627-.134-.985-.508-8.65-.749-20.732-10.217.931-22.44 1.197-34.182.319M203.644 670.903c1.915 12.988 3.262 20.546 3.184 21.797 3.883-.958 12.142-5.695 16.983-7.931 2.796 1.49 13.592 5.855 18.071 7.505.104-1.091-.233-9.395-.673-22.914-13.54 1.49-25.294 2.155-37.565 1.543M551.287 672.354c2.124 12.455 3.664 20.333 4.036 20.679 1.354-.64 8.655-3.14 14.549-6.201 5.76 3.38 9.69 4.577 14.655 5.988.053-6.867.026-13.653-.053-20.44-10.328.799-22.116 1.437-33.187-.026" fill="#AFA89B"/>
    <path d="M479.762 673.006c2.212 11.683 3.755 19.029 3.755 19.827 2.931-.373 8.537-3.327 12.857-6.813 3.883 1.623 11.65 3.912 14.992 4.79-.103-1.011-.745-7.718-1.543-18.257-9.951.612-20.366.878-30.06.453" fill="#9C9588"/>
    <path d="M276.832 236.233c-.918-6.357-1.678-12.793-2.491-19.283-29.706 20.373-48.846 63.485-54.064 79.842 17.882-21.09 36.786-41.304 56.555-60.56" fill="#0F0F0D"/>
  </g>
</svg>
