<?xml version="1.0" encoding="UTF-8"?>
<svg width="720px" height="720px" viewBox="0 0 720 720" version="1.1" xmlns="http://www.w3.org/2000/svg" xmlns:xlink="http://www.w3.org/1999/xlink">
    <!-- Generator: Sketch 64 (93537) - https://sketch.com -->
    <title>img_j</title>
    <desc>Created with Sketch.</desc>
    <g id="img_j" stroke="none" stroke-width="1" fill="none" fill-rule="evenodd">
        <g id="jellyfish" transform="translate(208.000000, 10.000000)">
            <path d="M245.044028,450.821083 C245.832299,432.83555 256.030543,418.676208 261.622335,402.226025 C264.923216,392.575251 265.711486,382.437064 259.996527,369.447512 C247.70444,341.494387 250.70972,336.132846 253.813534,322.875217 C257.286849,308.057867 268.618232,293.313629 266.179521,277.545825 C264.233479,264.799979 258.001219,253.711338 256.621746,240.989863 C253.173064,240.258744 249.478048,238.479687 245.684498,235.384615 C245.093295,246.156439 249.330247,253.467631 253.394765,263.581447 C264.405914,290.998419 251.029955,308.082238 246.152533,333.573929 C244.231125,343.590262 244.871594,348.488761 248.640511,357.530269 C259.429958,383.43626 256.301511,394.695497 246.152533,419.114879 C235.658687,444.387234 236.717925,467.222525 244.428192,493.372223 C249.182447,509.456846 259.01119,527.905421 259.479225,544.867387 C259.971894,562.926033 241.866314,578.255166 249.773649,596.923077 C249.527315,578.450131 256.301511,572.625548 266.573656,547.938088 C279.112078,517.767234 243.097987,495.760545 245.044028,450.821083" id="Fill-653" fill="#BD70A1"></path>
            <path d="M55.6133694,455.703441 C57.9878171,424.985851 39.0406937,416.836784 33.5164684,386.729155 C23.0495153,329.514898 63.366668,279.864147 81.5384615,226.846417 C79.1155557,221.161589 78.2917678,214.452028 78.3402259,209.230769 C76.8622533,212.792936 74.7543253,215.989127 72.3071904,218.819342 C64.1419978,256.173298 41.3666832,283.767892 29.6155901,316.583745 C23.8733033,332.589097 24.4790297,352.937366 24.8182366,371.35816 C25.3028177,399.123544 44.2257121,423.546345 46.6728469,450.726167 C50.0649151,488.348505 75.481197,516.894637 64.9415567,565.715842 C63.9723944,570.253946 68.793977,570.49793 69.3270163,565.862233 C76.0626944,505.69577 53.5538994,482.175709 55.6133694,455.703441" id="Fill-654" fill="#BD70A1"></path>
            <path d="M175.886704,478.874772 C168.347638,457.848667 160.25102,435.993226 158.263228,413.43041 C156.226953,390.013866 161.608537,371.280631 160.881296,347.961656 C160.154055,324.837819 152.978609,312.958801 151.475645,294.884156 C149.415128,270.052863 152.760437,245.660629 159.838917,221.902594 L159.378331,220 C157.705677,224.732093 152.881644,234.586556 146.118302,238.903981 C141.342752,272.540871 148.881818,306.836351 155.669401,340.497632 C160.226779,363.109233 148.178818,381.549761 147.572784,404.063792 C147.063715,423.723932 152.614989,439.96916 159.451055,458.360904 C169.147603,484.387417 179.789564,503.242613 171.692947,531.879095 C167.450707,546.831534 156.978435,561.344913 156.299677,577.126688 C154.481574,618.666661 183.740908,654.742774 182.383391,696.453493 C182.237943,701.11241 185.946872,701.209978 186.09232,696.575454 C187.377113,657.084428 168.129465,622.837733 166.723466,583.980905 C165.341708,545.026509 189.946698,518.073091 175.886704,478.874772" id="Fill-655" fill="#BD70A1"></path>
            <path d="M52.9011058,191.422805 C54.6600407,199.244227 67.8031933,203.470709 77.8437801,186.83197 C79.1629813,191.689996 80.65319,196.645183 83.8290447,200.580184 C88.226382,206.069753 101.809268,209.616112 111.776566,191.179903 C113.169056,204.418024 127.142817,215.470033 141.483023,196.377991 C144.145855,209.737563 159.21895,219.963707 171.82465,198.709844 C172.386532,210.563427 190.0736,225.696178 199.381297,198.977035 C208.811142,222.878523 222.955911,213.283921 226.840225,198.855584 C235.146307,217.923336 248.582615,212.749539 251.465314,198.564103 C254.054857,216.563089 264.071014,213.842594 266.51398,210.441976 C266.416261,207.600031 266.929284,204.758086 268.321774,202.231912 C282.58869,176.508665 297.002185,148.453565 293.240018,113.500069 C289.746578,80.7812643 275.943825,51.9974606 242.548491,26.1770528 C200.040897,-6.71178272 145.416196,-3.26258432 102.175713,7.74084441 C73.1044277,15.1007537 32.8932211,35.4073021 21.3868552,80.5140728 C15.2550126,104.585591 18.6751639,131.183283 32.477917,151.878474 C36.8752543,158.461099 42.1520591,164.412181 46.3295295,171.116256 C50.5069999,177.820332 52.7300982,186.613359 52.9011058,191.422805" id="Fill-656" fill="#D2A4C1"></path>
            <path d="M132.749882,532.319961 C128.584049,530.528769 126.172251,526.087597 124.759279,521.744571 C123.589922,518.186726 122.956521,514.457122 122.737266,510.702981 L120.34983,509.230769 L115.623681,510.923813 L111.677102,514.383511 C109.19222,515.536744 106.804783,514.800638 104.587878,513.3775 C103.881392,517.794136 102.517143,522.603362 99.7642823,526.651945 L95.7446191,531.412097 C93.2353748,533.399583 87.7540159,534.700037 89.6054972,536.908355 C92.5532502,540.441664 97.4742924,536.981965 101.981187,538.846767 L107.121484,540 L110.678277,536.491228 C113.504222,534.749111 115.45315,538.944915 119.643344,538.699546 C122.591097,538.503251 122.323119,535.117164 126.196613,535.607901 L129.802129,536.540302 L133.407645,536.147712 L133.846154,532.908846 L132.749882,532.319961" id="Fill-657" fill="#A1C0DB"></path>
            <path d="M138.026406,504.598199 C127.546385,499.483205 123.726564,488.532795 122.771609,479.263369 L118.462068,477.006047 C114.69122,476.333654 114.642247,479.911748 111.336633,481.832873 L106.390455,482.457238 C105.925221,487.043923 105.55793,491.46251 103.133814,495.592928 C96.4246414,507.023619 86.7526598,506.663408 89.8134135,510.025377 C92.8986532,513.387345 99.2650209,509.665166 102.717551,512.35474 C105.55793,514.588047 108.667656,516.31706 111.97327,514.828188 L115.940007,511.442206 L120.690297,509.785236 L123.457218,511.46622 L128.991061,510.073405 C130.386764,508.128266 134.010697,508.680589 136.557244,508.248336 C139.838372,507.696013 141.601366,506.351226 138.026406,504.598199" id="Fill-658" fill="#A8BCD7"></path>
            <path d="M135.956686,468.747172 C132.765878,465.645634 129.794286,462.297942 127.334197,458.581019 C124.460034,458.827172 122.633235,461.264095 119.515499,461.387172 C117.031053,461.461019 115.179897,458.753326 112.695451,458.99948 L108.968782,461.017942 C105.704902,462.470249 102.319236,459.910249 98.8117827,459.122557 C92.3327373,473.153326 80.0566513,474.261019 83.7589629,477.337942 C89.3124304,482.827172 93.7211042,476.697942 99.3963583,479.676403 C103.46403,481.842557 108.043205,484.27948 111.672444,482.113326 C114.960682,480.144095 115.009396,476.476403 118.760423,477.165634 C120.928223,477.534865 123.04731,480.267172 125.263825,480.144095 C129.160995,479.971788 129.818643,476.771788 131.8403,476.304095 L140,475.467172 L135.956686,468.747172" id="Fill-659" fill="#AEB9D3"></path>
            <path d="M127.747356,433.423631 L124.720499,435.612259 C121.132209,436.755209 117.86125,431.551138 114.22414,432.402271 C111.612255,433.010223 110.391748,436.36612 108.072785,437.776569 C105.558541,439.332926 102.385223,438.311567 99.8465686,436.828163 L94.1345963,433.545221 C88.6423153,447.187669 76.7301679,451.49197 76.925449,453.267191 C77.0230896,454.239914 77.5112923,459.735802 83.9067485,461.29216 C89.6431309,462.678291 92.5235272,457.766037 96.8441216,457.668765 C101.067076,457.571492 105.119158,461.486705 109.00037,459.784438 L112.735121,457.790355 C115.224956,457.547174 117.080126,460.222164 119.56996,460.14921 C123.744094,460.003301 125.599264,455.747636 130.798624,458.057854 C134.167223,459.541258 135.50978,460.65989 139.171301,460.222164 C139.708324,460.14921 143.076923,459.954665 143.076923,454.312869 C134.606605,447.187669 130.13955,439.746334 127.747356,433.423631" id="Fill-660" fill="#B5B5D0"></path>
            <path d="M139.79856,421.511352 C130.843456,413.242697 125.625713,400.426283 125.698518,387.609869 C124.31521,388.752889 122.689215,389.774311 120.116746,389.993187 C116.549266,390.285022 114.001066,385.810221 110.506391,386.175014 L105.264379,389.433837 C102.570567,390.771413 99.852487,389.701352 97.061601,388.388095 C94.0522978,418.471405 69.4196951,426.010472 70.8272724,429.390893 C72.3076555,432.96587 75.4140329,435.495105 78.9087076,435.665342 C83.5440052,435.859899 87.88808,432.211963 92.499109,432.868591 C95.3385322,433.282024 97.741121,435.251909 100.265053,436.735403 C102.788984,438.218897 105.943899,439.240319 108.443562,437.683867 C110.749077,436.273331 111.962505,432.917231 114.559243,432.309241 C118.17526,431.458056 121.427249,436.662445 124.99473,435.519425 L129.532953,432.260602 C134.338131,430.071841 139.677217,438.389134 144.142635,435.495105 C146.448149,434.011611 146.642298,430.266397 145.380332,427.712842 C144.118366,425.134968 141.83712,423.408278 139.79856,421.511352" id="Fill-661" fill="#BCB0CB"></path>
            <path d="M137.139593,364.275928 C133.097327,360.07799 131.538864,353.647621 130.443069,347.50844 C129.49338,342.267083 128.835903,336.928664 128.300181,331.590245 L127.667056,332.05129 C124.696234,333.482957 121.214042,331.735838 118.535432,329.843126 C115.832472,327.950414 112.886002,325.717984 109.622968,326.22756 C105.629405,326.834199 103.340412,331.201996 99.5903584,332.730725 C95.6698482,334.356516 91.457126,332.48807 87.6096688,330.376968 C86.854788,338.020613 85.8076952,345.639993 83.2995427,352.749796 C80.2069664,361.461125 74.5575355,369.444488 66.8139191,372.623274 C63.7700447,373.860817 59.6790776,375.535139 60.0199915,379.199236 C60.1417465,380.776496 66.4243032,393.734295 77.4309529,390.142995 C79.9878074,389.293701 84.2735825,387.01274 88.0966887,386.309039 C94.0626825,385.241355 99.7608153,392.472487 105.239789,389.754746 L110.499604,386.503164 C114.006147,386.13918 116.563002,390.60404 120.142598,390.312853 C126.205996,389.803277 127.131334,384.9987 131.392758,384.076609 C136.457765,382.960395 138.454546,385.799463 141.206209,387.206864 C145.930302,389.657684 151.311872,391.380537 153.625216,384.634717 C155.841157,378.155818 140.74354,368.012821 137.139593,364.275928" id="Fill-662" fill="#C4ADC8"></path>
            <path d="M142.755624,314.353739 L136.475953,310.289597 C132.451145,306.78856 130.705445,301.255451 130.147791,295.918205 C129.784103,292.564064 128.959745,287.618543 128.23237,283.089229 L124.643987,285.464058 L122.267895,287.104405 L119.770574,286.296473 C117.297499,284.729575 115.091128,282.74647 112.496824,281.399917 C109.878274,280.053364 106.70207,279.416812 104.059274,280.689916 C100.907316,282.207849 99.2585994,286.100611 95.9611661,287.251301 C92.348537,288.524406 88.6146786,286.027162 85.511212,283.799229 L84.6141162,283.18716 C82.310762,296.677171 76.0068454,317.512017 60.9744288,321.037537 L56.1737538,322.212711 L53.8461538,326.08099 L56.1010163,328.406854 C59.0832538,330.243063 62.1867205,331.956857 65.6053829,332.642375 C69.0240454,333.30341 72.8063954,332.789272 75.4734371,330.48789 L77.9707579,328.431337 L84.7110995,329.728924 C89.002612,332.226168 94.0214994,335.139619 98.6039619,333.229962 C102.33782,331.687547 104.616929,327.280646 108.593245,326.668577 C111.842187,326.154438 114.775933,328.406854 117.46722,330.316511 C120.134262,332.226168 123.601416,333.988928 126.559408,332.544444 C128.838516,331.418236 130.196283,328.553751 132.693603,328.137544 C136.257741,327.549957 138.464112,332.103754 141.810037,333.450307 C146.198532,335.213067 151.047699,330.292028 150.756749,325.517886 C150.465799,320.743744 146.756187,316.875465 142.755624,314.353739" id="Fill-663" fill="#CBA9C4"></path>
            <path d="M152.304165,276.537715 C143.935357,271.909411 139.81195,262.135813 137.738047,252.756112 C136.786491,248.472469 136.17652,244.114971 135.859335,239.757472 C127.100145,236.950947 119.829285,224.370824 118.170163,212.307692 C116.657434,221.416588 110.484523,237.123278 97.8703136,237.664888 C94.9180518,245.173572 89.7942917,251.820604 84.3777453,257.85217 C75.4477634,267.798099 62.0527906,271.515513 57.0022271,276.020724 C56.3922556,281.31373 59.2225231,285.64661 68.4696902,285.991271 C71.1535645,286.089746 73.5934503,282.667755 75.9601394,281.338349 C79.3271818,279.467333 83.4261899,281.633773 86.5736425,283.874069 C89.6966963,286.114365 93.4541203,288.625465 97.0895501,287.345296 C100.407795,286.18822 102.066917,282.273857 105.238769,280.747502 C107.898244,279.467333 111.094494,280.107417 113.729571,281.461442 C116.340249,282.815467 118.560545,284.809577 121.049228,286.38517 L123.562311,287.197585 L125.953399,285.548136 C129.052054,282.520044 133.687837,281.166019 137.908839,282.101527 C140.470719,282.643137 142.813009,283.947924 145.277294,284.809577 C147.765977,285.64661 150.620644,285.991271 152.889737,284.686484 C155.18323,283.381696 156.281179,279.935087 154.500062,277.990214 L152.304165,276.537715" id="Fill-664" fill="#D2A4C1"></path>
            <path d="M239.494655,518.315245 C239.227482,518.004412 228.006226,514.035312 223.877192,501.98455 L220.671119,500.143461 L216.9307,500 L215.424818,502.773588 C214.574722,506.694868 211.19863,509.038071 206.510963,507.89038 C201.28895,520.897551 190.772058,522.403896 192.496537,526.253445 C194.439611,530.629019 196.528417,525.464407 205.903752,530.055173 C211.830129,532.972223 211.951572,526.062163 214.76903,525.249215 L219.019506,527.162034 C221.472637,528.668379 224.460115,526.253445 226.257459,524.005882 L227.909072,522.666909 L233.009643,524.603638 C237.891618,525.105753 241.340576,520.538897 239.494655,518.315245" id="Fill-665" fill="#A1C0DB"></path>
            <path d="M230.973188,490.827468 C226.055924,486.196739 224.359468,479.411607 223.54812,472.527422 L217.40154,473.418899 L212.902244,470.769231 L211.009098,472.304553 C209.337228,474.409429 209.140537,478.965868 205.329658,480.055452 C204.444551,483.299438 203.461098,486.518661 202.428472,489.713121 C198.470075,501.79759 187.135783,500.65848 189.569828,504.496785 C192.003874,508.310326 199.281424,504.051046 204.444551,506.502608 C210.419026,509.350383 214.869149,506.775004 215.877189,502.069986 L217.40154,499.197448 L221.187833,499.346028 L224.703677,501.351851 C227.137722,501.847116 228.367038,499.66795 230.456875,498.033575 L236.923077,496.523016 L230.973188,490.827468" id="Fill-666" fill="#A8BCD7"></path>
            <path d="M239.596518,460.195474 C230.108035,456.382762 223.298942,447.049046 221.799466,436.923077 C218.677608,438.408549 217.743508,443.805765 214.1546,444.078101 C211.401465,444.276164 209.041635,440.95861 206.362244,441.701346 L202.601265,445.068416 L201.028045,446.108247 C195.030144,459.180402 178.830894,474.480765 181.928171,475.941479 C185.492497,477.625014 188.933916,473.738029 192.399916,474.876891 C195.841335,476.040511 199.012357,481.982399 203.953251,481.512 C208.894145,481.066358 208.918727,475.81769 210.737763,473.515208 L212.630543,471.98022 L217.128969,474.629312 C220.373736,476.708973 224.306786,473.416177 226.715779,470.370959 L228.903538,468.563634 C231.189623,467.91993 232.86117,470.915632 235.171837,471.509821 L240.038986,469.133065 L241.538462,463.587302 L241.268064,461.260063 L239.596518,460.195474" id="Fill-667" fill="#AEB9D3"></path>
            <path d="M242.509652,427.409091 C237.378442,422.378199 232.416659,417.057064 228.882901,410.816824 C226.946596,407.382273 225.51857,403.657479 224.768252,399.811749 L224.332583,400.005245 C221.549144,400.682481 218.523666,397.368865 216.054877,398.84427 L214.263794,400.779229 L206.95424,401.432277 L205.187362,400.150367 L201.363158,401.916016 L199.402649,405.01195 C194.876534,427.796082 172.560612,439.937945 175.682905,442.671073 C179.216662,445.81538 184.783541,440.663554 189.067617,443.033878 C193.32749,445.404202 199.015387,447.847086 202.64596,444.557657 L206.349145,441.268229 C208.987361,440.542619 211.310928,443.783674 214.021756,443.590178 C217.797552,443.324122 218.54787,437.204816 222.226851,436.309898 L224.574622,436.261524 C230.262519,436.648516 236.023028,436.019654 241.468888,434.37494 L244.615385,432.198112 L242.509652,427.409091" id="Fill-668" fill="#B5B5D0"></path>
            <path d="M230.607393,386.405519 C225.765466,384.409602 222.373659,379.777101 220.653177,374.824268 L219.989562,372.434094 L214.533177,372.384812 L209.150526,369.230769 L206.889322,371.0542 C204.701852,373.789347 203.300888,378.717539 198.262334,379.284282 L195.779924,379.013231 C188.357274,390.471278 176.854623,398.726 178.64884,401.608993 C181.352454,405.921161 186.5139,401.337942 189.537033,402.964246 C192.560165,404.565908 195.067153,407.448901 199.294623,405.502265 L201.998237,401.80612 L205.881611,400.00733 L207.675828,401.313301 L215.098478,400.647995 L216.917273,398.676718 C219.424261,397.17362 222.49655,400.549431 225.323056,399.859484 L230.263297,396.730082 L234.687393,396.828646 C237.391008,396.582237 239.283538,393.206425 238.103779,390.742329 C236.801128,388.081105 233.360165,387.539004 230.607393,386.405519" id="Fill-669" fill="#BCB0CB"></path>
            <path d="M240.198249,356.029429 C229.46425,351.722659 221.547318,341.3962 219.361662,330.017518 L217.661707,329.919637 C215.160345,329.430232 212.926119,327.448139 210.376187,327.717312 C206.587717,328.108836 204.984902,332.978423 201.584993,334.740283 L196.509414,335.107337 C192.453808,358.72116 166.420216,367.505991 169.480135,371.470177 C172.637194,375.556714 180.359845,372.032993 184.439736,373.403329 C188.519627,374.773665 192.623803,380.524181 197.577957,379.961365 C202.556396,379.398548 203.940645,374.504492 206.102015,371.78829 L208.336242,369.97749 L213.654671,373.109686 C217.491712,375.556714 222.154445,371.665939 224.971512,368.068807 L227.545729,365.915423 C230.265657,365.181314 232.184177,369.1455 234.97696,369.414673 C241.388217,370.02643 244.812412,360.678782 242.189625,357.277413 L240.198249,356.029429" id="Fill-670" fill="#C4ADC8"></path>
            <path d="M248.43961,316.549221 L242.739117,313.252116 C227.790613,307.789747 217.857565,291.2058 219.521228,275.384615 C214.57917,276.024352 211.814553,283.135273 206.603373,283.873431 C201.465589,284.586984 196.988378,278.657115 192.070785,279.10001 C191.850594,289.631063 190.969831,302.302773 186.810673,309.684352 C181.354837,319.30501 162.907747,326.908037 166.650989,330.820273 C170.394232,334.73251 176.559572,327.572379 184.241782,329.417773 C190.407122,330.918695 196.156546,337.562116 201.783642,334.658695 C205.208831,332.887116 206.823563,327.990668 210.640203,327.596984 C213.209094,327.326326 215.459933,329.319352 217.979893,329.811458 C222.26138,330.648037 226.053553,327.227905 229.258552,324.250668 L232.218893,322.454484 L236.793967,324.078431 C239.58305,325.628563 243.130567,326.194484 245.944115,324.693563 C248.757663,323.168037 250.250067,319.181984 248.43961,316.549221" id="Fill-671" fill="#CBA9C4"></path>
            <path d="M232.852352,260.80561 C226.352058,256.275677 223.089646,249.062251 221.298999,241.184107 C213.989235,240.839438 206.164353,234.192254 200.939589,224.615385 C198.241353,232.739721 194.144942,241.947302 186.908766,245.369371 L184.529413,251.376456 C175.453531,272.056584 152.739297,274.887792 157.59612,280.230159 C162.477473,285.572525 172.632649,278.777626 178.151766,283.57837 L181.880237,286.064909 C185.804942,286.901962 188.257883,281.584215 192.084471,280.427113 C197.456412,278.826864 202.239647,285.867956 207.783294,285.080141 C213.326941,284.292327 216.098764,276.19261 221.69147,276.438802 C223.899117,276.561898 225.787881,278.014431 227.774764,278.999199 C231.135293,280.673305 235.329822,280.944116 238.616763,279.097676 C241.903704,277.251236 243.915116,273.065972 242.737704,269.496187 C241.314998,265.237066 236.531763,263.366006 232.852352,260.80561" id="Fill-672" fill="#D2A4C1"></path>
            <path d="M66.6306638,554.628051 C64.6548127,538.285119 63.0448599,521.138436 54.5316248,507.036263 C36.6026052,477.248772 31.8459266,449.653329 16.5025888,418.526254 C0.159128767,385.40198 8.574791,344.28891 19.1614502,308.923876 C27.7966514,280.061917 50.7750683,262.574248 57.3368455,229.230769 C53.9461874,230.521642 50.5555293,231.130544 47.4088034,230.960051 C36.2367069,262.355043 22.308176,291.338783 8.1601062,322.611995 C-6.23189589,354.445397 1.54954253,383.03944 7.74542139,412.607726 C14.5755241,445.269234 31.4800282,472.304487 44.7743352,502.432963 C54.6535909,524.767492 59.5322357,547.613499 60.6787172,571.945227 C61.3373342,585.925619 61.3617275,597.592183 68.3137963,610.062498 C70.5823661,614.129964 73.8022716,612.181478 71.5337018,608.114012 C62.6789615,592.185133 68.7040878,571.896515 66.6306638,554.628051" id="Fill-673" fill="#BD70A1"></path>
            <path d="M300.056821,318.008285 C288.970243,289.336868 281.283548,264.276829 271.60127,236.923077 C269.310044,238.80197 266.427533,240.290443 263.076923,240.851671 C275.493891,268.205423 291.433927,295.290762 292.493311,325.40185 C293.183142,344.874013 286.112369,362.125666 281.529917,380.548576 C277.834391,395.408911 276.873554,410.684066 277.637296,425.959221 C279.411149,462.414623 299.317716,493.184544 287.812311,534.032163 C273.695401,584.249845 284.510975,616.923077 291.212195,616.923077 C294.390348,616.947462 272.094007,590.00853 296.459842,522.856411 C308.704352,489.133944 282.318296,451.946506 282.51539,416.198739 C282.712485,382.110254 312.449152,350.07147 300.056821,318.008285" id="Fill-674" fill="#BD70A1"></path>
            <path d="M220.475971,241.285488 C229.075156,281.497659 238.18736,321.149296 227.87811,358.753768 C218.912483,391.410925 204.132633,411.955688 214.954903,451.436729 C228.904149,502.274661 231.298241,547.556002 224.531268,570.708463 C213.464703,608.727243 202.056126,640.092736 214.954903,673.334797 C216.640539,677.648466 218.961342,678.403968 218.521611,673.773475 C216.10309,648.37888 214.686179,624.129723 220.720266,599.02758 C225.215294,580.310642 232.861729,562.422319 236.061994,543.388559 C242.047222,507.782509 227.609386,476.733839 220.744695,442.541309 C211.998933,398.99031 236.501725,363.238034 240.630311,320.832473 C243.439704,292.147791 239.628701,263.877417 230.614215,236.923077 C227.609386,240.213164 224.115967,241.553569 220.475971,241.285488" id="Fill-675" fill="#BD70A1"></path>
            <path d="M78.3293286,304.988572 C85.6466429,282.121104 98.4094003,259.81495 103.076923,236.923077 C101.010572,237.801656 98.7011205,238.240946 96.148569,238.094516 L93.4258474,237.630821 C87.4212739,265.696551 76.9922778,291.565832 70.8175342,320.436925 C64.5212405,349.869334 58.6625271,376.812434 76.5546976,404.926973 C84.9416525,418.081259 91.019156,436.043325 93.7175676,451.491679 C98.0204401,476.213926 93.4987775,499.008179 88.5395346,523.193516 C81.8542807,555.652142 75.9469472,574.175524 95.1518584,615.468753 C97.0966596,619.66641 99.454731,619.397956 97.9718201,614.980654 C84.0421819,573.12611 92.4048268,528.733447 98.4580204,487.049738 C102.712273,457.641735 103.903464,437.922509 90.6058858,411.809178 C72.2761351,375.787425 66.3444916,342.572244 78.3293286,304.988572" id="Fill-676" fill="#BD70A1"></path>
            <path d="M236.849197,107.328941 C228.381505,107.156633 229.193812,121.285864 232.959966,124.87971 C236.750736,128.473556 242.067659,125.864326 243.101505,119.907403 C243.643043,116.732018 245.316889,107.501249 236.849197,107.328941" id="Fill-677" fill="#17111C"></path>
            <path d="M95.2133137,110.750494 C92.8748521,107.279724 87.5825444,109.125878 86.0317752,111.267417 C82.9056213,115.599724 83.2502367,127.907417 90.3640829,128.10434 C97.4533137,128.301263 99.3733137,116.90434 95.2133137,110.750494" id="Fill-678" fill="#17111C"></path>
            <path d="M245.063622,132.309484 C249.995445,132.234772 263.883065,134.451217 265.919589,147.600463 C267.956113,160.749709 256.350381,168.121256 245.235377,167.672987 C224.992821,166.826255 226.980272,132.633234 245.063622,132.309484" id="Fill-679" fill="#E781A7"></path>
            <path d="M67.094656,132.948095 C77.974225,129.83704 90.9134006,138.404786 90.7680166,151.194677 C90.598402,164.009259 73.7096278,173.070823 61.7639094,164.058641 C53.452791,157.811841 56.2393176,136.059149 67.094656,132.948095" id="Fill-680" fill="#E781A7"></path>
            <path d="M148.070078,147.616957 C156.904743,161.57388 173.953663,160.712342 182.689063,147.296957 C184.351766,144.736957 180.232231,142.349265 178.569527,144.909265 C171.769813,155.346188 159.03896,156.060034 152.189613,145.229265 C150.551725,142.669265 146.43219,145.032342 148.070078,147.616957" id="Fill-681" fill="#17111C"></path>
            <path d="M276.923077,228.499841 C270.695813,224.786575 266.341594,217.310859 266.122666,210.056464 C263.690142,213.499228 253.71679,216.253439 251.138313,198.031381 C248.267934,212.392625 234.889047,217.630544 226.618462,198.326475 C222.750748,212.933631 208.666429,222.647143 199.276883,198.449431 C190.008963,225.499719 172.397483,210.17942 171.838002,198.178928 C159.286174,219.696203 144.277495,209.34332 141.626043,195.818176 C127.347122,215.146836 113.43308,203.982445 112.04654,190.555666 C102.121839,209.220364 88.5970005,205.630053 84.2184558,200.072449 C81.0561734,196.088679 79.5966585,191.07208 78.2587698,186.153846 C68.2610925,202.998798 55.1741087,198.719934 53.4226908,190.801577 L53.349715,192.842644 C52.6199575,200.810184 48.1927623,208.777723 39.6059494,210.40074 C35.7139096,211.138475 34.6679239,215.614068 35.8355359,220.384755 C42.7682318,239.197001 70.6449669,228.8933 79.2317798,208.359673 C79.1101535,219.204379 82.7346156,236.614928 96.4783812,237.524801 C110.246472,238.410083 116.86294,221.688087 118.444081,212.171304 C120.317125,225.819404 129.366118,240.131465 139.607047,240.180647 C149.847977,240.254421 157.388804,225.204625 159.578077,218.983059 C161.061917,225.352172 162.618733,231.868832 166.243195,237.278889 C169.891982,242.688947 176.119246,246.844855 182.541111,246.057937 C192.490138,244.85297 197.525465,233.639396 200.712072,224.024248 C210.442172,242.024985 229.415866,249.869569 236.689115,224.343934 C255.906062,252.181139 275.390586,238.016624 276.923077,228.499841" id="Fill-682" fill="#BD70A1"></path>
            <path d="M203.614291,488.717216 C203.302503,477.823765 202.175267,467.492084 198.505756,457.184827 C195.196,447.903412 189.319985,439.525713 186.945595,429.877926 C183.659824,416.493147 186.777709,403.425891 189.967546,390.529608 C195.028114,370.037219 204.11795,348.006069 196.179333,326.829787 C192.605757,317.328548 186.393969,313.29846 180.158198,306.142 C163.177714,286.724301 175.601289,268.478992 182.196816,246.105895 L181.789092,246.203594 C177.184215,246.765364 172.723241,244.738107 169.221615,241.538462 C161.642755,258.635806 155.311049,282.620938 164.712673,299.693858 C172.363485,313.615982 189.200066,314.837221 193.109415,332.252087 C197.210634,350.521821 186.226083,371.649255 180.446003,388.551201 C166.823242,428.31474 192.533806,447.170668 196.179333,462.802526 C200.736243,482.1958 192.557789,506.303056 193.709009,526.013852 C194.308602,536.12571 198.289902,546.897037 196.826894,556.960046 C195.555756,565.606417 193.373236,572.420931 193.445188,581.165001 C193.493155,585.830134 197.162666,585.732435 197.114699,581.067302 C196.99478,565.166771 208.842745,552.12394 202.990714,529.164649 C198.769577,512.677923 204.069982,504.324649 203.614291,488.717216" id="Fill-683" fill="#BD70A1"></path>
            <path d="M138.400575,241.359939 C135.643788,241.335583 132.959549,240.263905 130.517132,238.461538 C133.564107,249.93336 135.885612,261.794882 132.258261,273.48591 C129.04201,283.837342 121.303661,291.63136 116.926657,301.349528 C110.808525,314.842923 112.477107,324.926434 116.515557,338.785174 C120.650738,352.984902 124.350636,364.968206 119.973632,380.166542 C116.684834,391.516582 110.010508,401.648807 105.89951,412.682215 C100.531031,427.125506 98.3788022,441.836716 101.329048,457.181191 C105.294952,477.884053 119.659262,493.861792 125.414659,513.809608 C131.62952,535.340585 112.622201,553.559104 109.115761,574.50553 C106.286427,591.26267 111.001984,604.342008 118.764515,618.882724 C127.010693,634.422049 133.709201,644.749124 130.468768,663.941895 C128.824369,673.8062 124.761735,683.159023 123.093154,693.096397 C122.343501,697.651026 126.043399,698.430428 126.817234,693.851442 C129.549839,677.43529 139.440416,658.120737 136.683629,641.217459 C132.935366,618.273816 111.775819,611.892463 113.081665,587.365661 C114.218235,565.639833 136.151618,543.719155 134.434671,522.236891 C133.128825,505.74767 122.512778,491.401804 115.741722,476.885444 C100.506848,444.150565 108.075921,417.967534 120.239638,387.327297 C125.995035,372.835294 131.31515,362.970989 127.179969,348.016215 C122.416048,330.845017 116.95084,312.407292 134.289577,279.331424 C141.012268,266.49565 140.963903,254.244427 138.400575,241.359939" id="Fill-684" fill="#BD70A1"></path>
            <path d="M260.043251,127.692308 C241.281487,127.692308 241.746857,85.6503143 217.376158,63.7058519 C184.212413,33.8876288 150.36286,34.8110945 154.134807,19.6711166 C155.285986,14.9565809 160.992893,12.3076923 169.541008,12.3076923 C188.425238,12.3076923 221.246078,25.2119111 249.707135,56.9499708 C272.069394,81.9078478 281.793181,127.254877 260.312675,127.692308 C260.214703,127.692308 260.141223,127.692308 260.043251,127.692308" id="Fill-685" fill="#DDBBCE"></path>
        </g>
    </g>
</svg>