<?xml version="1.0" encoding="UTF-8"?>
<svg width="720px" height="720px" viewBox="0 0 720 720" version="1.1" xmlns="http://www.w3.org/2000/svg" xmlns:xlink="http://www.w3.org/1999/xlink">
    <!-- Generator: Sketch 64 (93537) - https://sketch.com -->
    <title>img_v</title>
    <desc>Created with Sketch.</desc>
    <g id="img_v" stroke="none" stroke-width="1" fill="none" fill-rule="evenodd">
        <g id="vulture" transform="translate(60.000000, 10.000000)">
            <path d="M389.864302,602.419617 C384.408482,598.28288 385.470155,562.275788 386.472846,545.466652 C383.228845,547.243701 378.923171,546.835854 375.590697,544.854881 C377.360152,560.149156 372.730078,589.688954 364.590585,601.050415 C356.775491,611.945765 318.85017,616.95646 313.984169,625.31733 C323.509735,630.415422 347.367888,617.655627 357.011419,619.986183 C346.12927,625.987365 338.550104,637.960597 334.775266,649.700773 C346.365197,644.107439 356.510073,633.299485 366.743422,625.550386 C362.732657,633.066429 358.839856,648.331572 363.14553,655.672823 C369.633532,644.835737 376.298479,621.967156 384.6739,618.733509 C393.01983,615.499863 402.132524,620.044447 408.178162,621.093197 C408.325617,614.130661 395.467576,606.672881 389.864302,602.419617" id="Fill-1488" fill="#E36A56"></path>
            <path d="M392.405976,503.536015 C377.707455,499.741701 363.840365,493.543356 350.923483,485.751979 C354.486761,518.365699 363.751283,532.384385 371.649882,542.377044 C375.717958,547.474748 384.982481,548.633317 388.664534,542.753579 C394.009451,534.26706 401.967438,523.289618 406.332454,506.635187 C401.789275,505.76626 397.157013,504.752512 392.405976,503.536015" id="Fill-1489" fill="#C5B6A9"></path>
            <path d="M495.29366,247.928667 C469.063128,204.748038 426.537427,169.365133 376.684763,161.332891 C362.91007,159.134284 305.495979,160.951799 276.363969,192.611731 C238.908528,233.32992 231.112638,288.29508 244.096019,340.709855 C254.822694,384.007743 309.980081,481.303404 391.514539,502.791117 C473.078304,524.27883 528.851156,493.146564 540.105373,449.643472 C557.983165,380.607232 521.494884,291.138611 495.29366,247.928667" id="Fill-1490" fill="#775B52"></path>
            <path d="M289.589446,407.470185 L288.377836,406.997361 C283.176781,402.121372 279.867018,396.565699 278.005277,392.783113 L278.803166,390.418997 L281.167282,391.216887 C282.910818,394.763061 285.984169,399.905013 290.801055,404.426385 L290.860158,406.908707 L289.589446,407.470185" id="Fill-1491" fill="#9F8077"></path>
            <path d="M319.997889,389.488127 L318.845383,389.044855 C313.023747,384.109763 308.20686,375.51029 306.640633,369.954617 L307.852243,367.76781 L310.03905,369.008971 C311.487071,374.121372 316.037995,382.011609 321.150396,386.355673 L321.327704,388.867546 L319.997889,389.488127" id="Fill-1492" fill="#9F8077"></path>
            <path d="M313.201055,440.36095 L311.900792,439.769921 C307.054354,434.480211 302.592084,428.776781 298.691293,422.777836 L299.193668,420.325066 L301.646438,420.856992 C305.458575,426.678628 309.773087,432.234301 314.501319,437.376253 L314.383113,439.888127 L313.201055,440.36095" id="Fill-1493" fill="#9F8077"></path>
            <path d="M347.273879,430.387335 L346.091821,429.944063 C340.743008,425.068074 335.68971,419.807916 331.079683,414.340897 L331.286544,411.829024 L333.798417,412.065435 C338.290237,417.414248 343.254881,422.556201 348.485488,427.313984 L348.603694,429.825858 L347.273879,430.387335" id="Fill-1494" fill="#9F8077"></path>
            <path d="M346.535092,377.44591 L345.175726,376.82533 C341.659103,372.717678 338.408443,368.314512 335.512401,363.763588 L336.073879,361.340369 L338.526649,361.872296 C341.304485,366.275462 344.466491,370.530871 347.864908,374.520317 L347.687599,377.002639 L346.535092,377.44591" id="Fill-1495" fill="#9F8077"></path>
            <path d="M419.143008,426.456992 L418.197361,426.191029 C414.414776,423.856464 410.691293,421.285488 407.145119,418.596306 L406.790501,416.113984 L409.272823,415.759367 C412.759894,418.418997 416.365172,420.901319 420.059103,423.176781 L420.650132,425.6 L419.143008,426.456992" id="Fill-1496" fill="#9F8077"></path>
            <path d="M370.811609,458.919261 L370.191029,458.801055 C363.216887,456.200528 355.060686,448.871768 351.544063,444.882322 L351.721372,442.4 L354.203694,442.547757 C357.749868,446.566755 365.403694,453.245383 371.43219,455.491293 L372.466491,457.766755 L370.811609,458.919261" id="Fill-1497" fill="#9F8077"></path>
            <path d="M348.086544,474.27124 L347.022691,473.916623 C341.112401,469.395251 335.438522,464.401055 330.178364,459.081794 L330.207916,456.599472 L332.719789,456.599472 C337.83219,461.800528 343.387863,466.676517 349.179947,471.109235 L349.505013,473.591557 L348.086544,474.27124" id="Fill-1498" fill="#9F8077"></path>
            <path d="M402.372559,497.823747 L401.899736,497.764644 C395.753034,496.139314 389.665435,494.100264 383.755145,491.765699 L382.750396,489.460686 L385.055409,488.455937 C390.817942,490.76095 396.816887,492.740897 402.815831,494.336675 L404.056992,496.493931 L402.372559,497.823747" id="Fill-1499" fill="#9F8077"></path>
            <path d="M409.051187,477.684433 L408.401055,477.536675 C401.279156,474.699736 394.364116,471.271768 387.803694,467.311873 L387.183113,464.859103 L389.606332,464.268074 C396.018997,468.139314 402.78628,471.478628 409.701319,474.256464 L410.706069,476.561478 L409.051187,477.684433" id="Fill-1500" fill="#9F8077"></path>
            <path d="M297.198945,385.557784 L295.928232,385.025858 C293.002639,381.982058 289.988391,377.224274 288.865435,373.944063 L289.988391,371.698153 L292.234301,372.821108 C293.150396,375.569393 295.957784,379.943008 298.469657,382.573087 L298.440106,385.055409 L297.198945,385.557784" id="Fill-1501" fill="#9F8077"></path>
            <path d="M344.998417,399.978892 L343.816359,399.53562 C339.442744,395.66438 331.493404,387.508179 329.661214,381.656992 L330.843272,379.440633 L333.059631,380.59314 C334.537203,385.350923 341.718206,392.945646 346.180475,396.875989 L346.328232,399.387863 L344.998417,399.978892" id="Fill-1502" fill="#9F8077"></path>
            <path d="M317.663325,418.670185 L316.333509,418.108707 C312.28496,413.675989 308.561478,408.859103 305.310818,403.835356 L305.813193,401.382586 L308.265963,401.88496 C311.427968,406.76095 315.033245,411.430079 318.963588,415.71504 L318.845383,418.226913 L317.663325,418.670185" id="Fill-1503" fill="#9F8077"></path>
            <path d="M368.196306,424.166755 L367.132454,423.782586 C361.369921,419.408971 355.873351,414.592084 350.731398,409.479683 L350.701847,406.96781 L353.21372,406.96781 C358.237467,411.962005 363.645383,416.690237 369.28971,420.975198 L369.614776,423.45752 L368.196306,424.166755" id="Fill-1504" fill="#9F8077"></path>
            <path d="M378.229024,403.436412 L377.106069,403.022691 C373.412137,400.067546 369.865963,396.787335 366.585752,393.241161 L366.674406,390.758839 L369.18628,390.847493 C372.348285,394.24591 375.746702,397.407916 379.322427,400.274406 L379.588391,402.756728 L378.229024,403.436412" id="Fill-1505" fill="#9F8077"></path>
            <path d="M397.747757,426.811609 L396.861214,426.575198 C392.51715,424.033773 388.261741,421.226385 384.213193,418.27124 L383.829024,415.788918 L386.311346,415.404749 C390.241689,418.300792 394.408443,421.049077 398.634301,423.531398 L399.284433,425.925066 L397.747757,426.811609" id="Fill-1506" fill="#9F8077"></path>
            <path d="M384.346174,451.945119 L383.577836,451.76781 C375.776253,447.955673 371.905013,445.296042 367.620053,440.804222 L367.679156,438.292348 L370.191029,438.351451 C374.180475,442.547757 377.667546,444.941425 385.114512,448.576253 L385.941953,450.940369 L384.346174,451.945119" id="Fill-1507" fill="#9F8077"></path>
            <path d="M340.831662,449.566227 L339.679156,449.122955 C334.980475,445.015303 330.518206,440.523483 326.440106,435.795251 L326.617414,433.283377 L329.099736,433.490237 C333.089182,438.070712 337.433245,442.444327 342.01372,446.463325 L342.161478,448.945646 L340.831662,449.566227" id="Fill-1508" fill="#9F8077"></path>
            <path d="M379.366755,481.422691 L378.509763,481.18628 C372.806332,478.083377 367.25066,474.596306 361.990501,470.81372 L361.576781,468.331398 L364.029551,467.917678 C369.201055,471.611609 374.638522,475.039578 380.194195,478.083377 L380.90343,480.506596 L379.366755,481.422691" id="Fill-1509" fill="#9F8077"></path>
            <path d="M435.100792,471.301319 L434.421108,471.183113 C428.481266,468.818997 422.659631,465.922955 417.163061,462.583641 L416.572032,460.160422 L418.995251,459.569393 C424.344063,462.790501 429.958839,465.597889 435.750923,467.902902 L436.726121,470.207916 L435.100792,471.301319" id="Fill-1510" fill="#9F8077"></path>
            <path d="M407.943008,450.482322 L407.115567,450.24591 C400.85066,446.817942 394.703958,443.035356 388.85277,438.986807 L388.379947,436.534037 L390.862269,436.061214 C396.624802,440.05066 402.653298,443.774142 408.8,447.172559 L409.509235,449.566227 L407.943008,450.482322" id="Fill-1511" fill="#9F8077"></path>
            <path d="M431.672823,450.216359 L430.99314,450.098153 C426.146702,448.118206 421.388918,445.75409 416.897098,443.035356 L416.306069,440.612137 L418.729288,440.021108 C423.073351,442.621636 427.653826,444.897098 432.352507,446.817942 L433.298153,449.122955 L431.672823,450.216359" id="Fill-1512" fill="#9F8077"></path>
            <path d="M599.544493,417.184082 C604.740233,414.46934 580.816346,366.217 559.152753,333.085477 C559.710488,336.033745 559.416943,338.047908 558.095992,338.748486 C546.559689,344.820166 528.653467,327.247323 524.162234,323.218997 C527.009617,327.48085 541.804266,354.949363 531.618268,361.69243 C521.461624,368.435498 503.115085,347.505717 497.009357,336.705132 C502.439932,345.491554 511.774651,370.741569 503.115085,377.221919 C494.455519,383.70227 480.482795,362.04272 468.506174,352.234621 C470.061961,362.130292 490.903629,390.708054 477.341867,396.779734 C463.750751,402.851414 441.412006,373.251975 440.002991,371.821627 C441.558778,375.674809 459.817253,405.916445 446.783872,410.966448 C444.112616,411.988125 437.419799,408.485233 428.496042,401.421067 L432.781794,406.967313 C466.627489,448.914447 564.964937,542.208144 578.467989,533.159005 C591.971042,524.080676 546.412917,482.83412 528.389277,459.481505 C542.919736,470.340471 584.515008,507.587892 593.40941,502.100028 C602.303812,496.582972 549.289654,424.452583 525.51254,391.379442 C547.909994,415.023965 587.303682,459.569078 596.9613,456.62081 C606.618918,453.672542 564.964937,393.276842 545.884536,359.678267 C565.84557,380.111805 593.40941,420.424257 599.544493,417.184082" id="Fill-1513" fill="#413030"></path>
            <path d="M473.668883,364.912877 C475.667133,369.096894 477.812312,373.632018 479.399157,377.962329 C516.337383,424.220591 563.737031,472.000313 593.622612,501.815094 L594.092788,497.338488 C561.768168,465.065963 510.607109,413.219259 473.668883,364.912877 Z M556.419912,377.055304 C552.540958,370.706131 548.926477,364.678806 545.899717,359.353693 C548.426915,361.928473 551.042271,364.8251 553.745785,367.926539 C544.959365,356.574101 537.377772,346.274981 531.647498,337.994723 C532.969869,341.41801 534.057152,345.01685 534.674258,348.381619 C540.78655,356.83743 548.162441,366.609891 556.419912,377.055304 Z M528.38565,459.389744 C532.323377,462.344889 538.229967,467.20186 544.900593,472.61475 C519.834319,447.773975 495.061905,422.523577 470.700895,397.039108 C468.056154,396.512448 465.293868,395.254317 462.560968,393.528044 C486.863206,419.071031 511.606234,444.409206 536.672508,469.337757 C533.586976,465.797435 530.736532,462.432665 528.38565,459.389744 Z M525.50582,391.128817 C529.884337,395.751718 534.909346,401.193866 540.228216,406.899344 C528.591352,393.293973 517.218963,379.337496 506.493066,364.942135 L506.346136,370.589096 C517.953614,385.979258 530.295742,400.813501 542.872958,415.296638 C536.408033,406.255649 530.354514,397.858356 525.50582,391.128817 Z M598.089287,406.109355 C581.339256,384.574832 565.118174,359.909611 552.158939,339.574702 L547.42779,338.696936 C561.944484,361.548107 580.898466,390.514381 600.263852,414.506649 C600.146308,412.604822 599.382272,409.737454 598.089287,406.109355 Z M526.886963,362.630685 L521.45055,361.255519 C542.138307,388.817367 575.844071,433.612686 597.295864,456.259045 L598.206831,452.075028 C577.607232,429.867551 546.193578,388.319967 526.886963,362.630685 Z M477.16582,431.330495 C474.021516,427.673137 470.671509,423.928002 467.027643,419.831762 C462.47281,414.740719 457.300871,408.976724 451.306123,401.954597 L450.659631,406.606756 C455.83157,412.575564 460.357017,417.637347 464.382901,422.172471 C468.026768,426.268711 471.347388,429.955328 474.491692,433.612686 C505.170695,469.279239 540.904094,499.211056 580.633992,530.079156 L580.545834,525.544032 C541.873833,495.436662 507.080787,466.090023 477.16582,431.330495 L477.16582,431.330495 Z" id="Fill-1514" fill="#775B52"></path>
            <path d="M556.447139,339.387723 C567.913131,333.308796 502.793299,231.632889 468.512025,202.991789 C434.230751,174.350689 385.740984,158.451955 344.019944,174.40914 C337.076163,177.06867 330.132382,180.809549 326.07698,187.06383 C322.546738,192.470568 321.117136,199.163234 321.408892,205.592868 C326.135331,315.36427 432.8595,416.74792 445.813445,411.691889 C458.767391,406.635858 440.620197,376.358123 439.073893,372.500342 C440.474319,373.932397 462.676915,403.596394 476.185195,397.488241 C489.6643,391.409314 468.949658,362.797439 467.403354,352.889956 C479.306979,362.709762 493.194542,384.395167 501.80133,377.907081 C510.408118,371.418995 501.130292,346.13884 495.732815,337.34193 C501.80133,348.155407 520.03605,369.110171 530.130791,362.359055 C540.254707,355.607938 525.550229,328.106637 522.720201,323.839697 C527.18406,327.872832 544.981147,345.466651 556.447139,339.387723" id="Fill-1515" fill="#434544"></path>
            <path d="M377.102942,254.881266 C371.767419,254.881266 365.171304,251.351528 358.311346,244.642109 L358.311346,242.395912 L360.539366,242.395912 C370.653408,252.314184 377.894476,253.014298 381.265823,250.388872 C385.135544,247.384219 385.692549,238.57446 379.213699,227.606017 L379.624124,225.56402 L381.705564,225.709877 C391.438497,235.715663 399.646995,237.11589 403.458083,234.140408 C406.917379,231.398298 407.679596,223.842908 401.142114,213.720436 L401.523223,211.620096 L403.663296,211.824295 C412.751275,221.917596 420.109607,226.351647 423.334374,223.726222 C427.08683,220.663226 425.650343,208.819642 420.725245,202.25608 L420.959773,200.126568 L423.129162,200.214082 C436.32139,213.574579 440.982644,211.474239 442.067339,210.482411 C445.204157,207.769472 443.796986,198.142914 439.399577,192.425321 L439.692737,190.237467 L441.920758,190.529181 C446.992437,197.121915 449.103194,208.586271 444.148779,212.874465 C441.510333,215.149834 436.497287,215.820776 427.174778,208.207043 C429.373483,215.149834 429.226903,222.967766 425.327866,226.147448 C422.54284,228.451987 417.383213,228.947901 408.060705,220.721569 C410.523254,228.218616 408.881555,233.848695 405.422259,236.590805 C401.640487,239.566287 394.487368,240.033029 385.428704,233.206924 C388.594839,241.783313 387.891254,249.222017 383.200683,252.868441 L377.102942,254.881266" id="Fill-1516" fill="#566165"></path>
            <path d="M379.020071,297.361478 C375.074682,297.361478 369.931064,294.817686 364.056818,289.907578 L363.852243,287.659577 L366.044125,287.452524 C374.139479,294.226107 379.283097,294.99516 381.416529,293.486633 C383.549962,291.948527 384.57284,286.71305 380.948928,276.597043 L381.562655,274.733568 L383.491512,274.881463 C392.960445,283.488942 398.83469,284.465048 400.997348,282.69031 C403.276906,280.826835 403.218456,274.763147 398.65934,266.806405 L398.951591,264.824614 L400.909673,264.67672 C411.693736,272.130619 420.169015,274.467357 424.114404,271.006618 C427.767542,267.841669 427.29994,259.79619 422.9454,250.508395 L423.354551,248.615341 L425.254183,248.497025 C434.723116,255.004398 441.883266,256.956609 444.864227,253.939555 C448.049763,250.685868 446.734633,241.753021 442.029392,234.801963 L442.204743,232.761015 L444.221275,232.61312 C453.660983,239.357124 460.850358,241.7826 464.006669,239.297966 C467.016855,236.90207 466.578478,229.684802 462.80844,220.01248 L463.714418,217.941953 L465.760175,218.8589 C470.173166,230.246803 470.260841,238.381018 465.964751,241.7826 C463.276041,243.912285 457.986298,244.858812 447.640612,238.647229 C450.300096,245.154602 450.796923,252.431027 447.11456,256.187556 C444.42585,258.908821 438.931531,260.476506 427.738317,253.850818 C430.806953,262.606192 430.280901,269.882618 426.160161,273.432094 C423.471452,275.768832 417.100379,278.194307 403.890633,270.355881 C406.491667,276.98157 406.228641,282.512836 402.984655,285.174943 C399.302292,288.162419 393.077345,286.535576 385.508044,280.708519 C387.407675,288.280735 386.618598,293.664107 383.228486,296.089582 L379.020071,297.361478" id="Fill-1517" fill="#566165"></path>
            <path d="M404.885541,334.300792 C399.30313,334.300792 392.412343,330.910574 386.044906,324.631302 L386.015831,322.361331 L388.225535,322.361331 C397.355102,331.323296 405.583342,332.531983 409.334024,329.819809 C413.317306,326.960234 413.171931,319.796558 408.985123,310.628231 L409.508474,308.682541 L411.514653,308.829942 C422.970224,319.855518 431.140314,320.533561 434.978221,317.467626 C439.659304,313.753127 439.223178,304.64376 433.931519,295.328033 L434.309494,293.293902 L436.315673,293.323383 C443.002935,299.189932 449.428522,301.135622 452.626778,298.246568 C455.388908,295.740755 455.737809,289.048761 449.893723,280.293156 L450.184473,278.200065 L452.248802,278.200065 C460.418892,285.688024 465.390726,286.572428 467.30968,284.862579 C469.635684,282.828449 469.199558,276.106975 464.402174,268.766417 L464.722,266.643846 L466.815404,266.761767 C477.020748,277.16826 484.144136,278.170585 487.400541,275.635292 C490.686022,273.099999 491.412899,265.877363 486.41199,257.062798 L486.993491,254.881266 L489.11597,255.470869 C494.407629,264.816077 494.494854,274.161285 489.29042,278.170585 C484.871012,281.590283 478.18375,280.145755 470.682386,274.426606 C472.514114,279.939394 472.165214,284.833099 469.344933,287.279952 C467.513205,288.87188 463.588073,290.316407 456.144859,285.334262 C458.877914,292.438978 457.685837,297.922286 454.691107,300.63446 C451.812676,303.228713 446.491942,303.936237 439.397629,299.573174 C442.595885,308.181378 441.781783,316.111539 436.926249,319.973438 C431.547364,324.27754 423.231899,322.479251 414.131408,315.315575 C416.428337,323.157295 415.439785,329.348126 411.165752,332.414062 L404.885541,334.300792" id="Fill-1518" fill="#566165"></path>
            <path d="M433.341627,374.934037 C427.096994,374.934037 418.955627,371.070524 410.230649,363.7269 L410.026385,361.485472 L412.244105,361.279025 C423.303525,370.598644 433.283266,374.049263 438.273136,370.274227 C443.058743,366.705639 442.650215,356.884648 437.251818,344.025932 L437.864609,342.049937 L439.878065,342.344862 C447.669266,351.251587 454.555871,352.903165 457.678187,350.632245 C461.15067,348.095893 461.559197,340.132927 454.672593,328.011523 L455.05194,325.94705 L457.123757,326.06502 C465.965457,334.853775 472.297631,336.800278 474.632074,334.883268 C477.229141,332.700825 476.178642,324.885322 469.116954,314.150064 L469.46712,311.997114 L471.626479,312.233054 C481.256053,323.322221 489.280699,325.711111 492.636459,323.263236 C495.787956,320.962824 496.138123,313.206305 489.455782,301.645258 L489.89349,299.521801 L492.023668,299.816725 C500.310938,309.873656 507.255904,310.492998 510.670025,307.956646 C514.638577,305.007399 515.805798,297.191896 510.232317,288.491618 L510.699206,286.279683 L512.887745,286.751563 C519.511725,297.103418 517.644171,306.717962 512.537579,310.522491 C508.919194,313.235798 503.024727,313.589707 496.079761,308.281063 C499.026995,316.361999 498.560106,322.879834 494.474832,325.829081 C490.272836,328.866805 483.765579,327.215227 476.762252,321.611658 C479.797027,328.866805 479.855388,334.647328 476.616349,337.331142 C473.260589,340.132927 467.599566,338.687796 460.858865,333.585599 C465.03168,344.11441 463.047404,350.632245 459.48738,353.227582 C455.285384,356.265306 449.01157,354.76119 442.621035,349.452546 C446.093517,360.659683 445.276463,368.976559 440.16987,372.840072 C438.302317,374.25571 435.997055,374.934037 433.341627,374.934037" id="Fill-1519" fill="#566165"></path>
            <path d="M376.781003,240.609259 C369.136856,237.097097 361.845515,206.102271 329.387291,200.014524 C331.445331,196.268218 337.678251,194.482869 340.500705,189.273163 C340.265501,185.761001 314.716409,176.834257 292.548383,193.048737 C291.901571,187.751226 294.047812,174.1416 293.342198,173.614776 C280.523552,173.614776 261.530787,186.843918 257.091301,197.673083 C220.017189,189.273163 213.166857,206.512023 217.606342,221.350906 C198.907583,221.58505 181.237843,244.414101 181.002639,245.701893 L184.795311,250.794528 C191.969049,254.716441 200.083605,256.94081 208.256963,257.292027 C200.554014,263.906598 192.733464,270.638241 187.235558,279.155233 C181.737653,287.672225 179.297406,304.38426 183.531087,310.881759 C187.382561,310.413471 193.821285,308.80373 207.492548,312.608572 C203.494071,329.262072 204.052682,356.803273 217.782746,371.58362 C218.958768,365.671481 224.486075,361.749567 229.601773,358.47155 C237.77513,353.174039 245.948487,347.905797 254.151245,342.637554 C255.650674,359.759342 266.146676,375.85675 281.229166,384.168865 C280.993961,373.778721 285.11004,363.33004 292.40138,355.866696 C297.811084,350.36431 304.896621,346.296056 308.630492,339.593681 C313.804992,346.149716 319.008892,352.705751 324.183391,359.261786 C334.708794,342.227802 351.378914,325.252354 352.17273,298.384318 C356.818019,303.35988 356.612215,312.023212 370.312878,317.232918 C367.490424,303.594024 384.836758,271.487013 354.201369,238.589766 C360.257885,243.82874 371.371299,243.126308 376.781003,240.609259" id="Fill-1520" fill="#C5B6A9"></path>
            <path d="M276.65135,284.473676 L282.959078,277.230511 C285.570184,275.265766 288.709379,274.151433 291.848573,273.183722 C287.007759,266.849619 280.612016,261.717822 273.394802,258.345498 C279.673192,255.061148 286.597023,252.920455 293.667546,252.158017 C288.122613,247.905957 283.663196,242.275642 280.670693,235.970863 C258.197579,238.46345 248.310582,222.012375 251.919189,191.954707 C258.16824,139.551728 263.713173,59.8182648 216.1265,20.6993093 C194.94427,3.25119942 171.150933,-1.20613284 144.365094,0.260094878 C117.579254,1.7263226 76.2122939,21.637695 86.5980412,50.8449512 C98.9787909,85.535899 146.301419,92.3391956 182.270138,74.0699982 C220.380549,107.793236 192.773238,165.797204 197.32067,228.317154 C200.782585,275.61766 233.436079,300.220962 269.727518,294.766594 C271.869212,291.247648 274.245612,287.816675 276.65135,284.473676" id="Fill-1521" fill="#E36A56"></path>
            <path d="M94.4459003,20.2202073 C78.0294023,18.4910091 39.8713416,14.0068174 18.865285,32.5590617 C3.1842932,46.4219551 -4.55323183,65.6189851 2.80182999,92.348285 C17.8355763,57.8522478 79.2650527,71.7444497 104.125162,74.6459855 C104.125162,74.6459855 141.253514,61.3399525 131.28005,58.9952771 C90.2093847,49.2941825 103.8898,21.1873859 94.4459003,20.2202073" id="Fill-1522" fill="#E69B2E"></path>
            <path d="M143.600771,21.3498225 C139.168053,16.7102446 126.904201,20.1973159 126.106311,28.2057592 C125.278871,36.184651 133.375968,43.9862341 144.014491,37.3076061 C148.860929,34.2933581 148.033488,25.9894003 143.600771,21.3498225" id="Fill-1523" fill="#17111C"></path>
            <path d="M2.8348499,92.348285 C10.1575242,75.712089 28.345142,70.3038556 48.0211082,69.5102562 C46.5327598,56.4893466 42.9309566,43.7329702 37.3645334,31.8583709 C36.0845538,29.1542543 34.6557393,26.5383153 33.07809,24.0105541 C27.9581714,26.0680342 23.1954564,28.7721508 19.0876147,32.3874372 C3.22182049,46.290124 -4.60689224,65.5422589 2.8348499,92.348285" id="Fill-1524" fill="#17111C"></path>
            <path d="M459.374174,632.62849 C457.309667,629.666138 454.566821,593.267338 454.36037,570.712401 C450.8802,573.176139 446.780677,573.26413 443.005577,571.328336 C444.627691,593.912603 442.297746,626.527805 435.927265,634.916247 C421.829627,653.511605 385.346825,655.50606 386.025164,668.558007 C402.68869,664.363786 411.005707,664.862399 426.076614,656.649938 C418.850837,664.187804 407.2601,679.234206 404.517254,689.294471 C416.668357,689.20648 427.787206,666.32891 439.348449,662.691963 C438.227717,674.922664 433.09594,690.61433 438.817576,700 C448.579748,677.591714 452.797243,657.265873 460.229471,653.188973 C467.956628,648.906761 478.839533,649.082742 487.598945,650.16796 C482.142746,640.400998 465.744655,641.808848 459.374174,632.62849" id="Fill-1525" fill="#E36A56"></path>
            <path d="M480.148224,484.833341 C478.294335,486.689997 478.352269,487.386244 471.400189,490.287269 C469.4594,488.778736 467.055139,486.922079 463.955669,483.905013 C462.391451,487.444264 457.061523,491.505699 455.294536,493.217304 L450.978453,489.736074 C449.124564,494.174643 445.098151,496.843586 444.113273,497.655873 L428.326257,484.746311 C426.993775,486.864059 426.993775,489.068838 421.808682,492.259966 C417.898136,490.867474 417.144994,487.879418 414.248294,484.746311 C410.482584,524.084213 427.746917,552.224158 437.914335,565.946008 C443.765669,573.865807 453.064077,575.258299 458.625741,566.903346 C466.157162,555.589348 481.306904,526.550085 480.148224,484.833341" id="Fill-1526" fill="#C5B6A9"></path>
        </g>
    </g>
</svg>