<?xml version="1.0" encoding="UTF-8"?>
<svg width="720px" height="720px" viewBox="0 0 720 720" version="1.1" xmlns="http://www.w3.org/2000/svg" xmlns:xlink="http://www.w3.org/1999/xlink">
    <!-- Generator: Sketch 64 (93537) - https://sketch.com -->
    <title>img_u</title>
    <desc>Created with Sketch.</desc>
    <g id="img_u" stroke="none" stroke-width="1" fill="none" fill-rule="evenodd">
        <g id="unicorn" transform="translate(10.000000, 27.000000)">
            <path d="M94.3094369,340.846204 C134.66201,298.735581 194.27028,333.495986 206.928406,360.446785 C172.355099,273.188469 87.1492844,289.624373 54.9285983,347.252123 C16.6217825,415.777592 38.7671112,493.567399 0,504.771377 C62.1398947,507.604273 46.0551236,391.200301 94.3094369,340.846204" id="Fill-1146" fill="#F0C0D0"></path>
            <path d="M83.4157763,430.200682 C102.876048,376.553509 132.71854,302.446149 206.928406,359.883194 C194.27028,332.841946 134.66201,297.964881 94.3094369,340.216831 C46.0551236,390.739921 62.1398947,507.534554 0,504.69215 C59.8639891,516.625125 70.8855095,464.744852 83.4157763,430.200682" id="Fill-1147" fill="#FDF6B1"></path>
            <path d="M109.806053,450.92956 C131.235366,383.267688 154.659293,332.225872 206.928406,360.790794 C132.71854,303.172882 102.876048,377.513603 83.4157763,431.329709 C70.8855095,465.982657 59.8639891,518.0263 0,506.055748 C17.1843659,518.617121 81.5490223,540.0665 109.806053,450.92956" id="Fill-1148" fill="#9D99BF"></path>
            <path d="M206.928406,359.332656 C154.659293,330.789965 131.235366,381.792057 109.806053,449.401272 C81.5490223,538.46884 17.2099379,517.036155 0,504.484558 C9.2314823,529.305405 91.9568153,577.253018 133.894851,460.079113 C153.022687,406.638572 159.696972,352.273987 206.928406,359.332656" id="Fill-1149" fill="#92C9DB"></path>
            <path d="M576.392091,94.2221246 C470.042285,96.8578236 494.415182,235.526298 450.1497,283.864506 C415.996921,321.122543 349.918719,310.886819 324.496149,314.469322 C290.829804,319.203345 190.470815,315.569662 176.005808,380.64328 C156.93248,466.341881 229.923163,521.538025 340.958095,522.587186 C404.552924,523.20133 506.268808,508.461887 546.642819,407.665592 C591.957975,294.458481 574.779179,212.879758 602.710724,218.151156 C653.248644,227.695969 675.675805,227.568023 688.579104,200.468943 C698.99903,178.590082 696.438851,152.207503 646.617782,125.134012 C621.758451,111.648445 607.575063,93.4544453 576.392091,94.2221246" id="Fill-1151" fill="#B1D9CD"></path>
            <path d="M612.702079,219.684479 C656.152045,227.18259 676.49582,225.250087 688.552346,199.947186 C698.956587,178.122789 696.45234,151.86652 647.65826,124.91455 C631.109581,154.44319 619.25959,186.522734 612.702079,219.684479" id="Fill-1152" fill="#F0AEAC"></path>
            <path d="M580.218285,114.879239 C574.993342,115.112034 565.940225,119.923119 567.000733,123.673697 C568.061241,127.45014 576.415975,121.992403 580.399347,120.880163 L584.124058,118.164228 L580.218285,114.879239" id="Fill-1153" fill="#9D99BF"></path>
            <path d="M569.053118,138.474256 C573.041662,145.183954 584.02311,157.00699 593.295181,153.315409 C602.308256,149.748544 599.873689,135.057049 597.957116,128.147806 L594.460665,129.120587 C595.833346,134.059324 598.682306,148.2769 591.378607,150.272349 C584.152608,152.242855 575.217232,141.816633 572.135175,136.628465 L569.053118,138.474256" id="Fill-1154" fill="#17111C"></path>
            <path d="M668.157866,165.527489 C660.915372,163.484071 657.940776,181.331646 667.27842,181.460977 C676.564332,181.616173 675.40036,167.545041 668.157866,165.527489" id="Fill-1155" fill="#17111C"></path>
            <path d="M597.405962,169.14378 C588.429495,154.831535 572.106295,165.54672 570.916331,172.994154 C569.803973,179.808302 572.571933,184.82392 576.86615,186.647782 C587.653432,191.232766 606.382429,183.456024 597.405962,169.14378" id="Fill-1156" fill="#E998B8"></path>
            <path d="M615.358458,107.13164 C618.032122,89.6786544 610.47277,70.3336419 606.529596,53.1316397 C601.374618,56.7226301 589.006517,71.0286723 585.236458,96.7254903 C597.796909,96.9957799 606.664241,101.474865 615.358458,107.13164" id="Fill-1157" fill="#B1D9CD"></path>
            <path d="M383.140878,314.083488 C369.713585,315.792345 348.255493,306.989142 331.759105,299.81712 C315.262717,292.645098 296.796993,286.405181 279.686786,291.920129 C263.983247,296.969025 252.806625,310.924691 244.110855,325.0616 C257.819481,320.53054 272.883624,320.271622 286.745705,324.284847 C294.648626,326.589215 302.091182,330.214063 309.917376,332.725565 C348.587978,345.101834 372.884984,325.605327 383.140878,314.083488" id="Fill-1158" fill="#9D99BF"></path>
            <path d="M295.842956,302.508016 C334.696305,288.995718 355.532567,326.389039 414.171395,315.158367 C440.338459,310.16414 456.715299,290.187234 460.73903,255.861432 C418.861476,308.186731 337.131047,252.109424 295.842956,302.508016" id="Fill-1159" fill="#F0C0D0"></path>
            <path d="M481.755196,213.829099 C453.558412,282.195081 389.722953,242.253207 349.191686,279.539099 C419.413266,318.663748 455.850206,303.187549 469.678218,270.932698 C481.368939,243.657813 481.755196,213.829099 481.755196,213.829099" id="Fill-1160" fill="#92C9DB"></path>
            <path d="M453.086469,202.471308 C438.906329,226.330026 417.049531,247.148433 389.60739,249.596141 C449.719961,287.883458 502.461919,234.317286 493.739603,162.096998 C471.933813,165.111544 465.838393,181.008768 453.086469,202.471308" id="Fill-1161" fill="#FDF6B1"></path>
            <path d="M477.566572,137.780808 C438.659849,167.427195 445.86195,213.896422 386.374134,211.96128 C400.21447,223.830155 421.974555,232.680208 443.555227,226.178128 C502.658589,208.374815 483.487161,156.92582 515.704388,126.531178 C505.119094,126.582782 488.433799,129.498397 477.566572,137.780808" id="Fill-1162" fill="#9D99BF"></path>
            <path d="M468.054332,113.78896 C440.130592,126.814618 434.909288,179.989949 399.307159,191.610879 C435.344397,207.088425 455.589748,198.047086 475.527964,174.268876 C489.784172,157.258899 515.711531,117.543414 538.337182,115.346931 C503.579677,106.305592 490.577605,103.266272 468.054332,113.78896" id="Fill-1163" fill="#E998B8"></path>
            <path d="M579.723499,63.9878749 C567.849109,36.9245119 562.586605,21.0438933 551.56457,0 C550.298209,18.0856702 548.440801,47.5028879 546.534305,78.1368858 C545.404482,96.2911366 550.298209,108.749521 552.51434,117 C560.76327,107.629547 572.019807,97.7364391 585,89.7472878 C584.173348,80.6008296 585.236458,76.5526659 579.723499,63.9878749 Z" id="Fill-1165" fill="#F8D9E1"></path>
            <path d="M688.683603,103.266498 C665.136959,111.846247 628.219093,72.2571979 599.022277,70.0931663 C569.825461,67.9291347 558.320586,90.6641962 549.65358,104.386703 C588.616756,98.327414 615.231367,124.754059 629.190616,131.780797 C643.124298,138.807535 679.556402,142.473659 688.683603,103.266498" id="Fill-1164" fill="#9D99BF"></path>
            <path d="M570.669746,110.952676 C569.885486,106.809408 567.883122,102.902899 565.663834,99.2838819 C558.73899,87.9871365 549.611545,78.0771174 538.948953,70.2979215 C534.994283,78.1278513 532.558073,91.6568877 534.176651,105.693263 C535.14446,113.945975 537.747534,119.560525 539.850017,123.297921 C547.675926,119.053186 558.355204,114.571693 570.669746,110.952676" id="Fill-1165" fill="#B1D9CD"></path>
            <path d="M540.747848,87.3047777 C539.389504,87.6392443 538.254685,107.121927 544.307053,120.918676 C545.235541,123.059262 563.891278,115.466869 563.667753,114.864829 C557.735745,98.9107704 542.088997,86.970311 540.747848,87.3047777" id="Fill-1166" fill="#7EBEB6"></path>
            <path d="M699.672586,476.372351 C663.743994,399.792552 607.626464,366.958003 563.133647,359.325635 C559.09586,373.514668 554.157929,388.446448 548.036952,403.992916 C584.788533,410.549581 630.361522,430.475696 668.784798,495.478883 C672.925459,501.574533 703.478908,483.979107 699.672586,476.372351" id="Fill-1167" fill="#A2D3C4"></path>
            <path d="M668.408056,495.488231 C672.598691,501.538664 703.520896,484.073758 699.668634,476.523427 C696.54518,469.989976 693.265552,463.837855 689.85578,457.939954 C686.159692,471.744094 668.251883,480.768899 659.584296,481.633247 C661.718657,484.86184 666.325753,492.03084 668.408056,495.488231" id="Fill-1168" fill="#9D99BF"></path>
            <path d="M250.18272,506.438799 C249.139963,539.269078 241.560902,616.755735 205.089848,642.001886 C198.350079,646.629489 217.831827,667.582252 225.25829,664.574309 C247.359647,657.015889 297.64087,601.381807 300.692841,519.370381 C282.228416,516.748072 265.289977,512.403266 250.18272,506.438799" id="Fill-1169" fill="#A2D3C4"></path>
            <path d="M225.834394,664.57618 C230.508548,663.043497 236.27943,659.467237 242.494226,654.102847 C231.970853,650.628766 222.283082,641.739205 214.29263,634.152425 C211.446357,637.166701 208.44341,639.951075 205.127111,642.173465 C198.207274,646.745969 218.209518,667.564911 225.834394,664.57618" id="Fill-1170" fill="#9D99BF"></path>
            <path d="M543.315829,415.907621 C535.332945,433.603495 525.386219,448.465968 514.08776,460.932929 C554.741811,472.884727 602.613614,496.504983 631.306091,547.480432 C636.66202,557.010961 668.236496,537.924146 664.053771,530.145174 C634.315613,474.842349 591.213137,430.074623 543.315829,415.907621" id="Fill-1171" fill="#B1D9CD"></path>
            <path d="M655.041656,514.52194 C646.447048,523.961516 635.787669,531.487315 624.018476,536.375205 C626.418772,539.918278 628.715829,543.616523 630.909648,547.469939 C636.329671,557.038824 668.281998,537.875192 664.049218,530.064913 C661.184349,524.763233 658.138812,519.616725 655.041656,514.52194" id="Fill-1172" fill="#9D99BF"></path>
            <path d="M183.130815,451.473441 C180.594977,505.557868 169.017214,553.086608 117.480797,604.430962 C111.538229,610.372055 131.645627,633.675477 138.817693,628.579454 C197.603019,586.838158 228.212371,536.313265 234.411085,499.56556 C211.178715,487.657767 193.555925,471.396587 183.130815,451.473441" id="Fill-1173" fill="#B1D9CD"></path>
            <path d="M138.708417,628.579583 C143.296558,625.302326 147.706273,621.973861 151.963048,618.594189 C139.575066,609.172073 132.386977,598.418572 129.073319,592.120092 C125.453785,596.216664 121.604844,600.313236 117.475516,604.435412 C111.561911,610.375442 131.571307,633.674695 138.708417,628.579583" id="Fill-1174" fill="#9D99BF"></path>
            <path d="M319.591725,401.357968 C319.591725,401.357968 319.746766,409.139987 319.410843,412.320015 L310.39261,415.525896 L320.392771,419.455687 L322.899272,428.840647 L326.568582,421.498144 L336.258661,422.635714 L330.263732,414.440033 L335.147531,405.23605 L324.785607,410.458535 L319.591725,401.357968" id="Fill-1175" fill="#F8D9E1"></path>
            <path d="M515.403224,283.986333 L504.049891,272.027714 L503.333915,286.464936 C503.333915,286.464936 491.520312,288.100302 488.221709,288.994644 L502.055387,300.340001 L500.086453,320.526559 L512.871737,306.370415 L531.308117,315.492696 L521.437878,294.565112 L531.87067,279.310206 L515.403224,283.986333" id="Fill-1176" fill="#F8D9E1"></path>
            <path d="M379.248037,411.148268 L380.308545,417.22679 C377.59261,418.183834 374.824942,419.063279 371.979677,419.761663 C374.876674,421.210162 379.248037,422.994919 379.248037,422.994919 L381.498383,430.366744 L384.576443,425.193533 L391.068822,427.392148 C391.068822,427.392148 389.077136,424.210624 386.361201,420.56351 C386.542263,420.253118 388.92194,416.295612 389.594457,413.941801 L383.360739,415.985219 L379.248037,411.148268" id="Fill-1177" fill="#F8D9E1"></path>
            <polyline id="Fill-1178" fill="#C7E4DB" points="351.985219 460.707621 351.881755 454.629099 346.863741 452.870208 352.735335 451.783834 353.821709 445.472517 355.839261 449.559353 361.2194 448.912702 357.908545 453.465127 360.598614 458.560739 354.856351 455.663741 351.985219 460.707621"></polyline>
            <path d="M528.857275,234.612471 C528.857275,234.612471 528.986605,228.352887 528.702079,225.766282 L521.407852,223.205543 L529.943649,221.627714 L531.547344,212.445266 L534.496074,218.368591 L542.333487,217.463279 L537.496536,224.059122 L541.428176,231.508545 L533.047575,227.292379 L528.857275,234.612471" id="Fill-1179" fill="#C7E4DB"></path>
            <polyline id="Fill-1180" fill="#F8D9E1" points="385.766282 347.737644 384.809238 342.848961 379.454965 341.038337 384.395381 339.124249 383.412471 332.11455 387.033718 336.822171 393.293303 334.675289 389.956582 339.796767 392.724249 345.073441 387.964896 344.038799 385.766282 347.737644"></polyline>
            <path d="M285.43482,383.365465 L302.309469,389.396544 C302.309469,389.396544 290.267223,395.999536 287.889784,396.441468 C288.509985,400.210893 290.034647,413.780821 290.629007,417.524249 L275.614963,405.020159 L254.734845,417.290285 L263.676084,394.777722 L247.344111,383.781401 L268.25007,384.301322 C268.25007,384.301322 277.656459,370.601414 281.55856,365.792148 C282.488863,371.329302 285.43482,383.365465 285.43482,383.365465" id="Fill-1181" fill="#C7E4DB"></path>
            <path d="M206.903147,395.741125 C204.175087,399.376121 202.028002,401.747892 198.087471,406.207852 C198.390589,403.47516 199.779879,397.055911 200.487154,392.338149 C197.102338,390.24996 192.959729,388.290671 189.145497,387.182126 C192.858689,384.861915 195.48571,383.856491 199.55254,382.232343 C199.60306,377.463022 201.876443,370.218809 202.230081,367.408776 C203.442552,368.33686 207.559902,374.85923 209.12601,379.087169 C215.087327,376.895859 218.522662,376.302916 224.711316,374.601429 C224.711316,374.601429 218.623701,383.908051 213.799076,388.806273 C216.0472,394.116977 218.497402,402.598636 217.43649,403.47516 C213.748557,401.28385 209.909065,398.680058 206.903147,395.741125" id="Fill-1182" fill="#F8D9E1"></path>
            <path d="M475.198152,309.236028 L470.309469,315.599076 C470.568129,312.857275 471.421709,310.063741 471.240647,308.511778 L464.722402,307.968591 C467.438337,306.804619 469.093764,306.132102 471.835566,305.09746 L472.430485,296.354734 C473.490993,298.993072 474.422171,300.286374 475.560277,302.898845 L482.621709,300.157044 L478.560739,305.769977 L480.448961,310.4 L475.198152,309.236028" id="Fill-1183" fill="#C7E4DB"></path>
            <path d="M303.977829,477.675751 C302.865589,479.693303 301.080831,482.71963 298.597691,484.68545 C298.908083,481.684988 299.813395,478.581062 299.632333,476.873903 C297.278522,476.56351 294.872979,476.356582 292.467436,476.278984 C295.442032,475.037413 297.278522,474.287298 300.278984,473.123326 L300.925635,463.527021 C302.089607,466.449885 303.124249,467.846651 304.36582,470.717783 L312.151501,467.691455 L307.676674,473.873441 L309.745958,478.969053 C307.44388,478.296536 306.33164,478.115473 303.977829,477.675751" id="Fill-1184" fill="#F8D9E1"></path>
            <path d="M252.155196,359.648961 C249.646189,358.459122 248.223557,357.941801 245.611085,357.03649 L241.834642,362.08037 L242.248499,355.794919 C239.765358,355.018938 237.256351,354.34642 234.721478,353.829099 C237.670208,353.053118 238.937644,352.587529 241.757044,351.475289 L243.283141,343.637875 L246.671594,349.535335 C249.025404,348.448961 251.301617,347.310855 253.500231,345.991686 L248.327021,352.432333 L252.155196,359.648961" id="Fill-1185" fill="#F8D9E1"></path>
            <path d="M210.161663,436.147806 L210.446189,430.974596 C207.730254,429.500231 205.040185,428.051732 202.298383,426.577367 C205.609238,425.801386 208.920092,424.973672 212.153349,423.990762 C212.903464,421.042032 213.679446,418.067436 214.429561,415.066975 C215.127945,417.601848 215.826328,420.110855 216.524711,422.593995 L221.646189,420.576443 L224.491455,420.084988 C222.292841,422.542263 220.094226,425.025404 217.869746,427.482679 C218.568129,429.991686 219.266513,432.448961 219.964896,434.932102 L219.654503,435.915012 L213.369053,432.552425 L210.161663,436.147806" id="Fill-1186" fill="#C7E4DB"></path>
            <path d="M506.133949,348.384296 L502.978291,352.290069 C504.271594,354.980139 505.590762,357.696074 506.884065,360.386143 C503.831871,359.144573 500.779677,357.903002 497.675751,356.816628 L490.795381,362.558891 C491.674827,360.179215 492.554273,357.799538 493.433718,355.445727 L488.260508,354.100693 L485.725635,352.884988 C488.855427,352.212471 492.011085,351.488222 495.140878,350.815704 C496.020323,348.461894 496.873903,346.133949 497.753349,343.780139 L498.52933,343.159353 L501.581524,349.393072 L506.133949,348.384296" id="Fill-1187" fill="#F8D9E1"></path>
            <path d="M309.058499,361.451914 C305.971733,363.860941 301.864765,365.751897 299.56277,366.58081 C299.902838,364.016362 302.649536,358.058554 302.937286,357.462774 L294.226328,352.592914 C296.894549,352.074844 302.884968,351.427256 304.689941,351.427256 C306.416437,346.790527 307.358162,344.770053 308.169092,339.926097 C309.974065,343.656203 311.386653,346.479685 313.191626,350.209791 C315.755211,349.484492 326.558891,347.541729 326.558891,347.541729 C324.753918,350.05437 319.966815,354.302545 316.278392,356.737475 C317.95257,360.234449 320.751586,366.891652 320.019133,367.357915 C319.155885,367.979599 312.668445,362.721186 309.058499,361.451914" id="Fill-1188" fill="#F8D9E1"></path>
            <path d="M364.400924,394.891455 C362.124711,392.312145 359.124249,389.498352 356.17552,385.121341 L347.975982,387.726705 C349.243418,385.407931 352.218014,380.952759 353.381986,378.581878 L350.40739,374.204867 L355.503002,374.283028 C357.313626,370.374983 358.994919,366.466937 360.727945,362.558891 C360.805543,366.519044 361.064203,370.42709 361.400462,374.361189 L373.040185,374.256974 L363.780139,381.447778 C364.42679,387.283793 364.55612,390.175747 364.400924,394.891455" id="Fill-1189" fill="#C7E4DB"></path>
            <path d="M445.128868,318.289145 L445.361663,322.557044 L438.63649,326.178291 C441.352425,326.850808 444.094226,327.523326 446.75843,328.325173 C447.379215,330.756582 448.025866,333.239723 448.646651,335.696998 L450.379677,329.489145 L454.595843,331.144573 L456.97552,331.55843 L451.491917,325.428176 L453.199076,319.297921 L452.966282,318.470208 L447.767206,321.263741 L445.128868,318.289145" id="Fill-1190" fill="#C7E4DB"></path>
            <path d="M456.872055,360.049885 L453.17321,356.118245 C453.380139,358.497921 453.457737,361.705312 453.457737,361.705312 L447.224018,363.490069 L453.793995,366.206005 L455.630485,372.232794 L457.492841,367.163048 L464.554273,370.75843 L459.691455,364.421247 L463.26097,358.368591 L456.872055,360.049885" id="Fill-1191" fill="#C7E4DB"></path>
            <path d="M255.724711,452.339954 L252.775982,457.952887 L258.130254,455.909469 L261.053118,460.953349 L261.699769,454.823095 C264.389838,453.762587 265.579677,453.193533 268.424942,452.702079 L262.294688,449.830947 L263.794919,441.993533 L258.414781,448.097921 L252.12933,445.976905 L255.724711,452.339954" id="Fill-1192" fill="#C7E4DB"></path>
            <path d="M491.248037,246.084065 L493.963972,251.438337 L491.351501,254.542263 L496.291917,253.869746 L497.662818,255.964896 L498.542263,253.71455 L504.594919,253.559353 L499.602771,251.127945 L501.77552,246.058199 L496.964434,248.774134 C494.558891,247.454965 493.317321,246.885912 491.248037,246.084065" id="Fill-1193" fill="#F8D9E1"></path>
        </g>
    </g>
</svg>