<svg viewBox="0 0 720 720" xmlns="http://www.w3.org/2000/svg">
  <g fill="none" fill-rule="evenodd">
    <path d="M255.335 511.364c-.275-27.685-29.022-46.624-58.228-45.793-29.236.862-59.267 20.694-73.916 46.84-14.618 26.176-14.129 57.187-.673 79.945 13.701 23.188 31.897 38.309 57.739 48.964-6.514 2.926-20 7.607-35.047 10.963-11.254 2.526-37.218-3.91-47.952 13.335-2.294 3.664 1.376 9.054 4.618 11.117 17.554 11.179 43.273 3.603 65.781-2.926 20.612-5.974 53.793-14.073 54.344-33.813 2.08-74.463 33.915-75.172 33.334-128.632" fill="#E36A56"/>
    <path d="M637.181 85.324c-7.632-10.052-16.381-19.43-27.148-26.264-77.9-49.523-141.628-18.05-184.421 22.004-42.794 40.024-52.416 106.097-42.903 160.187 6.378 36.377 21.097 70.363 32.572 105.085 29.193 88.475 10.412 156.723-34.262 156.999-.49 6.589-1.417 11.492-2.044 14.281-3.516 15.446-7.469 27-15.182 38.124 35.76 23.168 96.953 34.813 139.474 1.011 59.148-47.042 69.506-146.641 35.19-243.697-8.614-24.394-15.646-49.432-17.936-75.48-4.934-56.39 37.288-81.213 60.02-56.91 9.35 9.99 13.983 24.516 10.385 38.276-3.598 13.73-16.19 25.927-30.61 27.704.655 10.88 10.358 19.277 21.315 21.269 10.958 1.961 22.706-1.44 32.927-6.804 31.237-16.395 50.644-50.75 52.96-84.184 2.345-33.466-10.575-65.613-30.337-91.6" fill="#E17962"/>
    <path d="M559.793 246.114c14.22-1.783 26.64-14.018 30.19-27.79 3.548-13.803-1.022-28.374-10.243-38.396-3.2-3.474-6.775-5.841-10.538-7.347-2.689-3.812-7.985-17.031.053-20.105 8.012-3.105 18.335 3.012 29.438 15.186-1.801-9.007-13.254-26.714-8.576-32.31 4.65-5.594 18.28 11.344 24.007 14.664-3.522-4.426-9.92-33.2-6.99-37.965 2.93-4.765 20.7 13.618 31.48 28.897-2.043-9.838-8.145-27.207-2.311-30.957 5.833-3.75 13.952 6.978 20.323 11.743 6.748 17.154 10.19 35.599 8.899 54.443-2.285 33.54-21.426 68-52.235 84.447-10.08 5.38-21.668 8.792-32.475 6.825-10.807-1.998-20.377-10.421-21.022-21.335" fill="#D84451"/>
    <path d="M401.862 270.335c1.89 7.282 4.4 14.316 6.56 21.504l-3.698.961c-2.187-7.189-4.671-14.222-6.561-21.535l3.699-.93M418.596 275.758c-2.457-9.423-5.265-18.604-6.318-28.42-.27-2.718 3.429-3.654 3.726-.936 1.026 9.816 3.834 18.997 6.318 28.42l-3.726.936M402.766 246.087c-1.728-6.538-2.592-13.169-2.673-19.986-.027-2.82 3.78-2.603 3.807.217a76.097 76.097 0 002.592 18.808l-3.726.96M388.701 234.762c-1.428-8.088-1.764-16.206-1.624-24.448.056-2.82 4.004-2.603 3.948.217-.14 7.84.168 15.555 1.512 23.27l-3.836.96M399.854 205.753c-.46-10.295.405-20.87 3.375-30.698l3.618 1.337c-2.862 9.487-3.645 19.626-3.186 29.58.108 2.83-3.672 2.58-3.807-.219M387.049 182.5c.112-4.493.672-8.893 1.736-13.231l3.752 1.332a56.875 56.875 0 00-1.54 12.116c-.056 2.788-4.004 2.602-3.948-.217M412.836 223.605c-.868-5.64-2.408-11.899-1.82-17.662.252-2.758 4.2-2.572 3.92.217-.532 5.391.952 11.217 1.764 16.484l-3.864.96M397.593 159.005c.196-8.397 1.932-16.516 4.648-24.324l3.752 1.302c-2.604 7.498-4.284 15.182-4.48 23.208-.056 2.82-4.004 2.603-3.92-.186M413.263 147.4a80.966 80.966 0 017.728-19.583l3.332 2.324a76.925 76.925 0 00-7.308 18.56l-3.752-1.3M409.19 118.413c2.674-4.834 5.536-9.512 9.613-12.983l2.592 3.192c-3.834 3.253-6.48 7.56-8.991 12.115l-3.213-2.324M425.124 89.596c3.564-5.267 7.722-9.729 12.555-13.478l1.782 3.842c-4.239 3.315-7.992 7.344-11.124 11.991l-3.213-2.355M430.05 107.863c3.753-4.927 8.485-9.11 13.609-12.116l1.876 3.842c-4.872 2.851-9.24 6.817-12.796 11.465l-2.688-3.191M430.459 128.08c2.128-3.749 5.292-7.002 8.82-9.078l1.848 3.842c-2.94 1.735-5.572 4.462-7.336 7.56l-3.332-2.323M446.629 83.725c6.777-5.485 13.743-11.496 21.546-14.842l1.782 3.842c-7.803 3.377-14.742 9.388-21.52 14.842l-1.808-3.842M459.737 101.17c4.004-2.572 8.036-5.051 12.264-7.127l1.848 3.842c-4.228 2.107-8.26 4.555-12.264 7.127l-1.848-3.842M447.839 68.139c2.592-2.727 5.832-4.803 9.099-6.26l1.809 3.843c-2.997 1.332-5.94 3.13-8.316 5.608l-2.592-3.191M476.049 82.098c5.824-3.532 12.236-5.763 18.62-7.715l.868 4.245c-6.048 1.89-12.096 3.966-17.64 7.312l-1.848-3.842M471.87 55.342c5.968-4.183 13.204-6.693 20.008-8.46l.837 4.277c-6.507 1.673-13.338 4.028-19.062 8.056l-1.782-3.873M491.473 59.804c2.943-.744 5.859-1.518 8.802-2.262l.837 4.245a917.372 917.372 0 01-8.802 2.262l-.837-4.245M508.015 42.762c5.432-1.673 11.116-2.17 16.688-3.037l.868 4.245c-5.572.868-11.256 1.364-16.688 3.037l-.868-4.245M515.291 54.305c6.021-1.519 12.096-2.634 18.252-2.913 2.457-.093 2.268 4.245-.189 4.369-5.832.248-11.529 1.363-17.226 2.82l-.837-4.276M526.28 73.492a51.685 51.685 0 00-9.632 2.138l-.868-4.276a57.475 57.475 0 019.66-2.138c2.492-.31 3.388 3.935.84 4.276M591.97 80.92c-2.687-2.137-5.487-3.997-8.455-5.577l2.1-3.687c2.968 1.58 5.768 3.44 8.456 5.577l-2.1 3.688M545.881 43.398c5.264.217 10.892 1.456 15.82 3.532l-1.204 4.152c-4.62-1.952-9.828-3.098-14.784-3.315-2.548-.124-2.38-4.462.168-4.37M552.431 61.561c3.321-.155 6.48 1.115 9.639 2.076l-1.161 4.152c-2.862-.867-5.643-2.014-8.64-1.859-2.457.093-2.268-4.245.162-4.369M581.542 56.163c4.428 1.054 8.505 3.13 12.663 5.113l-1.161 4.152c-4.158-1.983-8.235-4.06-12.663-5.113l1.16-4.152M608.741 76.768c2.862 1.922 5.103 4.741 7.155 7.685l-2.781 2.975c-1.863-2.665-3.834-5.237-6.426-7.003l2.052-3.657M423.573 167.897a101.774 101.774 0 00-2.943 11.775l-3.618-1.333a109.29 109.29 0 012.916-11.774l3.645 1.332M422.435 296.844c2.156 6.259 4.872 12.27 6.216 18.839l-3.836.96c-1.288-6.197-3.836-11.836-5.88-17.754l3.5-2.045M419.984 318.58c3.456 6.848 6.075 14.222 7.992 21.845l-3.699.96c-1.836-7.281-4.347-14.222-7.668-20.76l3.375-2.045M434.468 387.275c-.999-8.273-2.268-16.453-4.077-24.54l3.699-.961c1.809 8.087 3.078 16.267 4.104 24.54l-3.726.961M444.403 359.156c-1.232-8.77-3.892-17.197-7.084-25.316l3.472-2.045c3.332 8.46 6.188 17.26 7.476 26.4l-3.864.96M441.536 316.488c-1.242-3.253-2.403-6.568-3.834-9.698l3.348-2.045c1.43 3.13 2.592 6.414 3.834 9.667l-3.348 2.076M430.233 284.31c-.98-4.09-2.156-8.118-2.744-12.27l3.836-.96c.588 4.182 1.792 8.18 2.772 12.27l-3.864.96M455.386 386.191c-.189-4.43-.81-8.738-1.998-12.952l3.7-.96c1.295 4.616 1.89 9.295 2.105 14.098.135 2.82-3.672 2.603-3.807-.186M448.278 420.75c.336-8.958-.532-17.885-.98-26.843-.14-2.742 3.808-2.529 3.948.213.42 8.958 1.288 17.855.98 26.844-.084 2.772-4.032 2.559-3.948-.214M435.538 439.534c.952-6.6.476-13.169.196-19.8-.112-2.789 3.836-2.572 3.948.217.28 6.63.756 13.2-.224 19.8l-3.92-.217M457.541 435.003c.42-3.315.784-6.724.504-10.101-.224-2.758 3.64-3.75 3.864-.96.308 3.81.056 7.529-.42 11.278l-3.948-.217M444.847 454.196c1.176-2.758 1.68-5.64 1.932-8.614.252-2.79 4.2-2.603 3.948.217-.336 3.78-1.064 7.25-2.548 10.72l-3.332-2.323M428.189 470.781c1.539-3.935 3.05-7.87 4.59-11.805l3.618 1.301c-1.54 3.966-3.051 7.901-4.563 11.837l-3.645-1.333M445.62 477.923a65.328 65.328 0 015.013-10.597l3.332 2.355a60.054 60.054 0 00-4.592 9.575l-3.752-1.333M424.244 488.97c2.97-2.17 4.995-4.741 6.885-8.118l3.213 2.323c-2.241 4.029-4.78 7.096-8.316 9.668l-1.782-3.873M403.365 500.28c2.592-.527 5.238-2.108 7.263-4.029l2.592 3.192c-2.538 2.417-5.751 4.43-9.018 5.113l-.837-4.276M419.887 507.917l5.124-3.377 2.688 3.192-5.964 4.028-1.848-3.843M387.249 507.984c2.912.527 6.636.806 9.408-.558l1.848 3.873c-3.472 1.674-7.756 1.705-11.424 1.054l.168-4.37M454.093 350.48l-2.436-7.964 3.472-2.045c1.176 2.944 2.156 5.919 2.8 9.08l-3.836.929M426.388 244.37a2063.79 2063.79 0 00-1.917-13.727l3.699-.96c.648 4.585 1.296 9.14 1.944 13.726l-3.726.96M431.677 153.907c1.316-3.377 2.884-6.476 4.9-9.389l3.332 2.355c-1.792 2.603-3.304 5.33-4.452 8.366l-3.78-1.332" fill="#D6403E"/>
    <path d="M176.37 305.069c-10.585 14.254-21.171 34.696-41.853 49.166-15.74 11.052-45.106 17.364-56.827 21.766-32.035 12.038-30.715 50.952-14.514 54.523 10.187 2.248 20.958-19.642 31.053-22.32 22.031-5.819 48.236-5.265 68.549-15.64 25.345-12.93 45.934-40.884 52.163-54.707 9.543-21.15-24.302-52.06-38.57-32.788" fill="#E36A56"/>
    <path d="M358.647 419.41c-24.623-37.297-65.109-73.98-75.315-149.462l-2.859 1.87c-16.138 9.439-69.75 14.311-112.633.306-12.88 26.969-24.87 69.812-26.56 136.375-1.63 64.48 7.04 105.27 20.627 134.384 12.05 25.65 32.923 45.938 58.807 55.408 16.784 6.13 66.4 15.078 104.333-10.144 38.426-25.559 47.802-40.943 55.426-70.7 2.643-10.298 10.144-49.647-21.826-98.038" fill="#E9896C"/>
    <path d="M151.316 514.372c-7.215-26.13-11.176-59.803-10.04-105.284.798-31.373 3.869-57.472 8.26-79.124l1.013-3.066c6.877-14.721 26.497-22.664 41.205-19.444 18.391 3.987 28.892 21.376 35.248 43.947 6.386 22.542 15.843 60.846 22.506 91.76 3.47 15.947 16.734 70.628-2.119 95.838-10.5 14.046-23.488 21.743-51.275 15.211-21.985-5.183-36.753-23.43-44.798-39.838" fill="#ECAA8C"/>
    <path d="M168.75 428.176l.764-.062c4.957-.775 6.518-6.569 7.252-12.115 1.622 3.594 4.192 7.25 6.976 8.955l4.161.836c3.856-1.053 5.355-6.848 6.579-11.526l.03-.124c1.99 5.267 5.967 10.659 10.037 10.008 3.886-.62 7.527-6.445 8.75-11.868 1.714 4.431 4.193 9.885 9.64 9.42l4.987-2.85c2.54-3.533 2.509-9.234 1.897-12.023l-1.163-.744-.734 1.178c.58 2.634.459 7.591-1.592 10.41l-3.549 2.046h-.428c-4.1 0-6.028-5.05-7.589-9.14l-1.132-2.79-1.101-.557-.765 1.022c.214 5.547-4.008 13.386-7.527 13.944-3.55.558-7.68-6.693-8.782-11.806l-.918-.774-.979.681-.979 3.47c-1.01 3.936-2.417 9.327-5.202 10.102l-2.631-.62c-3.06-1.859-6.487-7.343-7.527-11.96l-1.01-.775-.918.899-.03.31c-.582 5.763-1.347 13.695-6.059 14.439l-1.775-.403c-2.11-1.58-2.845-7.096-3.457-11.526l-.581-3.998-1.04-.836-.919.96c-.244 5.36-4.436 14.811-7.19 14.811-1.469 0-3.121-3.842-3.458-12.394l-1.04-.93-.918 1.023c.367 9.482 2.172 14.285 5.416 14.285 3.366 0 6.425-5.857 8.016-11.031.643 4.74 1.5 9.357 3.978 11.216l2.51.837M161.657 454.808h.154c4.061-.124 5.876-4.958 6.584-9.048 2.092 3.998 5.754 8.305 9.2 8.305l.338-.031c3.662-.31 5.508-5.95 6.216-10.66 3.046 5.888 6.246 8.49 9.292 7.561 4.923-1.518 5.907-5.64 6-9.45 2.215 4.71 4.461 7.653 7.938 7.157 3.662-.496 4.585-4.617 5.138-9.048 1.6 3.564 3.846 7.623 6.985 7.623h.277c3.23-.248 4.215-4.834 4.984-8.49l.246-1.209c1.754 3.47 4.431 8.397 7.57 7.809 3.938-.713 3.476-7.685 3.261-10.69l-.985-.961h-.061l-.923 1.023v.092c.461 6.755-.646 8.398-1.63 8.583l-5.847-7.529-.708-1.394-.861-.496-.862.465-1.138 3.904-3.17 6.91h-.153c-2.4 0-4.738-5.392-6-8.305l-.646-1.487-1.046-.558-.831.868-.215 1.766c-.493 4.338-.985 8.8-3.631 9.141-3.046.434-5.323-4.4-7.938-10.721l-1.108-.589-.8.992.092 1.735c.277 5.33.123 9.513-4.523 10.938-2.4.805-5.446-2.789-8.43-9.668l-1.077-.588-.8.93c-.277 5.763-2.185 12.146-4.8 12.362l-.154.031c-3.077 0-7.877-6.414-8.861-10.783l-1.047-.805-.892.991c0 4.524-1.6 11.248-5.046 11.341h-.061c-3.662 0-6.923-7.84-7.016-10.442l-1.015-.96-.954 1.022c.123 3.222 3.815 12.363 8.954 12.363M217.519 349.797l-.878.991c-.03 4.493-3.359 11.775-6.294 12.394l-.151.031c-2.572.341-5.72-5.484-7.141-11.092l-.969-.713-.938.775c-1.422 7.374-3.63 11.526-6.112 11.278-4.75-.402-5.78-4.462-6.597-9.76l-.272-1.704-.968-.806-.938.806c-1.21 6.755-2.42 11.96-5.417 12.177-2.632.217-4.024-4.06-5.386-8.18l-.544-1.673-.999-.651-.878.744-.332 1.58c-.606 3.13-1.755 8.893-4.055 9.42h-.121l-4.509-6.074-1.876-3.563-.908-.279h-.03l-.696.65-.424 1.52-4.054 8.613c-.999.031-2.39-1.332-3.329-8.056l-.03-.093-1.09-.775h-.03l-.786 1.147c.423 2.974 1.392 9.915 5.325 9.76 3.147-.093 4.69-5.484 5.659-9.234l.514 1.116c1.483 3.408 3.359 7.684 6.506 7.25l.272-.061c3.026-.651 4.327-5.113 5.175-8.924 1.422 4.214 3.147 8.056 6.778 7.746 3.45-.248 4.992-3.625 6.173-8.707.877 3.718 2.693 7.56 7.716 7.963 3.116.28 5.628-2.943 7.383-9.326 1.664 4.462 4.57 9.574 8.17 9.11l.333-.062c7.08-1.674 7.777-14.564 7.777-14.564l-1.03-.774M158.212 483.547c3.677 0 6.442-5.732 8.66-10.659l3.585 7.25 4.163 1.798c2.248-.31 4.254-3.501 5.47-8.366l2.43 4.71 5.226 3.78h.122c4.618 0 7.322-5.95 8.993-10.69.547 3.222 1.763 6.755 3.647 8.707l4.162 1.611c4.072-.527 5.652-4.803 6.411-8.955l2.674 4.37 5.986 3.656h.122c4.223-.093 6.897-7.282 8.477-12.364 1.155 3.068 3.373 6.693 5.864 8.645l5.743 1.426c5.894-1.89 3.464-11.806 2.127-17.166l-.334-1.395-1.185-.743-.7 1.177.335 1.456c1.063 4.37 3.312 13.448-.82 14.78l-3.98-1.115c-3.374-2.634-6.017-8.552-5.895-10.876l-.79-1.022-1.125.65-.516 1.704c-1.064 3.502-3.89 12.767-7.262 12.829h-.03l-4.497-2.913-3.555-8.15.06-.619-.82-1.085-1.094.775-.091.806-.03.372c-.456 4.214-1.155 11.247-5.318 11.774l-2.522-1.022c-2.734-2.851-3.737-9.76-3.372-12.457l-.7-1.084-1.154.527-.76 2.23c-1.245 3.967-3.828 12.178-8.051 12.178h-.092l-3.676-2.913c-1.945-2.881-3.069-6.445-3.16-8.273l.121-1.022-.76-1.085-1.123.65-.183 1.302c-.942 7.406-3.25 11.031-4.649 11.248l-2.4-1.147-3.646-9.11-.638-1.146-1.185.496-1.064 2.355c-1.732 3.78-4.618 10.132-7.2 10.132h-.062l-1.61-1.022c-1.701-2.293-2.279-7.499-1.61-10.473l-.76-1.178-1.155.744c-.76 3.47-.151 9.295 1.975 12.115l3.1 1.797h.121M216.814 513.166l4.141-2.293c2.102-2.23 3.802-5.918 4.605-9.45 1.793 3.966 4.946 8.676 8.994 8.149 5.162-.682 7.11-8.366 7.233-14.718l-.99-1.023-.988.992c-.124 5.825-1.886 12.301-5.533 12.797h-.154c-3.833.248-7.665-8.087-8.098-11l-1.082-.837-.896 1.054c.216 4.028-1.854 9.822-4.543 12.673l-2.937 1.673c-3.678.062-7.572-5.794-8.437-12.766l-1.02-.868h-.031l-.927.9c-.557 5.514-2.658 12.176-6.83 12.734l-3.493-1.859-3.617-9.513-.71-1.208-1.206.713-.618 2.355c-.958 3.935-2.534 10.597-5.285 11.03h-.124c-2.689.186-5.841-8.583-7.201-12.363l-.711-1.92-1.02-.652-.896.837-.155 1.27c-.494 3.533-1.39 10.07-5.316 11.217l-3.06-1.084-3.338-10.288-.68-1.208-1.236.682c-.803 2.974.804 9.202 3.864 12.208l5.007 1.58c4.141-1.177 5.625-6.197 6.305-10.194 1.978 5.423 4.79 12.177 8.56 11.93l.31-.031c3.369-.59 5.1-5.454 6.274-9.947l3.37 5.918 5.253 2.51c3.987-.558 6.429-4.772 7.665-9.605 1.762 5.298 5.193 9.667 9.334 9.605h.217M173.356 398.709l-4.281-1.673c-2.296-1.86-4.436-5.175-5.677-8.49-1.21 4.028-3.63 8.985-7.6 9.016-5.058.031-7.974-7.095-8.905-13.23l.807-1.085 1.117.806c.837 5.577 3.412 11.588 6.98 11.588h.155c3.754-.279 6.36-8.769 6.391-11.62l.93-.96.993.868c.342 3.904 3.103 9.233 6.019 11.62l3.071 1.208c3.568-.434 6.546-6.538 6.515-13.355l.838-.992h.03l1.025.744c1.24 5.237 4.126 11.372 8.252 11.372l3.133-2.231c2.017-3.006 2.947-7.87 2.234-9.637l.527-1.24 1.272.497.869 2.2c1.458 3.656 3.847 9.853 6.577 9.915h.093c2.637-.186 4.53-9.017 5.336-12.828l.434-1.952.93-.744.931.682.342 1.177c.93 3.347 2.637 9.513 6.577 10.102l2.823-1.457 1.892-10.318.497-1.24 1.272.496c1.178 2.758.403 8.955-2.11 12.24l-4.654 2.169c-4.157-.589-6.235-5.237-7.414-8.986-1.21 5.484-3.04 12.332-6.701 12.58h-.31c-3.32-.093-5.616-4.555-7.353-8.738l-2.482 6.135-4.715 3.099c-3.94 0-6.856-3.75-8.687-8.211-.993 5.298-3.754 9.946-7.756 10.442l-.217.03M225.032 538.859l3.59-1.89c2.395-2.603 3.746-7.778 3.439-13.48l-1.013-.929h-.031l-.92 1.023c.275 5.112-.891 9.853-2.917 12.022l-2.578 1.301c-2.793.031-4.574-5.36-5.617-8.583l-.676-2.014-.951-.65-.89.681-.369 1.023c-1.166 3.377-3.53 10.318-6.998 10.628h-.184c-3.929.124-7.213-7.22-8.196-12.24l-.951-.805-.982.775-.46 2.417c-.86 4.307-1.904 9.698-5.28 10.07h-.062c-4.051.372-8.072-5.113-9.361-9.079l-1.228-.62-.645 1.24c1.443 4.524 6.078 10.938 11.388 10.442h.123c4.266-.496 5.74-5.547 6.63-9.977 1.719 4.895 4.85 9.915 9.085 9.791 4.236-.155 6.876-6.042 8.38-10.287 1.32 3.935 3.284 9.233 7.275 9.172l.399-.031M166.536 339.712l-3.569-1.487c-2.502-2.293-4.24-7.127-4.454-12.611l.885-.992h.03l.976.899c.183 4.926 1.709 9.357 3.814 11.279l2.562.991c2.685-.217 3.875-5.546 4.607-8.738l.458-1.983.854-.682.915.558.427.96c1.403 3.13 4.24 9.544 7.596 9.544l.153-.03c3.752-.218 6.254-7.561 6.742-12.426l.824-.868 1.007.651.67 2.262c1.19 4.06 2.655 9.11 5.889 9.172h.091c3.844 0 7.23-5.609 8.085-9.513l1.128-.743.702 1.146c-.976 4.462-4.82 11.03-9.915 11.03h-.122c-4.088-.092-5.949-4.802-7.2-8.954-1.19 4.834-3.722 9.915-7.779 10.163-4.027.248-7.078-5.174-8.878-9.078-.884 3.873-2.318 9.14-6.132 9.42l-.366.03" fill="#D6403E"/>
    <path d="M363.68 497.362c-12.255-25.814-47.429-35.544-74.474-26.673-27.045 8.87-46.664 35.697-49.078 64.15-2.445 28.485 11.46 57.306 33.92 74.863 22.89 17.864 46.512 26.95 75.36 29.773-4.828 4.512-13.232 17.036-25.884 24.34-9.473 5.464-38.902 2.21-41.5 21.272-.55 4.082 5.196 8.072 9.138 9.116 21.3 5.555 40.675-3.377 43.517-5.187 16.96-10.958 61.363-43.74 53.326-62.31-30.254-70.135-.703-79.589-24.325-129.344" fill="#E36A56"/>
    <path d="M141.117 175.765c26.807-53.958 52.906-48.744 78.973-49.114 26.068-.37 57.59 8.484 78.05 31.159 14.82 16.443 21.753 39.766 18.302 61.639-3.45 21.904-17.255 41.802-36.36 53.001-25.635 15.024-145.498 18.634-167.59-46.615-4.19-12.37 21.63-36.002 28.625-50.07" fill="#E9896C"/>
    <path d="M264.76 198.327l-3.89-6.384c-3.215-3.501-7.87-5.268-12.526-6.198-8.79-1.797-18.375-1.394-26.277 2.883-21.775 11.776-18.652 35.08-12.71 40.752 5.942 5.67 14.486 8.15 22.633 7.561 8.147-.558 15.926-3.935 22.664-8.646 5.022-3.502 9.708-8.057 11.515-13.946 1.562-5.237.674-10.97-1.409-16.022M160.882 160.139c-11.155-5.346-23.828 28.063-19.273 34.341 1.673 2.3 4.989 2.642 9.079.155 5.453-3.294 21.318-29.12 10.194-34.496" fill="#EDB78D"/>
    <path d="M127.527 207.648c47.31-25.454 50.682-60.825 54.668-76.945 12.724-5.005 25.387-3.869 38.02-4.053 20.051-.276 43.292 4.944 62.24 17.747-31.764 6.724-91.123 56.19-146.741 71.326-.521-3.623-4.17-6.294-8.187-8.075" fill="#D95B47"/>
    <path d="M147.68 174.637c1.27-3.688 4.461-7.251 7.653-6.848 3.191.403 3.037 4.679 3.037 4.679.495 3.904-.434 7.994-2.541 11.371l-2.417 2.386-5.516-2.479c-.991-1.92-1.518-5.422-.217-9.11" fill="#17111C"/>
    <path d="M297.572 28.395c3.315-1.504 7.22 15.746 9.017 24.432.991-7.335 2.974-17.925 5.205-24.954 4.958 10.528 2.603 22.714 3.285 30.387 4.276-4.635 5.639-19.122 9.73-17.434 4.647 1.872-3.688 38.275-18.778 49.018-1.55-21.455-11.775-59.945-8.46-61.449" fill="#B92442"/>
    <path d="M299.015 158.727c3.352 3.811 6.221 8.024 8.728 12.455 13.438-33.428 11.053-59.576 3.08-94.894-9.905 8.179-21.562 22.988-27.3 34.605-4.892 9.945-8.093 18.96-10.75 27.852 9.693 4.895 18.723 11.463 26.242 19.982" fill="#D84451"/>
    <path d="M153.619 32.11c3.067-.696 8.707 8.351 11.681 16.34-1.983-8.02-3.966-16.37-2.2-24.45 3.378 10.712 4.834 12.406 7.468 24.329.93-8.745 2.417-19.306 7.22-18.61 4.833.696-1.674 19.215-3.595 46.57-15.462-14.919-23.642-43.514-20.574-44.18" fill="#B92442"/>
    <path d="M161.933 145.27l.093-.123.187-.153c11.125-11.342 22.126-15.48 33.095-16.982-2.96-20.846-12.403-41.507-23.123-59.47-13.15 24.493-12.434 49.783-10.969 77.464l.717-.736" fill="#D84451"/>
    <path d="M136.106 217.756v-.092c22.917-.247 31.66 11.14 33.409 17.157 1.871 6.326-.583 13.979-6.35 17.188l-4.94 1.759c-7.394 1.605-15.37.37-21.966-3.394-8.191-4.722-11.627-12.776-14.541-22.187 5.798-.556 13.56-4.722 14.388-10.43" fill="#EDB78D"/>
    <path d="M124.859 205.227c5.825 1.735 12.983 5.546 12.146 11.34-1.022 7.003-12.518 11.775-18.064 10.35-6.662-1.705-14.656-12.209-12.085-17.507 2.541-5.299 11.62-6.104 18.003-4.183M123.468 228.396c.899 4.029 2.231 7.87 4.214 11.496l-3.222 1.89a46.62 46.62 0 01-4.834-13.355l3.842-.03M237.737 197.384c-3.626-1.116-8.645 3.563-9.296 7.22-.372 2.23-.806 13.354 5.299 14.067 6.135.744 9.45-4.803 9.915-11.65.434-6.849-2.293-8.522-5.918-9.637" fill="#17111C"/>
    <path d="M170.77 368.838c-11.882 9.135-32.044 16.11-43.618 19.104-40.2 10.431-58.946 10.616-63.532 9.474 7.018 13.456 21.7 37.776 46.018 49.781 3.57 1.79 7.48 2.809 11.08 4.568 8.281 3.98 15.022 21.356 18.716 19.443 3.663-1.914 3.478-14.876 5.91-16.913l4.31-1.882c5.478-1.883 9.388-6.636 12.373-11.604 16.745-28.023 12.005-53.484 8.896-72.094l-.154.123" fill="#9D594A"/>
    <path d="M128.521 308.695c-11.663.307-24.345 4.115-33.942 10.717-28.48 19.685-33.294 33.75-36.225 41.182-3.086 7.77-10.399 31.263 5.276 36.698 4.536 1.137 23.328.983 63.75-9.427 11.602-2.98 31.813-9.92 43.723-19.01 8.856-6.602 3.363-19.47.679-25.52-3.795-8.445-7.714-15.477-12.312-21.25-7.22-9.122-19.285-13.697-30.949-13.39" fill="#85853B"/>
    <path d="M111.748 311.632c-3.811-13.836 7.684-27.155 6.817-28.067l-12.332-.06c-2.324 3.192-7.592 16.602-2.51 30.985l8.025-2.858" fill="#85853B"/>
    <path d="M245.044 321.464c-10.445 14.18-17.01 36.032-37.534 50.488-15.636 11.002-44.832 17.42-56.499 21.852-31.822 12.072-30.356 50.671-14.231 54.155 10.17 2.2 20.797-19.56 30.815-22.249 21.927-5.898 48.008-5.44 68.195-15.83 25.135-12.959 47.46-36.858 53.415-50.642 14.72-34.076-30.021-56.936-44.161-37.774" fill="#E36A56"/>
  </g>
</svg>
