<?xml version="1.0" encoding="UTF-8"?>
<svg width="720px" height="720px" viewBox="0 0 720 720" version="1.1" xmlns="http://www.w3.org/2000/svg" xmlns:xlink="http://www.w3.org/1999/xlink">
    <title>img_s</title>
    <g id="img_s" stroke="none" stroke-width="1" fill="none" fill-rule="evenodd">
        <g id="Group" transform="translate(52.000000, 24.000000)">
            <path d="M203.335083,487.363711 C203.059847,459.678675 174.312966,440.739523 145.107359,441.570998 C115.87117,442.433269 85.8398545,462.265486 71.1911782,488.410754 C56.5730837,514.586817 57.0623923,545.597753 70.5183788,568.35553 C84.2190197,591.544443 102.415183,606.664969 128.256794,617.320166 C121.742873,620.245726 108.256305,624.926622 93.2100653,628.283317 C81.9559674,630.808538 55.9920297,624.372306 45.2578222,641.617712 C42.9641881,645.282361 46.6340026,650.67155 49.8756721,652.73484 C67.4296183,663.913559 93.1489017,656.337898 115.657097,649.80928 C136.269222,643.834979 169.450462,635.735797 170.000934,615.995965 C172.080496,541.532764 203.916137,540.824471 203.335083,487.363711" id="Fill-1658" fill="#E36A56"></path>
            <path d="M585.181403,61.3240752 C577.54941,51.2721987 568.799875,41.8945334 558.033314,35.0604832 C480.13247,-14.4633963 416.405327,17.0100098 373.611651,57.064286 C330.817976,97.0879163 321.196213,163.160617 330.708947,217.250745 C337.087113,253.627506 351.805957,287.613881 363.281204,322.335759 C392.473577,410.81066 373.693423,479.059224 329.019006,479.335038 C328.528378,485.92392 327.601636,490.827275 326.974722,493.616058 C323.458554,509.061624 319.506272,520.615153 311.792507,531.739638 C347.553846,554.907988 408.746077,566.553454 451.267181,532.750955 C510.415128,485.709399 520.772833,386.110012 486.456121,289.054241 C477.842872,264.660053 470.810535,239.6223 468.520937,213.573229 C463.587399,157.184654 505.808675,132.361422 528.541112,156.663672 C537.890303,166.654257 542.524013,181.180444 538.926074,194.940483 C535.328134,208.669875 522.735345,220.866969 508.31633,222.644435 C508.970501,233.523753 518.674035,241.920747 529.631396,243.912735 C540.588758,245.874076 552.336576,242.472374 562.557995,237.10933 C593.794653,220.713739 613.201721,186.359612 615.518576,152.924865 C617.862688,119.459471 604.942814,87.3118535 585.181403,61.3240752" id="Fill-1659" fill="#E17962"></path>
            <path d="M507.792507,222.114345 C522.013814,220.331337 534.433935,208.096212 537.982541,194.324011 C541.531146,180.521068 536.960972,165.949588 527.739974,155.927852 C524.540852,152.45406 520.965362,150.086963 517.201689,148.580629 C514.513352,144.76868 509.217326,131.549827 517.255456,128.475675 C525.266703,125.370781 535.58992,131.488344 546.692755,143.661986 C544.891569,134.65472 533.43925,116.947605 538.116957,111.352648 C542.767782,105.757692 556.397654,122.696269 562.123814,126.016353 C558.602091,121.589574 552.203847,92.8155116 555.134136,88.050576 C558.064424,83.2856404 575.834337,101.669069 586.614571,116.947605 C584.571434,107.110318 578.468908,89.7413596 584.302601,85.9908942 C590.136294,82.2404287 598.255074,92.9692192 604.626434,97.7341548 C611.374162,114.887923 614.815234,133.332835 613.524832,152.177387 C611.239745,185.716385 592.09878,220.177629 561.290429,236.624342 C551.209162,242.004108 539.622427,245.416417 528.815309,243.44896 C518.008191,241.450761 508.437708,233.027584 507.792507,222.114345" id="Fill-1660" fill="#D84451"></path>
            <path d="M349.861507,246.335447 C351.751507,253.617061 354.262507,260.65079 356.422507,267.839447 L352.723507,268.8 C350.536507,261.611343 348.052507,254.577614 346.162507,247.265014 L349.861507,246.335447" id="Fill-1661" fill="#D6403E"></path>
            <path d="M366.595547,251.757925 C364.138547,242.335077 361.330547,233.153841 360.277547,223.338374 C360.007547,220.620245 363.706547,219.684 364.003547,222.402129 C365.029547,232.217596 367.837547,241.398833 370.321547,250.821681 L366.595547,251.757925" id="Fill-1662" fill="#D6403E"></path>
            <path d="M350.766079,222.086911 C349.038079,215.548952 348.174079,208.918035 348.093079,202.101205 C348.066079,199.281517 351.873079,199.498416 351.900079,202.318104 C351.981079,208.732122 352.845079,214.960225 354.492079,221.126358 L350.766079,222.086911" id="Fill-1663" fill="#D6403E"></path>
            <path d="M336.701087,210.761678 C335.273087,202.674439 334.937087,194.556214 335.077087,186.314047 C335.133087,183.494358 339.081087,183.711257 339.025087,186.530946 C338.885087,194.3703 339.193087,202.085712 340.537087,209.801125 L336.701087,210.761678" id="Fill-1664" fill="#D6403E"></path>
            <path d="M347.853823,181.753353 C347.394823,171.458281 348.258823,160.883283 351.228823,151.054755 L354.846823,152.392181 C351.984823,161.878577 351.201823,172.018134 351.660823,181.971074 C351.768823,184.801441 347.988823,184.552617 347.853823,181.753353" id="Fill-1665" fill="#D6403E"></path>
            <path d="M335.048802,158.499625 C335.160802,154.006714 335.720802,149.60676 336.784802,145.268777 L340.536802,146.601158 C339.584802,150.598299 339.080802,154.59544 338.996802,158.716524 C338.940802,161.505227 334.992802,161.319313 335.048802,158.499625" id="Fill-1666" fill="#D6403E"></path>
            <path d="M360.835747,199.604736 C359.967747,193.965359 358.427747,187.706269 359.015747,181.94295 C359.267747,179.185232 363.215747,179.371146 362.935747,182.159849 C362.403747,187.551341 363.887747,193.376633 364.699747,198.644183 L360.835747,199.604736" id="Fill-1667" fill="#D6403E"></path>
            <path d="M345.593168,135.004801 C345.789168,126.607706 347.525168,118.489481 350.241168,110.681112 L353.993168,111.982507 C351.389168,119.48102 349.709168,127.165446 349.513168,135.190714 C349.457168,138.010403 345.509168,137.793504 345.593168,135.004801" id="Fill-1668" fill="#D6403E"></path>
            <path d="M361.262507,123.400115 C362.998507,116.490329 365.602507,109.921383 368.990507,103.817222 L372.322507,106.141141 C369.102507,111.966432 366.666507,118.132565 365.014507,124.70151 L361.262507,123.400115" id="Fill-1669" fill="#D6403E"></path>
            <path d="M357.190507,94.4130951 C359.863507,89.5793429 362.725507,84.9005187 366.802507,81.4301326 L369.394507,84.6216484 C365.560507,87.8751354 362.914507,92.1821326 360.403507,96.7370144 L357.190507,94.4130951" id="Fill-1670" fill="#D6403E"></path>
            <path d="M373.124007,65.5964957 C376.688007,60.3289452 380.846007,55.8670202 385.679007,52.1177637 L387.461007,55.9599769 C383.222007,59.2754352 379.469007,63.303562 376.337007,67.9514006 L373.124007,65.5964957" id="Fill-1671" fill="#D6403E"></path>
            <path d="M378.050507,83.8625014 C381.802507,78.9357925 386.534507,74.7527378 391.658507,71.7471354 L393.534507,75.5893487 C388.662507,78.4400231 384.294507,82.4061787 380.738507,87.0540173 L378.050507,83.8625014" id="Fill-1672" fill="#D6403E"></path>
            <path d="M378.458507,104.080599 C380.586507,100.331343 383.750507,97.0778559 387.278507,95.0018213 L389.126507,98.8440346 C386.186507,100.579228 383.554507,103.30596 381.790507,106.404519 L378.458507,104.080599" id="Fill-1673" fill="#D6403E"></path>
            <path d="M394.628507,59.7247262 C401.405507,54.2402767 408.371507,48.229072 416.174507,44.8826282 L417.956507,48.7248415 C410.153507,52.1022709 403.214507,58.1134755 396.437507,63.5669395 L394.628507,59.7247262" id="Fill-1674" fill="#D6403E"></path>
            <path d="M407.736507,77.1696138 C411.740507,74.5978098 415.772507,72.1189625 420.000507,70.042928 L421.848507,73.8851412 C417.620507,75.9921614 413.588507,78.4400231 409.584507,81.0118271 L407.736507,77.1696138" id="Fill-1675" fill="#D6403E"></path>
            <path d="M395.838507,44.1389741 C398.430507,41.4122421 401.670507,39.3362075 404.937507,37.8798847 L406.746507,41.722098 C403.749507,43.0544784 400.806507,44.8516427 398.430507,47.3304899 L395.838507,44.1389741" id="Fill-1676" fill="#D6403E"></path>
            <path d="M424.048507,58.0979827 C429.872507,54.5656254 436.284507,52.3346628 442.668507,50.3825706 L443.536507,54.6275965 C437.488507,56.5177176 431.440507,58.5937522 425.896507,61.940196 L424.048507,58.0979827" id="Fill-1677" fill="#D6403E"></path>
            <path d="M419.870507,31.3419251 C425.837507,27.1588703 433.073507,24.6490375 439.877507,22.8828588 L440.714507,27.1588703 C434.207507,28.8320922 427.376507,31.1869971 421.652507,35.2151239 L419.870507,31.3419251" id="Fill-1678" fill="#D6403E"></path>
            <path d="M439.473007,35.8038501 C442.416007,35.060196 445.332007,34.2855562 448.275007,33.541902 L449.112007,37.786928 C446.169007,38.5615677 443.253007,39.3052219 440.310007,40.0488761 L439.473007,35.8038501" id="Fill-1679" fill="#D6403E"></path>
            <path d="M456.014507,18.7617752 C461.446507,17.0885533 467.130507,16.5927839 472.702507,15.7251873 L473.570507,19.9702133 C467.998507,20.8378098 462.314507,21.3335793 456.882507,23.0068012 L456.014507,18.7617752" id="Fill-1680" fill="#D6403E"></path>
            <path d="M463.291021,30.3046442 C469.312021,28.7863502 475.387021,27.6708689 481.543021,27.3919986 C484.000021,27.2990418 483.811021,31.6370246 481.354021,31.7609669 C475.522021,32.0088516 469.825021,33.1243329 464.128021,34.5806557 L463.291021,30.3046442" id="Fill-1681" fill="#D6403E"></path>
            <path d="M474.280042,49.4920678 C471.004042,49.8948805 467.812042,50.6075491 464.648042,51.6300736 L463.780042,47.3540621 C466.944042,46.3625232 470.164042,45.6498546 473.440042,45.2160563 C475.932042,44.9062004 476.828042,49.1512263 474.280042,49.4920678" id="Fill-1682" fill="#D6403E"></path>
            <path d="M539.970507,56.9205303 C537.282507,54.7825245 534.482507,52.923389 531.514507,51.3431239 L533.614507,47.6558386 C536.582507,49.2361037 539.382507,51.0952392 542.070507,53.233245 L539.970507,56.9205303" id="Fill-1683" fill="#D6403E"></path>
            <path d="M493.881045,19.3977162 C499.145045,19.6146153 504.773045,20.854039 509.701045,22.9300735 L508.497045,27.0821427 C503.877045,25.1300505 498.669045,23.9835836 493.713045,23.7666845 C491.165045,23.6427421 491.333045,19.3047594 493.881045,19.3977162" id="Fill-1684" fill="#D6403E"></path>
            <path d="M500.431,37.5609977 C503.752,37.4060697 506.911,38.676479 510.07,39.6370323 L508.909,43.7891014 C506.047,42.9215049 503.266,41.775038 500.269,41.929966 C497.812,42.0229228 498.001,37.6849401 500.431,37.5609977" id="Fill-1685" fill="#D6403E"></path>
            <path d="M529.541507,32.1630432 C533.969507,33.2165533 538.046507,35.2925879 542.204507,37.2756657 L541.043507,41.4277349 C536.885507,39.4446571 532.808507,37.3686225 528.380507,36.3151124 L529.541507,32.1630432" id="Fill-1686" fill="#D6403E"></path>
            <path d="M556.741007,52.7684611 C559.603007,54.6895677 561.844007,57.5092565 563.896007,60.4528876 L561.115007,63.4275043 C559.252007,60.7627435 557.281007,58.1909395 554.689007,56.4247608 L556.741007,52.7684611" id="Fill-1687" fill="#D6403E"></path>
            <path d="M371.573007,143.897084 C370.358007,147.739297 369.386007,151.674467 368.630007,155.671608 L365.012007,154.339228 C365.768007,150.342086 366.740007,146.437902 367.928007,142.564703 L371.573007,143.897084" id="Fill-1688" fill="#D6403E"></path>
            <path d="M370.434507,272.84362 C372.590507,279.102709 375.306507,285.113914 376.650507,291.682859 L372.814507,292.643412 C371.526507,286.446294 368.978507,280.806916 366.934507,274.888669 L370.434507,272.84362" id="Fill-1689" fill="#D6403E"></path>
            <path d="M367.984007,294.580012 C371.440007,301.427827 374.059007,308.802398 375.976007,316.424853 L372.277007,317.385406 C370.441007,310.103793 367.930007,303.16302 364.609007,296.625061 L367.984007,294.580012" id="Fill-1690" fill="#D6403E"></path>
            <path d="M382.468007,363.275066 C381.469007,355.001914 380.200007,346.821718 378.391007,338.734478 L382.090007,337.773925 C383.899007,345.861164 385.168007,354.04136 386.194007,362.314513 L382.468007,363.275066" id="Fill-1691" fill="#D6403E"></path>
            <path d="M392.402507,335.155643 C391.170507,326.38672 388.510507,317.95864 385.318507,309.840415 L388.790507,307.795366 C392.122507,316.254432 394.978507,325.05434 396.266507,334.195089 L392.402507,335.155643" id="Fill-1692" fill="#D6403E"></path>
            <path d="M389.535507,292.488484 C388.293507,289.234997 387.132507,285.919539 385.701507,282.789994 L389.049507,280.744945 C390.480507,283.87449 391.641507,287.158963 392.883507,290.41245 L389.535507,292.488484" id="Fill-1693" fill="#D6403E"></path>
            <path d="M378.232507,260.309948 C377.252507,256.21985 376.076507,252.191723 375.488507,248.039654 L379.324507,247.079101 C379.912507,251.262156 381.116507,255.259297 382.096507,259.349395 L378.232507,260.309948" id="Fill-1694" fill="#D6403E"></path>
            <path d="M403.386254,362.191152 C403.197254,357.760213 402.576254,353.453216 401.388254,349.239175 L405.087254,348.278622 C406.383254,352.895475 406.977254,357.574299 407.193254,362.377066 C407.328254,365.196755 403.521254,364.979856 403.386254,362.191152" id="Fill-1695" fill="#D6403E"></path>
            <path d="M396.277948,396.750253 C396.613948,387.792352 395.745948,378.864919 395.297948,369.907017 C395.157948,367.164802 399.105948,367.378086 399.245948,370.120301 C399.665948,379.078202 400.533948,387.975166 400.225948,396.963537 C400.141948,399.736221 396.193948,399.522937 396.277948,396.750253" id="Fill-1696" fill="#D6403E"></path>
            <path d="M383.537989,415.533845 C384.489989,408.933914 384.013989,402.364969 383.733989,395.734053 C383.621989,392.945349 387.569989,393.162249 387.681989,395.950952 C387.961989,402.581868 388.437989,409.150813 387.457989,415.750744 L383.537989,415.533845" id="Fill-1697" fill="#D6403E"></path>
            <path d="M405.540967,411.003124 C405.960967,407.687666 406.324967,404.279251 406.044967,400.901821 C405.820967,398.144104 409.684967,397.152565 409.908967,399.941268 C410.216967,403.752496 409.964967,407.470766 409.488967,411.220023 L405.540967,411.003124" id="Fill-1698" fill="#D6403E"></path>
            <path d="M392.846726,430.195615 C394.022726,427.437897 394.526726,424.556237 394.778726,421.58162 C395.030726,418.792917 398.978726,418.978831 398.726726,421.798519 C398.390726,425.578762 397.662726,429.049148 396.178726,432.519534 L392.846726,430.195615" id="Fill-1699" fill="#D6403E"></path>
            <path d="M376.188507,446.781233 C377.727507,442.846063 379.239507,438.910893 380.778507,434.975723 L384.396507,436.277118 C382.857507,440.243274 381.345507,444.178444 379.833507,448.113614 L376.188507,446.781233" id="Fill-1700" fill="#D6403E"></path>
            <path d="M393.620507,453.923412 C394.992507,450.205141 396.644507,446.703769 398.632507,443.32634 L401.964507,445.681245 C400.172507,448.717833 398.632507,451.878363 397.372507,455.255793 L393.620507,453.923412" id="Fill-1701" fill="#D6403E"></path>
            <path d="M372.243507,464.969775 C375.213507,462.800784 377.238507,460.22898 379.128507,456.85155 L382.341507,459.17547 C380.100507,463.203597 377.562507,466.27117 374.025507,468.842974 L372.243507,464.969775" id="Fill-1702" fill="#D6403E"></path>
            <path d="M351.365007,476.279516 C353.957007,475.752761 356.603007,474.172496 358.628007,472.251389 L361.220007,475.442905 C358.682007,477.859781 355.469007,479.873844 352.202007,480.555527 L351.365007,476.279516" id="Fill-1703" fill="#D6403E"></path>
            <polyline id="Fill-1704" fill="#D6403E" points="367.886507 483.917464 373.010507 480.540035 375.698507 483.73155 369.734507 487.759677 367.886507 483.917464"></polyline>
            <path d="M335.248507,483.983937 C338.160507,484.510692 341.884507,484.789562 344.656507,483.426196 L346.504507,487.299395 C343.032507,488.972617 338.748507,489.003603 335.080507,488.352905 L335.248507,483.983937" id="Fill-1705" fill="#D6403E"></path>
            <path d="M402.092507,326.479677 L399.656507,318.51638 L403.128507,316.471331 C404.304507,319.414963 405.284507,322.389579 405.928507,325.55011 L402.092507,326.479677" id="Fill-1706" fill="#D6403E"></path>
            <path d="M374.388007,220.369522 C373.767007,215.783654 373.119007,211.197787 372.471007,206.642905 L376.170007,205.682352 C376.818007,210.268219 377.466007,214.823101 378.114007,219.408968 L374.388007,220.369522" id="Fill-1707" fill="#D6403E"></path>
            <path d="M379.676507,129.907089 C380.992507,126.52966 382.560507,123.431101 384.576507,120.518455 L387.908507,122.87336 C386.116507,125.47615 384.604507,128.202882 383.456507,131.23947 L379.676507,129.907089" id="Fill-1708" fill="#D6403E"></path>
            <path d="M124.370779,281.068893 C113.784667,295.323086 103.198555,315.765383 82.517282,330.235082 C66.7761941,341.287468 37.4112407,347.59872 25.6898069,352.001203 C-6.34468771,364.03876 -5.02525929,402.953013 11.1760943,406.524258 C21.3633091,408.771679 32.1335271,386.882412 42.2286887,384.203979 C64.2600748,378.385313 90.4645369,378.939471 110.777598,368.56439 C136.122897,355.634021 156.712117,327.679795 162.941047,313.856614 C172.483889,292.706225 138.639016,261.796486 124.370779,281.068893" id="Fill-1709" fill="#E36A56"></path>
            <path d="M306.646851,395.409335 C282.023582,358.112987 241.538133,321.429561 231.332234,245.948127 L228.473352,247.817541 C212.334506,257.256551 158.722795,262.129287 115.839575,248.124002 C102.959238,275.092603 90.9703808,317.935902 89.2796445,384.49931 C87.6503896,448.978782 96.3192557,489.76879 109.906627,518.882619 C121.956966,544.533436 142.829874,564.821178 168.71351,574.290834 C185.49791,580.420062 235.113335,589.368733 273.047309,564.146963 C311.473134,538.588085 320.849035,523.203725 328.472719,493.446326 C331.116416,483.149224 338.617137,443.799585 306.646851,395.409335" id="Fill-1710" fill="#E9896C"></path>
            <path d="M99.3163557,490.372122 C92.1008929,464.242836 88.1400644,430.569178 89.276116,385.088273 C90.0744225,353.714728 93.1448322,327.61611 97.5355181,305.964378 L98.5487533,302.89756 C105.426471,288.176835 125.046389,280.233778 139.753651,283.453936 C158.145406,287.440799 168.646207,304.829655 175.001955,327.401433 C181.388407,349.942543 190.845269,388.247095 197.508058,419.160617 C200.977621,435.108069 214.241791,489.789427 195.389475,514.998668 C184.888674,529.044693 171.900841,536.742405 144.113633,530.210084 C122.1295,525.027162 107.360829,506.779597 99.3163557,490.372122" id="Fill-1711" fill="#ECAA8C"></path>
            <path d="M116.749208,404.176046 L117.514156,404.114075 C122.471017,403.339435 124.03151,397.54513 124.76586,391.998709 C126.387549,395.593037 128.957773,399.249337 131.742183,400.953545 L135.903498,401.790156 C139.758834,400.736646 141.258132,394.94234 142.482048,390.263516 L142.512646,390.139573 C144.50151,395.407124 148.479238,400.798617 152.548759,400.147919 C156.434693,399.528207 160.075844,393.702916 161.299761,388.280438 C163.013243,392.711378 165.491674,398.164841 170.938101,397.700058 L175.92556,394.849383 C178.465186,391.317026 178.434588,385.615677 177.82263,382.826974 L176.65991,382.08332 L175.92556,383.260772 C176.50692,385.894548 176.384529,390.852242 174.334469,393.671931 L170.785112,395.71698 L170.356741,395.71698 C166.256622,395.71698 164.328953,390.666329 162.76846,386.576231 L161.636338,383.787527 L160.534813,383.229787 L159.769865,384.252311 C159.984051,389.798732 155.76154,397.638086 152.24278,398.195827 C148.693423,398.753568 144.562706,391.502939 143.461181,386.390317 L142.543244,385.615677 L141.564111,386.29736 L140.584978,389.767746 C139.575247,393.702916 138.167743,399.094409 135.383334,399.869049 L132.751914,399.249337 C129.692123,397.390202 126.265157,391.905752 125.224829,387.288899 L124.215098,386.514259 L123.29716,387.412841 L123.266563,387.722697 C122.685202,393.486017 121.920255,401.418329 117.208177,402.161983 L115.433498,401.75917 C113.322243,400.178905 112.587893,394.66347 111.975935,390.23253 L111.394575,386.235389 L110.354246,385.398778 L109.436309,386.359331 C109.191525,391.719839 104.999612,401.170444 102.245801,401.170444 C100.777101,401.170444 99.1248142,397.328231 98.7882372,388.776207 L97.7479084,387.84664 L96.8299712,388.869164 C97.1971461,398.350755 99.0024226,403.153522 102.245801,403.153522 C105.61157,403.153522 108.671361,397.297245 110.262452,392.122651 C110.905008,396.863447 111.76175,401.4803 114.24018,403.339435 L116.749208,404.176046" id="Fill-1712" fill="#D6403E"></path>
            <path d="M109.656844,430.808161 L109.810687,430.808161 C113.872148,430.684219 115.687498,425.850467 116.395176,421.760369 C118.487444,425.75751 122.148912,430.064507 125.595,430.064507 L125.933455,430.033522 C129.594923,429.723666 131.441041,424.084288 132.14872,419.374478 C135.194815,425.261741 138.394754,427.86453 141.440849,426.934963 C146.363831,425.416669 147.348428,421.295585 147.440734,417.484357 C149.656076,422.194167 151.902187,425.137798 155.379043,424.642029 C159.040511,424.146259 159.96357,420.025176 160.517406,415.594236 C162.117375,419.157579 164.363486,423.216692 167.501887,423.216692 L167.778805,423.216692 C171.009512,422.968807 171.994108,418.382939 172.763324,414.72664 L173.009473,413.518202 C174.763286,416.988588 177.440158,421.915297 180.578559,421.326571 C184.516945,420.613902 184.055415,413.642144 183.840035,410.636542 L182.855438,409.675988 L182.793901,409.675988 L181.870842,410.698513 L181.870842,410.79147 C182.332371,417.546329 181.2247,419.188565 180.240104,419.374478 L174.394062,411.84498 L173.686384,410.450628 L172.824862,409.954859 L171.96334,410.419643 L170.8249,414.323827 L167.65573,421.233614 L167.501887,421.233614 C165.101933,421.233614 162.763516,415.842121 161.502002,412.929476 L160.855861,411.442167 L159.809727,410.884427 L158.978974,411.752023 L158.763593,413.518202 C158.271295,417.856184 157.778997,422.31811 155.132894,422.658951 C152.086798,423.092749 149.809919,418.258997 147.194585,411.937937 L146.086914,411.34921 L145.286929,412.340749 L145.379235,414.075942 C145.656153,419.405464 145.50231,423.588519 140.856245,425.013856 C138.456291,425.819481 135.410196,422.225153 132.425638,415.346352 L131.348735,414.757625 L130.548751,415.687193 C130.271833,421.450513 128.364177,427.833545 125.748843,428.050444 L125.595,428.081429 C122.518136,428.081429 117.718228,421.667412 116.733631,417.298444 L115.687498,416.492818 L114.795207,417.484357 C114.795207,422.008254 113.195238,428.732127 109.74915,428.825084 L109.687613,428.825084 C106.026145,428.825084 102.764669,420.985729 102.672363,418.382939 L101.656998,417.422386 L100.70317,418.444911 C100.826245,421.667412 104.518481,430.808161 109.656844,430.808161" id="Fill-1713" fill="#D6403E"></path>
            <path d="M165.518732,325.796718 L164.64121,326.788257 C164.610951,331.281168 161.282421,338.562782 158.347262,339.182494 L158.195965,339.213479 C155.623919,339.554321 152.476945,333.72903 151.054755,328.120638 L150.086455,327.407969 L149.148415,328.182609 C147.726225,335.55718 145.517291,339.709249 143.036023,339.461364 C138.285303,339.058551 137.256484,334.999439 136.439481,329.700903 L136.167147,327.996695 L135.198847,327.19107 L134.260807,327.996695 C133.050432,334.751554 131.840058,339.957133 128.84438,340.174033 C126.211816,340.390932 124.819885,336.11492 123.458213,331.993837 L122.913545,330.320615 L121.914986,329.669917 L121.037464,330.413571 L120.704611,331.993837 C120.099424,335.123381 118.949568,340.886701 116.649856,341.413456 L116.528818,341.413456 L112.020173,335.34028 L110.144092,331.776937 L109.236311,331.498067 L109.206052,331.498067 L108.510086,332.148765 L108.086455,333.667058 L104.0317,342.281053 C103.033141,342.312038 101.64121,340.948672 100.70317,334.224799 L100.672911,334.131842 L99.5835735,333.357203 L99.5533141,333.357203 L98.7665706,334.503669 C99.1902017,337.478286 100.158501,344.419058 104.092219,344.264131 C107.239193,344.171174 108.782421,338.779681 109.75072,335.030424 L110.26513,336.145906 C111.747839,339.554321 113.623919,343.830332 116.770893,343.396534 L117.043228,343.334563 C120.069164,342.683865 121.370317,338.22194 122.217579,334.410713 C123.639769,338.624753 125.364553,342.466966 128.995677,342.15711 C132.445245,341.909226 133.988473,338.531796 135.168588,333.450159 C136.04611,337.16843 137.861671,341.010644 142.884726,341.413456 C146.001441,341.692327 148.512968,338.469825 150.268012,332.086793 C151.932277,336.548718 154.837176,341.661341 158.43804,341.196557 L158.770893,341.134586 C165.851585,339.461364 166.54755,326.571358 166.54755,326.571358 L165.518732,325.796718" id="Fill-1714" fill="#D6403E"></path>
            <path d="M106.212262,459.547297 C109.8888,459.547297 112.6538,453.814963 114.871876,448.888254 L118.457261,456.138882 L122.619953,457.936046 C124.868414,457.62619 126.873798,454.434674 128.089183,449.569937 L130.519952,454.279746 L135.746105,458.059988 L135.867643,458.059988 C140.486105,458.059988 143.190335,452.110755 144.861489,447.36996 C145.408412,450.592461 146.623796,454.124818 148.507642,456.076911 L152.670334,457.688161 C156.741872,457.161406 158.321872,452.885395 159.081487,448.733326 L161.755333,453.102294 L167.741102,456.758594 L167.86264,456.758594 C172.086101,456.665637 174.759947,449.47698 176.339947,444.395343 C177.494562,447.462916 179.712639,451.088231 182.204177,453.040323 L187.946869,454.46566 C193.841483,452.575539 191.410714,442.66015 190.073792,437.299643 L189.739561,435.905291 L188.554561,435.161637 L187.855715,436.339089 L188.189946,437.795412 C189.253407,442.16438 191.501868,451.243159 187.369561,452.575539 L183.389177,451.460058 C180.016485,448.826282 177.373024,442.908035 177.494562,440.584115 L176.704562,439.561591 L175.580332,440.212288 L175.063793,441.916496 C174.000332,445.417867 171.174563,454.682559 167.801871,454.74453 L167.771486,454.74453 L163.274564,451.831885 L159.719564,443.682674 L159.780333,443.062963 L158.959949,441.978467 L157.866103,442.753107 L157.774949,443.558732 L157.744564,443.930559 C157.288795,448.144599 156.589949,455.178329 152.427257,455.705084 L149.905334,454.682559 C147.170719,451.831885 146.168027,444.922098 146.532642,442.226352 L145.833796,441.141856 L144.679181,441.668611 L143.919566,443.899573 C142.673797,447.865729 140.091105,456.076911 135.867643,456.076911 L135.77649,456.076911 L132.099952,453.164265 C130.155336,450.282605 129.031106,446.719262 128.939952,444.891112 L129.06149,443.868588 L128.301875,442.784092 L127.177644,443.43479 L126.995337,444.736184 C126.053414,452.141741 123.744183,455.767055 122.346491,455.983954 L119.946107,454.837487 L116.299953,445.727723 L115.661876,444.581256 L114.476876,445.077026 L113.413415,447.431931 C111.681492,451.212173 108.794954,457.564219 106.212262,457.564219 L106.151493,457.564219 L104.541108,456.541695 C102.83957,454.248761 102.262262,449.043182 102.930724,446.068565 L102.171109,444.891112 L101.016493,445.634767 C100.256878,449.105153 100.86457,454.930444 102.991493,457.750133 L106.090724,459.547297 L106.212262,459.547297" id="Fill-1715" fill="#D6403E"></path>
            <path d="M164.813662,489.166208 L168.955238,486.873274 C171.056933,484.642311 172.756833,480.955026 173.560422,477.422669 C175.353044,481.388824 178.505587,486.098634 182.55444,485.571879 C187.715956,484.890196 189.663114,477.20577 189.786744,470.853723 L188.797711,469.831199 L187.808678,470.822738 C187.685049,476.648029 185.923334,483.124017 182.276275,483.619787 L182.121738,483.619787 C178.289236,483.867672 174.456733,475.532548 174.024031,472.619902 L172.942277,471.783291 L172.045966,472.836801 C172.262317,476.864928 170.191529,482.659234 167.502596,485.509908 L164.566404,487.18313 C160.888438,487.245101 156.994121,481.388824 156.128717,474.417066 L155.108777,473.54947 L155.07787,473.54947 L154.150651,474.448052 C153.59432,479.963487 151.492625,486.625389 147.320143,487.18313 L143.82762,485.323994 L140.211469,475.811418 L139.500601,474.60298 L138.295217,475.315649 L137.677072,477.670553 C136.718946,481.605723 135.142675,488.267625 132.391927,488.701424 L132.268298,488.701424 C129.579365,488.887337 126.426822,480.118415 125.066902,476.338173 L124.356035,474.417066 L123.336094,473.766369 L122.439783,474.60298 L122.285247,475.873389 C121.79073,479.405747 120.894419,485.943706 116.969195,487.090173 L113.909374,486.005677 L110.571388,475.718461 L109.891428,474.510023 L108.655137,475.191706 C107.851548,478.166323 109.458726,484.394427 112.518547,487.400029 L117.525526,488.980294 C121.667101,487.802842 123.150651,482.783176 123.830611,478.786035 C125.808677,484.208513 128.621239,490.963372 132.391927,490.715487 L132.701,490.684502 C136.069893,490.095775 137.800701,485.231038 138.975177,480.738127 L142.344071,486.656375 L147.598308,489.166208 C151.585347,488.608467 154.027022,484.394427 155.263313,479.560674 C157.025028,484.859211 160.455736,489.228179 164.597311,489.166208 L164.813662,489.166208" id="Fill-1716" fill="#D6403E"></path>
            <path d="M121.356224,374.708749 L117.075012,373.035527 C114.77929,371.176392 112.638684,367.860934 111.397753,364.545476 C110.187845,368.573602 107.76803,373.531297 103.797051,373.562282 C98.7402576,373.593268 95.8240699,366.466582 94.8933718,360.331435 L95.6999769,359.246939 L96.8168147,360.052565 C97.654443,365.629971 100.229375,371.641176 103.797051,371.641176 L103.952167,371.641176 C107.705983,371.362305 110.311938,362.872254 110.342962,360.021579 L111.27366,359.061026 L112.266405,359.928622 C112.607661,363.832807 115.368732,369.162329 118.28492,371.548219 L121.356224,372.756657 C124.9239,372.322859 127.902134,366.218697 127.871111,359.401867 L128.708739,358.410329 L128.739762,358.410329 L129.76353,359.153983 C131.004461,364.390548 133.889626,370.525695 138.015721,370.525695 L141.149072,368.294732 C143.165584,365.28913 144.096283,360.424392 143.382747,358.658213 L143.910143,357.41879 L145.182097,357.914559 L146.050749,360.114536 C147.508843,363.770836 149.897635,369.967954 152.627683,370.029925 L152.720752,370.029925 C155.357731,369.844012 157.25015,361.013118 158.056755,357.20189 L158.491081,355.249798 L159.421779,354.506144 L160.352478,355.187827 L160.693734,356.36528 C161.624432,359.711723 163.330712,365.877856 167.270667,366.466582 L170.093785,365.010259 L171.986205,354.692058 L172.482577,353.452634 L173.754531,353.948403 C174.933416,356.706121 174.157834,362.903239 171.644949,366.187712 L166.991458,368.356703 C162.834339,367.767977 160.75578,363.120138 159.576896,359.370882 C158.366988,364.855331 156.536615,371.703147 152.875869,371.951032 L152.565636,371.951032 C149.246146,371.858075 146.950424,367.39615 145.21312,363.213095 L142.731259,369.348242 L138.015721,372.446801 C134.075765,372.446801 131.159578,368.697545 129.329205,364.23562 C128.33646,369.534156 125.575389,374.181994 121.573386,374.677764 L121.356224,374.708749" id="Fill-1717" fill="#D6403E"></path>
            <path d="M173.031551,514.85852 L176.622819,512.968399 C179.016998,510.365609 180.367561,505.191015 180.060615,499.489667 L179.047693,498.560099 L179.016998,498.560099 L178.09616,499.582623 C178.372412,504.695246 177.206017,509.436041 175.180173,511.605033 L172.601826,512.906427 C169.808617,512.937413 168.028331,507.54592 166.984714,504.323419 L166.309433,502.309355 L165.3579,501.658658 L164.467757,502.340341 L164.099421,503.362865 C162.933027,506.740295 160.569542,513.681067 157.101052,513.990923 L156.916884,513.990923 C152.987975,514.114865 149.703653,506.77128 148.721426,501.751615 L147.769893,500.945989 L146.787666,501.720629 L146.327247,504.137505 C145.467798,508.444502 144.424181,513.835995 141.047775,514.207822 L140.986386,514.207822 C136.934698,514.579649 132.913705,509.0952 131.624532,505.129044 L130.396748,504.509332 L129.752161,505.748756 C131.194808,510.272652 135.829693,516.686669 141.139859,516.1909 L141.262637,516.1909 C145.529187,515.695131 147.002528,510.644479 147.892671,506.21354 C149.611569,511.109263 152.742419,516.128929 156.978274,516.004986 C161.214129,515.850059 163.853865,509.962796 165.3579,505.71777 C166.677768,509.65294 168.642223,514.951476 172.632521,514.889505 L173.031551,514.85852" id="Fill-1718" fill="#D6403E"></path>
            <path d="M114.536372,315.712184 L110.967025,314.224876 C108.465431,311.931942 106.726519,307.09819 106.512968,301.613741 L107.397678,300.622202 L107.428185,300.622202 L108.404417,301.520784 C108.58746,306.447493 110.112822,310.878432 112.217822,312.799539 L114.78043,313.791078 C117.465066,313.574179 118.654849,308.244657 119.387022,305.053141 L119.844631,303.070063 L120.698834,302.38838 L121.614051,302.946121 L122.041152,303.906674 C123.444485,307.036219 126.281658,313.450236 129.637454,313.450236 L129.78999,313.419251 C133.542381,313.202352 136.043974,305.858767 136.53209,300.994029 L137.355785,300.126432 L138.362524,300.77713 L139.033683,303.039078 C140.223466,307.09819 141.687813,312.148841 144.92158,312.210813 L145.013102,312.210813 C148.857014,312.210813 152.243317,306.602421 153.09752,302.698236 L154.226287,301.954582 L154.927954,303.101049 C153.951722,307.562974 150.10781,314.131919 145.013102,314.131919 L144.891073,314.131919 C140.803103,314.038963 138.942162,309.329153 137.691365,305.177084 C136.501583,310.010836 133.969482,315.092473 129.912019,315.340357 C125.885064,315.588242 122.83434,310.165764 121.034413,306.261579 C120.149703,310.134778 118.715863,315.402329 114.902459,315.681199 L114.536372,315.712184" id="Fill-1719" fill="#D6403E"></path>
            <path d="M311.679593,473.362106 C299.425247,447.548443 264.251301,437.818441 237.206173,446.68901 C210.161045,455.55958 190.541868,482.386145 188.12767,510.839493 C185.682912,539.323535 199.58747,568.145211 222.048678,585.702186 C244.937718,603.5661 268.560186,612.651527 297.408322,615.475376 C292.579926,619.987396 284.176073,632.510552 271.524454,639.815727 C262.051019,645.279261 232.622253,642.025696 230.024698,661.086676 C229.474628,665.16898 235.219808,669.159201 239.161979,670.202798 C260.461927,675.758414 279.836629,666.826456 282.678659,665.01551 C299.639163,654.057748 344.042068,621.276544 336.004928,602.706668 C305.751056,532.570853 335.302061,523.117097 311.679593,473.362106" id="Fill-1720" fill="#E36A56"></path>
            <path d="M89.1168164,151.7648 C115.924023,97.8073545 142.022534,103.021081 168.090231,102.650876 C194.157929,102.28067 225.679506,111.134751 246.139259,133.809835 C260.960255,150.253128 267.893153,173.576072 264.442111,195.449044 C260.991068,217.352867 247.186897,237.251411 228.082911,248.450126 C202.446594,263.474297 82.5844855,267.0838 60.4916497,201.835088 C56.3010978,189.464056 82.1222923,165.832608 89.1168164,151.7648" id="Fill-1721" fill="#E9896C"></path>
            <path d="M212.760254,174.327462 L208.870696,167.943474 C205.65492,164.441578 200.999701,162.675134 196.344483,161.745427 C187.554695,159.947994 177.96862,160.350867 170.066999,164.627519 C148.291601,176.403807 151.415498,199.708463 157.357027,205.379675 C163.298556,211.050888 171.843332,213.530107 179.989965,212.941292 C188.136597,212.383468 195.915713,209.005533 202.653529,204.295017 C207.676265,200.793121 212.36211,196.237557 214.16907,190.349412 C215.731018,185.112063 214.842852,179.37887 212.760254,174.327462" id="Fill-1722" fill="#EDB78D"></path>
            <path d="M108.882205,136.138707 C97.7273922,130.793266 85.0542856,164.202276 89.6091674,170.480062 C91.2823893,172.779845 94.5978475,173.121705 98.6879455,170.635453 C104.141409,167.341169 120.006032,141.515227 108.882205,136.138707" id="Fill-1723" fill="#EDB78D"></path>
            <path d="M75.5273775,183.648111 C122.836666,158.194243 126.20933,122.822885 130.195207,106.703125 C142.919351,101.698324 155.582174,102.834383 168.214337,102.650157 C188.266362,102.373818 211.507088,107.59355 230.455331,120.397245 C198.690962,127.121487 139.332062,176.586121 83.7137547,191.723343 C83.1925247,188.100235 79.5439146,185.428961 75.5273775,183.648111" id="Fill-1724" fill="#D95B47"></path>
            <path d="M95.6794893,150.63656 C96.9498985,146.949274 100.141414,143.385931 103.33293,143.788744 C106.524446,144.191557 106.369518,148.467568 106.369518,148.467568 C106.865288,152.371753 105.93572,156.461851 103.8287,159.83928 L101.411824,162.225171 L95.8963884,159.746323 C94.9048495,157.825217 94.3780945,154.323845 95.6794893,150.63656" id="Fill-1725" fill="#17111C"></path>
            <path d="M245.571762,4.39499681 C248.88722,2.89099092 252.791404,20.1410177 254.588569,28.8274191 C255.580108,21.4915536 257.563185,10.9021243 259.794148,3.87319885 C264.751843,14.4012401 262.396938,26.5867572 263.078621,34.2602567 C267.354632,29.625463 268.717998,15.137896 272.808096,16.8260659 C277.455935,18.6983998 269.120811,55.1014812 254.030828,65.8443804 C252.481549,44.3892759 242.256304,5.8990027 245.571762,4.39499681" id="Fill-1726" fill="#B92442"></path>
            <path d="M247.015217,134.727382 C250.3673,138.537988 253.2362,142.75134 255.742712,147.181556 C269.181243,113.753561 266.795526,87.6059918 258.823005,52.2881844 C248.917751,60.4670451 237.260958,75.2757397 231.523159,86.8934395 C226.63093,96.8381905 223.429841,105.853526 220.772334,114.744938 C230.466196,119.639863 239.49568,126.207736 247.015217,134.727382" id="Fill-1727" fill="#D84451"></path>
            <path d="M101.618748,8.10951009 C104.686322,7.41354467 110.325699,16.4610951 113.300316,24.4495677 C111.317238,16.4308357 109.33416,8.07925072 111.100339,2.13162821e-14 C114.477768,10.7118156 115.934091,12.4063401 118.567866,24.3285303 C119.497434,15.5835735 120.984742,5.02305476 125.787509,5.71902017 C130.621261,6.41498559 124.114287,24.9337176 122.19318,52.2881844 C106.731371,37.370317 98.5511746,8.77521614 101.618748,8.10951009" id="Fill-1728" fill="#B92442"></path>
            <path d="M109.932772,121.270055 L110.026261,121.147437 L110.213239,120.994164 C121.338434,109.651991 132.338977,105.513631 143.308357,104.011559 C140.347871,83.1664844 130.905479,62.5053366 120.185403,44.5417867 C107.034612,69.0347498 107.751361,94.3247304 109.216023,122.005764 L109.932772,121.270055" id="Fill-1729" fill="#D84451"></path>
            <path d="M84.1058017,193.756466 L84.1058017,193.663892 C107.022651,193.417026 115.766027,204.8037 117.514702,210.821048 C119.386091,217.146977 116.93181,224.79981 111.16425,228.009062 L106.225009,229.767979 C98.8314877,231.372605 90.8550744,230.138277 84.2591942,226.373577 C76.0680314,221.652274 72.6320379,213.598285 69.7175793,204.186536 C75.5158181,203.631088 83.2774818,199.465232 84.1058017,193.756466" id="Fill-1730" fill="#EDB78D"></path>
            <path d="M72.8589342,181.226626 C78.6842253,182.961819 85.8418968,186.773046 85.0052858,192.567352 C83.9827613,199.570095 72.4871071,204.341876 66.9406864,202.916539 C60.2787844,201.212332 52.2845019,190.708216 54.856306,185.40968 C57.3971244,180.111144 66.4759025,179.305519 72.8589342,181.226626" id="Fill-1731" fill="#17111C"></path>
            <path d="M71.4682651,204.39645 C72.3668473,208.424576 73.6992277,212.26679 75.6823055,215.892104 L72.459804,217.782225 C70.1668703,213.568184 68.5556196,209.137245 67.6260519,204.427435 L71.4682651,204.39645" id="Fill-1732" fill="#17111C"></path>
            <path d="M185.736658,173.383752 C182.111343,172.268271 177.091678,176.947095 176.44098,180.603394 C176.069153,182.834357 175.635355,193.958184 181.739516,194.670853 C187.874663,195.414507 191.190122,189.868086 191.654905,183.020271 C192.088704,176.172455 189.361972,174.499233 185.736658,173.383752" id="Fill-1733" fill="#17111C"></path>
            <path d="M118.769331,344.838146 C106.887746,353.973337 86.7259886,360.94818 75.1522167,363.941807 C34.9518282,374.373208 16.2060115,374.558381 11.6195965,373.416482 C18.6377348,386.872372 33.3204188,411.191733 57.6376524,423.197103 C61.2082841,424.987107 65.1175103,426.005557 68.7189233,427.764699 C76.9990952,431.745914 83.7402017,449.121295 87.4339587,447.207843 C91.0969344,445.294391 90.9122465,432.332295 93.3439699,430.295394 L97.6533531,428.412804 C103.132426,426.530214 107.041652,421.777445 110.027439,416.808641 C126.772471,388.785824 122.032149,363.324564 118.923237,344.714697 L118.769331,344.838146" id="Fill-1734" fill="#9D594A"></path>
            <path d="M76.5212613,284.694612 C64.8575483,285.00171 52.1755747,288.809727 42.5792394,295.412336 C14.0987975,315.097326 9.28520165,329.162421 6.35384522,336.594196 C3.26820687,344.363778 -4.04475602,367.856785 11.6302868,373.292422 C16.1661752,374.428685 34.9577127,374.275136 75.3795751,363.86451 C86.9815753,360.885658 107.192506,353.94524 119.103071,344.855135 C127.958853,338.252526 122.466416,325.385114 119.781911,319.335281 C115.986576,310.890082 112.067815,303.857535 107.470214,298.08409 C100.24982,288.963276 88.1849742,284.387513 76.5212613,284.694612" id="Fill-1735" fill="#85853B"></path>
            <path d="M59.7480612,287.631576 C55.9368335,273.796008 67.4324877,260.477374 66.5648912,259.565138 L54.232626,259.504323 C51.9087067,262.697146 46.6411563,276.107004 51.7227932,290.489914 L59.7480612,287.631576" id="Fill-1736" fill="#85853B"></path>
            <path d="M193.043824,297.463868 C182.599163,311.644555 176.033074,333.49626 155.510231,347.952004 C139.873778,358.954261 110.67759,365.372245 99.0113311,369.803709 C67.1887076,381.875631 68.654625,420.475217 84.7797164,423.959265 C94.9495183,426.159716 105.577419,404.399696 115.594522,401.710255 C137.522203,395.811823 163.603316,396.27025 183.79022,385.87923 C208.924596,372.921016 231.249296,349.021668 237.204586,335.238284 C251.924839,301.161849 207.183819,278.301603 193.043824,297.463868" id="Fill-1737" fill="#E36A56"></path>
        </g>
    </g>
</svg>