<?xml version="1.0" encoding="UTF-8"?>
<svg width="720px" height="720px" viewBox="0 0 720 720" version="1.1" xmlns="http://www.w3.org/2000/svg" xmlns:xlink="http://www.w3.org/1999/xlink">
    <!-- Generator: Sketch 64 (93537) - https://sketch.com -->
    <title>img_m</title>
    <desc>Created with Sketch.</desc>
    <defs>
        <path d="M61.7740113,119.999661 C51.4957627,119.999661 40.0903955,117.455593 27.6115819,111.40339 C1.66101695,98.7901695 -1.07627119,65.2084746 2.00988701,46.9447458 C6.27683616,21.8522034 30.2683616,9.29254237 39.3121469,5.16847458 C45.2161017,2.49050847 51.5762712,1.47288136 58.0706215,1.47288136 C65.2090395,1.47288136 72.4816384,2.6779661 79.4322034,4.23118644 C90.9180791,6.77525424 102.940678,10.5244068 110.535311,19.5223729 C115.634181,25.5745763 118.15678,33.340678 120.545198,40.8925424 C122.074859,45.7128814 123.60452,50.5332203 124.409605,55.5410169 C127.65678,75.6257627 104.631356,119.999661 61.7740113,119.999661 L61.7740113,119.999661 Z M23.1836158,71.5820339 C21.2782486,71.5820339 19.5607345,71.9301695 18.5946328,72.4389831 C15.5084746,74.099322 15.3742938,79.6427119 19.9364407,82.8027119 C21.4124294,83.8471186 23.3177966,84.3559322 25.2231638,84.3559322 C29.1412429,84.3559322 32.9788136,82.1332203 32.6836158,77.6877966 C32.3615819,73.1352542 27.3432203,71.5820339 23.1836158,71.5820339 L23.1836158,71.5820339 Z M52.4350282,22.3610169 C51.2274011,22.3610169 50.019774,22.4413559 48.8121469,22.6288136 C44.759887,23.3250847 41.029661,25.3067797 37.6751412,27.6366102 C31.180791,32.1355932 25.4378531,38.7769492 25.0889831,46.6501695 C25.0084746,48.3908475 26.8333333,62.1823729 39.9293785,64.2444068 C41.7542373,64.5389831 43.6327684,64.6728814 45.4844633,64.6728814 C58.2853107,64.6728814 71.1129944,58.2189831 73.6892655,50.8545763 C74.7358757,47.8552542 74.9237288,44.6416949 74.8700565,41.4549153 C74.8163842,37.6254237 74.3870056,33.6084746 72.2937853,30.3949153 C69.2612994,25.7084746 63.4110169,23.6732203 57.8559322,22.8162712 C56.0847458,22.5484746 54.259887,22.3610169 52.4350282,22.3610169 L52.4350282,22.3610169 Z" id="path-1"></path>
    </defs>
    <g id="img_m" stroke="none" stroke-width="1" fill="none" fill-rule="evenodd">
        <g id="monkey" transform="translate(10.000000, 13.000000)">
            <path d="M101.757081,461.601565 C81.3319782,459.938899 78.674836,446.128041 78.379598,439.71873 C77.6012432,424.191571 85.3042716,415.610067 98.3215844,407.082197 C111.312057,398.52751 135.736294,400.243811 157.26183,411.641121 C238.157048,454.521824 298.305085,507.244441 298.305085,507.244441 C275.14232,553.933186 232.252287,625.320574 214.484326,620.064403 C196.689525,614.808231 209.653159,577.210516 229.514626,568.441292 C184.396888,591.504084 164.159663,589.868235 149.478282,586.381999 C134.77006,582.895763 121.484349,571.632539 118.156212,556.909896 C115.606429,545.512586 120.249718,532.720781 129.241057,525.667857 C113.190845,533.391211 72.9579543,545.163962 55.3510323,522.986137 C37.8783093,500.969216 75.0514603,470.37079 101.757081,461.601565" id="Fill-983" fill="#A1CC76"></path>
            <path d="M512.87068,477.933374 C516.061536,475.762604 519.145137,472.225053 522.067854,467.963912 C531.854933,489.403615 532.981118,521.187974 556.228784,520.06239 C585.509581,518.668809 564.621539,440.038699 622.137391,440.681891 C665.468681,441.191083 684.935584,505.59059 690.807832,564.254977 C694.347269,599.442889 687.590162,705.998211 605.432321,683.298926 C585.911789,677.912201 576.071082,655.856106 576.205152,635.622387 C576.580546,582.02313 620.287231,593.814967 625.086922,602.792842 L626.722571,609.305152 L621.949694,613.137499 C620.55537,612.815903 605.190996,610.243139 601.785628,627.877294 C598.809283,643.126283 602.643674,660.948036 618.142117,662.234418 C663.88666,665.986366 664.744705,601.586859 661.607477,570.633288 C656.539646,520.946777 642.033317,466.65073 618.678396,466.007539 C594.519057,465.310749 613.422868,549.327584 553.895973,546.647621 C522.65776,545.227241 512.522099,512.022501 500,485.330071 C504.370668,483.025303 508.741337,480.747335 512.87068,477.933374" id="Fill-984" fill="#B24065"></path>
            <path d="M275.387155,481.098293 C351.90825,486.540723 428.778511,483.403953 505.433901,480.240372 C538.336092,478.899872 571.372578,477.532562 603.845026,472.009702 C631.079982,467.398382 666.721784,456.406282 692.184051,445.762712 L700,476.138442 C669.273383,493.270033 635.243117,504.449803 600.326506,508.873453 C582.814483,511.098683 565.168165,511.661693 547.521847,512.197893 C417.121735,516.219393 163.116822,511.876173 134.216612,491.822293 C127.636173,487.264593 224.704351,477.478942 275.387155,481.098293" id="Fill-985" fill="#593E42"></path>
            <path d="M608.474576,471.186441 C603.633214,479.046526 601.844015,494.577622 597.528888,509.568506 C587.661982,510.756972 577.71614,511.432237 567.79661,511.864407 C572.637972,503.139982 574.690289,489.067459 578.76861,475.670201 C587.162058,474.697819 595.502883,473.563374 603.817396,472.104801 L608.474576,471.186441" id="Fill-986" fill="#B24065"></path>
            <path d="M412.411901,271.48918 C449.714936,275.149159 479.116608,263.846282 501.423178,249.152542 C512.737715,271.139329 545.418183,346.599486 540.096857,412.775137 C538.188705,436.268974 525.906654,469.154962 512.038955,478.654761 C489.813011,493.886733 463.502009,501.744923 436.653499,499.672729 C380.779573,495.393783 364.116834,456.883268 353.689185,434.627365 C346.513457,419.287747 344.067797,388.366306 344.067797,371.438903 C344.067797,318.046267 365.218725,276.387093 378.253287,257.522053 C388.976565,265.514802 400.47923,270.33198 412.411901,271.48918" id="Fill-987" fill="#BF7E68"></path>
            <path d="M348.046905,51.3703737 C359.29043,42.0123657 397.197171,29.3026355 405.121179,28.0155742 C457.51065,19.6496759 510.944163,30.9114621 545.82586,70.9444307 C591.147973,122.90953 567.831044,182.623811 537.125513,216.301914 C515.816357,239.683528 475.179046,276.713353 411.867293,270.492557 C376.744664,267.060394 345.075402,232.577877 326.791289,174.686933 C312.308558,128.835375 309.631529,83.3592093 348.046905,51.3703737" id="Fill-988" fill="#C6886E"></path>
            <path d="M348.14956,108.04817 C349.815738,90.6432328 365.241323,57.5603597 394.587559,59.3952988 C423.906921,61.2572223 437.021356,79.5796292 444.223546,93.9353295 C470.156804,75.1811722 492.005237,78.2573937 499.422418,80.2812236 C540.458775,91.398796 541.023126,121.027666 540.620018,141.913591 C539.921298,178.207607 503.749106,216.714345 471.87673,232.20339 L472.494828,228.047792 C476.418409,204.436443 466.555709,170.085303 430.222274,167.170988 C393.888839,164.229689 384.24113,182.066377 380.478792,190.350587 C378.167641,195.450638 377.03894,200.955456 376.582085,206.190429 C365.08008,191.942667 355.701109,170.085303 352.583744,161.261405 C346.940237,145.394578 346.832741,121.594338 348.14956,108.04817" id="Fill-989" fill="#AA3A5E"></path>
            <path d="M429.480714,167.866228 C393.190829,164.933136 383.554683,182.720054 379.796855,190.98115 L379.608963,191.492423 C367.449704,175.239323 358.833541,147.280763 359.343532,128.767299 C360.256147,95.9920091 375.690085,73.657452 397.619698,72.9039971 C419.576152,72.123633 429.802813,91.605825 436.566905,117.384748 C449.128788,105.89456 470.38736,87.2734591 494.24957,93.2472804 C525.117445,100.997103 527.211093,130.758573 520.769101,157.237132 C513.226603,188.236421 484.157116,208.498977 472.454165,220.338983 C473.071523,197.762244 461.717513,170.422593 429.480714,167.866228" id="Fill-990" fill="#F6C79F"></path>
            <path d="M562.711864,94.6598151 C577.759511,85.2679566 604.807522,72.4511469 624.169907,98.2988257 C635.738797,113.737864 636.655678,137.578735 634.902816,145.55245 C626.677848,182.879067 590.08348,181.006046 567.70078,167.092182 C574.847064,144.535667 575.170669,119.303409 562.711864,94.6598151" id="Fill-991" fill="#BF7E68"></path>
            <path d="M256.448854,77.8350926 C260.059066,68.5111227 268.589865,60.5000106 278.190356,57.7135368 C301.055036,51.0152825 316.80626,64.5725492 328.813559,75.7184442 C316.378383,97.6083391 315.602855,123.061705 320.871092,149.533206 C307.68713,151.43551 288.459405,151.944578 277.602025,146.37163 C250.913194,132.707191 248.693582,97.8494763 256.448854,77.8350926" id="Fill-992" fill="#BF7E68"></path>
            <path d="M380.417914,189.367387 C384.165793,181.167016 393.776426,163.510845 429.970229,166.422377 C466.164031,169.307198 475.988828,203.310687 472.080326,226.683078 C470.715027,234.91016 469.189105,265.868561 420.279284,260.366032 C384.192564,256.332625 378.195957,227.190593 377.232217,221.768198 C375.840148,213.80823 375.277966,200.666268 380.417914,189.367387" id="Fill-993" fill="#EAB17B"></path>
            <path d="M114.790475,416.765982 L113.559322,411.31704 C113.987549,407.69336 117.654243,405.438625 121.053294,404.150205 C138.878243,397.332317 179.988035,403.935469 206.457816,433.810703 C199.25825,423.771765 196.340953,405.089678 208.7863,402.673891 C221.204883,400.284946 259.798841,431.4486 273.528869,450.318582 C265.553142,438.266488 259.290322,425.087027 254.954523,411.290198 C259.370614,408.203359 265.205207,412.095461 269.005722,415.933878 C287.205369,434.320702 304.816204,459.552257 315.254237,483.226971 C315.254237,483.226971 275.32207,510.740102 186.384676,508.324315 C175.625472,508.055894 132.160432,509.183261 130.715166,491.467489 C129.2699,473.724875 158.603449,466.745934 163.073068,466.960671 C141.79554,456.545944 124.184704,438.588593 114.790475,416.765982" id="Fill-994" fill="#5DB45B"></path>
            <path d="M370.649069,608.101209 C375.479536,604.412828 385.861037,598.719892 394.000774,603.557551 C399.845372,607.005386 399.364995,621.892547 394.801404,637.715168 C389.757436,655.248342 390.531378,674.652434 381.751137,675.801712 C378.575305,676.202623 378.441867,669.948412 378.228365,666.741124 C377.134171,670.883871 373.6114,676.603534 369.314686,676.256078 C366.832733,676.068986 364.564282,668.879316 366.565857,665.190935 C364.590969,668.211131 361.308387,674.358433 356.878235,672.915153 C352.448083,671.498601 355.170224,660.380003 356.557983,657.199442 C354.663159,660.700732 350.953574,664.148566 347.510865,662.144011 C340.331884,657.974537 356.691421,618.845624 370.649069,608.101209" id="Fill-995" fill="#B24065"></path>
            <path d="M383.449328,477.966102 C391.235937,484.968893 401.068857,490.929284 413.559322,494.858331 C404.337638,504.373574 398.35816,517.229843 395.19568,530.487036 C384.379469,575.604255 398.783367,619.411793 386.77126,625.612738 C380.712056,628.739938 372.952022,626.762051 368.168439,621.84406 C363.411432,616.926069 352.170013,565.340623 360.780462,517.203115 C363.517734,501.941307 372.420513,489.298863 383.449328,477.966102" id="Fill-996" fill="#BF7E68"></path>
            <path d="M442.372881,681.444197 C443.126775,666.283005 446.330825,651.229914 451.796558,637.068658 C455.566028,627.366576 460.897137,617.502342 470.051565,612.529687 C474.817253,609.935259 481.063804,609.016398 485.452545,612.178358 C488.171949,614.151205 489.760511,617.394241 490.59518,620.664302 C492.479915,628.042208 491.133676,635.825494 489.787436,643.311502 C488.62967,649.851624 488.441197,690.443621 484.106305,691.20033 C479.798339,691.957038 477.994378,688.551851 476.190417,684.498056 C476.378891,686.984383 474.57493,693.632607 470.805459,693.200202 C467.062914,692.740772 466.632117,687.930269 466.443643,686.281726 C465.420501,688.200522 461.731805,692.335392 458.285432,691.957038 C454.839059,691.578684 455.619878,681.417172 455.996825,677.822807 C454.73136,681.20097 450.127221,689.903116 448.99638,690.470647 L443.315249,688.119446 L442.372881,681.444197" id="Fill-997" fill="#B24065"></path>
            <path d="M512.835573,478.131391 L516.949153,474.576271 C503.363516,499.542299 492.836,525.256773 488.911862,553.216585 C484.446464,585.132471 486.070245,576.177846 487.964656,608.334304 C488.397665,615.711845 488.695358,623.704181 484.50059,629.825402 C480.278758,635.973353 469.670054,638.058311 465.6106,631.830169 L463.743252,626.991999 C449.697544,572.99695 452.214405,543.00564 464.771647,497.617723 C481.875476,494.677398 498.221542,487.994843 512.835573,478.131391" id="Fill-998" fill="#BF7E68"></path>
            <g id="Group-1001" transform="translate(5.084746, 0.000000)">
                <mask id="mask-2" fill="white">
                    <use xlink:href="#path-1"></use>
                </mask>
                <g id="Clip-1000"></g>
                <polygon id="Fill-999" fill="#D5D1DF" mask="url(#mask-2)" points="-1.07627119 119.999661 127.65678 119.999661 127.65678 1.47288136 -1.07627119 1.47288136"></polygon>
            </g>
            <path d="M33.2234778,261.016949 C24.8539808,261.016949 16.136869,258.292015 8.86369589,250.494925 C-9.74707053,230.610997 5.54798463,204.521772 13.1687726,198.775128 C19.4525802,194.026728 25.3085542,187.335799 32.8758629,185.285354 C34.3198017,184.90764 35.8974385,184.745763 37.5285545,184.745763 C43.3043096,184.745763 49.9089925,186.850168 54.8558198,188.765716 C59.9898243,190.735223 64.0007654,194.944032 67.289737,199.368679 C81.6756456,218.739995 71.5948137,241.564694 64.027505,249.226886 C59.3480738,253.948307 46.6735001,261.016949 33.2234778,261.016949 M31.6725806,204.953445 C30.897132,204.953445 30.1751626,205.007404 29.5066724,205.115323 C23.9715738,206.005648 21.8324053,210.322376 20.6826022,212.022087 L19.5327991,217.84967 L24.4528867,222.166398 C27.2338059,223.029743 29.6403705,223.380478 31.7527994,223.380478 C38.5981388,223.380478 42.1812461,219.549382 43.9995394,216.851427 L45.1226029,213.748778 C45.4167386,207.867237 37.3681169,204.953445 31.6725806,204.953445" id="Fill-1002" fill="#C7E6E4"></path>
            <path d="M400.417295,211.966276 C408.254583,210.56592 415.1156,223.923161 414.790176,232.352225 C414.70882,234.02188 416.254583,242.370156 408.363058,243.959021 C405.759668,244.497619 403.563058,242.935684 401.339329,241.481468 C394.451193,236.957242 392.580007,213.366632 400.417295,211.966276" id="Fill-1003" fill="#17111C"></path>
            <path d="M498.009347,139.64003 C493.364934,148.101047 484.609948,154.799352 474.680512,153.687487 C462.989403,152.331555 457.677689,140.995962 455.969399,130.419691 C455.488942,127.545115 459.813051,126.297657 460.293508,129.199352 C461.734878,138.04003 465.631914,148.589182 475.935038,149.212911 C483.862571,149.728165 490.482195,144.006132 494.112311,137.334945 C495.526988,134.785793 499.397333,137.063759 498.009347,139.64003" id="Fill-1004" fill="#17111C"></path>
            <path d="M416.726644,126.776134 C413.231722,134.586304 404.941443,141.555795 396.38024,142.721897 C383.321696,144.484609 377.280088,131.630372 374.652124,120.972744 C373.947721,118.125287 378.363784,116.904948 379.041095,119.752405 C381.316858,128.972744 386.383139,141.06766 397.9516,137.732066 C404.34541,135.887999 410.116095,130.491389 412.771151,124.47105 C413.99031,121.786304 417.91871,124.118507 416.726644,126.776134" id="Fill-1005" fill="#17111C"></path>
            <path d="M275.604343,92.3924699 C278.446969,87.9722566 283.265896,84.9100606 288.436768,83.6851822 C296.341975,81.8744924 304.626199,84.1911102 312.044099,87.4663286 C315.482323,88.9841127 318.812256,90.7149191 322.033898,92.6587479 C318.947619,102.724053 317.810568,113.321914 318.13544,124.265936 C309.039037,127.887316 298.778512,128.366616 290.169416,123.919775 C285.431707,121.470018 281.479103,117.715499 278.040879,113.61482 L274.034131,107.4638 C272.003684,102.617542 272.734644,96.8393111 275.604343,92.3924699" id="Fill-1006" fill="#E98E84"></path>
            <path d="M569.491525,116.142085 C584.670831,106.668309 602.875194,109.543299 608.844281,117.2647 C612.706631,122.302778 615.1915,129.668228 612.301489,137.800342 C609.222413,146.507454 601.929864,151.134818 582.80718,150.833629 C578.188565,150.751486 574.515281,149.793156 570.923026,148.451494 C572.19247,137.937246 571.895366,127.067046 569.491525,116.142085" id="Fill-1007" fill="#E98E84"></path>
            <path d="M224.018031,302.178319 C227.625164,297.541664 235.240221,302.982363 240.717719,305.555304 C234.171441,299.042546 223.056129,287.249899 225.621201,283.497693 C227.8122,280.281516 235.026465,284.703759 239.969573,288.161149 C236.709794,283.09567 230.751345,268.140449 235.079904,266.237544 C242.053694,263.208978 266.475317,311.800047 303.161191,314.024569 C327.342338,315.49865 343.854989,307.806628 355.932203,299.792988 C351.630364,311.773246 347.916353,325.415195 345.698635,340.42402 C332.980153,345.89152 317.723318,350.152954 301.798496,348.946888 C262.01316,345.971924 219.82307,307.538613 224.018031,302.178319" id="Fill-1008" fill="#BF7E68"></path>
            <path d="M258.771955,240.677966 C255.924497,241.512976 252.995684,241.755398 250.121108,241.405233 C250.012633,255.411853 248.982124,283.047991 248.493989,289.324034 C247.571955,301.256596 245.185514,337.754615 248.46687,349.256204 L250.771955,352.542373 L254.975345,349.28314 C263.436362,330.939856 261.782124,311.788497 261.049921,287.842564 C260.616023,273.566587 258.012633,255.573467 258.771955,240.677966" id="Fill-1009" fill="#B1C9DE"></path>
            <path d="M243.040314,200.901584 C247.364876,193.947282 257.176225,189.698935 262.90627,197.60032 C265.771292,201.578073 266.771347,207.287635 267.203803,212.050114 C267.690316,217.137308 267.365974,222.738632 264.500952,227.176397 C259.527706,234.780127 247.66219,236.349581 243.797113,227.203456 C240.445577,219.247952 239.580665,208.77591 243.040314,200.901584 Z M239.553636,236.917831 C248.55413,246.848682 265.663178,242.113263 272.014878,231.587102 C278.258464,221.250358 277.204352,205.582884 271.636479,195.24614 C263.149526,179.524548 244.067398,182.717574 235.526388,196.490879 L234.877704,198.303868 C230.607199,209.777113 230.95857,227.501111 239.553636,236.917831 L239.553636,236.917831 Z" id="Fill-1010" fill="#A8DBEC"></path>
            <path d="M105.554962,169.617414 C108.792713,162.76617 117.301844,148.524216 122.492949,142.994669 C142.080005,122.225153 180.852743,125.569854 202.12557,144.5861 C208.547556,150.331434 220.053613,169.023999 226.422082,174.850253 C232.763793,180.62256 244.965565,193.300057 253.554971,193.192164 C256.498381,193.057297 259.388275,194.217153 261.662728,197.37304 C264.499105,201.33813 265.489161,207.029517 265.917293,211.776835 C266.398942,216.847834 266.077843,222.431327 263.241466,226.854965 C260.913496,230.415453 257.087063,232.600299 253.287388,233.004899 L253.287388,233.517394 C229.178184,244.549514 194.07133,265.588765 167.821464,268.960439 C156.823813,270.390029 139.805552,268.933466 129.583891,264.590749 C115.428765,258.548708 103.093201,241.4206 101.220122,226.045763 C99.3202843,210.670926 98.892152,183.616607 105.554962,169.617414" id="Fill-1011" fill="#F6D3DD"></path>
            <path d="M140.810485,218.644068 C131.706933,218.644068 121.817657,215.600613 118.349638,207.511432 C116.805285,203.880644 116.805285,199.822705 117.103318,195.89825 C117.889041,185.966978 120.598432,175.982312 126.396527,167.813039 C132.167529,159.61707 141.325269,153.45007 151.431296,152.622464 C152.244113,152.56907 153.084024,152.542373 153.896841,152.542373 C158.25896,152.542373 162.566891,153.396676 166.766446,154.624736 C173.72958,156.653706 180.638526,159.830645 185.434147,165.223433 C190.229768,170.642918 192.586938,188.076038 184.62133,197.980614 C180.04246,203.667068 174.542397,208.632704 167.985672,211.916432 C160.372285,215.734098 151.94608,218.030038 143.4115,218.563977 C142.571589,218.617371 141.704584,218.644068 140.810485,218.644068" id="Fill-1012" fill="#FDEEF1"></path>
            <path d="M136.139192,247.064407 C133.291735,247.064407 129.739192,245.871186 126.945972,241.884746 L127.217159,234.481356 C128.735803,232.366102 131.39343,231.2 134.023938,231.064407 C134.837497,231.010169 135.840887,230.901695 136.898514,230.901695 C139.203599,230.901695 141.752752,231.444068 143.406989,234.345763 C145.766311,238.60339 142.566311,244.352542 140.613769,245.844068 C139.827328,246.467797 138.145972,247.064407 136.139192,247.064407" id="Fill-1013" fill="#FDEEF1"></path>
            <path d="M50.6445496,66.1016949 C48.8166272,66.1016949 46.9622132,65.9676035 45.1607825,65.6726024 C32.232868,63.6075949 30.4314372,49.7961811 30.5109121,48.0529929 C30.8553033,40.1684188 36.5245117,33.5174855 42.9354857,29.0120146 C46.2469393,26.6788243 49.9292756,24.6942716 53.9295115,23.9969964 C55.1216347,23.8092684 56.313758,23.7288136 57.5058813,23.7288136 C59.307312,23.7288136 61.1087427,23.9165415 62.8571902,24.1847243 C68.3409572,25.0429092 74.1161321,27.0810985 77.1096861,31.7742974 C79.1760331,34.9924909 79.5998992,39.0152328 79.6528824,42.8502467 C79.7058657,46.041622 79.5204243,49.2598155 78.4872508,52.2634628 C75.9440545,59.6384896 63.2810562,66.1016949 50.6445496,66.1016949" id="Fill-1014" fill="#F2EFF3"></path>
            <path d="M31.6163648,222.820339 C29.4739919,222.820339 27.033314,222.467797 24.212975,221.6 L19.2231445,217.261017 L20.3892462,211.40339 C21.5553479,209.694915 23.7248394,205.355932 29.3383987,204.461017 C30.0163648,204.352542 30.7485682,204.298305 31.5350089,204.298305 C37.3112801,204.298305 45.4739919,207.227119 45.1756869,213.138983 L44.0367038,216.257627 C42.192636,218.969492 38.5587377,222.820339 31.6163648,222.820339" id="Fill-1015" fill="#EAF6F5"></path>
            <path d="M501.86385,158.530069 C507.85711,156.835176 514.352009,157.682623 520.239661,159.774755 L524.358377,161.681509 C528.503495,164.382743 530.774069,169.546868 530.483647,174.499131 C530.219627,179.451394 526.866569,185.51593 523.592718,189.276472 C516.886603,196.956452 500.807769,201.352579 491.355844,188.27013 C489.666114,185.939653 488.900455,183.05304 488.478023,180.219392 C488.029188,177.094435 487.92358,173.863546 488.768445,170.818037 C490.458175,164.779984 495.844188,160.251444 501.86385,158.530069" id="Fill-1016" fill="#E98BA1"></path>
            <path d="M345.967348,153.959755 C346.683718,149.184973 349.549198,144.622403 353.847419,142.447224 C358.994671,139.874147 374.383362,138.945717 382.024643,147.938224 C387.94133,154.914711 389.506731,166.268083 376.532472,174.809638 C367.033935,181.069908 353.900484,177.621454 348.753232,167.965783 C346.47146,163.695005 345.250978,158.761064 345.967348,153.959755" id="Fill-1017" fill="#E98BA1"></path>
            <path d="M421.845697,174.848063 C427.18807,174.71247 427.459257,185.993826 427.323664,190.603996 C427.242308,193.342979 426.537223,196.244674 424.476206,198.034504 L417.316884,197.546369 L416.720274,192.800606 C417.099935,188.597216 416.503325,175.010775 421.845697,174.848063" id="Fill-1018" fill="#17111C"></path>
            <path d="M391.811018,189.054462 C393.899154,184.715479 402.468646,171.345988 407.105934,174.112089 C411.743222,176.878191 406.156781,191.847683 402.57712,194.369716 L398.075425,195.752767 L392.244917,193.800225 L391.133052,192.254462 L391.811018,189.054462" id="Fill-1019" fill="#17111C"></path>
            <path d="M388.033716,83.7589276 C391.586259,82.8640124 402.542191,83.2165547 404.332021,83.5962157 L409.104903,87.9623174 C409.077784,90.7284191 405.742191,92.0843513 403.030326,92.5724869 C396.820157,93.7385886 383.640496,93.2233344 384.128631,87.2029954 L388.033716,83.7589276" id="Fill-1020" fill="#B88562"></path>
            <path d="M482.407669,100.767297 C488.834787,99.384246 501.39072,102.367297 501.282245,107.275771 C501.200889,112.211365 489.295804,108.224924 484.116143,108.143568 L478.692414,106.028314 C477.499194,103.777466 479.912753,101.30967 482.407669,100.767297" id="Fill-1021" fill="#B88562"></path>
            <path d="M379.518197,377.527183 C387.63677,368.898822 398.319104,364.476787 408.734379,360.48617 C423.475999,354.877735 439.285852,349.673755 454.294531,354.365426 C462.466516,356.926971 469.81062,362.292733 476.994489,367.577604 C483.964712,372.700693 491.068463,378.012528 496.062454,385.697162 C504.581615,398.801485 505.409496,417.541207 499.908094,432.721729 C494.379987,447.902252 483.964712,461.11443 470.611795,466.776792 C432.31563,483.008896 390.974999,472.034699 376.473732,451.030033 C361.945758,430.05233 362.426463,395.646741 379.518197,377.527183" id="Fill-1022" fill="#E19E90"></path>
            <path d="M524.549428,309.624613 C536.370045,350.993606 561.910065,409.247356 583.358333,431.537376 C598.334679,447.110955 625.158386,463.460538 621.735221,467.768693 C618.312056,472.076848 610.26227,469.641804 599.564879,460.543837 C605.742622,467.180001 614.407508,474.378099 611.358752,479.489016 C608.309996,484.573174 596.141714,477.08073 587.717519,469.267182 C592.397628,477.08073 601.116001,487.275806 592.504601,489.684091 C583.919946,492.092377 562.605395,464.102748 557.978774,456.422993 C542.307097,430.467027 507.727782,374.24694 496.923418,318.562028 C493.55374,301.168855 518.344942,287.869767 524.549428,309.624613" id="Fill-1023" fill="#C6886E"></path>
            <path d="M432.840649,427.319322 C434.983022,427.861695 437.857598,429.570169 437.667768,433.854915 C437.450819,438.112542 435.688107,440.987118 432.244039,440.905762 C430.047429,440.878644 422.183022,435.617627 423.484717,430.76339 C424.759293,425.909152 430.725395,426.776949 432.840649,427.319322" id="Fill-1024" fill="#995859"></path>
            <path d="M31.199306,84.4338983 C29.2738823,84.4338983 27.3484586,83.9186441 25.8569331,82.8610169 C21.2467637,79.6610169 21.3823569,74.0474576 24.5010009,72.3661017 C25.4772721,71.8508475 27.2128654,71.4983051 29.1382891,71.4983051 C33.3416789,71.4983051 38.4128654,73.0711864 38.7382891,77.6813559 C39.0365942,82.1830508 35.1586281,84.4338983 31.199306,84.4338983" id="Fill-1025" fill="#F2EFF3"></path>
        </g>
    </g>
</svg>