<?xml version="1.0" encoding="UTF-8"?>
<svg width="720px" height="720px" viewBox="0 0 720 720" version="1.1" xmlns="http://www.w3.org/2000/svg" xmlns:xlink="http://www.w3.org/1999/xlink">
    <!-- Generator: Sketch 64 (93537) - https://sketch.com -->
    <title>img_r</title>
    <desc>Created with Sketch.</desc>
    <g id="img_r" stroke="none" stroke-width="1" fill="none" fill-rule="evenodd">
        <g id="raccoon" transform="translate(160.000000, 10.000000)">
            <path d="M73.9170476,411.662446 C101.367252,389.960224 113.862684,335.941922 138.580288,315.063836 C161.683175,295.534334 188.711068,294.58533 211.73943,318.260481 C234.767791,341.910657 217.08042,401.07356 170.675912,438.684084 C128.419987,472.923146 52.8263478,470.850322 40.2315483,452.819248 C30.7916591,439.333402 49.6714375,430.817341 73.9170476,411.662446" id="Fill-1565" fill="#6E6E6C"></path>
            <path d="M16.0795357,411.96504 C18.3320588,410.528314 23.6216917,414.334378 26.5828738,419.804021 C24.2291137,413.754647 24.3050414,404.201677 27.215605,403.143037 C30.784209,401.857545 34.049102,408.965559 36.9343563,415.241785 C35.1627089,408.360622 34.8083795,400.420819 38.5541482,399.967116 C42.3252262,399.513413 48.424755,408.839531 50.5254227,414.964522 C50.6013504,409.872965 50.0698562,400.319996 54.1699544,399.58903 C58.2953619,398.832858 61.0287607,409.444468 61.6614919,412.091069 C64.3948907,423.710908 67.1535988,435.633215 65.6350439,447.479906 C64.8757664,453.252017 61.9398936,459.477831 56.2200035,460.712911 C39.5918274,464.31733 12.333767,414.359584 16.0795357,411.96504" id="Fill-1566" fill="#393C3B"></path>
            <path d="M89.8541912,457.752809 C82.2599158,468.487186 86.3818087,483.723075 106.966292,482.214326 C92.8519315,492.231429 73.7912994,498.736363 71.8677494,496.708208 C69.9441994,494.680054 78.7625521,488.966596 81.4854995,487.161044 C78.4877592,487.804117 64.9979279,493.022904 63.099359,490.450611 C61.2007901,487.853584 69.8192935,484.687685 72.1675234,481.843323 C68.2204987,483.005801 61.8003382,484.935021 60.6262232,482.436929 C59.4521083,479.938836 64.6731727,477.020273 69.444576,474.44798 C66.4718168,474.992119 58.377918,475.189988 58.2030498,472.568228 C58.0281816,469.921734 86.4817334,460.300368 89.8541912,457.752809" id="Fill-1567" fill="#393C3B"></path>
            <path d="M90.0746559,456.604099 L89.6985222,456.828321 C106.875299,434.680203 112.141172,328.972142 105.094932,257.196294 C101.509123,220.523594 185.211429,215.491063 188.997843,272.991465 C190.953739,302.464158 189.07307,343.123021 184.785144,364.57356 C187.844366,362.630306 190.803285,360.562484 193.611751,358.320267 C197.272786,363.502279 194.138338,377.503677 182.327737,395.092621 C186.665813,393.099539 189.173372,390.085004 193.737129,388.664933 C191.354948,399.377746 179.494196,409.069105 173.877265,413.927241 C176.836184,413.553539 179.845254,413.528625 182.804173,413.877414 C175.657631,419.183994 168.10988,424.017216 160.361524,428.451823 C140.050299,461.238014 115.300696,475.712768 107.251432,481.243569 C86.5891495,482.763294 82.4516778,467.416566 90.0746559,456.604099" id="Fill-1568" fill="#7D7E7C"></path>
            <path d="M194.209631,585.493827 C218.747144,567.345866 247.341061,555.562122 273.371729,539.601861 C299.402397,523.641599 323.93991,501.839187 332.699753,472.603568 C336.482412,459.999436 336.955244,446.475477 334.367109,433.573022 C342.95275,424.523902 348.701397,415.599083 351.737478,408.513921 L354.002097,402.696629 C384.960176,437.227475 447.647798,568.837479 335.163458,659.925325 C280.513987,704.151657 224.470905,699.676817 164.719821,700 C162.281001,700 159.717752,699.97514 157.552677,698.83157 C136.872481,657.737626 169.672118,603.641787 194.209631,585.493827" id="Fill-1569" fill="#959593"></path>
            <path d="M391.685393,475.339883 C369.681663,470.907018 350.954548,471.489623 330.337079,478.202247 L332.277843,472.477519 C334.243812,465.891549 335.302411,459.026941 335.554458,452.137003 C350.853729,450.971793 366.127796,449.147985 381.301044,446.741573 C385.157368,455.556641 388.73644,465.131629 391.685393,475.339883" id="Fill-1570" fill="#7D7E7C"></path>
            <path d="M311.98481,587.021745 C304.962898,580.635698 297.940985,574.274694 290.342273,568.614903 C279.483388,560.52591 267.470903,553.964559 254.831461,549.156241 C261.02579,545.775393 267.169963,542.319414 273.188745,538.638046 L279.182449,534.831461 C315.922096,549.707194 352.611587,578.807535 380.674157,607.206663 C375.332488,616.823299 368.761985,626.289675 360.762021,635.505618 C346.041084,618.000335 328.987868,602.423389 311.98481,587.021745" id="Fill-1571" fill="#7D7E7C"></path>
            <path d="M321.50464,497.078652 C346.913598,505.138094 372.793551,511.694092 398.970975,516.697354 C399.863387,527.739036 399.764231,539.076477 398.400823,550.561798 C367.959652,541.713664 334.866034,528.79884 305.168539,516.179775 C311.291478,510.313882 316.844265,503.955056 321.50464,497.078652" id="Fill-1572" fill="#7D7E7C"></path>
            <path d="M271.396906,692.134831 C250.070135,653.739551 224.998779,617.453902 196.629213,583.97282 C204.812742,578.065854 213.417846,572.804186 222.221339,567.865169 C257.112929,599.261438 287.739165,635.398173 313.033708,674.959955 C299.270501,683.001371 285.408099,688.461592 271.396906,692.134831" id="Fill-1573" fill="#7D7E7C"></path>
            <path d="M164.747255,699.998959 C162.303341,699.998959 159.734737,699.973777 157.565139,698.815395 C147.141096,677.888981 150.283271,653.638516 159.086351,632.359551 C165.420579,639.637208 171.031607,647.594786 176.59276,655.527181 C186.94199,670.283955 197.29122,685.06591 207.640449,699.847866 C193.525596,700.12487 179.236177,699.923412 164.747255,699.998959" id="Fill-1574" fill="#7D7E7C"></path>
            <path d="M122.622629,192.510856 C134.682785,193.358375 191.862408,179.199824 229.366248,163.595506 C246.545105,186.827494 270.365786,209.66065 290.640831,226.112488 C325.273206,254.180319 385.374233,330.756144 352.06523,408.428758 C344.374696,426.326363 319.854875,455.864889 274.485715,469.699388 C231.538575,482.786077 118.927177,484.929802 83.3709396,316.797009 C75.1810198,277.960702 72.4344003,221.825039 79.7503958,178.850846 C99.1265476,186.927202 115.781049,192.037243 122.622629,192.510856" id="Fill-1575" fill="#959593"></path>
            <path d="M76.2110133,204.794736 L72.7009101,207.611084 C75.7380206,198.339566 76.9578437,188.494809 79.8206938,179.173445 L80.0198486,177.852503 L80.1692147,177.90235 L80.2190034,177.752809 L80.2687921,177.952196 C99.4623348,185.952619 115.917499,191.012076 122.713656,191.485622 C125.028831,191.660086 129.036821,191.236387 134.23974,190.38899 C134.389106,191.18654 142.031671,210.352662 142.355297,214.265641 L137.152378,210.552049 C141.882305,220.596194 142.728712,229.070161 148.927405,246.666106 L140.836742,242.977438 C145.815612,252.946812 154.678,273.334182 158.86025,283.527867 L150.396172,279.839198 C158.362363,299.404095 170.087602,311.566731 177.282068,331.430708 L170.286756,331.80456 C179.771503,341.798857 200.159975,372.828534 199.263778,380.629569 C196.027513,378.46123 194.434274,378.486153 193.189557,378.162149 C198.019061,387.657977 207.852328,410.38815 205.786097,411.210623 L201.454481,409.789988 C199.96082,422.849867 203.122402,429.853353 196.998392,439.448875 L194.160437,436.059288 C189.206461,441.916295 186.542766,447.349604 179.049567,448.994551 C164.337007,452.234597 151.81515,446.128356 143.600015,439.199641 L144.14769,443.91017 C131.775199,429.953046 124.506049,416.070693 114.324261,402.063723 L114.37405,405.702544 C103.594797,388.779532 96.5248016,369.53864 91.7948754,350.048514 L90.1269541,356.154756 C88.8822367,347.032779 86.3928018,335.592922 85.1480844,326.470945 C84.6750918,329.062982 83.7291065,331.455632 82.4843891,332.352875 C80.3683695,318.171441 81.189883,304.687863 78.476399,291.204285 C78.0283007,293.871092 77.0325268,295.391422 75.9869641,296.61267 C74.6426693,278.144405 74.3190428,258.205657 75.3148167,239.762315 C74.4186202,242.329429 73.5971067,243.077132 72.4519666,244.747002 C72.0038684,232.609289 73.1739027,218.10385 76.2110133,204.794736" id="Fill-1576" fill="#BEB1AE"></path>
            <path d="M123.2,200.064719 C123.401348,205.073258 123.955056,210.031461 124.785618,214.989663 L122.193258,215.21618 C121.362697,210.283146 120.834157,205.324944 120.60764,200.316404 L123.2,200.064719" id="Fill-1577" fill="#A69C97"></path>
            <path d="M107.796854,194.892584 C107.922697,197.963146 108.199551,201.008539 108.72809,204.028764 L106.186067,204.683146 C105.657528,201.436404 105.305169,198.164494 105.204494,194.867416 L107.796854,194.892584" id="Fill-1578" fill="#A69C97"></path>
            <path d="M107.620674,217.607191 C107.69618,221.40764 108.124045,225.157753 108.90427,228.882697 L106.31191,229.134382 C105.531685,225.409438 105.10382,221.659326 105.028315,217.858876 L107.620674,217.607191" id="Fill-1579" fill="#A69C97"></path>
            <path d="M132.250387,222.804494 C132.174882,227.234157 132.955106,231.462472 134.61623,235.590112 L132.174882,236.521348 C130.438253,232.19236 129.582522,227.71236 129.658028,223.05618 L132.250387,222.804494" id="Fill-1580" fill="#A69C97"></path>
            <path d="M119.688989,224.465618 C120.69573,228.870112 121.475955,233.299775 122.004494,237.754607 L119.412135,238.006292 C118.883596,233.526292 118.103371,229.121798 117.096629,224.717303 L119.688989,224.465618" id="Fill-1581" fill="#A69C97"></path>
            <path d="M91.413165,212.208539 C91.0356369,209.137978 91.1866481,206.092584 91.8410301,203.07236 L94.4082212,203.500225 C93.8041762,206.319101 93.653165,209.112809 94.0055245,211.956854 L91.413165,212.208539" id="Fill-1582" fill="#A69C97"></path>
            <path d="M87.2321147,223.270112 C86.9300922,228.706517 87.3831259,234.042247 88.4905417,239.377978 L85.8981821,239.629663 C84.7404293,234.067416 84.3377327,228.505169 84.6397552,222.842247 L87.2321147,223.270112" id="Fill-1583" fill="#A69C97"></path>
            <path d="M97.2260674,227.385169 C97.628764,233.979326 98.6858427,240.397303 100.44764,246.739775 L98.0314607,247.671011 C96.1941573,241.102022 95.0364045,234.457528 94.6085393,227.636854 L97.2260674,227.385169" id="Fill-1584" fill="#A69C97"></path>
            <path d="M81.856189,248.186966 C81.7051777,254.554607 82.510571,260.746067 84.3478744,266.836854 L81.9316946,267.76809 C80.0188856,261.450787 79.1128182,255.032809 79.2638294,248.438652 L81.856189,248.186966" id="Fill-1585" fill="#A69C97"></path>
            <path d="M95.9173034,277.332135 C94.734382,271.820225 93.9289888,266.283146 93.4759551,260.645393 L96.0683146,260.670562 C96.5213483,266.081798 97.301573,271.39236 98.4341573,276.677753 L95.9173034,277.332135" id="Fill-1586" fill="#A69C97"></path>
            <path d="M86.6552809,282.391011 C87.1083146,286.845843 87.8633708,291.225169 88.9707865,295.554157 L86.5546067,296.485393 C85.3716854,291.929888 84.5411236,287.324045 84.0629213,282.642697 L86.6552809,282.391011" id="Fill-1587" fill="#A69C97"></path>
            <path d="M110.552809,280.327191 C109.218876,274.009888 108.061124,267.667416 107.104719,261.274607 L109.646742,260.796404 C110.603146,267.164045 111.760899,273.506517 113.12,279.82382 L110.552809,280.327191" id="Fill-1588" fill="#A69C97"></path>
            <path d="M112.402697,239.440899 C112.578876,242.083596 112.931236,244.701124 113.560449,247.268315 L111.119101,248.199551 C110.439551,245.380674 110.011685,242.586966 109.810337,239.692584 L112.402697,239.440899" id="Fill-1589" fill="#A69C97"></path>
            <path d="M125.666517,276.665169 C126.346067,281.950562 127.32764,287.160449 128.586067,292.32 L126.018876,292.773034 C124.760449,287.613483 123.778876,282.403596 123.099326,277.118202 L125.666517,276.665169" id="Fill-1590" fill="#A69C97"></path>
            <polyline id="Fill-1591" fill="#A69C97" points="123.665618 256.958202 124.345169 261.891236 121.752809 262.142921 121.04809 257.209888 123.665618 256.958202"></polyline>
            <path d="M137.684494,244.952809 C139.496629,252.427865 140.604045,260.003596 141.610787,267.604494 L139.018427,267.85618 C138.036854,260.481798 137.004944,253.132584 135.243146,245.884045 L137.684494,244.952809" id="Fill-1592" fill="#A69C97"></path>
            <path d="M145.839101,282.932135 C146.594157,287.084944 147.777079,291.086742 149.337528,295.013034 L146.921348,295.94427 C145.260225,291.816629 144.052135,287.563146 143.246742,283.18382 L145.839101,282.932135" id="Fill-1593" fill="#A69C97"></path>
            <path d="M166.666067,334.074607 C165.181124,329.795955 163.368989,325.693483 161.204494,321.716854 L163.394157,320.307416 C165.659326,324.485393 167.572135,328.789213 169.132584,333.294382 L166.666067,334.074607" id="Fill-1594" fill="#A69C97"></path>
            <path d="M152.760449,307.333034 C153.515506,311.057978 154.245393,314.757753 155.000449,318.482697 L152.40809,318.734382 C151.653034,315.009438 150.923146,311.309663 150.16809,307.584719 L152.760449,307.333034" id="Fill-1595" fill="#A69C97"></path>
            <path d="M141.497528,320.23191 C142.126742,325.894831 143.032809,331.482247 144.240899,337.044494 L141.648539,337.29618 C140.440449,331.733933 139.534382,326.146517 138.905169,320.483596 L141.497528,320.23191" id="Fill-1596" fill="#A69C97"></path>
            <path d="M135.658427,302.538427 C135.910112,305.130787 136.514157,307.597303 137.49573,310.013483 L135.054382,310.944719 C133.997303,308.302022 133.342921,305.608989 133.066067,302.790112 L135.658427,302.538427" id="Fill-1597" fill="#A69C97"></path>
            <path d="M125.679101,308.994157 C126.056629,315.66382 127.013034,322.232809 128.598652,328.751461 L126.182472,329.657528 C124.521348,322.937528 123.489438,316.167191 123.086742,309.245843 L125.679101,308.994157" id="Fill-1598" fill="#A69C97"></path>
            <path d="M114.730787,292.508764 C115.662022,296.686742 116.593258,300.839551 117.549663,304.99236 L114.957303,305.244045 C114.000899,301.091236 113.069663,296.938427 112.113258,292.760449 L114.730787,292.508764" id="Fill-1599" fill="#A69C97"></path>
            <path d="M110.552809,313.172135 C110.754157,316.091685 111.358202,318.910562 112.289438,321.679101 L109.772584,322.333483 C108.765843,319.363596 108.161798,316.318202 107.935281,313.172135 L110.552809,313.172135" id="Fill-1600" fill="#A69C97"></path>
            <path d="M177.90382,437.718652 C179.338427,440.260674 181.075056,442.551011 183.113708,444.64 L181.125393,446.326292 C178.93573,444.061124 177.098427,441.54427 175.537978,438.826067 L177.90382,437.718652" id="Fill-1601" fill="#A69C97"></path>
            <path d="M120.167191,328.764045 C120.242697,335.106517 121.752809,341.071461 124.67236,346.709213 L122.25618,347.640449 C119.210787,341.77618 117.650337,335.584719 117.574831,329.01573 L120.167191,328.764045" id="Fill-1602" fill="#A69C97"></path>
            <path d="M103.39236,336.503371 C102.586966,332.501573 102.00809,328.499775 101.65573,324.422472 L104.24809,324.170787 C104.600449,328.24809 105.179326,332.249888 105.984719,336.251685 L103.39236,336.503371" id="Fill-1603" fill="#A69C97"></path>
            <path d="M102.839148,288.708315 C102.813979,293.339326 103.292181,297.894831 104.248586,302.425169 L101.681395,302.928539 C100.674653,298.171685 100.22162,293.389663 100.246788,288.532135 L102.839148,288.708315" id="Fill-1604" fill="#A69C97"></path>
            <path d="M89.411236,308.906067 C90.4431461,313.662921 91.4750562,318.419775 92.5069663,323.201798 L89.9146067,323.453483 C88.8826966,318.671461 87.8507865,313.914607 86.8188764,309.157753 L89.411236,308.906067" id="Fill-1605" fill="#A69C97"></path>
            <path d="M97.0750562,336.188764 C97.4022472,341.524494 98.5348315,346.658876 100.548315,351.642247 L98.2076404,352.8 C96.1186517,347.615281 94.8602247,342.254382 94.5078652,336.666966 L97.0750562,336.188764" id="Fill-1606" fill="#A69C97"></path>
            <path d="M110.842247,347.439101 C112.251685,352.598652 113.635955,357.758202 115.045393,362.917753 L112.528539,363.572135 C111.119101,358.412584 109.734831,353.227865 108.325393,348.068315 L110.842247,347.439101" id="Fill-1607" fill="#A69C97"></path>
            <path d="M123.313258,357.28 C123.313258,360.300225 124.420674,363.446292 125.17573,366.315506 C125.930787,369.159551 126.585169,372.154607 127.818427,374.822472 L125.377079,375.753708 C124.068315,372.834157 123.338427,369.537079 122.533034,366.441348 C121.803146,363.597303 120.720899,360.476404 120.720899,357.531685 L123.313258,357.28" id="Fill-1608" fill="#A69C97"></path>
            <path d="M135.104719,342.443146 C136.81618,346.696629 137.747416,351.126292 137.873258,355.732135 L135.280899,355.98382 C135.155056,351.604494 134.324494,347.426517 132.688539,343.374382 L135.104719,342.443146" id="Fill-1609" fill="#A69C97"></path>
            <path d="M112.704719,376.722697 C114.06382,383.568539 116.379326,390.062022 119.550562,396.278652 L117.109213,397.209888 C113.812135,390.766742 111.521798,384.046742 110.11236,376.974382 L112.704719,376.722697" id="Fill-1610" fill="#A69C97"></path>
            <path d="M127.780674,389.231461 C129.416629,392.654382 131.027416,396.077303 132.638202,399.500225 L130.222022,400.431461 C128.586067,397.008539 126.975281,393.585618 125.339326,390.162697 L127.780674,389.231461" id="Fill-1611" fill="#A69C97"></path>
            <path d="M140.302022,367.070562 C141.258427,372.859326 141.937978,378.698427 142.290337,384.587865 L139.697978,384.839551 C139.345618,378.950112 138.666067,373.111011 137.709663,367.322247 L140.302022,367.070562" id="Fill-1612" fill="#A69C97"></path>
            <path d="M149.740225,349.188315 C153.188315,354.700225 152.785618,361.093034 154.396404,367.18382 L151.955056,368.115056 C150.444944,362.376629 150.872809,355.908315 147.626067,350.748764 L149.740225,349.188315" id="Fill-1613" fill="#A69C97"></path>
            <path d="M159.80764,332.81618 C161.519101,337.245843 162.75236,341.801348 163.532584,346.482697 L160.940225,346.734382 C160.185169,342.279551 159.002247,337.950562 157.366292,333.747416 L159.80764,332.81618" id="Fill-1614" fill="#A69C97"></path>
            <path d="M168.419855,361.999101 C170.131316,366.982472 170.836035,372.066517 170.609518,377.326742 L168.042327,376.924045 C168.243675,372.116854 167.538956,367.460674 165.978507,362.930337 L168.419855,361.999101" id="Fill-1615" fill="#A69C97"></path>
            <path d="M158.926742,395.989213 C156.208539,391.433708 154.371236,386.57618 153.565843,381.341124 L156.158202,381.089438 C156.88809,385.871461 158.549213,390.301124 161.040899,394.453933 L158.926742,395.989213" id="Fill-1616" fill="#A69C97"></path>
            <path d="M172.190562,405.326742 C170.428764,400.620225 169.145169,395.813034 168.289438,390.88 L170.881798,390.628315 C171.71236,395.334831 172.945618,399.915506 174.63191,404.395506 L172.190562,405.326742" id="Fill-1617" fill="#A69C97"></path>
            <path d="M184.170787,374.419775 C185.479551,378.396404 186.209438,382.473708 186.360449,386.676854 L183.76809,386.928539 C183.642247,382.95191 182.962697,379.126292 181.729438,375.351011 L184.170787,374.419775" id="Fill-1618" fill="#A69C97"></path>
            <path d="M176.733483,345.765393 C178.797303,349.893034 180.257079,354.196854 181.213483,358.702022 L178.621124,358.953708 C177.715056,354.675056 176.255281,350.597753 174.292135,346.696629 L176.733483,345.765393" id="Fill-1619" fill="#A69C97"></path>
            <path d="M193.634157,396.807191 C194.640899,401.664719 195.395955,406.547416 195.924494,411.480449 L193.332135,411.732135 C192.803596,406.799101 192.048539,401.916404 191.041798,397.058876 L193.634157,396.807191" id="Fill-1620" fill="#A69C97"></path>
            <path d="M185.416629,407.466067 C186.95191,413.582022 188.915056,419.521798 191.381573,425.310562 L188.965393,426.241798 C186.498876,420.453034 184.510562,414.513258 183.000449,408.397303 L185.416629,407.466067" id="Fill-1621" fill="#A69C97"></path>
            <path d="M164.275056,408.523146 C166.565393,414.865618 169.006742,421.182921 171.62427,427.399551 L169.182921,428.330787 C166.590562,422.088989 164.124045,415.796854 161.858876,409.454382 L164.275056,408.523146" id="Fill-1622" fill="#A69C97"></path>
            <path d="M145.662921,396.631011 C147.449888,402.671461 149.715056,408.485393 152.508764,414.123146 L150.067416,415.054382 C147.273708,409.416629 145.008539,403.577528 143.221573,397.562247 L145.662921,396.631011" id="Fill-1623" fill="#A69C97"></path>
            <path d="M137.432809,408.900674 C140.85573,415.494831 145.436404,421.333933 151.300674,425.939775 L149.664719,427.953258 C143.422921,423.070562 138.640899,416.853933 134.991461,409.83191 L137.432809,408.900674" id="Fill-1624" fill="#A69C97"></path>
            <path d="M122.973483,407.013034 C125.012135,411.266517 127.730337,415.066966 131.12809,418.364045 L129.492135,420.402697 C125.742022,416.778427 122.772135,412.625618 120.557303,407.94427 L122.973483,407.013034" id="Fill-1625" fill="#A69C97"></path>
            <path d="M151.955056,438.385618 C155.755506,441.531685 159.857978,444.224719 164.28764,446.414382 L163.230562,448.805393 C158.624719,446.489888 154.29573,443.721348 150.319101,440.42427 L151.955056,438.385618" id="Fill-1626" fill="#A69C97"></path>
            <path d="M160.298427,429.664719 C163.192809,433.213483 166.11236,436.737079 169.006742,440.285843 L166.892584,441.795955 C163.998202,438.27236 161.078652,434.723596 158.18427,431.174831 L160.298427,429.664719" id="Fill-1627" fill="#A69C97"></path>
            <path d="M182.987865,425.134382 C184.523146,428.808989 186.083596,432.483596 187.618876,436.183371 L185.102022,436.88809 C183.566742,433.213483 182.031461,429.538876 180.471011,425.839101 L182.987865,425.134382" id="Fill-1628" fill="#A69C97"></path>
            <path d="M199.775281,418.288539 C199.599101,421.535281 199.422921,424.782022 199.221573,428.028764 L196.629213,428.003596 C196.805393,424.756854 196.981573,421.510112 197.182921,418.263371 L199.775281,418.288539" id="Fill-1629" fill="#A69C97"></path>
            <path d="M133.078652,425.272809 C135.922697,428.796404 139.14427,431.942472 142.718202,434.711011 L141.082247,436.749663 C137.332135,433.830112 133.959551,430.507865 130.989663,426.833258 L133.078652,425.272809" id="Fill-1630" fill="#A69C97"></path>
            <path d="M83.0955056,198.32809 C82.9696629,202.506067 82.9948315,206.684045 83.1710112,210.862022 L80.5786517,210.660674 C80.4024719,206.482697 80.3773034,202.329888 80.5031461,198.126742 L83.0955056,198.32809" id="Fill-1631" fill="#A69C97"></path>
            <path d="M10.8223455,133.742623 C6.94829573,130.001818 3.29919078,126.11138 0,122.046372 C0.724822216,121.846862 33.2168526,59.1759037 54.1117275,40.7212641 C72.5322094,24.4362916 99.5005946,15.1590944 133.792184,15.7576233 C187.079113,16.705294 195.652011,22.391318 209.998492,32.9154503 C232.717919,49.5495646 261.510857,107.532047 273.707865,132.894707 C269.708846,138.007141 255.637298,145.388997 249.688757,147.63348 L255.412353,149.703392 C228.069059,169.429906 138.466037,192.947102 123.019826,191.874738 C107.548621,190.802373 41.9397131,166.038242 7.77309342,136.810083 L10.8223455,133.742623" id="Fill-1632" fill="#959593"></path>
            <path d="M94.62679,78.689485 C119.220758,79.7166184 132.54249,95.0234115 132.54249,95.0234115 C145.58929,78.4890687 175.157038,75.7082929 193.90244,81.8460413 C221.145758,90.7395136 248.589026,120.601539 273.707865,132.626515 C269.708846,137.762182 255.637298,145.177585 249.688757,147.432268 L255.412353,149.511587 C228.069059,169.327746 138.466037,192.951814 123.019826,191.874577 C107.548621,190.797339 41.9397131,165.920669 7.77309342,136.559685 L10.8223455,133.478284 C6.94829573,129.720479 3.29919078,125.812362 0,121.72888 C26.5184956,114.012854 61.4349313,77.3116231 94.62679,78.689485" id="Fill-1633" fill="#EFEBDC"></path>
            <path d="M132.622378,15.7596536 C168.628378,16.4108715 184.274439,19.2161181 195.05618,24.2004402 C179.359971,40.2053738 162.811252,60.5434116 153.057538,85.4650219 C141.448361,115.095439 135.405571,144.325107 132.998485,174.606742 C127.482246,172.828416 120.210839,172.402619 115.171002,172.803369 C119.55892,147.280634 120.687241,106.178762 115.973364,82.6597753 C110.732936,56.5609633 98.8479477,38.6274226 81.7977528,23.6243628 C96.2653447,18.2142443 113.290466,15.4089978 132.622378,15.7596536" id="Fill-1634" fill="#393C3B"></path>
            <path d="M107.850183,183.152362 C105.09958,175.42562 109.138754,173.18562 114.862983,172.606744 C121.67754,171.876856 133.795063,172.808092 138.701544,177.111912 C143.533685,181.340227 141.377807,185.342025 138.701544,188.160901 C134.885392,192.162699 127.401769,196.189665 121.504079,195.661126 C114.937323,195.057081 109.089194,186.600452 107.850183,183.152362" id="Fill-1635" fill="#17111C"></path>
            <path d="M88.9674893,96.4191749 C102.260705,94.7044806 109.753697,97.7859603 113.164128,104.918095 C117.86903,114.7838 112.467106,127.383076 98.8502729,138.267658 C88.3700414,146.617474 71.4423516,159.117348 67.0361735,173.033708 C49.3118865,164.932398 30.666534,154.843037 15.7303371,143.809351 C23.9950327,130.61366 52.0252956,101.140797 88.9674893,96.4191749" id="Fill-1636" fill="#434544"></path>
            <path d="M155.000303,118.620734 C152.72132,111.549904 155.526222,106.315008 157.930424,103.585916 L166.670699,98.5743099 C186.254925,94.3318116 202.984162,103.660346 217.05876,114.527096 C230.106563,124.624738 247.311631,143.207376 246.961019,154.297416 C233.262078,161.864445 212.200269,169.679573 191.063329,176.179775 C189.861228,157.200178 161.987514,140.304614 155.000303,118.620734" id="Fill-1637" fill="#434544"></path>
            <path d="M90.4321247,105.727016 C98.1085292,103.990387 101.103585,110.232185 101.808305,113.051061 C102.513024,115.844769 100.952574,119.997578 98.4105517,122.287915 C93.8550461,126.34005 81.8496528,123.621848 80.7170686,118.260949 C79.5844843,112.90005 82.7557202,107.488814 90.4321247,105.727016" id="Fill-1638" fill="#17111C"></path>
            <path d="M170.389981,109.071722 C173.158521,105.019587 181.892004,103.635317 186.246161,107.611946 C190.625487,111.588576 190.071779,115.540036 188.360318,118.837115 C186.674026,122.134194 183.024588,124.223182 179.324813,124.424531 L174.794476,123.543632 C169.056049,120.674418 167.621442,113.149025 170.389981,109.071722" id="Fill-1639" fill="#17111C"></path>
            <path d="M53.7029033,40.6181892 C48.0342079,45.6965784 42.8130412,52.3588215 37.8902269,59.7752809 C33.0171379,48.612881 19.4172417,9.11709234 31.8237284,1.39894649 C42.0422976,-4.93646965 69.8636574,11.6060058 81.7977528,23.7740273 C70.9576162,27.9724975 61.5097907,33.6039785 53.7029033,40.6181892" id="Fill-1640" fill="#959593"></path>
            <path d="M53.639215,41.943006 C51.4100657,43.9742713 49.2299088,46.2813874 47.1232403,48.7640449 C40.2643195,35.0467351 38.6965662,20.7777235 39.5294351,16.5396515 L40.5337771,14.558541 L42.3954842,14.1573034 C45.72696,14.1823807 49.0829319,14.9096238 52.1449501,16.288878 C59.1018554,19.448624 65.6913186,24.3136297 70.7865169,29.9811106 C64.4665113,33.39163 58.685421,37.3538512 53.639215,41.943006" id="Fill-1641" fill="#737370"></path>
            <path d="M208.802829,33.1765899 C204.178956,29.7685974 200.154937,26.886839 195.05618,24.4811972 C215.851111,8.0677037 244.744069,6.63935389 248.768088,12.803811 C252.717125,18.8179155 248.018271,42.8743334 233.971694,62.9213483 C225.473766,50.0411412 216.775886,39.0403418 208.802829,33.1765899" id="Fill-1642" fill="#959593"></path>
            <path d="M209.132274,34.0419567 L207.640449,32.9315064 C214.439257,26.748317 232.634628,18.6975519 237.525857,23.4674409 C237.599225,27.000692 235.911751,37.5499704 225.493434,51.9101124 C219.917433,44.3136225 214.365889,37.979008 209.132274,34.0419567" id="Fill-1643" fill="#737370"></path>
            <path d="M119.597478,484.494382 C111.93914,495.526186 116.095804,511.184229 136.853933,509.633676 C122.620507,519.928332 108.210738,525.469652 106.270961,523.385302 C104.331185,521.300952 108.412273,516.573037 111.158191,514.717457 C108.160354,515.378348 96.0178563,520.131683 94.1032716,517.488117 C92.188687,514.844551 99.3935715,512.150148 101.786802,509.226974 C97.7812896,510.447081 87.8052957,513.904052 86.6212762,511.336743 C85.4624486,508.794853 94.2292312,504.295707 99.0156929,501.652141 C96.0178563,502.211357 86.67166,502.668897 89.0145071,497.788468 C90.1985265,495.348253 116.221763,487.112529 119.597478,484.494382" id="Fill-1644" fill="#393C3B"></path>
            <path d="M118.381126,484.962786 L118.005853,485.186609 C143.224239,460.9392 152.606079,388.719226 158.835621,287.825137 C161.362464,246.741323 230.137607,256.465156 233.915361,313.838255 C235.866784,343.258444 233.915361,358.528094 232.013975,368.45088 C235.041182,366.511087 237.993334,364.446948 240.795377,362.208726 C244.473059,367.356638 241.32076,381.357962 229.537169,398.890703 C233.865325,396.926041 236.392167,393.916876 240.920469,392.499335 C238.543736,403.168195 226.710108,412.842289 221.106022,417.71664 C224.058174,417.343603 227.060363,417.318734 230.037534,417.666902 C222.882317,422.964028 217.828633,428.037332 210.072978,432.464038 C189.107692,490.085829 143.549476,504.037414 135.518621,509.558363 C114.903591,511.07538 110.775581,495.755992 118.381126,484.962786" id="Fill-1645" fill="#868684"></path>
            <path d="M183.66272,507.356769 C196.65783,488.553515 203.454122,466.313373 211.04705,444.770571 C218.664873,423.227769 227.627017,401.411013 243.783772,385.247685 C259.915632,369.084357 305.448304,338.89953 328.177298,391.175069 C351.478873,444.795476 292.527879,507.605819 258.048518,526.110214 C244.704881,533.257942 229.842658,537.168023 214.955541,539.80795 C205.271446,541.551298 177.214955,544.988184 176.194267,523.295952 C175.895529,517.343664 180.277021,512.263049 183.66272,507.356769" id="Fill-1646" fill="#7D7E7C"></path>
            <path d="M165.380338,493.46203 C163.167946,488.888901 161.900171,477.431224 165.753213,476.760167 C169.631114,476.08911 174.105615,487.497079 175.721406,494.083379 C174.950798,484.24121 175.472823,477.381516 180.146191,476.660752 C184.844416,475.939987 186.659075,487.720765 188.274867,496.891877 C189.567501,491.100904 188.946042,482.377163 194.762893,481.85523 C200.604602,481.308442 206.47117,532.706436 193.843135,538.745949 C188.9709,541.082221 183.502066,537.900914 179.126999,534.694753 C154.517244,516.476799 152.180561,481.631544 155.18842,480.339138 C158.196278,479.046732 163.192804,489.187148 165.380338,493.46203" id="Fill-1647" fill="#393C3B"></path>
        </g>
    </g>
</svg>