<svg viewBox="0 0 720 720" xmlns="http://www.w3.org/2000/svg">
  <g fill="none" fill-rule="evenodd">
    <path d="M412.316 510.685c-4.713 66.823-1.368 134.784 57.516 155.502 29.791 10.505 74.129-.613 78.638-20.368 4.51-19.755-27.056-28.888-31.478-35.687-6.197-9.542-5.615-53.926-4.364-68.808 3.142-36.942-97.927-64.546-100.312-30.639M584.967 211.792c-21.896.147-30.944 31.82-41.993 63.755-6.641 19.202-19.256 31.79-34.569 39.576v.117c16.879 23.476 28.943 48.328 36.193 73.297 35.554-20.9 67.252-54.914 78.446-108.16 6.525-30.882-11.31-68.79-38.077-68.585" fill="#434544"/>
    <path d="M546.044 425.673c-2.971-27.752-17.332-61.59-34.314-90.391-126.45-32.266-194.875 1.601-224.557 34.566-56.394 62.61-102.826 39.692-125.08 24.287-.205 1.078.261-1.485-.758 3.844-2.156 11.066-3.641 20.997-4.166 28.626-9 133.258 130.82 206.614 250.715 178.89 102.36-23.675 146.665-99.331 138.16-179.822" fill="#FFFFFA"/>
    <path d="M482.018 281.928l-.438-.175-5.255 3.556c27.883 27.83 65.546 92.32 70.539 139.267 8.525 80.546-35.883 156.256-138.48 179.948-120.173 27.742-260.316-45.665-251.294-179.016 2.13-31.385 20.525-101.878 34.335-129.388a123.624 123.624 0 01-8.584-5.857v.029c-24.496 79.527-59.006 170.36-4.146 245.167 47.007 64.052 131.94 89.172 208.142 79.293 184.64-23.954 217.252-209.789 95.181-332.824" fill="#434544"/>
    <path d="M191.627 295.877c-10.055 20.178-22.499 63.349-29.348 97.517 22.266 15.514 68.72 38.596 125.142-24.46 29.697-33.2 98.155-67.338 224.667-34.813-11.57-19.797-24.364-37.218-35.643-48.685l-5.45 2.669c-19.904 11.848-43.919 20.236-71.255 24.753-59.249 9.766-151.254 18.711-208.521-17.275l.408.294M281.725 625.794c-6.293-11.226-3.817-30.055-3.205-58.736 1.573-76.394-95.753-93.702-102.017-56.689-15.993 94.258 7.953 151.328 47.542 175.243 36.21 21.898 95.346 6.198 96.54-19.5 1.166-25.67-33.966-31.605-38.86-40.318M195.42 68.732c-25.113-19.5-57.184-34.036-89.546-1.968-19.631 19.47-10.352 65.576 31.086 87.954 7.655-34.007 28.708-63.697 58.46-85.986M548.099 76.485c-3.476-12.964-10.426-25.726-22.01-32.513-14.132-8.295-32.521-6.004-47.03 1.682-5.358 2.843-11.063 6.7-16.68 10.819 26.381 18.33 48.101 44.579 62.407 79.848l.405 1.827c12.482-10.732 23.747-24.566 25.166-36.139 1.014-8.527 0-17.228-2.258-25.524" fill="#434544"/>
    <path d="M518.824 138.893C472.386 24.038 329.666 5.14 226.018 56.637c-102.6 51-119.458 215.921 9.17 251.09 16.189 4.44 34.094 7.507 52.757 9.201 10.335.468 20.293 1.782 29.493 1.636 12.374-.204 29.027-.321 51.3-3.476 95.118-13.057 180.162-66.132 150.086-176.195" fill="#FFFFFA"/>
    <path d="M233.984 307.05c-128.803-35.037-111.922-199.34-9.183-250.15C328.59 5.595 471.503 24.423 518.004 138.848c44.752 162.82-164.75 200.65-284.02 168.203zm289.618-169.745C478.792 27.101 362.292 3.878 253.489 39.41c-96.996 31.662-153.322 121.758-100.232 218.81 43.148 78.863 170.697 67.6 245.565 55.35 95.48-15.628 152.156-76.565 124.78-176.265z" fill="#434544"/>
    <path d="M406.426 203.508c-4.917-5.345-13.16-6.386-20.52-6.443-11.923-.087-36.77 3.467-39.332 12.886-2.59 9.42 22.728 21.468 31 22.075 8.273.635 40.657-15.603 28.852-28.518" fill="#434544"/>
    <path d="M397.57 259.11c-4.724 3.578-10.672 5.484-16.68 5.807 2.946-9.97 2.596-22.492.759-32.873l-4.374.616-1.254-.176c1.866 9.97 2.216 22.638-.875 32.052l-.029.205c-5.336-.674-10.439-2.61-14.58-6.04-2.77-2.318-6.794 1.67-3.994 4.017 12.072 10.029 31.259 10.791 43.885 1.29 2.857-2.17.058-7.097-2.858-4.897M309.038 144.235c-7.54-10.158-23.996-8.607-36.359-5.943-12.363 2.693-47.466 10.539-75.553 36.563-23.762 22.014-17.478 54.039-7.716 66.129 11.924 14.754 36.505 23.916 52.668 9.836 14.993-13.086 25.603-26.64 38.61-40.808 16.162-17.564 47.611-39.84 28.35-65.777M509.946 178.883c-13.463-23.88-40.918-39.36-66.76-48.436-10.296-3.613-35.786-7.784-44.527 8.019-9.24 16.742 8.946 28.785 16.309 34.014 21.383 15.215 25.871 38.684 45.348 54.134 16.133 12.806 36.841 12.248 47.078-2.526 7.363-10.663 13.2-26.318 2.552-45.205" fill="#434544"/>
    <path d="M270.453 166.775c-2.18-2.799-6.275-5.686-10.134-4.831-3.859.824-6.922 5.155-6.45 10.133.5 4.978 4.477 14.11 13.667 12.107 9.191-1.974 5.067-14.64 2.917-17.41M446.757 148.338c-4.095-1.031-7.66.648-10.37 4.33-2.71 3.653-2.533 11.724 1.238 14.051 3.77 2.298 10.045 4.007 14.228-2.65 4.153-6.629-1.002-14.7-5.096-15.731" fill="#FFFFFA"/>
    <path d="M299.48 427.483c-17.183-9.418-27.298-23.27-32.547-38.946-32.018 25.384-59.931 24.92-80.72 17.792 14.133 39.902 42.516 78.617 94.853 99.19 29.408 11.563 69.87.32 74.24-26.08 3.547-21.559-26.184-35.758-55.827-51.956" fill="#434544"/>
  </g>
</svg>
