<?xml version="1.0" encoding="UTF-8"?>
<svg width="720px" height="720px" viewBox="0 0 720 720" version="1.1" xmlns="http://www.w3.org/2000/svg" xmlns:xlink="http://www.w3.org/1999/xlink">
    <title>img_n</title>
    <g id="img_n" stroke="none" stroke-width="1" fill="none" fill-rule="evenodd">
        <g id="nightengale" transform="translate(24.000000, 58.000000)">
            <path d="M575.655914,151.669844 C503.714366,224.905444 436.056419,233.546027 407.792302,228.711868 C376.009513,223.268682 343.270563,219.310001 313.820807,205.073974 C226.542438,162.936859 246.277599,107.21081 184.356618,56.0144047 C169.669986,43.909976 150.20255,38.7713034 130.964592,38.5429179 C97.7666846,38.1622755 61.9680196,58.3743877 52.635889,90.8812499 C47.0136628,110.44627 53.6302964,131.229346 63.9568343,148.815025 C75.3160261,168.227789 93.2918515,186.574753 103.618389,212.077795 C113.906681,237.580837 112.759288,275.530885 116.124974,310.207409 C121.020518,361.061236 161.599988,446.363201 272.705887,458.20118 C403.240976,472.094628 449.480919,403.655122 468.03044,377.999823 C475.067785,368.293442 541.88431,278.880539 575.655914,151.669844" id="Fill-1061" fill="#C5B6A9"></path>
            <path d="M320.992736,422.598545 C312.173322,383.915751 266.061472,360.208177 228.23683,324.436167 C197.59697,295.443221 149.39431,220.835218 113.204301,263.233093 C114.382757,279.089208 115.029007,295.71132 116.549596,311.720635 C121.41548,362.889163 161.749093,448.719006 272.181842,460.630243 C288.756258,462.392033 303.924129,462.813331 317.87553,462.162235 C322.057148,452.012789 324.680164,438.761059 320.992736,422.598545" id="Fill-1062" fill="#D9CBBF"></path>
            <path d="M589.065645,68.1318771 C541.105634,116.088351 493.031251,164.274831 450.408602,217.099788 C459.558366,212.422978 466.039448,208.589526 467.488161,210.23791 C470.80495,214.071362 468.555633,221.661595 464.285744,224 C469.928098,221.201581 477.629149,217.904813 481.860914,218.518165 C538.894441,163.699814 623.87287,72.8086875 626.236559,38.5376344 C611.90193,45.3995119 600.350353,56.8615308 589.065645,68.1318771" id="Fill-1063" fill="#AE6A47"></path>
            <path d="M482.548436,219.112518 C485.573724,222.294173 480.250749,231.340806 476.651039,234.944126 C480.940055,231.647472 490.360572,227.277488 493.002912,229.46248 L486.492799,245.677419 C489.211729,243.799093 493.500745,241.499102 497.368518,240.540772 C553.929915,175.796013 681.336663,16.8666039 671.456608,0 C636.723239,34.2698725 519.426314,167.171045 467.268817,221.450843 C473.434278,218.767519 480.17416,216.659194 482.548436,219.112518" id="Fill-1064" fill="#A25941"></path>
            <path d="M495.402919,229.595101 L488.946237,245.668734 C493.693797,242.400808 503.150937,237.726915 506.948985,241.564828 C508.734068,243.350787 509.037912,246.542714 508.240322,250.494624 C555.943808,195.509879 621.953887,103.47598 616.256815,81.8924731 C597.570417,95.4961625 531.940143,176.244319 490.085651,229.557102 L495.402919,229.595101" id="Fill-1065" fill="#B16E48"></path>
            <path d="M501.338236,240.297426 L506.835602,241.59586 C512.60207,247.324247 504.567458,265.693272 486.537634,284.215054 C496.801948,276.806341 505.989854,267.679112 514.44734,258.20818 C530.631894,240.10648 590.680049,171.022142 590.103402,146.924731 C570.228308,159.259856 525.711175,208.944059 501.338236,240.297426" id="Fill-1066" fill="#A25941"></path>
            <path d="M506.373594,241.760694 C502.553596,237.911295 493.041801,242.599177 488.266804,245.876883 L494.7608,229.755143 C492.125002,227.58271 482.727806,231.927576 478.449409,235.205282 C482.040207,231.622673 487.350004,222.628038 484.332206,219.464671 C481.314407,216.339417 471.306012,220.569944 464.391816,223.961989 C468.670214,221.637104 470.924012,214.090758 467.600614,210.279472 C464.315416,206.506299 434.557631,231.355883 407.321045,228.954773 C375.576861,223.504634 342.877677,219.540897 313.463692,205.286687 C226.291337,163.095751 246.002527,107.298524 184.156758,56.0367274 C169.487965,43.9168379 150.044175,38.7716018 130.829585,38.5429247 C97.6720019,38.1617961 61.91682,58.3997247 52.5960247,90.9481071 C49.9602261,100.171419 50.074826,109.661521 51.984825,118.922946 C88.3894066,139.008424 99.7730008,131.157174 137.705582,133.939413 C177.624561,136.912216 189.581155,143.810644 203.065748,169.61305 C207.955346,178.988814 220.714139,326.904823 378.900259,329.953852 C462.978416,331.554592 519.285188,254.680954 506.373594,241.760694" id="Fill-1067" fill="#BA7B4B"></path>
            <path d="M311.42219,544.268636 C316.89699,530.849385 329.595484,521.352092 339.214403,510.54748 C348.795303,499.704418 356.703347,491.053038 363.698925,482.286307 L355.182569,476.903226 C332.066748,503.395673 307.772323,528.926856 278.725469,548.344397 C269.600802,554.458039 233.634409,560.879285 233.634409,571.068688 C243.709561,567.338982 264.544216,563.340122 282.413355,557.610986 C277.204691,564.147584 250.058808,581.411893 251.9978,595.984661 C256.674191,589.986371 280.436344,572.683612 292.146332,561.571395 C285.49293,581.25809 279.599916,603.982381 285.49293,604.55914 C288.724582,598.022542 294.959771,570.799534 304.046418,557.764788 C308.722809,550.997487 338.72015,545.268351 339.328461,543.730328 C337.35145,534.271486 310.813879,545.768208 311.42219,544.268636" id="Fill-1068" fill="#A25941"></path>
            <path d="M244.818005,508.272648 C254.167812,497.713785 262.382015,490.61055 269.763441,483.699294 L258.823789,476.903226 C236.376682,502.551664 212.718265,527.163413 184.630991,546.015783 C175.508305,552.120725 139.698925,558.532835 139.698925,568.707739 C149.730094,565.021736 170.511648,561.028566 188.302778,555.269186 C183.116853,561.796483 156.089476,579.036227 158.020003,593.626656 C162.67598,587.636901 186.334397,570.358761 197.993265,559.262356 C191.368909,578.882643 185.501621,601.5746 191.368909,602.150538 C194.586453,595.623241 200.794422,568.438968 209.841401,555.42277 C214.497378,548.703493 244.363764,542.944114 244.969419,541.408279 C243.001039,531.962896 216.579318,543.44326 217.184974,541.984217 C222.635873,528.545664 235.278931,519.100282 244.818005,508.272648" id="Fill-1069" fill="#A25941"></path>
            <path d="M8.30317206,171.010753 C21.0295292,163.614485 72.2453569,148.167073 69.7621653,119.814715 C67.2789736,91.4238348 6.32437872,76.2460779 0,74.6666667 C11.1355625,80.9072672 46.7538427,98.1652242 49.0042351,121.856393 C51.2158277,145.547562 17.0331427,163.537441 8.30317206,171.010753" id="Fill-1070" fill="#C27C30"></path>
            <path d="M0,74.8042565 C6.24819789,76.3814122 66.4685591,91.5374935 68.9218393,119.887828 C71.3751195,148.199696 20.7762163,163.625048 8.20315551,171.010753 C27.7910642,165.779212 95.2946009,160.047597 93.9146309,118.887681 C92.4963283,77.6892974 6.4015279,73.7656418 0,74.8042565" id="Fill-1071" fill="#D4B750"></path>
            <path d="M0,74.7278634 C6.27930969,76.3062714 66.7995276,91.4743875 69.2650235,119.847234 C71.7305193,148.181583 20.8796678,163.619183 8.24400168,171.010753 C27.9294449,165.775058 75.3902397,153.879251 74.6582956,119.693243 C73.9263515,85.7767195 6.43340318,73.688424 0,74.7278634" id="Fill-1072" fill="#FAD443"></path>
            <path d="M131.458968,119.587071 C142.703448,119.201695 151.998885,111.609781 151.736514,103.247114 C151.549106,97.1581678 145.064789,88.3330495 129.509925,87.5622968 C119.689745,87.0613076 111.218904,96.0020387 110.806606,101.975372 C110.43179,107.601867 119.764709,120.010985 131.458968,119.587071" id="Fill-1073" fill="#D9CBBF"></path>
            <path d="M129.889244,92.2213915 C121.719266,92.4911549 114.97518,99.3508539 115.167868,105.28565 C115.283481,109.601865 123.414922,114.72737 131.315137,114.920058 C138.483137,115.112746 144.649158,108.946725 144.957459,104.707585 C145.227223,100.738209 138.406061,91.9516281 129.889244,92.2213915" id="Fill-1074" fill="#17111C"></path>
            <path d="M341.620953,322.382691 C344.655241,328.158739 346.134457,334.727577 341.241667,337.483469 C333.542159,341.749439 312.264209,329.140289 301.075269,320.344086 C309.874706,327.441452 318.712072,339.937345 312.264209,344.014555 L311.012565,344.241067 C342.720882,358.926574 420.740033,386.674253 426.125895,379.350376 C429.729113,374.404871 383.15278,346.921455 341.620953,322.382691" id="Fill-1075" fill="#B2713F"></path>
            <path d="M476.108509,343.728714 C453.014573,330.169248 430.074341,316.343911 407.057257,302.594537 L404.674854,306.544633 C396.298019,312.165924 376.393428,302.974354 368.516129,301.075269 C377.58463,307.342249 393.223951,319.91419 385.807762,327.130712 C438.259047,357.098271 506.311228,394.852077 527.483871,392.497212 C519.452868,369.860121 497.012172,355.95882 476.108509,343.728714" id="Fill-1076" fill="#A25941"></path>
            <path d="M392.602151,281.806452 C397.773017,284.345684 412.825982,301.77405 404.475991,307.429612 L403.32691,307.891291 C437.761047,333.437505 492.687135,370.217898 537.11828,385.376344 C522.448341,362.253942 502.301115,342.671076 478.783251,328.743773 C472.27179,324.896451 446.685579,307.121827 419.414048,289.116362 C412.059928,290.155139 397.198476,284.42263 392.602151,281.806452" id="Fill-1077" fill="#B2713F"></path>
            <path d="M423.84453,285.784264 C420.510999,289.562682 407.934497,285.861375 399.827957,282.545621 C435.739173,310.536757 498.88685,357.497093 515.44086,356.4561 C484.416297,322.990114 448.732367,293.26399 411.040742,267.354839 C421.571668,276.99366 425.738581,283.663724 423.84453,285.784264" id="Fill-1078" fill="#A25941"></path>
            <path d="M372.947741,302.060001 L369.561502,301.075269 C378.692933,307.438155 394.596842,320.27755 386.378554,327.397923 C381.318219,331.791344 368.914693,329.178016 356.473118,324.443725 C411.185607,361.863556 473.127146,388.792198 500.787771,390.193548 C504.478391,387.163603 457.299333,350.577008 372.947741,302.060001" id="Fill-1079" fill="#B2713F"></path>
            <path d="M384.97644,327.206897 C375.323351,332.446465 349.658392,321.734459 334.795699,313.11828 C339.813773,318.590718 347.130202,331.553798 340.809727,336.482874 C345.827801,339.316122 350.922487,342.071746 356.055478,344.710937 C383.137756,358.489061 452.433145,387.675397 457.451219,382.319394 C460.553998,378.981595 423.742019,352.861376 384.97644,327.206897" id="Fill-1080" fill="#A25941"></path>
            <path d="M393.288162,280.368785 C398.764416,283.469886 419.061019,291.126926 423.464999,286.264706 C427.868979,281.402485 399.951576,253.03315 336.304491,219.035891 C291.154122,194.954499 256.152054,184.272928 210.312367,188.943722 C193.692129,190.628271 160.48995,225.123238 206.291342,276.616835 C241.523182,316.242019 303.906516,348.171877 310.416747,344.075361 C316.926978,339.940559 308.004132,327.268157 299.119581,320.108824 C310.416747,328.990991 331.900511,341.778248 339.674493,337.452021 C347.410179,333.087508 339.521311,319.419691 334.313126,313.791766 C349.975976,322.712218 377.778494,334.159493 386.050317,326.961875 C394.32214,319.764257 378.31463,306.785574 369.123715,300.35366 C376.974289,302.26792 396.811346,311.532939 405.159761,305.866729 C413.508175,300.238804 398.458052,282.895608 393.288162,280.368785" id="Fill-1081" fill="#C5864F"></path>
            <path d="M354.173208,436.005062 C352.848879,443.892994 349.519138,454.207982 353.681314,478.288929 L363.292157,484.129032 C380.546268,479.085306 403.097694,451.629235 416.492332,430.089113 C420.654508,423.376786 357.124569,418.370983 354.173208,436.005062" id="Fill-1082" fill="#C5B6A9"></path>
            <path d="M272.235978,460.293505 L262.591751,458.790538 C261.208516,462.836989 260.055819,469.927914 260.132666,478.213505 L271.582784,485.381505 C283.686097,483.878538 300.361772,472.856774 313.11828,461.912086 C300.477042,462.258925 286.95207,461.873548 272.235978,460.293505" id="Fill-1083" fill="#C5B6A9"></path>
            <path d="M221.044232,236.189056 C226.824877,238.655465 235.919759,241.314562 240.274511,234.955852 C244.552189,228.674218 235.649995,221.506218 231.256705,218.731508 L229.561049,221.621831 C232.79821,223.702863 239.696447,228.442992 237.345651,233.260196 C235.033393,238.000325 225.977049,234.647551 222.739888,233.260196 L221.044232,236.189056" id="Fill-1084" fill="#AE6A47"></path>
            <path d="M275.42275,222.64532 C281.396083,225.535642 291.492943,229.620632 296.502836,222.915083 C300.896126,217.018825 293.304212,209.735212 288.795309,206.99904 L287.099653,209.9279 C290.298277,211.854782 295.809158,216.209535 293.882277,220.6799 C291.454406,226.460546 280.432642,221.33504 277.118406,219.71646 L275.42275,222.64532" id="Fill-1085" fill="#AE6A47"></path>
            <path d="M257.847119,248.494876 C262.24041,250.113457 275.882732,254.930661 276.807636,246.298231 C277.539851,239.708295 270.795765,233.542274 265.82441,230.420726 L264.128754,233.349586 C268.175205,235.89307 272.260195,239.785371 273.416324,244.641113 C274.996367,251.231048 260.853055,245.98993 258.733485,245.219177 L257.847119,248.494876" id="Fill-1086" fill="#AE6A47"></path>
            <path d="M227.746572,261.315319 C234.452121,264.321255 247.16954,269.716524 252.564809,261.623621 C257.420551,254.378545 248.556895,244.320223 243.662615,239.926932 L241.273282,242.316266 C245.512422,246.092954 251.485755,252.336051 250.175476,258.656223 C248.47982,266.787664 233.295992,260.120653 229.442228,258.386459 L227.746572,261.315319" id="Fill-1087" fill="#AE6A47"></path>
            <path d="M242.218182,212.072063 C246.727085,213.844794 256.168806,216.079977 258.365451,209.528579 C260.562096,202.900106 253.355558,197.890214 248.307128,195.539418 L246.572935,198.429741 C250.002784,200.048321 256.168806,203.285483 255.320978,208.025612 C254.434612,212.881353 245.686569,209.83688 243.104548,208.834902 L242.218182,212.072063" id="Fill-1088" fill="#AE6A47"></path>
            <path d="M272.35124,281.367737 C278.170423,283.641457 286.571627,284.990274 290.232702,278.515952 C294.086466,271.656253 286.224788,264.449715 281.330509,261.096941 L279.634853,264.025801 C283.488616,266.684898 288.883885,271.116726 287.457993,276.511995 C285.916487,282.215565 276.74453,279.479393 273.276143,278.092038 L272.35124,281.367737" id="Fill-1089" fill="#AE6A47"></path>
            <path d="M294.134473,254.434857 C300.069268,256.323201 310.050516,258.057395 312.478387,250.195717 C314.520881,243.374556 307.314344,237.516835 301.919075,235.32019 L301.032709,238.557352 C305.117698,240.253007 309.356838,243.759932 309.318301,248.538599 C309.279763,255.128534 298.296537,252.199674 295.020838,251.159158 L294.134473,254.434857" id="Fill-1090" fill="#AE6A47"></path>
            <path d="M303.408529,286.309408 C308.842335,289.353881 317.551841,292.167128 321.675368,285.577193 C325.991583,278.717494 317.166465,271.742182 312.002422,269.198698 L310.268228,272.08902 C314.237604,274.05444 320.133862,277.715515 319.093346,282.995171 C317.860142,289.276805 308.11012,285.076203 305.104185,283.380547 L303.408529,286.309408" id="Fill-1091" fill="#AE6A47"></path>
            <path d="M253.478806,304.174691 C258.064785,305.908885 269.163624,309.300196 271.244656,302.016583 C273.171538,295.38811 266.77429,289.414777 261.995624,286.023465 L260.299968,288.952325 C263.691279,291.341659 268.932398,295.734949 268.161645,300.513616 C267.313817,305.870347 256.985731,301.939508 254.365172,300.93753 L253.478806,304.174691" id="Fill-1092" fill="#AE6A47"></path>
            <path d="M305.717923,314.306144 C310.49659,316.849627 319.630009,320.780466 324.023299,315.423735 C328.879041,309.527477 318.974869,301.473111 315.198181,298.505713 L312.808848,300.895047 C315.159644,302.744853 324.485751,309.604552 321.287127,313.496853 C318.396805,317.003778 310.188289,312.880251 307.413579,311.415821 L305.717923,314.306144" id="Fill-1093" fill="#AE6A47"></path>
            <path d="M331.839931,255.450129 C337.620576,257.916537 346.715458,260.614172 351.07021,254.216924 C355.347888,247.93529 346.445694,240.805828 342.052404,237.99258 L340.356748,240.921441 C343.593909,242.963935 350.530683,247.742602 348.14135,252.521269 C345.829092,257.261398 336.772748,253.908623 333.535587,252.559806 L331.839931,255.450129" id="Fill-1094" fill="#AE6A47"></path>
            <path d="M195.938879,215.413969 C201.912212,218.342829 212.009072,222.38928 217.018965,215.683732 C221.412255,209.787474 213.820341,202.503861 209.311438,199.767689 L207.615782,202.696549 C210.814406,204.623431 216.325287,208.978184 214.398406,213.487087 C211.970535,219.229194 200.948771,214.103689 197.634535,212.523646 L195.938879,215.413969" id="Fill-1095" fill="#AE6A47"></path>
            <path d="M375.852066,277.370871 C380.283894,278.989451 393.887679,283.845193 394.85112,275.174225 C395.544797,268.622828 388.800711,262.456806 383.867894,259.335258 L382.172238,262.22558 C386.21869,264.807602 390.303679,268.699903 391.459808,273.517107 C393.039851,280.107043 378.858001,274.904462 376.776969,274.133709 L375.852066,277.370871" id="Fill-1096" fill="#AE6A47"></path>
            <path d="M338.542271,285.395986 C345.24782,288.440459 357.965239,293.79719 363.360508,285.704287 C368.21625,278.459212 359.352594,268.400889 354.458314,264.007599 L352.068981,266.396932 C356.308121,270.173621 362.281454,276.416717 360.971175,282.736889 C359.314056,290.86833 344.091691,284.201319 340.276465,282.505664 L338.542271,285.395986" id="Fill-1097" fill="#AE6A47"></path>
            <path d="M275.951447,325.276364 C280.46035,327.049095 289.902071,329.284278 292.060178,322.73288 C294.295361,316.104407 287.088824,311.094515 282.001856,308.743719 L280.3062,311.634042 C283.736049,313.252622 289.902071,316.489784 289.015705,321.229913 C288.167877,326.085655 279.419834,323.041181 276.837813,322.039203 L275.951447,325.276364" id="Fill-1098" fill="#AE6A47"></path>
            <path d="M223.931908,288.681206 C229.365714,291.764217 238.07522,294.577465 242.198747,287.987529 C246.476424,281.12783 237.689843,274.152518 232.487263,271.609034 L230.791607,274.499357 C234.760983,276.464776 240.657241,280.125852 239.616725,285.405508 C238.383521,291.687142 228.633499,287.48654 225.627564,285.790884 L223.931908,288.681206" id="Fill-1099" fill="#AE6A47"></path>
            <path d="M352.231495,316.228252 C356.817473,317.962446 367.877774,321.31522 369.997344,314.031607 C371.924226,307.441672 365.526978,301.468338 360.748312,298.077027 L359.052656,300.967349 C362.443968,303.39522 367.685086,307.788511 366.914333,312.567177 C366.066505,317.885371 355.738419,313.954532 353.11786,312.991091 L352.231495,316.228252" id="Fill-1100" fill="#AE6A47"></path>
            <path d="M315.352332,234.822273 C320.130998,237.365756 329.264418,241.296595 333.657708,235.939864 C338.51345,230.043606 328.609278,221.98924 324.83259,219.021842 L322.443256,221.411176 C324.794052,223.260982 334.12016,230.120681 330.882998,234.012982 C327.992676,237.519907 319.822697,233.357842 317.047988,231.93195 L315.352332,234.822273" id="Fill-1101" fill="#AE6A47"></path>
            <path d="M199.593713,253.446588 C204.487992,255.257857 217.243949,260.075061 219.286444,251.750932 C220.712336,245.700524 214.777541,238.725212 210.88524,234.871448 L208.495906,237.260782 C211.771605,240.497943 215.509756,244.968309 216.049283,249.746975 C216.781498,256.568137 203.100637,251.172868 200.518616,250.209427 L199.593713,253.446588" id="Fill-1102" fill="#AE6A47"></path>
            <path d="M117.693935,291.729892 C119.58228,298.473978 121.933075,304.986839 124.669247,311.422624 L127.983484,309.457204 C125.401462,303.368258 123.204817,297.125161 121.393548,290.727914 L117.693935,291.729892" id="Fill-1103" fill="#C5B6A9"></path>
            <path d="M127.810065,283.636989 C130.970151,289.957161 134.245849,296.123183 139.217204,301.210151 L141.953376,298.473978 C137.213247,293.618237 134.130237,287.721978 131.124301,281.67157 L127.810065,283.636989" id="Fill-1104" fill="#C5B6A9"></path>
            <path d="M142.627785,275.968 C145.980559,280.515441 149.333333,285.024344 152.724645,289.571785 L156.038882,287.606366 C152.686108,283.097462 149.333333,278.550022 145.942022,274.041118 L142.627785,275.968" id="Fill-1105" fill="#C5B6A9"></path>
            <path d="M156.193032,268.106323 C159.699957,273.617204 163.862022,278.550022 168.640688,282.981849 L171.37686,280.245677 C166.790882,276.045075 162.860043,271.382022 159.507269,266.179441 L156.193032,268.106323" id="Fill-1106" fill="#C5B6A9"></path>
            <path d="M125.960258,336.587699 C129.004731,342.59957 131.586753,348.842667 135.671742,354.237935 L138.985978,352.311054 C134.900989,346.877247 132.318968,340.634151 129.274495,334.62228 L125.960258,336.587699" id="Fill-1107" fill="#C5B6A9"></path>
            <path d="M137.386667,330.691441 C140.58529,336.202323 144.400516,341.173677 148.909419,345.682581 L151.645591,342.984946 C147.367914,338.707269 143.745376,333.96714 140.700903,328.726022 L137.386667,330.691441" id="Fill-1108" fill="#C5B6A9"></path>
            <path d="M151.279484,324.660301 C155.403011,329.169204 159.372387,333.947871 163.958366,337.994323 L166.656,335.258151 C162.108559,331.211699 158.139183,326.47157 154.015656,321.962667 L151.279484,324.660301" id="Fill-1109" fill="#C5B6A9"></path>
            <path d="M162.571011,316.740817 C166.925763,322.020473 171.627355,326.914753 176.714323,331.500731 L179.450495,328.803097 C174.363527,324.178581 169.661935,319.284301 165.307183,314.004645 L162.571011,316.740817" id="Fill-1110" fill="#C5B6A9"></path>
            <path d="M174.421333,307.260559 C178.853161,312.501677 183.708903,317.280344 188.950022,321.712172 L191.686194,318.976 C186.406538,314.544172 181.589333,309.765505 177.157505,304.524387 L174.421333,307.260559" id="Fill-1111" fill="#C5B6A9"></path>
            <path d="M187.292903,298.12714 C191.609118,302.558968 195.539957,307.41471 200.164473,311.538237 L202.900645,308.802065 C198.276129,304.717075 194.306753,299.822796 190.029075,295.429505 L187.292903,298.12714" id="Fill-1112" fill="#C5B6A9"></path>
            <path d="M151.028989,385.164387 C154.805677,391.253333 159.16043,396.84129 164.170323,401.966796 L166.906495,399.269161 C162.127828,394.336344 157.965763,389.056688 154.343226,383.237505 L151.028989,385.164387" id="Fill-1113" fill="#C5B6A9"></path>
            <path d="M160.489978,380.193032 C164.844731,385.048774 169.58486,389.364989 174.787441,393.25729 L176.714323,389.904516 C171.781505,386.243441 167.349677,382.081376 163.226151,377.495398 L160.489978,380.193032" id="Fill-1114" fill="#C5B6A9"></path>
            <path d="M173.303742,371.541333 C176.92628,375.973161 181.165419,379.634237 186.021161,382.67871 L187.986581,379.364473 C183.362065,376.474151 179.469763,373.005763 176.001376,368.805161 L173.303742,371.541333" id="Fill-1115" fill="#C5B6A9"></path>
            <path d="M184.190624,360.885677 C188.930753,365.278968 193.709419,369.672258 198.449548,374.065548 L201.18572,371.329376 C196.445591,366.936086 191.666925,362.542796 186.926796,358.149505 L184.190624,360.885677" id="Fill-1116" fill="#C5B6A9"></path>
            <path d="M197.042925,352.407398 C201.204989,356.415312 205.675355,359.999312 210.454022,363.236473 L212.419441,359.922237 C207.910538,356.839226 203.709935,353.447914 199.740559,349.709763 L197.042925,352.407398" id="Fill-1117" fill="#C5B6A9"></path>
            <path d="M208.392258,341.597591 C212.901161,346.491871 217.833978,350.885161 223.19071,354.816 L225.156129,351.501763 C220.030624,347.763613 215.36757,343.524473 211.12843,338.861419 L208.392258,341.597591" id="Fill-1118" fill="#C5B6A9"></path>
            <path d="M219.10572,331.076817 C224.65514,336.048172 230.243097,341.058065 235.792516,346.029419 L238.528688,343.293247 C232.940731,338.321892 227.391312,333.350538 221.841892,328.379183 L219.10572,331.076817" id="Fill-1119" fill="#C5B6A9"></path>
            <path d="M195.385806,427.170409 C200.781075,431.640774 206.523183,435.186237 213.036043,437.845333 L214.076559,434.14572 C208.218839,431.756387 202.97772,428.480688 198.121978,424.434237 L195.385806,427.170409" id="Fill-1120" fill="#C5B6A9"></path>
            <path d="M205.405591,419.250925 C209.143742,421.871484 212.843355,424.453505 216.581505,427.074065 L218.508387,423.759828 C214.808774,421.139269 211.070624,418.51871 207.371011,415.936688 L205.405591,419.250925" id="Fill-1121" fill="#C5B6A9"></path>
            <path d="M213.479226,410.69557 C217.795441,414.703484 222.497032,417.979183 227.738151,420.599742 L229.70357,417.285505 C224.732215,414.819097 220.261849,411.774624 216.215398,407.959398 L213.479226,410.69557" id="Fill-1122" fill="#C5B6A9"></path>
            <path d="M223.595355,400.328946 C227.603269,404.645161 232.035097,408.421849 236.929376,411.697548 L238.856258,408.344774 C234.231742,405.261763 230.108215,401.677763 226.331527,397.592774 L223.595355,400.328946" id="Fill-1123" fill="#C5B6A9"></path>
            <path d="M235.850323,388.998882 C239.896774,392.313118 243.943226,395.627355 247.989677,398.941591 L250.687312,396.243957 C246.64086,392.92972 242.594409,389.615484 238.547957,386.26271 L235.850323,388.998882" id="Fill-1124" fill="#C5B6A9"></path>
            <path d="M244.52129,375.645591 C248.991656,380.38572 253.924473,384.547785 259.319742,388.20886 L261.285161,384.894624 C256.121118,381.426237 251.496602,377.45686 247.257462,372.909419 L244.52129,375.645591" id="Fill-1125" fill="#C5B6A9"></path>
            <path d="M255.716473,366.126796 C258.915097,370.443011 262.460559,374.258237 266.622624,377.649548 L269.358796,374.913376 C265.466495,371.75329 262.036645,368.246366 259.069247,364.199914 L255.716473,366.126796" id="Fill-1126" fill="#C5B6A9"></path>
            <path d="M244.887398,444.358194 C249.666065,446.901677 254.675957,448.867097 259.917075,450.138839 L260.919054,446.400688 C255.986237,445.206022 251.323183,443.43329 246.81428,441.043957 L244.887398,444.358194" id="Fill-1127" fill="#C5B6A9"></path>
            <path d="M255.042065,428.885333 C259.396817,431.505892 263.75157,434.126452 268.106323,436.747011 L270.033204,433.394237 C265.678452,430.773677 261.362237,428.153118 257.007484,425.532559 L255.042065,428.885333" id="Fill-1128" fill="#C5B6A9"></path>
            <path d="M265.004043,415.243011 C268.857806,418.942624 272.788645,422.873462 277.374624,425.68671 L279.340043,422.372473 C275.023828,419.713376 271.362753,416.013763 267.701677,412.506839 L265.004043,415.243011" id="Fill-1129" fill="#C5B6A9"></path>
            <path d="M274.465032,405.512258 C278.24172,409.288946 282.211097,412.795871 286.411699,416.110108 L289.147871,413.373935 C284.947269,410.059699 280.977892,406.552774 277.201204,402.814624 L274.465032,405.512258" id="Fill-1130" fill="#C5B6A9"></path>
            <path d="M283.94529,390.501849 C287.721978,394.740989 291.806968,398.63329 296.200258,402.21729 L298.93643,399.519656 C294.54314,395.935656 290.458151,392.043355 286.681462,387.804215 L283.94529,390.501849" id="Fill-1131" fill="#C5B6A9"></path>
            <path d="M292.943828,452.489634 C296.33514,454.069677 299.764989,455.379957 303.348989,456.459011 L304.389505,452.759398 L294.87071,449.175398 L292.943828,452.489634" id="Fill-1132" fill="#C5B6A9"></path>
            <path d="M299.302538,438.404129 C302.655312,441.602753 306.277849,444.069161 310.555527,445.88043 L312.482409,442.527656 C308.55157,440.870538 305.12172,438.673892 302.03871,435.667957 L299.302538,438.404129" id="Fill-1133" fill="#C5B6A9"></path>
            <path d="M307.511054,426.264774 C309.938925,430.465376 312.79071,434.357677 316.027871,437.980215 L318.725505,435.282581 C315.71957,431.852731 313.099011,428.230194 310.82529,424.299355 L307.511054,426.264774" id="Fill-1134" fill="#C5B6A9"></path>
        </g>
    </g>
</svg>