<svg viewBox="0 0 720 720" xmlns="http://www.w3.org/2000/svg">
  <g fill="none" fill-rule="evenodd">
    <path d="M599.656 209.67c-71.942 73.235-139.6 81.876-167.864 77.042-31.782-5.443-64.521-9.402-93.971-23.638-87.279-42.137-67.543-97.863-129.464-149.06-14.687-12.104-34.154-17.243-53.392-17.471-33.198-.38-68.997 19.831-78.33 52.338-5.621 19.565.995 40.348 11.322 57.934 11.359 19.413 29.335 37.76 39.661 63.263 10.289 25.503 9.141 63.453 12.507 98.13 4.896 50.853 45.475 136.155 156.58 147.993C427.242 530.095 473.482 461.655 492.03 436c7.038-9.707 73.854-99.12 107.626-226.33" fill="#C5B6A9"/>
    <path d="M344.993 480.599c-8.82-38.683-54.932-62.39-92.756-98.163-30.64-28.993-78.843-103.6-115.033-61.203 1.179 15.856 1.825 32.478 3.346 48.488 4.865 51.168 45.2 136.998 155.632 148.91 16.574 1.761 31.742 2.182 45.694 1.531 4.181-10.15 6.804-23.4 3.117-39.563" fill="#D9CBBF"/>
    <path d="M613.066 126.132c-47.96 47.956-96.035 96.143-138.657 148.968 9.15-4.677 15.63-8.51 17.08-6.862 3.316 3.833 1.067 11.424-3.203 13.762 5.642-2.798 13.343-6.095 17.575-5.482 57.033-54.818 142.012-145.71 144.376-179.98-14.335 6.862-25.887 18.324-37.171 29.594" fill="#AE6A47"/>
    <path d="M506.548 277.113c3.026 3.181-2.297 12.228-5.897 15.831 4.29-3.297 13.71-7.667 16.352-5.482l-6.51 16.215c2.719-1.878 7.008-4.178 10.876-5.136C577.929 233.796 705.337 74.867 695.457 58c-34.734 34.27-152.03 167.171-204.188 221.45 6.165-2.682 12.905-4.79 15.28-2.337" fill="#A25941"/>
    <path d="M519.403 287.595l-6.457 16.074c4.748-3.268 14.205-7.942 18.003-4.104 1.785 1.786 2.089 4.978 1.291 8.93 47.704-54.985 113.714-147.019 108.017-168.603-18.687 13.604-84.317 94.352-126.171 147.665l5.317.038" fill="#B16E48"/>
    <path d="M525.338 298.297l5.498 1.299c5.766 5.728-2.269 24.097-20.298 42.62 10.264-7.41 19.452-16.537 27.91-26.008 16.184-18.102 76.232-87.186 75.655-111.283-19.875 12.335-64.392 62.02-88.765 93.372" fill="#A25941"/>
    <path d="M530.374 299.76c-3.82-3.849-13.332.84-18.107 4.117l6.494-16.122c-2.636-2.172-12.033 2.173-16.312 5.45 3.591-3.582 8.901-12.577 5.883-15.74-3.018-3.126-13.026 1.105-19.94 4.497 4.278-2.325 6.532-9.871 3.209-13.683-3.286-3.773-33.043 21.077-60.28 18.676-31.744-5.45-64.443-9.414-93.857-23.668-87.173-42.191-67.461-97.988-129.307-149.25-14.669-12.12-34.113-17.265-53.327-17.494-33.158-.381-68.913 19.857-78.234 52.405-2.636 9.223-2.521 18.714-.611 27.975 36.404 20.085 47.788 12.234 85.72 15.016 39.92 2.973 51.876 9.872 65.36 35.674 4.89 9.376 17.65 157.292 175.835 160.34 84.078 1.602 140.385-75.272 127.474-88.192" fill="#BA7B4B"/>
    <path d="M335.422 602.269c5.475-13.42 18.173-22.917 27.792-33.722 9.581-10.843 17.49-19.494 24.485-28.26l-8.516-5.384c-23.116 26.493-47.41 52.024-76.458 71.441-9.124 6.114-45.09 12.535-45.09 22.725 10.075-3.73 30.91-7.729 48.778-13.458-5.208 6.537-32.354 23.8-30.415 38.374 4.676-5.999 28.438-23.301 40.148-34.414-6.653 19.687-12.546 42.411-6.653 42.988 3.232-6.536 9.467-33.76 18.553-46.794 4.677-6.768 34.674-12.497 35.282-14.035-1.977-9.459-28.514 2.038-27.906.539M268.818 566.273c9.35-10.56 17.564-17.662 24.945-24.574l-10.94-6.796c-22.446 25.649-46.105 50.26-74.192 69.113-9.123 6.105-44.932 12.517-44.932 22.692 10.031-3.686 30.813-7.68 48.604-13.439-5.186 6.527-32.214 23.767-30.283 38.358 4.656-5.99 28.314-23.268 39.973-34.365-6.624 19.62-12.491 42.313-6.624 42.889 3.217-6.528 9.425-33.712 18.472-46.728 4.656-6.72 34.523-12.479 35.128-14.015-1.968-9.445-28.39 2.035-27.784.576 5.45-13.438 18.094-22.884 27.633-33.711" fill="#A25941"/>
    <path d="M32.303 229.01c12.727-7.396 63.942-22.843 61.46-51.195-2.484-28.391-63.439-43.569-69.763-45.148 11.136 6.24 46.754 23.498 49.004 47.19 2.212 23.69-31.97 41.68-40.7 49.154" fill="#C27C30"/>
    <path d="M24 132.804c6.248 1.577 66.469 16.733 68.922 45.084 2.453 28.312-48.146 43.737-60.719 51.123 19.588-5.232 87.092-10.963 85.712-52.123-1.419-41.199-87.513-45.122-93.915-44.084" fill="#D4B750"/>
    <path d="M24 132.728c6.28 1.578 66.8 16.746 69.265 45.12 2.466 28.334-48.385 43.771-61.021 51.163 19.685-5.236 67.146-17.132 66.414-51.318-.732-33.916-68.225-46.005-74.658-44.965" fill="#FAD443"/>
    <path d="M155.459 177.587c11.244-.385 20.54-7.977 20.278-16.34-.188-6.089-6.672-14.914-22.227-15.685-9.82-.5-18.291 8.44-18.703 14.413-.375 5.627 8.958 18.036 20.652 17.612" fill="#D9CBBF"/>
    <path d="M153.89 150.221c-8.17.27-14.915 7.13-14.722 13.065.115 4.316 8.247 9.441 16.147 9.634 7.168.193 13.334-5.973 13.642-10.212.27-3.97-6.55-12.756-15.068-12.487" fill="#17111C"/>
    <path d="M365.621 380.383c3.034 5.776 4.513 12.345-.38 15.1-7.699 4.266-28.977-8.343-40.166-17.139 8.8 7.097 17.637 19.593 11.19 23.67l-1.252.227c31.708 14.686 109.727 42.433 115.113 35.11 3.603-4.946-42.973-32.43-84.505-56.968" fill="#B2713F"/>
    <path d="M500.109 401.729c-23.094-13.56-46.035-27.385-69.052-41.134l-2.382 3.95c-8.377 5.62-28.282-3.57-36.159-5.47 9.069 6.267 24.708 18.84 17.292 26.056 52.451 29.967 120.503 67.721 141.676 65.366-8.031-22.637-30.472-36.538-51.375-48.768" fill="#A25941"/>
    <path d="M416.602 339.806c5.171 2.54 20.224 19.968 11.874 25.624l-1.15.461c34.435 25.547 89.361 62.327 133.792 77.485-14.67-23.122-34.817-42.705-58.335-56.632-6.511-3.848-32.097-21.622-59.369-39.628-7.354 1.04-22.216-4.693-26.812-7.31" fill="#B2713F"/>
    <path d="M447.845 343.784c-3.334 3.779-15.91.077-24.017-3.238 35.911 27.99 99.059 74.951 115.613 73.91-31.025-33.466-66.709-63.192-104.4-89.101 10.53 9.639 14.698 16.309 12.804 18.43" fill="#A25941"/>
    <path d="M396.948 360.06l-3.386-.985c9.13 6.363 25.035 19.203 16.817 26.323-5.06 4.393-17.464 1.78-29.906-2.954 54.713 37.42 116.654 64.348 144.315 65.75 3.69-3.03-43.489-39.617-127.84-88.134" fill="#B2713F"/>
    <path d="M408.976 385.207c-9.653 5.24-35.318-5.473-50.18-14.089 5.018 5.473 12.334 18.436 6.014 23.365a443.99 443.99 0 0015.245 8.228c27.083 13.778 96.378 42.964 101.396 37.608 3.103-3.337-33.709-29.458-72.475-55.112" fill="#A25941"/>
    <path d="M417.288 338.369c5.476 3.1 25.773 10.758 30.177 5.896 4.404-4.863-23.513-33.232-87.16-67.23-45.15-24.08-80.153-34.762-125.993-30.091-16.62 1.684-49.822 36.18-4.02 87.673 35.231 39.625 97.615 71.555 104.125 67.458 6.51-4.134-2.413-16.807-11.297-23.966 11.297 8.882 32.78 21.67 40.554 17.343 7.736-4.364-.153-18.032-5.36-23.66 15.662 8.92 43.464 20.367 51.736 13.17 8.272-7.198-7.735-20.176-16.926-26.608 7.85 1.914 27.687 11.179 36.036 5.513 8.348-5.628-6.702-22.971-11.872-25.498" fill="#C5864F"/>
    <path d="M378.173 494.005c-1.324 7.888-4.654 18.203-.492 42.284l9.611 5.84c17.254-5.044 39.806-32.5 53.2-54.04 4.163-6.712-59.367-11.718-62.319 5.916M296.236 518.294l-9.644-1.503c-1.383 4.046-2.536 11.137-2.46 19.423l11.45 7.168c12.104-1.503 28.78-12.525 41.536-23.47a302.593 302.593 0 01-40.882-1.618" fill="#C5B6A9"/>
    <path d="M245.044 294.19c5.78 2.465 14.876 5.125 19.23-1.234 4.278-6.282-4.624-13.45-9.017-16.224l-1.696 2.89c3.237 2.08 10.135 6.821 7.785 11.638-2.313 4.74-11.369 1.388-14.606 0l-1.696 2.93M299.423 280.645c5.973 2.89 16.07 6.976 21.08.27 4.393-5.896-3.199-13.18-7.708-15.916l-1.695 2.929c3.198 1.927 8.71 6.282 6.782 10.752-2.428 5.78-13.45.655-16.764-.964l-1.695 2.93M281.847 306.495c4.393 1.618 18.036 6.436 18.96-2.197.733-6.59-6.011-12.756-10.983-15.877l-1.695 2.929c4.046 2.543 8.131 6.435 9.287 11.291 1.58 6.59-12.563 1.349-14.683.578l-.886 3.276M251.747 319.315c6.705 3.006 19.423 8.402 24.818.309 4.856-7.245-4.008-17.304-8.902-21.697l-2.39 2.39c4.24 3.776 10.213 10.02 8.902 16.34-1.695 8.13-16.879 1.464-20.733-.27l-1.695 2.928M266.218 270.072c4.51 1.773 13.95 4.008 16.147-2.543 2.197-6.629-5.01-11.639-10.058-13.99l-1.734 2.89c3.43 1.62 9.596 4.856 8.748 9.597-.886 4.855-9.634 1.81-12.216.809l-.887 3.237M296.351 339.368c5.82 2.273 14.22 3.622 17.882-2.852 3.853-6.86-4.008-14.066-8.902-17.42l-1.696 2.93c3.854 2.659 9.249 7.09 7.823 12.486-1.542 5.704-10.713 2.967-14.182 1.58l-.925 3.276M318.134 312.435c5.935 1.888 15.917 3.622 18.344-4.24 2.043-6.82-5.164-12.678-10.559-14.875l-.886 3.237c4.085 1.696 8.324 5.203 8.285 9.982-.038 6.59-11.021 3.66-14.297 2.62l-.887 3.276M327.409 344.31c5.433 3.044 14.143 5.857 18.266-.733 4.317-6.86-4.509-13.835-9.673-16.378l-1.734 2.89c3.97 1.965 9.866 5.627 8.825 10.906-1.233 6.282-10.983 2.081-13.989.386l-1.695 2.928M277.479 362.175c4.586 1.734 15.685 5.125 17.766-2.158 1.927-6.629-4.47-12.602-9.25-15.994l-1.695 2.93c3.391 2.389 8.632 6.782 7.862 11.56-.848 5.357-11.176 1.427-13.797.425l-.886 3.237M329.718 372.306c4.779 2.544 13.912 6.474 18.305 1.118 4.856-5.897-5.048-13.95-8.825-16.918l-2.39 2.389c2.352 1.85 11.678 8.71 8.48 12.602-2.891 3.507-11.1-.617-13.874-2.081l-1.696 2.89M355.84 313.45c5.78 2.467 14.875 5.164 19.23-1.233 4.278-6.282-4.624-13.411-9.018-16.224l-1.695 2.928c3.237 2.043 10.174 6.822 7.784 11.6-2.312 4.74-11.368 1.388-14.605.039l-1.696 2.89M219.939 273.414c5.973 2.929 16.07 6.975 21.08.27 4.393-5.897-3.199-13.18-7.708-15.916l-1.695 2.929c3.198 1.926 8.71 6.281 6.782 10.79-2.427 5.742-13.45.617-16.763-.963l-1.696 2.89M399.852 335.37c4.432 1.62 18.036 6.475 19-2.196.693-6.551-6.051-12.717-10.984-15.839l-1.696 2.89c4.047 2.583 8.132 6.475 9.288 11.292 1.58 6.59-12.602 1.387-14.683.617l-.925 3.237M362.542 343.396c6.706 3.044 19.423 8.401 24.819.308 4.855-7.245-4.008-17.303-8.903-21.696l-2.389 2.389c4.24 3.777 10.212 10.02 8.902 16.34-1.657 8.131-16.88 1.464-20.695-.231l-1.734 2.89M299.951 383.276c4.51 1.773 13.951 4.008 16.11-2.543 2.234-6.629-4.972-11.638-10.06-13.99l-1.695 2.891c3.43 1.619 9.596 4.856 8.71 9.596-.848 4.856-9.596 1.811-12.178.81l-.887 3.236M247.932 346.681c5.434 3.083 14.143 5.896 18.267-.693 4.277-6.86-4.51-13.835-9.712-16.379l-1.695 2.89c3.969 1.966 9.865 5.627 8.825 10.907-1.233 6.281-10.984 2.08-13.99.385l-1.695 2.89M376.231 374.228c4.586 1.734 15.647 5.087 17.766-2.196 1.927-6.59-4.47-12.564-9.249-15.955l-1.695 2.89c3.391 2.428 8.632 6.822 7.861 11.6-.847 5.318-11.176 1.388-13.796.424l-.887 3.237M339.352 292.822c4.779 2.544 13.912 6.475 18.306 1.118 4.855-5.896-5.049-13.95-8.825-16.918l-2.39 2.39c2.351 1.849 11.677 8.709 8.44 12.601-2.89 3.507-11.06-.655-13.835-2.081l-1.696 2.89M223.594 311.447c4.894 1.81 17.65 6.628 19.692-1.696 1.426-6.05-4.508-13.026-8.4-16.88l-2.39 2.39c3.276 3.237 7.014 7.707 7.553 12.486.732 6.821-12.948 1.426-15.53.462l-.925 3.238" fill="#AE6A47"/>
    <path d="M141.694 349.73c1.888 6.744 4.24 13.257 6.975 19.693l3.314-1.966a158.59 158.59 0 01-6.59-18.73l-3.7 1.003M151.81 341.637c3.16 6.32 6.436 12.486 11.407 17.573l2.736-2.736c-4.74-4.856-7.823-10.752-10.829-16.802l-3.314 1.965M166.628 333.968c3.353 4.547 6.705 9.056 10.097 13.604l3.314-1.966c-3.353-4.509-6.706-9.056-10.097-13.565l-3.314 1.927M180.193 326.106c3.507 5.511 7.669 10.444 12.448 14.876l2.736-2.736a71.373 71.373 0 01-11.87-14.067l-3.314 1.927M149.96 394.588c3.045 6.012 5.627 12.255 9.712 17.65l3.314-1.927c-4.085-5.434-6.667-11.677-9.712-17.689l-3.314 1.966M161.387 388.691a72.556 72.556 0 0011.522 14.992l2.737-2.698c-4.278-4.278-7.9-9.018-10.945-14.259l-3.314 1.965M175.28 382.66c4.123 4.51 8.092 9.288 12.678 13.334l2.698-2.736c-4.547-4.046-8.517-8.786-12.64-13.295l-2.737 2.697M186.571 374.74a138.296 138.296 0 0014.143 14.76l2.736-2.697c-5.086-4.624-9.788-9.519-14.143-14.798l-2.736 2.736M198.421 365.26c4.432 5.242 9.288 10.02 14.529 14.452l2.736-2.736a119.686 119.686 0 01-14.528-14.452l-2.737 2.737M211.293 356.127c4.316 4.432 8.247 9.288 12.871 13.411l2.737-2.736c-4.625-4.085-8.594-8.98-12.872-13.372l-2.736 2.697M175.029 443.164a97.213 97.213 0 0013.141 16.803l2.736-2.698c-4.778-4.933-8.94-10.212-12.563-16.031l-3.314 1.926M184.49 438.193a97.682 97.682 0 0014.297 13.064l1.927-3.352c-4.932-3.662-9.364-7.824-13.488-12.41l-2.736 2.698M197.304 429.541c3.622 4.432 7.861 8.093 12.717 11.138l1.966-3.315c-4.625-2.89-8.517-6.358-11.986-10.559l-2.697 2.736M208.19 418.886c4.74 4.393 9.52 8.786 14.26 13.18l2.736-2.737c-4.74-4.393-9.52-8.786-14.26-13.18l-2.735 2.737M221.043 410.407c4.162 4.008 8.632 7.592 13.411 10.83l1.965-3.315a104.265 104.265 0 01-12.678-10.212l-2.698 2.697M232.392 399.598a102.506 102.506 0 0014.799 13.218l1.965-3.314c-5.125-3.738-9.788-7.978-14.028-12.64l-2.736 2.736M243.106 389.077c5.55 4.971 11.137 9.981 16.687 14.952l2.736-2.736a6501.346 6501.346 0 01-16.687-14.914l-2.736 2.698M219.386 485.17c5.395 4.47 11.137 8.016 17.65 10.675l1.04-3.7c-5.857-2.389-11.098-5.664-15.954-9.71l-2.736 2.735M229.406 477.25c3.738 2.621 7.437 5.204 11.176 7.824l1.926-3.314c-3.7-2.62-7.437-5.241-11.137-7.823l-1.965 3.314M237.48 468.696c4.315 4.007 9.017 7.283 14.258 9.904l1.966-3.314c-4.972-2.467-9.442-5.511-13.489-9.327l-2.736 2.737M247.595 458.329a75.134 75.134 0 0013.334 11.369l1.927-3.353c-4.624-3.083-8.748-6.667-12.524-10.752l-2.737 2.736M259.85 446.999l12.14 9.943 2.697-2.698c-4.046-3.314-8.093-6.629-12.139-9.981l-2.698 2.736M268.521 433.646c4.47 4.74 9.403 8.902 14.799 12.563l1.965-3.314c-5.164-3.469-9.788-7.438-14.028-11.986l-2.736 2.737M279.716 424.127c3.2 4.316 6.745 8.131 10.907 11.523l2.736-2.737c-3.893-3.16-7.322-6.667-10.29-10.713l-3.353 1.927M268.887 502.358c4.78 2.544 9.789 4.51 15.03 5.78l1.002-3.737a60.11 60.11 0 01-14.105-5.357l-1.927 3.314M279.042 486.885l13.064 7.862 1.927-3.353c-4.355-2.62-8.67-5.24-13.026-7.861l-1.965 3.352M289.004 473.243c3.854 3.7 7.785 7.63 12.37 10.444l1.966-3.315c-4.316-2.659-7.977-6.358-11.638-9.865l-2.698 2.736M298.465 463.512a135.647 135.647 0 0011.947 10.598l2.736-2.736c-4.2-3.314-8.17-6.821-11.947-10.56l-2.736 2.698M307.945 448.502a106.669 106.669 0 0012.255 11.715l2.736-2.697a106.669 106.669 0 01-12.255-11.716l-2.736 2.698M316.944 510.49a77.12 77.12 0 0010.405 3.969l1.04-3.7-9.518-3.584-1.927 3.315M323.303 496.404c3.352 3.199 6.975 5.665 11.253 7.476l1.926-3.352c-3.93-1.657-7.36-3.854-10.443-6.86l-2.736 2.736M331.511 484.265c2.428 4.2 5.28 8.093 8.517 11.715l2.698-2.697a68.957 68.957 0 01-7.9-10.984l-3.315 1.966" fill="#C5B6A9"/>
  </g>
</svg>
