<?xml version="1.0" encoding="UTF-8"?>
<svg width="720px" height="720px" viewBox="0 0 720 720" version="1.1" xmlns="http://www.w3.org/2000/svg" xmlns:xlink="http://www.w3.org/1999/xlink">
    <!-- Generator: Sketch 64 (93537) - https://sketch.com -->
    <title>img_c</title>
    <desc>Created with Sketch.</desc>
    <g id="img_c" stroke="none" stroke-width="1" fill="none" fill-rule="evenodd">
        <g id="cow" transform="translate(10.000000, 104.000000)">
            <path d="M267.188036,477.831262 L267.165309,477.831262 C266.77895,465.792006 266.142593,451.784355 265.506236,437.68515 C250.301859,436.311851 235.188389,434.091684 220.37037,430.658436 C222.643073,449.976177 228.415736,484.102661 228.415736,484.102661 C229.733903,490.488502 234.506578,510.26401 235.870199,511.316872 C239.483796,509.668913 248.097337,505.274356 250.688218,503.695062 C251.27912,503.695062 260.642654,508.318503 267.528941,510.309786 C268.392568,510.195345 267.528941,480.234535 267.188036,477.831262" id="Fill-99" fill="#EBC5AB"></path>
            <path d="M267.172796,478.1893 C261.276783,480.227224 227.572016,484.393644 227.572016,484.393644 C228.91835,490.711206 233.793007,510.275267 235.185765,511.316872 C238.876577,509.686534 247.674171,505.338965 250.320413,503.776557 C250.923942,503.776557 260.487553,508.350562 267.520986,510.320554 C268.403067,510.207337 267.520986,480.566877 267.172796,478.1893" id="Fill-100" fill="#A99C7A"></path>
            <path d="M186.31656,421.16031 C159.196602,410.319364 135.021488,393.014673 115.320711,371.604938 C105.116484,428.168369 148.786921,458.831464 158.260644,462.618991 C174.400215,469.082736 192.069278,472.711504 209.304605,470.171366 C226.517104,467.608548 243.158896,458.287149 251.993428,443.363838 C253.13484,441.436055 254.093626,439.417552 254.938272,437.33101 C231.402349,434.654793 208.208849,429.937394 186.31656,421.16031" id="Fill-101" fill="#ED9D93"></path>
            <path d="M150.44642,448.540565 C147.6422,455.257441 143.232336,476.903266 142.644354,481.480863 C141.807611,488.128731 151.351008,489.646929 154.245688,487.116599 C159.333992,482.654016 168.357251,463.860564 171.138857,458.638883 C173.943078,453.417201 153.228027,441.823689 150.44642,448.540565" id="Fill-102" fill="#F0ACA4"></path>
            <path d="M190.287101,464.101151 C189.849241,470.976625 192.361176,487.971152 193.029488,492.767994 C193.674756,497.564837 203.883809,501.744942 206.672287,494.275573 C207.755414,491.443152 210.198213,466.408204 210.175167,462.730625 C210.152122,459.075888 190.748007,457.225677 190.287101,464.101151" id="Fill-103" fill="#F0ACA4"></path>
            <path d="M223.456675,457.492861 C225.681316,462.882909 237.59242,482.638808 241.555063,484.625817 C245.517706,486.612827 251.751338,484.762852 252.052592,478.687628 C252.307499,473.754363 242.783251,450.595425 240.419569,446.141784 C238.07906,441.688142 221.208859,452.102812 223.456675,457.492861" id="Fill-104" fill="#F0ACA4"></path>
            <path d="M579.547259,255.092787 C537.142636,215.165046 474.722484,173.364263 472.097871,120.987654 C342.51044,134.395883 211.987278,140.42616 83.4040469,122.700801 C70.0983984,168.498926 59.0750224,215.484833 65.0317535,262.493582 C73.8413253,331.887449 122.339615,394.839884 187.178976,420.971084 C220.751204,434.516364 257.358854,438.559391 293.51005,440.112644 C349.197498,442.51105 406.893346,438.879178 456.966404,414.3926 C514.274266,386.365518 563.525706,341.846542 579.98089,280.173257 C581.897999,273.023724 583.449945,265.965559 584.773663,259.021604 L579.547259,255.092787" id="Fill-105" fill="#F3D2B8"></path>
            <path d="M141.1468,315.21989 C141.835378,302.209271 77.2008573,298.733676 79.2665913,313.847944 C81.3323253,328.962212 94.4841649,479.053069 94.4841649,479.053069 C94.9661695,489.182602 96.7794249,505.920339 98.7533485,512.757202 C103.206153,511.065135 114.6595,507.177956 118.125343,505.783144 C119.295925,506.423386 132.608433,511.522451 139.081066,511.316659 C140.136886,498.90055 140.022123,490.966131 140.045075,479.190264 C140.022123,479.190264 140.458222,328.230508 141.1468,315.21989" id="Fill-106" fill="#F3D2B8"></path>
            <path d="M550.031845,341.358025 C539.753965,354.878254 527.632518,367.12385 514.197531,378.094811 C516.133275,415.673766 517.538994,478.40399 517.51595,478.40399 C517.51595,478.40399 517.884663,501.028751 518.737312,511.316872 C524.636723,509.90567 532.42579,507.197072 537.81822,503.327646 C540.53748,505.194075 548.234368,509.678057 548.971795,508.972455 L549.340508,479.246159 C549.317463,479.246159 550.677093,391.296382 550.031845,341.358025" id="Fill-107" fill="#EBC5AB"></path>
            <path d="M681.46338,152.152123 C645.77362,104.10433 595.340944,47.56405 563.428483,43.5352689 C531.516023,39.483597 470.987654,73.7740179 470.987654,118.227955 C470.987654,172.34181 535.430679,215.147609 578.881074,256.030581 C593.944487,270.199987 634.991146,278.097314 675.694413,241.655157 C716.420573,205.235892 697.07622,173.165879 681.46338,152.152123" id="Fill-108" fill="#F9DCC3"></path>
            <path d="M563.841082,43.5280966 C551.036462,41.9130008 533.621266,46.5308098 517.370127,55.4479582 C517.370127,58.6099063 515.407208,66.8673677 521.661158,77.7408293 C535.059218,101.034605 562.037935,114.59231 588.194966,121.007197 C609.513174,126.21645 632.725827,124.351128 652.469136,115.092762 C620.286402,73.1912638 593.376158,47.2587403 563.841082,43.5280966" id="Fill-109" fill="#B47146"></path>
            <path d="M586.205375,193.033535 C586.5914,179.879786 573.94342,169.370585 561.091074,167.507904 C548.216022,165.645223 535.386383,170.175447 523.169843,174.613688 C515.858085,177.281231 508.546326,179.925778 501.234568,182.593322 C518.378598,202.530909 540.495531,221.111728 560.795879,239.09465 L564.769661,233.506607 C569.674443,226.216855 574.579225,218.950098 579.166105,211.453382 C582.640325,205.79635 586.023716,199.679397 586.205375,193.033535" id="Fill-110" fill="#B47146"></path>
            <path d="M622.495689,2.89320187 C611.737188,2.0906613 607.087328,39.9705761 561.728395,67.0735176 C561.728395,67.0735176 589.44521,83.6975722 612.694512,75.5116584 C657.118914,59.8965119 640.137806,4.24605597 622.495689,2.89320187" id="Fill-111" fill="#B47146"></path>
            <path d="M415.530458,145.518272 C409.979317,156.998481 437.66705,183.762989 465.87591,173.369665 C490.300932,164.380232 502.082946,142.64256 491.683053,112.345679 C455.838541,141.374529 420.220606,135.826894 415.530458,145.518272" id="Fill-112" fill="#F9DCC3"></path>
            <path d="M691.523171,166.577414 C669.827575,154.2673 639.792806,166.622923 630.010314,172.652831 C613.629795,182.733017 598.326038,195.566482 589.391209,212.541242 C582.357896,225.875303 576.218065,242.872817 584.25941,258.732614 C602.312346,269.882255 639.105511,272.908586 675.692488,240.392591 C707.582953,212.086154 702.634433,186.419225 691.523171,166.577414" id="Fill-113" fill="#EFA79C"></path>
            <path d="M548.765432,479.036963 C546.906875,479.33479 530.386372,479.976265 517.078189,478.1893 C517.078189,478.1893 517.445312,500.961642 518.294282,511.316872 C524.168239,509.896465 531.923697,507.170198 537.29286,503.275532 C540.000387,505.154136 547.664065,509.667367 548.39831,508.957163 L548.765432,479.036963" id="Fill-114" fill="#A99C7A"></path>
            <path d="M139.711934,479.764477 C124.213702,480.75336 95.0617284,479.62963 95.0617284,479.62963 C95.5340983,489.585881 97.311109,506.037294 99.2455764,512.757202 C103.609375,511.094081 114.833784,507.273397 118.230349,505.902446 C119.377533,506.531735 132.423941,511.543573 138.767194,511.341301 C139.801909,499.137589 139.68944,491.3389 139.711934,479.764477" id="Fill-115" fill="#A99C7A"></path>
            <path d="M185.534321,132.784187 C173.186793,163.050059 177.416333,200.049288 197.540757,225.955595 C215.277537,248.780536 242.837765,262.110301 270.89826,268.866484 C281.88142,271.491352 293.069235,273.248872 304.325269,274.34447 C316.10431,275.485717 328.315401,275.828091 339.457737,271.788076 C355.943847,265.807942 368.336854,249.739183 369.974095,232.209629 C372.862007,201.350309 342.118254,164.53368 331.930976,132.510288 C283.063872,134.792782 234.219509,135.157981 185.534321,132.784187" id="Fill-116" fill="#B47146"></path>
            <path d="M65.0327023,262.997038 C66.7682224,276.614376 70.1022478,289.958912 74.7379133,302.848779 C87.0235686,304.96299 121.185911,308.032006 136.942607,266.725324 C150.849603,230.215401 150.096022,187.362844 135.389773,151.148455 C132.010076,142.850745 127.420082,134.894037 121.391433,128.324069 C108.71757,127.028263 96.0665416,125.596055 83.4155137,123.868313 C70.1022478,169.448884 59.072561,216.211594 65.0327023,262.997038" id="Fill-117" fill="#B47146"></path>
            <path d="M502.486893,227.72641 C486.010936,202.413328 436.719043,182.503397 423.642528,195.829656 C410.566012,209.178618 440.141147,307.366133 496.549203,280.577401 C506.883503,275.6737 510.826855,266.002514 511.280113,255.990793 C511.733372,245.956369 507.948661,236.126266 502.486893,227.72641" id="Fill-118" fill="#B47146"></path>
            <path d="M473.868313,404.476536 C461.240552,382.513494 436.80413,367.343146 411.434846,361.954276 C389.273695,357.244675 362.22071,360.776875 350.366542,379.977555 C340.969668,395.147904 344.268812,414.575007 347.863742,432.03223 C348.364302,434.454957 348.864862,436.877684 349.365422,439.300412 C386.315841,437.104107 422.720195,430.107633 455.802652,414.031592 C461.945887,411.042807 467.952605,407.827599 473.868313,404.476536" id="Fill-119" fill="#B47146"></path>
            <path d="M221.541881,307.660128 C220.769635,302.638565 218.430185,297.912389 215.091358,294.07237 C208.413704,286.415055 197.647691,282.415982 187.631211,284.142854 C170.482814,287.142159 167.575536,308.114568 167.121274,316.498988 C166.689725,324.906129 169.483438,333.926765 176.251944,338.902884 C184.70122,345.105991 196.920872,343.28823 205.778984,337.744061 C215.931743,331.3819 223.336216,319.521014 221.541881,307.660128" id="Fill-120" fill="#B47146"></path>
            <path d="M535.978215,145.462164 C533.696734,144.517308 530.977392,144.148584 528.903318,145.462164 C526.621836,146.914016 525.792207,150.002082 526.368339,152.652288 C527.474511,158.021835 534.526363,163.64488 540.195499,159.035827 C545.84159,154.426773 539.988092,147.144469 535.978215,145.462164" id="Fill-121" fill="#17111C"></path>
            <path d="M594.217653,100.909445 L588.133702,100.425494 C579.353455,106.117675 591.498311,122.571996 598.895842,117.571173 C606.408599,112.478169 597.098311,101.923436 594.217653,100.909445" id="Fill-122" fill="#17111C"></path>
            <path d="M618.15669,216.358989 C607.671093,215.828948 603.038994,237.353227 615.644756,238.758989 C625.208542,239.819071 629.35669,216.912075 618.15669,216.358989" id="Fill-123" fill="#CB857D"></path>
            <path d="M660.787503,187.479112 C657.722483,196.720264 676.757874,206.791046 681.505199,194.20833 C685.192442,184.460182 663.829479,178.399277 660.787503,187.479112" id="Fill-124" fill="#CB857D"></path>
            <path d="M537.474331,0 C531.944435,-0.160511854 528.250284,44.559262 527.185099,51.5028978 C526.142578,58.4465336 558.574057,58.1476354 558.846019,47.2033617 C559.004663,40.9264988 548.148843,0.299331579 537.474331,0" id="Fill-125" fill="#A99C7A"></path>
            <path d="M436.656548,83.3014683 C433.177823,94.0244867 469.02676,112.499644 478.627136,113.752984 C488.363048,115.006324 495.410854,80.1681187 488.182335,80.1913287 C472.234415,80.2145387 438.847693,76.5473593 436.656548,83.3014683" id="Fill-126" fill="#A99C7A"></path>
            <path d="M29.8821894,331.27572 C-5.20895119,347.112736 -1.89074748,394.918742 3.0183758,416.155771 C4.90475188,424.346549 9.3365993,445.061728 9.3365993,445.061728 C33.5867592,434.965064 72.6551987,377.175839 29.8821894,331.27572" id="Fill-127" fill="#7F5741"></path>
            <path d="M72.9176894,162.335574 C76.0308599,148.949428 79.6934134,135.631695 83.5390947,122.427984 C46.1810487,135.563282 14.7288703,264.635832 20.9552113,336.081821 C22.0081954,348.236532 35.1933881,344.975512 35.2162791,338.134211 C38.8559416,266.802244 40.893237,213.006812 72.9176894,162.335574" id="Fill-128" fill="#B47146"></path>
            <path d="M459.757173,481.23979 C458.986916,468.699849 457.740913,448.899942 457.33313,427.165561 C456.902693,403.951877 458.239314,366.923776 458.805679,355.362451 C459.394699,343.323197 410.279522,336.882537 409.169446,350.219026 C408.059371,363.578274 415.286189,477.439118 415.263534,477.439118 C415.263534,477.439118 416.939975,498.559019 417.936777,508.436214 C423.623082,506.956911 439.186794,500.197632 441.248363,500.083839 C445.076991,501.676935 458.239314,506.228638 460.889903,505.705192 C461.02583,500.425217 460.232919,488.249412 459.757173,481.23979" id="Fill-129" fill="#F3D2B8"></path>
            <path d="M459.450232,476.748971 C448.583075,478.935092 418.063523,477.186195 414.814815,477.094148 C414.814815,477.094148 416.507803,498.449095 417.514445,508.436214 C423.25688,506.940447 438.974221,500.105944 441.056139,499.990885 C444.922559,501.601711 458.214808,506.20407 460.891561,505.674798 C461.051708,499.02439 459.770528,481.282295 459.450232,476.748971" id="Fill-130" fill="#A99C7A"></path>
            <path d="M427.777778,155.410739 C434.403232,169.456601 447.993328,170.528282 463.957733,166.423972 C479.922139,162.296859 487.655604,149.049058 489.962076,141.638497 C491.431887,136.895739 491.296212,131.810954 490.843963,126.748971 C481.391949,150.485566 447.360179,156.277204 427.777778,155.410739" id="Fill-131" fill="#EFA79C"></path>
            <path d="M627.461822,11.5226337 C626.758851,32.3266032 619.116867,60.3538567 583.333333,66.2099577 C583.333333,66.2099577 612.518002,76.2359671 626.554762,59.1689647 C637.552869,45.7933567 634.355481,22.961399 627.461822,11.5226337" id="Fill-132" fill="#EFA79C"></path>
            <path d="M517.035993,41.1362129 C515.158079,42.6936476 513.348869,48.1108119 513.921404,51.4513965 C513.142757,51.7448263 505.585298,41.9713591 502.356203,34.5679012 C499.630937,39.5562067 499.562233,45.8536601 502.172992,50.9096801 C495.462885,47.5013809 489.485622,42.7387907 484.676331,37.0056252 C480.073152,44.9733709 481.126616,55.7399849 487.195483,62.7145839 C478.492956,61.0217201 470.729385,55.1982685 466.813248,47.3885233 C465.988798,53.8891205 468.714063,60.5251467 473.179834,65.378023 C477.645604,70.2083278 488.157342,78.063216 497.661418,77.7697863 C507.142593,77.4989281 522.532326,65.7617388 522.830044,59.9608587 C523.059058,55.175697 519.074216,45.4925158 517.035993,41.1362129" id="Fill-133" fill="#B47146"></path>
        </g>
    </g>
</svg>