<svg viewBox="0 0 720 720" xmlns="http://www.w3.org/2000/svg">
  <g fill="none" fill-rule="evenodd">
    <path d="M94.736 461.949c-18.407-1.66-20.801-15.45-21.067-21.85-.702-15.504 6.24-24.073 17.97-32.588 11.707-8.542 33.718-6.828 53.116 4.552 72.9 42.817 127.103 95.46 127.103 95.46-20.874 46.62-59.525 117.9-75.537 112.652-16.036-5.248-4.353-42.79 13.545-51.546-40.658 23.028-58.895 21.395-72.126 17.914-13.254-3.481-25.227-14.728-28.226-29.428-2.298-11.38 1.887-24.153 9.99-31.196-14.465 7.712-50.721 19.467-66.588-2.677-15.746-21.984 17.754-52.537 41.82-61.293" fill="#A1CC76"/>
    <path d="M484.179 478.256c3.186-2.167 6.265-5.7 9.183-9.954 9.773 21.407 10.897 53.144 34.11 52.02 29.237-1.391 8.38-79.904 65.81-79.261 43.267.508 62.705 64.811 68.568 123.388 3.534 35.135-3.213 141.531-85.248 118.866-19.491-5.379-29.317-27.402-29.183-47.605.374-53.52 44.016-41.745 48.808-32.78l1.634 6.502-4.766 3.826c-1.392-.32-16.734-2.89-20.134 14.718-2.972 15.226.857 33.021 16.332 34.306 45.676 3.746 46.533-60.557 43.4-91.464-5.06-49.613-19.545-103.827-42.865-104.47-24.123-.695-5.247 83.196-64.685 80.52-31.192-1.418-41.312-34.573-53.816-61.226 4.364-2.301 8.729-4.576 12.852-7.386" fill="#B24065"/>
    <path d="M259.993 481.417c74.074 5.434 148.487 2.302 222.69-.857 31.85-1.339 63.831-2.704 95.265-8.218 26.364-4.605 60.866-15.58 85.514-26.208l7.566 30.33c-29.744 17.106-62.686 28.27-96.486 32.686-16.952 2.222-34.034 2.784-51.116 3.32-126.23 4.015-372.113-.322-400.09-20.345-6.37-4.551 87.595-14.322 136.657-10.708" fill="#593E42"/>
    <path d="M579.64 471.52c-4.834 7.848-6.62 23.356-10.93 38.324-9.852 1.187-19.783 1.861-29.687 2.293 4.834-8.712 6.883-22.763 10.955-36.14 8.381-.971 16.71-2.104 25.012-3.56l4.65-.918" fill="#B24065"/>
    <path d="M383.87 272.12c37.247 3.655 66.605-7.63 88.878-22.303 11.298 21.954 43.93 97.302 38.616 163.379-1.905 23.458-14.169 56.295-28.016 65.78-22.192 15.21-48.464 23.056-75.272 20.987-55.79-4.272-72.429-42.725-82.84-64.948-7.166-15.317-9.608-46.192-9.608-63.094 0-53.313 21.12-94.91 34.135-113.747 10.707 7.981 22.192 12.791 34.107 13.947" fill="#BF7E68"/>
    <path d="M319.601 52.331c11.227-9.344 49.077-22.035 56.99-23.32 52.31-8.353 105.664 2.892 140.494 42.865 45.254 51.887 21.972 111.512-8.688 145.14-21.277 23.347-61.853 60.321-125.07 54.11-35.07-3.427-66.693-37.858-84.95-95.663-14.46-45.783-17.134-91.191 21.224-123.132" fill="#C6886E"/>
    <path d="M319.704 108.924c1.664-17.379 17.066-50.412 46.368-48.58 29.276 1.859 42.37 20.154 49.562 34.488 25.895-18.726 47.71-15.654 55.117-13.633 40.975 11.1 41.538 40.685 41.136 61.54-.698 36.24-36.816 74.689-68.64 90.155l.616-4.15c3.918-23.576-5.93-57.876-42.21-60.786-36.278-2.936-45.911 14.874-49.668 23.145-2.308 5.093-3.435 10.59-3.891 15.817-11.485-14.227-20.85-36.052-23.963-44.862-5.635-15.843-5.742-39.608-4.427-53.134" fill="#AA3A5E"/>
    <path d="M400.913 168.653c-36.235-2.929-45.857 14.831-49.61 23.08l-.187.51c-12.14-16.228-20.744-44.145-20.235-62.63.911-32.727 16.322-55.028 38.22-55.78 21.923-.78 32.134 18.673 38.888 44.414 12.543-11.473 33.77-30.067 57.597-24.102 30.821 7.739 32.912 37.455 26.48 63.894-7.532 30.953-36.558 51.186-48.243 63.008.616-22.543-10.72-49.842-42.91-52.394" fill="#F6C79F"/>
    <path d="M533.945 95.556c15.026-9.378 42.033-22.176 61.367 3.633 11.551 15.416 12.467 39.221 10.717 47.183-8.213 37.271-44.753 35.4-67.102 21.508 7.136-22.523 7.459-47.718-4.982-72.324M228.14 78.756c3.605-9.31 12.123-17.31 21.71-20.091 22.83-6.689 38.557 6.848 50.547 17.978-12.417 21.857-13.191 47.272-7.93 73.704-13.165 1.9-32.364 2.408-43.205-3.157-26.65-13.644-28.865-48.45-21.122-68.434" fill="#BF7E68"/>
    <path d="M351.924 190.122c3.742-8.188 13.339-25.818 49.478-22.911 36.14 2.88 45.95 36.833 42.047 60.17-1.363 8.215-2.886 39.128-51.723 33.633-36.033-4.027-42.02-33.126-42.983-38.54-1.39-7.948-1.951-21.07 3.181-32.352" fill="#EAB17B"/>
    <path d="M105.969 417.18l-1.111-5.44c.386-3.619 3.695-5.87 6.762-7.157 16.084-6.807 53.18-.214 77.065 29.617-6.497-10.024-9.129-28.678 2.101-31.09 11.206-2.386 46.031 28.731 58.42 47.573-7.196-12.034-12.847-25.194-16.76-38.97 3.985-3.082 9.25.804 12.68 4.637 16.422 18.359 32.313 43.553 41.732 67.192 0 0-36.033 27.472-116.286 25.06-9.709-.268-48.93.858-50.234-16.832-1.304-17.716 25.165-24.684 29.199-24.47-19.2-10.4-35.091-28.33-43.568-50.12" fill="#5DB45B"/>
    <path d="M342.17 608.23c4.823-3.683 15.189-9.368 23.317-4.537 5.835 3.442 5.356 18.307.799 34.106-5.036 17.507-4.264 36.882-13.03 38.03-3.172.4-3.305-5.845-3.518-9.047-1.093 4.136-4.61 9.848-8.9 9.5-2.479-.186-4.744-7.365-2.745-11.048-1.972 3.016-5.25 9.154-9.673 7.713-4.424-1.415-1.706-12.517-.32-15.693-1.892 3.497-5.596 6.94-9.034 4.938-7.168-4.164 9.167-43.234 23.104-53.962" fill="#B24065"/>
    <path d="M354.95 478.289c7.776 6.992 17.594 12.944 30.066 16.867-9.208 9.501-15.179 22.338-18.336 35.575-10.8 45.05 3.582 88.792-8.412 94.984-6.05 3.122-13.799 1.148-18.575-3.763-4.75-4.91-15.975-56.42-7.377-104.485 2.733-15.239 11.623-27.862 22.635-39.178" fill="#BF7E68"/>
    <path d="M413.786 681.463a143.108 143.108 0 019.41-44.31c3.764-9.687 9.087-19.536 18.228-24.502 4.758-2.59 10.995-3.508 15.378-.35 2.715 1.97 4.301 5.208 5.135 8.473 1.882 7.367.537 15.138-.807 22.613-1.156 6.53-1.344 47.062-5.673 47.818-4.301.755-6.102-2.645-7.904-6.693.189 2.483-1.613 9.121-5.377 8.69-3.736-.46-4.167-5.263-4.355-6.909-1.021 1.916-4.705 6.045-8.146 5.667-3.441-.378-2.661-10.524-2.285-14.113-1.264 3.373-5.86 12.062-6.99 12.629l-5.673-2.348-.94-6.665" fill="#B24065"/>
    <path d="M484.144 478.454l4.107-3.55c-13.565 24.929-24.077 50.605-27.995 78.523-4.459 31.868-2.838 22.927-.946 55.035.432 7.367.73 15.347-3.459 21.46-4.215 6.138-14.808 8.22-18.862 2.001l-1.864-4.83c-14.025-53.915-11.512-83.862 1.027-129.182 17.078-2.936 33.4-9.608 47.992-19.457" fill="#BF7E68"/>
    <path d="M371.894 212.687c7.825-1.398 14.676 11.939 14.35 20.355-.08 1.667 1.463 10.003-6.417 11.59-2.6.538-4.792-1.022-7.013-2.474-6.878-4.518-8.746-28.073-.92-29.471M469.34 140.469c-4.638 8.448-13.38 15.136-23.294 14.026-11.674-1.354-16.978-12.672-18.683-23.233-.48-2.87 3.837-4.116 4.317-1.218 1.44 8.827 5.33 19.36 15.618 19.983 7.916.515 14.526-5.199 18.15-11.86 1.413-2.545 5.278-.27 3.892 2.302M388.178 127.624c-3.49 7.798-11.767 14.758-20.316 15.922-13.039 1.76-19.071-11.075-21.695-21.717-.704-2.843 3.706-4.061 4.382-1.218 2.273 9.206 7.331 21.283 18.882 17.953 6.385-1.842 12.147-7.23 14.798-13.242 1.217-2.68 5.14-.352 3.95 2.302" fill="#17111C"/>
    <path d="M247.267 93.292c2.838-4.414 7.65-7.471 12.813-8.695 7.894-1.808 16.166.506 23.572 3.776a88.367 88.367 0 019.975 5.185c-3.081 10.05-4.217 20.632-3.892 31.56-9.083 3.616-19.328 4.094-27.925-.346-4.73-2.446-8.677-6.195-12.11-10.29l-4-6.141c-2.028-4.84-1.298-10.61 1.567-15.05M540.715 117.006c15.157-9.46 33.334-6.59 39.294 1.12 3.857 5.031 6.338 12.386 3.452 20.506-3.074 8.694-10.356 13.314-29.45 13.014-4.612-.082-8.28-1.04-11.867-2.379 1.268-10.499.971-21.353-1.429-32.261" fill="#E98E84"/>
    <path d="M195.758 302.764c3.602-4.63 11.205.803 16.675 3.372-6.537-6.503-17.636-18.278-15.074-22.025 2.187-3.211 9.39 1.205 14.327 4.657-3.255-5.058-9.205-19.991-4.883-21.891 6.964-3.024 31.349 45.494 67.98 47.716 24.145 1.471 40.633-6.21 52.692-14.21-4.296 11.962-8.004 25.583-10.218 40.57-12.7 5.459-27.934 9.714-43.835 8.51-39.726-2.97-81.853-41.347-77.664-46.699" fill="#BF7E68"/>
    <path d="M230.46 241.356a21.42 21.42 0 01-8.638.726c-.108 13.985-1.137 41.58-1.625 47.847-.92 11.915-3.303 48.358-.027 59.843l2.302 3.28 4.197-3.254c8.448-18.315 6.797-37.438 6.065-61.348-.433-14.255-3.032-32.221-2.274-47.094" fill="#B1C9DE"/>
    <path d="M214.752 201.639c4.318-6.944 14.115-11.186 19.836-3.297 2.86 3.972 3.86 9.673 4.291 14.429.486 5.08.162 10.672-2.699 15.103-4.965 7.593-16.813 9.16-20.673.027-3.346-7.943-4.21-18.4-.755-26.262zM211.27 237.6c8.987 9.916 26.07 5.188 32.413-5.323 6.234-10.321 5.182-25.965-.378-36.286-8.474-15.698-27.528-12.51-36.056 1.243l-.648 1.81c-4.264 11.456-3.913 29.153 4.67 38.556z" fill="#A8DBEC"/>
    <path d="M77.472 170.401c3.233-6.84 11.73-21.061 16.913-26.583 19.557-20.738 58.272-17.398 79.513 1.59 6.413 5.736 17.901 24.4 24.26 30.218 6.333 5.764 18.516 18.422 27.093 18.315 2.939-.135 5.824 1.023 8.095 4.174 2.832 3.96 3.821 9.642 4.249 14.383.48 5.063.16 10.638-2.672 15.055-2.325 3.555-6.145 5.737-9.94 6.141v.512c-24.073 11.015-59.127 32.023-85.338 35.39-10.98 1.427-27.974-.027-38.18-4.363-14.134-6.033-26.451-23.136-28.321-38.488-1.897-15.352-2.325-42.365 4.328-56.344" fill="#F6D3DD"/>
    <path d="M112.675 219.355c-9.09 0-18.965-3.04-22.428-11.116-1.542-3.626-1.542-7.678-1.244-11.596.785-9.917 3.49-19.886 9.28-28.043 5.762-8.184 14.906-14.342 24.997-15.168.811-.054 1.65-.08 2.462-.08 4.355 0 8.657.853 12.85 2.079 6.953 2.026 13.851 5.198 18.64 10.583 4.788 5.411 7.142 22.818-.812 32.708-4.572 5.678-10.064 10.636-16.61 13.915a63.888 63.888 0 01-24.538 6.638c-.839.053-1.704.08-2.597.08M108.01 247.732c-2.843 0-6.39-1.191-9.179-5.171l.27-7.393c1.517-2.112 4.17-3.276 6.797-3.412.813-.054 1.815-.162 2.87-.162 2.302 0 4.848.541 6.5 3.439 2.355 4.251-.84 9.992-2.79 11.481-.785.623-2.464 1.218-4.468 1.218" fill="#FDEEF1"/>
    <path d="M473.188 159.33c5.985-1.692 12.47-.846 18.349 1.243l4.112 1.904c4.14 2.697 6.406 7.854 6.116 12.799-.263 4.945-3.611 11-6.88 14.755-6.696 7.668-22.751 12.058-32.189-1.005-1.687-2.327-2.452-5.21-2.873-8.039-.449-3.12-.554-6.346.29-9.387 1.687-6.029 7.065-10.55 13.075-12.27M317.525 154.767c.715-4.768 3.576-9.323 7.868-11.495 5.14-2.57 20.505-3.497 28.135 5.482 5.908 6.967 7.471 18.303-5.484 26.832-9.484 6.25-22.598 2.807-27.737-6.834-2.279-4.264-3.497-9.19-2.782-13.985" fill="#E98BA1"/>
    <path d="M393.29 175.624c5.334-.135 5.605 11.13 5.47 15.732-.082 2.735-.786 5.633-2.844 7.42l-7.148-.488-.596-4.738c.38-4.197-.217-17.763 5.118-17.926M363.3 189.81c2.085-4.333 10.642-17.683 15.272-14.92 4.63 2.761-.948 17.708-4.522 20.227l-4.495 1.38-5.822-1.95-1.11-1.543.677-3.195" fill="#17111C"/>
    <path d="M359.528 84.671c3.548-.893 14.487-.541 16.274-.162l4.766 4.36c-.027 2.761-3.358 4.115-6.065 4.602-6.201 1.165-19.361.65-18.874-5.361l3.9-3.439M453.761 101.654c6.418-1.38 18.955 1.598 18.847 6.499-.082 4.928-11.969.948-17.14.866l-5.416-2.112c-1.192-2.247 1.218-4.711 3.71-5.253" fill="#B88562"/>
    <path d="M351.026 378c8.106-8.615 18.772-13.03 29.172-17.015 14.72-5.6 30.506-10.797 45.492-6.112 8.16 2.558 15.493 7.916 22.666 13.193 6.96 5.115 14.053 10.419 19.04 18.092 8.506 13.085 9.333 31.796 3.84 46.954-5.52 15.158-15.92 28.35-29.253 34.004-38.239 16.208-79.518 5.25-93.997-15.723-14.507-20.946-14.027-55.3 3.04-73.393" fill="#E19E90"/>
    <path d="M495.84 310.2c11.803 41.306 37.305 99.473 58.721 121.73 14.954 15.55 41.738 31.875 38.32 36.177-3.418 4.302-11.456 1.87-22.138-7.214 6.169 6.626 14.82 13.813 11.777 18.917-3.045 5.076-15.195-2.405-23.606-10.207 4.673 7.802 13.378 17.982 4.78 20.386-8.572 2.405-29.855-25.543-34.475-33.21-15.648-25.918-50.175-82.054-60.964-137.656-3.364-17.367 21.39-30.646 27.585-8.924" fill="#C6886E"/>
    <path d="M404.268 427.718c2.14.542 5.01 2.247 4.82 6.526-.216 4.251-1.976 7.121-5.415 7.04-2.194-.027-10.046-5.28-8.747-10.127 1.273-4.847 7.23-3.98 9.342-3.44" fill="#995859"/>
  </g>
</svg>
