<?xml version="1.0" encoding="UTF-8"?>
<svg width="720px" height="720px" viewBox="0 0 720 720" version="1.1" xmlns="http://www.w3.org/2000/svg" xmlns:xlink="http://www.w3.org/1999/xlink">
    <!-- Generator: Sketch 64 (93537) - https://sketch.com -->
    <title>img_i</title>
    <desc>Created with Sketch.</desc>
    <g id="img_i" stroke="none" stroke-width="1" fill="none" fill-rule="evenodd">
        <g id="iguana" transform="translate(49.000000, 10.000000)">
            <path d="M616.621799,541.592904 C617.541589,520.69532 608.103742,493.044979 603.104882,480.977922 L621.66065,487.730679 C619.221206,465.474552 608.743596,440.381468 599.865621,419.80354 L620.980805,419.204183 C619.581124,393.271999 605.064435,379.766486 592.907208,357.07083 L611.303012,356.591345 C610.383222,328.861089 587.98833,311.959219 569.552534,291.181506 C573.751577,293.538977 583.90926,290.662063 588.628184,289.783006 C586.18874,266.168336 565.673419,246.26968 545.358052,234.002838 C552.476429,233.203696 559.634796,232.364596 566.753173,231.565453 C552.95632,211.946497 527.96202,196.203384 504.76731,190.049984 C511.725723,187.972213 525.722531,190.449556 531.801144,186.493799 C516.764574,172.7885 488.171095,160.441743 468.215647,156.366115 C474.214279,155.407144 482.492391,147.975116 488.491022,147.056101 C490.850484,143.380044 438.862341,136.107845 422.346108,132.192045 C429.384503,132.791402 439.942095,125.159588 446.220663,121.883103 C420.466537,110.775018 405.030058,105.86029 377.036442,104.501747 L388.353861,91.116105 C372.35751,87.7597052 352.242097,88.279148 333.606348,88.9184623 L331.046931,95.7111761 C344.123949,101.704747 357.680857,107.778232 369.278212,114.331203 C422.706026,144.538801 472.89458,176.704299 511.925678,224.093468 C564.233747,287.705235 592.067399,363.863544 594.506843,445.416067 C596.18646,501.435978 587.028549,565.806931 556.915417,613.435842 C551.396675,622.186456 541.798864,634.173598 531.1213,645.561383 C529.841591,653.672682 529.001783,657.228868 529.561655,664.620939 C542.678664,655.350882 556.315553,636.531069 559.754769,627.58067 C562.99403,631.776169 568.712726,636.411198 572.671823,637.49004 C576.151029,631.496469 581.989698,598.252129 584.149205,592.178643 C586.788603,593.816886 593.267126,597.612814 598.225995,597.692729 C602.065119,579.392359 597.706113,541.433075 599.105794,536.318561 C602.664982,538.795904 612.342775,541.353161 616.621799,541.592904" id="Fill-593" fill="#4D9C6F"></path>
            <path d="M593.672425,445.679279 C591.237729,364.120826 563.45825,287.99694 511.251989,224.340587 C472.296858,176.947973 422.205988,144.780136 368.882162,114.570342 C357.387205,108.056855 343.697031,102.022888 330.685379,96.0288809 C315.039465,136.148767 281.432683,208.91601 236.769986,236.608321 C252.056682,240.924006 271.254856,255.789143 279.077813,267.497436 C313.642509,319.085855 359.622335,363.001945 412.746597,395.049902 C425.63851,402.842111 439.448423,410.394559 447.790249,422.942013 C453.457901,431.413543 456.092162,441.483475 458.28738,451.433526 C465.471728,483.881083 468.664771,518.086882 459.60451,550.054918 C450.584162,582.022955 427.514423,611.393588 395.783553,621.103879 C374.988857,627.457527 352.038857,624.900084 332.002509,616.508474 C287.978422,598.006973 259.839726,563.361613 274.407987,517.847122 C285.104683,484.560404 298.515465,466.058903 332.481466,475.729234 C352.398074,481.40356 365.329901,492.991973 362.855292,514.410558 C359.382857,544.300672 330.206422,543.701271 329.767379,531.433537 C329.767379,531.433537 329.448074,517.367601 320.946596,514.810158 C312.485031,512.212755 304.941465,528.676294 307.296335,540.904068 C309.611291,553.131842 321.2659,561.643332 333.279726,564.880095 C375.348075,576.268708 418.29451,523.041928 398.337988,484.280683 C386.882944,461.982978 362.256596,449.875084 338.268857,442.682276 C313.562683,435.289668 286.222248,431.653303 262.434074,441.723235 C233.816421,453.831129 215.855551,484.480484 212.82216,515.449519 C209.788769,546.418554 219.687204,577.42755 234.255465,604.920061 C250.260595,635.249735 273.050943,663.301687 303.903726,678.286704 C365.289988,708.096898 431.346075,706.738257 492.852076,677.127863 C513.167815,667.337652 544.140337,632.812173 556.154163,613.711271 C586.208685,566.078897 595.348772,501.743223 593.672425,445.679279" id="Fill-594" fill="#76C2B4"></path>
            <path d="M342.146664,67.8462024 C348.333328,44.3680074 364.844492,16.2260623 350.824063,5.78245089 C334.674458,-6.21574384 290.001918,-1.51213262 219.899776,38.7475906 C129.791406,29.5396737 90.78328,68.3643968 67.6435471,101.010648 C41.3301355,138.161204 17.4672859,138.998287 2.76391393,149.441899 C-11.4975534,159.52676 30.4432125,195.082872 105.20544,195.919955 C66.5588721,218.082734 8.91040549,195.082872 14.3739535,200.424261 C20.5606183,206.48315 97.2913299,276.71843 217.690253,244.11204 C290.564342,224.380789 340.178179,75.3002303 342.146664,67.8462024" id="Fill-595" fill="#93CDB6"></path>
            <path d="M318.09905,48.6425223 C313.358041,40.7437955 295.639526,49.4004809 286.358399,55.7832903 C277.077271,62.1660998 268.961308,70.383967 258.715907,75.0115038 C253.53294,77.3651648 247.948193,78.7215118 242.323267,79.8385035 C237.059944,80.87571 231.595731,81.7134538 226.252052,80.9953877 C220.908372,80.2773216 208.011222,71.3014958 202.828255,69.745686 C186.877573,64.8787938 168.757277,68.6685869 154.052115,76.5673136 C128.498882,90.290354 123.677517,110.755237 111.624105,121.645905 C99.5305153,132.576467 85.0262431,133.214748 74.9013771,135.368946 C64.7363332,137.523144 60.8792414,147.855317 74.4594187,146.379292 C87.999418,144.94316 104.55277,150.727581 117.650811,158.865663 C132.63722,168.160629 147.543272,178.014092 164.377871,183.319802 C181.212469,188.625512 200.578284,188.864868 215.564693,179.609794 C225.448491,173.506232 232.519826,163.971911 240.63579,155.754044 C250.077629,146.259614 261.166768,138.40078 273.260358,132.656252 C281.938814,128.507426 296.563621,119.890633 293.91187,114.425352 C291.300297,108.960072 277.840654,110.914807 269.72469,112.151476 C264.581901,112.909435 257.992703,113.866856 255.38113,109.39889 L257.390032,98.707684 C272.296085,76.9263467 322.840058,56.5811415 318.09905,48.6425223" id="Fill-596" fill="#76C2B4"></path>
            <path d="M259.42064,351.191129 C284.942226,339.548312 297.803182,318.236036 305.776173,300.357405 C300.447491,293.963722 295.559526,287.175368 290.591431,280.505415 C280.735371,296.450155 269.477026,318.0387 250.165559,323.91931 C242.473025,326.247873 232.176247,305.843343 225.845932,309.908462 C216.510721,315.94694 234.299707,333.98344 235.742057,335.680528 C219.31529,334.062374 211.222103,340.534991 212.383996,343.7713 C215.308762,351.822604 246.118965,357.269074 259.42064,351.191129" id="Fill-597" fill="#76C2B4"></path>
            <path d="M355.801152,391.621837 C349.997421,393.272037 350.156428,404.273369 355.681897,416.492706 C355.24463,416.178382 330.996166,404.430531 326.345231,412.917273 C321.694297,421.364724 364.268239,448.121535 383.587506,437.080913 C393.48565,431.423085 402.469507,411.463525 409.386282,392.446937 C401.276959,387.496338 393.525401,382.034962 385.734092,376.534296 C379.373839,388.910795 373.649611,401.994522 370.707994,410.088359 C368.004887,405.844988 361.604883,389.971637 355.801152,391.621837" id="Fill-598" fill="#76C2B4"></path>
            <path d="M233.909231,109.946265 C226.941733,96.7165103 217.346493,84.4982051 204.446668,77.2157715 C191.546843,69.8928799 175.023919,68.1936454 162.004651,75.2737892 C156.191766,78.4295104 151.334425,83.1226343 146.676155,87.8562161 C140.823456,93.8439949 135.050386,100.074521 131.26803,107.559245 C125.49496,118.887475 124.778304,132.764557 129.277317,144.659198 C133.816144,156.594298 154.63901,173.182063 172.475805,176.054579 C197.638427,180.100375 225.588048,169.45993 236.298088,145.953853 C238.726758,140.65386 240.319329,134.827913 240.04063,129.001966 C239.76193,122.285944 237.054559,115.893586 233.909231,109.946265" id="Fill-599" fill="#FFFFFE"></path>
            <path d="M192.880005,117.386957 L190.17098,111.968907 L180.830908,111.160243 L173.714662,117.993456 L169.469175,127.778293 C169.105276,131.336416 170.277839,139.382625 179.537045,141.121253 C198.944987,144.800676 194.497334,123.613672 192.880005,117.386957" id="Fill-600" fill="#17111C"></path>
            <path d="M255.478988,537.407556 C263.823691,537.003224 266.539655,539.914415 269.885408,539.186617 L270.397112,533.485534 C268.665193,532.110805 263.744967,520.546906 254.494943,522.3664 C249.299185,523.417664 240.836397,525.318025 236.034257,523.094198 C230.602328,520.587339 230.44488,515.209722 226.626785,510.923801 C223.24167,507.123079 220.014002,504.858819 214.50335,505.101418 C213.716113,508.861707 213.125686,512.662429 212.77143,516.463151 C212.102279,523.538964 212.141641,530.574343 212.692707,537.609722 C223.950183,537.407556 224.422524,539.105751 235.522553,540.763512 C246.740667,542.461707 250.95238,537.650155 255.478988,537.407556" id="Fill-601" fill="#A9CF77"></path>
            <path d="M354.045698,200.905049 C362.121763,193.68195 356.313362,180.8095 369.799992,173.707459 C383.286622,166.64577 395.221693,150.383709 404.33213,135.735749 C393.670133,129.077585 382.809219,122.621184 371.78917,116.245487 C362.241113,131.861908 352.533922,147.316919 342.58803,162.650872 C335.148503,174.151336 325.839147,185.732506 313.705159,190.655512 C301.610953,195.538166 306.464549,213.575737 308.294593,217.32852 C324.486506,201.994567 346.009417,208.168501 354.045698,200.905049" id="Fill-602" fill="#A9CF77"></path>
            <path d="M328.173049,638.092669 C321.839479,649.58303 330.951648,666.61769 334.670066,680.438264 L335.895919,690.1207 L335.69161,690.84387 C344.762917,693.656196 353.915947,695.906057 363.109839,697.472924 C363.273286,691.76792 363.886212,686.02274 362.823807,680.438264 C361.883987,675.496605 359.554868,670.916531 358.165568,666.055225 C354.569735,653.600638 357.511781,639.498832 365.806714,629.454811 L368.953069,624.63368 C362.129158,624.312271 355.305246,623.348045 348.685644,621.66065 C342.474659,627.767415 334.465758,626.602308 328.173049,638.092669" id="Fill-603" fill="#A9CF77"></path>
            <path d="M426.30832,394.223827 C438.045298,391.48501 451.294157,387.094849 458.575061,369.936971 C468.641011,346.213989 479.303757,322.289624 497.565698,304.245658 C507.353143,294.538971 518.493325,286.201693 527.485043,275.770025 C531.781971,270.775713 535.561675,265.17725 538.267148,259.135744 C530.429234,246.649964 521.755807,234.526675 512.286653,222.846429 L507.432716,217.32852 C499.117366,219.825676 492.791334,227.35742 489.170775,235.453039 C485.231925,244.273638 483.720043,253.980325 480.775852,263.203692 C477.314439,274.158957 471.744348,284.429517 464.50323,293.290393 C452.567321,307.870562 430.088025,308.112222 424.637293,323.215988 C418.231689,340.978017 393.206066,333.96987 381.588448,357.491468 C404.147316,353.101307 413.974548,349.63751 433.270934,337.0309 C438.164657,333.808763 444.490689,330.264412 449.463984,333.405996 C455.869589,337.51422 452.766252,347.502844 448.946761,354.148501 C440.273334,369.33282 434.981748,379.039507 426.30832,394.223827" id="Fill-604" fill="#A9CF77"></path>
            <path d="M596.221477,445.724822 C596.141208,442.008334 595.900401,438.332687 595.699729,434.65704 C579.284755,439.272019 563.311259,448.951224 546.896284,454.750579 C534.013138,459.283877 520.487841,456.874286 507.203351,460.141528 C492.714828,463.694654 478.507246,473.333018 464.981949,479.744981 L465.543831,484.523322 C484.567543,488.117288 504.995958,476.191855 525.143433,476.232695 C530.240503,476.232695 535.337574,477.008665 540.354375,476.396057 C546.374537,475.701769 552.113758,473.006294 558.174054,473.006294 C567.164162,473.087975 575.15091,479.132373 584.06075,480.48011 C587.913653,481.051877 591.88696,480.806834 595.699729,481.541964 C596.34188,469.412327 596.582686,457.364372 596.221477,445.724822" id="Fill-605" fill="#A9CF77"></path>
            <path d="M550.569353,557.356296 L547.408116,551.693855 C544.847114,547.730146 539.845157,546.314536 535.283372,545.222493 C511.554086,539.519606 487.064504,533.816719 463.015093,536.364818 L462.454874,539.519606 C471.498412,542.067705 480.101779,546.112306 487.344613,552.098315 C495.827933,559.095474 502.390501,568.640732 512.114306,573.817821 C519.917359,577.98376 529.881258,579.480262 534.723153,586.922327 L539.084859,594.485731 C543.886738,600.06728 553.010308,599.137022 558.652516,603.788312 L561.413597,606.498195 C568.416337,593.879041 574.138576,580.370074 578.700361,566.213971 C571.657605,564.434347 564.654865,562.614277 557.652125,560.834652 L550.569353,557.356296" id="Fill-606" fill="#A9CF77"></path>
            <path d="M290.711994,592.246619 C283.406288,594.543618 277.795828,600.246511 270.934116,603.612802 C262.29643,607.889973 251.640594,608.523627 244.577066,615.018589 L242.599278,617.474002 C248.492278,626.978824 255.192539,636.048009 262.619334,644.404332 L265.202567,641.552885 L270.126855,636.919284 L276.584938,633.909424 C283.809918,630.701546 284.375,613.315642 289.985459,607.810766 L299.551494,598.26634 L300.722022,597.038634 L294.304302,591.33574 L290.711994,592.246619" id="Fill-607" fill="#A9CF77"></path>
            <path d="M382.422534,265.383073 C380.386414,271.961492 369.726729,273.926996 366.173501,290.934617 C363.458675,304.171681 340.542349,301.764942 333.715359,320.938628 C358.627881,315.563578 370.006197,320.176494 386.335077,298.756518 C395.517577,286.682712 405.099317,292.458885 405.259012,277.617329 C405.418708,265.744083 406.45673,256.518251 409.01186,251.905335 C425.500436,222.222222 453.766567,209.667068 482.67148,193.301243 C470.53461,181.949458 457.67911,171.520257 444.304599,161.732852 C431.648719,168.311272 420.549871,177.858002 412.525164,189.691135 C401.386393,206.016847 395.317958,226.795026 379.068925,238.026474 C362.380729,249.538708 339.464403,247.65343 321.977729,258.002407 C310.878881,264.580826 303.093718,275.451264 295.66787,286.040915 C311.956827,279.02126 323.095599,270.357 338.626001,273.926996 C354.196327,277.456879 366.892131,263.858805 382.422534,265.383073" id="Fill-608" fill="#A9CF77"></path>
            <path d="M518.731779,360.959806 C497.367364,363.785957 498.371331,385.121405 493.311338,391.649415 C486.524522,400.287087 475.962791,401.202601 466.485344,406.775293 C459.979639,410.596567 456.00393,420.826437 449.819495,424.926345 L451.024255,427.075812 C471.103592,421.702145 491.303405,415.53238 507.607826,402.914213 C515.719878,396.704643 522.827963,388.902874 532.265252,384.84277 C545.437297,379.230274 560.536958,381.976815 574.833446,383.409793 C579.371376,383.887452 584.110099,384.086477 588.808664,383.887452 C585.355018,366.731523 580.616295,349.933838 574.71297,333.574007 C568.247423,335.524449 561.942512,338.43021 555.838393,341.41558 C547.927134,345.316465 540.056034,358.093851 518.731779,360.959806" id="Fill-609" fill="#A9CF77"></path>
            <path d="M463.774031,634.667327 L463.124922,624.784053 C462.191827,620.73353 458.986851,617.655133 455.944153,614.860273 L436.024618,596.389892 L432.129964,600.359403 C435.618925,609.999646 439.107886,619.639889 442.637417,629.239627 C444.016774,633.047118 445.39613,636.935619 445.680116,640.986141 L446.00467,650.464363 C447.384027,658.605913 454.808212,664.074118 460.934179,669.582828 C466.573314,674.605476 471.56334,680.640754 474.971162,687.364621 C481.908515,684.772287 488.805299,681.896416 495.661514,678.615493 C500.164708,676.428211 505.235872,672.944762 510.469314,668.772724 C498.420227,661.198247 486.37114,653.623771 474.362622,646.008789 C469.859428,643.213929 464.99111,639.851995 463.774031,634.667327" id="Fill-610" fill="#A9CF77"></path>
            <path d="M339.133574,567.176895 L341.519134,562.284477 C343.98556,557.311191 344.713357,551.690975 345.400722,546.192058 L344.430325,539.68231 L337.314079,539.884477 C329.308303,544.372563 322.272924,550.558845 316.693141,557.836823 C321.34296,561.677978 327.044043,564.46787 332.866426,566.044765 L339.133574,567.176895" id="Fill-611" fill="#A9CF77"></path>
            <path d="M382.810383,520.6787 C374.970029,526.420217 369.312042,518.697473 362.482043,518.333574 C361.754587,522.619495 360.501747,526.298917 358.844765,529.290975 C359.208493,529.533574 363.532812,536.043321 375.091272,536.002888 C386.690145,535.962455 382.972039,542.633935 386.932631,548.092419 C393.843458,540.369675 399.097303,531.191336 401.805054,521.406498 C395.298369,521.770397 390.610322,514.977617 382.810383,520.6787" id="Fill-612" fill="#A9CF77"></path>
            <path d="M362.645487,485.05704 L367.537906,475.231769 C373.845487,470.905415 379.384838,470.541516 384.560289,467.751625 C378.778339,462.65704 372.309025,458.290253 365.233213,454.651264 C362.645487,459.907581 358.197834,460.675812 353.628881,468.07509 C350.71769,472.805776 351.243321,479.679422 348.291697,484.369675 L355.771841,490.47509 L362.645487,485.05704" id="Fill-613" fill="#A9CF77"></path>
            <path d="M265.948811,465.379061 C272.201615,474.592058 278.985702,483.487365 286.219337,492.025271 L286.914093,492.779783 C289.979192,487.935018 293.49384,484.00361 297.498903,480.98556 L293.984256,478.086643 C290.673948,475.068592 288.140132,470.184116 290.347004,466.371841 L293.575576,462.758123 C297.539771,458.509025 298.724943,452.274368 297.989319,446.555957 L295.414635,437.184116 C284.339409,437.303249 273.386786,439.01083 263.12892,443.220217 L252.707581,448.541516 L256.876117,452.830325 C260.26816,456.761733 263.047184,461.090253 265.948811,465.379061" id="Fill-614" fill="#A9CF77"></path>
            <path d="M218.664389,39.2569297 C129.07487,29.9185763 90.2913548,69.2932783 67.284862,102.401986 C58.8571363,114.570143 50.6690616,122.817001 42.9602888,128.880866 C49.0713885,127.951074 55.0227208,125.565953 60.2551003,122.25104 C68.443175,117.116967 75.3531112,110.20416 82.5426402,103.69561 C110.182385,78.6720575 144.292706,58.7421518 181.358722,56.9634179 C197.015919,56.235754 212.752999,58.7421518 228.330312,56.9229921 C232.723913,56.397457 237.117514,55.5080901 240.991871,53.3655241 L250.458084,45.6037759 C275.861087,21.631293 309.172571,6.7546089 343.68231,2.99501209 C324.430349,-5.1305681 282.012128,2.10564511 218.664389,39.2569297" id="Fill-615" fill="#76C2B4"></path>
            <path d="M447.631131,177.116067 C446.903333,176.347836 438.93799,170.242421 435.096835,173.396211 C426.686727,180.269858 438.695391,190.62076 446.499001,191.348558 C454.262178,192.116789 452.240517,184.191879 451.27012,181.887186 L447.631131,177.116067" id="Fill-616" fill="#C0D986"></path>
            <path d="M414.346831,149.727185 C413.6999,149.444152 404.804593,145.441264 402.257301,149.525019 C399.710008,153.56834 406.300622,158.420325 407.351886,159.309856 L412.729503,160.603719 L414.629864,160.11852 L416.408925,157.97556 L417.09629,153.366174 L414.346831,149.727185" id="Fill-617" fill="#93CDB6"></path>
            <path d="M372.432092,142.178982 C369.6422,140.925552 362.566388,137.043964 358.846532,141.734216 C355.086244,146.384036 363.900684,155.279343 363.900684,155.279343 L371.097796,158.716166 L378.335341,155.360209 L379.993103,151.519054 L379.144005,148.163097 L372.432092,142.178982" id="Fill-618" fill="#C0D986"></path>
            <path d="M347.95061,113.303603 L339.621368,110.918044 L338.650971,111.12021 C337.721007,111.645841 333.59682,118.398188 342.653859,121.18808 C347.303679,122.603242 350.012704,119.772917 350.45747,118.236455 L347.95061,113.303603" id="Fill-619" fill="#93CDB6"></path>
            <path d="M387.028535,179.518362 C383.551278,183.27865 392.123119,190.960961 396.045141,190.314029 L397.177271,189.788398 L396.570773,187.119806 C394.346946,184.41078 390.505791,175.798506 387.028535,179.518362" id="Fill-620" fill="#93CDB6"></path>
            <polyline id="Fill-621" fill="#C0D986" points="419.8787 211.101805 425.781949 218.501083 429.218773 217.32852 429.05704 214.740794 419.8787 211.101805"></polyline>
            <path d="M328.737817,152.817329 L325.260561,148.288809 L319.599911,148.693141 C315.55659,151.604332 321.338539,159.367509 323.117601,160.01444 L328.616518,159.569675 L328.737817,152.817329" id="Fill-622" fill="#93CDB6"></path>
            <path d="M482.595436,212.081195 C479.522512,210.827765 469.495075,208.482639 467.432981,215.598884 C465.370887,222.71513 476.570887,228.982278 478.552115,229.022711 C479.967277,229.063144 484.65753,228.780112 487.609154,222.270364 L488.05392,219.642206 L482.595436,212.081195" id="Fill-623" fill="#93CDB6"></path>
            <polyline id="Fill-624" fill="#C0D986" points="512.976173 244.499639 507.477256 235.644765 502.908303 235.968231 505.415162 242.963177 512.976173 244.499639"></polyline>
            <path d="M517.489396,261.572468 C516.114666,260.96597 510.615749,259.106042 507.21936,264.685825 C503.82297,270.306042 506.815027,277.907486 512.839576,280.010013 L522.745713,279.646114 L525.252573,271.599905 C524.888674,270.710374 523.877843,264.402793 517.489396,261.572468" id="Fill-625" fill="#C0D986"></path>
            <polyline id="Fill-626" fill="#93CDB6" points="543.867148 293.828159 541.11769 298.680144 545.28231 302.561733 550.376895 301.065704 550.579061 300.054874 550.255596 299.448375 543.867148 293.828159"></polyline>
            <polyline id="Fill-627" fill="#93CDB6" points="532.748014 320.352347 532.101083 319.867148 530.847653 324.597834 533.597112 327.06426 535.578339 325.891697 535.33574 324.516968 532.748014 320.352347"></polyline>
            <path d="M506.080093,303.974529 C500.823775,299.284277 499.529912,306.683555 500.702475,310.40341 C501.834605,314.163699 508.425219,314.284999 509.072151,314.082833 L510.527746,311.454674 L509.153017,308.543483 L506.080093,303.974529" id="Fill-628" fill="#93CDB6"></path>
            <path d="M473.45111,254.194556 C469.286489,253.749791 467.264828,260.097805 467.264828,260.097805 L470.459052,266.405387 L477.130532,264.019827 L477.85833,261.108636 C477.898763,258.39961 477.615731,254.679755 473.45111,254.194556" id="Fill-629" fill="#93CDB6"></path>
            <polyline id="Fill-630" fill="#93CDB6" points="441.166787 243.953791 435.991336 246.986282 439.145126 251.353069 442.218051 250.86787 443.431047 249.533574 441.166787 243.953791"></polyline>
            <path d="M466.763916,297.507581 L464.742255,298.397112 C464.742255,298.397112 463.731425,301.874368 467.410847,303.572563 L468.82601,303.936462 L470.402905,301.510469 L468.745143,298.841877 L466.763916,297.507581" id="Fill-631" fill="#C0D986"></path>
            <path d="M567.922246,346.573285 L564.202391,341.963899 L560.806001,342.044765 C550.172066,343.86426 562.018997,359.026715 563.757625,359.956679 L567.154015,360.563177 C573.865929,360.077978 569.054376,349.40361 567.922246,346.573285" id="Fill-632" fill="#C0D986"></path>
            <polyline id="Fill-633" fill="#C0D986" points="530.605054 360.098195 527.693863 364.06065 531.93935 367.699639 533.07148 367.659206 533.677978 367.052708 532.950181 362.160289 530.605054 360.098195"></polyline>
            <path d="M561.440018,387.275212 C560.510054,386.709147 552.221245,385.98135 553.676841,393.218895 L555.05157,396.008786 L558.56926,396.453552 L562.208249,394.512758 L563.461679,392.571963 L563.299946,390.954635 L561.440018,387.275212" id="Fill-634" fill="#93CDB6"></path>
            <path d="M582.719046,422.13276 L581.142151,421.809294 C573.015075,421.283663 580.737819,431.270666 581.991248,431.917598 L583.52771,432.362363 L584.983306,430.866334 L582.719046,422.13276" id="Fill-635" fill="#93CDB6"></path>
            <path d="M560.497405,463.954692 L561.103903,463.590793 L563.449029,459.345305 L562.559499,456.191515 C558.030979,454.048554 557.384048,464.237724 560.497405,463.954692" id="Fill-636" fill="#C0D986"></path>
        </g>
    </g>
</svg>