<?xml version="1.0" encoding="UTF-8"?>
<svg width="720px" height="720px" viewBox="0 0 720 720" version="1.1" xmlns="http://www.w3.org/2000/svg" xmlns:xlink="http://www.w3.org/1999/xlink">
    <title>img_m</title>
    <g id="img_m" stroke="none" stroke-width="1" fill="none" fill-rule="evenodd">
        <g id="monkey" transform="translate(48.000000, 26.000000)">
            <path d="M46.7356834,435.948947 C28.3293079,434.288766 25.934786,420.498552 25.668728,414.098821 C24.9673024,398.594872 31.9089972,390.026195 43.6397359,381.511073 C55.3462874,372.969173 77.3565394,374.682908 96.7545856,386.063182 C169.654475,428.879789 223.857744,481.523597 223.857744,481.523597 C202.984285,528.142554 164.333315,599.423234 148.321462,594.174919 C132.285421,588.926605 143.967785,551.38509 161.866232,542.628973 C121.207734,565.657292 102.970668,564.023888 89.7403295,560.542863 C76.4858041,557.061838 64.5131946,545.81545 61.5139954,531.114814 C59.2162218,519.73454 63.4005884,506.961856 71.5032636,499.919475 C57.0393837,507.631284 20.7829358,519.386437 4.91620472,497.241763 C-10.8295909,475.257752 22.6695288,444.705064 46.7356834,435.948947" id="Fill-983" fill="#A1CC76"></path>
            <path d="M436.178796,452.256343 C439.364882,450.088818 442.443873,446.556555 445.362221,442.301784 C455.134672,463.709439 456.259173,495.446288 479.472089,494.322386 C508.709118,492.930889 487.8523,414.418313 545.282178,415.060542 C588.548698,415.568974 607.986503,479.872219 613.849973,538.448916 C617.384119,573.58423 610.637112,679.980277 528.602078,657.314922 C509.110725,651.936248 499.284728,629.913123 499.418597,609.709648 C499.79343,556.19051 543.434784,567.96472 548.2273,576.929176 L549.860504,583.431751 L545.094761,587.25837 C543.702522,586.937255 528.361114,584.368336 524.960837,601.976133 C521.988941,617.202327 525.817599,634.997441 541.292877,636.2819 C586.969041,640.02824 587.825804,575.724995 584.693265,544.817693 C579.63301,495.205452 565.148365,440.990565 541.828353,440.348335 C517.705127,439.652586 536.580681,523.543836 477.142765,520.867879 C445.951246,519.449622 435.830736,486.294515 423.327354,459.641985 C427.69149,457.340662 432.055625,455.066098 436.178796,452.256343" id="Fill-984" fill="#B24065"></path>
            <path d="M211.992996,455.416531 C286.067249,460.850826 360.479503,457.718745 434.683757,454.559894 C466.533866,453.221397 498.513975,451.856131 529.948083,446.341526 C556.312173,441.737099 590.814291,430.76143 615.462375,420.133769 L623.028401,450.464095 C593.284299,467.570078 560.342186,478.733137 526.542071,483.150174 C509.590013,485.372078 492.507955,485.934247 475.425896,486.469645 C349.195465,490.485134 103.312625,486.148406 75.336529,466.124502 C68.9665072,461.573614 162.930828,451.802591 211.992996,455.416531" id="Fill-985" fill="#593E42"></path>
            <path d="M531.639786,445.519495 C526.805661,453.367831 525.019136,468.875712 520.710459,483.844188 C510.858302,485.030878 500.927327,485.705134 491.022624,486.136657 C495.85675,477.425274 497.905998,463.373786 501.978224,449.996553 C510.359126,449.025625 518.687483,447.892875 526.989568,446.436483 L531.639786,445.519495" id="Fill-986" fill="#B24065"></path>
            <path d="M335.87018,246.120735 C373.117455,249.775244 402.475178,238.489262 424.748404,223.817486 C436.046029,245.771407 468.677648,321.118769 463.364276,387.195503 C461.458976,410.654222 449.195283,443.491054 435.348314,452.976652 C413.155593,468.185856 386.883919,476.0323 360.075542,473.963204 C304.285134,469.690653 287.647302,431.237702 277.23524,409.015067 C270.070238,393.698378 267.628233,362.823158 267.628233,345.921057 C267.628233,292.60823 288.747546,251.011327 301.762624,232.174487 C312.469874,240.155288 323.955345,244.965266 335.87018,246.120735" id="Fill-987" fill="#BF7E68"></path>
            <path d="M271.601394,26.3309561 C282.828112,16.9869361 320.678191,4.29620405 328.590355,3.01106663 C380.901516,-5.34232663 434.255158,5.90262583 469.084715,45.8757544 C514.339082,97.7631779 491.057007,157.3882 460.397374,191.015962 C439.120069,214.362625 398.543502,251.3371 335.326386,245.125602 C300.256256,241.698569 268.634333,207.267596 250.37755,149.463186 C235.916468,103.680165 233.24344,58.2719758 271.601394,26.3309561" id="Fill-988" fill="#C6886E"></path>
            <path d="M271.703895,82.9240324 C273.367583,65.5451114 288.770111,32.5116895 318.072481,34.3438858 C347.348017,36.2030262 360.442849,54.4980453 367.634273,68.8322871 C393.528767,50.106163 415.344542,53.1777862 422.750635,55.198591 C463.725653,66.2995452 464.28916,95.8841269 463.886655,116.738832 C463.188979,152.978598 427.070857,191.427776 395.246122,206.893669 L395.863296,202.744283 C399.781012,179.168227 389.933054,144.868434 353.65393,141.958476 C317.374805,139.021573 307.741517,156.831599 303.984803,165.103426 C301.677107,170.195854 300.550093,175.692443 300.09392,180.919592 C288.609109,166.693126 279.244157,144.868434 276.131451,136.057726 C270.49638,120.214616 270.389045,96.4499523 271.703895,82.9240324" id="Fill-989" fill="#AA3A5E"></path>
            <path d="M352.913478,142.652676 C316.677838,139.723968 307.056096,157.484299 303.303885,165.733046 L303.116274,166.243555 C290.975191,150.01475 282.371906,122.097982 282.881135,103.612191 C283.792386,70.8858925 299.203254,48.5847204 321.100087,47.8323917 C343.023721,47.0531941 353.235096,66.5062647 359.989077,92.2466537 C372.532183,80.7736411 393.758978,62.1803747 417.58552,68.1452665 C448.407255,75.8835046 450.497773,105.600488 444.06541,132.039468 C436.534186,162.99242 407.508152,183.224688 395.822694,195.046997 C396.439129,172.504004 385.102091,145.20522 352.913478,142.652676" id="Fill-990" fill="#F6C79F"></path>
            <path d="M485.945479,69.5556898 C500.970633,60.17787 527.978213,47.3802185 547.311656,73.189261 C558.863253,88.6052211 559.778764,112.410456 558.028522,120.372252 C549.815848,157.643074 513.276181,155.772854 490.926937,141.879787 C498.062539,119.356989 498.38566,94.1624477 485.945479,69.5556898" id="Fill-991" fill="#BF7E68"></path>
            <path d="M180.14026,52.7561164 C183.745077,43.4460836 192.263124,35.4469463 201.849264,32.6646376 C224.679767,25.9763957 240.407446,39.5133974 252.396798,50.6426319 C239.980209,72.4998065 239.205841,97.9151258 244.466202,124.347058 C231.301948,126.246519 212.102964,126.754825 201.261813,121.190208 C174.612876,107.546194 172.396581,72.7405832 180.14026,52.7561164" id="Fill-992" fill="#BF7E68"></path>
            <path d="M303.924016,164.121696 C307.666293,155.933583 317.26256,138.303803 353.402261,141.210983 C389.541963,144.091492 399.352074,178.044154 395.449414,201.381609 C394.086156,209.596393 392.562515,240.508518 343.725803,235.014214 C307.693023,230.986837 301.70538,201.888365 300.743081,196.474075 C299.353092,188.526005 298.791751,175.403688 303.924016,164.121696" id="Fill-993" fill="#EAB17B"></path>
            <path d="M57.9686778,391.180383 L56.8577437,385.739586 C57.2441555,382.121322 60.5528074,379.869957 63.6199517,378.583464 C79.7043466,371.775767 116.799888,378.369048 140.684973,408.199626 C134.188423,398.175694 131.555992,379.521532 142.786088,377.109356 C153.992032,374.723982 188.817404,405.841053 201.206735,424.682829 C194.009814,412.64875 188.35854,399.48899 184.446119,385.712784 C188.430992,382.630559 193.695854,386.516843 197.12526,390.349522 C213.547765,408.708863 229.438954,433.902702 238.857744,457.542028 C238.857744,457.542028 202.824835,485.014033 122.571916,482.601857 C112.863317,482.333837 73.6425101,483.45952 72.33837,465.770228 C71.0342299,448.054135 97.5034443,441.085626 101.536618,441.300042 C82.3367776,430.900883 66.4455887,412.970374 57.9686778,391.180383" id="Fill-994" fill="#5DB45B"></path>
            <path d="M294.169773,582.229608 C298.99302,578.54674 309.359003,572.862314 317.486573,577.692742 C323.322435,581.135423 322.842775,596.000331 318.286006,611.799301 C313.249577,629.306267 314.022363,648.681354 305.255246,649.828915 C302.084161,650.229226 301.950922,643.984363 301.73774,640.78187 C300.645181,644.918424 297.127676,650.629538 292.837384,650.282601 C290.359142,650.095789 288.094081,642.916865 290.092664,639.233998 C288.120729,642.249679 284.843053,648.387792 280.419523,646.94667 C275.995993,645.532235 278.714066,634.430257 280.09975,631.254451 C278.207758,634.750506 274.503718,638.193187 271.066155,636.191629 C263.897905,632.028387 280.232989,592.957962 294.169773,582.229608" id="Fill-995" fill="#B24065"></path>
            <path d="M306.950898,452.289022 C314.725868,459.281346 324.54409,465.232828 337.015885,469.156002 C327.807985,478.657021 321.837445,491.494074 318.679693,504.73145 C307.879649,549.78123 322.262017,593.523285 310.267865,599.714961 C304.217718,602.837487 296.469283,600.862556 291.692851,595.951916 C286.942955,591.041277 275.718339,539.532938 284.315917,491.467385 C287.049098,476.22839 295.938569,463.604844 306.950898,452.289022" id="Fill-996" fill="#BF7E68"></path>
            <path d="M365.786375,655.462965 C366.539142,640.324435 369.738403,625.293845 375.195965,611.153757 C378.959801,601.466177 384.282941,591.616688 393.423685,586.651466 C398.18225,584.060916 404.419464,583.143429 408.801644,586.300663 C411.516983,588.27056 413.103171,591.508749 413.936592,594.773922 C415.81851,602.1408 414.474283,609.912451 413.130056,617.387269 C411.97402,623.917615 411.785829,664.448937 407.457417,665.204515 C403.15589,665.960092 401.354626,662.559994 399.553361,658.512259 C399.741553,660.99487 397.940289,667.633156 394.176453,667.201397 C390.439501,666.742654 390.009348,661.939342 389.821157,660.293263 C388.799544,662.209191 385.116361,666.337881 381.67514,665.960092 C378.233918,665.582303 379.01357,655.43598 379.389954,651.846988 C378.12638,655.220101 373.529123,663.909239 372.399972,664.475922 L366.727334,662.128236 L365.786375,655.462965" id="Fill-997" fill="#B24065"></path>
            <path d="M436.143741,452.454064 L440.251172,448.904259 C426.685842,473.832968 416.174063,499.509005 412.255791,527.427024 C407.797067,559.295202 409.418421,550.353963 411.310001,582.462354 C411.742362,589.828868 412.03961,597.809257 407.851112,603.921328 C403.635591,610.06009 393.042744,612.141931 388.989359,605.923098 L387.124802,601.09216 C373.100088,547.177821 375.613187,517.231342 388.151659,471.911269 C405.229923,468.975339 421.551554,462.302773 436.143741,452.454064" id="Fill-998" fill="#BF7E68"></path>
            <path d="M323.893502,186.686805 C331.719076,185.288542 338.569837,198.625817 338.2449,207.042282 C338.163665,208.709441 339.707117,217.045237 331.827388,218.631728 C329.22789,219.169521 327.034563,217.60992 324.814158,216.157879 C317.936319,211.640415 316.067929,188.085068 323.893502,186.686805" id="Fill-1003" fill="#17111C"></path>
            <path d="M421.339677,114.46867 C416.702206,122.917039 407.960307,129.605332 398.045714,128.495129 C386.37208,127.141224 381.068305,115.822575 379.362569,105.262113 C378.88283,102.391833 383.200476,101.14624 383.680214,104.043598 C385.119429,112.871061 389.010641,123.404445 399.298364,124.027242 C407.214047,124.541726 413.823776,118.828245 417.448466,112.16703 C418.861029,109.621688 422.725588,111.896249 421.339677,114.46867" id="Fill-1004" fill="#17111C"></path>
            <path d="M340.178472,101.624003 C336.688775,109.422498 328.410888,116.381571 319.862482,117.54593 C306.823458,119.306007 300.79088,106.470984 298.166844,95.8292874 C297.463494,92.9860861 301.872957,91.7675712 302.549255,94.6107726 C304.821616,103.817329 309.880324,115.894165 321.431493,112.563558 C327.815746,110.722247 333.577804,105.333703 336.228892,99.3223634 C337.446229,96.6416307 341.368757,98.9703479 340.178472,101.624003" id="Fill-1005" fill="#17111C"></path>
            <path d="M199.267117,67.2917338 C202.105494,62.8781277 206.917218,59.8205089 212.08036,58.5974614 C219.973751,56.7894782 228.245592,59.1026332 235.652404,62.3729559 C239.085488,63.8884712 242.410444,65.6166905 245.627271,67.5576137 C242.545604,77.6078735 241.410254,88.1898931 241.73464,99.1175565 C232.651834,102.733523 222.406645,103.212107 213.810419,98.7719127 C209.079791,96.3258177 205.133095,92.5769112 201.700011,88.482361 L197.699251,82.3405355 C195.671839,77.5015215 196.401708,71.731928 199.267117,67.2917338" id="Fill-1006" fill="#E98E84"></path>
            <path d="M492.715006,91.0058488 C507.871622,81.546234 526.048774,84.4169263 532.008938,92.1267858 C535.865515,97.1573324 538.346669,104.511773 535.460979,112.631731 C532.386505,121.325828 525.104857,125.946276 506.010757,125.645537 C501.399046,125.563517 497.731253,124.606619 494.144367,123.266963 C495.411913,112.768431 495.115253,101.91448 492.715006,91.0058488" id="Fill-1007" fill="#E98E84"></path>
            <path d="M147.757914,276.764001 C151.359655,272.134277 158.96333,277.566844 164.43264,280.135939 C157.896147,273.632916 146.79745,261.857896 149.358688,258.111298 C151.546412,254.899929 158.749893,259.315562 163.685612,262.767784 C160.430706,257.709877 154.481164,242.77701 158.803253,240.87695 C165.766618,237.852911 190.151736,286.371348 226.782773,288.592545 C250.927776,290.064422 267.415744,282.383898 279.474906,274.382236 C275.179496,286.344586 271.471037,299.966144 269.256634,314.952534 C256.557163,320.411862 241.323134,324.666926 225.422116,323.462662 C185.69625,320.492146 143.569223,282.116283 147.757914,276.764001" id="Fill-1008" fill="#BF7E68"></path>
            <path d="M182.459889,215.355578 C179.616688,216.189339 176.692252,216.431399 173.821973,216.081757 C173.71366,230.06744 172.684692,257.662269 172.197286,263.92893 C171.276631,275.843657 168.893757,312.287119 172.170208,323.771517 L174.471847,327.052773 L178.668954,323.798412 C187.117324,305.482546 185.465559,286.359814 184.73445,262.449676 C184.301201,248.195037 181.701702,230.228814 182.459889,215.355578" id="Fill-1009" fill="#B1C9DE"></path>
            <path d="M166.751764,175.638652 C171.069861,168.694745 180.866545,164.452748 186.588024,172.342323 C189.448764,176.314129 190.447324,182.015158 190.879133,186.770518 C191.364919,191.850107 191.041062,197.443059 188.180323,201.87419 C183.21451,209.466555 171.36673,211.033662 167.507431,201.901209 C164.160905,193.957596 163.297286,183.501208 166.751764,175.638652 Z M163.270298,211.601063 C172.257338,221.51707 189.340811,216.788729 195.683017,206.278302 C201.91727,195.957009 200.864734,180.312955 195.305183,169.991662 C186.830917,154.29357 167.777312,157.481822 159.249069,171.23454 L158.601355,173.044819 C154.337233,184.500914 154.688079,202.198419 163.270298,211.601063 L163.270298,211.601063 Z" id="Fill-1010" fill="#A8DBEC"></path>
            <path d="M29.4719202,144.401244 C32.7048316,137.560242 41.2012433,123.339576 46.3845888,117.818295 C65.9423666,97.0798237 104.657148,100.419526 125.898177,119.407346 C132.310564,125.144092 143.799422,143.808716 150.158372,149.626261 C156.490603,155.38994 168.674137,168.048488 177.250704,167.940755 C180.189714,167.80609 183.075288,168.964212 185.346341,172.115383 C188.178478,176.074545 189.167055,181.757425 189.594547,186.497647 C190.075476,191.561066 189.754857,197.136213 186.922719,201.553238 C184.598229,205.108405 180.777516,207.289984 176.983521,207.69398 L176.983521,208.205709 C152.910354,219.221338 117.855976,240.22914 91.6453479,243.595775 C80.6641366,245.023228 63.6713132,243.568842 53.4649318,239.232616 C39.3309639,233.199606 27.0138388,216.097101 25.1435595,200.745246 C23.2465619,185.393391 22.8190695,158.379512 29.4719202,144.401244" id="Fill-1011" fill="#F6D3DD"></path>
            <path d="M64.6747444,193.354615 C55.5847999,193.354615 45.7103066,190.31571 42.2474707,182.238619 C40.7054265,178.613259 40.7054265,174.561385 41.003014,170.642797 C41.7875628,160.72637 44.4929034,150.756628 50.2823323,142.599567 C56.0447078,134.415848 65.1887591,128.258067 75.2796796,127.431698 C76.0912818,127.378384 76.9299373,127.351727 77.7415395,127.351727 C82.0971379,127.351727 86.3986295,128.204753 90.5919075,129.430978 C97.5446328,131.456914 104.443251,134.629105 109.231704,140.013832 C114.020157,145.425215 116.373804,162.832278 108.420102,172.722048 C103.848076,178.400002 98.356235,183.358216 91.8093107,186.637035 C84.2073036,190.448995 75.7936943,192.741502 67.2718713,193.274644 C66.4332158,193.327958 65.5675068,193.354615 64.6747444,193.354615" id="Fill-1012" fill="#FDEEF1"></path>
            <path d="M60.0104343,221.732472 C57.1672329,221.732472 53.6200008,220.541035 50.8309557,216.560553 L51.1017367,209.16823 C52.6181108,207.056137 55.2717654,205.891779 57.8983418,205.756388 C58.7106851,205.702232 59.7125751,205.59392 60.7686213,205.59392 C63.0702605,205.59392 65.6156026,206.135482 67.2673672,209.032839 C69.6231626,213.284102 66.4279459,219.024661 64.4783221,220.513957 C63.693057,221.136754 62.0142143,221.732472 60.0104343,221.732472" id="Fill-1013" fill="#FDEEF1"></path>
            <path d="M425.188419,133.330472 C431.17272,131.638113 437.65791,132.484293 443.536761,134.573298 L447.649321,136.477202 C451.788243,139.174398 454.055424,144.330804 453.765435,149.275664 C453.50181,154.220525 450.153764,160.275996 446.884807,164.030917 C440.188716,171.699417 424.133916,176.088973 414.696119,163.026079 C413.008915,160.699086 412.244401,157.816787 411.8226,154.987375 C411.374436,151.867089 411.268986,148.64103 412.112588,145.600073 C413.799792,139.571045 419.177755,135.049274 425.188419,133.330472" id="Fill-1016" fill="#E98BA1"></path>
            <path d="M269.524945,128.76699 C270.240245,123.999345 273.101442,119.443595 277.393238,117.271668 C282.532795,114.702437 297.898484,113.775395 305.528343,122.75446 C311.436186,129.720519 312.999247,141.05692 300.044382,149.585707 C290.560043,155.836619 277.446223,152.39332 272.306665,142.752082 C270.028304,138.487689 268.809646,133.561122 269.524945,128.76699" id="Fill-1017" fill="#E98BA1"></path>
            <path d="M345.289874,149.624075 C350.624262,149.488685 350.895043,160.753178 350.759652,165.356456 C350.678418,168.091345 349.974387,170.988702 347.916451,172.775858 L340.76783,172.288452 L340.172112,167.549783 C340.551205,163.352676 339.955487,149.786544 345.289874,149.624075" id="Fill-1018" fill="#17111C"></path>
            <path d="M315.30009,163.809239 C317.385104,159.476742 325.941787,146.127234 330.572143,148.889201 C335.202499,151.651168 329.624409,166.598284 326.050099,169.116548 L321.555133,170.497531 L315.73334,168.547908 L314.623137,167.004456 L315.30009,163.809239" id="Fill-1019" fill="#17111C"></path>
            <path d="M311.528434,58.6710966 C315.075666,57.7775191 326.015222,58.1295345 327.802377,58.508628 L332.568124,62.8682034 C332.541046,65.6301704 329.210439,66.9840758 326.502628,67.4714817 C320.301741,68.6358404 307.141781,68.1213563 307.629187,62.1100163 L311.528434,58.6710966" id="Fill-1020" fill="#B88562"></path>
            <path d="M405.761319,75.6540423 C412.178831,74.2730588 424.715995,77.2516507 424.607683,82.1527882 C424.526448,87.0810039 412.639159,83.100522 407.46724,83.0192877 L402.051619,80.9071953 C400.860182,78.6597123 403.270133,76.1956045 405.761319,75.6540423" id="Fill-1021" fill="#B88562"></path>
            <path d="M303.025643,352.000236 C311.132081,343.384773 321.798447,338.969348 332.198154,334.984696 C346.917739,329.384644 362.70396,324.188443 377.690204,328.873101 C385.849974,331.430817 393.1831,336.788558 400.356231,342.06553 C407.316035,347.180961 414.409168,352.484856 419.395694,360.158003 C427.902121,373.242739 428.728764,391.954449 423.235586,407.11228 C417.715741,422.270111 407.316035,435.46254 393.983078,441.116438 C355.744156,457.324279 314.465321,446.366486 299.985729,425.393217 C285.479472,404.446871 285.959458,370.09271 303.025643,352.000236" id="Fill-1022" fill="#E19E90"></path>
            <path d="M447.840087,284.199165 C459.643034,325.506321 485.144878,383.672995 506.561085,405.929697 C521.515046,421.479997 548.298657,437.805141 544.880609,442.106857 C541.462561,446.408572 533.424807,443.977168 522.743407,434.8928 C528.911916,441.519045 537.56385,448.706383 534.519651,453.80966 C531.475452,458.886219 519.325359,451.404975 510.913756,443.603105 C515.586869,451.404975 524.29221,461.58481 515.693683,463.989496 C507.121859,466.394182 485.839169,438.446391 481.219463,430.778115 C465.571212,404.860948 431.043585,348.724897 420.255371,293.12322 C416.890729,275.756046 441.644875,262.476838 447.840087,284.199165" id="Fill-1023" fill="#C6886E"></path>
            <path d="M356.268391,401.717948 C358.407562,402.25951 361.277841,403.965431 361.088294,408.243772 C360.871669,412.495035 359.111592,415.365314 355.672673,415.28408 C353.479346,415.257002 345.626695,410.003849 346.926444,405.156867 C348.199115,400.309886 354.156299,401.176385 356.268391,401.717948" id="Fill-1024" fill="#995859"></path>
        </g>
    </g>
</svg>