<?xml version="1.0" encoding="UTF-8"?>
<svg width="720px" height="720px" viewBox="0 0 720 720" version="1.1" xmlns="http://www.w3.org/2000/svg" xmlns:xlink="http://www.w3.org/1999/xlink">
    <!-- Generator: Sketch 64 (93537) - https://sketch.com -->
    <title>img_o</title>
    <desc>Created with Sketch.</desc>
    <g id="img_o" stroke="none" stroke-width="1" fill="none" fill-rule="evenodd">
        <g id="opossum" transform="translate(110.000000, 10.000000)">
            <path d="M118.31089,373.101361 C146.805113,349.110165 152.515154,325.342925 163.54337,313.08138 C169.533315,306.39072 176.642875,299.560088 185.571812,298.804239 C195.676345,297.936413 205.053128,305.634871 208.999773,314.984999 C212.946419,324.335126 212.526563,334.917007 211.127044,344.966995 C208.803841,361.763631 194.668691,394.685039 171.128767,417.388492 L170.093123,418.956179 L164.467053,423.435282 C167.210112,423.015366 170.065132,423.379293 172.584268,424.499069 C167.462025,436.032759 154.754386,443.731217 142.130717,442.91938 C144.929757,444.599044 147.728796,446.250713 150.499845,447.930376 L143.72617,449.526057 C135.357041,449.442074 126.987913,448.994163 118.674765,448.126337 L124.132892,452.325496 C117.135293,453.613238 110.753483,448.322298 103.867845,446.530657 C101.012825,445.774808 97.905891,445.606842 95.358765,444.123139 L99.9771803,450.897782 C89.6767145,444.3191 21.3241671,442.331498 21.2121212,412.321507 C21.1282343,387.574463 83.7987313,402.131548 118.31089,373.101361" id="Fill-700" fill="#545654"></path>
            <path d="M120.272384,619.590005 C119.381285,616.92228 127.150559,613.782145 132.441463,613.087424 C129.684623,613.226368 123.084917,612.809536 123.94817,609.780557 C124.92281,606.473689 139.765187,603.41692 147.061065,602.777778 C139.486719,607.779763 137.175429,613.170791 138.428538,618.367297 C139.820881,624.091791 148.230633,626.537206 159.090909,626.20374 C154.273402,628.815888 146.810443,631.483613 142.160017,633.289886 L128.320127,634.59596 L134.585671,627.509814 C131.856679,628.399056 123.836782,631.233514 122.611521,627.732125 C121.55334,624.786511 126.454387,622.73014 131.160507,620.784923 C126.537928,622.313308 121.024249,621.868687 120.272384,619.590005" id="Fill-701" fill="#C37D7C"></path>
            <path d="M137.359692,619.538512 C135.058107,610.034457 144.488993,599.96969 175.841074,592.45616 C95.4259316,546.281591 92.4787798,469.408082 119.929394,449.166407 C163.968263,416.645156 195.320345,453.736203 211.571782,487.715303 C228.749467,523.628857 227.739015,582.98014 214.799615,602.240571 C198.548177,626.43526 141.233091,635.490746 137.359692,619.538512" id="Fill-702" fill="#545654"></path>
            <path d="M457.243247,621.620067 C450.320443,596.174467 412.775398,591.304899 381.818182,580.017636 L386.842798,573.459202 C394.882183,561.243062 401.218782,549.223956 406.299226,537.373737 C460.062615,557.921623 482.14301,584.014622 487.307198,591.755264 C493.057592,600.424783 496.630652,610.501691 498.780071,620.69119 C511.369525,680.927457 439.294203,704.93752 432.064339,699.167224 C425.560253,693.988031 468.911522,664.517296 457.243247,621.620067" id="Fill-703" fill="#D59985"></path>
            <path d="M182.460431,289.963888 C224.480421,291.282232 266.388434,286.962551 279.181995,285.560058 C276.970417,282.86727 274.450897,280.763529 270.279692,278.40734 C299.6181,275.209655 304.909091,268.505735 320.614098,266.430044 L312.551635,262.503062 C342.505925,251.703861 348.972693,245.39264 358.742831,238.380171 C356.251306,236.837428 353.535823,235.631284 350.736357,234.817838 C355.49545,232.237249 359.946601,229.320062 364.285774,226.262626 C361.31834,319.444304 476.992292,435.20613 385.281772,573.604204 C364.033822,605.637158 312.887571,619.044998 263.001079,611.191033 C149.790657,593.323264 130.726291,473.213708 145.983383,388.699441 C152.254188,353.917598 167.147349,319.500404 182.460431,289.963888" id="Fill-704" fill="#9C9EA1"></path>
            <path d="M145.979216,389.077536 C149.81146,367.743145 156.916496,346.576963 165.364216,326.560202 C174.539224,313.299798 198.036194,307.720897 210.819665,307.580724 C278.345482,306.739684 302.877438,412.963083 307.408997,441.58649 C311.856638,469.705273 317.311291,500.038796 306.933463,528.52203 C283.576355,592.665376 237.057948,598.945144 203.127204,587.591099 C143.293848,544.27752 133.951005,455.659899 145.979216,389.077536" id="Fill-705" fill="#D59985"></path>
            <path d="M232.922018,349.688889 L238.305026,347.765657 C240.830046,345.644444 242.023187,342.420202 242.578136,338.941414 C244.021004,342.90101 246.074317,346.917172 249.154285,347.171717 C254.648283,347.652525 255.758182,339.393939 256.313131,334.953535 L255.147738,333.143434 L253.621627,334.387879 C252.983435,339.535354 251.984527,344.230303 249.237528,344.032323 C246.768003,343.834343 244.659196,336.622222 243.743529,333.539394 L243.022095,331.248485 L241.495985,330.258586 L240.413834,331.729293 C240.302844,336.820202 239.886632,342.476768 236.667926,345.163636 C233.532462,347.793939 228.732151,346.294949 225.901909,343.353535 C222.461224,339.761616 220.824123,334.189899 219.908457,330.315152 L218.659821,329.09899 L217.327942,330.088889 L216.717498,335.208081 C216.467771,340.10101 216.107054,343.325253 213.387802,343.608081 C210.557561,343.777778 208.864965,340.242424 207.033633,335.858586 L204.591856,331.276768 L203.093493,331.050505 L202.372059,332.521212 C202.566291,335.519192 200.956938,340.779798 198.320929,343.834343 L193.825839,346.125253 C188.748053,345.70101 186.001054,336.509091 184.83566,332.577778 L183.698014,331.305051 L182.338389,331.729293 L181.089753,334.840404 C179.452652,339.733333 177.676814,344.00404 174.263876,342.957576 C171.405887,342.080808 169.824282,337.753535 168.74213,334.076768 L167.021788,333.00202 L166.161616,334.981818 C167.465747,339.450505 169.491312,344.711111 173.625684,346.012121 C179.202925,347.765657 181.894429,341.147475 183.365045,336.905051 C185.140883,342.109091 188.276346,348.812121 193.742597,349.264646 L200.263251,346.125253 C202.372059,343.692929 203.842674,340.242424 204.591856,337.10303 L204.591856,337.131313 C206.284451,341.147475 208.837218,347.228283 213.693024,346.747475 C218.077124,346.323232 218.99279,341.79798 219.298012,337.668687 C220.407911,340.525253 221.934022,343.410101 224.153819,345.672727 C226.401364,348.020202 229.703312,349.688889 232.922018,349.688889" id="Fill-706" fill="#9496A4"></path>
            <path d="M252.338715,572.40202 L257.749471,570.478788 C260.27449,568.357576 261.467631,565.161616 262.02258,561.654545 C263.465449,565.614141 265.491014,569.630303 268.59873,569.884848 C274.092728,570.393939 275.202626,562.107071 275.757576,557.694949 L274.592182,555.856566 L273.066072,557.129293 C272.42788,562.248485 271.428971,566.943434 268.681972,566.745455 C266.212448,566.547475 264.075893,559.335354 263.160226,556.252525 L262.46654,553.961616 L260.940429,553 L259.858278,554.442424 C259.719541,559.533333 259.331076,565.189899 256.11237,567.905051 C252.949159,570.507071 248.176595,569.036364 245.346354,566.094949 C241.87792,562.50303 240.268567,556.931313 239.352901,553.056566 L238.104265,551.840404 L236.772387,552.830303 L236.161943,557.921212 C235.912215,562.814141 235.523751,566.066667 232.804499,566.321212 C230.002005,566.490909 228.30941,562.955556 226.478077,558.6 L224.0363,554.018182 L222.537937,553.763636 L221.816503,555.234343 C221.982988,558.232323 220.401382,563.521212 217.765373,566.575758 L213.270284,568.866667 C208.192497,568.414141 205.445498,559.222222 204.280105,555.290909 L203.142459,554.046465 L201.782833,554.470707 L200.534197,557.553535 C198.869349,562.446465 197.093511,566.745455 193.680573,565.69899 C190.850332,564.793939 189.268726,560.466667 188.186575,556.789899 L186.466232,555.743434 L185.606061,557.694949 C186.910191,562.163636 188.935756,567.452525 193.070129,568.753535 C198.647369,570.507071 201.338873,563.888889 202.781742,559.646465 C204.585327,564.850505 207.720791,571.525253 213.187041,572.006061 L219.707696,568.866667 C221.816503,566.434343 223.287119,562.955556 224.008553,559.816162 L224.0363,559.872727 C225.728896,563.888889 228.281662,569.941414 233.137469,569.460606 C237.521568,569.036364 238.437235,564.539394 238.742457,560.410101 C239.852356,563.238384 241.378466,566.123232 243.598263,568.414141 C245.845808,570.761616 249.120009,572.40202 252.338715,572.40202" id="Fill-707" fill="#9496A4"></path>
            <path d="M284.164295,414.767677 L287.706307,413.127273 C291.08098,409.620202 291.610887,401.531313 291.666667,398.193939 L290.327953,396.525253 L288.933461,397.99596 C288.821901,403.991919 287.622637,408.884848 285.837686,410.779798 L283.857506,411.6 C280.873292,411.373737 277.554398,403.256566 276.215685,397.854545 L274.765413,396.638384 L273.538259,398.024242 C273.23147,402.492929 270.637714,408.771717 266.705244,408.771717 L266.454235,408.771717 C263.219011,408.545455 261.657179,402.80404 260.402136,398.193939 L259.56544,395.224242 L258.198837,394.121212 L256.971683,395.280808 C256.274437,398.561616 252.899764,406.933333 249.050963,406.678788 C246.038859,406.622222 242.719965,399.806061 240.907125,393.527273 L239.401072,392.39596 L238.257588,393.923232 C238.285478,398.505051 234.520347,405.236364 230.448428,406.056566 C227.99412,406.565657 224.479998,401.587879 221.216885,392.735354 L220.10129,391.745455 L218.846247,392.311111 L217.340194,396.525253 C215.917812,401.305051 213.575063,409.280808 208.889567,409.648485 L208.610669,409.648485 C204.176181,409.648485 197.371056,401.474747 196.255461,392.707071 L194.777299,391.292929 L193.522255,392.820202 C193.550145,398.250505 191.291067,406.509091 184.987959,406.961616 L184.73695,406.961616 C180.358242,406.961616 175.393847,398.90101 173.720456,392.989899 L172.074954,391.858586 L171.098809,393.69697 C171.517157,395.874747 170.457343,401.559596 167.807806,405.490909 L163.09442,408.884848 L163.01075,408.884848 L158.213695,405.377778 C155.592048,401.446465 154.420674,396.016162 154.811132,394.573737 L153.890767,392.593939 L152.189485,393.583838 C151.436459,396.525253 153.27719,403.058586 156.094066,407.244444 C158.213695,410.440404 160.668002,412.052525 163.261759,412.024242 C165.716067,411.967677 168.030925,410.383838 169.983215,407.49899 C171.461377,405.264646 172.660641,402.294949 173.329998,399.494949 C176.091094,405.066667 180.692921,410.49697 185.238967,410.10101 C190.816939,409.733333 193.940603,404.89697 195.362986,399.749495 C198.375091,407.159596 204.231961,413.070707 209.168466,412.787879 C215.583133,412.307071 218.28845,403.143434 219.906061,397.656566 L220.017621,397.260606 C223.671192,405.915152 227.408433,409.931313 231.006225,409.167677 C234.910805,408.375758 238.369147,403.963636 240.014649,399.353535 C241.85538,404.020202 244.951154,409.761616 249.106743,409.846465 L249.218302,409.846465 C253.457561,409.846465 256.525445,404.614141 258.198837,400.484848 C259.621219,405.575758 261.685069,411.6 266.398455,411.911111 C270.805053,412.278788 273.677708,408.149495 275.18376,403.709091 C276.857152,408.347475 279.813477,414.428283 283.773837,414.767677 L284.164295,414.767677" id="Fill-708" fill="#9496A4"></path>
            <path d="M171.868421,543.822222 L168.326409,542.181818 C164.979626,538.646465 164.449719,530.557576 164.393939,527.248485 L165.732653,525.579798 L167.127146,527.050505 C167.238705,533.046465 168.410079,537.939394 170.19503,539.806061 L172.2031,540.654545 C175.159425,540.4 178.506208,532.282828 179.844921,526.880808 L181.295194,525.664646 L182.522347,527.078788 C182.801246,531.547475 185.422893,537.826263 189.355363,537.826263 L189.606371,537.79798 C192.841595,537.6 194.375537,531.830303 195.630581,527.220202 L196.495166,524.250505 L197.833879,523.175758 L199.088923,524.307071 C199.78617,527.587879 203.160842,535.959596 207.009643,535.733333 C210.021748,535.648485 213.312751,528.860606 215.125592,522.553535 L216.659534,521.422222 L217.803018,522.949495 C217.747238,527.559596 221.540259,534.262626 225.612178,535.082828 C228.066486,535.591919 231.580608,530.642424 234.843721,521.761616 L235.959316,520.771717 L237.214359,521.365657 L238.720412,525.551515 C240.142795,530.331313 242.485543,538.335354 247.171039,538.674747 L247.422048,538.674747 C251.884425,538.674747 258.68955,530.529293 259.805145,521.733333 L261.255417,520.319192 L262.510461,521.846465 C262.510461,527.305051 264.74165,535.563636 271.072647,535.987879 L271.323656,535.987879 C275.702364,535.987879 280.638869,527.955556 282.31226,522.016162 L283.985652,520.913131 L284.961797,522.723232 C284.543449,524.90101 285.603264,530.585859 288.2528,534.545455 L292.966186,537.911111 L293.049856,537.911111 L297.846911,534.40404 C300.468558,530.472727 301.612042,525.070707 301.249474,523.628283 L302.169839,521.620202 L303.871121,522.610101 C304.624147,525.579798 302.783416,532.084848 299.966541,536.270707 C297.846911,539.466667 295.392604,541.078788 292.798847,541.078788 C290.344539,540.993939 288.029681,539.438384 286.077391,536.525253 C284.571339,534.290909 283.372075,531.349495 282.702718,528.521212 C279.969512,534.092929 275.367686,539.523232 270.821639,539.127273 C265.215777,538.759596 262.092113,533.923232 260.69762,528.80404 C257.685515,536.185859 251.828645,542.09697 246.89214,541.814141 C240.449583,541.361616 237.744267,532.169697 236.126655,526.682828 L236.015095,526.315152 C232.389414,534.969697 228.624283,538.985859 225.054381,538.193939 C221.149801,537.40202 217.663569,532.989899 216.045957,528.379798 C214.205226,533.046465 211.081562,538.787879 206.953863,538.872727 L206.842304,538.872727 C202.575155,538.872727 199.535161,533.668687 197.833879,529.511111 C196.439387,534.60202 194.375537,540.654545 189.634261,540.965657 C185.255553,541.305051 182.382898,537.175758 180.876846,532.763636 C179.203454,537.373737 176.247129,543.482828 172.286769,543.793939 L171.868421,543.822222" id="Fill-709" fill="#9496A4"></path>
            <path d="M177.362908,476.919192 L177.503568,476.919192 C182.764286,476.777778 184.705407,470.555556 185.830694,465.181818 C187.96874,470.866667 191.569659,476.070707 196.60532,476.523232 L202.513078,473.921212 L206.113997,467.529293 L209.602387,473.49697 L215.088163,476.749495 L215.144427,476.749495 C219.533047,476.692929 222.093076,470.30101 223.246495,465.181818 L223.499685,465.832323 C225.215748,470.612121 227.04434,476.09899 231.798678,475.787879 C236.187299,475.561616 239.225574,469.791919 240.688448,464.305051 C242.432643,469.084848 245.470919,474.656566 249.268763,474.741414 L249.35316,474.741414 C253.151004,474.741414 255.739165,470.074747 257.455228,465.747475 L259.565141,470.187879 C261.703187,473.383838 264.657066,475.363636 267.610945,475.589899 C271.436922,475.872727 274.053215,473.129293 275.459824,467.387879 C276.641375,471.092929 278.807553,474.854545 283.224306,475.137374 C288.428759,475.505051 291.045052,470.866667 292.479794,466.991919 C293.605081,471.092929 295.686862,475.052525 300.609994,475.193939 L300.778787,475.193939 L305.870712,471.573737 C307.671171,467.925253 307.868097,461.787879 307.277321,460.684848 L305.448729,460.090909 L304.886085,461.816162 C304.998614,462.777778 304.914218,468.321212 303.001229,470.894949 L300.581862,472.139394 C296.249506,472.026263 295.152351,467.783838 294.11146,461.844444 L294.027063,461.363636 L292.845512,460.119192 L291.495167,461.024242 L291.073184,462.410101 C289.582179,467.614141 287.697323,472.393939 283.28057,472.111111 C279.004479,471.828283 277.710398,466.511111 276.866433,461.561616 L276.44445,459.525253 L275.037841,458.422222 L273.856289,459.751515 C273.265514,468.519192 271.183732,472.761616 267.695342,472.535354 L261.646923,468.377778 C259.874595,465.719192 259.058762,462.466667 259.537009,459.892929 L258.636779,458.082828 L257.033245,458.874747 L256.526866,460.317172 C255.345314,463.739394 252.644625,471.686869 249.268763,471.686869 L249.240631,471.686869 C245.667844,471.60202 241.757471,460.288889 241.673074,457.941414 L240.350862,456.414141 L240.294597,456.414141 L239.028649,457.828283 C238.887988,463.541414 235.624655,472.535354 231.573621,472.761616 L231.43296,472.761616 C229.013592,472.761616 227.69138,469.593939 225.947185,464.757576 L223.809139,459.525253 L222.346265,458.761616 L221.333507,460.090909 C221.052185,464.870707 218.435892,473.666667 215.003766,473.694949 L214.975634,473.694949 L211.487244,471.432323 C209.096008,468.547475 207.379945,463.937374 207.267416,461.335354 L207.267416,460.713131 L205.973336,459.157576 L204.594859,460.515152 L204.594859,461.222222 C204.48233,464.983838 202.878796,469.282828 200.656354,471.658586 L196.717848,473.49697 C191.907245,473.044444 188.306326,466.00202 186.871585,459.214141 L185.577505,457.99798 L185.549372,457.99798 L184.283424,459.072727 L183.777045,461.618182 C182.876815,466.454545 181.52647,473.751515 177.334775,473.864646 L177.278511,473.864646 C172.636701,473.864646 168.219949,462.353535 167.319719,457.969697 L165.884978,456.725253 L164.703426,458.139394 C164.590897,463.117172 159.864691,469.084848 156.320036,469.056566 L151.537565,465.832323 L149.427652,458.563636 L148.302364,456.781818 L146.811359,457.99798 C146.389376,461.165657 147.402134,464.814141 149.512048,467.727273 C151.453169,470.385859 153.928801,471.99798 156.320036,472.111111 C160.286673,472.365657 164.281443,468.094949 166.194432,463.456566 C168.219949,469.028283 172.10219,476.919192 177.362908,476.919192" id="Fill-710" fill="#9496A4"></path>
            <path d="M297.538091,424.567677 L296.059906,425.840404 C295.139526,430.393939 290.593409,442.30101 285.852059,442.30101 L285.768388,442.30101 C281.445393,442.187879 280.078769,434.636364 279.158389,429.60202 L278.628474,427 L277.373411,425.868687 L277.31763,425.868687 L275.978896,427.141414 C274.500711,434.155556 270.791302,441.452525 265.85472,441.933333 L261.810628,440.038384 C259.551515,437.577778 257.878097,433.109091 257.766536,429.234343 L257.766536,428.49899 L256.372022,427.084848 L255.033288,428.69697 L255.033288,429.347475 C254.921726,432.034343 253.164638,436.785859 250.682402,439.783838 L247.112445,442.159596 L247.084555,442.159596 C243.570378,442.10303 240.86502,432.99596 240.586117,428.046465 L239.554176,426.660606 L238.0481,427.452525 L235.844767,432.882828 C234.059789,437.888889 232.693164,441.169697 230.210928,441.169697 L230.071477,441.169697 C225.915824,440.943434 222.568989,431.638384 222.429537,425.69899 L221.118694,424.228283 L221.062913,424.228283 L219.696289,425.812121 C219.612618,428.244444 215.596416,439.981818 211.970678,440.066667 L211.914897,440.066667 C208.428611,440.066667 205.639582,431.808081 204.440299,428.272727 L203.938274,426.773737 L202.264857,425.953535 L201.344477,427.848485 C201.846502,430.507071 201.009794,433.872727 199.169034,436.644444 C197.467727,439.218182 195.208613,440.773737 192.97739,440.943434 C189.407432,441.169697 187.25988,436.757576 186.646294,427.707071 L185.447011,426.321212 L183.968826,427.452525 L183.550471,429.573737 C182.685872,434.692929 181.375029,440.179798 176.968363,440.490909 C172.422245,440.80202 170.497815,435.824242 168.963849,430.450505 L168.545495,429.008081 L167.15098,428.074747 L165.951698,429.375758 L165.840136,429.856566 C164.780305,436.022222 163.664694,440.406061 159.202247,440.547475 L156.720011,439.218182 C154.767691,436.559596 154.68402,430.846465 154.795581,429.856566 L154.181995,428.018182 L152.313345,428.640404 C151.727649,429.8 151.922881,436.163636 153.791531,439.953535 L158.979125,443.686869 L159.174357,443.686869 C164.2225,443.545455 166.370052,439.444444 167.513554,435.20202 C168.991739,439.218182 171.697098,444.026263 177.024143,443.630303 C181.570261,443.319192 183.801484,439.444444 185.000766,435.59798 C186.451062,441.537374 189.12853,444.393939 193.061061,444.111111 C196.101102,443.856566 199.113254,441.820202 201.316587,438.482828 L203.49203,433.90101 C205.249118,438.369697 207.926586,443.234343 211.803336,443.234343 L211.914897,443.234343 C215.819538,443.121212 218.915361,437.351515 220.700339,432.430303 C222.206415,438.086869 225.330127,444.082828 229.820464,444.309091 C234.729156,444.648485 236.597805,438.963636 238.354893,433.985859 L238.605906,433.307071 C239.805189,438.624242 242.426876,445.242424 246.945103,445.29899 L246.972993,445.29899 L252.634722,441.933333 L256.20468,435.739394 C257.069279,438.341414 258.380122,440.717172 259.914088,442.385859 L265.966282,445.072727 C271.153876,444.591919 274.863285,439.218182 277.038727,433.335354 C278.182229,438.907071 280.21822,445.327273 285.601047,445.468687 L285.740498,445.468687 C291.123324,445.468687 295.139526,437.294949 297.203408,431.525253 L298.737374,426.038384 L297.538091,424.567677" id="Fill-711" fill="#9496A4"></path>
            <path d="M158.550349,488.189899 L160.028466,489.462626 C160.948803,494.044444 165.494712,505.951515 170.235843,505.951515 L170.31951,505.951515 C174.614417,505.838384 176.008868,498.258586 176.929205,493.252525 L177.431207,490.650505 L178.714101,489.519192 L178.769879,489.519192 L180.080663,490.763636 C181.586669,497.806061 185.268018,505.10303 190.232262,505.583838 L194.248279,503.660606 C196.535178,501.228283 198.180629,496.759596 198.292185,492.856566 L198.320074,492.121212 L199.714524,490.707071 L201.053197,492.319192 L201.053197,492.969697 C201.136864,495.656566 202.92176,500.436364 205.375993,503.434343 L208.973675,505.781818 L209.001564,505.781818 C212.515579,505.725253 215.192924,496.618182 215.499703,491.69697 L216.531596,490.311111 L218.009714,491.074747 L220.212945,496.533333 C221.997842,501.511111 223.364403,504.791919 225.846525,504.791919 L226.013859,504.791919 C230.169321,504.565657 233.516002,495.260606 233.655447,489.349495 L234.966231,487.878788 L234.99412,487.878788 L236.38857,489.434343 C236.444348,491.894949 240.460365,503.60404 244.113825,503.717172 L244.169603,503.717172 C247.62784,503.717172 250.416741,495.458586 251.615968,491.894949 L252.14586,490.424242 L253.791311,489.60404 L254.739537,491.470707 C254.237535,494.129293 255.074205,497.494949 256.886991,500.266667 C258.58822,502.840404 260.84723,504.424242 263.10624,504.593939 C266.676033,504.820202 268.823486,500.408081 269.437045,491.329293 L270.636272,489.943434 L272.0865,491.10303 L272.504835,493.19596 C273.397284,498.343434 274.708067,503.830303 279.11453,504.113131 C283.660439,504.424242 285.58478,499.474747 287.090787,494.072727 L287.537011,492.630303 L288.903572,491.69697 L290.130688,493.026263 L290.214355,493.478788 C291.302027,499.644444 292.417587,504.028283 296.879828,504.169697 L299.36195,502.868687 C301.314181,500.210101 301.397848,494.468687 301.286292,493.478788 L301.871961,491.668687 L303.740524,492.290909 C304.326194,493.422222 304.158859,499.814141 302.290296,503.575758 L297.075051,507.337374 L296.907717,507.337374 C291.831918,507.167677 289.684464,503.066667 288.541015,498.824242 C287.062898,502.840404 284.385553,507.648485 279.058752,507.280808 C274.512844,506.969697 272.281723,503.094949 271.082496,499.248485 C269.632268,505.187879 266.954923,508.044444 263.022573,507.733333 C259.954782,507.507071 256.942769,505.470707 254.739537,502.133333 L252.592084,497.551515 C250.807187,502.020202 248.157731,506.856566 244.281159,506.856566 L244.169603,506.856566 C240.265142,506.771717 237.169462,501.00202 235.384566,496.052525 C233.878559,501.737374 230.75499,507.705051 226.236971,507.959596 C221.328506,508.270707 219.487831,502.585859 217.702935,497.636364 L217.479823,496.957576 C216.280595,502.274747 213.631139,508.892929 209.141009,508.949495 L209.085231,508.949495 L203.451652,505.555556 L199.881859,499.389899 C199.017299,501.963636 197.706516,504.339394 196.144731,506.008081 L190.092817,508.723232 C184.93335,508.242424 181.224112,502.840404 179.04877,496.957576 C177.877431,502.529293 175.869423,508.949495 170.458955,509.090909 L170.347399,509.090909 C164.936932,509.090909 160.948803,500.945455 158.885017,495.147475 L157.323232,489.660606 L158.550349,488.189899" id="Fill-712" fill="#9496A4"></path>
            <path d="M154.967517,363.575758 L156.371848,364.820202 C157.382966,370.052525 160.023108,375.39798 163.618196,375.567677 L163.702456,375.567677 C167.437976,375.567677 170.050032,367.280808 170.190465,364.622222 L171.538623,363.264646 L172.80252,364.848485 C172.746347,369.006061 174.150678,374.040404 175.948222,376.048485 L177.240206,376.812121 C180.722947,376.69899 182.632837,373.842424 183.419263,367.648485 L184.683161,366.40404 L184.711247,366.40404 L186.031318,367.705051 C186.761571,372.258586 189.09276,379.10303 191.732902,379.272727 L191.817162,379.272727 C194.82243,379.272727 199.793762,370.109091 199.906109,366.375758 L201.14192,364.989899 L202.518164,366.347475 C203.13607,371.042424 208.275921,377.60404 212.292308,377.60404 L212.573174,377.575758 C216.477214,377.292929 218.611797,369.684848 218.302845,364.820202 L219.285876,363.292929 L220.802554,364.169697 C223.218003,370.080808 227.178217,376.925253 230.352005,376.925253 L230.380091,376.925253 L233.3011,374.832323 C235.604202,371.551515 236.896187,365.640404 236.446801,362.89697 L237.317486,361.228283 L238.918424,362.048485 L239.789109,364.254545 C241.333873,368.412121 244.367228,376.218182 247.934229,375.963636 C251.220363,375.850505 251.697836,372.343434 252.034875,367.026263 L252.203395,364.763636 L253.2426,363.490909 L254.646931,364.282828 C256.781514,368.751515 259.562089,373.785859 263.466129,373.474747 C265.067067,373.305051 266.920784,371.438384 268.240855,368.666667 L269.36432,364.735354 L269.02728,363.349495 L269.813705,361.793939 L271.35847,362.274747 L271.976375,364.367677 C273.071753,367.535354 276.189368,372.79596 277.144313,373.022222 L278.127345,362.161616 L278.660991,360.125253 L280.430448,360.775758 C281.41348,362.868687 281.1607,369.062626 280.261928,372.484848 L278.436298,375.709091 L275.964675,375.482828 C274.335651,374.464646 272.481934,371.664646 271.10569,368.892929 C269.729446,372.484848 266.976957,376.161616 263.775082,376.472727 C259.814869,376.840404 256.8096,373.559596 254.478411,369.684848 C254.085198,373.927273 252.98982,378.791919 248.130835,378.989899 L247.934229,378.989899 C243.552716,378.989899 240.631707,373.446465 238.637557,368.638384 C238.047738,371.523232 236.896187,374.577778 235.37951,376.755556 L230.548611,379.923232 L230.436264,379.923232 C226.560311,379.923232 223.049483,374.888889 220.577861,370.080808 C219.679089,375.2 217.123207,380.262626 212.85404,380.60202 C208.584874,380.828283 203.782062,376.359596 201.394699,371.353535 C199.540983,376.30303 195.721202,382.29899 191.929509,382.29899 L191.704816,382.29899 C188.250161,382.072727 186.059405,377.575758 184.795507,373.70101 C183.700129,376.69899 181.593632,379.668687 177.408726,379.810101 L174.122592,378.141414 C172.858694,376.69899 171.763316,374.294949 171.06115,371.579798 C169.544473,375.2 167.129023,378.678788 163.618196,378.565657 C159.854589,378.39596 157.158273,374.945455 155.444989,370.872727 L153.787879,365.046465 L154.967517,363.575758" id="Fill-713" fill="#9496A4"></path>
            <path d="M255.341314,629.385834 C251.435583,619.817091 262.646998,611.370781 272.818758,607.666751 C285.744198,602.952531 299.596899,600.20257 313.590093,599.501049 C313.281007,583.730862 305.778631,568.774439 301.563814,553.397104 C298.19196,540.994217 296.955613,528.170417 297.910972,515.543043 C299.456405,495.17088 307.071175,474.939021 321.963531,460.094842 C336.883985,445.250662 354.530021,437.197204 376.531369,441.153781 C405.529314,446.345034 460.237647,494.721907 382.713102,601.044395 C375.547912,610.865686 367.202573,620.097699 356.749825,626.944542 C333.98981,641.816782 303.586926,643.809101 275.488142,639.964767 C267.479989,638.870395 258.179291,636.372981 255.341314,629.385834" id="Fill-714" fill="#545654"></path>
            <path d="M247.151275,624.561175 C243.140629,624.674229 237.096416,622.724047 236.926952,619.897696 C236.616268,614.810265 250.879481,614.951582 253.336707,614.810265 C249.777965,614.61242 239.920815,612.238285 240.45745,608.564029 C240.965842,604.889773 264.860253,606.387739 272.486129,608.309658 C262.85493,612.351339 253.195487,620.406439 256.867205,629.422498 C259.719848,636.460112 269.068607,638.975564 277.118142,640.077841 L279.292929,640.332213 C267.571676,642.678084 243.903216,641.830179 242.773457,638.579875 C241.58721,635.301308 246.699371,633.94466 250.342845,632.814119 C246.812347,633.605498 237.717784,632.814119 236.926952,630.213877 C236.220853,627.924532 242.067357,625.493871 247.151275,624.561175" id="Fill-715" fill="#B46668"></path>
            <path d="M15.7515786,422.978201 C10.8326688,423.915033 -0.955752902,419.781948 0.0619525669,416.695912 C1.10792763,413.609875 11.1436343,413.554767 18.8895037,414.160953 C13.6313588,412.204626 3.90661767,409.61456 5.34836709,404.765074 C6.7901165,399.915587 21.0662627,404.131334 27.907505,406.032553 C22.1687769,403.525148 12.359227,398.400123 14.5925251,393.467975 C16.8540928,388.535827 52.5020538,401.761699 44.8975324,418.87267 C37.293011,436.011195 2.71929463,434.247745 2.46486826,430.858616 C2.18217229,427.524594 9.05168421,424.74165 15.7515786,422.978201" id="Fill-716" fill="#B46668"></path>
            <path d="M119.894008,254.618495 C164.880603,213.092487 156.349146,123.707896 201.53219,84.0032046 C263.778146,29.3076805 382.376619,75.3729682 387.035243,152.596772 L391.63774,150.775456 C392.311276,151.896265 387.568459,171.118156 385.772363,177.142509 C389.701324,174.368504 393.74254,172.827391 395.959596,173.948201 C391.63774,184.483814 381.759211,195.747954 377.437355,206.283567 C382.292427,203.733724 386.137195,204.097987 390.178412,204.882554 C378.054763,216.230755 365.76273,226.710328 351.141385,234.555997 C353.947785,235.368584 356.669993,236.573455 359.167689,238.114569 C349.373353,245.119631 342.890568,251.424186 312.862086,262.211982 L320.944518,266.134817 C305.200613,268.208315 299.896517,274.905154 270.485443,278.099462 C274.666979,280.453163 277.192739,282.554682 279.409795,285.244626 C261.055938,287.234063 183.009948,295.247854 130.277688,284.123816 C111.250295,279.304333 108.471959,266.358978 119.894008,254.618495" id="Fill-717" fill="#B7B2B5"></path>
            <path d="M206.636968,81.3131313 C197.538974,72.7087912 191.873659,59.9010194 191.064328,49.9989756 C190.115458,38.5453295 193.073701,6.38484525 212.413915,0.686233137 C231.754129,-5.04058993 248.973339,26.6685191 252.071122,36.7116177 C254.164219,43.4822459 255.950328,53.0739693 256.313131,61.1987232 C238.368315,63.2863336 221.149106,69.7466414 206.636968,81.3131313" id="Fill-718" fill="#B7B2B5"></path>
            <path d="M208.861075,79.5454545 C204.700583,75.8164915 202.278379,69.9687994 200.768064,64.4036045 C197.205999,51.3804834 196.493587,37.0296255 201.993414,24.656248 C203.133275,22.029024 204.64359,19.4582995 206.894815,17.6503174 C209.658977,15.4750889 215.871218,9.59914712 223.793249,13.9213543 C231.715281,18.2435615 240.349726,33.950406 244.966161,43.4988115 C242.429971,41.6625796 235.932766,38.498611 232.228218,38.1313646 C235.875772,41.521331 237.585563,50.6459907 245.707071,58.4994129 C243.113888,58.8666593 232.228218,48.5837611 229.663532,49.1487555 C233.282589,53.6687108 234.593429,63.3583648 238.212487,65.4770938 C228.951119,68.4715642 216.982582,73.8107613 208.861075,79.5454545" id="Fill-719" fill="#433A41"></path>
            <path d="M362.373737,98.5764229 C376.662331,84.502586 393.657943,73.4809065 413.137314,71.0222242 C420.421148,70.1178812 428.821278,70.9091813 433.370186,76.7308889 C438.226075,82.9199859 441.519149,120.845868 413.416388,137.51969 C405.09998,142.437055 396.392869,145.602255 387.54622,148.484848 C385.090368,129.437125 375.825108,112.424174 362.373737,98.5764229" id="Fill-720" fill="#B7B2B5"></path>
            <path d="M372.629322,101.012471 C382.634761,100.956132 388.615348,91.7729608 392.951983,92.1954994 C392.413447,90.5898528 384.39209,92.2800071 381.614376,90.7870375 C392.895295,85.7165749 407.577497,80.1672352 413.217956,81.5193586 C422.76989,83.829236 422.599826,92.8997303 422.429762,98.6744238 C422.259698,104.449117 420.218929,110.026626 417.724655,115.266104 C415.938982,119.040782 413.898213,122.730952 411.120499,125.857737 C407.294056,130.139461 401.228436,137.153601 385.469162,143.181818 C383.485081,132.449339 377.136021,119.181628 371.212121,110.082965 C376.14398,109.012534 380.792399,104.054748 386.404515,104.139256 L372.629322,101.012471" id="Fill-721" fill="#433A41"></path>
            <path d="M109.025371,250.657862 C114.851686,245.242042 123.562876,244.51245 131.02961,247.290513 C138.524627,250.040514 154.985381,256.634906 155.551043,272.012467 C156.003572,284.27523 122.290137,293.395134 113.041569,288.596661 C103.793001,283.770128 100.964693,258.150213 109.025371,250.657862" id="Fill-722" fill="#C37D7C"></path>
            <path d="M230.502063,192.875416 C258.752056,173.475199 296.465656,149.063025 304.520987,157.144102 C312.576319,165.225179 280.467654,204.110084 273.398114,211.768805 C261.991088,224.129756 199.294693,256.313279 193.746091,250.259511 C188.225653,244.233899 204.617972,210.67068 230.502063,192.875416" id="Fill-723" fill="#888789"></path>
            <path d="M167.857584,165.685737 C176.000828,139.978153 208.240288,110.317713 216.883799,113.345433 C225.52731,116.401187 207.656643,153.378616 200.069253,172.245796 C190.230659,196.719864 169.024875,224.361825 162.43802,222.651724 C155.851164,220.913588 159.686549,191.39332 167.857584,165.685737" id="Fill-724" fill="#888789"></path>
            <path d="M238.639426,212.294198 C233.823917,206.051489 234.24633,198.07314 237.963565,193.314125 C241.708961,188.55511 250.607797,185.727695 256.042845,188.415139 C258.352036,189.562901 265.58938,193.846015 266.800298,204.035906 C268.82788,220.832431 244.327922,219.656674 238.639426,212.294198" id="Fill-725" fill="#17111C"></path>
            <path d="M170.769837,166.442909 C172.212262,163.360081 174.276908,160.446949 177.161757,158.665131 C180.074888,156.911596 183.977918,156.487353 186.862767,158.325737 C189.860747,160.220687 191.105191,163.982303 191.529433,167.517656 C192.010242,171.392404 187.59812,182.592404 180.103171,182.25301 C172.608221,181.913616 169.89307,177.501495 169.242565,174.701495 C168.620343,171.929778 169.525393,169.016646 170.769837,166.442909" id="Fill-726" fill="#17111C"></path>
            <path d="M229.551267,99.2988679 L231.95851,102.557086 C236.884961,88.5692197 243.770796,75.311644 252.364094,63.2337678 C253.175839,65.4246383 252.923918,67.3908042 251.748288,70.3400531 C265.156072,57.9251198 282.062756,49.3863422 299.977123,45.959596 C296.926083,51.8861817 296.002373,53.8523476 289.760336,58.7115862 C308.570422,52.1670626 316.184028,59.5261406 331.691152,61.0428972 C330.291592,64.6100839 325.980947,67.0818353 323.23781,69.7782914 C344.847016,79.2158877 356.715284,94.2991889 360.606061,98.2596088 C328.220243,99.8044534 306.639029,109.270138 282.818518,124.100646 C258.80207,139.071595 242.511192,162.01956 208.585859,178.535354 C222.105608,159.632073 221.377837,122.415361 229.551267,99.2988679" id="Fill-727" fill="#888789"></path>
            <path d="M275.166584,405.176578 C283.609156,381.885478 296.819958,294.43925 334.629218,298.902215 C372.438478,303.365181 366.155633,390.03039 354.487494,414.883528 C356.198447,412.707832 361.471548,414.520912 364.108099,413.600425 C364.865406,421.829018 352.524105,432.958538 346.185164,442.358659 C349.382683,441.689214 350.925345,441.66132 354.094816,440.963982 C353.814332,443.334932 339.229158,457.058551 332.553636,462.10728 L339.425496,461.465729 C335.190186,467.15601 315.640443,474.380435 312.751457,475.04988 C315.275814,476.081941 318.024558,476.695598 320.773302,476.86296 C308.740534,479.066549 228.157445,515.272355 218.340501,488.912966 C210.599139,468.10439 253.849791,463.976147 275.166584,405.176578" id="Fill-728" fill="#545654"></path>
            <path d="M208.614115,490.356759 C203.339171,491.759067 195.146173,491.016669 194.472776,487.827106 C193.799379,484.665039 205.303246,482.327859 210.550131,481.337995 C206.369458,481.530468 198.990148,481.22801 199.074323,477.488522 C199.158497,473.969004 220.174098,471.026907 226.599428,470.20202 C220.117981,476.278688 216.69488,481.392987 219.36041,488.487015 C222.474871,496.735885 232.772235,498.770606 245.707071,497.615765 C236.728443,501.52023 210.88683,505.644665 209.960909,502.895041 C209.00693,500.090426 214.141582,497.918223 217.761092,496.268449 C212.177508,498.578133 198.905973,500.64035 197.643354,498.055704 C196.380734,495.471058 202.104609,492.446473 208.614115,490.356759" id="Fill-729" fill="#B46668"></path>
        </g>
    </g>
</svg>