<svg viewBox="0 0 720 720" xmlns="http://www.w3.org/2000/svg">
  <g fill="none" fill-rule="evenodd">
    <path d="M504.462 671.467c-.319-7.78-6.91-19.116-37.32-26.45 78.016-45.118 80.882-120.177 54.26-139.966-42.765-31.766-73.144 4.451-88.906 37.657-16.686 35.096-15.89 93.183-3.153 111.852 20.348 29.78 75.692 30.357 75.119 16.907" fill="#91928E"/>
    <path d="M446.25 347.335c-15.579 2.962-30.076 2.93-39.328 3.568a532.645 532.645 0 01-121.006-5.607c-9.189-1.466-17.677-3.09-25.53-5.416-21.556 32.685-41.205 65.306-49.853 110.734-17.422 91.301 27.47 154.6 47.722 174.001 32.907 31.443 79.834 46.543 127.301 39.502 107.685-15.96 127.079-126.694 112.581-202.321-8.139-42.37-32.556-83.751-51.887-114.461" fill="#ACADA9"/>
    <path d="M276.768 485.542c3.917-27.454 5.572-55.862 15.602-81.691 22.258-57.232 74.605-47.55 85.272-46.818 29.613 1.975 81.228 23.696 95.875 84.78 4.871 20.288 9.488 59.048 4.68 86.597-5.508 31.657-16.143 62.55-40.184 83.888-5.476 4.873-33.752 13.186-41.553 13.25-36.617.318-80.113-.415-114.183-59.685-13.565-23.631-9.33-53.346-5.509-80.321" fill="#E3ADAE"/>
    <path d="M351.487 513.103c-5.082 0-7.464-6.535-9.179-11.492l-.38.901c-1.525 3.767-3.43 8.434-7.813 8.66-4.542.225-6.606-4.475-7.908-8.788-1.43 3.895-3.05 6.856-7.241 7.565l-7.75-3.8-2.763-4.667c-1.715 3.509-4.192 7.469-7.971 7.533-3.493-.097-5.685-2.8-6.987-5.794-1.112 3.412-2.954 6.567-6.67 6.599l-4.985-2.543c-2.541-3.09-3.081-8.113-2.7-10.527l1.747-1.223 1.207 1.738 2.032 8.048 2.763 1.48h.032c3.176 0 4.573-6.695 4.89-10.687l1.493-1.384 1.493 1.416c.127 2.608 1.779 9.754 5.749 9.851l5.97-7.436 2.35-3.38 1.334.064.73 1.803 2.541 7.114 5.018 2.8c3.05-.514 3.938-2.768 5.653-7.757l.794-2.286 1.398-.998h.031l1.398 1.062.73 2.48c1.302 4.731 2.636 8.69 5.304 8.69h.159c2.509-.128 3.938-3.669 5.208-6.792l2.192-4.41 1.397-.58 1.175.934 1.08 2.962c1.429 4.153 3.398 9.818 6.479 9.818h.127c3.81-.16 6.923-8.112 8.416-14.904l1.46-1.191h.032l1.43 1.255c.571 3.09 4.636 12.458 8.13 12.49h.032c2.445 0 3.43-2.833 4.732-7.468l1.238-3.96 1.461-.998 1.398 1.095c1.302 4.732 3.906 10.108 6.955 10.108l.286-.032c4.224-.483 6.288-7.92 6.796-11.782l1.493-1.32 1.46 1.32c.7 4.668 6.352 11.557 9.528 11.557h.064l2.858-2.415c2.191-3.38 3.208-8.37 2.223-10.913l.794-1.931 1.937.676c5.463 11.041 9.179 13.456 11.37 13.52h.095c3.716 0 6.384-8.144 7.972-13.037l.857-2.576 1.493-.998 1.366 1.127c.889 3.38 6.51 13.81 10.258 13.681 4.446-.225 8.86-6.438 9.527-11.46l1.62-1.32 1.366 1.61 8.257 11.106c.826.161 2.7-.644 4.796-7.855l1.873-1.03 1.017 1.867c-.89 2.994-3.208 10.913-8.194 10.012-3.049-.515-7.019-5.054-9.178-9.175-2.192 4.797-6.384 9.046-10.926 9.271-4.986.226-9.368-7.017-11.719-11.975-2.064 6.278-5.017 13.875-10.575 13.778-4.288-.129-8.035-4.7-10.989-9.657l-2.763 6.953-5.272 3.767h-.127c-3.684 0-8.162-4.379-10.639-9.014-1.493 4.635-4.16 8.756-8.29 9.239-4.286.515-7.24-3.863-8.955-7.887-1.239 4.41-2.763 9.142-7.432 9.142h-.063c-4.224-.032-7.559-5.537-9.433-10.011-1.746 5.472-4.89 12.168-9.94 12.361h-.222M336.752 547.516c-5.294 0-8.42-7.114-9.887-12.394-3.093 6.052-7.112 8.917-12.183 8.467-5.166-.45-7.94-4.732-9.408-8.853-.957 3.541-2.583 7.082-6.314 7.308l-5.23-2.447-3.222-5.344c-1.244 2.479-2.998 4.861-5.932 4.604l-5.102-3.574-2.456-8.112 1.882-.998.988 1.9 2.169 5.633 2.71 2.125c1.5.193 3.126-2.254 4.625-6.954l1.786-1.126 1.18 1.577 3.54 8.177 2.87 1.513c2.775-.161 3.7-5.022 4.37-8.596l.67-2.993 1.562-1.095 1.34 1.32c.255 2.06 1.753 12.362 8.227 12.941 4.561.354 8.26-3.187 11.003-11.01l1.595-.998 1.307 1.353c.574 5.021 3.86 14.55 7.941 14.55h.224l3.89-2.768c2.552-3.445 4.019-8.789 4.05-10.978l-.095-.804 1.308-1.578 1.69 1.191.096.902c.638 5.118 4.943 12.2 10.62 12.2 3.667 0 8.1-6.567 8.323-11.01l1.372-1.416 1.594 1.127c.67 2.704 5.39 8.95 9.026 9.464l3.38-1.062 3.062-5.988 1.276-1.384 1.594.934c1.786 4.442 4.497 8.048 6.06 8.048l2.838-1.32 1.722-6.857 1.308-1.674 1.658 1.32c.702 5.247 4.752 11.428 7.495 11.428h.032c2.2 0 3.667-6.31 4.56-10.076l.606-2.608 1.148-1.126 1.5.58 1.913 3.38c1.467 2.96 3.253 6.598 5.804 6.63 3.732 0 9.09-8.273 9.376-13.166l1.34-1.416 1.594 1.062c.702 2.415 5.071 9.336 9.472 9.336h.032c3.476-.032 5.007-4.314 6.92-10.849l.702-2.382 1.372-1.062 1.467.933.35.837c1.436 3.606 3.668 9.046 6.794 10.302l3.253-.483 3.667-8.145 1.403-1.642 1.595 1.417c.223 3.316-1.69 8.434-4.911 10.816l-6.124.87c-3.348-1.353-5.549-5.216-7.175-8.918-1.754 5.795-3.86 11.3-9.28 11.364h-.065c-4.369 0-8.164-3.992-10.396-7.5-2.01 5.536-6.762 11.653-11.386 11.653-4.273 0-6.633-4.54-8.324-7.984-1.307 5.473-2.934 11.203-7.207 11.203-3.38 0-6.506-3.573-8.452-7.63l-1.499 2.415-5.07 2.318h-.032c-2.966 0-5.454-3.348-7.048-6.213l-3.094 3.96-5.645 1.673c-3.572-.515-7.335-4.25-9.567-7.694-1.818 4.733-5.868 9.593-10.333 9.593-5.358 0-9.568-4.249-11.832-9.013l-3.445 6.824-6.027 3.992h-.51M303.96 580.094h-.16c-1.694-.064-4.316-.966-5.595-5.408l-5.658 3.283h-.064l-3.837-1.867c-1.694-1.641-3.516-4.732-3.58-8.434l1.502-1.545 1.503 1.48 2.685 6.31 1.727 1.03 5.019-5.376 1.567-1.32 1.438 1.45 3.389 7.371h.064c1.918 0 2.941-6.696 3.453-9.915l.351-2.189 1.47-1.255 1.503 1.19c.864 3.992 1.79 7.437 4.252 9.626l2.238.74c1.982-.643 4.22-5.086 5.467-10.784l1.662-1.159 1.311 1.578 3.837 7.951 3.005 1.803c2.206 0 3.229-4.99 3.9-8.306l.575-2.64 1.535-1.126 1.439 1.288c.671 4.345 2.014 13.037 7.033 13.07h.032c4.731 0 6.714-5.956 7.449-9.497l1.47-1.191h.032l1.439 1.223c.64 3.251 2.75 9.271 6.458 9.271h.224c2.301-.129 3.26-3.155 4.252-7.05l.99-3.348 1.567-.933 1.311 1.255c.32 1.996 2.781 6.857 5.882 6.857 2.974 0 5.85-4.99 6.97-8.112l1.406-.998h.032l1.407 1.03c1.95 5.988 4.092 8.402 7.769 8.402 3.644-.032 5.754-4.056 7.8-7.951l.512-.966 1.886-.676.895 1.803 1.439 4.281 4.763 3.187c3.453 0 5.403-4.346 6.842-7.565l.16-.354 1.694-.87 1.183 1.481c0 2.125 1.502 6.31 4.923 6.342l2.078-1.19 3.964-8.37.927-1.803 1.919.869.447 1.094c1.183 2.833 3.485 8.08 6.778 7.598 2.845-.387 5.562-3.96 8.024-10.592l1.503-.997 1.374 1.158c1.023 4.25 3.517 6.213 5.531 6.278l3.101-1.964 1.727-4.507 1.278-1.738 1.727 1.288-2.494 6.953-5.435 2.994c-2.238-.065-5.083-1.417-6.937-4.829-1.727 3.67-4.636 8.37-9.016 8.95-4.252.547-6.937-3.091-8.6-6.375l-2.589 4.83-5.307 3.38h-.032c-3.293-.033-5.595-2.286-6.841-4.926-1.663 3.026-4.06 5.923-7.929 5.923l-7.193-4.41-1.215-1.964c-2.014 3.413-4.635 6.632-8.887 6.664h-.064c-4.892 0-7.545-3.284-9.24-7.018-1.822 3.284-4.699 6.696-8.248 6.728h-.032c-3.165 0-5.626-2.479-7.129-5.054-.959 3.67-2.462 7.984-6.681 8.241l-.416.032c-3.74 0-6.362-3.122-7.96-6.856-1.95 4.57-5.02 7.017-8.888 7.017h-.032c-4.827 0-7.29-4.41-8.6-8.82-.99 3.444-2.59 6.567-5.882 6.567l-5.211-2.8-3.133-4.636c-1.215 3.348-3.165 6.92-6.01 7.887l-5.148-1.352-3.357-4.861c-.895 4.281-2.333 8.144-5.69 8.144M345.18 609.292h-.032c-3.486 0-6.433-3.284-8.335-6.76l-1.363 1.996-5.039 2.8h-.095c-2.693 0-5.197-2.51-6.592-5.633-1.901 3.058-4.215 3.798-6.084 3.798-4.057 0-7.892-5.698-8.43-7.178l.919-1.964 1.901.933 5.61 5.183c2.155 0 3.803-1.899 4.944-5.665l1.584-1.063 1.331 1.352c.38 3.767 2.916 7.243 4.849 7.211l2.852-1.77 1.775-4.41 1.173-1.642 1.711.998c1.14 3.54 4.215 8.788 7.32 8.788 2.695 0 4.818-2.865 6.276-8.563l1.267-1.127 1.49.805 1.11 2.35c1.584 3.509 2.756 5.57 5.545 5.537 4.088-.097 6.434-6.664 7.194-8.82l1.458-.999 1.394 1.095c1.3 4.829 4.279 6.438 6.687 6.374 1.997-.097 3.899-2.865 5.166-7.662l1.521-1.094 1.395 1.287 6.021 7.726c2.06-.9 3.74-3.798 4.786-8.627l1.49-1.191 1.457 1.223c.697 3.735 2.916 10.076 6.75 10.366h.064c1.553 0 6.307-5.054 7.606-11.782l1.521-1.223 1.426 1.416 7.004 11.621c4.247-.386 7.416-6.084 8.842-10.848l1.426-1.063 1.426 1.095.444 1.803c.697 3.508 1.553 6.438 3.74 6.245 1.109-.065 4.025-1.32 7.542-11.686l1.902-.966.919 1.932c-3.074 9.046-6.402 13.553-10.205 13.746-3.581.16-5.26-2.737-6.116-5.634-2.155 4.314-5.42 8.016-9.73 8.37l-2.915-1.191c-1.934-1.706-4.215-5.28-5.705-8.466-2.25 5.504-6.433 9.786-9.38 9.657-4.216-.322-6.72-4.346-8.082-7.887-1.3 3.058-3.043 5.022-5.324 5.923l-2.758-.386-5.387-5.955c-1.68 4.024-3.962 6.18-6.75 6.277h-.317c-3.201 0-6.054-1.867-7.892-5.022-1.553 3.316-4.183 7.275-8.525 7.404-4.437-.064-6.37-3.09-7.796-6.148-1.901 4.732-4.564 7.114-7.986 7.114M341.924 390.003l-6.115-1.868c-2.896-2.028-4.344-5.086-5.116-8.466-1.416 3.799-3.573 7.662-7.016 7.92-6.114.45-7.66-7.47-8.431-11.719l1.222-1.77 1.77 1.223c.901 4.926 2.157 9.432 5.214 9.24 2.767-.194 4.86-7.115 5.792-10.077l.708-2.189 1.642-.966 1.287 1.417c.322 4.893.965 10.333 4.666 12.909 3.604 2.51 8.882 1.094 11.94-1.739 3.732-3.444 5.342-8.788 6.21-12.522l1.352-1.16 1.513.934.9 4.926c.451 4.7.966 7.822 4.023 8.048 3.154.16 4.924-3.22 6.79-7.437l2.575-4.378 1.641-.225.87 1.416c-.097 2.866 1.866 7.952 4.955 10.881l5.085 2.19c5.664-.42 8.367-9.272 9.525-13.038l1.223-1.191 1.545.386 1.513 2.994c2.027 4.7 4.151 8.82 7.916 7.822 3.154-.869 4.763-5.022 5.825-8.563l1.899-1.03.997 1.9c-1.287 4.281-3.347 9.367-7.916 10.59-6.147 1.707-9.397-4.667-11.167-8.723-1.835 4.99-5.053 11.428-11.135 11.878l-7.402-3.026c-2.445-2.318-4.215-5.665-5.149-8.691l-.032.064c-1.738 3.863-4.344 9.657-9.815 9.207-4.892-.387-6.082-4.732-6.565-8.692l-5.117 7.694c-2.446 2.221-6.05 3.83-9.622 3.83M301.941 421.583l-3.937-1.578c-3.842-3.38-4.7-11.17-4.89-14.357l1.397-1.61 1.588 1.417c.349 5.762 1.841 10.462 3.842 12.265l2.222.804c3.239-.225 6.605-8.015 7.875-13.23l1.524-1.16 1.397 1.353c.508 4.281 3.588 10.333 7.906 10.333l.255-.032c3.556-.193 5.048-5.73 6.223-10.172l.826-2.833 1.46-1.063 1.397 1.127c.89 3.155 4.89 11.17 9.113 10.945 3.27-.064 6.668-6.6 8.415-12.651l1.62-1.062 1.3 1.448c.128 4.41 4.51 10.881 9.019 11.654 2.699.515 6.35-4.282 9.62-12.78l1.176-.966 1.397.58 1.81 4.023c1.714 4.571 4.604 12.265 9.748 12.587l.285.032c4.858 0 12.035-7.855 12.924-16.289l1.555-1.352 1.43 1.449c.19 5.247 2.952 13.166 9.906 13.585h.254c4.795 0 9.939-7.726 11.558-13.424l1.778-1.063 1.112 1.771c-.381 2.06 1.016 7.533 4.064 11.331l5.27 3.22h.096l5.112-3.348c2.73-3.767 3.81-8.982 3.334-10.366l.953-1.931 1.905.965c.92 2.833-.857 9.11-3.779 13.134-2.222 3.059-4.858 4.604-7.684 4.604l-7.525-4.378-3.97-7.694c-2.825 5.376-7.651 10.591-12.668 10.205-6.129-.354-9.717-4.99-11.463-9.947-3.017 7.114-9.24 12.812-14.638 12.522-7.08-.45-10.383-9.271-12.352-14.55l-.127-.355c-3.683 8.306-7.62 12.169-11.59 11.428-4.318-.74-8.287-4.99-10.224-9.432-1.841 4.507-5.048 10.012-9.589 10.076h-.127c-4.636 0-8.192-4.99-10.193-8.981-1.365 4.893-3.397 10.687-8.541 10.977-4.826.354-8.129-3.638-9.907-7.855-1.683 4.41-4.7 10.27-9.017 10.591l-.445.033M432.276 450.684h-.16c-5.912-.129-8.36-6.31-9.822-11.686-2.194 5.666-6.072 10.849-11.699 11.3l-6.771-2.576-4.292-6.374-3.719 5.923-6.04 3.252h-.064c-4.959-.065-8.074-6.406-9.568-11.525l-.255.644c-1.748 4.764-3.592 10.237-8.996 9.947-4.927-.257-8.583-5.987-10.427-11.46-1.78 4.764-4.99 10.301-9.25 10.398h-.128c-4.26 0-7.343-4.668-9.473-8.95l-2.194 4.41c-2.288 3.188-5.531 5.152-8.869 5.377-4.291.29-7.343-2.447-9.155-8.145-1.177 3.67-3.465 7.405-8.456 7.694-5.818.354-8.933-4.249-10.713-8.112-1.113 4.088-3.306 8.016-8.87 8.177h-.19l-5.85-3.606c-2.161-3.637-2.606-9.754-2.002-10.848l2.034-.612.7 1.77 2.48 9.014 2.765 1.256c4.864-.13 5.944-4.346 6.898-10.27l.095-.45 1.272-1.256 1.558.87.54 1.384c1.844 5.183 4.165 9.947 9.124 9.657 4.8-.29 6.04-5.569 6.834-10.494l.382-2.028 1.558-1.095 1.367 1.352c1.017 8.692 3.496 12.941 7.438 12.716l6.644-4.153 2.067-8.434.922-1.803 1.875.773.604 1.448c1.462 3.38 4.8 11.332 8.615 11.332h.064c3.973-.097 7.947-11.364 7.947-13.714l1.462-1.513h.064l1.462 1.417c.382 5.698 4.387 14.647 8.965 14.84l.159.032c2.734 0 4.1-3.187 5.88-7.983l2.226-5.215 1.59-.74 1.208 1.32c.508 4.731 3.783 13.487 7.63 13.552h.03l3.847-2.286 4.387-10.044-.031-.611 1.398-1.545 1.59 1.352.032.708c.286 3.734 2.257 8.016 4.832 10.398l4.514 1.802c5.404-.45 9.187-7.468 10.554-14.196l1.399-1.223h.063l1.463 1.094.635 2.511c1.208 4.797 2.989 12.072 7.725 12.169l.096.032c5.213 0 9.727-11.46 10.585-15.839l1.59-1.223 1.399 1.417c.286 4.957 5.817 10.88 9.823 10.848l5.277-3.219 2.098-7.21 1.176-1.771 1.748 1.19c.604 3.155-.413 6.793-2.67 9.69l-7.502 4.346c-4.483.258-9.124-3.96-11.476-8.627-2.035 5.569-6.136 13.424-12.048 13.424M387.222 479.801c-4.314 0-8.883-6.02-11.2-11.01-2.537 5.022-7.804 9.53-12.69 9.304-4.854-.354-7.963-5.44-9.2-10.591-2.634 4.86-6.44 9.947-10.85 9.947h-.128l-5.615-3.219c-1.809-2.19-3.236-5.28-4.03-8.177-2.062 4.861-5.203 10.43-10.152 10.43h-.254c-5.552-.193-6.98-5.086-7.582-9.367-2.507 3.895-5.806 7.21-10.312 6.824-3.68-.29-6.948-3.992-8.63-7.63l-5.297 6.632-2.792.226-2.221-3.22c-1.142-3.444-1.682-9.69-.666-11.782l2.03-.676.666 2.028 1.523 10.946c1.11-.226 4.474-5.505 5.552-8.692l.635-2.093 1.745-.515.952 1.578-.318 1.384 1.428 3.96 5.616 4.828c4.441.322 7.424-4.732 9.676-9.207l1.586-.837 1.238 1.288.254 2.286c.602 5.344 1.269 8.885 5.044 9.013 4.061.258 7.202-7.63 8.82-11.814l.888-2.221 1.777-.805 1.079 1.674c-.413 2.736 1.3 8.692 4.029 12.007l3.395 2.093h.063c3.617 0 7.837-6.89 10.375-12.812l1.681-.87 1.174 1.513c-.159 4.894 2.57 12.523 7.043 12.845h.318c4.568 0 10.184-6.567 10.691-11.332l1.492-1.352 1.49 1.417c.286 3.766 6.25 12.973 9.677 12.973h.095c3.014-.16 5.394-7.05 6.092-11.653l1.428-1.32h.031l1.492 1.255c1.11 6.246 3.394 9.11 7.392 9.24l1.427-.773c1.967-2.028 3.363-7.082 3.141-11.267l1.396-1.578 1.587 1.352c.285 2.672 3.553 11.01 7.804 11.01h.096c4.092-.161 6.884-5.537 7.836-10.817l1.586-1.255 1.365 1.48c.095 2.995 2.474 10.56 7.55 10.592 3.11 0 4.347-4.282 5.426-9.014l.983-3.54 1.174-.934 1.364.579 1.84 5.054c.794 3.155 1.904 7.469 3.903 7.469h.031c3.649-.097 7.139-7.726 6.98-13.135l1.142-1.513 1.682.837.476 1.352c.634 2.222 2.633 8.982 5.742 9.046l1.65-.708 1.11-7.662 1.27-1.738 1.713 1.288c0 .064.983 6.824-1.84 10.108l-3.84 1.738h-.126c-3.395-.064-5.552-3.315-6.916-6.502-1.523 5.054-4.76 9.786-8.947 9.947h-.159c-4.156 0-5.647-5.344-6.694-9.432-1.047 4.378-2.856 9.786-7.964 9.786-4.632 0-7.646-3.83-9.232-7.758-1.745 4.12-4.727 7.597-8.979 7.758-3.997.096-6.884-3.38-8.756-7.05l-3.236 6.631-3.68 1.674c-4.76-.16-7.297-3.122-8.662-6.148-1.269 3.895-3.585 8.402-7.519 8.627h-.254" fill="#D499A0"/>
    <path d="M587.878 92.144l8.652 2.714c-1.185-8.75-14.355-25.418-26.788-31.549 4.678.48 9.388.99 14.099 1.469-11.632-15.295-39.254-22.8-57.68-20.34 3.782-4.12 9.165-6.738 14.74-7.121-8.106-4.567-18.072-4.726-27.109-2.46-9.004 2.268-17.271 6.77-25.41 11.24a34.625 34.625 0 017.017-14.05c-17.464 6.866-31.692 21.523-38.068 39.15l-2.564-7.6c-11.952 18.712-14.932 50.803-16.791 59.01 32.3 18.967 53.193 48.568 66.46 76.38 4.39 9.229 8.427 20.5 10.99 32.826 18.49 3.481 34.256 4.407 47.522 2.395 21.79-3.289 31.788-11.782 42.074-32.25 16.695-33.274 5.448-76.765-17.144-109.814" fill="#ACADA9"/>
    <path d="M576.462 143.93c-1.475-12.005-8.848-21.167-16.894-30.297-32.026-36.174-65.14.916-78.412 21.894-2.276 3.633-5.835 8.53-8.976 13.995 11.54 12.29 20.74 25.907 28.018 39.46 9.008-.095 19.234-.537 25.485-1.074 17.664-1.548 55.074-8.751 50.779-43.978" fill="#D499A0"/>
    <path d="M265.676 41.157c-1.885 3.572-2.684 8.037-2.971 12.789-11.82-21.941-36.129-27.554-44.21-29.946-.384 2.36 1.98 8.1 4.727 11.832-22.04-7.112-46.19-6.825-58.073-2.36 2.012 2.71 8.465 4.91 12.202 5.166-15.077 6.155-30.474 10.3-43.475 22.26 6.165.127 10.381.414 16.547.542-14.663 6.346-29.548 23.153-32.615 34.219 3.067-.032 6.133-1.372 8.401-2.743-5.526 7.718-9.87 15.5-12.618 22.866-9.647 25.96-9.806 51.759-2.14 67.704 13.448 28.032 60.278 36.005 97.62 33.103 8.018-38.492 30.602-78.675 78.007-99.755-1.118-13.426-2.78-54.724-21.402-75.677" fill="#ACADA9"/>
    <path d="M252.874 138.337c-1.535-4.109-3.135-7.672-4.606-10.144-28.567-47.607-57.837-38.49-71.976-24.847-14.172 13.611-24.888 33.707-23.96 48.73.895 15.024 11.004 29.277 39.506 35.762 7.102 1.605 15.163 3.691 23.225 5.168 7.645-19.935 19.737-39.132 37.811-54.669" fill="#D499A0"/>
    <path d="M508.627 303.238c-23.84 48.592-78.46 45.975-101.218 47.507-40.424 2.712-81.07.861-121.144-5.616-31.385-5.04-54.97-11.517-71.904-43.646-21.517-40.774-17.315-176.881 115.733-196.63 100.041-14.868 150.173 42.593 174.523 93.992 12.286 25.907 21.835 67.99 4.01 104.393" fill="#BEB9B6"/>
    <path d="M416.83 269.044c-2.292-16.356-10.247-73.634-51.613-71.979-39.203 1.56-53.395 33.921-55.527 64.755-1.432 20.843-1.177 47.763 23.102 62.178 24.279 14.383 70.61 10.597 82.606-25.138 3.182-9.515 2.832-19.888 1.431-29.816" fill="#D2CFCB"/>
    <path d="M322.79 234.078c3.541-13.481 9.08-42.338 41.053-43.077 31.941-.706 47.203 50.492 40.313 74.374-4.09 14.252-13.556 19.58-28.56 22.886-8.952 1.99-18.837 1.54-27.95-.096-30.975-4.88-27.175-45.292-24.857-54.087" fill="#6F6F6C"/>
    <path d="M249.479 187.045a85.184 85.184 0 0113.681-10.56c3.284-2.027.258-7.275-3.058-5.214-5.344 3.348-10.333 7.178-14.904 11.524l4.281 4.25M473.32 176.342a57.364 57.364 0 00-13.842-10.752c-3.413-1.899-6.439 3.316-3.059 5.215a52.484 52.484 0 0112.62 9.787l4.281-4.25" fill="#91928E"/>
    <path d="M384.12 305.363c-5.77 4.603-13.782 6.567-21.794 6.374l.288-.87c.673-6.406 1.378-13.456 1.346-20.441l-5.031.064c.032 6.953-.673 14.003-1.347 20.377l.033.515c-8.045-1.062-15.737-4.249-20.672-9.56l-3.59 3.573c13.012 13.874 39.453 15.387 54.324 3.54l-3.558-3.572" fill="#17111C"/>
    <path d="M446.117 259.191l7.553-4.012c3.322-1.2 6.77-2.085 10.217-1.737 5.014.505 9.527 3.57 13.883 6.57 3.95 2.717 8.43 6.445 8.493 11.942l-1.63 6.065c-12.974 20.47-39.738 8.688-42.84 2.938-3.762-6.918-1.317-17.059 4.324-21.766M241.598 261.62c2.286-5.964 8.614-7.806 14.127-8.15 4.29-.249 8.613-.062 12.842.625 6.108.968 12.342 3.029 16.915 7.868 4.604 4.839 7.11 13.019 4.667 19.731-2.161 5.838-7.549 9.866-12.937 9.897-21.926.125-27.72-6.463-32.827-14.424-2.85-4.433-4.73-10.49-2.787-15.548" fill="#EFC1BC"/>
    <path d="M439.919 221.696c1.223-3.123 3.637-6.245 6.985-6.406 18.993-.902 16.289 26.654 5.215 27.813-13.585 1.384-13.681-17.577-12.2-21.407M279.353 215.393c15.259 1.094 15.42 28.039-2.06 27.685-13.682-.258-13.199-28.78 2.06-27.685" fill="#17111C"/>
    <path d="M456.632 362.012c89.092 33.024 67.749 169.066-37.495 176.86-21.344 1.592-22.145-6.999-12.851-12.916-19.998 5.886-14.07-6.459-4.711-14.285-15.415-.51-20.479-8.908-2.308-14.158 21.248-6.172 93.034-50.236 57.365-135.501" fill="#A3A3A0"/>
    <path d="M358.746 684.091c3.763-9.248-7.11-17.447-16.964-21.006-12.564-4.577-25.989-7.246-39.605-7.914.319-15.254 7.59-29.746 11.671-44.65 3.284-12.014 4.496-24.44 3.571-36.675-1.498-19.704-8.896-39.313-23.342-53.677-14.477-14.365-31.6-22.183-52.934-18.37-28.157 5.054-81.25 51.866-6.026 154.866 6.951 9.502 15.05 18.433 25.223 25.075 22.066 14.396 51.563 16.335 78.827 12.616 7.78-1.048 16.805-3.495 19.58-10.265" fill="#91928E"/>
    <path d="M260.113 370.195c-11.478-2.157-38.525 21.608-37.383 59.777 3.075 102.484 121.441 115.08 138.5 103.594 4.376-2.95-1.49-10.121-3.742-11.232 15.76-2.03 13.508-11.517-1.046-16.752 2.727 2.189 27.745-7.996.603-14.532-27.523-6.631-72.136-22.781-75.656-77.132-1.648-25.796-5.39-40.772-21.276-43.723" fill="#A3A3A0"/>
  </g>
</svg>
