<?xml version="1.0" encoding="UTF-8"?>
<svg width="720px" height="720px" viewBox="0 0 720 720" version="1.1" xmlns="http://www.w3.org/2000/svg" xmlns:xlink="http://www.w3.org/1999/xlink">
    <title>img_f</title>
    <g id="img_f" stroke="none" stroke-width="1" fill="none" fill-rule="evenodd">
        <g id="fox" transform="translate(24.000000, 55.000000)">
            <path d="M302.147678,594.560057 C297.540257,591.977011 292.140477,590.188748 288.971041,586.072905 C286.271151,582.581535 263.938366,547.582677 270.95221,539.634843 C285.625525,523.00116 297.070711,508.184126 304.436715,494.956658 C284.657087,493.764483 267.841467,491.238207 256.983214,489.279633 C249.323744,487.917147 242.075126,486.128884 235.149321,484 C244.628283,498.277717 250.321529,515.308792 244.334817,539.180681 C242.485979,546.589198 262.089528,579.572712 266.315443,587.861168 C273.945566,602.876899 293.284996,611.278895 309.953882,606.794046 C311.157094,601.769879 306.725752,597.143104 302.147678,594.560057" id="Fill-284" fill="#DE4A42"></path>
            <path d="M302.922331,594.522952 C298.177415,591.932775 292.616493,590.139575 289.352474,586.012369 C286.572013,582.51136 263.572768,547.415878 270.795921,539.446101 C274.029718,535.888164 277.08218,532.415619 280.013753,529 C265.567447,530.707809 253.901601,530.451638 245.31844,529.056927 C244.925548,532.216374 244.260656,535.518139 243.384206,538.990685 C241.480195,546.419655 261.668757,579.49423 266.020783,587.805569 C273.878606,602.862755 293.795167,611.287948 310.961489,606.790716 C312.200607,601.752679 307.637025,597.11313 302.922331,594.522952" id="Fill-285" fill="#17111C"></path>
            <path d="M427.64119,590.880737 C424.247425,573.207776 421.814727,557.881784 420.823627,528.558807 C420.192928,509.669946 420.523294,494.428785 421.964893,478 C417.820296,479.583497 413.675699,481.053888 409.561135,482.439448 C396.947143,486.652682 383.912684,489.480356 370.968326,491.374897 C374.001691,513.911457 380.368753,541.000572 386.615682,558.928024 C396.166276,586.243352 409.621201,597.638878 421.814727,606.913648 C425.148425,609.458554 441.276314,611.042051 443.709013,603.265949 C446.141711,595.461569 429.052755,598.260966 427.64119,590.880737" id="Fill-286" fill="#DE4A42"></path>
            <path d="M425.770384,590.902165 C422.409162,573.250103 419.999791,557.942235 419.018195,528.653934 C418.928959,526.027307 418.869468,523.48541 418.809978,521 C404.442985,521.706082 390.135484,523.48541 376.036199,526.337983 C378.802514,538.369629 381.985264,549.864651 385.138269,558.987237 C394.597282,586.270264 407.923188,597.652313 419.999791,606.916115 C423.301522,609.458012 439.274762,611.039637 441.684133,603.272729 C444.093504,595.477579 427.168414,598.273666 425.770384,590.902165" id="Fill-287" fill="#17111C"></path>
            <path d="M500.441774,302.708966 C460.64299,303.41854 428.679313,297.287822 403.749427,289 C379.027289,342.72893 307.79904,330.836473 299.785863,328.367156 C234.077804,307.93143 195.288087,317.83708 170.031737,350.363944 C127.324466,405.341724 168.369745,472.893152 257.31602,488.64569 C285.095036,493.555941 350.892131,502.468189 408.290227,482.9691 C464.471508,463.895756 527.152367,427.111449 528.072398,300.72216 C519.346938,301.800712 510.205979,302.538669 500.441774,302.708966" id="Fill-288" fill="#E3746D"></path>
            <path d="M518.654356,565.827367 C515.9899,563.037787 466.016547,508.100136 461.042896,498.621256 C451.746905,480.915961 458.881726,441.406397 459.710668,419.943708 C460.510004,398.48102 385.727605,411.147991 389.339423,435.827236 C392.980846,460.506482 400.530138,496.002467 410.714281,511.032042 C422.378678,528.281895 477.680943,547.068863 503.940638,575.590898 C510.128097,582.308662 512.644528,588.457125 517.055683,587.973218 C531.266115,586.464568 526.144438,573.769131 518.654356,565.827367" id="Fill-289" fill="#E3746D"></path>
            <path d="M426.714932,522.509677 C448.393026,536.385225 484.32602,552.251117 503.963475,573.604676 C510.144542,580.314981 512.658373,586.456617 517.06497,585.973248 C531.260721,584.466272 526.144336,571.784932 518.661992,563.880419 C516.089012,561.179236 469.864099,510.311705 461.908564,498 C448.954941,505.051508 434.907063,515.856238 426.714932,522.509677" id="Fill-290" fill="#434544"></path>
            <path d="M499.612365,303.350624 C475.112337,303.775277 453.618996,301.623703 434.804881,298 C422.778136,316.316687 420.753832,355.922631 424.117749,374.890452 C427.838895,395.641815 430.309736,413.958502 444.360784,430.236856 L447.933085,423.07438 C453.85715,441.928961 460.257521,444.87322 474.6658,459 C520.867552,417.780376 547.272807,349.920872 533.578988,300.547916 C523.010933,302.104976 511.758186,303.152453 499.612365,303.350624" id="Fill-291" fill="#DDE3DD"></path>
            <path d="M173.425294,349.648653 C180.488096,339.183866 188.788177,331.101308 198.660633,325.599496 C183.323527,300.557744 163.887934,259.719553 153.371061,201.808729 C147.339325,168.599338 151.747132,133.03608 141.101376,101.273042 C110.942697,11.1737829 54.9558156,2.72254608 0,0 C26.5241718,43.7876162 20.8017557,101.159603 15.491766,153.455176 C10.1559997,205.722389 7.99076118,264.484008 39.1031765,304.414684 C55.806445,325.826375 102.101307,357.362533 167.342005,360 C169.094817,356.511738 171.105396,353.051836 173.425294,349.648653" id="Fill-292" fill="#E3746D"></path>
            <path d="M88.7331389,103.774697 C95.0105775,115.125939 102.677285,125.599653 111.450263,134.742923 C115.000618,125.401502 116.878704,115.295783 116.955886,105.190064 C123.104688,110.11554 128.584583,116.031774 133.189754,122.712305 L136.53429,118.352975 C137.743469,109.775852 138.000741,101.142114 137.769196,92.451762 C107.050911,10.6152513 53.049502,2.63258232 0,0 C21.5079455,35.5257077 21.7652176,80.0248411 18.2663174,123.448296 C20.581766,118.211438 22.8972147,113.002889 25.289845,107.794339 C28.1712923,121.721548 33.3167338,135.054304 40.3917159,147 C43.9677977,135.563836 47.5438796,124.127672 51.0942342,112.691508 L52.9980476,109.606008 L58.014853,112.465049 C64.5495638,122.174466 71.0842745,131.883882 77.6189852,141.593299 C81.3237031,128.968226 85.028421,116.371462 88.7331389,103.774697" id="Fill-293" fill="#DDE3DD"></path>
            <path d="M242.26557,376.428538 C211.843109,343.819582 181.124133,352.795567 164.578584,374.383377 C141.005625,405.174412 167.454782,453.633366 177.773511,480.390889 C183.555558,495.388736 184.593361,513.25549 169.026312,539.132458 C164.578584,546.546166 172.910662,579.552792 174.274631,587.847056 C176.765359,602.873309 193.399863,611.281193 211.783806,606.793201 C214.748958,601.765513 211.902412,597.135496 208.136669,594.55064 C204.400577,591.965783 199.567379,590.176268 197.788288,586.057541 C196.27606,582.563724 185.898028,547.540342 195.771984,539.586938 C224.267096,516.578877 245.497586,496.979417 256.913421,480.390889 C265.868181,467.438203 286.535291,423.836506 242.26557,376.428538" id="Fill-294" fill="#E3746D"></path>
            <path d="M193.840723,539.349267 C199.593413,534.617654 205.054089,530.000055 210.193549,525.553479 C198.220944,523.586724 186.598757,520.878873 177.049874,518 C175.064174,524.356324 171.998019,531.282722 167.500992,538.893208 C163.12077,546.332672 171.326385,579.453965 172.669653,587.777044 C175.122577,602.855498 191.504605,611.292592 209.60952,606.789008 C212.529667,601.743854 209.726325,597.097752 206.017738,594.503916 C202.338352,591.91008 197.578512,590.114347 195.826423,585.981311 C194.337148,582.475357 184.116631,547.330302 193.840723,539.349267" id="Fill-295" fill="#434544"></path>
            <path d="M491.79464,102.062433 C414.541437,104.163847 375.484496,165.985177 357.796095,194.411061 C344.737544,215.368407 335.596558,222.354189 325.357466,232.236514 C325.357466,232.236514 340.523193,248.281095 356.015383,250.325714 C350.732606,252.370333 341.59162,254.840914 339.098624,254.840914 C354.561136,267.932156 405.400451,304.593312 499.867199,302.946258 C588.457599,301.412793 633.836065,258.532588 656.391745,243.339932 C652.177394,240.869351 651.880609,242.999162 645.113905,240.443388 C649.031471,235.984983 662.060344,228.516444 665.918552,224.001243 C655.323318,210.853207 643.095766,199.380622 635.587098,186.17579 C616.563163,152.780345 569.047843,99.9326214 491.79464,102.062433" id="Fill-296" fill="#EEF0ED"></path>
            <path d="M359.457504,193.56329 C369.153959,178.153872 385.245314,152.828339 410.497738,132.714401 C391.432009,118.685352 351.307723,107.642405 318.262443,109.135457 C324.151701,143.84186 339.886132,174.266305 358.535448,195 L359.457504,193.56329" id="Fill-297" fill="#D36251"></path>
            <path d="M387.18552,153.219943 C369.530082,142.72042 346.566281,131.460878 336.506787,126 C340.759343,151.333969 351.610692,170.390744 363.517848,185 C369.530082,175.65458 377.272666,164.395038 387.18552,153.219943" id="Fill-298" fill="#C03F42"></path>
            <path d="M635.41587,186.447795 L638.958491,192 C663.697296,168.601423 675.337336,133.333593 671.169547,102.003295 C640.595836,101.776675 610.111435,113.249342 587.873303,133.163627 C610.438905,149.905224 626.246734,170.414388 635.41587,186.447795" id="Fill-299" fill="#D36251"></path>
            <path d="M632.288115,179 C646.030484,161.765445 660.268862,142.011552 656.038197,122 C642.237474,125.263687 630.654203,139.721246 610.171946,150.514314 C619.304348,160.133601 626.656953,170.010547 632.288115,179" id="Fill-300" fill="#C03F42"></path>
            <path d="M492.970741,102.062437 C415.568489,104.163995 376.436193,165.989543 358.713665,194.417367 L357.791855,195.865738 C381.818371,185.130755 407.956127,182.716804 439.357118,205.720339 C475.634777,232.3306 483.217403,269.335051 486.518075,302.846372 L486.637018,302.846372 C491.365008,302.988369 496.122734,303.045168 501.058875,302.95997 C504.27034,302.903171 507.30339,302.675976 510.395912,302.533979 L511.020363,302.391981 C509.444367,267.40389 524.847504,234.29016 545.811234,208.304686 C562.284859,187.942299 600.822439,170.533451 640.579186,191.747821 L637.040627,186.181534 C617.979988,152.78381 570.372993,99.9324804 492.970741,102.062437" id="Fill-301" fill="#E1806B"></path>
            <path d="M515.681448,243.625 L514.647602,244.408 C512.123801,250.092 510.512217,256.153 508.961448,262.011 L508.505339,263.722 L508.839819,264.969 L509.904072,265.375 L510.360181,265.317 L511.302805,264.331 L511.789321,262.533 C513.309683,256.878 514.860452,251.049 517.232217,245.626 L517.080181,244.234 L515.681448,243.625" id="Fill-302" fill="#C24849"></path>
            <path d="M529.384977,217.147 L528.107873,217.727 C523.729231,223.324 520.110769,229.501 517.374118,236.055 L518.134299,237.737 L518.742443,237.853 L520.110769,237.012 C522.756199,230.632 526.16181,224.832 530.510045,219.264 L530.662081,218.017 L529.384977,217.147" id="Fill-303" fill="#C24849"></path>
            <path d="M566.8619,181.337 L565.402353,181.366 C559.290498,184.962 553.361086,188.906 547.796561,193.111 L547.249231,194.416 L548.191855,195.576 L548.617557,195.663 L549.468959,195.344 C555.246335,190.994 561.145339,187.079 566.983529,183.686 L567.682896,182.584 L566.8619,181.337" id="Fill-304" fill="#C24849"></path>
            <path d="M514.262443,183.7085 L514.688145,183.6505 L515.539548,182.6935 C517.029502,175.8205 518.884344,169.2085 521.104072,163.0025 L520.891222,161.7555 L519.431674,161.2915 L518.337014,162.1905 C516.056471,168.6865 514.171222,175.3275 512.742081,181.9975 L513.19819,183.3315 L514.262443,183.7085" id="Fill-305" fill="#C24849"></path>
            <path d="M519.786425,131.81 L520.303348,131.723 L521.093937,130.737 C522.219005,123.864 523.769774,117.165 525.715837,110.814 L525.442172,109.596 L523.952217,109.19 L522.887964,110.147 C520.9419,116.643 519.391131,123.371 518.266063,130.186 L518.782986,131.491 L519.786425,131.81" id="Fill-306" fill="#C24849"></path>
            <path d="M592.317828,174.8465 C586.510045,175.4845 580.641448,176.3255 574.89448,177.3985 L574.864072,177.3985 L573.769412,178.3555 L574.01267,179.7765 L574.924887,180.1535 L575.228959,180.1535 C581.127964,179.0805 586.78371,178.2395 592.6219,177.6015 L593.868597,176.0935 L592.317828,174.8465" id="Fill-307" fill="#C24849"></path>
            <path d="M607.105882,165.805 L613.430588,165.892 L617.444344,165.95 L617.474751,165.95 L618.782262,164.703 L617.292308,163.195 L615.315837,163.166 C612.548778,163.137 609.751312,163.079 606.953846,163.05 L606.923439,163.05 L605.615928,164.297 L607.105882,165.805" id="Fill-308" fill="#C24849"></path>
            <path d="M478.087964,239.3785 L476.719638,239.9875 L476.689231,241.2055 C479.851584,247.3825 482.101719,253.8495 483.348416,260.4325 L484.291041,261.5345 L484.868778,261.6215 L485.811403,261.3315 L486.206697,260.1425 C484.868778,253.0955 482.557828,246.3675 479.365068,240.1905 L478.087964,239.3785" id="Fill-309" fill="#C24849"></path>
            <path d="M410.8981,182.214692 C404.451765,181.054692 397.154027,179.778692 390.160362,180.155692 L388.792036,181.721692 L390.190769,182.910692 C396.606697,182.562692 403.29629,183.635692 410.137919,184.882692 L410.441991,184.911692 L411.931946,183.693692 L410.8981,182.214692" id="Fill-310" fill="#C24849"></path>
            <path d="M624.671131,177.055068 C618.559276,176.069068 610.957466,174.851068 603.933394,175.373068 L602.717104,176.156068 L602.808326,177.635068 L603.994208,178.128068 C610.440543,177.635068 617.130136,178.621068 623.971765,179.752068 L624.24543,179.752068 L625.735385,178.505068 L624.671131,177.055068" id="Fill-311" fill="#C24849"></path>
            <polyline id="Fill-312" fill="#C24849" points="376.745701 180.76 373.67457 181.137 370.877104 181.485 369.752036 182.268 369.93448 183.718 371.059548 184.24 371.241991 184.24 374.313122 183.834 377.140995 183.486 378.266063 182.732 378.08362 181.282 376.745701 180.76"></polyline>
            <path d="M489.186606,239.467 L488.031131,241.033 C488.943348,245.905 489.673122,250.255 490.25086,254.402 L491.071855,255.417 L491.649593,255.533 L492.622624,255.214 L493.10914,253.967 C492.500995,249.762 491.771222,245.383 490.859005,240.569 L489.186606,239.467" id="Fill-313" fill="#C24849"></path>
            <path d="M474.768507,211.6395 L473.52181,212.5095 L473.704253,213.7565 C476.927421,217.8455 478.873484,222.8915 480.78914,227.7925 L482.643982,232.4615 L483.76905,233.3315 L483.9819,233.3605 L485.19819,232.8095 L485.319819,231.5335 L483.647421,227.2415 C481.610136,221.9925 479.542443,216.5985 476.076018,212.1905 L474.768507,211.6395" id="Fill-314" fill="#C24849"></path>
            <path d="M505.787148,226.6845 L505.270225,225.4375 L503.719456,225.2635 L502.928868,226.3075 L502.472759,229.9615 C501.955836,234.0505 501.408506,238.2845 501.895022,242.5765 L502.655203,243.6205 L503.263348,243.7365 L504.175565,243.4755 L504.753302,242.2285 C504.297194,238.1975 504.814117,234.3695 505.33104,230.3385 L505.787148,226.6845" id="Fill-315" fill="#C24849"></path>
            <path d="M516.309864,209.3505 C513.60362,214.9185 511.748778,220.8055 510.806154,226.8085 L511.262262,227.9975 L512.204887,228.3165 L512.782624,228.2295 L513.664434,227.1565 C514.637466,221.2985 516.431493,215.6725 518.985701,210.4235 L518.316742,208.6835 L516.309864,209.3505" id="Fill-316" fill="#C24849"></path>
            <path d="M446.900271,135.8365 C443.737919,130.5005 439.815385,125.6285 435.223891,121.3945 L433.946787,121.0175 L432.882534,122.0615 L433.277828,123.4245 C437.686878,127.5715 441.426968,132.2405 444.437285,137.3155 L445.562353,137.9825 L446.292127,137.7795 L446.900271,135.8365" id="Fill-317" fill="#C24849"></path>
            <path d="M423.593122,185.381 L422.255204,185.468 L421.647059,186.802 L422.468054,187.933 C428.123801,190.369 433.323439,193.53 437.975747,197.3 L438.857557,197.619 L439.891403,197.126 L439.769774,195.096 C434.843801,191.123 429.400905,187.846 423.593122,185.381" id="Fill-318" fill="#C24849"></path>
            <path d="M507.733972,274.2485 L505.939945,275.3505 C504.723656,281.3825 504.44999,287.5015 505.058135,293.5625 L505.787909,294.6065 L506.396054,294.7515 L507.308271,294.4905 L507.916416,293.2145 C507.369085,287.3275 507.673158,281.4405 508.828633,275.7565 L507.733972,274.2485" id="Fill-319" fill="#C24849"></path>
            <path d="M469.133032,145.968 L470.379729,146.838 L470.896652,146.751 L471.839276,144.924 C469.710769,139.124 466.761267,133.672 463.051584,128.742 L461.896109,128.162 L460.649412,129.003 L460.771041,130.395 C464.328688,135.238 467.156561,140.487 469.133032,145.968" id="Fill-320" fill="#C24849"></path>
            <path d="M472.56905,196.852 L473.177195,194.88 C470.075656,189.515 466.183529,184.643 461.652851,180.351 L460.375747,179.974 L459.311493,181.018 L459.67638,182.352 C464.055023,186.557 467.764706,191.255 470.714208,196.359 L471.839276,197.026 L472.56905,196.852" id="Fill-321" fill="#C24849"></path>
            <path d="M436.850679,162.344 L437.854118,162.808 L438.766335,162.489 L438.979186,160.459 C434.843801,155.761 430.039457,151.701 424.71819,148.337 L423.410679,148.192 L422.559276,149.41 L423.197828,150.657 C428.336652,153.963 432.928145,157.907 436.850679,162.344" id="Fill-322" fill="#C24849"></path>
            <path d="M498.668597,194.004 L497.878009,192.815 L496.32724,192.873 L495.810317,194.004 L496.205611,200.616 L496.600905,206.822 L497.391493,208.011 L498.151674,208.185 L498.942262,207.953 L499.52,206.851 L499.337557,204.357 C499.124706,200.906 498.881448,197.455 498.668597,194.004" id="Fill-323" fill="#C24849"></path>
            <path d="M449.702805,128.0075 L453.260452,133.6045 L454.537557,134.3295 L455.358552,134.0975 L455.875475,132.3285 C453.50371,128.6745 451.162353,125.0205 448.851403,121.3665 L447.574299,120.6705 L447.543891,120.6705 L446.205973,121.3955 L446.297195,122.6135 L449.702805,128.0075" id="Fill-324" fill="#C24849"></path>
            <path d="M541.527602,200.1345 L540.311312,200.5985 L536.297557,205.2385 L531.706063,210.4585 L531.888507,212.5175 L532.800724,212.8655 L533.804163,212.4015 C536.662443,209.0665 539.520724,205.7895 542.409412,202.4835 L542.683077,201.0915 L541.527602,200.1345" id="Fill-325" fill="#C24849"></path>
            <path d="M490.4181,278.8295 L488.897738,278.9455 L488.411222,280.1055 L489.080181,286.1085 L489.809955,292.8655 L491.360724,294.1705 L491.51276,294.1705 L492.72905,292.7785 C492.242534,288.5155 491.756018,284.2525 491.269502,279.9895 L490.4181,278.8295" id="Fill-326" fill="#C24849"></path>
            <path d="M490.027873,158.117 L488.994027,159.973 C491.183348,166.846 492.642896,174.183 493.342262,181.723 L494.041629,182.767 L494.649774,182.883 L495.561991,182.622 L496.200543,181.346 C495.531584,173.748 494.041629,166.411 491.700271,158.9 L490.027873,158.117" id="Fill-327" fill="#C24849"></path>
            <path d="M488.740633,143.721 L489.713665,144.765 L490.200181,144.823 L491.234027,144.446 L491.598914,143.228 L490.108959,136.906 L488.314932,129.163 L487.372308,128.177 L485.851946,128.467 L485.487059,129.685 L485.821538,131.106 C486.79457,135.311 487.737195,139.516 488.740633,143.721" id="Fill-328" fill="#C24849"></path>
            <path d="M488.102081,208.0265 C486.277647,201.3275 483.145701,194.1645 479.253575,187.7845 L478.128507,187.1465 L476.820995,187.9005 L476.851403,189.3215 C480.6219,195.5855 483.632217,202.5455 485.335023,208.8965 L486.216833,209.7955 L486.581719,209.8535 L487.706787,209.3895 L488.102081,208.0265" id="Fill-329" fill="#C24849"></path>
            <path d="M429.953303,133.901 L428.706606,133.553 L427.642353,134.626 L428.068054,135.96 C433.419729,141.093 438.224072,147.067 441.599276,152.809 L442.693937,153.447 L444.001448,152.693 L444.031855,151.243 C440.443801,145.269 435.457014,139.092 429.953303,133.901" id="Fill-330" fill="#C24849"></path>
            <path d="M474.717828,131.766 L475.90371,132.665 L476.359819,132.607 L477.272036,131.94 L477.424072,130.751 C475.295566,124.168 471.798733,117.121 467.602534,110.944 L466.538281,110.335 L466.447059,110.335 L465.200362,111.147 L465.291584,112.568 C469.366154,118.658 472.71095,125.473 474.717828,131.766" id="Fill-331" fill="#C24849"></path>
            <path d="M450.462986,202.394 L449.185882,202.133 L448.243258,203.293 L448.760181,204.598 C454.537557,209.267 459.828416,214.835 463.690136,220.287 L464.754389,220.867 L465.544977,220.606 L466.001086,218.576 C461.896109,212.863 456.392398,207.121 450.462986,202.394" id="Fill-332" fill="#C24849"></path>
            <path d="M540.372127,136.027 L540.55457,135.998 L541.740452,135.157 C544.841991,128.545 548.977376,122.136 553.356018,117.09 L553.599276,115.872 L552.382986,114.973 L550.984253,115.466 C546.423167,120.802 542.166154,127.443 539.034208,134.229 L539.155837,135.447 L540.372127,136.027" id="Fill-333" fill="#C24849"></path>
            <path d="M462.848869,158.8085 L462.848869,158.8085 L464.15638,157.9965 L464.095566,156.6045 C460.933213,151.7615 457.679638,147.0055 454.456471,142.5105 L452.48,142.1915 L452.115113,144.1345 C455.67276,149.1225 458.835113,153.7335 461.754208,158.1705 L462.848869,158.8085" id="Fill-334" fill="#C24849"></path>
            <path d="M462.909683,203.9545 L462.94009,203.9545 L464.278009,203.1715 L464.186787,201.8955 C460.294661,195.9215 455.003801,189.7445 448.010136,183.0455 L445.972851,183.0455 L445.912036,184.9885 C452.753665,191.4845 457.922896,197.4875 461.693394,203.2875 L462.909683,203.9545" id="Fill-335" fill="#C24849"></path>
            <path d="M495.50993,131.668 C496.878256,140.803 497.27355,148.546 496.665405,155.332 L497.243142,156.579 L498.15536,156.84 L498.793912,156.724 L499.523685,155.622 C500.162237,148.633 499.766943,140.658 498.36821,131.291 L496.756627,130.16 L495.50993,131.668" id="Fill-336" fill="#C24849"></path>
            <path d="M401.157647,152.106 C408.120905,155.876 414.323982,160.081 420.131765,164.953 L421.104796,165.301 L421.560905,165.243 L422.594751,164.141 L422.138643,162.981 C416.118009,157.906 409.550045,153.44 402.617195,149.699 L401.218462,149.699 L400.427873,150.975 L401.157647,152.106" id="Fill-337" fill="#C24849"></path>
            <path d="M542.480362,172.917 L542.449955,171.177 L540.199819,171.206 L538.132127,173.323 C534.361629,177.151 530.469502,181.124 527.85448,185.619 L527.85448,187.069 L529.161991,187.823 L530.226244,187.156 C532.81086,182.777 536.672579,178.833 540.41267,175.034 L542.480362,172.917" id="Fill-338" fill="#C24849"></path>
            <polyline id="Fill-339" fill="#C24849" points="559.138462 157.6875 559.685792 156.4985 558.71276 155.3385 557.344434 155.5415 550.441991 160.6745 549.712217 161.1965 549.164887 162.3855 550.137919 163.5745 550.654842 163.6615 551.506244 163.3715 554.911855 160.8195 559.138462 157.6875"></polyline>
            <polyline id="Fill-340" fill="#C24849" points="522.573756 137.152 520.627692 141.821 520.779729 143.126 521.996018 143.677 522.208869 143.677 523.303529 142.836 525.553665 137.5 527.408507 133.092 526.557104 131.323 524.73267 132.048 522.573756 137.152"></polyline>
            <path d="M537.366878,153.8865 L533.474751,160.2085 C531.102986,164.0365 528.731222,167.8645 526.359457,171.7215 L526.87638,173.5775 L527.636561,173.7805 L528.822443,173.1135 C532.501719,167.1685 536.180995,161.2235 539.829864,155.2785 L539.921086,153.9735 L538.583167,153.2195 L538.55276,153.2195 L537.366878,153.8865" id="Fill-341" fill="#C24849"></path>
            <path d="M508.586425,167.1145 L508.586425,167.1145 L510.045973,165.8095 C510.198009,158.9365 510.319638,152.0055 510.471674,145.1325 L509.833122,143.9435 L508.31276,143.8855 L507.582986,145.0455 L507.157285,165.7515 L508.586425,167.1145" id="Fill-342" fill="#C24849"></path>
            <path d="M499.190588,251.8855 L498.460814,253.0165 L498.278371,262.0935 C498.217557,265.9795 498.126335,269.8655 498.035113,273.7225 L499.464253,275.1145 L499.494661,275.1145 L500.923801,273.8095 C501.075837,266.9075 501.197466,260.0055 501.349502,253.1035 L500.741357,251.9145 L499.190588,251.8855" id="Fill-343" fill="#C24849"></path>
            <path d="M537.554389,189.199 L537.858462,189.228 L538.770679,188.851 C542.875656,184.994 547.254299,181.34 551.815385,177.918 L552.058643,176.062 L549.99095,175.772 C545.460271,179.136 541.051222,182.848 536.88543,186.763 L536.520543,188.126 L537.554389,189.199" id="Fill-344" fill="#C24849"></path>
            <path d="M596.068054,161.368 C590.442715,162.18 584.695747,163.369 579.04,164.877 L578.006154,165.892 L578.401448,167.313 L579.222443,167.632 L579.617738,167.574 C585.243077,166.095 590.777195,164.935 596.584977,164.065 L597.740452,162.557 L596.068054,161.368" id="Fill-345" fill="#C24849"></path>
            <polyline id="Fill-346" fill="#C24849" points="579.881267 154.716 577.843982 154.136 573.617376 156.398 570.029321 158.312 569.512398 160.081 570.81991 160.864 571.58009 160.661 579.364344 156.485 579.881267 154.716"></polyline>
            <path d="M544.309864,148.664 L545.161267,148.925 L546.255928,148.345 C550.725792,142.11 555.347692,136.919 560.425701,132.511 L560.912217,131.177 L559.878371,130.075 L558.631674,130.394 C553.340814,134.947 548.536471,140.283 543.884163,146.721 L544.309864,148.664" id="Fill-347" fill="#C24849"></path>
            <path d="M525.234389,156.619 L525.44724,158.011 L526.663529,158.562 L526.87638,158.533 L527.879819,157.75 C530.008326,152.907 532.319276,148.47 534.964706,144.149 L534.508597,142.438 L532.38009,142.902 C529.734661,147.223 527.393303,151.718 525.234389,156.619" id="Fill-348" fill="#C24849"></path>
            <polyline id="Fill-349" fill="#C24849" points="529.92724 195.9615 527.981176 198.3105 524.180271 202.9795 523.937014 204.3135 525.122896 205.2415 525.335747 205.2705 526.430407 204.7485 532.207783 197.6725 531.873303 195.7295 529.92724 195.9615"></polyline>
            <path d="M498.881448,283.9615 L497.300271,282.6855 L495.99276,284.0775 L496.144796,287.2675 L496.418462,292.9805 L497.148235,294.1405 L497.878009,294.3145 L498.699005,294.1115 L499.337557,292.9225 C499.155113,289.9645 499.003077,286.9485 498.881448,283.9905 L498.881448,283.9615" id="Fill-350" fill="#C24849"></path>
            <path d="M494.96905,119.1255 L496.39819,120.2565 L496.702262,120.2275 L497.82733,118.6905 L497.249593,115.2975 L496.337376,109.9035 L494.664977,108.7435 L493.448688,110.2805 C493.965611,113.0645 494.452127,115.9645 494.96905,119.1255" id="Fill-351" fill="#C24849"></path>
            <polyline id="Fill-352" fill="#C24849" points="419.888507 141.415 419.918914 141.444 420.861538 141.821 421.956199 141.357 421.956199 139.472 419.280362 136.92 415.327421 133.179 413.290136 133.179 413.229321 135.122 419.888507 141.415"></polyline>
            <path d="M597.091765,147.9625 C594.111855,148.7745 591.040724,149.5575 588.030407,150.2825 L588,150.3115 L587.057376,152.0515 L588.33448,153.0375 L588.760181,152.9795 L592.044163,152.1385 L597.791131,150.6595 L598.824977,148.9775 L597.091765,147.9625" id="Fill-353" fill="#C24849"></path>
            <path d="M386.313846,161.645 L389.597828,162.486 L395.344796,163.965 L395.770498,164.023 L397.138824,163.008 L396.165792,161.297 C393.368326,160.63 390.388416,159.876 387.104434,158.977 L387.074027,158.977 L385.340814,160.021 L386.313846,161.645" id="Fill-354" fill="#C24849"></path>
            <path d="M521.798371,186.6995 L520.886154,184.9015 L519.092127,185.6555 C517.085249,191.0205 515.443258,195.7765 514.074932,200.2135 L514.409412,201.6055 L515.564887,202.0985 L515.868959,202.0695 L516.781176,201.1995 C518.149502,196.7045 519.791493,191.9485 521.798371,186.6995" id="Fill-355" fill="#C24849"></path>
            <path d="M484.8181,123.0985 L485.243801,123.0405 L486.24724,121.4165 C484.574842,115.7615 483.05448,111.1215 481.442896,106.8005 L479.496833,105.9015 L478.675837,107.4965 C480.257014,111.7885 481.807783,116.5445 483.419367,122.0835 L484.8181,123.0985" id="Fill-356" fill="#C24849"></path>
            <path d="M505.804163,189.9095 L505.804163,189.9095 L507.142081,188.6625 L507.172489,186.7485 C507.202896,183.3555 507.26371,179.9335 507.324525,176.5405 L505.773756,175.0905 L505.743348,175.0905 L504.40543,176.3375 L504.40543,177.2365 C504.344615,180.9485 504.314208,184.7185 504.222986,188.4305 L505.804163,189.9095" id="Fill-357" fill="#C24849"></path>
            <path d="M510.127059,135.91 L510.218281,135.91 L511.708235,134.605 C511.9819,131.502 512.225158,128.399 512.468416,125.267 L512.86371,120.308 L512.31638,119.148 L510.796018,119.09 L510.00543,120.221 C509.610136,125.006 509.214842,129.762 508.819548,134.518 L510.127059,135.91" id="Fill-358" fill="#C24849"></path>
            <path d="M483.581538,174.4235 L482.760543,175.9895 L485.162715,182.9205 L487.473665,189.5615 L488.598733,190.5185 L488.933213,190.5765 L490.027873,190.1125 L490.271131,188.9235 C488.720362,184.3995 487.139186,179.8465 485.558009,175.3225 L483.581538,174.4235" id="Fill-359" fill="#C24849"></path>
            <path d="M479.582986,168.5325 L480.708054,169.3445 L480.86009,169.3445 L482.137195,168.7355 L482.258824,167.4305 C480.221538,163.0515 477.819367,158.6725 474.869864,154.0615 L473.106244,153.6555 L472.528507,155.7145 C475.265158,159.9195 477.636923,164.2405 479.582986,168.5325" id="Fill-360" fill="#C24849"></path>
            <path d="M457.867149,121.2705 L458.900995,122.2855 L459.326697,122.3435 L460.39095,121.9375 L460.695023,120.7485 C459.691584,117.1235 458.08,113.9045 455.799457,110.9175 L453.883801,110.6565 L453.549321,112.6285 C455.586606,115.3545 457.015747,118.1675 457.867149,121.2705" id="Fill-361" fill="#C24849"></path>
            <path d="M434.443439,183.86 L434.413032,183.86 L432.55819,184.353 L433.044706,186.267 C436.055023,188.007 438.518009,190.066 440.585701,192.618 L441.741176,193.14 L441.954027,193.14 L443.170317,192.27 L442.987873,191.052 C440.555294,188.094 437.757828,185.745 434.443439,183.86" id="Fill-362" fill="#C24849"></path>
            <path d="M447.76181,157.4385 L447.518552,159.4395 C450.650498,163.0935 453.447964,166.8345 456.062986,170.8945 L456.093394,170.9235 L457.34009,171.5615 L458.191493,171.3295 L458.617195,169.5605 C455.850136,165.2975 452.931041,161.4115 449.677466,157.6125 L447.76181,157.4385" id="Fill-363" fill="#C24849"></path>
            <path d="M490.712036,215.1335 L489.647783,216.9025 C490.985701,221.4265 491.958733,225.9215 492.6581,230.6485 L492.6581,230.6775 L494.178462,231.8665 L494.421719,231.8665 L495.546787,230.3875 C494.817014,225.4575 493.783167,220.7595 492.414842,216.0325 L490.712036,215.1335" id="Fill-364" fill="#C24849"></path>
            <polyline id="Fill-365" fill="#C24849" points="476.64362 203.833 474.971222 200.846 473.754932 200.121 473.694118 200.121 472.386606 200.788 472.356199 202.064 473.66371 204.413 475.792217 208.154 476.9781 208.879 477.038914 208.879 478.346425 208.212 478.376833 206.965 476.64362 203.833"></polyline>
            <polyline id="Fill-366" fill="#C24849" points="566.086516 165.513 562.832941 167.195 559.700995 168.819 558.971222 170.008 559.700995 171.313 560.339548 171.487 561.008507 171.284 562.893756 170.298 567.36362 167.978 568.123801 166.818 567.394027 165.513 566.086516 165.513"></polyline>
            <path d="M425.113484,180.0105 L425.539186,179.9525 L426.512217,178.7925 L425.995294,177.5165 C421.981538,174.4715 417.329231,172.2385 412.798552,170.0925 L406.595475,166.9895 L405.318371,166.9895 L404.619005,168.2655 L405.409593,169.5125 L411.551855,172.5575 C415.90009,174.6455 420.400362,176.8205 424.262081,179.7205 L425.113484,180.0105" id="Fill-367" fill="#C24849"></path>
            <polyline id="Fill-368" fill="#C24849" points="432.705158 166.266 430.728688 166.498 430.941538 168.499 438.664977 174.415 439.546787 174.734 440.002896 174.647 440.94552 173.487 440.428597 172.24 435.44181 168.383 432.705158 166.266"></polyline>
            <path d="M399.216652,175.7915 L399.490317,175.8205 L400.493756,175.3855 L400.767421,173.9065 L399.733575,173.0655 L393.043982,171.7895 C388.452489,170.9195 383.860995,170.0495 379.269502,169.1795 L377.657919,170.2525 L378.752579,171.9055 L386.415204,173.3555 C390.672217,174.1675 394.929231,174.9795 399.216652,175.7915" id="Fill-369" fill="#C24849"></path>
            <path d="M472.933937,176.2405 C471.748054,173.6305 470.197285,171.3395 468.190407,169.2805 L466.791674,168.8455 L465.636199,169.8025 L465.970679,171.0205 L470.288507,177.3425 L471.565611,178.1545 L472.173756,178.0385 L472.933937,176.2405" id="Fill-370" fill="#C24849"></path>
            <path d="M489.543634,265.454 L488.692232,267.049 L489.422005,274.154 L489.878114,275.285 L490.759924,275.546 L491.368069,275.459 L492.310693,274.299 C492.645173,271.544 492.371508,269.021 491.45929,266.353 L489.543634,265.454" id="Fill-371" fill="#C24849"></path>
            <polyline id="Fill-372" fill="#C24849" points="566.902443 134.1395 567.662624 134.3715 568.757285 133.7915 574.169774 128.8615 574.838733 127.8465 574.048145 126.6285 572.497376 126.6285 566.446335 132.1675 566.902443 134.1395"></polyline>
            <polyline id="Fill-373" fill="#C24849" points="411.126154 148.516 412.099186 148.951 412.433665 148.893 413.528326 147.878 413.163439 146.573 407.386063 142.049 405.44 142.484 405.896109 144.398 411.126154 148.516"></polyline>
            <polyline id="Fill-374" fill="#C24849" points="476.33448 231.7475 472.624796 225.5705 472.624796 225.5415 470.648326 225.3095 470.344253 227.2525 473.719457 232.8495 474.78371 233.6615 474.966154 233.6905 476.182443 233.1105 476.33448 231.7475"></polyline>
            <path d="M481.493575,149.908 L481.493575,149.908 L482.922715,151.01 L483.257195,150.981 L484.321448,149.415 C483.74371,146.225 482.709864,143.354 481.21991,140.599 L479.213032,139.99 L478.57448,141.759 C480.00362,144.427 480.946244,147.095 481.493575,149.908" id="Fill-375" fill="#C24849"></path>
            <polyline id="Fill-376" fill="#C24849" points="505.910588 207.846 504.329412 209.064 504.299005 213.994 504.967964 215.009 505.576109 215.154 506.488326 214.893 507.157285 213.617 507.248507 209.296 505.910588 207.846"></polyline>
            <polyline id="Fill-377" fill="#C24849" points="534.179186 119.8785 534.513665 119.8495 535.638733 118.9215 537.463167 114.9485 536.794208 113.1215 534.848145 113.6725 532.871674 118.2255 532.871674 118.2545 533.084525 119.4435 534.179186 119.8785"></polyline>
            <path d="M562.158914,150.315 L562.493394,150.373 L563.405611,150.025 C568.088326,145.762 573.379186,142.224 579.521448,139.121 L580.16,137.207 L578.305158,136.627 C571.798009,139.904 566.294299,143.616 561.550769,147.908 L561.125068,149.242 L562.158914,150.315" id="Fill-378" fill="#C24849"></path>
            <path d="M512.658315,300.009242 C511.076773,293.107242 483.106898,293.513242 482.491854,301.024242 C481.906098,308.506242 489.901674,313.987242 498.424432,313.900242 C506.947189,313.842242 514.21057,306.882242 512.658315,300.009242" id="Fill-379" fill="#17111C"></path>
            <path d="M588.660584,265.987738 C582.10697,260.593738 567.741683,258.766738 561.451384,264.798738 C555.161085,270.830738 556.828746,277.297738 562.884987,280.603738 C568.911971,283.909738 574.090496,284.199738 576.548102,283.851738 L581.960684,282.256738 C585.764121,280.806738 595.214198,271.381738 588.660584,265.987738" id="Fill-380" fill="#E0A4A1"></path>
            <path d="M429.529362,272.970049 C422.975749,267.605049 408.610461,265.749049 402.320162,271.781049 C396.029863,277.842049 397.697524,284.280049 403.753765,287.586049 C409.780749,290.892049 414.959275,291.211049 417.41688,290.863049 L422.829463,289.268049 C426.632899,287.818049 436.082976,278.364049 429.529362,272.970049" id="Fill-381" fill="#E0A4A1"></path>
            <path d="M584.744244,233.647263 C579.514199,227.267263 573.371936,229.297263 570.57447,239.215263 C567.777004,249.162263 575.348407,254.382263 581.308226,252.700263 C587.268045,251.018263 589.974289,240.056263 584.744244,233.647263" id="Fill-382" fill="#17111C"></path>
            <path d="M420.858774,242.674202 C419.216783,236.033202 412.557597,233.684202 408.361398,238.527202 C403.222575,244.472202 406.871444,254.709202 412.283932,255.028202 C417.696421,255.376202 422.500765,249.315202 420.858774,242.674202" id="Fill-383" fill="#17111C"></path>
        </g>
    </g>
</svg>