<?xml version="1.0" encoding="UTF-8"?>
<svg width="720px" height="720px" viewBox="0 0 720 720" version="1.1" xmlns="http://www.w3.org/2000/svg" xmlns:xlink="http://www.w3.org/1999/xlink">
    <title>img_a</title>
    <g id="img_a" stroke="none" stroke-width="1" fill="none" fill-rule="evenodd">
        <g id="alpaca" transform="translate(104.000000, 24.000000)">
            <path d="M90.3776479,571 L90.1124909,571.231272 C87.0752374,573.289593 83.0737765,573.543992 79,571.670689 C85.5084003,587.489693 97.247626,614.132227 99.9715121,617 C104.358656,615.42735 108.79401,613.045249 112,609.691805 C106.720964,596.162393 98.9590942,583.234289 90.3776479,571" id="Fill-5" fill="#434544"></path>
            <path d="M99.556,478.328675 L99.172,477.569675 C99.364,479.248675 97.588,481.502675 94.444,480.996675 C95.284,481.502675 97.012,482.330675 99.556,478.328675" id="Fill-6" fill="#AED7C8"></path>
            <path d="M91.789157,521.216556 C92.7144352,521.078284 99.3861778,522.507092 89.7194558,499.853575 C91.3995662,499.738348 97.17038,502.342466 94.4675938,480.956439 C89.5490098,480.126809 81.3676028,472.591 72.2609177,445.812376 C72.796605,448.854354 59.3313727,453.624729 60.548844,410 L57.5538646,410.368725 C33.4235839,420.646923 40.2657725,427.906188 42.7250644,427.007422 C23.1481263,437.239529 29.8929172,443.346531 31.0616896,443.484802 C12.0691376,461.575353 19.1548205,467.451901 20.2748941,467.290584 C10.8760158,487.06344 19.7635561,488.653565 20.7375331,487.916116 C13.8709951,509.140825 21.4923653,510.29309 23.2942228,509.07169 C22.5393906,537.440438 30.7451471,534.214098 31.6947747,532.900517 C35.7124299,561.200129 42.6763656,553.318641 42.6033173,551.958969 C53.8771014,578.991091 59.6966141,568.09067 58.2112991,566.846225 C72.796605,579.590268 77.0334051,571.66269 77.1551522,570.48738 C82.1467845,573.898082 87.3088627,574.036354 91.0343248,571.524418 C94.7597869,569.012482 95.6850651,562.997662 94.5893409,558.803419 C95.8555111,560.07091 103.817773,559.702185 94.6380398,539.97542 C95.6363662,539.606695 104.767401,541.611635 91.789157,521.216556" id="Fill-7" fill="#A3CEC6"></path>
            <path d="M279.446071,621.454534 C276.326071,621.664607 273.710071,620.007364 271.934071,618 C270.830071,630.814455 264.086071,662.652189 263.678071,665.359797 C263.246071,668.184112 274.478071,668.487551 275.606071,667.460527 C276.638071,666.526869 283.262071,632.611746 286.334071,619.540536 C284.726071,620.590901 282.518071,621.244461 279.446071,621.454534" id="Fill-8" fill="#434544"></path>
            <path d="M300.78234,528 C301.802707,533.59306 294.538661,536.343745 270.705785,529.077352 C273.23241,534.991325 259.48174,535.472695 248.160517,532.011416 C247.455977,536.916804 249.010823,541.01991 254.015484,537.306485 C250.347019,544.549956 245.561008,564.056898 253.602478,558.830597 C252.241988,563.254615 246.824321,582.967859 254.331312,580.56101 C251.22162,592.205577 253.845423,604.400281 260.040513,599.724116 C256.590698,610.74978 261.619653,619.506127 268.17916,613.248319 C267.984805,615.701013 272.187748,622.394347 278.431427,621.981744 C284.6994,621.569141 287.444675,619.414438 288.853755,615.586401 C296.798046,622.302657 301.413996,608.709688 300.004917,602.864482 C302.337186,604.262747 308.969576,604.537815 308.580865,582.78448 C309.819883,582.715713 316.355095,584.320279 313.998532,564.217355 C321.238284,569.85626 319.148959,550.693153 317.448346,545.398084 C323.594847,550.922377 325.416933,541.203289 326,532.126028 C321.116811,533.157535 313.318286,532.355252 300.78234,528" id="Fill-9" fill="#A3CEC6"></path>
            <path d="M425.970671,375.725809 C436.533755,355.276737 412.778985,331.145002 405.112231,334.324444 C404.406403,316.574467 390.971328,314.241351 384.910941,313.30353 C383.328912,306.921773 370.015532,306.670162 359.817532,309.369257 C351.396271,300.357026 329.856342,305.251994 325.085916,308.088331 C320.072102,304.79452 304.251815,302.438531 286.776483,308.088331 C276.870549,303.307731 263.703202,305.549352 256.182481,313.280656 C245.76543,304.54291 215.341801,316.917572 206.750168,321.034835 C202.27181,316.277109 194.239972,314.858941 188.203924,317.763898 C183.822921,312.61732 181.486386,311.359267 174.476782,310.924667 C178.955141,306.921773 177.519145,299.716563 167.905278,294.661479 C170.460863,294.089637 183.263126,293.929521 160.627946,253.740461 C166.663994,254.54104 171.483097,251.704704 162.429025,215.152559 C168.465073,224.096169 176.545589,206.826539 161.187741,183.998604 C165.301016,186.514709 171.726486,188.710582 160.433235,150.259922 C172.505331,157.693869 167.175111,132.41845 155.516777,113.387546 C156.052232,125.304735 149.870151,128.987398 147.144194,128.918777 C143.079597,128.781534 136.994871,122.880124 142.714513,110.299599 C131.275229,123.314724 117.134326,124.389787 112.290884,120.569882 C108.688726,117.733546 108.274965,111.900757 110.903567,108.652694 C107.398765,110.688452 94.7181959,115.812157 89.4609928,111.443283 C84.5445343,107.348894 88.0980142,101.813463 91.5541385,99 C84.5932121,102.659789 79.3116701,105.747736 71.6205766,107.714873 C69.1136696,108.332462 66.5094069,108.744189 63.9051442,108.927178 C47.4763844,135.231913 50.0319693,148.796007 58.2341797,147.149101 C53.0743322,153.027638 37.4244173,175.90132 49.0827521,171.280836 C38.3006179,182.626183 44.7991051,188.184488 46.7948951,187.361035 C44.1662936,191.478298 38.5926847,202.503413 40.7588471,205.499865 C42.4625703,207.901602 45.0181552,206.803665 45.8943557,206.369065 C32.6539923,241.891894 41.1969474,243.332936 44.0445991,241.342925 C34.4063933,263.324534 40.0773578,264.559713 43.4361265,263.30166 C32.9217202,291.2533 40.2477301,292.168248 43.9472435,289.972374 C34.9418492,310.352825 40.6858304,313.349278 44.9694774,311.656625 C36.3535056,323.482319 39.7122743,329.063497 44.2636492,325.929803 C36.012761,356.900769 44.5800549,356.489042 48.3282461,353.218106 C43.0710429,384.577924 48.2552294,385.973219 53.9505327,382.656535 C48.4986184,414.062101 59.0130246,413.673248 59.7188528,411.637491 C58.5019077,454.937371 71.9613212,450.202519 71.4258654,447.183193 C86.394291,490.963421 98.9531651,482.957632 98.4420481,478.680254 C111.974478,507.157988 124.752403,501.988536 128.13551,496.155747 C139.088017,513.013651 169.19524,522.117377 168.854496,506.082925 C197.574402,530.306155 203.294044,520.996566 201.200898,517.428272 C220.47731,531.243976 235.397057,531.792944 237.003425,524.633482 C244.305096,534.56066 275.72662,537.557112 272.002768,528.91086 C295.879232,536.161818 303.156565,533.416976 302.134331,527.835797 C327.495468,536.619291 333.507177,530.877997 335.162222,525.068082 C341.685049,528.018787 368.798587,532.662144 361.107493,519.944377 C367.16788,522.32324 401.899496,519.555524 389.900416,510.268809 C414.361014,509.971451 411.002245,503.200841 408.544016,499.792663 C419.082761,504.115789 423.317731,488.676053 419.715573,485.039137 C423.731492,488.698927 430.765435,485.885464 427.260633,466.168349 C432.104075,465.527886 435.09776,456.561403 426.287077,443.912256 C431.033163,445.582035 438.310495,442.082362 430.449029,423.051458 C441.30418,427.923553 433.905153,406.879765 427.966461,401.298586 C430.887129,400.680997 440.062896,401.504449 425.970671,375.725809 Z" id="Fill-10" fill="#BBDDD8"></path>
            <path d="M216.741816,606 C216.189816,608.920281 214.773816,610.851805 212.925816,611.840562 C213.573816,626.99383 213.837816,664.244657 213.645816,665.992226 C217.029816,666.015221 221.325816,666.038215 224.613816,665.256408 C229.725816,655.575792 225.621816,625.752136 223.485816,611.127737 C220.509816,610.759828 217.629816,608.667343 216.741816,606" id="Fill-11" fill="#434544"></path>
            <path d="M234.166446,544.269526 C240.244324,547.29737 239.028748,534.885519 236.15999,525.801985 C232.245837,530.678895 218.582769,528.922283 201.418843,516.464205 C203.509633,520.069883 197.796428,529.477003 169.108847,505 C169.303339,514.014194 160.089276,515.146746 150,511.471729 C150.218804,519.653843 151.385756,534.284573 158.776455,531.834561 C159.043882,536.896377 160.259457,555.779957 168.087763,551.6889 C169.424896,556.63515 171.272571,579.471107 181.045798,575.44939 C182.504488,578.823935 185.664985,605.774062 196.434983,599.949506 C199.206495,615.227409 214.328254,618.601953 216.419044,607.322654 C218.60708,613.84061 232.707756,617.192041 231.249065,599.510353 C238.639764,603.693864 236.15999,587.815015 233.339855,581.366399 C242.845655,586.959822 238.615453,569.994647 233.437101,562.806406 C240.803488,566.04227 236.038433,550.440781 234.166446,544.269526" id="Fill-12" fill="#BBDDD8"></path>
            <path d="M64.844185,95.5080749 C47.4429814,98.5489634 14.048203,94.5174824 7.78668199,110.182666 C1.52516103,125.847849 33.4152329,154.183402 75.9110593,153.999105 C118.382616,153.837846 113.383107,120.295924 112.193904,113.17748 C108.068095,88.3435572 84.8907599,92.0064456 64.844185,95.5080749" id="Fill-13" fill="#F2C68E"></path>
            <path d="M7.42748254,104.122326 C4.66748254,108.446326 11.9154825,113.851326 11.9154825,113.851326 C15.3234825,114.196326 25.3554825,116.496326 27.0834825,110.447326 C28.8354825,104.398326 10.1874825,99.8213262 7.42748254,104.122326" id="Fill-14" fill="#17111C"></path>
            <path d="M12.7961546,115.3595 L10.6361546,115.0835 L9.94015463,114.5085 C9.38815463,118.5105 9.84415463,122.8805 11.4281546,126.4915 L14.2841546,125.7325 C12.9161546,122.6045 12.4121546,118.8555 12.7961546,115.3595" id="Fill-15" fill="#17111C"></path>
            <path d="M74.2297314,108.792769 C73.0297314,113.300769 73.7017314,118.567769 78.2617314,121.028769 C84.5737314,124.455769 90.8617314,119.786769 94.2937314,114.979769 L91.7257314,113.530769 C88.9897314,117.348769 84.8617314,120.660769 79.7497314,118.590769 C76.2457314,117.164769 76.2937314,112.518769 77.0857314,109.551769 L74.2297314,108.792769" id="Fill-16" fill="#17111C"></path>
            <path d="M109.625983,0 C101.449336,9.34375801 97.0643838,21.0176878 95.3104029,32.8069726 C93.5822158,44.5731864 91.802441,76.4803896 102.403708,90 C102.403708,90 116.899845,72.1891823 120.56257,40.7433991 C122.213375,26.5085875 119.324465,11.3740067 109.625983,0" id="Fill-17" fill="#F2C68E"></path>
            <path d="M162.609972,94.8521126 C158.679424,88.5644431 151.813096,84.1676308 144.607091,81.4338614 C139.293572,63.0036999 113.041392,50.6106122 100.157929,54.8251733 C97.5375634,55.6908669 101.977627,60.4521818 101.977627,60.4521818 C91.3263267,56.6249047 69.2715841,56.6704676 67.0151582,62.1607876 C64.7587324,67.6511077 73.9057489,72.2301714 78.5156511,72.9363951 C69.8538875,71.3872591 50.5165609,72.1390457 42.2915248,81.1604845 C39.6226341,84.0992865 39.1616439,88.8606015 41.5636455,91.9816548 C43.4561317,94.4420472 46.4889621,95.3533036 49.7886816,95.5583363 C43.3105558,100.29687 47.3624173,104.784808 48.6240747,105.399906 C55.6602412,108.86268 64.176429,108.817118 71.8676869,106.880698 C79.5346821,104.921496 84.7996757,101.846006 91.7387917,98.20098 C88.2934963,101.003094 84.7511504,106.516195 89.6522043,110.594068 C94.8929353,114.945317 107.533772,109.842281 111.027593,107.814735 C108.407228,111.049696 108.819692,116.858956 112.410564,119.683851 C117.23883,123.488346 131.335425,122.41762 142.738868,109.454997 C137.037147,121.984773 143.102807,127.862377 147.154669,127.999066 C149.872085,128.06741 156.034796,124.399603 155.501018,112.530488 C162.537185,115.082006 170.762221,107.814735 162.609972,94.8521126" id="Fill-18" fill="#BBDDD8"></path>
            <path d="M513,566.230956 C503.837582,561.906956 485.026675,560.710956 474.138708,560.894956 L472,561.906956 C476.569057,567.058956 476.204505,571.175956 473.312389,573.084956 C485.804386,574.625956 505.198577,578.052956 510.764078,580.122956 L513,566.230956" id="Fill-19" fill="#434544"></path>
            <path d="M471.537608,561.438959 C481.091962,558.661219 467.957749,549.570437 463.41036,546.425393 C470.13469,540.227132 450.51803,531.710262 444.591912,530.332871 C453.95276,524.869218 433.997464,517.890435 424.951064,513.253218 C433.562076,513.115479 422.580617,501.407652 417.307581,497 C415.227393,499.410435 412.131298,500.696 408.091863,499.020174 C410.534875,502.440696 413.872851,509.235826 389.563673,509.534261 C401.488474,518.854609 366.97186,521.632349 360.948989,519.24487 C365.59313,526.958262 357.514259,528.28974 349,527.486262 C352.168659,536.921393 356.377412,550.305045 360.295907,543.555828 C361.747201,547.091132 363.996707,562.494959 368.495719,554.873393 C369.414872,561.622611 380.106073,574.822611 380.734967,565.433394 C385.282355,570.414959 394.885085,585.290786 396.675015,575.442437 C401.077274,583.155829 421.516334,588.550612 418.516993,580.171481 C423.523958,583.109916 443.600194,589.790264 441.253935,579.368003 C445.124053,581.020872 470.836149,584.648003 466.240384,573.628872 C473.908055,574.868524 478.576385,569.404872 471.537608,561.438959" id="Fill-20" fill="#BBDDD8"></path>
            <path d="M451.692361,328.627475 C450.505577,323.765628 439.994061,321.152953 436.312609,322.084429 C439.049478,318.9265 447.260086,313.201334 444.934958,308.362206 C442.60983,303.500359 430.499789,301.751002 421.87744,310.497784 C421.80478,306.976352 421.465699,291.913713 414.659856,291.050395 C407.829792,290.164357 402.767795,301.092154 399.498084,313.564837 C398.650381,311.224789 392.716461,300.274273 386.709881,302.63704 C373.897457,307.65792 398.38396,338.442045 398.38396,338.442045 C403.349077,344.121774 433.115558,364.750546 441.907448,357.457775 C447.962468,352.436895 440.018282,339.668867 436.070408,336.942597 C442.60983,338.896424 454.017489,338.237575 451.692361,328.627475" id="Fill-21" fill="#BBDDD8"></path>
            <path d="M167.170567,21 C162.766228,24.1340791 158.792748,27.821231 155.36981,31.9001428 C145.603666,43.5146712 134.449198,67.9420525 130.092732,93.0838194 C128.967711,99.5824246 138.398742,102.64737 141.079644,100.112453 C143.73661,97.5775357 164.130616,77.3903792 169.205181,61.3743132 C174.279745,45.3812918 171.742463,32.6606178 167.170567,21" id="Fill-22" fill="#F2C68E"></path>
            <path d="M161.852071,52.3749422 C153.103128,60.1650485 146.459003,69.9200185 142.731192,80.5533981 C140.626374,86.4479889 138.496196,92.9898289 137,99 C137,99 146.20541,93.012945 153.635672,83.3504392 C162.105664,72.370319 167,64.210356 167,49 L161.852071,52.3749422" id="Fill-23" fill="#D29778"></path>
        </g>
    </g>
</svg>