<?xml version="1.0" encoding="UTF-8"?>
<svg width="720px" height="720px" viewBox="0 0 720 720" version="1.1" xmlns="http://www.w3.org/2000/svg" xmlns:xlink="http://www.w3.org/1999/xlink">
    <title>img_v</title>
    <g id="img_v" stroke="none" stroke-width="1" fill="none" fill-rule="evenodd">
        <g id="vulture" transform="translate(72.000000, 24.000000)">
            <path d="M374.26973,578.322832 C369.032143,574.351564 370.051349,539.784756 371.013932,523.647986 C367.899691,525.353953 363.766244,524.96242 360.567069,523.060686 C362.265746,537.743189 357.820875,566.101396 350.006961,577.008398 C342.504472,587.467934 306.096164,592.278202 301.424802,600.304637 C310.569346,605.198805 333.473173,592.949402 342.730962,595.186736 C332.284099,600.94787 325.0081,612.442173 321.384256,623.712742 C332.510589,618.343141 342.24967,607.967505 352.073685,600.52837 C348.223351,607.743772 344.486261,622.398309 348.619708,629.44591 C354.84819,619.042308 361.24654,597.08847 369.286944,593.984169 C377.299037,590.879868 386.047223,595.242669 391.851035,596.249469 C391.992592,589.565435 379.648873,582.405966 374.26973,578.322832" id="Fill-1488" fill="#E36A56"></path>
            <path d="M376.709737,483.394574 C362.599157,479.752033 349.286751,473.801622 336.886544,466.3219 C340.30729,497.631071 349.201232,511.08901 356.783887,520.681962 C360.68924,525.575758 369.583181,526.687984 373.117953,521.043436 C378.249073,512.896378 385.888741,502.358033 390.079156,486.369779 C385.717704,485.53561 381.270733,484.562412 376.709737,483.394574" id="Fill-1489" fill="#C5B6A9"></path>
            <path d="M475.481913,238.01152 C450.300603,196.558116 409.47593,162.590527 361.617372,154.879575 C348.393667,152.768913 293.27614,154.513727 265.30941,184.907261 C229.352187,223.996724 221.868133,276.763276 234.332178,327.081461 C244.629786,368.647434 297.580878,462.051268 375.853957,482.679472 C454.155172,503.307676 507.697109,473.420701 518.501158,431.657733 C535.663839,365.382943 500.635088,279.493066 475.481913,238.01152" id="Fill-1490" fill="#775B52"></path>
            <path d="M278.005868,391.171377 L276.842723,390.717467 C271.84971,386.036517 268.672338,380.703071 266.885066,377.071789 L267.65104,374.802237 L269.920591,375.568211 C271.594385,378.972538 274.544802,383.908813 279.169013,388.24933 L279.225752,390.632359 L278.005868,391.171377" id="Fill-1491" fill="#9F8077"></path>
            <path d="M307.197974,373.908602 L306.091567,373.483061 C300.502797,368.745372 295.878586,360.489879 294.375008,355.156433 L295.538153,353.057098 L297.637488,354.248612 C299.027588,359.156517 303.396475,366.731145 308.30438,370.901446 L308.474596,373.312844 L307.197974,373.908602" id="Fill-1492" fill="#9F8077"></path>
            <path d="M300.673013,422.746512 L299.42476,422.179124 C294.772179,417.101003 290.488401,411.62571 286.743641,405.866723 L287.225921,403.512063 L289.58058,404.022712 C293.240232,409.611483 297.382164,414.944929 301.921266,419.881203 L301.807789,422.292602 L300.673013,422.746512" id="Fill-1493" fill="#9F8077"></path>
            <path d="M333.382923,413.171842 L332.248148,412.746301 C327.113288,408.065351 322.262121,403.015599 317.836496,397.767261 L318.035082,395.355863 L320.44648,395.582818 C324.758628,400.717678 329.524686,405.653953 334.546069,410.221425 L334.659546,412.632823 L333.382923,413.171842" id="Fill-1494" fill="#9F8077"></path>
            <path d="M332.673689,362.348074 L331.368697,361.752317 C327.992739,357.808971 324.872106,353.581931 322.091905,349.213045 L322.630923,346.886755 L324.985583,347.397404 C327.652306,351.624443 330.687831,355.709636 333.950311,359.539504 L333.780095,361.922533 L332.673689,362.348074" id="Fill-1495" fill="#9F8077"></path>
            <path d="M402.377288,409.398712 L401.469467,409.143388 C397.838185,406.902206 394.263641,404.434069 390.859314,401.852454 L390.518881,399.469425 L392.90191,399.128992 C396.249499,401.682237 399.710565,404.065266 403.256739,406.24971 L403.824127,408.576 L402.377288,409.398712" id="Fill-1496" fill="#9F8077"></path>
            <path d="M355.979145,440.562491 L355.383388,440.449013 C348.688211,437.952507 340.858259,430.916897 337.482301,427.087029 L337.652517,424.704 L340.035546,424.845847 C343.439873,428.704084 350.787546,435.115567 356.574902,437.271641 L357.567831,439.456084 L355.979145,440.562491" id="Fill-1497" fill="#9F8077"></path>
            <path d="M334.163082,455.300391 L333.141784,454.959958 C327.467905,450.619441 322.020982,445.825013 316.97123,440.718522 L316.999599,438.335493 L319.410997,438.335493 C324.318902,443.328507 329.652348,448.009456 335.212749,452.264865 L335.524813,454.647894 L334.163082,455.300391" id="Fill-1498" fill="#9F8077"></path>
            <path d="M386.277657,477.910797 L385.823747,477.854058 C379.922913,476.293741 374.078818,474.336253 368.404939,472.095071 L367.44038,469.882259 L369.653193,468.917699 C375.185224,471.130512 380.944211,473.031261 386.703198,474.563208 L387.894712,476.634174 L386.277657,477.910797" id="Fill-1499" fill="#9F8077"></path>
            <path d="M392.68914,458.577055 L392.065013,458.435208 C385.227989,455.711747 378.589551,452.420897 372.291546,448.619398 L371.695789,446.264739 L374.022079,445.697351 C380.178237,449.413741 386.674828,452.619483 393.313266,455.286206 L394.277826,457.499018 L392.68914,458.577055" id="Fill-1500" fill="#9F8077"></path>
            <path d="M285.310987,370.135472 L284.091103,369.624823 C281.282533,366.702776 278.388855,362.135303 277.310818,358.986301 L278.388855,356.830227 L280.544929,357.908264 C281.42438,360.546617 284.119472,364.745288 286.530871,367.270164 L286.502501,369.653193 L285.310987,370.135472" id="Fill-1501" fill="#9F8077"></path>
            <path d="M331.19848,383.979736 L330.063704,383.554195 C325.865034,379.837805 318.233668,372.007852 316.474765,366.390712 L317.609541,364.263008 L319.737245,365.369414 C321.155715,369.936887 328.049478,377.227821 332.333256,381.00095 L332.475103,383.412348 L331.19848,383.979736" id="Fill-1502" fill="#9F8077"></path>
            <path d="M304.956792,401.923377 L303.680169,401.384359 C299.793562,397.12895 296.219018,392.504739 293.098385,387.681942 L293.580665,385.327282 L295.935325,385.809562 C298.97085,390.490512 302.431916,394.972876 306.205045,399.086438 L306.091567,401.497836 L304.956792,401.923377" id="Fill-1503" fill="#9F8077"></path>
            <path d="M353.468454,407.200084 L352.447156,406.831282 C346.915124,402.632612 341.638417,398.008401 336.702142,393.100496 L336.673773,390.689098 L339.085172,390.689098 C343.907968,395.483525 349.099567,400.022628 354.518121,404.13619 L354.830185,406.519219 L353.468454,407.200084" id="Fill-1504" fill="#9F8077"></path>
            <path d="M363.099863,387.298955 L362.021826,386.901784 C358.475652,384.064844 355.071325,380.915842 351.922322,377.511515 L352.00743,375.128485 L354.418828,375.213594 C357.454354,378.476074 360.716834,381.511599 364.14953,384.26343 L364.404855,386.646459 L363.099863,387.298955" id="Fill-1505" fill="#9F8077"></path>
            <path d="M381.837847,409.739145 L380.986765,409.51219 C376.816464,407.072422 372.731272,404.37733 368.844665,401.540391 L368.475863,399.157361 L370.858892,398.788559 C374.632021,401.56876 378.632106,404.207113 382.688929,406.590142 L383.313055,408.888063 L381.837847,409.739145" id="Fill-1506" fill="#9F8077"></path>
            <path d="M368.972327,433.867314 L368.234723,433.697098 C360.745203,430.037446 357.028813,427.484201 352.915251,423.172053 L352.971989,420.760654 L355.383388,420.817393 C359.213256,424.845847 362.560844,427.143768 369.709931,430.633203 L370.504274,432.902755 L368.972327,433.867314" id="Fill-1507" fill="#9F8077"></path>
            <path d="M327.198396,431.583578 L326.091989,431.158037 C321.581256,427.214691 317.297478,422.902544 313.382501,418.363441 L313.552718,415.952042 L315.935747,416.150628 C319.765615,420.547884 323.935916,424.746554 328.333172,428.604792 L328.475018,430.987821 L327.198396,431.583578" id="Fill-1508" fill="#9F8077"></path>
            <path d="M364.192084,462.165784 L363.369372,461.938828 C357.894079,458.960042 352.560633,455.612454 347.510881,451.981172 L347.11371,449.598142 L349.468369,449.200971 C354.433013,452.747145 359.652982,456.037995 364.986427,458.960042 L365.667293,461.286332 L364.192084,462.165784" id="Fill-1509" fill="#9F8077"></path>
            <path d="M417.69676,452.449266 L417.044264,452.335789 C411.342016,450.066237 405.753245,447.286037 400.476538,444.080296 L399.90915,441.754005 L402.235441,441.186617 C407.370301,444.278881 412.760485,446.973974 418.320887,449.186786 L419.257077,451.399599 L417.69676,452.449266" id="Fill-1510" fill="#9F8077"></path>
            <path d="M391.625288,432.463029 L390.830945,432.236074 C384.816633,428.945224 378.915799,425.313942 373.29866,421.427335 L372.844749,419.072675 L375.227778,418.618765 C380.75981,422.448633 386.547166,426.023177 392.448,429.285657 L393.128865,431.583578 L391.625288,432.463029" id="Fill-1511" fill="#9F8077"></path>
            <path d="M414.40591,432.207704 L413.753414,432.094227 C409.100834,430.193478 404.533361,427.923926 400.221214,425.313942 L399.653826,422.987652 L401.980116,422.420264 C406.150417,424.91677 410.547673,427.101214 415.058406,428.945224 L415.966227,431.158037 L414.40591,432.207704" id="Fill-1512" fill="#9F8077"></path>
            <path d="M575.562713,400.496718 C580.550623,397.890567 557.583692,351.56832 536.786643,319.762058 C537.322068,322.592395 537.040266,324.525992 535.772153,325.198547 C524.697301,331.02736 507.507328,314.15743 503.195745,310.290237 C505.929232,314.381616 520.132095,340.751388 510.353537,347.224733 C500.603159,353.698078 482.990482,333.605488 477.128983,323.236927 C482.342335,331.671892 491.303665,355.911906 482.990482,362.133043 C474.677298,368.354179 461.263483,347.561011 449.765927,338.145237 C451.259482,347.64508 471.267484,375.079732 458.248192,380.908545 C445.200721,386.737358 423.755525,358.321896 422.402872,356.948762 C423.896427,360.647816 441.424563,389.679787 428.912517,394.52779 C426.348111,395.5086 419.923007,392.145823 411.356201,385.364224 L415.470522,390.68862 C447.962389,430.957869 542.366339,520.519818 555.32927,511.832645 C568.2922,503.117449 524.5564,463.520755 507.253706,441.102245 C521.202946,451.526852 561.134408,487.284376 569.673034,482.016026 C578.21166,476.719653 527.318068,407.47448 504.492038,375.724264 C525.993594,398.423006 563.811535,441.186315 573.082848,438.355978 C582.354162,435.525641 542.366339,377.545768 524.049155,345.291137 C543.211748,364.907333 569.673034,403.607287 575.562713,400.496718" id="Fill-1513" fill="#413030"></path>
            <path d="M454.722128,350.316361 C456.640447,354.333018 458.699819,358.686737 460.223191,362.843836 C495.683887,407.251767 541.18755,453.120301 569.877708,481.742491 L570.329077,477.444949 C539.297441,446.463325 490.182825,396.690488 454.722128,350.316361 Z M534.163116,361.973092 C530.439319,355.877886 526.969418,350.091653 524.063729,344.979545 C526.489839,347.451334 529.00058,350.232096 531.595953,353.209478 C523.16099,342.311137 515.882661,332.423982 510.381598,324.474934 C511.651074,327.761289 512.694866,331.216176 513.287288,334.446354 C519.155088,342.563933 526.235943,351.945495 534.163116,361.973092 Z M507.250224,441.014154 C511.030442,443.851093 516.700768,448.513786 523.104569,453.71016 C499.040946,429.863016 475.259429,405.622634 451.87286,381.157543 C449.333908,380.65195 446.682113,379.444144 444.058529,377.786922 C467.388678,402.30819 491.141984,426.632838 515.205607,450.564247 C512.243497,447.165537 509.507071,443.935359 507.250224,441.014154 Z M504.485588,375.483665 C508.688964,379.921649 513.512973,385.146111 518.619087,390.623371 C507.447698,377.562214 496.530205,364.163996 486.233344,350.34445 L486.092291,355.765532 C497.235469,370.540087 509.083912,384.780961 521.158039,398.684772 C514.951712,390.005423 509.140333,381.944022 504.485588,375.483665 Z M574.165715,389.864981 C558.085686,369.191839 542.513447,345.513227 530.072582,325.991713 L525.530679,325.149058 C539.466704,347.086183 557.662527,374.893806 576.253298,397.926383 C576.140456,396.10063 575.406981,393.347956 574.165715,389.864981 Z M505.811485,348.125458 L500.592528,346.805298 C520.452775,373.264673 552.810308,416.268178 573.40403,438.008684 L574.278558,433.992027 C554.502942,412.672849 524.345835,372.787168 505.811485,348.125458 Z M458.079187,414.077275 C455.060655,410.566211 451.844649,406.970882 448.346537,403.038491 C443.973898,398.151091 439.008836,392.617655 433.253878,385.876413 L432.633245,390.342485 C437.598307,396.072541 441.942736,400.931853 445.807585,405.285572 C449.305697,409.217963 452.493492,412.757115 455.512024,416.268178 C484.963868,450.50807 519.267931,479.242613 557.408632,508.875989 L557.324,504.522271 C520.19888,475.619196 486.797555,447.446422 458.079187,414.077275 L458.079187,414.077275 Z" id="Fill-1514" fill="#775B52"></path>
            <path d="M534.189253,325.812214 C545.196606,319.976444 482.681567,222.367574 449.771544,194.872117 C416.861521,167.376661 370.311344,152.113877 330.259147,167.432774 C323.593116,169.985924 316.927086,173.577167 313.033901,179.581277 C309.644869,184.771746 308.272451,191.196704 308.552536,197.369154 C313.089918,302.749699 415.54512,400.078003 427.980908,395.224213 C440.416695,390.370424 422.995389,361.303798 421.510937,357.600329 C422.855347,358.975101 444.169838,387.452538 457.137787,381.588712 C470.077728,375.752941 450.191672,348.285541 448.70722,338.774358 C460.1347,348.201372 473.46676,369.01936 481.729277,362.790797 C489.991793,356.562235 481.08508,332.293286 475.903502,323.848253 C481.729277,334.229191 499.234608,354.345764 508.925559,347.864693 C518.644519,341.383621 504.52822,314.982371 501.811393,310.886109 C506.096698,314.757919 523.181901,331.647985 534.189253,325.812214" id="Fill-1515" fill="#434544"></path>
            <path d="M362.018825,244.686016 C356.896722,244.686016 350.564452,241.297467 343.978892,234.856424 L343.978892,232.700075 L346.117792,232.700075 C355.827272,242.221617 362.778697,242.893726 366.01519,240.373318 C369.730122,237.488851 370.264847,229.031481 364.045151,218.501776 L364.439159,216.541459 L366.437342,216.681482 C375.780957,226.287037 383.661115,227.631255 387.31976,224.774792 C390.640684,222.142366 391.372412,214.889192 385.09643,205.171618 L385.462294,203.155292 L387.516764,203.351324 C396.241224,213.040892 403.305223,217.297582 406.400999,214.777173 C410.003357,211.836697 408.624329,200.466857 403.896235,194.165836 L404.121382,192.121505 L406.203995,192.205519 C418.868535,205.031596 423.343339,203.015269 424.384645,202.063115 C427.395991,199.458693 426.045107,190.217197 421.823594,184.728308 L422.105028,182.627968 L424.243928,182.908014 C429.11274,189.237038 431.139066,200.24282 426.382828,204.359487 C423.84992,206.54384 419.037395,207.187945 410.087787,199.878761 C412.198544,206.54384 412.057827,214.049056 408.314752,217.10155 C405.641127,219.313908 400.687885,219.789985 391.738277,211.892706 C394.102324,219.089872 392.526293,224.494747 389.205369,227.127173 C385.574868,229.983635 378.707873,230.431708 370.011556,223.878647 C373.051046,232.11198 372.375603,239.253136 367.872656,242.753703 L362.018825,244.686016" id="Fill-1516" fill="#566165"></path>
            <path d="M363.859268,285.467018 C360.071695,285.467018 355.133822,283.024979 349.494546,278.311275 L349.298153,276.153193 L351.40236,275.954423 C359.1739,282.457063 364.111773,283.195354 366.159868,281.747168 C368.207963,280.270586 369.189927,275.244528 365.710971,265.533161 L366.300149,263.744225 L368.151851,263.886205 C377.242027,272.149385 382.881303,273.086446 384.957454,271.382698 C387.14583,269.593762 387.089718,263.772621 382.712966,256.134149 L382.993527,254.23163 L384.873286,254.089651 C395.225986,261.245394 403.362255,263.488663 407.149828,260.166354 C410.65684,257.128002 410.207943,249.404343 406.027584,240.488059 L406.420369,238.670727 L408.244016,238.557144 C417.334192,244.804222 424.207936,246.678345 427.069658,243.781973 C430.127773,240.658434 428.865248,232.0829 424.348216,225.409885 L424.516553,223.450574 L426.452424,223.308595 C435.514543,229.782839 442.416344,232.111296 445.446402,229.726048 C448.33618,227.425987 447.915339,220.49741 444.296102,211.211981 L445.165841,209.224274 L447.129768,210.104544 C451.366239,221.03693 451.450407,228.845778 447.326161,232.111296 C444.745,234.155794 439.666846,235.06446 429.734987,229.10134 C432.288092,235.348418 432.765046,242.333786 429.229977,245.940054 C426.648816,248.552468 421.37427,250.057446 410.628784,243.696785 C413.574674,252.101944 413.069665,259.087313 409.113755,262.49481 C406.532594,264.738079 400.416364,267.066535 387.735008,259.541646 C390.232001,265.902307 389.979496,271.212323 386.865269,273.767946 C383.3302,276.635922 377.354251,275.074153 370.087722,269.480179 C371.911368,276.749505 371.153854,281.917542 367.899346,284.245999 L363.859268,285.467018" id="Fill-1517" fill="#566165"></path>
            <path d="M388.690119,320.92876 C383.331005,320.92876 376.715849,317.674151 370.60311,311.64605 L370.575198,309.466877 L372.696514,309.466877 C381.460898,318.070365 389.360008,319.230703 392.960663,316.627016 C396.784614,313.881825 396.645054,307.004695 392.625718,298.203102 L393.128135,296.335239 L395.054067,296.476744 C406.051415,307.061297 413.894701,307.712219 417.579092,304.768921 C422.072932,301.203002 421.654251,292.45801 416.574258,283.514911 L416.937115,281.562146 L418.863046,281.590447 C425.282818,287.222335 431.451381,289.090198 434.521707,286.316705 C437.173352,283.911125 437.508296,277.48681 431.897974,269.08143 L432.177095,267.072063 L434.15885,267.072063 C442.002136,274.260503 446.775097,275.109531 448.617293,273.468076 C450.850257,271.515311 450.431576,265.062696 445.826087,258.015761 L446.13312,255.978093 L448.142788,256.091296 C457.939918,266.08153 464.77837,267.043762 467.90452,264.609881 C471.058582,262.175999 471.756383,255.242268 466.95551,246.780286 L467.513751,244.686016 L469.551331,245.252035 C474.631324,254.223434 474.71506,263.194833 469.718803,267.043762 C465.476171,270.326671 459.0564,268.939925 451.85509,263.449542 C453.61355,268.741819 453.278605,273.439775 450.571136,275.788754 C448.812677,277.317005 445.04455,278.703751 437.899065,273.920891 C440.522798,280.741419 439.378404,286.005395 436.503462,288.609081 C433.740169,291.099565 428.632264,291.778787 421.821724,287.590247 C424.892049,295.854123 424.110512,303.467077 419.449199,307.174501 C414.28547,311.306439 406.302623,309.580081 397.566151,302.702952 C399.771203,310.231003 398.822194,316.174201 394.719122,319.117499 L388.690119,320.92876" id="Fill-1518" fill="#566165"></path>
            <path d="M416.007962,359.936675 C410.013114,359.936675 402.197402,356.227703 393.821423,349.177824 L393.62533,347.026053 L395.754341,346.827864 C406.371384,355.774699 415.951935,359.087292 420.742211,355.463258 C425.336393,352.037413 424.944207,342.609262 419.761745,330.264895 L420.350024,328.36794 L422.282942,328.651067 C429.762495,337.201523 436.373636,338.787038 439.37106,336.606955 C442.704643,334.172057 443.096829,326.52761 436.485689,314.891062 L436.849862,312.909168 L438.838807,313.02242 C447.326839,321.459624 453.405726,323.328267 455.646791,321.487937 C458.139975,319.392792 457.131496,311.889909 450.352276,301.584061 L450.688435,299.517229 L452.76142,299.743732 C462.005811,310.389332 469.709471,312.682666 472.931001,310.332707 C475.956438,308.124311 476.292598,300.678053 469.87755,289.579448 L470.29775,287.540929 L472.342721,287.824056 C480.2985,297.47871 486.965667,298.073278 490.243224,295.63838 C494.053034,292.807103 495.173566,285.30422 489.823025,276.951954 L490.271238,274.828496 L492.372236,275.2815 C498.731256,285.219282 496.938405,294.449244 492.036076,298.101591 C488.562426,300.706366 482.903738,301.046119 476.236571,295.949821 C479.065915,303.707519 478.617702,309.964641 474.695839,312.795917 C470.661923,315.712132 464.414956,314.126617 457.691762,308.747192 C460.605146,315.712132 460.661173,321.261435 457.551696,323.837897 C454.330165,326.52761 448.895584,325.140284 442.42451,320.242175 C446.430413,330.349833 444.525508,336.606955 441.107885,339.098479 C437.073968,342.014694 431.051107,340.570742 424.916193,335.474444 C428.249777,346.233296 427.465404,354.217496 422.563076,357.926469 C420.770224,359.285482 418.557173,359.936675 416.007962,359.936675" id="Fill-1519" fill="#566165"></path>
            <path d="M361.709763,230.984888 C354.371381,227.613213 347.371695,197.85818 316.2118,192.013943 C318.187518,188.41749 324.171121,186.703555 326.880677,181.702236 C326.654881,178.330561 302.127753,169.760887 280.846448,185.326787 C280.225508,180.241177 282.285899,167.175936 281.60851,166.670185 C269.30261,166.670185 251.069555,179.370161 246.807649,189.76616 C211.216501,181.702236 204.640183,198.251542 208.902089,212.49687 C190.951279,212.721648 173.988329,234.637537 173.762533,235.873817 L177.403499,240.762746 C184.290287,244.527784 192.080261,246.663178 199.926684,247.000345 C192.531854,253.350334 185.024126,259.812711 179.746136,267.989023 C174.468147,276.165336 172.12551,292.20889 176.189844,298.446489 C179.887259,297.996932 186.068434,296.451581 199.192846,300.104229 C195.354308,316.091589 195.890574,342.531142 209.071436,356.720275 C210.200418,351.044622 215.506632,347.279584 220.417702,344.132688 C228.264125,339.047077 236.110548,333.989565 243.985195,328.932052 C245.424647,345.368968 255.500809,360.82248 269.979999,368.802111 C269.754203,358.827572 273.705639,348.796838 280.705325,341.632028 C285.898641,336.349737 292.700756,332.444214 296.285273,326.009934 C301.252792,332.303727 306.248536,338.597521 311.216056,344.891314 C321.320442,328.53869 337.323758,312.24226 338.08582,286.448945 C342.545298,291.225485 342.347726,299.542283 355.500363,304.543602 C352.790807,291.450263 369.443287,260.627533 340.033314,229.046175 C345.84757,234.075591 356.516447,233.401256 361.709763,230.984888" id="Fill-1520" fill="#C5B6A9"></path>
            <path d="M265.585296,273.094729 L271.640715,266.14129 C274.147376,264.255135 277.161004,263.185375 280.174631,262.256373 C275.527449,256.175634 269.387536,251.249109 262.45901,248.011678 C268.486264,244.858702 275.133142,242.803637 281.920844,242.071696 C276.597709,237.989718 272.316668,232.584616 269.443865,226.532028 C247.869675,228.924912 238.378159,213.13188 241.842421,184.276519 C247.841511,133.969659 253.164646,57.4255342 207.48144,19.8713369 C187.146499,3.12115145 164.304896,-1.15788753 138.59049,0.249691083 C112.876084,1.65726969 73.1638021,20.7721872 83.1341196,48.8111531 C95.0196393,82.114463 140.449363,88.6456278 174.979332,71.1071983 C211.565327,103.481506 185.062308,159.165316 189.427843,219.184468 C192.751282,264.592954 224.098636,288.212123 258.938418,282.975931 C260.994444,279.597742 263.275787,276.304008 265.585296,273.094729" id="Fill-1521" fill="#E36A56"></path>
            <path d="M90.6680643,19.411399 C74.9082262,17.7513688 38.2764879,13.4465447 18.1106736,31.2566992 C3.05692147,44.5650769 -4.37110256,62.9942257 2.68975679,88.6543536 C17.1221533,55.5381579 76.0944506,68.8746717 99.9601552,71.6601461 C99.9601552,71.6601461 135.603373,58.8863544 126.028848,56.635466 C86.6010093,47.3224152 99.7342077,20.3398904 90.6680643,19.411399" id="Fill-1522" fill="#E69B2E"></path>
            <path d="M137.85674,20.4958296 C133.601331,16.0418349 121.828033,19.3894232 121.062059,27.0775288 C120.267716,34.7372649 128.04093,42.2267847 138.253911,35.8153019 C142.906492,32.9216238 142.112149,24.9498243 137.85674,20.4958296" id="Fill-1523" fill="#17111C"></path>
            <path d="M2.72145591,88.6543536 C9.7512232,72.6836054 27.2113363,67.4917014 46.1002639,66.7298459 C44.6714494,54.2297727 41.2137183,41.9836514 35.8699521,30.5840361 C34.6411716,27.9880841 33.2695097,25.4767827 31.7549664,23.0501319 C26.8398445,25.0253128 22.2676381,27.6212648 18.3241101,31.0919397 C3.09294767,44.438519 -4.42261655,62.9205686 2.72145591,88.6543536" id="Fill-1524" fill="#17111C"></path>
            <path d="M440.999207,607.323351 C439.01728,604.479493 436.384148,569.536645 436.185955,547.883905 C432.844992,550.249094 428.90945,550.333565 425.285354,548.475202 C426.842583,570.156099 424.605836,601.466693 418.490175,609.519597 C404.956441,627.371141 369.932952,629.285818 370.584157,641.815687 C386.581143,637.789234 394.565479,638.267903 409.033549,630.383941 C402.096803,637.620292 390.969696,652.064838 388.336564,661.722692 C400.001623,661.638221 410.675718,639.675754 421.774511,636.184285 C420.698608,647.925757 415.772103,662.989757 421.264873,672 C430.636558,650.488045 434.685353,630.975238 441.820292,627.061414 C449.238363,622.950491 459.685952,623.119433 468.094987,624.161242 C462.857036,614.784958 447.114869,616.136494 440.999207,607.323351" id="Fill-1525" fill="#E36A56"></path>
            <path d="M460.942295,465.440008 C459.162562,467.222398 459.218179,467.890794 452.544181,470.675778 C450.681024,469.227586 448.372933,467.445196 445.397443,464.548813 C443.895793,467.946493 438.779062,471.845471 437.082754,473.488612 L432.939315,470.146631 C431.159582,474.407657 427.294225,476.969842 426.348742,477.749638 L411.193207,465.356458 C409.914024,467.389497 409.914024,469.506085 404.936334,472.569567 C401.182211,471.232775 400.459195,468.364241 397.678362,465.356458 C394.063281,503.120845 410.63704,530.135192 420.397761,543.308168 C426.015042,550.911175 434.941514,552.247967 440.280711,544.227212 C447.510875,533.365774 462.054627,505.488081 460.942295,465.440008" id="Fill-1526" fill="#C5B6A9"></path>
        </g>
    </g>
</svg>