<?xml version="1.0" encoding="UTF-8"?>
<svg width="720px" height="720px" viewBox="0 0 720 720" version="1.1" xmlns="http://www.w3.org/2000/svg" xmlns:xlink="http://www.w3.org/1999/xlink">
    <!-- Generator: Sketch 64 (93537) - https://sketch.com -->
    <title>img_z</title>
    <desc>Created with Sketch.</desc>
    <g id="img_z" stroke="none" stroke-width="1" fill="none" fill-rule="evenodd">
        <g id="zebra" transform="translate(10.000000, 10.000000)">
            <path d="M128.192292,79.7029703 C134.967008,36.0528167 120.445793,7.5420835 113.726607,0 C101.704262,23.7589444 83.4902706,49.3688762 81.4356436,75.8904885 C96.8453466,76.1391286 112.782589,77.5204626 128.192292,79.7029703" id="Fill-1207" fill="#DCD3C5"></path>
            <path d="M219.737035,109.718155 C283.097749,175.531518 241.259389,229.713008 290.747095,283.812196 C303.386338,297.61133 319.918796,305.512225 337.410849,310.148515 C359.97505,282.19361 334.394978,289.106893 327.814895,292.728137 C349.337249,276.405106 342.291077,260.164376 320.576804,261.810396 C350.187177,239.095321 335.683577,229.520972 313.749968,227.573182 C348.021233,208.040412 328.089065,197.670486 308.979408,197.670486 C338.863951,181.320022 327.897146,169.85275 303.386338,168.563367 C331.104936,150.31998 339.247789,137.069519 289.897168,139.209345 C299.246369,129.799598 307.389221,125.218176 304.894273,117.070377 C302.399325,108.950012 285.812033,110.733201 269.14249,115.973031 C278.107853,111.830547 291.103516,93.2030883 286.278122,86.3995393 C281.452728,79.6234239 258.449855,89.2800742 250.307003,92.1057417 C257.956349,84.9729887 269.252158,68.6225241 264.728351,61.2154344 C260.231961,53.8083447 242.739908,67.4977438 234.569638,74.8225325 C239.066028,65.7419892 245.509026,46.2092194 238.216101,43.6030212 C230.923176,40.9693893 219.682201,56.9357826 212.44411,64.6995099 C210.908757,52.2446258 221.382056,34.9614166 211.347429,29.9959231 C201.34022,25.0578633 186.343115,39.1313337 177.185833,51.0924119 C179.406611,13.8374942 164.135335,14.9622744 147.602877,47.3339997 C150.728416,42.0393023 153.470118,20.3392729 141.900139,17.5684727 C130.357577,14.7702388 133.099278,36.9915078 128.685139,46.6755917 C128.602888,40.1189457 128.49322,30.3525608 120.926125,29.1729131 C113.331613,27.9932655 109.41098,41.6826646 105.983853,49.3640909 C104.558169,52.4915288 103.022816,65.5773872 102.227723,76.5782871 C153.716871,80.5013012 205.864027,95.3154806 219.737035,109.718155" id="Fill-1208" fill="#0F0F0D"></path>
            <path d="M338.132375,238.619892 C319.071143,248.91394 295.71018,251.47369 275.142672,259.097892 L276.37508,261.492496 C296.477011,254.060964 319.043756,251.47369 337.91328,241.840223 L338.132375,238.619892 Z M327.780154,229.426812 L322.960073,229.316715 C305.651598,232.124183 286.12479,237.849215 269.227118,244.014634 L270.048722,246.601908 C289.356436,239.555715 311.07419,233.775634 331.559536,230.940642 L327.780154,229.426812 Z M331.258281,213.682973 L330.984413,213.325159 C309.896556,214.040788 285.796148,218.609804 264.626131,223.811876 L265.06432,226.454199 C285.467506,221.47232 308.581988,217.068449 329.231656,216.132627 L331.258281,213.682973 Z M325.3975,143.055895 C304.419191,146.63404 273.389915,155.551878 253.945268,162.818265 L254.712099,165.378015 C274.184133,158.05658 304.802606,149.303886 326.465586,145.58812 L325.3975,143.055895 Z M304.364417,167.690047 L309.102338,164.469717 C291.793863,167.414805 273.52685,171.213144 257.176914,174.791289 L257.752037,177.406087 C272.760018,174.130708 289.49337,170.607612 305.514664,167.800144 L304.364417,167.690047 Z M313.812872,197.058361 C296.477011,198.930006 277.415779,202.5632 262.353024,207.352409 L262.681666,210.04978 C280.483104,204.297224 304.33703,200.251167 323.535196,198.819909 C320.604805,197.884087 317.263613,197.306079 313.812872,197.058361 Z M321.535958,261.217254 L321.727665,261.079633 C309.650075,265.538553 298.065447,271.291109 287.055942,277.786818 L288.726539,279.823609 C301.40664,272.364553 314.826185,265.951416 328.84824,261.409924 C326.657294,261.107158 324.219867,261.024585 321.535958,261.217254 Z M149.218041,81.6769446 L151.819789,82.1999043 C155.106209,67.2817918 160.391866,42.9228811 164.226022,24.3990993 L160.912216,27.4267606 C157.297155,44.6844295 152.257979,67.8047514 149.218041,81.6769446 Z M196.26861,32.0783491 C191.69501,49.5562116 184.519661,73.1994932 180.082995,89.2460976 L182.62997,90.016775 C187.285731,73.1444448 194.817108,48.3451471 199.500256,30.1241315 L196.26861,32.0783491 Z M333.86003,287.833149 C326.876389,291.576439 320.057069,295.622495 313.511617,300.108939 L316.277687,301.485149 C322.740978,297.136326 329.395977,293.145318 336.215297,289.512125 C333.25752,290.255278 330.40929,291.356246 328.76608,292.264544 L333.86003,287.833149 Z M340.186387,267.547819 C326.109558,274.428867 312.087502,281.447536 299.188307,290.365375 L301.351866,292.181971 C313.977193,283.539375 327.588446,276.658327 341.336634,269.942424 L340.186387,267.547819 Z M327.807541,180.213555 C308.171186,182.498063 275.882117,186.764313 260.134691,190.755321 L260.545493,193.425167 C276.073824,189.406635 304.966927,185.608297 326.849002,183.048547 L327.807541,180.213555 Z M147.711765,19.0594059 C143.987157,38.4364377 138.126376,64.3917515 135.059051,79.1722431 L137.715573,79.585106 C140.618577,65.4927192 146.123329,41.0787602 149.793164,22.49993 L147.711765,19.0594059 Z M215.576323,61.1989452 L213.522311,63.4834532 L213.440151,59.2447275 L212.75548,61.171421 C209.90725,68.8506708 204.429885,84.0715494 199.253774,95.9344765 L201.691202,97.00792 C206.922086,85.0073719 212.454225,69.7039207 215.329842,61.9145742 L215.576323,61.1989452 Z M165.266722,85.2275655 L167.86847,85.8330977 C170.798861,74.16284 175.153366,56.1895421 178.494559,42.4274456 C178.467172,39.0419699 178.248078,36.0693571 177.892049,33.5371314 C174.989045,45.3450101 168.90917,70.6397433 165.266722,85.2275655 Z M133.854031,25.8854058 C132.484689,32.3535911 132.101274,40.473228 129.855554,45.4000585 C129.828167,42.9504053 129.80078,40.0603651 129.362591,37.33547 C126.596522,51.1526148 123.063621,67.9423724 121.283477,77.2180254 L123.939999,77.5483157 C126.514361,64.5293725 133.114586,34.197712 134.264833,27.206567 L133.908804,28.1148654 L133.854031,25.8854058 Z M107.425743,75.7592432 L110.082265,76.0069609 C112.10889,65.3826225 116.271688,44.1614698 118.873436,28.3901073 L115.915659,30.6470911 C113.368684,45.5376794 109.34282,65.9055821 107.425743,75.7592432 Z M265.776377,60.0154049 L265.748991,59.9878807 L263.667592,58.2263323 C248.440516,71.0526062 230.88556,90.9525976 217.904203,106.063379 L219.876055,107.824928 C232.884798,92.7416701 250.658849,72.5664368 265.776377,60.0154049 Z M241.84029,45.3725343 C231.132041,61.7219048 217.000438,83.7137349 207.634143,99.7878635 L210.016797,100.998928 C218.917516,85.7780493 232.364448,64.887187 242.442801,49.3635422 L241.84029,45.3725343 Z M287.001169,94.9711298 L287.001169,94.9711298 C269.884402,102.898097 250.494528,114.045395 234.308913,124.669734 L235.897349,126.816621 C251.097038,116.880387 269.336665,106.283573 285.275798,98.71442 L287.001169,94.9711298 Z M294.833801,110.522299 C278.319544,118.063928 256.793498,128.633218 241.319941,135.101403 L242.716669,137.413435 C259.313086,130.42229 282.126313,119.137371 299.84559,111.210404 L294.833801,110.522299 Z M296.120982,133.229758 L300.913677,128.688266 C293.683554,131.330588 285.029317,134.578443 280.236622,136.147322 C270.596459,139.312604 258.820123,145.615645 248.851318,149.413983 L249.946791,152.028781 C261.09323,147.845104 274.074586,140.909008 284.974543,137.440959 C287.083329,136.752854 291.73909,134.936258 296.120982,133.229758 Z M264.571357,86.2734848 C251.863869,94.861033 236.06167,105.953283 225.35342,113.632532 L227.133564,115.641799 C239.813665,106.558815 258.272387,93.6774927 273.033887,83.9064042 C270.267817,84.5119365 267.364813,85.3651865 264.571357,86.2734848 L264.571357,86.2734848 Z" id="Fill-1209" fill="#FFFFFE"></path>
            <path d="M506.751294,519.80198 C491.674325,527.942794 475.105929,534.763476 457.425743,539.961496 C459.188338,611.276128 478.305718,693.729373 478.305718,696.534653 C481.397039,696.149615 487.308512,693.09681 491.864143,689.493949 C495.958788,691.171617 504.148077,693.536854 507.673267,694.444444 C507.239398,690.209021 497.097695,587.953795 506.751294,519.80198" id="Fill-1210" fill="#D4CBBD"></path>
            <path d="M21.8611419,81.9212775 C81.5091714,62.0462316 199.155976,85.9347723 221.118546,108.723725 C284.642323,174.671492 242.696289,228.96363 292.311355,283.173298 C330.601542,324.985117 404.680546,313.494427 433.15767,317.507921 C465.950343,322.126189 555.202486,319.652117 588.65486,366.796936 C629.199028,460.481799 496.489034,567.031838 344.812616,548.971111 C277.578017,540.971612 210.260955,507.076824 180.519403,418.065207 C148.826233,323.308246 158.666784,232.179923 162.624994,201.803816 C117.490402,209.913274 96.1050718,211.920022 46.4900057,208.621259 C-12.058521,204.717723 -9.36473902,92.3398701 21.8611419,81.9212775" id="Fill-1211" fill="#DCD3C5"></path>
            <path d="M97.6962251,75.7940594 C100.939789,75.9049505 110.199195,78.9544554 111.64078,79.7306931 L114.634839,84.6376238 L108.286324,87.0772277 C102.714047,86.5227723 91.5694924,82.780198 93.5100865,77.7623762 L97.6962251,75.7940594" id="Fill-1212" fill="#AFA89B"></path>
            <path d="M147.228907,91.3770715 C153.078412,91.6265764 163.197224,97.032517 162.005145,101.218656 C160.840789,105.432517 151.498214,99.3335071 147.034848,98.0859824 L142.848709,95.0642002 L147.228907,91.3770715" id="Fill-1213" fill="#AFA89B"></path>
            <path d="M206.204307,100.49505 C209.362468,94.2733533 212.603738,85.8118464 213.961193,74.2809694 C216.786916,50.3067 212.576035,27.217294 205.70565,13.8613861 C187.22764,27.1343381 171.409134,44.0296998 159.385961,63.3307841 C155.562925,69.5248283 152.072326,76.1889563 150.742574,83.240212 L151.185825,83.3784719 C173.348356,87.9133971 192.934492,93.9968335 206.204307,100.49505" id="Fill-1214" fill="#DCD3C5"></path>
            <path d="M159.405941,120.717473 C154.900714,128.441721 142.504346,142.048492 132.038789,137.815275 C121.881042,133.692011 124.651337,116.786628 126.778028,108.842473 C127.477597,106.313538 131.395185,107.468052 130.723599,109.969498 C129.184546,115.632114 125.966527,132.015217 134.221445,134.296756 C142.364432,136.550807 152.43823,124.565853 155.908094,118.600864 L159.405941,120.717473" id="Fill-1215" fill="#17111C"></path>
            <path d="M114.356436,104.735688 C108.160223,112.492715 100.617008,127.163021 88.5209246,124.41404 C75.9399197,121.583406 79.7923473,101.932272 82.2169521,93.2226276 C82.8904534,90.7458226 86.6890009,91.8617458 85.9885596,94.3385508 C84.1566359,100.925219 79.7654073,121.637841 91.780671,120.630788 C100.832529,119.895912 105.978079,108.954422 110.988929,102.63993 L114.356436,104.735688" id="Fill-1216" fill="#17111C"></path>
            <path d="M52.5467064,76.2376238 C41.407296,77.4156281 31.043765,79.3881005 22.0380227,82.3468091 C-9.44051013,92.7296847 -12.1560878,204.722284 46.8661613,208.612438 C53.8213654,209.078161 60.1946599,209.406906 66.1800147,209.653465 C73.1906387,165.026277 68.3136829,118.64578 52.5467064,76.2376238" id="Fill-1217" fill="#484846"></path>
            <path d="M28.4714891,111.450894 C31.6873307,109.566079 38.6734693,106.809186 41.0021822,112.857472 C43.3031723,118.905759 40.8912911,129.230043 38.2853505,133.562304 C35.6794099,137.866433 31.6873307,139.920037 29.0813901,137.725775 C25.6714891,134.856356 24.6180238,130.045858 24.1190139,125.572939 C23.5368357,120.3686 23.9804,114.038998 28.4714891,111.450894" id="Fill-1218" fill="#0F0F0D"></path>
            <path d="M73.9145679,188.543018 C86.6190696,193.976681 99.2678498,191.925196 105.703683,178.840047 L109.158416,180.974701 C102.026064,195.529156 87.0369809,198.550938 72.7722772,192.424206 L73.9145679,188.543018" id="Fill-1219" fill="#17111C"></path>
            <path d="M121.993295,153.379864 C125.085604,150.987473 134.498156,145.745719 143.341073,147.708017 C152.18399,149.697195 155.466176,155.449685 156.822452,158.99795 C159.535003,166.175122 155.330549,173.191009 150.285204,174.131837 C140.954028,175.905969 130.998965,175.099545 122.75281,170.422287 C119.280744,168.48687 115.808679,165.288056 116.107059,161.36346 C116.378314,157.97648 119.30787,155.476566 121.993295,153.379864" id="Fill-1220" fill="#EFABAA"></path>
            <path d="M204.406474,39.8634927 C206.648887,40.4464319 208.535795,74.2291446 198.499631,98.1018915 C196.940881,101.821599 165.957301,88.6638287 166.340152,87.6089864 C176.184891,59.9887735 202.164062,39.2805535 204.406474,39.8634927" id="Fill-1221" fill="#AFA89B"></path>
            <path d="M485.768632,322.277228 C475.225699,341.626732 461.782782,396.615706 467.420134,497.277228 C478.342504,438.732575 487.150867,375.254074 512.871287,326.714934 C503.764795,324.785497 494.604097,323.3522 485.768632,322.277228" id="Fill-1222" fill="#0F0F0D"></path>
            <path d="M431.9766,318.014574 C428.345982,317.491869 423.98924,317.244272 419.073941,317.079208 C400.306437,364.150123 398.128066,491.084782 407.037045,505.940594 C416.225302,448.08546 426.446889,371.880647 447.029703,319.527666 C441.276569,319.059983 436.165776,318.5923 431.9766,318.014574" id="Fill-1223" fill="#0F0F0D"></path>
            <path d="M356.943556,313.613861 C341.073219,363.335699 338.706589,427.362211 343.634747,479.950495 C351.430702,428.712748 364.182657,360.689747 382.920792,315.956631 C374.512298,315.570763 365.741848,314.881713 356.943556,313.613861" id="Fill-1224" fill="#0F0F0D"></path>
            <path d="M300.034442,291.089109 C274.43736,350.777841 281.26695,445.9059 282.23864,457.425743 C294.037729,405.050323 304.282114,356.139105 325.742574,305.660748 C316.497641,302.114066 307.780197,297.385157 300.034442,291.089109" id="Fill-1225" fill="#0F0F0D"></path>
            <path d="M273.848092,254.70297 C260.540793,270.406462 232.438425,311.908546 225.247525,369.059406 C252.633558,309.336894 274.206259,292.019281 287.623762,277.300677 C281.562467,269.777228 277.154253,262.253778 273.848092,254.70297" id="Fill-1226" fill="#0F0F0D"></path>
            <path d="M256.435644,171.607801 C255.25925,167.02696 253.863992,162.363829 252.11308,157.673267 C234.138874,163.241595 220.651381,183.814232 214.851485,199.257426 C229.323867,190.232895 242.182126,180.824342 256.435644,171.607801" id="Fill-1227" fill="#0F0F0D"></path>
            <path d="M691.77536,538.134343 C684.192197,527.18113 673.558979,520.277616 665.723976,516.336634 C668.326316,520.359154 658.812385,527.153951 655.174705,523.48476 C655.118741,529.138031 655.034794,534.791303 654.97883,540.444574 C654.866901,550.038827 654.866901,560.067948 659.40001,568.575034 C666.42353,581.729761 682.149499,587.682003 696.560308,592.574257 C694.853396,586.540478 697.623629,580.316443 698.966773,574.201126 C701.681041,561.943312 698.966773,548.571151 691.77536,538.134343" id="Fill-1228" fill="#0F0F0D"></path>
            <path d="M664.789904,514.753007 C639.244075,483.179551 649.762946,433.274887 632.522926,397.67951 C620.064212,371.933738 595.857148,356.475331 568.316832,348.267327 C575.66638,353.356289 582.196277,359.293412 587.305443,366.516455 C589.190643,370.866698 590.584052,375.27166 591.731565,379.676622 C634.216874,411.386877 619.954925,479.54067 654.243711,521.92133 C657.631607,526.326292 667.822617,518.857009 664.789904,514.753007" id="Fill-1229" fill="#DCD3C5"></path>
            <path d="M303.217822,540.169623 C284.370236,534.500596 266.182041,526.217211 249.50495,514.60396 C250.57646,599.254099 264.753362,689.820941 265.275379,694.526785 C268.737181,693.756237 277.611481,690.013578 280.963384,687.949612 C285.084576,689.628305 292.145552,693.370964 298.272391,694.80198 C297.777848,691.389556 294.645742,611.637897 303.217822,540.169623" id="Fill-1230" fill="#DCD3C5"></path>
            <path d="M226.980198,497.239342 C207.260363,477.736185 190.845226,451.961208 179.712188,418.208918 C178.52033,414.522848 177.46391,410.864287 176.380403,407.178218 C164.732698,575.994688 189.545017,691.280629 189.219965,696.534653 C193.283118,695.544366 201.924089,690.647946 206.989487,688.337276 C209.914957,689.877722 221.210521,694.389031 225.896691,696.094526 C226.303006,692.133377 220.777118,597.34088 226.980198,497.239342" id="Fill-1231" fill="#DCD3C5"></path>
            <path d="M589.108911,431.435644 C580.184425,457.912586 560.042925,482.823983 532.205079,502.956346 L532.095911,503.12114 C529.803383,563.490766 552.100951,695.02404 553.629304,696.534653 C555.021196,695.875476 562.526497,693.2937 568.585323,690.135144 C574.507688,693.623288 578.546905,694.859245 583.65051,696.314928 C584.305518,617.515813 575.244572,546.434561 589.108911,431.435644" id="Fill-1232" fill="#DCD3C5"></path>
            <path d="M549.861723,337.871287 C538.293254,358.539809 533.121469,431.7294 536.33342,453.960396 C548.745706,429.262335 553.890271,376.055969 568.316832,347.986253 C562.627867,344.093773 556.448944,340.722118 549.861723,337.871287" id="Fill-1233" fill="#0F0F0D"></path>
            <path d="M261.633663,673.940594 C263.277448,686.027723 264.419738,693.651485 264.559042,694.926733 C268.069496,694.150495 277.068518,690.380198 280.46753,688.30099 C284.646642,689.992079 291.806855,693.762376 298.019802,695.20396 C297.880498,694.178218 297.490448,686.194059 297.239701,673.607921 C286.596895,674.578218 273.864532,674.855446 261.633663,673.940594" id="Fill-1234" fill="#AFA89B"></path>
            <path d="M187.128713,673.857426 C189.12435,687.386139 190.526689,695.259406 190.445785,696.562376 C194.490995,695.564356 203.093809,690.629703 208.136837,688.30099 C211.049389,689.853465 222.295073,694.4 226.960548,696.118812 C227.068421,694.982178 226.717836,686.332673 226.259379,672.249505 C212.155079,673.80198 199.911577,674.49505 187.128713,673.857426" id="Fill-1235" fill="#AFA89B"></path>
            <path d="M549.257426,675.368317 C551.469866,688.342574 553.073885,696.548515 553.461062,696.908911 C554.871493,696.243564 562.476756,693.637624 568.616278,690.449505 C574.617522,693.970297 578.710536,695.217822 583.882115,696.687129 C583.937426,689.534653 583.909771,682.465347 583.826804,675.39604 C573.068814,676.227723 560.78977,676.893069 549.257426,675.368317" id="Fill-1236" fill="#AFA89B"></path>
            <path d="M474.752475,676.047525 C477.056127,688.217822 478.663326,695.869307 478.663326,696.70099 C481.717004,696.312871 487.556494,693.235644 492.056651,689.60396 C496.101435,691.29505 504.191003,693.679208 507.673267,694.594059 C507.566121,693.540594 506.896454,686.554455 506.066068,675.576238 C495.699635,676.213861 484.851042,676.491089 474.752475,676.047525" id="Fill-1237" fill="#9C9588"></path>
            <path d="M263.366337,221.075718 C262.410434,214.45439 261.618401,207.749949 260.771745,200.990099 C229.827823,222.211595 209.890433,267.12027 204.455446,284.158416 C223.081884,262.188904 242.773471,241.133634 263.366337,221.075718" id="Fill-1238" fill="#0F0F0D"></path>
        </g>
    </g>
</svg>