<?xml version="1.0" encoding="UTF-8"?>
<svg width="720px" height="720px" viewBox="0 0 720 720" version="1.1" xmlns="http://www.w3.org/2000/svg" xmlns:xlink="http://www.w3.org/1999/xlink">
    <title>img_g</title>
    <g id="img_g" stroke="none" stroke-width="1" fill="none" fill-rule="evenodd">
        <g id="giraffe" transform="translate(188.000000, 24.000000)">
            <path d="M290.266667,480.666667 C295.400154,490.574569 297.414334,501.530081 296.487455,512.751935 C305.613654,529.300618 315.221117,543.345691 339.605181,553.466667 L339.498233,553.342374 C338.072264,551.566764 340.050796,544.712911 344.16828,543.558764 L344.4,543.505496 C312.333531,534.43213 307.342641,505.276618 290.266667,480.666667" id="Fill-394" fill="#DD965E"></path>
            <path d="M343.910993,543.087 C348.030695,541.909061 356.5187,541.745962 361.295423,541.456008 C370.848869,540.8761 380.721946,542.289626 389.103408,547.037624 L390.133333,547.889364 C383.82948,559.052595 368.824533,560.556732 366.675895,561.716548 C369.446039,563.34754 371.50589,565.812149 371.914309,567.225675 C359.413146,569.200988 343.555847,558.545176 339.258572,553.072293 C337.837985,551.26008 339.809049,544.264938 343.910993,543.087" id="Fill-395" fill="#C06B33"></path>
            <path d="M119.686181,195.176691 C146.965455,169.535696 164.294135,137.168611 171.707952,124.054514 C173.762383,120.424561 175.352334,116.67005 176.531399,112.933333 C178.907393,178.076763 170.010813,273.434217 165.633981,361.958818 C160.703347,461.818126 235.305995,427.849591 275.251283,462.672233 C308.92609,492.03215 303.030766,541.516957 258.279895,576.037103 C229.928745,597.923587 145.357639,602.300884 109.128192,572.08686 C76.4895328,544.880002 58.8035601,509.648101 71.1480118,428.365614 C85.0109561,337.225311 110.271527,263.540815 119.686181,195.176691" id="Fill-396" fill="#F0AE62"></path>
            <path d="M257.603553,575.874801 C255.205076,577.759602 252.362437,579.484373 249.2,581.084676 C255.720305,627.280093 266.593401,664.78053 267.321827,667.57217 C268.77868,673.244356 285.26599,674.044507 285.745685,666.558645 C285.887817,664.584938 286.598477,651.906981 287.34467,634.410333 C288.250761,613.197426 290.880203,561.43651 291.2,532.933333 C285.372589,548.118432 274.179695,563.036813 257.603553,575.874801" id="Fill-397" fill="#F0AE62"></path>
            <path d="M264.133333,655.168345 C265.960095,662.275693 267.237055,666.713366 267.467617,667.597365 C268.921932,673.237275 285.380523,674.032874 285.859382,666.589606 C285.930325,665.493448 286.196358,661.020415 286.533333,654.266667 C280.946635,656.388263 270.198892,656.883302 264.133333,655.168345" id="Fill-398" fill="#17111C"></path>
            <path d="M247.59773,565.958222 C224.151179,571.859545 179.643679,570.259788 157.603565,560.3413 C135.563451,550.422812 114.876365,533.874224 105.957062,511.442088 C86.1067172,461.547472 100.794192,384.332576 105.903653,345.103 C108.057816,328.607737 112.259324,291.742246 98.9782862,295.155059 C89.2222422,335.859965 78.5404422,379.675508 71.1343942,428.53917 C58.8325212,509.735681 76.4574912,544.930316 108.983572,572.108396 C142.008137,599.713076 215.285285,598.415496 249.2,581.262556 C248.345456,574.934631 247.918184,567.682404 247.59773,565.958222" id="Fill-399" fill="#F8C667"></path>
            <path d="M158.665036,559.972261 C140.502715,551.690425 123.29167,538.795696 112.933333,521.733333 C116.438961,545.528027 125.581778,605.549074 127.484329,615.131069 C133.297681,644.536039 139.410509,665.498879 139.956612,667.564885 C141.436374,673.246403 158.0837,674.047871 158.576954,666.549693 C158.7355,664.127478 159.774857,645.47999 160.690901,621.578434 C161.025609,613.047252 162.804847,576.340019 163.333333,561.806732 C161.712641,561.218989 160.109565,560.631246 158.665036,559.972261" id="Fill-400" fill="#F0AE62"></path>
            <path d="M136.266667,655.168345 C138.094172,662.275693 139.364724,666.713366 139.608392,667.597365 C141.070396,673.237275 157.517949,674.032874 158.005284,666.589606 C158.074903,665.493448 158.335975,661.020415 158.666667,654.266667 C153.07972,656.388263 142.340948,656.883302 136.266667,655.168345" id="Fill-401" fill="#17111C"></path>
            <path d="M164.957139,355.716027 C165.527749,341.161754 166.25398,326.447543 167.066667,311.733333 C164.732354,312.230915 161.844722,312.923976 160.997453,313.421558 C157.850453,315.251949 156.328826,318.770564 154.634288,321.933764 C148.599656,333.253754 140.040508,337.891929 145.452656,349.46071 C149.896497,358.985851 158.991672,358.488269 164.957139,355.716027" id="Fill-402" fill="#C06B33"></path>
            <path d="M164.941153,227.93837 C161.974242,224.688848 153.624251,224.07844 149.626915,226.089194 C146.411281,227.704979 140.459692,233.288412 139.802352,236.717466 C138.594269,243.001072 138.80746,252.372622 140.939372,258.422837 C141.916499,261.22353 150.337553,265.119366 152.576061,267.112167 C154.814569,269.122921 158.065736,270.271923 161.014881,269.481984 C166.255833,268.099591 168.01466,261.95961 168.902957,256.825006 C169.364872,254.078172 172.296251,235.999339 164.941153,227.93837" id="Fill-403" fill="#C06B33"></path>
            <path d="M141.38276,196.404344 C141.38276,196.404344 139.059694,193.624964 136.470627,192.379657 C133.863827,191.116303 130.52996,190.592913 129.04036,193.173766 C127.55076,195.754619 123.950894,214.00107 133.331827,213.730351 C145.05356,213.369393 142.97876,199.111533 141.38276,196.404344" id="Fill-404" fill="#C06B33"></path>
            <path d="M263.004965,465.112741 C258.285008,466.904276 258.410159,487.214246 262.647392,489.431492 C268.815518,492.677539 279.202998,489.999107 281.527219,487.622219 C287.516558,481.502621 270.853681,462.115025 263.004965,465.112741" id="Fill-405" fill="#C06B33"></path>
            <path d="M158.479487,282.893966 C156.249935,277.537088 138.887521,274.109375 136.938858,274.419419 C133.059087,275.056733 130.952424,279.879646 131.777534,283.634628 C132.602643,287.372386 135.393972,290.248909 137.939523,293.056533 C139.747742,295.020147 146.067731,301.78945 152.036609,296.966537 C158.005488,292.143624 159.199264,284.581986 158.479487,282.893966" id="Fill-406" fill="#C06B33"></path>
            <path d="M212.8,439.6 C213.354452,448.344695 216.216139,457.332299 222.958988,463.005941 C235.425212,473.485695 249.966158,467.794703 257.084604,456.516822 C257.352887,456.065706 257.907339,454.295947 258.533333,451.988319 C244.081815,445.81151 227.734428,443.607985 212.8,439.6" id="Fill-407" fill="#C06B33"></path>
            <path d="M111.656271,278.09382 C118.736516,274.143844 126.593646,269.201946 127.758973,261.461411 C128.888988,254.057421 120.802323,230.127299 118.648234,225.66365 C118.259791,224.884282 116.847274,223.112993 115.046313,221.2 C114.445993,224.512311 113.739734,227.895474 112.96285,231.314063 C109.696402,247.698491 105.847291,264.508029 101.733333,281.866667 C106.0062,280.750754 110.702821,278.625207 111.656271,278.09382" id="Fill-408" fill="#C06B33"></path>
            <path d="M181.066667,422.261121 C172.381166,412.52469 166.773623,397.72097 166.189872,374.266667 C157.822781,376.130705 153.683459,381.270382 151.684556,383.695441 C148.128984,387.984539 142.2561,413.918194 151.436904,422.243024 C158.424221,428.613328 171.496695,429.771566 181.066667,422.261121" id="Fill-409" fill="#C06B33"></path>
            <path d="M119.229115,299.805805 C116.387813,302.790975 109.865328,336.285293 121.355624,341.029581 C132.86379,345.791638 147.820832,319.36933 146.444856,312.546084 C145.694323,308.867928 136.169707,303.679419 132.256216,300.712018 C128.360595,297.744616 122.606512,296.252031 119.229115,299.805805" id="Fill-410" fill="#C06B33"></path>
            <path d="M156.255113,213.541471 C158.213391,216.080303 170.126255,214.471184 174.623043,207.19439 C175.384596,192.372614 176.019224,177.979938 176.4,164.266667 C163.52613,166.322763 151.359415,171.614977 150.41654,178.105091 C149.67312,183.361547 151.867117,193.445361 153.227033,198.576663 L156.255113,213.541471" id="Fill-411" fill="#C06B33"></path>
            <path d="M145.495215,448.213629 C138.167008,450.155294 135.246746,478.237522 138.552703,482.911901 C143.217777,489.509966 154.953928,486.795231 157.690526,485.770463 C171.153122,480.646625 157.874191,444.923586 145.495215,448.213629" id="Fill-412" fill="#C06B33"></path>
            <path d="M117.960456,354.82503 C111.648356,356.445413 111.630424,362.962952 111.128325,369.04839 C110.697955,374.251619 112.437369,385.504278 118.982586,386.314469 C125.545736,387.12466 134.475923,382.137482 136.932621,373.117351 C139.389319,364.09722 124.272556,353.222651 117.960456,354.82503" id="Fill-413" fill="#C06B33"></path>
            <path d="M192.751072,519.510183 C196.669032,517.618575 197.410268,508.832319 196.686681,504.465709 C196.104281,500.947671 193.562901,492.815523 190.650904,491.047665 C181.279567,485.337483 160.595561,492.850881 158.777768,502.397315 C157.771806,507.665533 163.807582,511.201249 168.378536,513.517143 C170.831673,514.772323 183.044414,524.177329 192.751072,519.510183" id="Fill-414" fill="#C06B33"></path>
            <path d="M251.49105,485.461448 C247.768843,479.073932 228.69476,476.747945 223.33407,476.944759 C219.059766,477.105789 206.183424,485.908753 203.992844,489.701901 C201.784453,493.477156 206.39714,522.140466 220.306438,521.728946 C237.706418,521.210072 255.231066,491.866857 251.49105,485.461448" id="Fill-415" fill="#C06B33"></path>
            <path d="M267.653253,535.176168 C272.929321,532.449233 278.402123,522.7 280.959674,519.081908 C282.533552,516.854021 284.322049,514.60831 284.626094,511.827906 C285.216298,506.267099 279.260602,501.526154 273.716259,501.223162 C268.171917,500.920169 263.092585,503.647103 258.209987,506.053222 C254.776072,507.746416 242.900449,513.788447 247.407462,523.80503 C251.896591,533.821612 263.718559,537.190178 267.653253,535.176168" id="Fill-416" fill="#C06B33"></path>
            <path d="M176.973891,527.390027 C175.383801,525.010019 157.892805,509.364961 145.672335,507.037452 C138.740255,505.707447 126.769911,510.222464 123.857723,514.159979 C115.782207,525.045019 140.812732,543.927588 146.011792,545.852596 C149.906621,547.305101 154.212371,547.0251 158.357326,546.552598 C163.735048,545.940096 179.939678,531.835044 176.973891,527.390027" id="Fill-417" fill="#C06B33"></path>
            <path d="M234.022183,529.681354 C229.009299,527.594559 213.277957,532.757577 212.147779,536.26555 C211.017602,539.773524 213.350871,558.014987 218.145012,559.885906 C227.478091,563.537796 253.362802,556.845662 253.854976,552.006457 C254.365379,547.167253 238.014262,531.336398 234.022183,529.681354" id="Fill-418" fill="#C06B33"></path>
            <path d="M281.994805,535.927606 C277.882221,534.36592 270.940038,542.564769 268.303766,548.154893 C265.667494,553.72727 264.05058,562.032597 265.79052,565.457657 C267.512884,568.882717 282.293582,569.699053 285.158331,565.848078 C288.040655,561.979358 286.107389,537.471545 281.994805,535.927606" id="Fill-419" fill="#C06B33"></path>
            <path d="M270.742117,582.657317 C269.731317,577.798384 258.807583,579.855451 258.381983,582.373584 C257.93865,584.909451 258.647983,591.133851 259.570117,592.800784 C260.49225,594.467717 264.411317,595.247984 266.308783,595.354384 C268.20625,595.460784 270.17465,591.062917 270.65345,588.101451 C270.937183,586.292651 271.114517,584.448384 270.742117,582.657317" id="Fill-420" fill="#C06B33"></path>
            <path d="M148.295384,572.366863 C147.315835,566.687602 147.048685,560.70663 143.860698,555.48881 C140.69052,550.288737 125.747943,543.544615 122.738055,545.372627 C119.728168,547.218386 122.399666,563.067073 123.005205,565.480759 C123.628555,567.876697 130.485399,581.790886 135.935254,583.228449 C138.945142,584.027095 145.677316,580.033865 146.621245,579.057742 C148.170714,577.46045 148.633774,574.336856 148.295384,572.366863" id="Fill-421" fill="#C06B33"></path>
            <path d="M150.905237,588.04751 C148.635371,587.852443 142.978437,592.35671 142.286837,594.502443 C141.612971,596.630443 144.432571,601.223376 145.975371,602.35831 C147.518171,603.47551 153.724837,604.770043 155.196704,602.819376 C156.668571,600.886443 153.192837,588.242576 150.905237,588.04751" id="Fill-422" fill="#C06B33"></path>
            <path d="M195.168102,532.991186 C190.757315,534.165009 184.002212,542.038655 182.699814,545.542066 C181.397416,549.063536 178.045912,555.943946 182.005202,558.381887 C185.704011,560.675357 201.419611,561.343534 203.138776,554.824299 C204.840576,548.305065 199.578889,531.835421 195.168102,532.991186" id="Fill-423" fill="#C06B33"></path>
            <path d="M104.796028,416.514024 C102.245448,426.82244 102.051956,444.585731 103.863747,452.718322 C105.693128,460.850913 114.734493,460.743905 121.893706,455.643201 C126.53752,452.32596 135.860328,442.320733 137.126823,433.207237 C137.918382,427.660668 132.342287,403.298563 117.760008,398.804237 C110.407303,396.539239 106.660589,409.005645 104.796028,416.514024" id="Fill-424" fill="#C06B33"></path>
            <path d="M104.862913,488.169232 C106.557814,498.404389 116.480048,509.650644 126.049176,500.799096 C135.618305,491.947548 128.114837,468.142383 123.224341,466.918422 C116.568324,465.233257 102.17932,471.973915 104.862913,488.169232" id="Fill-425" fill="#C06B33"></path>
            <path d="M177.800466,474.90861 C183.855872,479.069156 197.062767,479.268139 204.879092,472.73789 C212.713386,466.225731 213.252443,458.049353 209.964196,453.454662 C208.203277,451.012603 191.420638,436.269798 176.740321,435.075902 C162.077973,433.863916 164.48576,440.683594 164.324043,444.012031 C164.198263,446.508359 166.731831,467.256822 177.800466,474.90861" id="Fill-426" fill="#C06B33"></path>
            <path d="M122.822695,87.0078664 C94.101844,89.7394233 57.8031206,86.0500477 42.9333333,53.1826776 C61.3597163,46.6907955 88.9546099,53.1472028 97.8192908,56.4995681 C109.865248,61.0935502 126.057589,69.518807 135.333333,78.2633367 C135.208227,80.8352572 133.260142,86.1209972 122.822695,87.0078664" id="Fill-427" fill="#F0AE62"></path>
            <path d="M85.0950617,63.7615739 C90.232716,66.5249815 99.9888889,73.9897706 110.174691,77.9016073 C118.355556,81.0418431 126.840741,83.7693622 132.533333,83.9667485 L130.564198,85.330508 C123.618519,86.9813749 107.507407,88.5963533 83.6987654,82.082607 C64.8308642,76.914676 54.287037,66.2019858 51.3333333,59.0601923 C58.8160494,58.7013082 68.2141975,54.6818063 85.0950617,63.7615739" id="Fill-428" fill="#E98776"></path>
            <path d="M15.3832816,166.167573 C30.1779156,126.269977 93.3040583,91.8153875 121.790842,73.1561908 C139.875148,61.2918588 161.64033,66.361326 171.100361,76.2334463 C180.560391,86.1055666 180.755993,105.920958 171.082579,123.085996 C161.409164,140.251034 134.896184,190.501015 91.2057809,215.296935 C33.1119476,248.275153 1.4955302,203.592692 15.3832816,166.167573" id="Fill-429" fill="#F8C667"></path>
            <path d="M165.621194,78.8202139 C167.682879,76.9297554 185.767833,59.0334148 191.573103,53.2 L192.929474,56.8008734 C194.213506,59.2494672 195.931577,60.9238733 197.866667,62.0041354 C192.911389,66.7932969 176.381742,84.1675109 173.668998,86.3280349 C170.558386,88.7946331 163.396745,80.8907161 165.621194,78.8202139" id="Fill-430" fill="#DD965E"></path>
            <path d="M199.437877,38.2571672 C205.992648,36.0482162 214.037956,37.815377 217.970818,43.399605 C221.921639,49.0015046 220.682518,57.6959356 214.953828,61.5306745 C209.943469,64.8529367 198.198755,67.0972309 193.206354,57.6605924 C188.66291,49.0368479 193.026772,40.4131033 199.437877,38.2571672" id="Fill-431" fill="#C06B33"></path>
            <path d="M152.813918,33.5172427 C155.478303,34.0647792 158.06969,34.1530916 160.533333,33.8881545 C158.671914,38.9572831 149.164077,65.7689109 147.886632,68.3299689 C146.499692,71.120639 138.415293,70.0962158 139.108763,67.5881452 C139.729236,65.3803366 145.295245,40.72353 147.284408,31.7333333 C148.908588,32.475157 150.715259,33.0933434 152.813918,33.5172427" id="Fill-432" fill="#DD965E"></path>
            <path d="M141.874041,6.39887526 C147.196418,1.21651126 157.193856,-3.14382259 167.389085,3.02140355 C177.602296,9.20449991 177.782106,18.3719231 174.527544,24.4835386 C170.625666,31.8281993 162.084689,34.9733582 152.932358,33.0433743 C143.798008,31.1133905 139.428624,26.1275989 138.295821,18.2647018 C137.684467,14.0115893 138.781308,9.41894256 141.874041,6.39887526" id="Fill-433" fill="#C06B33"></path>
            <path d="M0.148683953,170.880027 C1.15085339,158.389665 6.73436885,136.553742 18.778298,138.223861 C30.8222272,139.911748 33.452922,149.292845 35.4751567,155.013892 C47.1074806,148.511086 61.567354,148.919733 72.8775519,156.079926 C74.6671402,149.079638 79.8748421,143.323056 86.1026094,141.404195 C92.3482725,139.503102 99.4350421,141.493031 104.123763,146.50339 C106.432332,148.955267 108.150337,152.028998 109.546216,155.244866 C114.70023,167.184444 115.272898,181.522597 111.103158,193.941889 C108.132441,202.789969 92.9746284,227.219908 61.3168116,227.717391 C29.6589948,228.23264 18.5456515,216.150925 10.9220054,207.107406 C3.26256757,198.028352 -0.853485488,183.370389 0.148683953,170.880027" id="Fill-434" fill="#DD965E"></path>
            <path d="M87.163376,152.388046 C88.812576,150.577771 92.962176,151.168882 94.238976,151.981658 C99.452576,155.380541 101.811109,172.06093 91.525776,171.728431 C81.2227094,171.414404 81.6128427,158.502342 87.163376,152.388046" id="Fill-435" fill="#17111C"></path>
            <path d="M19.1202968,150.335829 C29.1928302,151.613749 26.8874968,172.213814 14.1017635,167.221408 C9.56203017,165.449359 9.0477635,149.074948 19.1202968,150.335829" id="Fill-436" fill="#17111C"></path>
            <path d="M82.9481971,204.069329 C80.0973991,210.275996 74.0910008,216.269863 65.5386069,218.114129 C55.8925105,220.171196 48.5593257,215.188129 44.1127981,209.052396 C42.9653071,207.456396 46.1388369,206.019996 47.2863279,207.615996 C51.2128987,213.042396 57.4344516,217.440263 65.8971978,215.028529 C72.4773416,213.166529 77.1569534,208.254396 79.4160763,203.324529 C80.2049764,201.604396 83.7550267,202.349196 82.9481971,204.069329" id="Fill-437" fill="#17111C"></path>
            <path d="M142.158283,114.972226 C152.03575,113.141814 148.985616,126.399477 143.63015,131.138023 C141.92775,132.643409 139.90615,132.711836 138.239216,132.352596 C136.536816,131.976249 134.940816,130.984063 134.32015,128.89705 L134.178283,124.671704 C134.568416,121.814892 135.792016,118.701479 137.707216,116.871066 L142.158283,114.972226" id="Fill-438" fill="#17111C"></path>
            <path d="M98.6397463,102.342234 C99.6150796,101.25103 104.101613,95.84616 108.23348,98.9492713 C112.365346,102.069433 107.48868,110.321663 105.94588,112.128969 L102.11548,115.368481 C100.129346,116.255084 98.2141463,115.470782 97.238813,113.612325 C96.2457463,111.736818 96.174813,108.906508 96.866413,106.127347 L98.6397463,102.342234" id="Fill-439" fill="#17111C"></path>
            <path d="M144.513348,87.7129651 C143.449348,84.6984547 142.367615,81.3547738 143.679881,78.4442121 C144.797081,75.9667697 155.614415,70.3188941 158.398548,74.0263953 C161.182681,77.7338964 162.424015,90.7274754 150.312148,91.4551158 C146.783215,91.6630131 144.992148,89.012323 144.513348,87.7129651" id="Fill-440" fill="#DD965E"></path>
            <path d="M138.582961,90.2396303 C139.706893,94.5398554 138.261838,100.457107 137.994235,101.150119 C137.013024,103.637852 133.587708,103.797778 130.91168,103.477927 C128.14645,103.140306 125.238499,102.696067 122.990635,101.007963 C120.029164,98.7690024 116.83577,89.5821579 117.76346,85.8150186 C120.439488,74.7090654 134.658119,73.1275777 137.726632,75.7930065 C140.795145,78.4584352 137.476869,85.9394053 138.582961,90.2396303" id="Fill-441" fill="#DD965E"></path>
            <path d="M145.290289,98.3798569 C147.134556,97.0143903 149.581756,96.7129236 151.869356,96.9079903 C153.837756,97.0675903 155.894822,97.6350569 157.189356,99.1246569 C159.246422,101.500924 159.104556,105.278124 155.203222,106.927324 C151.319622,108.55879 144.314956,106.69679 143.304156,104.426924 C142.382022,102.33439 143.428289,99.7275903 145.290289,98.3798569" id="Fill-442" fill="#DD965E"></path>
            <path d="M163.520401,89.3592003 L167.758667,87.905067 L168.538934,89.341467 C169.780267,93.225067 170.418667,101.417867 165.311467,101.559734 C160.204267,101.719334 161.977601,91.5936003 163.520401,89.3592003" id="Fill-443" fill="#DD965E"></path>
            <path d="M120.258479,120.843521 C114.814346,120.737121 113.342479,107.419387 121.641679,106.036187 C125.968613,105.326854 130.632479,109.440987 129.497546,113.696987 C128.717279,116.658454 123.911546,120.896721 120.258479,120.843521" id="Fill-444" fill="#DD965E"></path>
            <path d="M177.272771,95.2 C184.204139,96.0710396 219.555897,104.425909 236.804135,117.100424 C248.849391,125.953031 258.025881,138.734204 262.266667,153.04414 C245.499527,154.661785 227.592008,154.946206 212.250342,147.995666 C196.908677,141.027349 185.415792,132.903571 175.34838,107.501212 C173.905088,103.910396 174.279275,98.1686452 177.272771,95.2" id="Fill-445" fill="#F0AE62"></path>
            <path d="M174.533333,105.466667 C188.336187,120.527719 211.519969,113.905128 225.949411,119.584178 C245.767517,127.417349 249.992515,145.1488 251.066667,148.42449 C242.598768,150.186954 231.427587,149.047583 224.964772,147.854805 C202.300164,143.67118 185.274854,125.512464 177.182908,112.747955 C176.502612,111.234729 175.840218,109.63249 175.177825,107.959039 L174.533333,105.466667" id="Fill-446" fill="#E98776"></path>
            <path d="M204.4,592.251804 C210.357713,633.205826 218.68781,664.983575 219.294284,667.55436 C220.614256,673.249361 235.597727,674.052731 236.025826,666.536758 C236.239876,662.966224 238.18416,624.172375 238.933333,585.2 C228.944353,588.645565 217.046763,591.055675 204.4,592.251804" id="Fill-447" fill="#E39B5C"></path>
            <path d="M215.6,655.168345 C217.288656,662.275693 218.456343,666.713366 218.671916,667.597365 C220.001283,673.237275 235.091397,674.032874 235.522543,666.589606 C235.594401,665.493448 235.827938,661.020415 236.133333,654.266667 C231.013473,656.388263 221.168971,656.883302 215.6,655.168345" id="Fill-448" fill="#17111C"></path>
            <path d="M109.363498,571.924879 C90.4123593,555.903665 76.5993192,537.090741 70.9333333,507.733333 C72.7985336,541.980679 80.8400105,589.421965 83.6905996,606.794579 C89.2334119,640.526258 95.6736318,665.313797 96.2015187,667.572059 C97.5036397,673.244387 112.284472,674.044558 112.706782,666.558508 C112.935533,662.717685 115.135062,618.210361 115.733333,576.601437 C113.481016,575.143347 111.334276,573.596348 109.363498,571.924879" id="Fill-449" fill="#F0AE62"></path>
            <path d="M93.3333333,655.168345 C95.0054874,662.275693 96.1741973,666.713366 96.3899591,667.597365 C97.7204904,673.237275 112.823818,674.032874 113.255342,666.589606 C113.327262,665.493448 113.561004,661.020415 113.866667,654.266667 C108.742323,656.388263 98.8892002,656.883302 93.3333333,655.168345" id="Fill-450" fill="#17111C"></path>
        </g>
    </g>
</svg>